<?xml version="1.0" encoding="UTF-8"?>
<svg version="1.1" viewBox="0 0 914 288" width="50em"
     xmlns="http://www.w3.org/2000/svg" xmlns:cc="http://creativecommons.org/ns#" xmlns:xlink="http://www.w3.org/1999/xlink"
     xmlns:dc="http://purl.org/dc/elements/1.1/" xmlns:rdf="http://www.w3.org/1999/02/22-rdf-syntax-ns#">
 <rect id="fond_blanc" width="100%" height="100%" fill="#fff" stroke="#fff"/>
 <title>Avec le C++, Compilé c'est Testé, Linké c'est Livré (constexpr et static_assert)</title>
 <metadata>
  <rdf:RDF>
   <cc:Work rdf:about="https://github.com/cpp-frug/materials/blob/gh-pages/compiler-c-est-tester_copyright-OliverH-2016_CC-BY-SA-3.0.svg">
    <dc:format>image/svg+xml</dc:format>
    <dc:type rdf:resource="http://purl.org/dc/dcmitype/StillImage"/>
    <dc:creator>Oliver H</dc:creator>
    <dc:language>fr</dc:language>
    <dc:date>2016</dc:date>
    <cc:license rdf:resource="http://creativecommons.org/licenses/by-sa/3.0/"/>
   </cc:Work>
   <cc:License rdf:about="http://creativecommons.org/licenses/by-sa/3.0/">
    <cc:permits rdf:resource="http://creativecommons.org/ns#Reproduction"/>
    <cc:permits rdf:resource="http://creativecommons.org/ns#Distribution"/>
    <cc:permits rdf:resource="http://creativecommons.org/ns#DerivativeWorks"/>
    <cc:requires rdf:resource="http://creativecommons.org/ns#Notice"/>
    <cc:requires rdf:resource="http://creativecommons.org/ns#Attribution"/>
    <cc:requires rdf:resource="http://creativecommons.org/ns#ShareAlike"/>
   </cc:License>
  </rdf:RDF>
 </metadata>
 <g fill="none" stroke="#030" stroke-width="2">
  <path id="bras_coude" d="m107 117-20 30-84-24 30 39"/>
  <path id="main_hanche" d="m34 159 8 1-8 2 9 1-9 1 8 2-7 1h-1"/>
  <path id="main_pouce" d="m107 107c4 6-2 6 1 11 3 2 7-1 7-2h-6l6-2h-6l6-2"/>
 </g>
 <g fill="none" stroke-width="2">
  <g id="developeur" transform="translate(-106,-91)" stroke="#030">
   <ellipse cx="151" cy="186" rx="20" ry="18"/>
   <path d="m150 205 2 78 34 90h15"/>
   <path d="m155 378-13-2 9-93"/>
   <path d="m166 186 11-4"/>
   <circle cx="156" cy="180" r="1"/>
   <path d="m169 194c-8 4-15 3-23 0 3 9 16 7 16 7"/>
  </g>
  <use transform="translate(439)" xlink:href="#developeur"/>
  <path id="bras_horizontal" d="m415 133 11 2-10-6 10 4-6-7 7 5v-6 11l24 27 32-27 36 24 28-29-4-10 5 7v-9l1 10 4-8-5 10 7.5-5.5" stroke="#030"/>
  <path id="table" d="m151 175-63 46 149 40 61-52z" fill="#fff" stroke="#000"/>
  <g id="tete" transform="translate(-106,-65)" stroke="#003">
   <ellipse cx="340" cy="195" rx="21" ry="22"/>
   <path d="m357 181 5-2-4 3 5-1-5 3 5-1-4 3"/>
   <path d="m323 181-5-1 4 3-5-1 4 3-5-1 4 3h-4"/>
  </g>
  <g id="oeuil_inquiet" transform="translate(-173,-62)" stroke="#003">
   <circle cx="398" cy="189" r="8"/>
   <circle cx="395" cy="189" r="2"/>
  </g>
  <use transform="translate(16,1)" xlink:href="#oeuil_inquiet"/>
  <path id="pas_sourire" d="m221 145c4-3 13-3 17 1" stroke="#003"/>
  <path id="boss_inquiet" d="m212 136c-18-2-17 30-18 39 0 0-17 18-18 19s-7 0-7 2 8 1 8 1-9 5-8 7 10-5 10-5-9 10-6 11c2 1 9-10 9-10s-1 12 1 12 2-12 2-12c1 0 6 5 7 3s-4-5-4-7 20-18 20-18m47-41c20 2 18 41 14 47 0 0-36 29-36 30s1 7-1 7-1-8-1-8-4 9-6 9c-2-1 4-10 3-10 0 0-8 8-10 7s8-9 8-9-10 4-11 2c0-2 10-4 10-5s-7-3-6-4 5 1 8 0c3 0 17-17 17-17" fill="#fff" stroke="#003"/>
  <use transform="matrix(.82255 .5687 -.5687 .82255 671.7 -91.738)" xlink:href="#tete"/>
  <g id="a" transform="matrix(.94609 .32392 -.32392 .94609 9.5927 -338.16)" stroke="#003">
   <circle cx="888" cy="200" r="8"/>
   <path d="m885 200c2-1 7 1 8 2"/>
  </g>
  <use transform="matrix(.86009 .51014 -.51014 .86009 194.63 -372.03)" xlink:href="#a"/>
  <path id="boss_content" d="m769 162-17-4s-21-64-21-65 10-8 6-10-7 6-7 3c-1-4 9-20 5-21s-9 19-10 19 2-22-2-21-2 21-3 21c0 0-6-19-9-17s6 17 5 18c0 0-12-8-13-4-1 3 10 7 11 8 1 0 22 73 22 73-23 11-29 13-42 36l-38-36s-55-3-60-12c-5-10 8-17 5-22s-10-5-10-5l-12 39 64 19 25 40 101 20c13-10 22-20 30-36l48 14s43-4 43-3c1 0 9 9 11 6s-9-9-9-9c1 0 14 7 16 3s-15-7-15-7c1-1 19 3 19-2 0-4-18-2-18-3s17-2 15-6c-1-4-21 3-22 3s7-8 3-8-7 7-7 7l-36 3-49-16-10-16" stroke="#003"/>
  <path id="boss_sourire" d="m774 148c2 15 12 18 26 13-9 0-21-8-26-13z" stroke="#003"/>
  <use transform="translate(514,25)" xlink:href="#table"/>
 </g>
 <g font-family="sans-serif" font-size="25px">
  <text fill="#030">
   <tspan x="1" y="20">Compilé c'est Testé</tspan>
   <tspan x="1" y="51">Linké c'est Livré</tspan>
  </text>
  <text x="193" y="95" fill="#003">Pas testé ?</text>
  <text fill="#030">
   <tspan x="360" y="19">
    <tspan>Le code est</tspan>
    <tspan font-family="monospace" font-weight="bold">constexpr</tspan>
    <tspan>et</tspan>
   </tspan>
   <tspan x="360" y="50">
    <tspan>les tests</tspan>
    <tspan font-family="monospace" font-weight="bold">static_assert()</tspan>
   </tspan>
  </text>
  <text fill="#003">
   <tspan x="740" y="19">Formidable le</tspan>
   <tspan x="740" y="50">nouveau C++</tspan>
  </text>
 </g>
</svg>
