<?xml version="1.0" encoding="UTF-8"?>
<svg version="1.1" viewBox="0 40 913 1027.66" width="20em"
     xmlns="http://www.w3.org/2000/svg" xmlns:xlink="http://www.w3.org/1999/xlink">
<metadata xmlns:rdf="http://www.w3.org/1999/02/22-rdf-syntax-ns#" >
 <rdf:RDF xmlns:cc="http://creativecommons.org/ns#" xmlns:dc="http://purl.org/dc/elements/1.1/">
  <dc:source>https://github.com/cpp-frug/materials/blob/gh-pages/images/cpp-concepts-bjarne-path.2003.svg</dc:source>
  <cc:Work rdf:about="https://github.com/cpp-frug/materials/blob/gh-pages/images/cpp-concepts-bjarne-path.2003.svg">
   <dc:format>image/svg+xml</dc:format>
   <dc:type rdf:resource="http://purl.org/dc/dcmitype/StillImage"/>
   <dc:creator>Oliver H</dc:creator>
   <dc:language>fr</dc:language>
   <dc:date>2017</dc:date>
   <cc:license rdf:resource="http://creativecommons.org/licenses/by-sa/3.0/"/>
  </cc:Work>
  <dc:rights>CC BY-SA 3.0</dc:rights>
   <cc:License rdf:about="http://creativecommons.org/licenses/by-sa/3.0/">
    <cc:permits rdf:resource="http://creativecommons.org/ns#Reproduction"/>
    <cc:permits rdf:resource="http://creativecommons.org/ns#Distribution"/>
    <cc:permits rdf:resource="http://creativecommons.org/ns#DerivativeWorks"/>
    <cc:requires rdf:resource="http://creativecommons.org/ns#Notice"/>
    <cc:requires rdf:resource="http://creativecommons.org/ns#Attribution"/>
    <cc:requires rdf:resource="http://creativecommons.org/ns#ShareAlike"/>
   </cc:License>
 </rdf:RDF>
</metadata>
<g id="texte" fill="#000" stroke="#fff">
 <path d="m35 97v-7h-24l18-19c3-4 6-8 6-14 0-10-8-16-19-16-5 0-10 2-16 4v9c5-3 10-5 16-5 5 0 9 3 9 9 0 4-3 9-6 11 0 1-18 19-19 21v7z"/>
 <path d="m82 69c0-11-3-29-19-29s-19 17-19 29c0 11 3 28 19 28s19-17 19-28zm-9 0c0 7 0 21-10 21-9 0-10-14-10-21s0-21 10-21c9 0 10 15 10 21z"/>
 <path d="m129 69c0-11-3-29-19-29s-19 17-19 29c0 11 3 28 19 28s19-17 19-28zm-9 0c0 7 0 21-10 21-9 0-10-14-10-21s0-21 10-21c9 0 10 15 10 21z"/>
 <path d="m172 80c0-5-3-11-9-13 5-2 8-6 8-12 0-10-9-15-19-15-5 0-10 1-15 2v8c5-1 9-3 14-3s10 2 10 8c0 5-4 7-9 7h-7v7h7c6 0 11 2 11 9 0 8-5 10-12 10-6 0-10-1-14-4v9c5 1 9 3 15 3 12 0 22-5 22-17z"/>
 <path d="m217 72v-10h-9v10zm0 24v-10h-9v10z"/>
 <path d="m293 81c0-6-3-11-9-14 4-2 7-6 7-11 0-10-8-14-18-14h-18v55h20c11 0 19-4 19-16zm-12-24c0 5-3 7-8 7h-9v-15h9c5 0 9 2 9 7zm2 24c0 7-4 9-10 9h-10v-18h10c6 0 10 2 10 9z"/>
 <path d="m310 103v-42h-8v42c0 3 0 5-1 5l-2 2 3 6c2 0 4-2 6-3 1-2 3-5 3-10zm-4-61c-2 0-4 2-4 4s2 4 4 4 4-2 4-4-2-4-4-4z"/>
 <path d="m358 90c-1 1-1 1-3 1-1 0-2 0-2-2v-15c0-8-6-13-16-13-4 0-9 1-13 4v7c4-3 7-4 13-4 4 0 8 2 8 6v1c-2 0-5-1-8-1-9 0-16 4-16 12 0 7 5 12 13 12 4 0 8-1 11-4 0 2 2 4 6 4s8-5 8-8zm-14-9c0 6-2 10-9 10-3 0-6-1-6-5s1-5 7-6c3 0 5 0 7 1z"/>
 <path d="m387 71 3-8c-1-1-5-2-8-2s-5 1-7 4v-3h-9v36h9v-23c0-4 2-6 5-6 2 0 4 1 7 3z"/>
 <path d="m430 97v-21c0-9-4-15-14-15-4 0-8 1-11 4v-3h-9v36h9v-20c0-6 4-9 9-9s7 3 7 8v21h9z"/>
 <path d="m475 80v-3c0-10-6-17-17-17-12 0-18 9-18 19 0 11 7 18 19 18 5 0 10-1 15-3v-7c-6 3-7 3-15 3-6 0-10-5-10-10zm-9-6h-17c1-4 3-7 8-7s8 2 9 7z"/>
 <path d="m547 81c0-10-6-14-16-17l-4-1c-5-1-9-2-9-7 0-6 5-8 11-8s9 1 15 4v-8c-4-2-11-3-16-3-11 0-19 5-19 16 0 10 6 13 16 15l4 1c5 1 9 3 9 9s-6 8-11 8c-6 0-12-2-17-5v9c6 2 11 3 17 3 12 0 21-4 21-16z"/>
 <path d="m577 96v-7c-2 1-5 1-7 1h-1c-4 0-5-1-5-5v-19h10v-6h-10v-10h-5l-3 10h-4v6h4v19c0 9 4 12 14 12 2 0 5 0 7-1z"/>
 <path d="m606 71 3-8c-1-1-5-2-8-2s-5 1-7 4v-3h-9v36h9v-23c0-4 2-6 5-6 2 0 4 1 7 3z"/>
 <path d="m650 79c0-9-6-19-18-19s-18 8-19 19c0 10 7 19 19 19s18-9 18-19zm-9 0c0 6-3 11-9 11-7 0-9-7-9-12 0-6 3-11 9-11s9 5 9 11z"/>
 <path d="m693 97v-36h-9v20c0 5-3 9-9 9-5 0-7-3-7-8v-21h-9v21c0 9 4 15 14 15 4 0 8-2 10-5v4h9z"/>
 <path d="m734 86c0-7-6-10-13-11h-2c-3 0-7-1-7-4s4-4 7-4c6 0 6 0 12 3v-7c-4-1-8-2-13-2-8 0-16 3-16 11 0 7 5 9 12 11h2c3 1 7 1 7 4s-4 4-7 4c-7 0-8-1-14-3v8c4 1 10 2 14 2 8 0 17-3 17-11z"/>
 <path d="m766 96v-7c-2 1-5 1-7 1h-1c-4 0-5-1-5-5v-19h10v-6h-10v-10h-5l-3 10h-4v6h4v19c0 9 4 12 14 12 2 0 5 0 7-1z"/>
 <path d="m795 71 3-8c-1-1-5-2-8-2s-5 1-7 4v-3h-9v36h9v-23c0-4 2-6 5-6 2 0 4 1 7 3z"/>
 <path d="m838 97v-36h-9v20c0 5-3 9-9 9-5 0-7-3-7-8v-21h-9v21c0 9 4 15 14 15 4 0 8-2 10-5v4h9z"/>
 <path d="m849 116h8v-19c2 0 4 1 7 1 13 0 20-7 20-19 0-11-7-19-20-19-5 0-12 1-16 2v54zm8-26v-22c2 0 3-1 6-1 7 0 11 4 11 12 0 7-4 12-11 12-3 0-4 0-6-1z"/>
 <path d="m2 186h8v-19c2 0 4 1 7 1 13 0 20-7 20-19 0-11-7-19-20-19-5 0-12 1-16 2v54zm9-26v-22c2 0 3-1 6-1 7 0 11 4 11 12 0 7-4 12-11 12-2-1-4-1-6-1z"/>
 <path d="m69 141 3-8c-1-1-5-2-8-2s-5 1-7 4v-3h-9v36h9v-23c0-4 2-6 5-6 2 0 4 1 7 3z"/>
 <path d="m106 114h-10l-11 14h8zm5 36v-3c0-10-6-17-17-17-12 0-18 9-18 19 0 11 7 18 19 18 5 0 10-1 15-3v-7c-6 3-7 3-15 3-6 0-10-5-10-10zm-9-6h-17c1-4 3-7 8-7s8 2 9 7z"/>
 <path d="m150 156c0-7-6-10-13-11h-2c-3 0-7-1-7-4s4-4 7-4c6 0 6 0 12 3v-7c-4-1-8-2-13-2-8 0-16 3-16 11 0 7 5 9 12 11h2c3 1 7 1 7 4s-4 4-7 4c-7 0-8-1-14-3v8c4 1 10 2 14 2 8 0 17-3 17-11z"/>
 <path d="m193 150v-3c0-10-6-17-17-17-12 0-18 9-18 19 0 11 7 18 19 18 5 0 10-1 15-3v-7c-6 3-7 3-15 3-6 0-10-5-10-10zm-9-6h-17c1-4 3-7 8-7s8 2 9 7z"/>
 <path d="m236 167v-21c0-9-4-15-14-15-4 0-8 1-11 4v-3h-9v36h9v-20c0-6 4-9 9-9s7 3 7 8v21h9z"/>
 <path d="m270 166v-7c-2 1-5 1-7 1h-1c-4 0-5-1-5-5v-19h10v-6h-10v-10h-5l-3 10h-4v6h4v19c0 9 4 12 14 12 2 0 5 0 7-1z"/>
 <path d="m309 150v-3c0-10-6-17-17-17-12 0-18 9-18 19 0 11 7 18 19 18 5 0 10-1 15-3v-7c-6 3-7 3-15 3-6 0-10-5-10-10zm-9-6h-17c1-4 3-7 8-7s8 2 9 7z"/>
 <path d="m353 167v-55h-8v55z"/>
 <path d="m398 150v-3c0-10-6-17-17-17-12 0-18 9-18 19 0 11 7 18 19 18 5 0 10-1 15-3v-7c-6 3-7 3-15 3-6 0-10-5-10-10zm-9-6h-17c1-4 3-7 8-7s8 2 9 7z"/>
 <path d="m437 156c0-7-6-10-13-11h-2c-3 0-7-1-7-4s4-4 7-4c6 0 6 0 12 3v-7c-4-1-8-2-13-2-8 0-16 3-16 11 0 7 5 9 12 11h2c3 1 7 1 7 4s-4 4-7 4c-7 0-8-1-14-3v8c4 1 10 2 14 2 8 0 17-3 17-11z"/>
 <path d="m514 162v-9c-5 5-10 7-17 7-12 0-17-9-17-21s4-21 17-21c7 0 12 2 17 7v-9c-5-3-11-5-17-5-18 0-27 13-27 29s8 28 27 28c6 0 13-2 17-5z"/>
 <path d="m558 149c0-9-6-19-18-19s-18 8-19 19c0 10 7 19 19 19s18-9 18-19zm-9 0c0 6-3 11-9 11-7 0-9-7-9-12 0-6 3-11 9-11s9 5 9 11z"/>
 <path d="m601 167v-21c0-9-4-15-14-15-4 0-8 1-11 4v-3h-9v36h9v-20c0-6 4-9 9-9s7 3 7 8v21h9z"/>
 <path id="c" d="m643 165v-7c-5 2-6 3-12 3-7 0-11-4-11-12 0-7 4-12 11-12 5 0 7 1 12 3v-7c-4-1-7-2-12-2-13 0-20 7-20 19 0 11 7 19 20 19 4 0 9-1 12-2z"/>
 <path d="m686 150v-3c0-10-6-17-17-17-12 0-18 9-18 19 0 11 7 18 19 18 5 0 10-1 15-3v-7c-6 3-7 3-15 3-6 0-10-5-10-10zm-9-6h-17c1-4 3-7 8-7s8 2 9 7z"/>
 <path d="m695 186h8v-19c2 0 4 1 7 1 13 0 20-7 20-19 0-11-7-19-20-19-5 0-12 1-16 2v54zm8-26v-22c2 0 3-1 6-1 7 0 11 4 11 12 0 7-4 12-11 12-3 0-4 0-6-1z"/>
 <path d="m762 166v-7c-2 1-5 1-7 1h-1c-4 0-5-1-5-5v-19h10v-6h-10v-10h-5l-3 10h-4v6h4v19c0 9 4 12 14 12 2 0 5 0 7-1z"/>
 <path d="m800 156c0-7-6-10-13-11h-2c-3 0-7-1-7-4s4-4 7-4c6 0 6 0 12 3v-7c-4-1-8-2-13-2-8 0-16 3-16 11 0 7 5 9 12 11h2c3 1 7 1 7 4s-4 4-7 4c-7 0-8-1-14-3v8c4 1 10 2 14 2 8 0 17-3 17-11z"/>
 <path d="m871 160c-1 1-1 1-3 1-1 0-2 0-2-2v-15c0-8-6-13-16-13-4 0-9 1-13 4v7c4-3 7-4 13-4 4 0 8 2 8 6v1c-2 0-5-1-8-1-9 0-16 4-16 12 0 7 5 12 13 12 4 0 8-1 11-4 0 2 2 4 6 4s8-5 8-8zm-14-9c0 6-2 10-9 10-3 0-6-1-6-5s1-5 7-6c3 0 5 0 7 1z"/>
 <path d="m913 167v-36h-9v20c0 5-3 9-9 9-5 0-7-3-7-8v-21h-9v21c0 9 4 15 14 15 4 0 8-2 10-5v4h9z"/>
 <use transform="translate(-610,70)" fill="#000" stroke="none" xlink:href="#c"/>
 <path d="m77 219c0-9-6-19-18-19s-18 8-19 19c0 10 7 19 19 19s18-9 18-19zm-9 0c0 6-3 11-9 11-7 0-9-7-9-12 0-6 3-11 9-11s9 5 9 11z"/>
 <path d="m145 237v-21c0-8-3-15-13-15-5 0-10 2-13 6-2-4-6-6-11-6-4 0-8 2-11 5v-4h-9v36h9v-20c0-5 4-9 9-9s6 3 6 8v21h9v-20c0-5 3-9 9-9 5 0 6 3 6 8v21h9z"/>
 <path d="m164 237v-36h-8v36zm-4-55c-2 0-4 2-4 4s2 4 4 4 4-2 4-4-2-4-4-4z"/>
 <path d="m198 236v-7c-2 1-5 1-7 1h-1c-4 0-5-1-5-5v-19h10v-6h-10v-10h-5l-3 10h-4v6h4v19c0 9 4 12 14 12 2 0 5 0 7-1z"/>
 <path d="m233 184h-10l-11 14h8zm5 36v-3c0-10-6-17-17-17-12 0-18 9-18 19 0 11 7 18 19 18 5 0 10-1 15-3v-7c-6 3-7 3-15 3-6 0-10-5-10-10zm-9-6h-17c1-4 3-7 8-7s8 2 9 7z"/>
 <path d="m315 232v-9c-5 5-10 7-17 7-12 0-17-9-17-21s4-21 17-21c7 0 12 2 17 7v-9c-5-3-11-5-17-5-18 0-27 13-27 29s8 28 27 28c6 0 13-2 17-5z"/>
 <path d="m365 219v-6h-18v-17h-8v17h-19v6h19v17h8v-17z"/>
 <path d="m413 219v-6h-18v-17h-8v17h-19v6h19v17h8v-17z"/>
 <path d="m67.36 889c4-8 12-13 21-14 4-1 8-1 12-1 4 1 5 6 7 9 2 7 0 15-2 23-1 3-1 5-2 8 4 3 9 7 11 12 0 3-4 2-6 0l-9-6c-1 2-3 4-5 6-6 5-16 7-22 2-4-3-6-8-7-13-2-7-1-15 1-22 0-2 1-4 2-6zm15 18c0-3 4-4 6-2 3 1 5 3 8 5 3-5 4-12 5-18 1-4-2-7-5-9-3-1-7-1-11-1-3 0-5 2-7 3-2 2-4 3-5 6s-3 6-3 10c-1 5-1 11 1 17 1 3 4 6 7 6 5 0 10-2 13-5 1-3-3-5-5-7-1-1-3-2-4-5z"/>
 <path d="m119.4 891c6 1 2 9 3 13 0 6 0 13 2 20 3 3 8-3 10-6 5-7 8-15 10-24 0-6 8-4 6 1-1 8-3 17 0 25 1 3 3 12-3 9-2-3-4-14-4-14s-5 9-9 11c-3 3-9 6-14 3-3-4-3-9-4-14 0-7-1-15 0-22 0-1 1-2 2-2z"/>
 <path d="m163.4 897c6-5 14-9 22-8 7 0 12 5 12 12 0 9-3 18-10 24-8 6-22 5-28-4-5-8-2-19 4-25zm12 27c7 0 12-8 14-14 1-4 3-11-2-14-7-1-15 0-19 6-5 5-7 15 0 19 2 2 5 2 8 2z"/>
 <path d="m204.4 889c6-3 5 7 6 11 0 8 1 17 0 26-2 4-8 0-6-4 0-10-1-20-1-30 0-1 0-2 1-3zm-3-8c1-7 11 1 5 4-3 1-5-2-5-4z"/>
 <path d="m234.4 876c-3-5 4-5 8-4 2 0 3 0 2 2 0 8 0 16-3 23-1 2-1 11-5 7-1-5-1-11-2-16zm1 44c-5-1-2-9 2-9 5 0 5 6 3 9-1 2-3 0-5 0z"/>
 <path d="m314.4 885c-3-6-12-5-17-4-9 0-5 11-5 17 2 5 11 0 16-1 2-3 5-7 7-11zm-22-11c6 0 13-2 19 0 6 0 10 6 9 12 0 6-4 11-9 15-4 3-10 5-15 6-7-1-1 10-2 14 1 4 0 15-6 11-2-7-2-14-2-22s-1-17-1-26c-8 5-5-7 0-9 2-2 5-2 8-2z"/>
 <path d="m344.4 921c0-2 2-3 4-4s0-3-2-3c-4-1-8-1-12 1-2 1-4 4-3 7 2 1 4 2 6 1 2 0 4-1 6-2zm12 4c0 2-2 4-4 4-1-1-2-3-2-4s0-4-1-2c-3 3-6 5-10 6-3 1-6 0-10-1-2 0-3-2-3-4 0-3 0-7 2-9 3-2 6-4 10-5 3-1 7-1 10 0 1 1 3 1 3 1 0-4 0-8-1-11 0-1-1-3-3-3-5 0-11 3-16 5-1 0-4 1-4-1s2-3 3-4c3-1 6-2 9-3 4-1 8-2 12 0 3 2 5 6 5 10 0 8 0 15 1 23z"/>
 <path d="m362.4 924c0-5 5-2 6 1 3 2 8 4 11 0 2-2 5-7 0-9-4-2-9-3-13-5-3-2-7-6-5-10 3-6 10-10 17-10 4-2 13 4 9 8-4-1-8-5-12-2-3 1-11 5-7 9 6 4 14 3 18 9 3 5 0 13-5 16-4 2-9 0-13 0-3 0-6-4-6-7z"/>
 <path d="m408.4 899c0-3 4-3 4-6 0-2 2-6 5-4 1 2 4 1 6 1 6-1 13-2 19 0 4 1 6 5 6 9 0 6-3 12-6 17-3 6-10 10-17 10h-4c1 6 3 11 3 17 0 3-3 4-5 2-2-1-2-4-2-6-3-11-3-23-5-35 0-3-4-1-4-4zm32-4c-3-1-7 0-10 0s-7 1-10 2c0 7 0 14 2 20 1 1 3 1 5 2 3 0 6-2 8-5 4-4 7-9 7-15 0-2 0-4-2-6z"/>
 <path d="m460.4 897c5-5 12-8 19-8 5 0 12 1 14 7 2 10-1 20-7 28-7 8-23 9-30-1-5-6-4-14 0-21 1-2 3-3 4-5zm12 27c7 0 11-7 14-13 2-5 4-15-4-15-6 0-13 1-17 6-5 4-7 12-3 18 2 3 6 4 10 4z"/>
 <path d="m501.4 891c6 2 1 11 3 17 0 6 0 11 2 17 4 2 7-3 10-6 5-7 9-16 10-25 0-6 8-5 6 1-1 8-3 17 0 25 1 3 4 11-2 10-4-3-4-15-4-15s-10 14-18 16c-6 1-9-5-10-10-1-9-2-18 0-28 0-1 1-2 2-2z"/>
 <path d="m566.4 895c5 0 4 6 0 6-6 4-12 11-14 18-1 4-1 8-3 12-6 3-5-7-6-11-1-8-1-17-1-25 0-4 6-4 5 0 0 4 2 13 2 13s9-11 15-13h1z"/>
 <path d="m628.4 880c-3 5-7-5-12 0-7 2-15 6-16 14-1 7-2 14 0 21 3 9 14 8 19 2 5-3 7-11 13-13 3 7-5 13-9 18-6 6-16 9-23 3-4-3-7-8-6-13 0-8-1-17 2-25 4-8 14-13 23-13 4 0 9 3 9 7z"/>
 <path d="m675.4 899c3 0 4 5 2 6-3 1-7 1-10 2-1 0-3 0-4 1v21h-6v-21c-4 0-8 2-13 1-2 0-2-3-1-5 1-1 3-1 5-2 3 0 5-1 8-1v-10c1-2 5-3 6 0 1 2 1 4 1 6v5c4 0 8-1 13-1z"/>
 <path d="m720.4 899c3 0 4 5 2 6-3 1-7 1-10 2-1 0-3 0-4 1v21h-6v-21c-4 0-8 2-13 1-2 0-2-3-1-5 1-1 3-1 5-2 3 0 5-1 8-1v-10c1-2 5-3 6 0 1 2 1 4 1 6v5c4 0 8-1 13-1z"/>
 <path d="m752.4 916c3-6 7-13 5-21-2-5-9-2-11 2-4 6-8 13-9 20-1 5 6 7 9 4 2-1 4-3 5-5zm-14-20c3-5 9-10 15-11 6 0 9 7 9 13 0 9-4 18-9 24-4 5-12 8-18 4-5-3-6-11-3-16l6-15z"/>
 <path d="m780.4 930c-6 1-9-5-8-10 3-4 6 2 7 4 5 0 12-2 14-7s0-13-6-11c-3 1-10 6-11 0 2-3 7-6 10-9 2-2 3-4 0-3-5 0-12 3-17 1-1-1-3-4 0-4 9-2 18-3 27-5 6 1 1 7-1 10-1 1-5 4-3 5 5 1 10 6 9 11 0 7-5 14-12 17-3 1-6 2-9 2z"/>
 <path d="m833.4 926c-2-8 10-5 8 0-1 5-8 6-8 0zm4-13c-5-3-3-11-2-16 3-4 7-7 8-13 2-6-5-13-10-8-6 1-3 13 1 10 3-2-4-3 0-6 6-4 8 7 3 10-5 4-13-2-13-8 0-7 6-12 13-13 8 0 13 10 11 17-1 6-6 10-9 15 0 4 1 8-1 12z"/>
 <path d="m96.36 976c0-6 5-13 2-19-1-8-10-7-15-4-9 3-12 15-12 24 1 6 4 13 10 15 8 0 13-10 15-16zm-5 18c-5 4-15 4-19-1-8-9-11-23-5-34 3-6 8-11 15-13 4-4 11-7 17-3 7 6 7 18 5 27s-4 18-11 24l-1 1h-1z"/>
 <path d="m137.4 994c-2 0-4-2-7-3-2 0-3-2-5-2-3-1-5-2-8-2 0 3 1 6 0 9 0 2-3 3-4 2-2-1-2-5-2-7-1-8 0-17-2-25-1-7-1-13-1-20 0-2 3-4 5-1 1 2 1 5 1 8 1 7 1 14 2 22 5-4 9-8 14-12 1-1 3-2 4-1 2 1 1 4 0 5-2 2-3 4-5 6-3 3-7 5-10 8-2 1 0 2 1 3 6 2 12 4 17 8 2 1 5 4 2 6z"/>
 <path d="m172.4 968c-3-4-8-6-13-5-4 1-9 6-9 9 7 0 14-1 21-3 0 0 1 0 1-1zm9 11c3 3-2 7-4 10-6 6-17 10-26 5-8-5-11-17-6-26 4-5 10-12 17-10 6 0 12 2 14 7 5 6-3 10-9 10-6 1-13 1-19 2-1 6 5 12 11 13 8 1 14-6 20-11 0 0 1-1 2-1z"/>
 <path d="m189.4 961c2 0 2 3 2 5v19c0 3 3 1 4 0 3-3 6-6 7-10 1-3 2-7 3-11 0-2 2-4 4-4s2 3 2 5l-3 15v7c2-1 4-2 6-1 2 2 0 4-2 5-1 0-2 1-3 1v11c0 3 0 6-1 9-1 2-4 1-6 0-3-1-5-2-6-5s-3-6-2-9c1-2 2-4 4-5 1-1 5-1 5-4 0-2 0-3-2-1-2 3-6 5-10 5s-6-4-6-8v-19c0-2 1-4 3-4zm17 46c1-3 0-6 0-9v-2c-1 2-3 4-3 7 0 2 2 3 4 4z"/>
 <path d="m302.4 978c4 4-3 8-5 12-5 5-15 8-22 4-5-2-8-8-8-14-1-5 1-11 5-15 4-5 11-9 18-7 5 1 11 5 11 11-1 6-7 1-7-3-4-4-11-4-15-1-4 4-8 10-7 17 1 6 9 10 14 6 6-2 8-8 14-11h1z"/>
 <path d="m338.4 968c-4-6-13-7-18-2-2 1-7 8 0 6 6-1 14 0 19-4zm9 11c3 6-5 10-8 13-7 5-18 5-24-1-8-7-8-21 0-28 4-5 12-7 19-5 5 1 12 7 9 13-4 4-10 4-16 5-4 0-8 0-12 1-1 9 10 16 18 12 5-2 9-7 14-10z"/>
 <path d="m387.4 959c0-5 6-3 5 1 1 6 1 12 2 18 1-6 4-11 8-16 2-4 9-9 13-4 4 6 3 13 4 20v16c-3 4-6-1-4-4 0-8 1-17-1-25-3-4-6 4-9 6-4 7-8 14-8 22 0 3-2 8-5 3-1-7-1-15-2-23 0-5-1-9-1-14z"/>
 <path d="m429.4 954c2 0 3 1 5 1 2 1 1 4 0 5-1 2-2 4-2 7 0 2-2 3-4 3s-1-2-1-4v-6c-1-2 0-5 2-7z"/>
 <path d="m470.4 968c-3-4-8-6-13-5-4 1-9 6-9 9 7 0 14-1 21-3 0 0 1 0 1-1zm9 11c3 3-2 7-4 10-6 6-17 10-26 5-8-5-11-17-6-26 4-5 10-12 17-10 6 0 12 2 14 7 5 6-3 10-9 10-6 1-13 1-19 2-1 6 5 12 11 13 8 1 14-6 20-11 0 0 1-1 2-1z"/>
 <path d="m484.4 991c0-5 5-2 6 1 3 2 8 4 11 0 2-2 5-7 0-9-4-2-9-3-13-5-3-2-7-6-5-10 3-6 10-10 17-10 4-2 13 4 9 8-4-1-8-5-12-2-3 1-11 5-7 9 6 4 14 3 18 9 3 5 0 13-5 16-4 2-9 0-13 0-3 0-6-4-6-7z"/>
 <path d="m527.4 962c-4 0-8 1-12 1-4-1-1-5 2-5 3-1 7-1 10-2 1-2 0-5 0-7 0-4-1-7 0-11 0-2 4-3 5-1 1 6 1 12 2 18 4 0 7-2 11 0 3 1 0 5-2 5-3 1-6 1-9 2 0 11 1 21 3 32 0 3 1 5 1 8-1 2-5 2-7 0-2-4-1-8-1-13-1-8-2-17-3-26z"/>
 <path d="m609.4 965c-10 0-20 9-19 20-1 7 6 7 9 3 5-4 8-10 9-16 0-2 3-5 1-6zm7 56c-7 0-7-8-8-13-1-6-1-12-2-19-5 3-11 9-17 6-5-4-5-11-3-17 3-11 15-20 27-17 7 5 0 15 1 22v4"/>
 <path d="m627.4 958c6 2 1 11 3 17 0 6 0 11 2 17 4 2 7-3 10-6 5-7 9-16 10-25 0-6 8-5 6 1-1 8-3 17 0 25 1 3 4 11-2 10-4-3-3-9-6-13-4 6-8 12-16 14-6 1-9-5-10-10-1-9-2-18 0-28 0-1 1-2 2-2z"/>
 <path d="m676.4 946c2 0 5 0 6 2 1 3-1 5-2 8-1 2 0 6-2 8-2 1-6 0-5-3 0-1 2-3 2-5-1-3-2-6 0-9 0-1 1-1 2-1z"/>
 <path d="m696.4 958c6 1 2 9 3 13 0 7 0 14 2 20 4 2 8-4 11-7 5-7 8-15 9-23 0-6 8-5 6 1-1 8-3 17 0 25 1 3 4 12-2 10-3-3-3-14-3-14s-10 14-17 16c-6 1-9-4-9-10-1-9-2-18-1-28 0-1 1-3 2-3z"/>
 <path d="m737.4 959c-1-5 6-4 5 0 1 6 1 12 2 19 1-5 3-10 7-15 3-3 6-9 11-7 5 3 6 10 6 16 0 7 1 14 0 21 0 4-7 2-5-2 0-9 1-18-1-27-3-5-6 3-8 5-4 7-8 14-8 23 0 3-2 8-4 3-1-5-1-11-2-17 0-7-1-14-2-20z"/>
 <path d="m804.4 968c-3-3-7-6-12-5-5 0-8 5-11 9 7 0 14-1 21-2 0 0 1 0 1-1zm9 11c3 3-3 8-5 11-6 6-17 9-25 3-8-5-10-16-6-24 3-5 8-11 15-11 6 0 12 0 16 5 4 3 3 10-2 11-8 2-16 3-24 3 0 4 1 7 4 10 4 4 11 4 15 1 5-2 8-7 13-9z"/>
 <path d="m93.36 1030c0-2 1-5 4-6 2 0 3 2 3 4-.9997 5-3 10-5 16s-4 12-8 17c-1 2-3 4-5 4-3 0-4-3-5-5-2-5-4-11-5-16-2-6-4-11-5-17-1-2 3-3 4-1 2 3 4 7 5 11 2 7 4 14 7 21 3-5 6-10 7-16 1-4 3-8 4-12v-1z"/>
 <path d="m132.4 1035c-3-4-8-6-13-5-4 1-9 6-9 9 7 0 14-1 21-3 0 0 1 0 1-1zm9 11c3 3-2 7-4 10-6 6-17 10-26 5-8-5-11-17-6-26 4-5 10-12 17-10 6 0 12 2 14 7 5 6-3 10-9 10-6 1-13 1-19 2-1 6 5 12 11 13 8 1 14-6 20-11 0 0 1-1 2-1z"/>
 <path d="m172.4 1029c5 0 4 6 0 6-6 4-12 11-14 18-1 4-1 8-3 12-6 3-5-7-6-11-1-8-1-17-1-25 0-4 6-4 5 0 0 4 1 11 2 13 3-6 9-11 15-13h1z"/>
 <path d="m182.4 1058c0-5 5-2 6 1 3 2 8 4 11 0 2-2 5-7 0-9-4-2-9-3-13-5-3-2-7-6-5-10 3-6 10-10 17-10 4-2 13 4 9 8-4-1-8-5-12-2-3 1-11 5-7 9 6 4 14 3 18 9 3 5 0 13-5 16-4 2-9 0-13 0-3 0-6-4-6-7z"/>
 <path d="m218.4 1029c6-3 5 7 6 11 0 9 1 17 0 26-3 4-8 0-7-4 0-10-1-20-1-30 0-1 0-2 1-3zm-3-6c1-7 11 0 5 4-3 1-5-1-5-4z"/>
 <path d="m237.4 1031c5-5 12-8 19-8 5 0 12 1 14 7 2 10-1 20-7 28-7 8-23 9-30-1-5-6-4-14 0-21 1-2 3-3 4-5zm12 27c7 0 11-7 14-13 2-5 4-15-4-15-6 0-13 1-17 6-5 4-7 12-3 18 2 3 6 4 10 4z"/>
 <path d="m279.4 1026c0-6 6-2 5 2 1 5 1 14 2 16 1-6 4-11 8-15 2-4 9-9 13-3s3 13 3 20v15c-2 5-6 0-5-4 0-8 1-17-1-26-3-5-6 4-9 6-4 6-7 14-8 22 0 3-2 8-4 3-1-6-1-13-2-19 0-6-1-12-1-18z"/>
 <path d="m384.4 1048v13c0 3-4 3-4 0 0-8 0-16-1-24 0-3 0-5-1-8-2-1-3 2-5 4-4 8-6 17-7 26 0 2 0 5-3 5-2-1-1-4-2-6 0-6 0-13-2-19-1-3-3-6-5-8-2 0-3 4-4 5-1 3-4 7-3 11 0 2-1 4-1 7v11c0 2-3 4-4 1s-1-6-1-10c0-7 0-15-1-22 0-3-1-7 0-10s4 1 4 3 1 5 1 7l3-6c1-2 2-4 5-4 4 0 7 2 9 5s2 7 3 10c2-5 4-10 9-14 2-2 6-2 8 0 3 3 3 7 3 11v10z"/>
 <path d="m395.4 1029c6-3 5 7 6 11 0 8 1 17 0 26-2 4-8 0-6-4 0-10-1-20-1-30 0-1 0-2 1-3zm-3-8c1-7 11 1 5 4-3 1-5-2-5-4z"/>
 <path d="m412.4 1026c0-5 6-3 5 1 1 6 1 12 2 18 1-6 4-11 8-16 2-4 9-9 13-4 4 6 3 13 4 20v16c-3 4-6-1-4-4 0-8 1-17-1-25-3-4-6 4-9 6-4 7-8 14-8 22 0 3-2 8-5 3-1-7-1-15-2-23 0-5-1-9-1-14z"/>
 <path d="m478.4 1035c-3-5-10-7-16-4-2 2-8 6-6 8 7 0 13-1 20-3 0 0 1 0 1-1zm9 11c3 3-3 8-5 11-7 6-17 9-25 3-9-6-11-21-3-29 4-4 9-8 15-7 5 0 11 2 13 7 5 7-4 10-10 11-6 2-14 0-18 3 0 6 6 12 12 12 8 0 13-7 19-11z"/>
 <path d="m495.4 1025c6 1 2 9 3 13 0 6 0 13 2 20 3 3 8-3 10-6 5-7 8-15 10-24 0-6 8-4 6 1-1 8-3 17 0 25 1 3 3 12-3 9-2-3-4-14-4-14s-5 9-9 11c-3 3-9 6-14 3-3-4-3-9-4-14 0-7-1-15 0-22 0-1 1-2 2-2z"/>
 <path d="m559.4 1029c5 0 4 5 0 6-6 3-10 9-13 16-2 4-1 10-4 14-6 2-4-7-5-11-1-8-1-17-1-25 0-5 7-3 5 1 0 3 2 12 2 12s9-11 15-13z"/>
 <path d="m597.4 1035c-3-5-10-7-16-4-2 2-8 6-6 8 7 0 13-1 20-3 0 0 1 0 1-1zm9 11c3 3-3 8-5 11-7 6-17 9-25 3-9-6-11-21-3-29 4-4 9-8 15-7 5 0 11 2 13 7 5 7-4 10-10 11-6 2-14 0-18 3 0 6 6 12 12 12 8 0 13-7 19-11z"/>
 <path d="m621.4 1056c0 3-4 9-7 5-2-2-1-8 2-8 2 0 3 1 5 2zm20 1c0 4-5 9-8 4-2-4 3-9 7-5zm-10 0c0 4-5 9-8 4-2-4 3-9 6-5z"/>
</g>
<g id="visage" fill="#fff" stroke="#000" stroke-width="2">
 <g transform="translate(-1371 -220)">
  <g id="cheuveux4">
   <path d="m1630 750c-20 54-40 92-90 120"/>
   <path d="m1640 664c-20 64-50 106-100 150"/>
   <path d="m1668 592c-30 40-50 104-100 136"/>
   <path d="m1740 503c-40 2-60 8-90 40"/>
  </g>
  <use transform="matrix(-1,0,0,1,3660,0)" xlink:href="#cheuveux4"/>
  <g transform="translate(-995,10)">
   <g id="cheuveux2">
    <path d="m2700 522s-40-7-60 46c-10 52-20 65-80 132"/>
    <path d="m2620 762c-20 54-40 92-90 120"/>
   </g>
   <use transform="matrix(-1,0,0,1,5640,0)" xlink:href="#cheuveux2"/>
   <g transform="translate(-687,-10)">
    <g id="cheuveux3">
     <path d="m3340 611c-20 63-50 109-100 150"/>
     <path d="m3320 681c-20 58-40 103-90 140"/>
     <path d="m3310 741c-20 51-40 94-90 120"/>
    </g>
    <use transform="matrix(-1,0,0,1,7020,0)" xlink:href="#cheuveux3"/>
    <ellipse cx="3510" cy="771" rx="200" ry="300" stroke-width="7"/>
    <g transform="translate(3230,441)" stroke-width="4">
     <path d="m114 257c17-47 89-49 123-30 51 32-16 116-60 114-34 2-72-42-63-84z"/>
     <g transform="matrix(-1,0,0,1,559,0)">
      <path d="m114 257c17-47 89-49 123-30 51 32-16 116-60 114-34 2-72-42-63-84z"/>
     </g>
     <path d="m221 220 116 1"/>
     <path d="m254 248h50"/>
    </g>
    <circle cx="3490" cy="825" r="5"/>
    <circle cx="3530" cy="825" r="5"/>
   </g>
  </g>
 </g>
 <g transform="translate(-373.5,-220)">
  <g id="cheuveux7" fill="none">
   <path d="m729 513c-41 8-77 31-93 67"/>
   <path d="m764 488c-21-2-70 6-82 18"/>
   <path d="m685 569c-40 17-66 47-75 87"/>
   <path d="m649 649c-21 62-40 94-94 135"/>
   <path d="m636 711c-15 63-40 98-88 130"/>
   <path d="m677 579c-38 46-62 113-111 140"/>
   <path d="m661 614c-28 44-48 94-97 133"/>
  </g>
  <use transform="matrix(-1,0,0,1,1660,0)" xlink:href="#cheuveux7"/>
 </g>
 <g transform="translate(151.5,226)">
  <circle cx="217" cy="291" r="13"/>
  <circle cx="393" cy="291" r="13"/>
 </g>
 <path d="m406.9 690c10 15 10 17 20 22s20 8 30 8 20-3 30-8 20-13 20-22z"/>
</g>
</svg>
