<?xml version="1.0" encoding="UTF-8" standalone="no"?>
<svg version="1.0" xmlns="http://www.w3.org/2000/svg"
width="1326" height="523" viewBox="0 0 1326 523"
preserveAspectRatio="xMidYMid meet">
<title>Évolution du langage C++</title>
<rect x="0" y="0" width="1326" height="523" style="opacity:0.2;fill:#fff;stroke:none"/>
<metadata xmlns:rdf="http://www.w3.org/1999/02/22-rdf-syntax-ns#">
<rdf:RDF xmlns:dc="http://purl.org/dc/elements/1.1/" xmlns:cc="http://creativecommons.org/ns#">
<cc:Work rdf:about="https://github.com/cpp-frug/materials/blob/gh-pages/images/cpp-evolution-original.svg">
<dc:format>image/svg+xml</dc:format>
<dc:type rdf:resource="http://purl.org/dc/dcmitype/StillImage"/>
<dc:title>Évolution du langage C++</dc:title>
<cc:license rdf:resource="http://creativecommons.org/licenses/by-sa/3.0/"/>
<dc:date>2016</dc:date>
<dc:creator>
<cc:Agent>
<dc:title>Florent B</dc:title>
</cc:Agent>
</dc:creator>
<dc:contributor>
<cc:Agent>
<dc:title>Oliver H</dc:title>
</cc:Agent>
</dc:contributor>
<dc:language>Fr</dc:language>
<dc:subject>
<rdf:Bag>
<rdf:li>C++17</rdf:li>
<rdf:li>Comic strip</rdf:li>
</rdf:Bag>
</dc:subject>
<dc:description>Analogie entre l'évolution de l'homme et l'évolution du langage de programmation C++. Cela commence avec le singe associé à &quot;C with Classes&quot;, ..., l'homme de cromagnon est associé à C++03, puis l'homme commence à se pencher, ... et finit par être assis devant un ordinateur associé à C++17 &quot;Cool On va pouvoir coder&quot;</dc:description>
</cc:Work>
<cc:License  rdf:about="http://creativecommons.org/licenses/by-sa/3.0/">
<cc:permits  rdf:resource="http://creativecommons.org/ns#Reproduction"/>
<cc:permits  rdf:resource="http://creativecommons.org/ns#Distribution"/>
<cc:requires rdf:resource="http://creativecommons.org/ns#Notice"/>
<cc:requires rdf:resource="http://creativecommons.org/ns#Attribution"/>
<cc:permits  rdf:resource="http://creativecommons.org/ns#DerivativeWorks"/>
<cc:requires rdf:resource="http://creativecommons.org/ns#ShareAlike"/>
</cc:License>
</rdf:RDF>
</metadata>
<!--Texte du titre-->
<path style="fill:#000;stroke-width:1px" d="M 14.82,0.0208 C 11.68,1.221 7.613,4.421 7.933,8.121 c 0.95,1.7 3.157,1.999 0,2.499 -3.36,1.6 -8.4504,2.8 -7.8904,7.6 1.0004,8.4 0.26,17.3 2.3804,25.5 4.01,3.8 10.627,1.1 15.167,-0.5 3.55,-0.6 6.57,-5.7 2.31,-7.6 -4.07,-0.4 -7.66,3.4 -12.007,2.9 -1.06,-4.3 0.1,-7.1 4.657,-7.2 3.51,0.2 9.32,-4.1 4.65,-7 -3.27,-0.9 -6.75,1 -9.817,1.3 0.41,-2.8 -2.69,-7.7 1.77,-8.2 3.397,-2.4 9.937,-0.4 11.677,-4.8 -0.34,-4.199 -6.29,-3.199 -8.61,-3.099 2.43,-1.9 9.16,-8.1 2.59,-9.5002 z M 228.3,1.821 c -5.5,1 -3.3,8.299 -3.9,12.199 -0.6,1.9 1.1,8.7 -0.8,8.2 -3.5,-3.2 -8.8,-3.6 -12.3,-0.2 -7.1,4.9 -9.8,18.3 -0.8,22.5 4.7,2.5 10.7,-0.2 13.9,-3.2 -0.7,3.3 2.7,8.4 6.1,5.2 2.8,-4.2 -0.5,-9.7 0.6,-14.4 0,-10.1 0.3,-20.2 0.5,-30.399 -1.1,0.1 -2.2,0 -3.3,0.1 z m -152.32,0.1 c -4.59,1.6 -2.4,8.099 -2.93,11.799 1.14,9.7 0.63,19.8 2.85,29.4 1.98,3.2 7.13,0.5 5.63,-3.1 -1,-12.2 -1.3,-24.5 -2.8,-36.699 -0.63,-0.9 -1.64,-1.5 -2.75,-1.4 z m 40.32,1.4 c -5.6,1.7 -1.2,9.299 -2.8,12.599 -3,0.2 -9.2,2.2 -6.2,6.2 1.9,1.9 4.8,0.3 6.9,0.3 1,7.2 0.4,14.7 2.1,21.8 1.2,3.7 6.8,1.7 5.7,-2 -0.6,-7 -1.9,-14.9 -1,-21.5 3.2,0.3 8.5,-3.8 4.2,-6.4 -2.2,-1.3 -6.3,1.7 -5.3,-2.5 -0.7,-2.599 0.8,-8.699 -3.6,-8.499 z m 16.1,3.9 c -5,0.7 -3.1,8.699 1.7,7.199 4.1,-1.4 2.3,-7.299 -1.7,-7.199 z m -0.1,10.599 c -5.4,1.5 -2.7,8.7 -3.1,12.6 1.1,4.4 -1.3,10.7 2.4,14 4.2,1.9 6,-3.6 5,-6.9 -0.7,-6.2 0.8,-13.3 -2.3,-19 -0.5,-0.5 -1.3,-0.8 -2,-0.7 z m 36.8,0.3 c -4.9,1.6 -1.5,8.3 -1.9,12 1.3,5.1 -0.8,11.5 2.6,15.9 3.3,2.9 4.9,-2.3 4.6,-5 0.5,-5.3 3,-10.7 5.9,-14.7 1.5,5.9 -0.5,12.3 1,18.1 3,2.9 6.4,-1.2 5.5,-4.3 -0.9,-6.9 2.2,-16.5 -4.4,-21.3 -4.7,-1.5 -7.5,4.4 -9.6,7.6 -0.8,-2.6 0.3,-8.2 -3.7,-8.3 z m -107.69,0.2 c -10.25,0.1 -19.82,12.5 -14.02,22 4.41,8.3 17.54,6.6 20.98,-1.7 2.75,-5.6 5.23,-14.8 -0.79,-19.1 -1.86,-1.1 -4.07,-1.3 -6.17,-1.2 z m 92.39,0 c -10.3,0.1 -19.9,12.5 -14.1,22 4.4,8.3 17.6,6.6 21,-1.7 2.8,-5.6 5.3,-14.8 -0.8,-19.1 -1.8,-1.1 -4,-1.3 -6.1,-1.2 z m -111.1,0.5 c -5.07,1 -3.51,7.8 -5.9,11.2 -0.82,1.9 -2.38,9.4 -3.12,3.7 -2.18,-4.6 -2.02,-11.7 -6.92,-14.4 -5.36,-0.5 -2.2,6.4 -1.47,9.1 2.46,5.8 2.22,13.4 6.98,17.9 4.72,1.6 6.82,-5.1 8.37,-8.4 1.39,-5.7 5.61,-11.5 4.75,-17.6 -0.52,-1 -1.59,-1.6 -2.69,-1.5 z m 60,0.3 c -4.97,1 -3.17,8 -5.37,11.5 -1.5,3.5 -3.2,7.3 -6.3,9.5 -1.6,-6.2 0,-12.8 -1.4,-18.9 -2.1,-3.8 -6.4,-0.3 -5.7,3.1 0.1,6.8 -1.1,14.8 2.8,20.8 4.4,4.1 10.2,-0.9 12.7,-4.8 0.1,3.2 3.37,8.3 6.67,4.8 1.9,-4.6 -2.7,-9.6 -1.3,-14.5 -0.5,-3.2 3.8,-11.1 -2.1,-11.5 z m 149.5,0 c -5,1 -3.1,8 -5.4,11.5 -1.3,3.1 -3.7,8.5 -6.4,9.1 -1.4,-6.1 0.1,-12.5 -1.3,-18.5 -2.1,-3.8 -6.3,-0.3 -5.7,3.1 0.1,6.8 -1,14.8 2.8,20.8 4.5,4.1 10.2,-0.9 12.7,-4.8 0.1,3.2 3.5,8.3 6.7,4.8 1.9,-4.6 -2.6,-9.6 -1.3,-14.5 -0.5,-3.2 3.8,-11.1 -2.1,-11.5 z m -189.21,5.9 c 3.83,0.9 1.03,6.3 0.45,8.8 -1.01,4.1 -6.06,8 -9.51,4 -4.35,-5.7 2.92,-13.6 9.06,-12.8 z m 92.41,0 c 3.8,0.9 0.9,6.3 0.4,8.8 -0.9,4.8 -7.3,8.2 -10.2,3.1 -2.8,-5.9 3.9,-12.5 9.8,-11.9 z m 61.8,1.3 c 3.2,1.5 8.9,6.3 3.5,9.1 -1.9,2.5 -7.3,5.3 -8.9,1.3 -1.3,-5 1.8,-7.6 5.4,-10.4 z M 4.273,51.92 c -4.6004,1.6 -2.4,8.1 -2.93,11.8 1.14,9.7 0.61,19.8 2.84,29.4 1.98,3.2 7.097,0.5 5.59,-3.1 -1.01,-12.2 -1.23,-24.5 -2.79,-36.7 -0.6,-0.9 -1.61,-1.5 -2.71,-1.4 z m 188.927,6.8 c -8.4,0.3 -15.9,8.1 -14.9,16.8 -1.2,7.2 -0.1,17.4 8.7,19.1 7.9,0.7 14.2,-7 16.3,-13.9 0.5,-3.8 -4.7,-3.8 -5.7,-0.6 -2.5,3 -6.6,9.7 -11.1,6.9 -3.5,-4.8 -1.9,-11.8 -0.4,-17.1 2.2,-2.8 7.1,-6.5 10.1,-3.2 4.1,1.8 5.4,-4.4 2.1,-6.1 -1.4,-1.2 -3.2,-2 -5.1,-1.9 z m -118.44,8.5 c -8.54,0.3 -16.71,8.1 -16.5,16.8 -0.19,4.5 4.4,8.5 7.88,9 -2.99,2.8 -1.79,7.28 1.97,8.48 4.95,2.7 12.22,5.9 16.62,0.4 -0.1,-9.58 -2.9,-19.18 -0.5,-28.48 0.1,-4.9 -5.6,-6.4 -9.47,-6.2 z m 49.64,0 c -8.5,0.3 -16.7,8.1 -16.5,16.8 -0.1,4.5 4.5,8.5 7.9,9 -3,2.8 -1.8,7.28 2,8.48 4.9,2.7 12.3,5.9 16.6,0.4 -0.2,-9.58 -2.9,-19.18 -0.5,-28.58 0.1,-4.8 -5.6,-6.3 -9.5,-6.1 z m 93.1,0.6 c -3.9,-0.1 -4,4.7 -3.8,7.5 -3.6,-0.1 -10.6,2.1 -7.3,6.9 2.5,3 9.3,-2.4 7.9,3.4 -3.2,6.7 5.4,13.2 6.9,5.7 0.3,-4.4 -1.7,-11.1 4.9,-9.8 4.4,0.8 6.5,-5.4 2.3,-7 -3,-0.7 -8.1,2.6 -7.4,-2.4 0,-2.1 -1,-4.4 -3.5,-4.3 z m 28.2,0 c -3.9,-0.1 -4,4.7 -3.7,7.5 -3.6,-0.1 -10.6,2.1 -7.4,6.9 2.5,3 9.4,-2.4 8,3.4 -3.2,6.7 5.4,13.2 6.8,5.7 0.4,-4.4 -1.6,-11.1 5,-9.8 4.3,0.8 6.4,-5.4 2.3,-7 -3,-0.7 -8.1,2.6 -7.4,-2.4 0,-2.1 -1.1,-4.4 -3.6,-4.3 z m -207.13,0.3 c -4.92,1.6 -1.48,8.3 -1.86,12 1.26,5.1 -0.81,11.5 2.54,15.9 3.28,2.9 4.95,-2.3 4.57,-5 0.52,-5.3 3.05,-10.7 5.97,-14.7 1.43,5.9 -0.52,12.3 1.03,18.1 2.91,2.9 6.31,-1.2 5.44,-4.3 -0.93,-6.9 2.16,-16.5 -4.39,-21.3 -4.73,-1.5 -7.49,4.4 -9.63,7.6 -0.75,-2.6 0.37,-8.2 -3.67,-8.3 z m -13.46,1 c -4.1,0.8 -9.29,1.7 -11.73,5.4 -1.55,4 3.97,4.6 6.2,2.4 2.41,-1.2 7.42,-3.6 6.67,1.5 1.01,3 -3.16,-0.1 -4.77,1.3 -5.38,1 -10.79,6.3 -8.07,12.1 2.52,4.9 9.91,3.5 13.15,0.7 0.58,4.5 6.75,2.6 6.12,-1.4 -1.5,-6.8 2.32,-16.4 -4.46,-21.2 -0.93,-0.5 -2.03,-0.8 -3.11,-0.8 z m 74.12,0 c -4.1,0.8 -9.1,1.8 -11.7,5.2 -1.6,3.5 3.1,5 5.4,3 2.5,-1.2 8.07,-4.3 7.47,1 1,3.1 -3.17,0 -4.77,1.4 -5.4,1 -10.8,6.3 -8.1,12.1 2.5,4.9 9.9,3.5 13.17,0.7 0.5,4.5 6.7,2.6 6.1,-1.4 -1.5,-6.8 2.3,-16.4 -4.5,-21.2 -0.9,-0.5 -2,-0.8 -3.07,-0.8 z m 46.37,0 c -8.4,1.2 -13.3,11.8 -9.5,19.3 2.6,7.2 12.4,9.3 18,4.2 2.7,-2.2 7.7,-6.4 4.6,-9.9 -5.5,-0.9 -8.1,8.7 -14.1,6.1 -1.6,-0.8 -5.4,-5.4 -1.5,-4.9 4.7,-0.9 11.9,-0.1 14,-5.3 0.6,-5.9 -6,-10.2 -11.5,-9.5 z m -69.35,4.2 c 1.88,0.8 -0.98,5 -1.34,6.7 -1.67,2.7 -5.3,7.9 -8.95,6.2 -3.87,-5.3 2.96,-11 7.61,-12.7 0.87,-0.2 1.79,-0.2 2.68,-0.2 z m 49.65,0 c 1.9,0.8 -0.9,5 -1.3,6.7 -1.6,2.5 -5.7,8.5 -9.2,5.9 -3.3,-5.3 3.2,-10.7 7.8,-12.4 0.9,-0.2 1.8,-0.2 2.7,-0.2 z m 22.1,1.7 c 4.4,1.7 -0.7,2.4 -3.3,2.7 -4.9,1.4 1.6,-4 3.3,-2.7 z M 23.37,85.52 c 3.03,0.2 -2,4 -3.73,3.7 -2.8,-0.9 2.07,-4.7 3.73,-3.7 z m 74.16,0 c 2.87,-0.1 -1.3,3.4 -2.6,3.5 -4.8,1.3 0.2,-4.9 2.6,-3.5 z m -20.75,2.9 c 0.31,3.2 1.75,7.8 0.59,10.1 -1.49,-1.6 -5.25,-0.9 -5.73,-2.9 1.46,-1.9 -1.3,-4.1 1.76,-4.6 1.17,-0.8 2.44,-1.9 3.38,-2.6 z m 49.72,0 c 0.3,3.2 1.7,7.8 0.6,10.1 -1.5,-1.6 -5.3,-0.9 -5.8,-2.9 1.5,-1.9 -1.3,-4.1 1.8,-4.6 1.2,-0.8 2.4,-1.9 3.4,-2.6 z" />
<!--Reste du texte-->
<text x="50" y="258"   style="font-size:37px;font-family:Purisa;letter-spacing:-0.3px">C with</text>
<text x="48" y="296"   style="font-size:37px;font-family:Purisa;letter-spacing:-0.3px">Classes</text>
<text x="220" y="169"  style="font-size:37px;font-family:Purisa;letter-spacing:-0.3px">C++ 2.0</text>
<text x="408" y="75"   style="font-size:37px;font-family:Purisa;letter-spacing:-0.3px">C++98</text>
<text x="534" y="29"   style="font-size:37px;font-family:Purisa;letter-spacing:-0.3px">C++03</text>
<text x="759" y="52"   style="font-size:37px;font-family:Purisa;letter-spacing:-0.3px">C++11</text>
<text x="911" y="75"   style="font-size:37px;font-family:Purisa;letter-spacing:-0.3px">C++14</text>
<text x="1100" y="102" style="font-size:37px;font-family:Purisa;letter-spacing:-0.3px">C++17</text>
<text x="1105" y="161" style="font-size:37px;font-family:Purisa;letter-spacing:-0.3px">Cool</text>
<text x="1110" y="191" style="font-size:37px;font-family:Purisa;letter-spacing:-0.3px">On va</text>
<text x="1124" y="218" style="font-size:37px;font-family:Purisa;letter-spacing:-0.3px">pouvoir</text>
<text x="1130" y="250" style="font-size:37px;font-family:Purisa;letter-spacing:-0.3px">coder</text>
<!--Fond gris siège-->
<path style="fill:#222;fill-opacity:0.1;stroke:none" d="m 1049,360.1 c -5,1.4 -8,43.4 -5,48 2,2.9 7,2.5 10,1.3 4,-1.4 8,-8.8 9,-14.6 1,-11.4 -10,-36.1 -14,-34.7 z" />
<path style="fill:#222;fill-opacity:0.1;stroke:none" d="m 1052,419.1 c -4,-0.8 -4,12.4 -4,12.4 l 31,15.5 18,1.6 22,-6.1 7,-22.4 c 0,0 -16,11.7 -37,13.2 -24,1.7 -32,-13.5 -37,-14.2 z" />
<!--hominidés-->
<path d="m 472,104.9 c 0,2.5 1.3,4 8.7,9.8 9.3,7.3 40.2,31.9 62.2,49.6 7.3,6 14.4,11.5 15.7,12.4 2.3,1.4 2.3,1.9 2,11 -0.3,5.2 -0.7,9.7 -0.9,10 -0.3,0.3 -0.1,1.8 0.5,3.4 0.9,2.7 0.6,3.4 -4.6,9.3 -6.7,7.7 -7.1,8.6 -9.1,22.3 -1.8,12.4 -5.1,27.1 -7.1,31.9 -2.2,5.1 -1.7,10.1 2,22 1.9,6 4.6,14.9 6.1,19.9 1.5,4.9 4.5,12.4 6.6,16.7 l 3.9,7.8 -1.1,7 c -0.9,5.3 -0.9,8.4 -0.1,12.3 0.6,2.9 1.4,12.4 1.7,21.2 0.3,8.9 0.8,17.6 1,19.5 0.8,6.4 -1.4,16.6 -7.4,33 -6.7,18.7 -8.6,28.4 -10.1,50.9 -0.6,8.5 -1.3,15.7 -1.5,16.1 -0.2,0.4 -1.1,4.2 -2,8.4 -1.5,7.4 -1.5,7.9 0.2,9.1 4.3,3.2 10.6,4 29.8,3.8 21.1,-0.3 29.5,-1 29.5,-2.4 0,-0.5 -10.1,-0.9 -24.5,-0.9 -28.5,0 -31.5,-0.6 -31.5,-6.2 0,-1.8 0.7,-6.6 1.5,-10.8 0.8,-4.1 1.9,-14.5 2.4,-23 1.7,-24.5 7.1,-43.4 15.7,-54.4 4.3,-5.4 4.8,-5.8 7.7,-5.2 1.8,0.3 4,1.6 5,2.7 2.4,3 2.2,12.6 -0.4,21.4 -1.1,3.9 -3.8,14.1 -6,22.8 -2.1,8.6 -4.3,16.6 -4.9,17.7 -3,5.6 11.5,18.5 27.4,24.5 12.4,4.7 10.9,2.4 -3.4,-5 -9.5,-5 -15.4,-9.4 -18,-13.7 -2.9,-4.8 -1.1,-12 11.9,-48.5 2.7,-7.8 5.5,-17.2 6.2,-21 1.7,-10.3 2.3,-10.7 5.4,-4.1 3.6,8 4.1,12 2,16.4 -1,2.1 -2,6.5 -2.3,9.9 -0.4,5.8 -0.1,6.9 4.3,16.6 2.6,5.7 5.4,12.6 6.3,15.4 1.9,6.3 2,16.7 0.2,27.3 -1.4,8.3 -0.8,13.1 1.7,13.9 0.7,0.3 1.1,-1.3 1.1,-4.6 0.1,-2.7 0.6,-8.6 1.2,-13 0.8,-5.7 0.8,-10.4 0,-16.5 -1.3,-10.2 -1,-9.5 -6.9,-22.1 -5.4,-11.8 -6,-17.9 -2.2,-25.4 2.1,-4 2.1,-4.7 1,-9.5 -1.9,-8 -3.3,-10.7 -10.4,-19.7 -3.7,-4.6 -7.7,-10.2 -9,-12.4 -2.9,-4.9 -8.5,-21.3 -8.5,-24.9 0,-1.4 1.6,-4.7 3.6,-7.3 7.1,-9.2 7.4,-12.4 2,-21.5 -2.1,-3.7 -3.2,-8.4 -6,-26.9 -4.3,-28.2 -5.1,-34.9 -3.8,-34.9 0.5,0 2.9,1.5 5.3,3.3 5.5,4.2 10.2,6.7 12.6,6.7 1,-0.1 0.1,-0.9 -2.3,-2.1 -2.2,-1.1 -6.2,-4.1 -8.8,-6.8 l -4.7,-4.8 2,-4.4 c 1.1,-2.4 2.2,-5.2 2.5,-6.1 0.4,-1.4 1,-1.5 4.1,-0.7 5,1.4 5.7,0.3 1.2,-1.6 -4.4,-1.8 -4.5,-2.5 -1.1,-13 3.3,-10.3 4.5,-26.6 2.1,-29.3 -0.8,-0.9 -2.2,-3.7 -3.1,-6.1 -1.4,-4.2 -1.3,-4.8 0.9,-12 3.1,-9.7 3.1,-10.5 0.1,-9.7 -3.4,0.8 -5.6,-2.5 -5.6,-8.6 0,-3.6 0.4,-4.8 1.5,-4.8 1.1,0 1.5,1.1 1.5,4 0,3.3 0.3,4 1.9,4 2,0 5.1,4.9 5.1,8.1 0,1 0.4,2 1,2.4 0.5,0.3 0.6,1.3 0.3,2.2 -0.5,1.4 -0.3,1.4 2,-0.1 1.4,-1 3.3,-2.8 4.1,-4.1 1.5,-2.3 1.5,-2.4 -0.1,-1.8 -1.6,0.6 -1.6,0.4 0.1,-1.5 1.8,-2.1 1.8,-2.2 -0.8,-3.2 -3.2,-1.2 -4.6,-4.5 -4.6,-11 0,-4.4 0.4,-5.2 3.9,-8.2 2.1,-1.8 6.5,-4.1 9.7,-5.2 3.3,-1 7.4,-2.4 9.3,-3.2 2.3,-1 3.7,-1.2 4.6,-0.4 0.8,0.7 1.7,0.5 2.9,-0.9 1.1,-1.2 1.4,-2.1 0.7,-2.6 -0.6,-0.3 -1.1,-1.4 -1.1,-2.3 0,-1.6 -8.2,-4.8 -17.2,-6.8 -5.3,-1.2 -15.9,1.5 -23,5.7 -8.1,4.9 -11.5,10.1 -13.2,19.9 l -1.1,6.7 -10,-8.4 C 544,155.6 533.9,147.8 527,142.8 514.5,133.7 501.9,124 490.4,114.5 482.3,107.9 474.1,102 472.9,102 c -0.5,0 -0.9,1.3 -0.9,2.9 z m 103.8,105.6 c 3.5,4.1 2.9,10.1 -3.2,32 -2.2,7.9 -5,15.2 -7.1,18.8 -1.9,3.2 -3.5,7 -3.5,8.4 0,1.3 1.6,11.8 3.5,23.1 1.9,11.4 3.9,23.8 4.4,27.5 0.7,4.7 1.9,8.3 4,11.6 3.8,5.9 3.9,7.8 0.2,12.7 -5.7,7.8 -10.6,10.1 -6.1,2.9 2.2,-3.6 2.1,-6 -0.2,-3.7 -1.9,1.9 -3,1.4 -1.8,-0.7 1.6,-3 1.2,-3.6 -1,-1.6 -2.2,2 -3.9,1.3 -2.1,-0.9 0.9,-1.1 0.8,-1.5 -0.5,-2 -1.1,-0.4 -1.4,-1.4 -1,-3.4 0.5,-2 -0.4,-4.9 -3.4,-11.1 -2.2,-4.6 -5.7,-13.8 -7.6,-20.5 -2,-6.6 -4.8,-16.5 -6.4,-21.8 -2.8,-9.3 -2.8,-10 -1.4,-14 2.7,-7.7 6.3,-23.1 7.5,-32.3 1.6,-12.2 2.9,-16.2 7.4,-22 4.9,-6.6 5.2,-6.7 11,-6.1 3.7,0.4 5.6,1.2 7.3,3.1 z m -12.6,138.7 c -0.7,0.7 -1.2,0.8 -1.2,0.2 0,-1.4 1.2,-2.6 1.9,-1.9 0.2,0.3 -0.1,1.1 -0.7,1.7 z"/>
<path d="m 553.6,221.5 c -0.8,2.1 -0.8,14.9 0.1,19.8 0.4,2.9 1.2,4.1 3.2,4.8 3.4,1.3 6.8,0.4 7.6,-2.1 0.3,-1.1 1.2,-2 1.9,-2 1.4,0 8.6,-10.9 8.6,-13 0,-0.7 -2,0.6 -4.5,2.9 -9.5,8.8 -12.7,7.8 -13.5,-4.1 -0.5,-6.8 -2,-9.7 -3.4,-6.3 z"/>
<path d="m 783.1,157.9 c -3.9,2.1 -5.8,5 -14.7,22.4 -3.6,7 -7.6,14 -8.9,15.5 -1.2,1.5 -2.9,4.7 -3.6,7.2 -0.8,2.7 -2.7,5.6 -4.8,7.5 -4.7,4.1 -10.7,13.6 -11.6,18.2 -0.4,2.4 -2.1,5.3 -4.5,7.8 -2,2.2 -5.4,6.5 -7.5,9.5 -2.1,3 -4.7,6.6 -5.9,8 -1.2,1.4 -3.5,4.5 -5.1,6.9 l -2.9,4.3 2.7,5.2 c 1.5,2.8 4.3,9.1 6.2,13.9 3.4,8.2 3.5,9.1 2.6,14.3 -0.6,3 -2.5,8.7 -4.3,12.7 -2.9,6.2 -3.3,8.3 -3.3,15.3 0,7.8 0.2,8.6 4.7,17.3 5.2,10 4.9,8.3 6.3,39.3 0.5,9.6 0.3,13.4 -0.8,16 -2.1,4.9 -16.7,22.3 -18.6,22.1 -0.9,0 -3.6,-0.9 -6,-1.8 -2.5,-0.9 -5.6,-1.3 -7,-1 -5.6,1.4 -11.1,7.5 -11.1,12.3 0,1 -1.1,3.3 -2.5,5.2 -3.3,4.5 -3.2,6 0.3,2.8 1.5,-1.4 3.7,-3.1 5,-3.7 3,-1.6 2.9,0.1 -0.4,4.5 -3.6,4.6 -2.2,5.6 2,1.4 5.2,-4.9 9.3,-2.5 4.4,2.7 -2.6,2.8 -1,3 2.5,0.3 5.1,-4 8.5,-1.5 4.2,3 -2.9,3 -2.7,6.2 0.2,3.8 1.4,-1.1 1.5,-0.8 0.8,2.2 -1.5,6.9 -4.8,13.7 -11.7,24 -5.8,8.6 -7.1,11.3 -7.5,15.5 -0.8,7.3 0.6,9.1 10,13.5 11.7,5.5 22.1,7.4 37.6,6.8 12.3,-0.4 17.8,-1.8 16.5,-4 -0.4,-0.6 -6.1,-3.6 -12.8,-6.8 -12.4,-5.9 -22,-12.6 -23.1,-16.1 -0.5,-1.4 0.7,-4.2 3.8,-9.2 2.4,-4 5.8,-9.8 7.6,-12.9 2.2,-3.9 3.6,-5.5 4.6,-5.1 1.9,0.7 1.9,1.8 -0.1,4.7 -2.1,3.3 -0.1,4.3 2.4,1.1 3.4,-4.3 6.6,-2.5 3.6,2 -1.7,2.7 -0.5,3.5 1.6,1 1.4,-1.7 3.8,-1.9 5.8,-0.6 1.2,0.7 1.1,1.4 -0.3,4.1 -0.9,1.8 -1.3,3 -0.8,2.8 0.4,-0.2 2,-1 3.6,-1.7 3.5,-1.8 4.4,-0.9 2.6,2.6 -2.3,4.7 -2.3,4.9 0.8,2 5.2,-4.9 8,-2.9 4.8,3.3 -1.9,3.7 -1,3.8 2.6,0.4 3.6,-3.4 5.2,-2.4 4.4,2.7 -0.8,4.7 0.7,5.2 2.5,0.9 1.2,-2.9 1.4,-3 3.1,-1.4 1.7,1.5 1.7,1.9 0.3,4.6 -1.8,3.5 -2.9,12.5 -2.1,16 0.4,1.4 2.3,3.3 4.6,4.6 3.4,1.9 5.4,2.2 16,2.2 8.3,0 13.3,0.5 15.6,1.4 8.2,3.5 33.6,4.8 40,2.2 4,-1.7 6,-4.7 4.3,-6.4 -0.7,-0.7 -1.7,-1.2 -2.4,-1.2 -0.7,0 -4.9,-1.6 -9.3,-3.5 -4.5,-1.9 -12.3,-4.7 -17.4,-6.3 -17.5,-5.5 -18.8,-7 -18.9,-22 0,-5.4 0.5,-12.4 1.1,-15.7 7,-39.2 7.4,-70.9 1,-85.4 l -1.9,-4.4 2.4,-4.6 c 1.3,-2.6 5,-8.8 8.2,-13.8 3.3,-5 6.4,-9.9 6.9,-10.8 1,-1.6 1.4,-1.5 4.9,0.9 2.1,1.4 4.2,2.6 4.5,2.6 2.3,0 7.3,-4.6 9,-8.2 1.1,-2.4 2.9,-5.7 4,-7.3 l 2,-3.1 -2.4,-4.9 c -1.4,-2.8 -3,-5.7 -3.6,-6.6 -1,-1.3 -0.4,-3 2.8,-9 21,-39.4 29.3,-54.4 33,-60.2 2.3,-3.7 5.4,-8.9 6.8,-11.5 1.4,-2.6 4,-6.7 5.7,-9.1 5.1,-7.1 18.8,-30.4 18.8,-31.8 0,-4 -4.4,0.4 -10.2,10.1 -2.3,3.9 -5.4,9.1 -6.9,11.6 -12.5,20.4 -23.2,38.9 -29.1,50.5 -3.1,6 -8.6,16.1 -12.2,22.4 -3.6,6.2 -6.6,11.6 -6.6,11.8 0,0.9 -7.5,12.8 -8.5,13.5 -3.3,2.4 -12.7,-1 -24.5,-9 -2.5,-1.6 -9.4,-5.6 -15.3,-8.7 -13.2,-7 -13.1,-4 -1.3,-31.4 5.9,-13.6 6.1,-15.4 3.2,-24.6 -3.5,-11 -3.4,-13.8 1,-19.2 4.9,-6 7.9,-7.9 9.9,-6.3 0.8,0.7 1.5,2.3 1.5,3.6 0,2 0.5,2.4 2.9,2.4 1.5,0 4.1,-1 5.6,-2.1 2.3,-1.9 2.6,-2.8 2.3,-6.3 -0.3,-2.3 -0.6,-4.8 -0.9,-5.6 -0.3,-1.1 0.5,-1.5 2.9,-1.6 7.9,-0.2 4.3,-3.9 -4,-4 -3.8,0 -6.3,-0.5 -6.6,-1.3 -0.7,-2.2 1.7,-16.9 3.4,-20.5 1,-2 2.5,-3.6 3.3,-3.6 2.7,0 13.1,4.4 13.1,5.6 0,2.4 -3.7,4.4 -8.3,4.4 -2.5,0 -4.8,0.4 -5.2,0.9 -0.3,0.5 1.4,2 3.7,3.3 3.9,2.1 4.3,2.7 4.6,6.6 0.3,4.7 2.5,5.4 3,1.1 0.2,-1.3 1.2,-5.2 2.3,-8.6 1.5,-4.6 2.7,-6.6 4.6,-7.5 1.5,-0.7 3.5,-2.5 4.6,-4 1.9,-2.5 1.9,-2.8 0.3,-5.2 -0.9,-1.4 -2.3,-2.6 -3,-2.6 -0.8,0 -2.7,-1.1 -4.3,-2.4 -4.4,-3.6 -8.6,-5.5 -16.3,-7.1 -9.7,-2 -18.6,-1.9 -22.9,0.4 z m 9.7,24.8 c 0.5,1 0.7,2.3 0.5,3 -0.6,1.7 1.5,5.3 3.2,5.3 0.8,0 1.5,0.4 1.5,1 0,1.4 -1.5,1.3 -5.5,-0.4 -3.9,-1.6 -5.3,-5.2 -3.5,-8.5 1.3,-2.6 2.6,-2.7 3.8,-0.4 z m -1.7,14.7 c -1,1.1 -0.8,2.4 1,5.7 2,4.1 2,4.3 0.3,5.6 -2.1,1.5 -4.4,1.7 -4.4,0.4 0,-0.5 -1.5,-2.4 -3.2,-4.2 -2.2,-2.2 -2.9,-3.4 -2,-3.7 0.7,-0.2 2.5,-1.5 4,-2.8 3,-2.6 6.3,-3.4 4.3,-1 z m -9.2,10.1 c 3.7,4.3 3.8,5.5 0.7,9.2 -1.2,1.5 -2.8,3.7 -3.4,4.8 -1.1,2.2 -5.2,24 -5.2,28 0,4.5 -5,12.6 -12.6,20.6 -4.1,4.3 -7.4,8.3 -7.4,9 0,2.4 6.9,7.5 14,10.3 3.9,1.6 8.6,3.9 10.3,5 1.8,1.2 6.6,3.8 10.7,5.8 4.1,2 10.3,6 13.7,8.8 5.6,4.6 7,5.1 13.5,6.1 4,0.6 8.3,1 9.5,1 3.7,-0.1 7.3,9.6 4.2,11.4 -0.5,0.4 -2,2.8 -3.2,5.3 -2.1,4.4 -2.5,4.7 -6.2,4.7 -3.8,0 -4.1,-0.2 -6.5,-5.2 -2.2,-4.5 -3.2,-5.5 -8,-7.7 -3,-1.3 -8.2,-3.2 -11.5,-4.1 -3.3,-0.9 -6.4,-2 -7,-2.5 -0.5,-0.4 -5.5,-2.2 -11,-4 -13.2,-4.2 -26.5,-11.2 -30.9,-16 -3.8,-4.3 -6,-10.7 -5.3,-15.4 0.3,-1.7 1.4,-6.5 2.6,-10.6 1.1,-4.1 2.5,-10.9 3,-15.1 1.3,-9.7 4.5,-19.6 8.7,-26.2 5.8,-9.2 1.6,-6.4 -5.3,3.5 -1.4,2.1 -2.9,3.8 -3.3,3.8 -1.2,0 -3,-4.9 -3,-8.1 0,-3.6 1.1,-5.8 5.8,-12.2 5.9,-7.7 16.4,-13.3 25.8,-13.6 3.6,-0.1 4.6,0.4 7.3,3.4 z m 0.6,30.9 c 1.6,5.1 1.6,5.7 0,10.5 -0.9,2.8 -2.5,6.1 -3.5,7.3 l -1.9,2.3 -0.1,-4.5 c 0,-6.4 2.4,-21 3.5,-21 0.2,0 1.1,2.4 2,5.4 z m -42.5,2.8 c 0,0.6 0.7,1.9 1.6,2.9 1.4,1.6 1.5,3 0.5,12.3 -1.2,10.3 -3.2,18 -6.6,24.6 -1.7,3.2 -1.7,6 -0.3,24 0.3,3.3 0.1,3.5 -4.6,5.2 -2.7,1 -5.1,1.6 -5.4,1.4 -0.2,-0.3 0.3,-1.8 1.3,-3.3 1.5,-2.2 2,-6.8 3.1,-26.2 1.3,-23.9 2.3,-30.1 6.5,-38.4 1.9,-3.6 3.9,-4.9 3.9,-2.5 z m -11,12.4 c -0.7,2.7 -1.7,9.2 -2.4,14.4 -0.9,6.7 -1.6,8.9 -2.1,7.6 -0.9,-2.1 0.6,-12.8 3.2,-21.9 1.9,-6.9 2.8,-7 1.3,-0.1 z m 44.6,20 c -0.9,3.3 -1.8,7.6 -2.1,9.6 l -0.6,3.8 -4.8,-2.4 c -2.6,-1.4 -5.3,-3.1 -6,-4 -1.7,-2 -0.6,-5 2.3,-6.6 1.3,-0.7 3.9,-3.2 5.6,-5.5 3.2,-4.2 3.3,-4.3 5.2,-2.6 1.8,1.7 1.8,2.1 0.4,7.7 z M 761.4,312 c 4.4,2 4.6,2.3 4.6,6 0,2.2 -0.3,4 -0.7,3.9 -0.8,0 -9.6,-11.9 -8.9,-11.9 0.2,0 2.4,0.9 5,2 z m 15.1,6 c 2.2,1.1 7.4,2.9 11.5,3.9 12.9,3.3 19,6 20.1,8.9 1.2,3.1 -0.8,9.3 -5,15.6 -1.4,2.2 -3.5,5.6 -4.6,7.5 -1.2,2 -3.3,5.3 -4.7,7.5 l -2.6,3.8 -2.3,-4.3 c -1.2,-2.4 -4.8,-8.2 -7.9,-12.9 -8.6,-12.9 -10.8,-17.1 -11.5,-22.2 -0.8,-5.5 0,-9.8 1.8,-9.8 0.7,0 3.1,0.9 5.2,2 z m -28.8,2.2 c 1.7,1.8 4.2,4.9 5.5,6.8 1.2,1.9 5.7,6.7 9.8,10.5 4.2,3.9 10,9.7 13,13 3,3.3 5.9,6.4 6.6,7 1.5,1.2 6.6,10.1 9.4,16.2 2.9,6.4 5,19.3 5,30.7 0,9.9 -2.5,33.4 -5.5,52.1 -2,11.9 -2,27.7 0,31.4 1.9,3.7 6.9,8 10.3,8.7 12.3,2.6 34.5,11.3 35,13.7 0.2,1 -1,1.6 -3.5,2 -5.8,1 -27,-1.2 -33.2,-3.4 -4.3,-1.5 -8.2,-1.9 -17.2,-1.9 -10.5,0 -11.9,-0.2 -15,-2.3 -3.1,-2.1 -3.4,-2.8 -3.2,-7 0.1,-3 1.2,-6.6 3.3,-10.6 3.3,-6.2 4.6,-7.3 5.6,-4.6 0.4,0.8 1,1.5 1.5,1.5 0.5,0 0.2,-1.7 -0.7,-3.7 -1.4,-3.2 -1.7,-8.1 -1.8,-32.3 l -0.1,-28.5 -3.4,-9.5 c -2.9,-8.4 -3.9,-10 -8.5,-14 -11,-9.7 -16.5,-17.8 -21.5,-32.3 -3.1,-9 -8.1,-17.4 -10.8,-18.4 -2,-0.8 -6.3,-10 -6.3,-13.4 0,-5.1 4.4,-13.9 6.9,-13.9 0.4,0 1.4,2.1 2.3,4.7 3.3,9.1 15,26.3 17.9,26.3 0.5,0 -0.4,-2.4 -2,-5.3 -5.2,-9.3 -7.5,-20.3 -5.1,-24.8 1.4,-2.6 2.1,-2.4 5.7,1.3 z M 736,365.4 c 5,13.5 9.5,21.1 18.2,30.2 3.7,3.9 6.8,7.7 6.8,8.3 0,3 -24,34.1 -26.3,34.1 -1.7,0 -20,-12.3 -20.4,-13.6 -0.2,-0.6 1.2,-3.1 3.2,-5.5 1.9,-2.4 5.4,-7 7.7,-10.1 3.3,-4.4 4.7,-5.6 6.2,-5.1 1.8,0.5 1.9,0 1.2,-10.8 -1.3,-22.6 -1.8,-39.4 -1.2,-38.8 0.3,0.3 2.4,5.4 4.6,11.3 z m 29,45.9 c 0,5.7 -13.3,30 -17.1,31.2 -2.4,0.8 -8.9,-0.5 -8.9,-1.7 0,-0.6 3.1,-4.9 6.8,-9.7 3.8,-4.7 8.4,-10.9 10.2,-13.6 3.9,-5.8 7,-9.5 8.2,-9.5 0.4,0 0.8,1.5 0.8,3.3 z m 4.1,31.6 c 0,10.7 -0.2,19.5 -0.4,19.7 -0.5,0.5 -15.1,-11.6 -16.1,-13.3 -0.4,-0.8 -0.5,-2.9 -0.2,-4.6 0.7,-3.2 8.2,-16.9 12.4,-22.6 l 2.5,-3.4 0.9,2.4 c 0.5,1.3 0.9,11.1 0.9,21.8 z m -64.6,-19.2 c 1.9,0.9 3.5,2.3 3.5,3 0,2.2 -2.9,7.3 -4.2,7.3 -0.6,0 -2,0.8 -3,1.7 -2.7,2.4 -4.9,0.2 -2.5,-2.5 1.7,-1.8 2.3,-4.2 1.1,-4.2 -0.3,0 -1.9,0.9 -3.6,2.1 -1.6,1.2 -3.2,1.8 -3.5,1.5 -0.4,-0.3 0.2,-1.2 1.2,-2 1.7,-1.2 1.7,-1.4 -0.4,-2.8 l -2.2,-1.6 2.7,-2.1 c 3.2,-2.5 6.2,-2.7 10.9,-0.4 z m 16.6,10.2 c 9.6,6.3 10.4,7.3 8.8,10.3 -1.9,3.6 -6,8.8 -7,8.8 -1.5,0 -1,-2.7 0.6,-3.4 1.4,-0.5 2.2,-3.6 0.9,-3.6 -0.3,0 -1.7,0.9 -3.1,2 -2,1.5 -2.9,1.7 -4.5,0.9 -1.9,-1 -1.9,-1.1 -0.2,-3 2.3,-2.6 1.1,-3.5 -2.6,-1.9 -2.3,1 -3.4,1 -4.3,0.1 -0.8,-0.8 -0.8,-1.4 0.1,-2.3 0.9,-0.9 0.7,-1.4 -0.5,-2.3 -1.5,-1.1 -1.4,-1.6 0.2,-5.8 1,-2.6 2.3,-4.7 2.9,-4.7 0.7,0 4.6,2.2 8.7,4.9 z m -17.5,5.8 c -1,1 -1.9,-0.5 -1,-1.8 0.6,-1.1 0.8,-1.1 1.2,0 0.2,0.7 0.1,1.5 -0.2,1.8 z m 36.8,5.8 c 3.6,1.1 6.4,3 10.5,7.3 3.1,3.1 8.2,7.9 11.4,10.5 l 5.7,4.8 0,6 c 0,6 -1.1,7.4 -3.8,4.7 -0.9,-0.9 -0.8,-1.6 0.5,-3 2.2,-2.5 0.9,-3.4 -2.1,-1.4 -3.7,2.4 -4.6,2 -3.9,-1.4 0.6,-3.2 -0.7,-4 -2.7,-1.6 -1.8,2.2 -4.1,0.8 -3.4,-2 0.7,-2.6 -1.3,-3.3 -3.3,-1.3 -1.7,1.7 -3.5,0.1 -2.3,-2.1 1.3,-2.5 1.3,-3 -0.5,-3 -0.8,0 -1.5,0.4 -1.5,1 0,1.3 -3.7,1.3 -4.5,-0.1 -0.4,-0.6 0.1,-1.6 1.1,-2.4 2.8,-2 1,-2.9 -3,-1.4 -4.2,1.5 -5.6,0.7 -3.2,-2 2.3,-2.6 0.3,-3.8 -2.9,-1.7 -2,1.3 -2.5,1.3 -3.5,0.1 -1,-1.2 -0.9,-1.6 0.4,-2.1 0.9,-0.3 1.6,-1.5 1.6,-2.6 0,-2 3,-7.8 4,-7.8 0.3,0 2.7,0.7 5.4,1.5 z m -31.4,2.3 c 0,0.5 -0.7,1.7 -1.5,2.8 -1.4,1.9 -1.4,1.9 -1.5,-0.2 0,-1.1 0.3,-2.4 0.7,-2.7 0.9,-1 2.3,-0.9 2.3,0.1 z m 6,3.2 c 1.3,0.8 1.3,1.3 -0.3,4 -2.1,3.5 -1.3,3.9 2,0.8 1.8,-1.7 2.6,-1.9 3.5,-1 1,1 1,1.6 0,3 -0.6,0.9 -2.5,4.4 -4,7.8 -1.6,3.3 -4.6,8.6 -6.6,11.7 -2,3.2 -3.6,6.6 -3.6,7.7 0,3.3 15.3,17 19,17 2,0 13,6 13,7.2 0,0.8 -3.6,0.9 -13.2,0.4 -15.8,-0.8 -18.6,-1.4 -30,-6.8 -8.8,-4.1 -8.8,-4.2 -8.8,-7.9 0,-4.2 3.3,-11 10.3,-21.2 2.5,-3.7 5.4,-9 6.4,-11.9 1.7,-4.9 7.4,-11.8 9.7,-11.8 0.6,0 1.8,0.5 2.6,1 z"/>
<path d="m 737,341.7 c 0,1.6 7.3,13.4 9.3,15 2.8,2.3 8.1,9 13.5,17 4.8,7.1 7.7,9.7 3.6,3.2 -3.4,-5.5 -10.6,-15 -15.7,-20.9 -2.2,-2.5 -5.3,-6.9 -6.9,-9.8 -2.8,-4.9 -3.8,-6.1 -3.8,-4.5 z"/>
<path d="m 772.6,488.2 c -2.6,3.9 -2.4,7 0.4,8.5 2.8,1.4 9.8,1.7 11.8,0.4 1.8,-1.1 -0.7,-2.1 -5.2,-2.1 -4.3,0 -5.8,-1.5 -4.3,-4.6 1.6,-3.6 -0.6,-5.4 -2.7,-2.2 z"/>
<path d="m 694.2,481.7 c -0.7,0.3 -1.9,1.8 -2.8,3.5 -1.3,2.5 -1.3,3.5 -0.3,5.9 1.5,3.8 4.7,5.7 5.5,3.4 0.4,-0.9 -0.1,-2.4 -1,-3.4 -2.3,-2.5 -2,-4.8 0.9,-6.7 1.4,-0.9 2.5,-2 2.5,-2.5 0,-1 -2.7,-1.1 -4.8,-0.2 z"/>
<path d="m 601.1,159.1 c -8.4,1.6 -8.2,5.1 0.2,4.2 5.2,-0.5 5.4,-0.5 6.6,2.5 1.8,4.2 1.1,6.4 -2.2,7.3 -3.2,0.9 -8.8,5.3 -16.4,12.9 -5.5,5.5 -6.8,9 -3.3,9 1.1,0 3.4,1.2 5,2.7 3,2.7 3.1,3 2.2,7.1 -1,4.1 -0.8,4.4 5.3,13.7 8.6,13.1 9.3,15.9 7.2,29.9 -1,6.1 -2.9,16 -4.4,22.1 -1.5,6 -2.8,14.9 -3.1,19.7 -0.2,4.9 -0.5,8.8 -0.7,8.8 -0.2,0 -3.1,-2.9 -6.6,-6.5 -9.1,-9.5 -9.5,-8 -0.5,1.9 4.2,4.6 8.3,10 9.1,11.9 2,4.8 12.7,40.7 15.8,53.2 1.4,5.5 3,13.4 3.6,17.5 1.9,14.4 2.4,44.2 1.1,66.7 -2.1,36.2 0.1,43.7 14.5,51.1 4.9,2.4 17.1,5.8 24.3,6.6 4.2,0.5 5.2,0.4 5.2,-0.8 0,-1 -1.7,-1.7 -5.7,-2.1 -7.2,-0.9 -21.5,-5.8 -26.6,-9.1 -2.7,-1.7 -4.7,-4.3 -6.5,-8.2 -2.6,-5.5 -2.7,-6.3 -2.5,-21.7 0.7,-73.4 0.7,-72.8 -1,-84.2 -1.6,-10.4 -10.1,-42.6 -16.3,-61.4 -2.1,-6.7 -2.8,-11 -3.2,-20.6 -0.6,-17.3 -0.4,-18.2 8.1,-26.7 4,-4 10.1,-9.4 13.7,-12.2 l 6.5,-4.9 10.1,0 10.1,0 7.2,6 c 27.6,22.8 47.2,38.5 48.1,38.5 0.4,0 1.3,-0.7 2,-1.5 1.8,-2.1 1.5,-2.3 -22.5,-22.1 -11.5,-9.6 -23.2,-19.3 -25.9,-21.7 l -4.9,-4.4 0.5,-7.2 0.5,-7.1 -5.8,-3.9 -5.9,-3.9 -6.4,1.1 -6.5,1.1 -5.3,-3.7 c -7.4,-5.1 -19,-15.3 -24,-21.1 l -4.2,-4.8 4.3,-4 c 4.4,-4.2 7.1,-4.5 3.3,-0.5 -4.4,4.7 -2.1,4 2.8,-0.8 2.8,-2.7 5,-5.3 5,-5.6 0,-0.9 -6.2,-0.2 -11.3,1.3 -2.8,0.9 -4,0.9 -5,-0.1 -1.6,-1.6 3.1,-5.4 9.8,-8 4.4,-1.6 5.1,-2.3 5.7,-5.5 0.6,-2.6 0.3,-4.6 -0.7,-6.5 -0.7,-1.5 -1.1,-3.8 -0.8,-4.9 0.5,-1.9 0.1,-2.2 -2.3,-2.1 -1.6,0.1 -4.9,0.5 -7.3,1 z m 5.5,53.1 c 4.4,4 9.7,8.7 11.9,10.5 3.4,2.7 3.8,3.4 2.9,5.1 -0.7,1 -1,3 -0.7,4.5 0.4,2.2 -0.1,3 -4.3,5.7 -5.2,3.3 -6.4,2.9 -6.4,-2.2 0,-4 -2.7,-10.4 -7.5,-17.8 -4.2,-6.4 -6.6,-13 -4.7,-13 0.5,0 4.5,3.3 8.8,7.2 z m 38.9,15.8 c 0,1 -2.1,1.8 -7.4,2.7 -4.1,0.7 -8.1,1.5 -8.8,1.7 -3,1.2 -0.9,2.4 5,2.9 5.3,0.5 6.9,0.3 10.9,-1.9 2.6,-1.3 5,-2.4 5.3,-2.4 0.3,0 0.5,3.3 0.3,7.2 l -0.3,7.3 -5.4,0.3 c -2.9,0.2 -7.5,-0.2 -10.2,-0.7 l -4.9,-1.1 -6.3,6.3 c -6.3,6.4 -17,15.7 -17.9,15.7 -1.1,0 2.1,-13.9 4.1,-17.8 2.2,-4.3 7.4,-8.9 13.4,-11.7 3.2,-1.5 3.5,-1.9 2.1,-2.9 -2.2,-1.7 -0.3,-3 6.6,-4.6 3,-0.7 6.2,-1.6 7,-2.1 2.3,-1.3 6.5,-0.6 6.5,1.1 z"/>
<path d="m 608.5,191 c -1.6,1.6 -2.4,3 -1.8,3 1.4,0 6.3,-3.9 6.3,-5.1 0,-1.7 -1.6,-0.9 -4.5,2.1 z"/>
<path d="m 972,188.9 c -7.8,1.1 -11.4,4.7 -20,20.4 -2.3,4.3 -4.8,8 -5.4,8.2 -0.6,0.2 -4.9,1.5 -9.6,3 -4.7,1.5 -11.3,3.3 -14.8,4.1 -8.5,1.8 -15.5,5.8 -22.7,12.9 -7.2,7.2 -9.9,12.5 -16.5,32.4 -2.7,8.2 -7.6,20.6 -10.9,27.7 -8.6,18.8 -11.4,30.9 -9.1,40.5 1.5,6.1 13.6,24.8 22.8,35.1 3.3,3.7 6.6,8.4 7.3,10.5 0.6,2.1 2.3,5.5 3.7,7.5 2.2,3.4 2.3,4.1 1.2,7 -2,5.1 -6.6,9.4 -15.7,14.5 -13.7,7.6 -16,11.7 -18.4,32 -1.4,11.8 -1.1,11.3 -14.2,20.4 l -8.2,5.6 -0.7,5.8 -0.8,5.8 6.8,7.1 c 3.7,3.9 8.1,9.1 9.8,11.6 3.9,5.9 7.9,8.5 15.5,9.9 6.9,1.4 20,1.8 21.8,0.7 1.7,-1.1 -0.3,-3.2 -3.7,-3.9 -8.4,-1.8 -22.1,-18.8 -22.9,-28.5 -0.4,-4.6 -0.2,-5 8.2,-16 9.1,-11.9 28.7,-33.7 34.6,-38.5 14.2,-11.6 14.7,-11.9 19.4,-8.2 4.5,3.4 4.5,6.6 0,12.9 -6.1,8.6 -7.4,13.7 -8.5,33.4 -1.1,18.9 -1.9,23.7 -5.2,31.3 -1.1,2.7 -1.8,5.5 -1.4,6.4 1.1,2.9 14.1,7.1 26.7,8.5 14.9,1.7 33.2,2.3 36.2,1.1 3.9,-1.5 3.3,-3.6 -1.5,-5.4 -11.9,-4.2 -21.7,-9.3 -27.6,-14.5 -7,-6 -8.3,-8.4 -7.1,-12.2 2.8,-9 16.6,-40.5 21.4,-49 8.1,-14.2 8.2,-14.7 2.7,-25 -2.5,-4.7 -5.3,-11.1 -6.2,-14.4 -1.6,-5.8 -1.6,-5.9 0.6,-8.1 1.2,-1.3 2.8,-4.2 3.4,-6.6 2.2,-8.2 5.5,-12.1 20.6,-24.4 8.1,-6.6 16,-13.3 17.4,-15 4,-3.6 4,-6.7 1,-6.5 -4.1,0.3 -4.4,0.1 -2.5,-2 1.5,-2.1 1.5,-5 -1,-5 -2.1,0 -9.5,5 -9.5,6.4 0,0.7 0.6,1.8 1.3,2.5 1,1 0.1,2.2 -4.3,6.3 -3,2.7 -8.9,7.6 -13,10.8 -4.1,3.2 -9.3,7.5 -11.4,9.4 l -4,3.6 -2.9,-2.7 -2.8,-2.8 3.3,-2.8 c 11.6,-9.9 11.3,-9.5 9.5,-11.5 -0.9,-1 -1.7,-2.3 -1.7,-2.8 0,-1.5 14,-13.8 20.4,-17.9 7.6,-4.8 12.1,-5.6 14.4,-2.4 0.9,1.3 4.2,4.7 6.2,7.6 3,2.9 5,5.8 5,6.3 0,0.5 1,1.6 3,2.4 1,0.8 5,4.7 7,9.5 3,4.5 6,8.1 6,8.1 2,0 6,-4.1 6,-5.2 0,-1.4 -12,-23.3 -18,-32.1 -6,-9.9 -7,-10.8 -20.1,-22.8 -8.9,-8.2 -11.4,-9.2 -14.2,-6.1 -2.5,2.7 -2.1,4.5 1.2,6.5 3.2,1.9 9.4,9.8 11,14 0.9,2.3 0.7,3.1 -0.9,4.7 -1.1,1.1 -2.4,2 -3,2 -0.5,0 -3.7,2.5 -7.1,5.5 l -6.1,5.4 -4.1,-2.1 C 962.1,318 957.1,314 952,307.7 c -2.7,-3.4 -5,-7.1 -5,-8.2 0,-1.1 2,-8 4.5,-15.3 2.5,-7.3 5.1,-16.7 5.8,-20.9 1.2,-6.9 1.7,-8 5,-10.6 4.6,-3.7 11.9,-4.7 16.8,-2.3 2.9,1.5 3.5,1.5 5.6,0.1 1.8,-1.2 2.3,-2.4 2.3,-6.1 0,-3.6 0.5,-5 2.6,-6.9 1.4,-1.3 3.4,-2.7 4.4,-3 1.2,-0.4 2.7,-3.3 4.4,-9.1 2.6,-6.8 3.6,-8.7 5.6,-9.4 4,-1.5 3,-6.3 -2,-11.9 -8.1,-9 -9.4,-10.2 -15.3,-13.1 -6.2,-3.1 -7,-3.2 -14.7,-2.1 z m 18,17.7 c 4.7,1.6 9,4.9 9,6.9 0,0.6 -1.1,2.2 -2.5,3.5 -2.3,2.1 -2.8,2.2 -6.2,1.2 -4,-1.2 -4.7,-0.9 -5.8,2.5 -0.5,1.7 -0.2,2.3 0.9,2.3 2.2,0 5,4.6 4.1,6.7 -0.6,1.7 -0.7,1.7 -1.6,0 -0.6,-0.9 -1.7,-1.7 -2.4,-1.7 -1.8,0 -1.9,0.5 -0.3,3 1.7,2.7 0.3,3.6 -3.6,2.2 -1.8,-0.7 -4.7,-0.9 -6.6,-0.6 l -3.3,0.7 0.6,-4.4 c 0.4,-3.1 1.3,-4.8 2.9,-5.9 1.3,-0.8 3.8,-2.9 5.7,-4.8 3,-2.9 3.3,-3.6 2.7,-7.3 -0.6,-3.9 -0.2,-5.9 1.2,-5.9 0.4,0 2.7,0.7 5.2,1.6 z m -21,14.5 c 1.2,2.1 0,5.8 -2.4,7.8 -1.4,1.2 -1.8,0.9 -3.2,-2.4 -1.4,-3.3 -1.4,-3.9 0,-6.1 1.8,-2.6 4,-2.3 5.6,0.7 z m -16.7,3.6 c 6.7,0.6 6.8,0.6 8.7,4.6 1.1,2.3 2,5.6 2,7.4 0,3.2 2.8,7.3 5,7.3 2.5,0 0.6,1.9 -3.7,3.8 -5.1,2.2 -6.3,1.7 -6.3,-2.4 0,-1.2 -0.6,-2.7 -1.4,-3.3 -1.1,-1 -1.4,0.8 -1.9,10.6 -0.3,8.7 -1.1,13.8 -2.9,19.3 -2.3,7.1 -2.7,7.6 -6.9,9.6 -7.7,3.7 -8.6,3.8 -10.5,1 -0.9,-1.4 -2.7,-5.2 -3.9,-8.3 -2.5,-6 -4.5,-8 -4.5,-4.4 0,2.4 7.4,17.6 9,18.6 0.6,0.3 3.6,-1 6.8,-2.9 3.2,-2.1 5.8,-3.2 6.1,-2.5 0.4,1.4 -3.2,11.3 -8.6,23.2 -3.7,8.2 -4.5,10.9 -4.6,16.5 -0.2,6.5 0.1,7.5 6.1,19.8 7.9,16.1 10.2,19.5 15.2,22.3 4.4,2.4 4.8,3.8 2.9,10.4 -0.9,3.4 -1.8,4.2 -6.4,6.2 -2.9,1.3 -5.5,3 -5.8,3.7 -0.6,1.8 -3.8,-0.2 -5.4,-3.4 -1,-1.9 -1,-3.7 -0.1,-8 1.1,-5.2 1,-5.8 -1.5,-9.9 -1.4,-2.4 -3.6,-5.4 -4.9,-6.6 -1.3,-1.2 -3.1,-3 -4.1,-4 -2.5,-2.5 -11,-16.1 -14.8,-23.5 -2.8,-5.5 -3,-6.5 -2,-9.8 1.6,-5.2 4.1,-20 5.1,-30.1 1.1,-9.7 3.1,-18.2 5.4,-22.7 0.8,-1.6 1.3,-3.2 1,-3.5 -0.3,-0.3 0.4,-2.4 1.6,-4.7 1.2,-2.3 1.8,-4.5 1.5,-4.8 -0.9,-0.9 -5,4.1 -7.6,9.1 -1.7,3.2 -2.2,3.6 -3.9,2.7 -3.1,-1.6 -4,-4.3 -4.1,-11.7 l -0.1,-6.8 -1.4,3.4 c -0.9,1.9 -1.8,5.5 -2.1,8 -0.5,4.4 -0.3,4.9 3.1,7.9 2,1.7 3.6,3.5 3.6,4 0,0.5 -1.2,3.5 -2.6,6.7 -2.2,4.8 -2.8,7.9 -3.4,18.4 -0.7,11.4 -1.1,13.3 -4.1,19.6 -2.5,5.1 -3.4,8.7 -3.7,13.5 l -0.4,6.5 8.3,12.4 c 4.5,6.8 9.7,13.9 11.5,15.6 l 3.2,3.2 -5.2,5.2 c -2.8,2.8 -5.6,5.1 -6.2,5.1 -0.6,0 -1.9,-1 -3,-2.1 -2.1,-2.4 -28.4,-23.5 -32.6,-26.3 -3.6,-2.4 -5,-7.3 -4.6,-16.6 0.3,-7.3 0.4,-7.5 2.9,-7.8 2.2,-0.3 3.3,0.6 6.2,4.5 1.9,2.6 4.4,6.8 5.5,9.3 4.7,10.4 4.3,9.9 3.8,5.7 -0.3,-2.1 -2.8,-8.5 -5.5,-14.3 -2.8,-5.7 -5.1,-11.7 -5.1,-13.2 0,-1.5 2.9,-9 6.4,-16.7 3.5,-7.7 6.7,-15.5 7.1,-17.3 l 0.7,-3.3 3.3,3 c 3.4,3 7.2,4.7 8.2,3.8 0.3,-0.3 -1.3,-1.5 -3.5,-2.6 -3,-1.5 -4.4,-3.2 -6.1,-7.2 -1.3,-2.8 -2,-6.1 -1.8,-7.3 1.2,-4.7 2.5,-9.2 3.2,-11 0.6,-1.4 0.4,-1.7 -0.6,-1.4 -2.3,0.8 -4.7,10.6 -4.1,16.5 0.6,6.1 -0.6,9.7 -8,24.8 -4.5,9.2 -6.9,12.5 -9,12.5 -1.5,0 -0.8,-4.6 2.8,-16.5 1.9,-6.6 4.2,-14.5 5,-17.5 0.8,-3 3.6,-10.9 6.2,-17.4 5,-12.9 9.4,-18.9 18.1,-24.9 5.9,-4.1 28.1,-10.9 33.1,-10.2 1.9,0.3 6.6,0.8 10.3,1.2 z m 31.3,14.4 c 0.3,0.6 0.2,1.5 -0.4,2.1 -1.1,1.1 -5.2,-0.6 -5.2,-2.2 0,-1.4 4.7,-1.3 5.6,0.1 z m 3,51.3 c 5.5,3.7 11.5,9.7 11.1,10.9 -0.2,0.7 -1.5,1.3 -2.9,1.5 -2.1,0.3 -3.2,-0.5 -5.4,-3.9 -1.6,-2.3 -4.1,-5.5 -5.6,-6.9 -1.5,-1.5 -2.4,-3 -2.1,-3.4 0.9,-0.9 1.1,-0.8 4.9,1.8 z m -33.8,22.7 c 4.8,4.5 10.4,9.3 12.5,10.7 4,2.6 4.7,4.6 2.1,6 -1.6,0.9 -5.4,-0.5 -14.4,-5.5 -2.5,-1.3 -6.6,-3.4 -9.2,-4.6 -2.8,-1.3 -4.8,-2.9 -4.8,-3.8 0,-1.9 3.8,-10.9 4.6,-10.9 0.3,0 4.5,3.7 9.2,8.1 z m 55.2,0 c 4,6.7 4,8.9 2,8.9 -2,0 -14,-12.3 -14,-13.7 0,-1.6 1.2,-2.3 4,-2.3 3,0 4,1.1 8,7.1 z m 7,14.9 c -1,0.8 -2,0.8 -2,0.2 -1,-0.6 -1,-1.6 0,-2.2 0,-0.8 1,-0.8 1,-0.2 1,0.6 1,1.6 1,2.2 z m -66.6,2.5 c 5.3,2.4 9.6,4.8 9.6,5.3 0,1.5 -9.3,9.2 -11.2,9.2 -0.9,0 -8.8,-15.8 -8.8,-17.6 0,-0.8 0.2,-1.4 0.4,-1.4 0.2,0 4.7,2 10,4.5 z m 75.6,8.3 c 2,4 3,7.5 3,7.9 -1,1 -3,-1.4 -7,-8.1 -3,-4.6 -4,-6.2 -3,-7.3 2,-1.8 2,-1.3 7,7.5 z m -63.9,5.1 c -0.6,1 -2.7,2.9 -4.8,4.4 -6.2,4.3 -8.7,3.3 -3.5,-1.5 6,-5.5 10.5,-7.1 8.3,-2.9 z m -71.2,23.6 c 4.1,3.6 8.2,7.6 9,8.9 0.9,1.3 2.5,3.6 3.5,5.1 1.6,2.2 1.7,2.8 0.5,3.6 -2.2,1.4 -3.2,0.6 -5.7,-4.2 -1.3,-2.4 -4.5,-6.7 -7,-9.4 -11.8,-12.5 -11.9,-14.3 -0.3,-4 z m 47.1,-1.1 c 0,1.5 -6.2,6.6 -7.9,6.6 -2.4,0 -0.9,-3.1 2.6,-5.5 4.3,-2.9 5.3,-3.1 5.3,-1.1 z m 2.1,7 c -1,1.2 -1,2.7 -0.2,6.7 1.2,5.6 0.9,6.3 -3.6,7.5 -1.6,0.4 -3.2,-0.2 -5.4,-2 -3.2,-2.8 -6.3,-3.4 -7.5,-1.4 -0.4,0.6 0,1.6 0.9,2.3 2.1,1.5 3.9,6.3 3.2,8.5 -0.8,2.5 -11.2,9.5 -17.6,12 -4.3,1.6 -8.6,5.1 -20.9,16.5 -14.6,13.7 -18.3,16.6 -16.2,12.9 2.1,-3.8 23.7,-26.5 26.3,-27.6 2.9,-1.3 3.3,-2.2 3,-6.4 -0.1,-1.2 0.5,-2.4 1.5,-2.8 1.3,-0.5 1.5,-1.4 1.1,-4 -0.5,-3.1 -0.1,-3.9 4.2,-7.9 8.1,-7.7 17.5,-15.1 17.8,-14.1 1.9,5.4 4.9,7.8 5.9,4.7 1.1,-3.1 6.7,-8.4 7.8,-7.3 0.6,0.6 0.5,1.5 -0.3,2.4 z m 16.4,14.8 c 1.4,4.4 6.8,16.3 9.2,20.2 l 2.5,3.9 -3.8,8.1 c -2,4.4 -5.9,12.6 -8.6,18 -2.6,5.5 -4.8,10.5 -4.8,11.2 0,1.8 -8.7,22 -11.6,27.1 -3,5.3 -2.8,5.8 6.5,14.6 6.7,6.3 11.6,9.5 17,11.2 6.4,2 9.4,3.7 8.1,4.5 -0.8,0.5 -2.6,0.7 -4,0.4 -1.4,-0.2 -8.3,-0.8 -15.5,-1.4 -8.6,-0.6 -15.9,-1.8 -21.4,-3.5 -4.6,-1.4 -8.6,-2.6 -8.8,-2.8 -0.1,-0.2 0.6,-2.8 1.6,-5.8 1.1,-3 2,-4.7 2,-3.8 0.1,2.7 7.7,8.9 10.9,8.9 l 2.7,-0.1 -3.8,-3.1 c -6.3,-5.1 -6.5,-6 -6.9,-29.8 -0.3,-24 -0.7,-22.3 7.7,-36.5 3.3,-5.5 3.6,-6.5 3.2,-12.5 -0.2,-5.1 -0.9,-7.5 -3.1,-10.9 l -2.9,-4.5 5.4,-4.8 c 3,-2.6 7.3,-5.7 9.5,-6.7 2.3,-1 4.5,-2.4 4.8,-3 1.2,-1.9 3.4,-1.2 4.1,1.1 z m -38.7,23.5 c 1.2,0.3 2.9,0 3.7,-0.7 0.9,-0.7 1.8,-1.1 2.1,-0.8 0.2,0.3 -2.1,2.5 -5.3,4.8 -9.4,6.9 -31,29.5 -42.1,43.9 -5.7,7.3 -10.6,13.9 -10.8,14.6 -1.1,2.8 1.6,12.3 5.3,18.5 2.1,3.5 5.9,8.7 8.5,11.4 2.6,2.7 4.6,5.1 4.4,5.3 -0.2,0.3 -3.2,-0.1 -6.6,-0.7 -7.1,-1.3 -13.4,-5 -15.6,-9.3 -0.9,-1.6 -4.7,-6.2 -8.5,-10.3 -5.6,-6.1 -6.9,-8.1 -6.9,-10.7 0,-3.9 0.7,-5 5,-8.2 4.6,-3.4 5.1,-3.2 2.8,1.4 l -1.9,3.9 2.4,3.9 c 4.7,7.4 8.4,8.5 4.8,1.4 -1.2,-2.2 -2.1,-5.1 -2.1,-6.3 0.1,-3.9 3.7,-10.7 6.4,-11.7 2,-0.8 2.7,-2.2 4,-8 0.9,-3.8 1.6,-7.7 1.6,-8.5 0,-0.9 1.5,-2.2 3.4,-3 1.9,-0.8 7.9,-5.6 13.3,-10.8 18.1,-17.3 24.9,-22.3 28.3,-21.1 0.8,0.3 2.5,0.8 3.8,1 z m -37.6,11.5 c -3.9,4 -7.4,6.9 -7.7,6.6 -0.9,-0.9 1.9,-5.9 4.7,-8.4 3.1,-2.9 9.1,-6.5 9.7,-5.8 0.3,0.2 -2.7,3.7 -6.7,7.6 z"/>
<path d="m 918.4,320.2 c 0.3,1.7 1.8,4.6 3.2,6.5 1.4,1.8 3.2,4.9 4,6.9 1.9,4.6 2.4,4.1 1.5,-1.3 -0.8,-4.4 -6.8,-15.3 -8.4,-15.3 -0.5,0 -0.7,1.4 -0.3,3.2 z"/>
<path d="m 452.3,190.1 c -4,1.2 -9.6,6.6 -12.2,11.7 -1.1,2.1 -2.5,6.7 -3.1,10.3 -0.7,3.5 -1.9,7.7 -2.8,9.4 -0.8,1.6 -7,8.6 -13.7,15.5 -20.9,21.3 -35.2,38.8 -39.4,48 -2.5,5.5 -2.7,13.6 -0.5,21.1 1.8,6.1 8.5,19.8 14.3,29.2 3.7,6.1 3.8,6.5 3.3,13.8 -0.3,5.5 0,8.3 1,10.5 0.9,1.6 1.8,4.7 2.2,6.9 0.4,2.2 1.8,7.6 3.2,12 1.4,4.4 3.1,12.9 3.9,19 0.8,6 1.7,12.4 2.1,14.1 0.5,2.9 0,3.8 -5.9,10.3 -7.7,8.3 -11.2,14.3 -15.8,26.5 -3.1,8.4 -3.9,9.5 -12.7,18.4 -5.1,5.2 -9.8,10.5 -10.3,11.9 -2.3,6.1 -0.4,10.1 6.8,13.7 2.1,1.1 4.2,3.6 6.4,7.6 6.8,12.7 19.3,18.4 35,16 7.3,-1.2 7.9,-1.4 7.9,-3.6 0,-2 -1.2,-3 -6.7,-5.6 -9.1,-4.4 -16.6,-11.8 -18.6,-18.6 -0.9,-2.8 -1.9,-7.1 -2.2,-9.5 -0.7,-4.3 -0.6,-4.5 3.5,-7.5 2.3,-1.6 13.2,-11.7 24.2,-22.4 21.3,-20.4 23,-22.7 24.3,-32.5 0.7,-5.7 1.4,-6.7 3.9,-5.7 4.9,1.9 6,14.1 2.5,27.7 -2.7,10.3 -2.2,20.6 1.6,32.7 3,9.7 2.8,13.1 -1.1,25.2 -2.5,7.5 -2.5,7.8 -0.8,11.4 2.2,4.6 7.2,7 18,8.5 4.3,0.6 12.1,2.2 17.3,3.7 10.3,2.8 23,3.4 25.7,1.1 3.7,-3.1 1.9,-4.7 -24.9,-21 -5.5,-3.3 -6.4,-5.2 -7.9,-16.2 -1.8,-13.9 1,-35.5 8.2,-63.2 2.6,-9.8 3,-13.1 2.5,-17.9 -0.8,-7.5 -2,-9.7 -9.3,-17.8 -7,-7.8 -12.1,-15 -18.6,-26.8 -2.6,-4.7 -7.6,-12.2 -11.1,-16.5 -3.6,-4.4 -6.5,-8.3 -6.5,-8.7 0,-0.4 2.3,0.1 5,1.2 2.8,1.1 7.2,2.9 9.9,3.9 2.6,1.1 9.7,3.4 15.7,5.1 11.6,3.4 14,4.6 12.5,6.4 -0.8,1.1 -1.2,2.5 -3.1,11.1 -0.5,2.2 -1.3,5.8 -1.9,8 -0.6,2.2 -1.1,6.1 -1.1,8.7 0,4.3 0.2,4.8 2.3,4.8 3.5,0 7,-2.9 6.3,-5.3 -0.4,-1.5 0.6,-3 3.8,-5.9 2.4,-2.1 6.5,-7.3 9.2,-11.5 2.6,-4.3 5.2,-7.9 5.6,-8.1 2.7,-1.2 5.1,-4.3 5.8,-7.7 0.4,-2.2 1.1,-5.4 1.4,-7 0.6,-2.4 0,-4.1 -3,-8.8 -2,-3.1 -4.2,-5.7 -4.8,-5.8 -0.6,0 -5.6,-0.2 -11.1,-0.3 -9.5,-0.2 -10.5,-0.4 -20,-4.8 -5.5,-2.5 -12,-5.3 -14.5,-6.2 -2.5,-0.9 -5.6,-2.5 -6.9,-3.5 l -2.3,-1.8 5.5,-11.9 c 8.2,-17.9 9,-22.1 6.2,-33.9 -0.8,-3.3 -1.5,-6.5 -1.5,-7.2 0,-2.2 6,-5.4 12.2,-6.4 3.5,-0.6 7.3,-1.6 8.4,-2.4 5,-3.3 9.7,-16.5 5.9,-16.5 -0.8,0 -1.5,0.9 -1.5,1.9 0,2.3 -5.9,12.1 -7.3,12.1 -0.5,0 -0.7,-0.7 -0.3,-1.5 0.7,-1.9 0.1,-1.9 -2.9,0.1 -3.2,2.1 -3.2,1 0,-2.8 3.5,-4.1 2.3,-4.9 -1.8,-1.2 -1.7,1.6 -0.9,0.5 1.8,-2.5 3.1,-3.3 4.5,-5.5 3.8,-5.8 -0.7,-0.3 -1.3,-1.1 -1.3,-1.9 0,-1 -1.1,-1.3 -4,-1 -3.9,0.3 -4,0.3 -2.4,-1.5 1.6,-1.8 1.6,-1.9 -0.8,-1.9 -4.7,0 -5.1,-5.8 -0.9,-14.6 3.3,-6.9 4.7,-7.8 10.1,-6.4 2.7,0.7 4,1.7 4.4,3.4 0.3,1.3 0.9,3.1 1.2,4 0.5,1.3 -0.2,1.6 -4.5,1.6 -3.8,0 -5.1,0.4 -5.1,1.4 0,1.1 1.4,1.6 4.7,1.8 4,0.2 5,0.7 6,2.8 2.2,4.9 2,7.3 -0.7,8 l -2.5,0.6 2.2,1.2 c 4.8,2.6 5.6,1.8 4.8,-5.4 -0.6,-5.7 -0.4,-6.7 1.2,-7.9 1.7,-1.4 1.7,-1.4 -0.5,-1.5 -2.8,0 -3.2,-1 -4,-9.6 -1,-10.1 -2.2,-10.7 -21,-11.1 -8.1,-0.1 -16.2,0.2 -17.9,0.8 z m 11.6,20.4 c 1.9,0.9 3,2.5 3.5,4.6 0.8,4.1 0.8,6.4 -0.1,5.6 -0.3,-0.4 -1.4,0 -2.4,0.9 -2.3,2.1 -3.8,1.1 -3.2,-2 0.3,-1.5 -0.3,-3.9 -1.6,-5.9 -2.9,-4.7 -1.4,-6 3.8,-3.2 z m 3.6,14.4 c -0.3,0.6 -1.1,1.1 -1.7,1.1 -0.6,0 -0.6,-0.6 0.2,-1.5 1.4,-1.7 2.6,-1.3 1.5,0.4 z m 6,7.9 c -2.7,2.6 -4,3.6 -3,2.2 3.7,-4.8 6.9,-8 7.4,-7.5 0.3,0.3 -1.7,2.7 -4.4,5.3 z m 5,-0.8 c -1.6,1.6 -3.1,2.8 -3.4,2.5 -0.2,-0.3 0.8,-1.9 2.4,-3.5 1.6,-1.6 3.1,-2.8 3.4,-2.5 0.2,0.3 -0.8,1.9 -2.4,3.5 z m -14.9,1.1 c 0.6,1.9 1.8,5.5 2.6,8 l 1.4,4.6 -3.4,2.2 c -3.4,2.2 -3.5,2.2 -4.5,0.5 -0.6,-1.1 -2.4,-3.2 -4.1,-4.7 l -3,-2.9 2,-3.6 c 2.8,-5.2 5.5,-8.3 6.7,-7.9 0.7,0.2 1.7,1.9 2.3,3.8 z m -29.1,0.5 3.8,1.6 -4.4,2.5 c -6,3.3 -9.9,7.1 -11.6,11.3 -2.2,5.1 -3.2,14.1 -2.4,20.5 0.9,6.3 -0.2,6.8 -3.1,1.5 -2.8,-5.4 -1.9,-18.9 1.8,-26.2 1.2,-2.3 10.9,-12.8 11.8,-12.8 0.2,0 2.1,0.7 4.1,1.6 z m 15.5,9.8 c 11.7,7.7 9.1,18.4 -8,32.6 -2.4,2 -2.4,2.1 -0.6,3.3 6.6,4.2 6.8,4.6 7.6,16.2 0.6,10.8 0.7,10.9 4,13.7 1.9,1.5 5.5,3.5 8,4.4 2.5,1 8.8,3.5 14,5.6 15.8,6.6 18.6,7.3 25.5,6 l 6,-1 4.3,4.6 c 3.1,3.4 4.1,5.2 3.7,6.7 -0.4,1.1 -1,3.7 -1.5,5.8 -1,5.2 -2.5,6.3 -9,7.1 -5.6,0.6 -6.8,0.2 -12.3,-3.7 -1.5,-1.1 -6.7,-2.9 -11.7,-4.2 -11.6,-3 -28.9,-9.9 -35.3,-14.2 -2.7,-1.8 -5.5,-3.3 -6.2,-3.3 -3.4,0 -6.5,-4.5 -8,-11.5 -1.7,-8.7 -3.5,-27.8 -4.2,-45.6 -0.5,-12.4 -0.4,-13.8 1.6,-17.7 4.2,-8.2 13.8,-10.3 22.1,-4.8 z m -45.8,17.9 c -6,8 -14.5,21.2 -16.5,25.6 -1.5,3.6 -1.8,5.8 -1.4,11.5 0.4,6 1.3,8.7 5.8,17.6 2.9,5.8 6.5,12 8,13.7 2.2,2.6 2.7,3.8 2,5.5 -0.5,1.3 -1.2,2.2 -1.7,2.2 -1.4,-0.3 -13.2,-22.3 -15.4,-28.7 -1.3,-4 -2,-8.7 -2,-13.8 l 0,-7.6 6.6,-9.4 c 9,-12.7 16.5,-22.1 17.2,-21.4 0.3,0.3 -0.9,2.4 -2.6,4.8 z m 59.8,4.8 c 1.3,7.7 0.2,11.7 -6.8,25.4 l -4.1,8 -0.1,-6.3 c 0,-6.6 -0.9,-9.2 -4.2,-12.8 l -1.9,-2.2 6.4,-7.9 c 3.5,-4.4 6.7,-9.3 7.1,-10.8 1,-4 2.2,-1.8 3.6,6.6 z m -48.1,19 c 4.6,13.6 4.7,14.2 6.5,28.7 1.3,10.6 1.6,11.5 5.1,15.8 4.5,5.5 15.4,14.7 24.8,21 5.3,3.6 7.3,5.7 9.4,9.7 4.4,8.8 11.3,18.9 17.6,25.7 3.3,3.6 6.6,7.9 7.3,9.7 2.1,4.9 1.7,14.1 -1.1,24.4 -4.8,17.7 -7.5,34.6 -8.1,50.8 -0.6,14.2 -0.5,16.1 1.5,21.6 2.3,6.8 3.5,7.9 14.1,13.9 12.8,7.3 19,11.3 18.3,12 -1.3,1.3 -13.6,0.5 -20.5,-1.4 -4,-1.1 -10.6,-2.4 -14.7,-3 -7.2,-1 -14.3,-3 -18.2,-5 -2.5,-1.4 -3.3,-6.8 -1.6,-10.9 l 1.5,-3.4 1.6,3.4 c 2.3,4.8 8.5,11.2 10.2,10.5 2.2,-0.8 1.7,-2.2 -2.1,-5.9 l -3.5,-3.4 0.6,-7.1 c 0.6,-6.4 0.5,-7.2 -1.2,-7.9 -2.4,-0.8 -3.4,-2.2 -3.4,-4.9 0,-1.2 -1.1,-5.5 -2.4,-9.6 -3.9,-11.7 -4.3,-19.7 -1.5,-30.3 1.4,-5.5 2.4,-11.9 2.4,-16.6 l 0,-7.6 -4.7,-5.4 c -8.3,-9.6 -30.1,-31.5 -36.8,-36.9 -3.6,-2.8 -8.5,-7.5 -10.9,-10.3 l -4.3,-5.2 0.5,-6.5 c 0.3,-3.6 2,-10.5 3.7,-15.4 3.2,-8.8 3.2,-8.9 3.6,-34.5 0.5,-24.3 0.8,-29 1.9,-27.9 0.3,0.3 2.3,5.6 4.4,11.9 z m -10.7,15.4 c 0.2,4.7 0,8.5 -0.3,8.5 -0.4,0 -1.4,-1.8 -2.3,-4 -2.5,-6.2 -2,-13 0.9,-13 1,0 1.4,2.3 1.7,8.5 z m 26.6,22.7 c 1.3,1.4 3.6,3.2 5.1,3.8 2.1,0.9 8.1,9 10,13.3 0.7,1.8 -3.7,-1.3 -10.3,-7.4 -6.6,-6 -9.6,-10.7 -9.6,-14.6 0.1,-1.6 0.2,-1.6 1.2,0.2 0.6,1.1 2.2,3.2 3.6,4.7 z M 500,352 c 1.4,0 3.2,0.5 4,1 1.3,0.9 1.3,1.2 -0.2,2.1 -1,0.5 -1.8,1.7 -1.8,2.4 0,2.2 -1.8,1.8 -3,-0.5 -2,-3.8 -3.3,-2.3 -2.6,3.1 0.7,5 0.7,5 -4,9.3 -3.6,3.3 -4.5,4.8 -4,6.4 0.4,1.1 0.2,2.3 -0.4,2.7 -1.8,1.1 -2,0.1 -1.4,-4.9 0.6,-3.8 1.2,-5 3,-5.7 2.7,-1 3.2,-2.9 0.9,-2.9 -1.2,0 -1,-0.8 1,-3.7 2.9,-4.3 3.5,-7.3 1,-5.3 -1.3,1.1 -1.5,0.8 -1.5,-1.3 0,-2.8 1.5,-3.8 4.5,-3.2 1.1,0.3 3.1,0.5 4.5,0.5 z m -63.8,55.1 c 3.9,1.8 7.9,7.8 7.1,10.8 -1.3,5.6 -4.6,10.3 -13.1,18.8 -11.6,11.7 -30.6,29.1 -35.5,32.6 l -4,2.9 0.6,5.7 c 1.3,13.1 6.5,21.9 17.7,29.6 2.2,1.5 3.7,3.1 3.5,3.6 -1,1.5 -9.6,2.2 -13.4,1 -6,-1.8 -11.9,-6.7 -16.3,-13.6 -2.6,-4.3 -5.5,-7.4 -8.8,-9.5 -8,-5.2 -7.9,-5.9 4.7,-19.3 8.8,-9.4 10.9,-12.8 15,-23.6 3.5,-9.3 6.2,-13.7 14.1,-22.3 4.2,-4.7 7.3,-9.1 8,-11.5 0.7,-2.4 2.1,-4.4 3.4,-5.1 3,-1.4 14.1,-1.5 17,-0.1 z"/>
<path d="m 454,377.4 c 0,0.5 2.9,4 6.4,8 3.5,3.9 7.5,9 9,11.3 2.5,4.1 4.6,5.5 4.6,3.2 0,-1.7 -8.3,-13 -12.2,-16.4 -5.6,-5.2 -7.8,-6.8 -7.8,-6.1 z"/>
<path d="m 442,392.8 c 0,1.5 11.8,12.4 12.8,11.8 1.6,-1 6.9,6.1 9.3,12.6 2.7,7.4 4.8,6.5 2.9,-1.2 -1.7,-7.1 -6.2,-12.5 -15.5,-18.7 -7.9,-5.3 -9.5,-6 -9.5,-4.5 z"/>
<path d="m 377.8,472.1 c -2.7,1.5 -2.3,7.4 0.6,10.4 2.8,2.7 5.6,2.4 5.6,-0.6 0,-1.3 -0.7,-1.9 -2.1,-1.9 -1.8,0 -2,-0.4 -1.4,-2.3 1.7,-5.6 0.7,-7.6 -2.7,-5.6 z"/>
<path d="m 337.9,203 c -8.7,1.1 -11.8,2.8 -21.5,11.9 -5.5,5.1 -10.6,8.9 -16,11.6 -9.7,4.9 -20.5,15.3 -34.1,32.9 -8.1,10.5 -9.9,13.7 -16.3,28.5 -11.7,27 -10.8,25.5 -24.2,42.8 -6.3,8.1 -6,20.8 1.1,35.3 2.2,4.7 4.4,10.1 4.7,12 1.4,8.8 3,14.4 7.6,26.4 5.8,15.1 5.9,14.3 -3.4,27.7 l -6.3,9.2 -0.1,20.1 c 0,17.9 -0.2,20.7 -2.1,25.6 -1.1,3 -2.4,7.8 -2.8,10.6 -1,7.5 -0.3,7.8 18.9,8.4 11.1,0.4 18.3,1.2 23.1,2.5 6.2,1.6 7.4,1.7 9.9,0.4 4.9,-2.4 4.2,-3.6 -1.7,-3.1 -3.5,0.3 -7.6,-0.2 -11.3,-1.3 -4,-1.2 -10.5,-1.9 -20.4,-2.2 -17,-0.4 -16.3,0.3 -12.8,-12.4 1.9,-7.2 2.3,-11.1 2.4,-26.9 0.1,-20.9 -0.2,-19.6 9.2,-33.7 3.9,-5.8 6.3,-8.5 8.1,-9 1.4,-0.3 3.7,-1.5 5.1,-2.5 1.4,-1 5.4,-2.9 9,-4.2 3.6,-1.3 7.3,-2.7 8.3,-3.1 1.2,-0.5 1.7,-0.2 1.7,0.8 0,0.9 -0.4,1.9 -1,2.2 -0.5,0.3 -1,3.1 -1,6 0,3.3 -0.9,7.9 -2.4,11.7 -2.7,7.1 -17.6,40.8 -21.2,48 -1.3,2.6 -2.4,5.4 -2.4,6.1 0,1.5 2.9,2.9 9.5,4.6 2.2,0.6 7.2,2.9 11,5.2 3.9,2.2 10.2,5.4 14,7.1 3.9,1.6 7.7,3.4 8.5,3.9 8.6,5.1 6.8,4.9 39.9,4.9 26.8,0 31.2,-0.2 32.5,-1.6 2,-1.9 2,-3.4 0.1,-6.1 -1.6,-2.3 -9.3,-5.3 -13.5,-5.3 -4.1,0 -18,-3.8 -23.6,-6.6 -2.9,-1.3 -7,-4.4 -9.3,-6.9 -4.9,-5.3 -5,-6.2 -2,-23.6 2.1,-12.4 3.5,-17.5 8.4,-30.3 1.4,-3.9 3.7,-11.2 5.1,-16.5 l 2.4,-9.4 -3.1,-6.6 c -8.7,-18.6 -12.7,-32.7 -15.4,-54.1 -2.7,-20.8 -2.6,-21.1 11.9,-48 5,-9.3 9.1,-18.4 9.7,-21.3 1.5,-6.9 4,-9.3 12.2,-11.8 5.8,-1.7 7.6,-1.9 11.8,-1 6.9,1.5 13.1,1.4 15.5,-0.3 1.1,-0.8 2.9,-3.3 3.9,-5.6 1.6,-3.5 1.7,-4.9 0.8,-9.8 -0.6,-3.4 -0.7,-6.6 -0.2,-8 0.7,-1.7 0.4,-3.6 -1.1,-6.9 -1.2,-2.8 -2,-6.7 -2,-10.2 0,-6.2 -2.8,-11.6 -7.1,-13.8 -9.2,-4.6 -16.6,-5.8 -28,-4.3 z m 28.6,19.9 c 1.7,0.7 1.1,1.3 -4,3.7 -4.4,2.1 -6,3.4 -6,4.9 0,2.1 2.6,2.4 10.7,0.9 4.4,-0.7 4.3,-0.8 5.3,12.8 0.7,10.2 0.5,10.3 -8.7,6.8 -2.9,-1.1 -6.2,-2 -7.3,-2 -1.2,0 -2.7,-1.3 -3.7,-3 -1,-1.7 -2.4,-3.3 -3.3,-3.5 -5.1,-1.6 -5.1,-1.7 -2.8,-2.7 2.2,-1.1 5.3,-7.3 5.3,-10.7 0,-5.1 8.7,-9.5 14.5,-7.2 z m -30.3,3.4 c -1.2,1.3 -2.2,2.9 -2.2,3.5 0,0.7 -0.4,1.2 -1,1.2 -0.5,0 -1,-0.3 -1,-0.6 0,-1.3 4.2,-6.4 5.2,-6.4 0.7,0 0.2,1 -1,2.3 z m 10.6,1.6 c 0.3,3.1 0.2,3.3 -1.2,2.1 -1.4,-1.1 -2,-1 -3.6,0.5 -1.1,1 -2,2.4 -2,3.2 0,1.5 3.6,1.8 4.5,0.3 0.9,-1.5 2.5,-1.2 2.5,0.4 0,4.2 -5.9,4.3 -8.6,0.1 -2.1,-3.2 -0.4,-6.5 3.3,-6.5 2.1,0 2.4,-0.4 2,-2.1 -0.4,-1.5 -0.1,-1.9 1.1,-1.7 1.1,0.2 1.8,1.5 2,3.7 z M 297,249.5 c 0,0.9 -0.9,3.4 -2.1,5.7 -1.2,2.3 -2.7,6.2 -3.5,8.7 -1.9,6.6 -3.6,8.5 -6.5,7.8 -2.6,-0.7 -10.9,-7.3 -10.9,-8.7 0,-2 5.7,-7.3 11.8,-11 7,-4.2 11.2,-5.1 11.2,-2.5 z m 24.9,1.2 c 3.9,2.9 6,8.1 6.7,16.4 0.6,7.3 0.6,7.5 -4,16.6 -5.6,11 -8.4,13.5 -19.8,17.3 -4.5,1.5 -8.4,3.3 -8.6,3.9 -0.6,1.9 2.7,1.2 10,-2 3.8,-1.7 7.2,-2.8 7.4,-2.6 0.8,0.7 -7.4,9.8 -13,14.5 -11.8,10 -11.7,9.5 -8.7,25.7 3.4,18.7 4.6,33 3.1,38.8 -1.6,6.3 -0.8,10 4,18 l 4,6.5 -1.5,4.3 c -2.1,5.8 -8.1,16.5 -10.7,18.9 -3,2.8 -4.2,2.5 -2.2,-0.5 1.8,-2.8 0.9,-3.2 -2,-1 -1.1,0.8 -2.6,1.5 -3.4,1.5 -0.8,0 0.6,-1.6 3.2,-3.6 5.6,-4.3 5.4,-5.4 -0.4,-2.4 -7.1,3.6 -7.9,2 -1.7,-3.3 3.2,-2.7 5.7,-5.2 5.7,-5.7 0,-0.5 -3,0.5 -6.6,2.1 -3.6,1.7 -6.9,2.8 -7.1,2.5 -0.7,-0.7 9.4,-9.9 11.9,-10.8 2.4,-1 2.3,-2.2 -0.8,-9.9 -2.1,-5.1 -2.6,-8.3 -2.8,-15.9 -0.1,-9.3 -4.1,-31.4 -7,-39 -0.7,-1.9 -1.1,-4.2 -0.9,-5 1.9,-6.9 5,-15.3 6.9,-19.2 2.6,-5.2 2.8,-5.8 1.5,-5.8 -0.8,0 -6.4,11.7 -9.7,20.4 -1.6,4.4 -1.9,4.7 -2.4,2.5 -0.4,-1.3 -1.5,-3.9 -2.4,-5.7 -1.5,-2.9 -1.6,-4.1 -0.6,-9 0.7,-3.1 2.8,-9.1 4.6,-13.2 1.9,-4.1 3.2,-7.9 3,-8.6 -0.4,-1.1 1.7,-4.7 7.4,-12.9 0.8,-1.2 3.1,-3.7 5,-5.6 3.3,-3.3 7,-12 7,-16.3 0,-4 4.2,-11.5 7.3,-13.1 4.2,-2.1 14,-1.4 17.6,1.2 z M 278,277 c 0.5,0 1.7,1.1 2.6,2.5 1.6,2.5 1.6,2.7 -2.7,9 l -4.3,6.4 -2.5,-2.2 c -8.9,-8.2 -10.3,-15.1 -4.3,-21.9 1.4,-1.7 1.8,-1.5 5.8,2.2 2.4,2.2 4.8,4 5.4,4 z m -10.1,16.8 c 1.7,1.2 3.1,2.7 3.1,3.3 0,0.8 -6.1,10.1 -9.7,14.8 -1.8,2.4 -8.1,-15.8 -6.9,-20.1 0.3,-1.3 1.5,-3.8 2.7,-5.7 l 2.1,-3.5 2.8,4.5 c 1.5,2.4 4.1,5.4 5.9,6.7 z m -15,11.1 c 1.1,2.1 3.2,5.2 4.6,6.9 2,2.4 3,5.5 4.5,14.4 1.9,10.8 3.1,14.6 11.4,37 2,5.4 3.3,9.8 3,9.8 -0.3,0 -4.6,-2 -9.7,-4.4 -5.1,-2.5 -12.7,-5.5 -17,-6.8 l -7.8,-2.3 -2.9,-6 c -1.7,-3.3 -3.6,-8.6 -4.2,-11.8 l -1.2,-5.7 7.2,-14.5 c 4,-8 7.2,-14.7 7.2,-14.9 0,-1.1 2,-5.6 2.5,-5.6 0.2,0 1.3,1.7 2.4,3.9 z m 54.2,15 c -2.5,5.9 -2.6,10.5 -0.5,24.8 2.5,17.7 7.1,33.6 14.9,51.5 4.4,10.4 4.5,9.5 -4.2,35.6 -3.6,10.9 -6.2,21.2 -7.8,30.8 -3,17.3 -3,17.9 -0.7,20.2 0.9,0.9 2.4,2.9 3.3,4.3 3.2,4.8 21.6,12.6 34.4,14.4 6.3,1 12.5,3.4 12.5,4.9 0,0.9 -7.3,1.1 -30.2,0.8 -26.3,-0.3 -30.7,-0.6 -33.3,-2.1 -3.4,-1.9 -3.3,-0.9 -1.9,-22.3 0.7,-12.5 0.2,-14.8 -6.7,-26.1 -6.9,-11.4 -6.5,-15.8 2.1,-21.2 3.1,-2 5.2,-4.9 10.9,-15.8 4.2,-7.9 7.1,-14.7 7.1,-16.4 0,-1.7 -1.4,-5.1 -3.2,-7.8 -3.1,-4.7 -3.2,-5 -3.9,-20.9 -0.7,-15.9 -2,-28.1 -4,-38.4 -0.9,-4.6 -0.8,-5.8 1.1,-9.7 2,-4.1 10.8,-13 11.9,-12 0.2,0.2 -0.6,2.7 -1.8,5.4 z M 277.5,430 c 0.3,0.5 1.4,1 2.4,1 2.5,0 2.5,4.3 0,9.2 -1.1,2.1 -1.9,4.5 -1.9,5.5 0,1.7 2.7,6.8 9.4,18.5 3.6,6.2 4.4,15.5 2.2,25.8 -2.1,9.7 -3,10.6 -8.7,8.4 -2.4,-1 -7.5,-3.6 -11.4,-5.9 -9,-5.2 -11.2,-6.2 -15.7,-7 -2.1,-0.3 -3.8,-0.8 -3.8,-1 0,-2.1 20.6,-48.1 23.8,-53.3 1.5,-2.4 2.7,-2.8 3.7,-1.2 z"/>
<path d="m 296.6,485.6 c -0.3,0.9 -0.6,3.3 -0.6,5.5 0,4.4 3.4,8.9 6.8,8.9 2.9,0 3.4,-1.2 1,-2.4 -2.3,-1.2 -3.3,-3.4 -4.3,-9.9 -0.6,-3.9 -1.9,-4.8 -2.9,-2.1 z"/>
<path d="m 581,255 c 0,0.5 2.2,1 4.9,1 2.8,0 5.3,-0.5 5.6,-1 0.4,-0.6 -1.5,-1 -4.9,-1 -3.1,0 -5.6,0.4 -5.6,1 z"/>
<path d="m 571,260.8 c 0,2.5 12.7,6 15.7,4.3 1.5,-0.9 1.1,-1 -2.2,-1.1 -2.3,0 -5.8,-0.9 -8,-2 -4.3,-2.2 -5.5,-2.4 -5.5,-1.2 z"/>
<path d="m 1292,270.7 c -1,0.3 -1,27.8 -1,61 l 0,60.4 5,-0.3 6,-0.3 0,-9.5 c 1,-5.2 1,-15.8 2,-23.5 1,-7.7 1,-15.1 1,-16.4 0,-2.1 0,-2.3 4,-1.6 6,1.1 6,1.2 5,19.5 0,9.1 -1,22.9 -2,30.8 l 0,14.2 -17,-0.1 c -17,-0.2 -19,0.3 -19,4.1 0,2.6 -2,3 -16,3 l -12,0 2,-2 c 1,-1.1 2,-3.3 2,-5 0,-3 0,-3 -5,-3 -3,0 -8,0.7 -12,1.5 -3,0.9 -9,2 -13,2.5 -4,0.6 -13,2.3 -19,3.9 -7,1.6 -14,3.2 -16,3.6 -2,0.3 -4,0.9 -4,1.3 -1,0.4 -1,11.5 -2,24.7 0,13.2 -1,26.7 -1,30 -1,14.3 -2,48.2 -1,51 1,2.8 1,2.9 6,2.6 9,-0.4 9,-0.1 9,-9.9 0,-9.2 1,-26.1 4,-53.7 2,-25.8 2,-28 3,-29.6 1,-1.2 8,-1.4 43,-1.7 24,-0.1 46,0.1 51,0.5 l 9,0.8 -1,12 c 0,6.6 0,20 -1,29.8 0,9.8 -1,23.8 -1,31.1 0,13 0,13.4 2,14 4,1.1 18,0.7 19,-0.6 0,-1.1 1,-22.6 3,-73.3 1,-37.8 1,-41.7 -1,-56.5 -1,-9.8 -1,-16.6 -1,-31.6 1,-10.6 1,-19.8 1,-20.5 0,-1.1 -2,-1.5 -9,-1.7 l -10,-0.3 0,-29.4 c 0,-16.1 0,-30 -1,-30.9 0,-1.2 -2,-1.6 -6,-1.6 -3,0 -6,0.3 -6,0.7 z m 8,2.5 c 1,1.3 1,2.8 0,2.8 0,0 -2,-0.9 -3,-2 -2,-1.8 -2,-2 0,-2 1,0 2,0.5 3,1.2 z m 1,6.8 c 0,0.5 -1,0.7 -2,0.3 -1,-0.6 -1,-0.5 0,1.4 1,1.1 2,2.3 2,2.7 0,0.4 -1,-0.9 -3,-2.7 -2,-1.9 -3,-3.9 -3,-4.5 0,-0.6 1,-0.4 3,0.4 2,0.9 3,1.9 3,2.4 z m 0,9.4 c 0,0.5 -1,-0.3 -3,-1.9 -2,-1.6 -3,-3.3 -3,-3.9 0,-0.5 1,0.3 3,1.9 2,1.6 3,3.3 3,3.9 z m -2,2.5 c 2,1.6 3,3.3 3,3.7 -1,0.4 -3,-0.9 -5,-2.9 -4,-4.4 -3,-4.9 2,-0.8 z m 3,8.3 c 0,1.5 -2,0.7 -4,-2 -4,-4 -4,-4.8 1,-1.5 1,1.5 3,3.1 3,3.5 z m -2,3.1 c 1,1.1 2,3 2,4.1 0,1.8 -1,1.4 -3,-1.9 -6,-5.9 -5,-7.2 1,-2.2 z m -2,5.8 c 4,3.6 4,7.3 1,4.6 -2,-2.2 -5,-7.7 -4,-7.7 0,0 2,1.4 3,3.1 z m 0,6.6 c 3,2.9 4,6.7 2,4.3 -3,-1.8 -6,-7 -5,-7 0,0 2,1.2 3,2.7 z m 0,6.6 c 2,1.9 3,3.8 3,4.2 0,1.1 -5,-3.5 -6,-5.8 -2,-3 1,-1.9 3,1.6 z m 3,8.5 c 1,2.6 -1,2.3 -4,-1.1 -2,-1.8 -4,-3.6 -3,-4 0,-0.8 6,3.2 7,5.1 z m 0,10.1 c 1,4.7 1,4.9 -3,1.9 -2,-2.6 -3,-4.8 0,-2.3 3,2.7 2,0.4 -1,-4.3 -4,-5.4 -4,-6.5 0,-2.5 2,1.9 4,4.6 4,7.2 z m 0,11.1 c 0,1.1 0,2 -1,2 -1,0 -5,-3.1 -5,-4.2 0,-0.6 1,-0.3 2,0.7 3,3.1 4,0.8 0,-3 -4,-4.9 -4,-5.9 1,-1.3 1,2.1 3,4.7 3,5.8 z m 0,7.6 c 1,4 -2,5.3 -4,2.4 -1,-1.3 -2,-1.8 -1,-1 3,2.2 3,0.3 1,-3.4 -4,-4.5 -4,-5.2 0,-2.6 2,1.2 3,3.3 4,4.6 z m -3,6.9 c 1,1.5 2,3.6 2,5.5 0,3.4 -1,3.7 -3,1.3 -2,-1.9 -3,-4.1 0,-2.3 2,1.9 1,0.2 -2,-3.6 -3,-3.9 -1,-4.6 3,-0.9 z m -1,10 c 1,0.9 1,1.8 1,2.2 -1,0.7 -4,-1.5 -4,-2.8 0,-1.4 2,-1.1 3,0.6 z m 0,5.5 c 1,0.5 1,1.2 1,1.6 -1,0.4 -2,0 -3,-0.9 -1,-1.8 0,-2.3 2,-0.7 z m 0,6.8 c 0,0.7 0,1 -1,0.6 -1,-0.3 -2,-1.1 -2,-1.6 0,-1.3 2,-0.5 3,1 z m 13,27.1 12,0.6 0,12.5 c 1,6.9 1,19.2 0,27.5 0,8.2 -1,23.5 -2,34 0,10.4 -1,20 -2,21.3 0,2.1 -1,2.3 -6,2 -6,-0.3 -6,-0.5 -7,-2.8 -1,-3.9 -1,-33 0,-43.3 1,-5.1 1,-15.5 2,-23.2 1,-7.7 1,-14.9 1,-15.9 0,-1.5 0,-2.2 -3,-2.7 -6,-1.3 -106,-1.3 -107,0 -1,1 -4,32.1 -6,72.4 0,10.9 -1,20.2 -1,20.8 -1,0.5 -3,0.9 -5,0.9 l -4,0 -1,-5.6 c -1,-4.1 -1,-8.7 0,-17.7 1,-14.1 3,-36.4 4,-52.2 1,-22.9 1,-26.3 3,-27.1 4,-1.8 93,-3 122,-1.5 z"/>
<path d="m 1153,283.4 c -2,0.8 -6,4.4 -10,8.1 -4,3.7 -7,7.1 -9,7.6 -1,0.5 -2,1.9 -3,3.1 -1,3.6 -4,5.5 -10,7.1 -7,1.9 -26,9 -32,11.7 -7,4 -17,12.5 -22,19 -2,3.4 -5,10.3 -7,15.2 l -3,8.9 -2,-1.9 c -8,-6.8 -10,-5 -12,10.7 -1,6.7 -2,12.7 -2,13.2 -1,0.5 -2,0.6 -3,0.3 -4,-0.8 -7,2.6 -7,6.8 0,13.9 1,25 4,32.1 1,4.3 7,7.6 12,7.7 2,0 8,2.7 14,5.9 6,3.2 13,6.4 15,7.1 l 4,1.2 0,11.7 0,11.7 -4,2.7 c -3,1.7 -9,3.7 -18,5.9 -15,3.5 -20,6.1 -23,12.5 -1,2.3 -2,3.8 -4,4.5 -4,1.2 -5,3.5 -5,8.3 0,4.9 2,7.4 6,9.1 5,2.1 7,1.8 11,-1.7 5,-4.7 4,-10.7 -3,-15.8 l -3,-2.3 3,-3.3 c 4,-4.1 6,-4.7 19,-8 6,-1.4 13,-3.4 16,-4.5 2,-1.1 5,-1.8 5,-1.6 0,0.3 -1,1.7 -2,3.3 -1,1.5 -3,5.7 -5,9.2 -2,3.6 -5,8.8 -7,11.6 -2,2.9 -4,5.9 -4,6.8 0,3 5,7.7 9,8.4 6,0.8 9,-0.3 11,-3.7 2,-5 1,-7.8 -3,-12.7 l -5,-4.5 3,-5.1 c 1,-2.9 3,-6.4 4,-7.8 2,-2.2 2,-5 2,-16.7 0,-9.6 1,-14.5 2,-15.4 1,-0.9 1,0.3 1,6.3 0,8.5 1,13.1 3,13.6 0,0.2 1,-3.4 1,-9.3 0,-5.2 0,-9.7 0,-10 1,-0.2 4,-0.9 9,-1.4 4,-0.5 10,-1.9 13,-3.1 4,-1.2 6,-2 6,-1.8 1,0.7 -3,17.2 -5,20.4 -2,3.9 -8,9.2 -11,11.1 -3,1.4 -3,1.3 -6,-1.1 -3,-2.6 -5,-3.2 -6,-1.5 -1,0.5 -2,1 -4,1 -2,0 -2,0.3 -1,1.9 1,1 3,2.8 6,4 3,1.8 4,2.5 4,5 0,5.3 2,8.4 12,18.1 5,5.3 11,11 12,12.7 3,4 9,6.3 20,7 9,0.7 12,0.1 14,-2.8 2,-2.9 -1,-5.3 -8,-8 -7,-2.5 -10,-5.3 -14,-14.4 -5,-8.6 -6,-14.8 -4,-19.6 3,-7.4 28,-43 36,-51.4 14,-14.5 18,-27.5 11,-34.6 -2,-2.1 -2,-3.1 -1,-4.5 1,-3 6,-6.9 12,-10.7 l 6,-3.5 5,2.9 c 3,1.6 7,4.5 8,6.4 3,3.6 6,5.2 9,4.1 1,-0.7 1,-4.5 0,-7 -2,-2.4 -2,-3.6 2,-3.6 3,0 6,1.4 10,5 6,5.3 16,7.7 15,3.3 -1,-0.9 0,-2.4 1,-3.3 1,-1.2 1,-2 0,-2.5 -1,-0.9 -1,-3.5 1,-3.5 4,0 -5,-7.1 -14,-9.5 -2,-0.8 -5,-1.9 -5,-2.4 -1,-0.8 4,-2.3 11,-3.6 3,-0.7 5,-3.2 3,-5.3 -2,-1.7 -8,-3.1 -14,-3.2 -3,0 -8,-1.3 -13,-3 -5,-1.7 -9,-3 -11,-3 -2,0 -5,3.1 -14,11.9 -10,9.3 -14,12.6 -19,15 -9,4.3 -9,4.4 -10,-3.2 -1,-1.6 -2,-5.7 -4,-9.1 -3,-6.4 -4,-14.3 -2,-20.6 1,-3.6 5,-3.8 10,-0.4 3,2.3 3,2.5 6,1.6 1,-0.7 2,-1.6 2,-2.1 0,-1.4 7,-5.3 9,-4.7 2,0.7 4,-2.4 5,-6.9 0,-5.4 4,-15.6 5,-17.6 1,-0.8 2,-1.8 3,-2.2 5,-1.6 0,-9.1 -8,-14.6 -8,-4.9 -12,-6.7 -19,-8.1 -2,-0.6 -5,-1.3 -6,-1.5 -1,-0.2 -3,0.2 -4,0.9 z m 31,23.8 c 1,0.3 1,1.8 -1,4.8 -1,2.5 -2,4.6 -2,4.8 -1,0.1 -3,-0.2 -6,-0.8 -3,-0.6 -5,-0.8 -6,-0.5 0,0.2 2,2.2 4,4.2 5,4.4 7,10.3 3,10.3 -1,0 -4,1.3 -6,3 -2,1.6 -5,3 -6,3 -3,0 -8,-5 -9,-9.3 -3,-5.6 -2,-18.2 0,-18.2 1,0 2,1.3 2,3.4 1,4.6 3,5 5,1 1,-1.7 4,-5.1 6,-7.5 l 4,-4.3 6,2.8 c 3,1.6 5,3.1 6,3.3 z m -45,7 c 1,1.8 3,4.1 3,5.1 1,2.9 4,1.6 5,-2.3 1,-3.4 1,-3.2 2,3.5 0,4.2 1,8.1 2,9.5 2,3 2,4 1,4 -1,0 -4,-2.3 -6,-5 -7,-9.7 -9,-10.3 -20,-10.2 -11,0.1 -16,1.6 -19,6.4 -4,5.9 -3,8.8 0,16.6 5,8.4 5,8.1 -7,10.6 -5,0.9 -9,2.3 -10,3.1 -1,0.8 -2,1.5 -3,1.5 -1,0 -3,0.7 -5,1.5 -4,2.2 -5,1.2 -4,-4.8 0,-5.8 6,-22.5 9,-26.4 1,-1.9 12,-8.3 15,-8.3 0,0 -2,2.1 -4,4.7 -7,7.9 -18,23.2 -18,25.8 0,2.1 3,-0.7 8,-8.3 6,-9.1 21,-25.5 25,-26.6 4,-1.3 16,-3.4 19,-3.5 3,-0.1 4,0.6 7,3.1 z m 0,12.7 c 5,4.1 6,6.6 4,8.6 -1,1.2 -1,1.6 1,2.4 2,0.8 3,1.5 2,3.4 0,1.5 -1,2.8 -2,3.1 -3,0.6 -2,2.2 1,2.8 2,0.3 2,0.4 1,2 -2,2 -2,4.6 1,9.1 3,4 7,15.5 7,19.9 0,3.8 1,4.6 3,2.8 2,-2.1 35,-17.8 38,-18.3 6,-1 18,0.9 29,4.7 6,1.9 12,4 13,4.6 3,1.7 2,2.5 -2,1 -4,-1.8 -5,-0.4 -1,2.1 2,1.1 4,2.5 4,3 0,1.7 -4,0.9 -5,-1.1 -1,-1.1 -3,-2 -4,-2 -1,0.1 0,1.5 3,4.1 2,2.1 4,4.2 4,4.5 -1,0.7 -11,-5.4 -11,-6.5 0,-1.4 -7,-4.1 -11,-4.1 -2,0 -5,0.5 -7,1.1 -4,1.4 -11,-0.4 -11,-2.6 1,-0.7 0,-1.6 -1,-1.9 0,-0.3 -1,-1.2 -1,-2.1 0,-2.2 -1,-1.8 -3,0.8 0,1.2 -3,3.5 -6,5 -6,2.7 -9,6 -23,22.1 -5,5.5 -7,6.6 -9,6.6 -5,0 -9,-4.2 -7,-6.9 1,-1.4 0,-2.8 -4,-8.2 -6,-7.4 -8,-12 -9,-16.9 -2,-7.6 -15,-26.4 -20,-29.6 -2,-1 -4,-2.9 -5,-4.2 0,-2.8 3,-10.8 5,-12.2 1,-0.6 6,-0.9 12,-0.8 11,0.3 11,0.3 14,3.7 z m -61,11.4 c -1,4.2 -3,7.7 -3,7.7 -2,0 -1,-8.4 1,-11 1,-2.6 4,-5.2 5,-4.7 0,0.2 -1,3.8 -3,8 z m -6,6.3 c 1,1.5 2,6 3,10 1,8 3,12.7 3,8.8 0,-2.3 2,-2.7 25,-4.8 5,-0.5 13,0.3 13,1.3 0,0.3 -1,1.2 -3,2 -6,2.4 -13,9.2 -15,13.4 -1,2.3 -2,5.9 -2,8.1 l 0,3.9 -4,-0.7 c -3,-0.4 -6,-1.6 -8,-2.6 -2,-1.5 -3,-1.6 -3,-0.6 0,1.7 4,3.6 15,7.1 l 9,2.8 14,-2.7 c 8,-1.5 15,-2.4 16,-2.1 1,0.4 4,3.8 6,7.6 4,7.9 7,10.4 12,10.4 4,0 5,-0.7 10,-6.4 6,-5.8 6,-6.3 9,-5.2 2,0.8 2,1.8 2,4.7 0,5.3 -3,10.7 -14,25.8 -10,12.5 -14,17.9 -25,36.1 -2,3.8 -6,9.3 -9,12.2 -3,3.8 -4,6.2 -4,8.6 0,12.4 10,28.5 20,32 3,0.9 6,2.6 7,3.7 l 3,1.9 -7,0.1 c -7,0 -16,-1.8 -19,-3.7 -2,-0.6 -6,-5.3 -10,-10.3 -4,-5.3 -9,-10.2 -11,-11.4 -3,-1.6 -5,-3.3 -6,-6 -1,-4.8 0,-6.6 6,-10.5 5,-3 6,-4 12,-16.6 4,-9.7 6,-15.2 7,-19.7 2,-13.3 5,-18.8 12,-21.9 2,-1.2 6,-2.9 9,-3.9 2,-1 5,-2.6 8,-3.7 2,-1 4,-2.3 4,-2.8 -1,-1.7 -6,-0.6 -16,3.6 -6,2.1 -11,3.9 -12,3.9 -1,0 -8,2.8 -15,6.3 l -12,6.2 -12,0 c -12,0 -13,-0.1 -20,-3.4 -8,-3.8 -13,-8.8 -13,-12.7 0,-1.3 1,-4.3 3,-6.5 2,-3.9 2,-4 5,-2.5 15,9.9 18,11.6 22,11.6 5,0 10,-1.8 14,-5.3 4,-3.9 4,-5.7 0,-2.3 -3,2.6 -9,4.6 -13,4.6 -1,0 -7,-2.8 -13,-6.3 l -11,-6.2 0,-6.7 c 0,-3.7 -1,-10.6 -2,-15.3 -1,-4.8 -2,-9.1 -1,-9.7 0,-0.5 2,1.4 4,4.1 5,6.9 6,6.5 1,-0.7 -4,-7.2 -5,-9.6 -3,-14.6 1,-5.7 6,-15.6 7,-15.6 0,0 1,1.2 2,2.6 z m 137,6.4 c 5,1.7 12,3.3 16,3.6 7,0.7 9,1.5 5,2.9 -2,1.1 -25,1.9 -28,1.1 -2,-0.4 -3,-1.8 -4,-3.4 l -1,-2.7 -1,2.9 c 0,3.1 -1,3.3 -9,6.4 -3,1.3 -5,1.6 -4,0.7 1,-1.3 15,-14.5 15,-14.5 1,0 5,1.4 11,3 z m -81,22.4 c 4,5.9 6,11 6,11.3 -1,0.6 -18,4 -24,4.8 -5,0.6 -6,0.4 -8,-1.4 -4,-3.8 -2,-10.9 4,-16.8 5,-4.9 12,-9.3 15,-9 1,0.1 3,3.4 7,11.1 z m -73,-3.1 c 3,6.8 6,19.4 6,23.6 -1,3.9 -5,13.6 -7,14.3 0,0.3 -2,0.8 -3,1.2 -4,0.9 -7,-3.8 -7,-11.7 0,-5.7 4,-32.3 5,-34 1,-1.3 3,1.4 6,6.6 z m 155,9.9 c 1,3.4 0,4.4 -2,1.7 -2,-2.9 -2,-3.9 0,-3.9 0,0 1,1 2,2.2 z M 1040,398 c 1,12 3,15 10,15 4,0 4,0.6 0,4.1 -1,1.9 -2,4.2 -3,7.3 0,5.1 -1,5.5 -6,2.7 -4,-2.6 -6,-9.1 -7,-22.7 0,-12.7 0,-14.7 3,-14.2 2,0.3 3,1 3,7.8 z m 27,31 c 4,1.6 9,3.4 13,4.1 13,2.1 23,0.1 38,-7.8 3,-1.3 5,-2.2 6,-2 1,1.1 -3,12.4 -6,15 -4,4.4 -14,7.1 -25,6.4 -10,-0.5 -15,-2.1 -30,-9.6 -12,-6.1 -12,-6.1 -10,-13.9 0,-2.3 0,-2.3 4,1.3 2,2 7,5 10,6.5 z m 27,48 c 0,0.5 -1,1 -1,1 -1,0 -2,-0.5 -1,-1 0,-0.6 0,-1 1,-1 0,0 0,0.4 1,1 z m -54,23.7 c 1,1.5 2,3.6 2,4.7 0,2.8 -3,5.6 -6,5.6 -6,0 -8,-7.2 -3,-10.9 3,-2.6 3,-2.6 7,0.6 z m 37,1 c 1,1 2,2.8 3,4 1,5 -8,8.5 -12,4.6 -2,-2 -2,-2.4 0,-6.7 3,-4.1 6,-4.7 9,-1.9 z"/>
<path d="m 1143,420.9 c -7,5.1 -17,22 -17,28.1 l 0,2.5 1,-2.5 c 6,-14 14,-24.5 20,-27.9 2,-0.8 3,-1.8 3,-2.3 0,-1.6 -3,-0.8 -7,2.1 z"/>
<path d="m 1108,484.2 c -1,1.8 -2,4 -2,4.8 1,1.4 7,6 8,6 2,0 1,-1.6 -2,-3.2 -3,-1.9 -4,-3.8 -1,-7.2 1,-1.6 1,-2.6 0,-3.1 0,-0.3 -2,0.9 -3,2.7 z"/>
<path d="m 582,326 c 0,2.3 15.9,39.7 16,37.5 0,-0.6 -2.3,-7.2 -5,-14.7 -2.8,-7.5 -5,-14.4 -5,-15.3 0,-3 -2.9,-8.5 -4.4,-8.5 -0.9,0 -1.6,0.4 -1.6,1 z"/>
<path d="m 128.1,331.7 c -5.7,0.7 -12,2.1 -14,3 -2,0.9 -7.5,5.6 -12.2,10.5 -8,8.1 -9.4,9.1 -18.1,12.6 C 69,363.9 62.1,369 41,389.6 c -23.1,22.6 -25,25.2 -25,34.3 0,7.4 0.3,8 9.9,21.1 3.3,4.6 6.1,9.3 6.1,10.5 0,2.9 -4.7,9.9 -10.6,16 -3.8,4 -6.5,5.6 -11.9,7.5 -10.7,3.8 -12.4,9.4 -4.8,16.2 2,1.8 4.6,5.6 5.8,8.3 2.7,6 9.7,12.7 15,14.5 2.2,0.7 6.4,1.3 9.5,1.4 4.9,0.1 5.5,-0.1 5.8,-2.1 0.2,-1.3 -1.1,-4 -3.4,-7 -4,-5.2 -8.4,-13.8 -8.4,-16.4 0,-2 2,-2.9 6.2,-2.9 4.7,0 9,-5.4 16,-20 l 6.1,-12.9 6.1,0.6 c 3.4,0.3 6.3,0.7 6.5,0.9 0.2,0.2 -0.2,3.2 -0.8,6.7 -0.6,3.5 -1.1,9.3 -1.1,12.8 -0.1,12.3 -1.5,19.5 -4.9,24.1 -5.5,7.4 -3.4,12 6,13.2 3,0.4 11,1.6 17.8,2.7 12.4,2.1 17.8,2 24.9,-0.2 1.7,-0.6 3.2,-1.7 3.2,-2.4 0,-1.6 -4.1,-5 -10.2,-8.5 -2.3,-1.4 -6.5,-4.6 -9.3,-7.2 l -5.1,-4.7 0.9,-9.8 c 0.9,-11 0.3,-28.9 -1.3,-34.5 -0.6,-2 -3.1,-6.2 -5.6,-9.5 -4.6,-5.7 -8.3,-12.6 -8.4,-15.1 0,-0.7 3,-2.6 6.6,-4.3 3.7,-1.6 9.6,-5 13.1,-7.4 3.5,-2.5 6.8,-4.5 7.3,-4.5 1.5,0 7.9,4.4 8.4,5.8 0.8,1.7 -1.9,13.4 -3.9,17.2 -2.5,4.9 -0.6,7.8 9.8,14.7 10.9,7.2 24.1,20.4 27.7,27.5 3.6,7.3 3.6,7.5 0.9,18.4 -2.6,10 -1.9,11.9 3,8.5 2.4,-1.8 3.1,-1.9 3.1,-0.7 0,2 -4.8,7.6 -6.6,7.6 -2.1,0 -5.4,3.7 -5.4,6.1 0,2.1 0.4,2.1 9.8,1.7 10.4,-0.4 18.6,-3.1 19.9,-6.4 0.4,-1 -1.5,-8.2 -4.5,-16.8 C 161,482.2 152,449 152,446 c 0,-0.4 3.3,0.5 7.3,2 15.3,5.9 15.5,6 17.1,10.1 2.3,5.6 2,8.1 -1.4,12.4 -3.3,4.2 -3.8,6.3 -1.5,7.1 0.8,0.4 1.5,1.5 1.5,2.6 0,1.7 0.5,1.9 3.3,1.5 7,-1.2 10,-2.3 11.5,-4.5 1.6,-2.4 0.8,-2.7 -3.2,-1.2 -2,0.7 -2.6,0.6 -2.6,-0.5 0,-0.7 0.5,-1.7 1,-2 0.6,-0.3 1,-4 1,-8.1 0,-4.1 0.4,-7.4 0.9,-7.4 0.5,0 1.5,2.6 2.1,5.7 1.6,8 3,12.3 4.1,12.3 1.5,0 1,-5 -1.6,-16 -2.1,-8.6 -3.2,-11.1 -5.8,-13.8 -4.6,-4.8 -11.3,-9.5 -21.1,-15 -11.5,-6.4 -21.1,-14.4 -23.8,-20.1 -2.5,-5.1 -2.8,-10.5 -1.4,-25.6 0.8,-8.9 0.8,-9 -2.3,-13.8 -2.8,-4.4 -10.9,-10.7 -13.7,-10.7 -0.6,0 -1.7,-0.7 -2.4,-1.5 -3.9,-4.7 10,2 19.3,9.3 5.2,4.1 6.2,4.5 10.9,4.4 6.5,-0.1 8.6,-2.1 12.2,-11.3 l 2.7,-7 -3.8,-4.5 c -2.1,-2.5 -5.6,-7 -7.9,-10.2 -4.6,-6.5 -9.5,-10.3 -13.3,-10.1 -1.4,0.1 -7.3,0.8 -13,1.6 z m 22.9,11.7 c 0,1 -1.6,1.7 -4.5,2.2 -5.3,0.7 -6.3,1.8 -4.1,4.3 0.9,1 1.6,2.5 1.6,3.4 0,3.2 2,2.7 3.7,-1 2.6,-5.4 5.3,-5.5 10.4,-0.4 l 4.1,4.1 -2.1,3.3 c -1.2,1.9 -2.1,4.2 -2.1,5.2 0,6.8 -13.2,7.3 -14.6,0.6 -0.3,-1.4 -1.6,-5.1 -2.9,-8.1 -4.6,-10.8 -4.2,-12.6 3.3,-14.1 5.9,-1.1 7.2,-1 7.2,0.5 z m -31,0.1 c 0,0.3 -1,1.9 -2.2,3.5 -1.8,2.5 -1.9,3.1 -0.7,4.6 1.2,1.5 1.2,1.7 -0.1,1.2 -2.1,-0.7 -2.4,-4.5 -0.6,-7.4 1.5,-2.1 3.6,-3.3 3.6,-1.9 z m -13.7,15.9 c 9.8,1.9 22.1,7.1 24.9,10.5 1.3,1.5 3.2,4.3 4.3,6.3 1.9,3.6 1.9,4 0.2,14.5 -3.1,19.7 -2,32.3 3.7,40.9 7.6,11.4 10.5,19.1 16.5,44.5 1.6,6.8 4.3,16.3 6,21.1 4.1,11.5 4.1,13.5 -0.4,15.4 -1.9,0.7 -5.7,1.4 -8.4,1.4 l -5,0 4,-4.3 c 3.6,-3.8 3.9,-4.5 3.3,-8.2 -0.6,-4.1 -3,-7.8 -4.5,-6.9 -0.5,0.2 -0.6,-4.7 -0.2,-11 l 0.6,-11.5 -4.3,-7.3 c -2.4,-4 -7.7,-12.5 -11.8,-18.8 -9.1,-13.9 -10.2,-16.5 -9.1,-19.9 0.4,-1.4 1.5,-6.8 2.4,-11.9 1.5,-8.6 1.4,-9.5 -0.1,-12.8 -1.6,-3.3 -10.8,-12 -15.4,-14.4 -1.1,-0.6 -2,-1.8 -2,-2.6 0,-2.5 3,-7.7 6.7,-11.5 l 3.5,-3.7 -2.2,-1.5 c -1.9,-1.3 -2.5,-1.3 -6,0.4 -4.7,2.3 -8.5,7 -10.9,13.6 -1.5,4 -2.6,5.2 -6.2,7.1 -5,2.5 -27,7.7 -36.9,8.7 -7.5,0.8 -19.9,3.9 -24.1,6 -1.6,0.9 -2.9,1.2 -2.9,0.7 0,-1.3 25.5,-25.9 33.5,-32.4 7.9,-6.3 15.3,-10.4 22.2,-12.3 6.4,-1.8 9.7,-1.8 18.6,-0.1 z m -48,51.1 c 6.1,2.2 8.5,3.7 11.3,6.9 2.6,3.1 3.3,4.7 2.9,6.4 -0.9,3.7 2,11.1 7.1,17.7 4.8,6.4 7.8,11.4 7.1,12.1 -0.2,0.2 -3.2,-2.9 -6.6,-6.9 -4.3,-4.8 -7.9,-10.5 -11.1,-17.2 -7.5,-15.8 -11.8,-18.6 -28,-18.4 -5.5,0.1 -10.3,0 -10.6,-0.4 -0.3,-0.3 1.6,-1.3 4.2,-2.1 6.5,-2.1 14.1,-1.5 23.7,1.9 z m 87.2,11.4 c 3.5,3.2 11.8,9.1 18.6,13.1 11.9,7.1 22.9,16.3 22.9,19.2 0,0.8 -2.4,-0.9 -5.3,-3.8 -3,-2.8 -7.6,-6.4 -10.3,-7.9 -14.3,-8.2 -27,-17.7 -31.3,-23.6 -3.3,-4.5 -1.5,-3.5 5.4,3 z m 33.4,51.3 c -0.8,1.4 -1.4,1.8 -1.7,1 -0.4,-1.3 1.7,-4.6 2.5,-3.8 0.3,0.2 -0.1,1.5 -0.8,2.8 z m 2.6,4.8 c -0.3,0.5 -1.1,1 -1.6,1 -0.6,0 -0.7,-0.5 -0.4,-1 0.3,-0.6 1.1,-1 1.6,-1 0.6,0 0.7,0.4 0.4,1 z m -169.1,8.7 c 2.4,1.1 5.6,4.6 10,10.9 3.6,5.1 8.7,11.2 11.2,13.7 2.6,2.4 4.3,4.6 3.8,4.9 -0.5,0.3 -4,-0.2 -7.7,-1.2 C 22,513.1 16.9,509.1 14,502.5 13,500.3 10.3,496.3 8.1,493.6 3.3,488 2.8,485 6.5,485 c 1.3,0 4,0.7 5.9,1.7 z m 64.3,18.4 c 1.5,0.6 7.2,1.7 12.7,2.5 6.5,0.8 11.7,2.2 15.4,4 5.2,2.5 5.4,2.8 3.6,4.1 -1.4,1.1 -4,1.3 -9.9,1 -9.4,-0.5 -29,-3.4 -32.2,-4.7 -3.2,-1.3 -2.8,-3.7 1,-6 3.7,-2.3 5.4,-2.4 9.4,-0.9 z"/>
<path d="m 593.9,392.7 c 1.7,3.2 12.2,14.3 13.5,14.3 0.7,0 2.2,-1 3.3,-2.3 2.5,-2.8 7.6,-11.7 7.1,-12.3 -0.3,-0.2 -2.6,2.4 -5.3,5.8 l -4.8,6.1 -5.9,-6.6 c -3.3,-3.7 -6.6,-6.7 -7.4,-6.7 -1.1,0 -1.2,0.5 -0.5,1.7 z"/>
<path d="m 235.6,463.8 c -0.3,0.5 -1,7.1 -1.7,14.7 -1.1,13.8 -1.1,13.9 1.1,15.7 2.2,1.8 7,2.5 7,1 0,-0.4 -1,-1.2 -2.2,-1.7 -2.3,-1 -2.3,-1.2 -1.9,-15.8 0.2,-9.9 0,-14.7 -0.7,-14.7 -0.6,0 -1.3,0.4 -1.6,0.8 z"/>
<path d="m 549.7,486.7 c -0.4,0.3 -0.7,3.7 -0.7,7.5 0,6.3 0.2,6.9 2.3,7.7 2.7,1.1 8.8,0.1 8.8,-1.4 0,-0.6 -1.7,-1.2 -3.8,-1.5 l -3.8,-0.5 -0.3,-6.3 c -0.3,-5.8 -0.9,-7.2 -2.5,-5.5 z"/>
<path d="m 611.4,493.4 c -0.8,2 0.4,6.9 1.9,7.8 2.4,1.5 8.4,0.8 11.1,-1.3 3.5,-2.7 2.7,-3.5 -1.4,-1.4 -4.8,2.5 -7.4,1.7 -8,-2.4 -0.5,-3.7 -2.6,-5.2 -3.6,-2.7 z"/>
<path d="m 660.7,505.4 c -0.4,0.9 -2.7,1.7 -6.4,2 -3.2,0.4 -13.1,1.6 -22,2.8 -15.6,2.1 -16.5,2.1 -22.3,0.4 -6.4,-1.7 -8.9,-1.4 -7,0.9 3.1,3.8 18.3,4.4 33.2,1.4 5.7,-1.1 15.5,-2.3 22,-2.6 9.4,-0.5 11.5,-0.9 11.1,-2 -0.5,-1.4 -5.4,-4.3 -7.1,-4.3 -0.6,0 -1.2,0.6 -1.5,1.4 z"/>
<!--PC-->
<rect id="PC_back" style="fill:#222;fill-opacity:0.1;stroke:none" width="60" height="82" x="1233" y="435"/>
<path id="PC_cadre" d="m 1251,430.9 c -9,0.4 -16,1.1 -17,1.7 -2,2.1 -3,16.7 -3,50.6 0,32.2 0,34.7 2,35.1 1,0.2 15,0.2 31,-0.1 24,-0.4 29,-0.7 30,-2 1,-1.2 1,-10 1,-36.1 0,-19 1,-37.5 1,-41.1 1,-5.6 1,-6.7 -1,-7.8 -1,-1.3 -13,-1.4 -44,-0.3 z m 41,5.4 c 1,0.5 1,1.7 0,4 -1,4.1 -1,17 -1,48.1 0,13.7 0,25.1 0,25.4 -1,0.3 -13,0.6 -29,0.6 l -27,0.1 0,-38.1 c 0,-31.6 0,-38.4 1,-39.9 1,-1.5 4,-1.7 28,-1.3 15,0.1 27,0.6 28,1.1 z"/>
<g id="PC_aeration" style="fill:none;stroke:#000;stroke-width:2px">
<path d="m 1238,441 50,0"/>
<path d="m 1238,445 50,0"/>
<path d="m 1238,449 50,0"/>
<path d="m 1238,453 50,0"/>
<path d="m 1238,457 50,0"/>
</g>
<!--tux-->
<g id ="tux_shape" transform="matrix(0.0878,0,0,-0.0878,-14.74,544.2)">
<path d="m 14570,923 c -30,0 -60,-11.5 -80,-37.6 -10,-26.1 -20,-85.5 -20,-122.5 0,-7 -30,-38 -60,-69 -50,-55 -50,-72 -50,-129 0,-11 -20,-39 -40,-62 -40,-56.4 -20,-68.2 30,-101 50,-42 140,-31 140,16 0,22 0,24 30,18 20,-3 40,-6 50,-6 10,0 10,-3 0,-15 -30,-33 40,-50 70,-19 10,9 40,18 60,21 60,8 80,31 70,68 -10,17 -20,40 -30,51 -10,16 -10,22 0,32 30,28 10,72 -50,152 -20,37 -20,38.8 -20,87.8 0,46 -20,75.7 -30,89.2 -20,13.5 -40,26 -70,26.1 z m 50,-41.6 c 30,-35.4 30,-56.2 30,-101 -20,-10.7 -80,-36.7 -80,-36.7 0,0 -70,29.5 -70,37 0,7.5 -10,66.7 20,101.1 30,23 90,17.6 100,-0.4 z m 20,-103.8 c 10,-28.5 50,-75.4 40,-87.4 0,-12.1 -20,-10.2 -30,-5.1 -20,10.3 -30,21.1 -30,2.5 0,-8 -40,-14.3 -40,-7.8 -10,40.9 -20,34.7 -30,-0.2 0,-3.7 -20,-2.6 -30,4.7 0,7.4 -30,26.4 -30,13.4 0,-5 0,-33.8 20,-41.8 30,-16 80,-14 110,4 20,10 20,7 30,-21 10,-18 20,-39 10,-47 0,-8 0,-20 10,-27 20,-14 20,-21 -40,-62 -50,-39 -80,-48 -110,-32 -20,7 -40,11 -50,10 -20,-2 -30,35 -20,52 10,6 20,26 20,42 l 0,58 c 10,20 10,27 0,27 -20,0 -50,-34 -60,-74 10,-57 10,-59.9 -20,-8 -30,56.1 100,153.4 110,199.7 l 70,-37.1 m 160,-136.7 c -40,-103.9 -60,61.3 -50,68.3 10,7 40,-30.6 50,-68.3 z M 14430,472 c 0,-12 10,-26.9 20,-37.9 10,-28 0,-34.1 -20,-34.1 -20,0 -50,10.4 -70,26.4 -70,21.8 -50,60.8 -20,45.3 -10,30.7 10,44.5 30,28.7 -10,61.5 40,34 60,-28.4 z m 250,-34.4 c -20,-2 -70,-37.7 -80,-25.2 -10,12.5 80,87.9 90,101.7 20,34.7 40,16.2 20,-14.7 10,14.8 50,8.3 20,-17.7 40,1.5 30,-35.4 -50,-44.1 z"/>
</g>
<rect id="bec" transform="matrix(0.8556,0.5176,-0.8553,0.5181,0,0)" y="-283" x="1195" height="8" width="8"/>
<path id="smile" d="m 1261,475 c 3,3.3 4,3.4 8,0.3 -4,2.4 -5,2.7 -8,-0.3 z" style="fill:none;stroke:#fff;stroke-width:1"/>
<!--eye left-->
<g transform="matrix(2.079,0,0,2.079,-245,-7.323)" style="fill:none;stroke:#000">
<ellipse style="stroke-width:0.7" cx="724.6" cy="229.9" rx="0.7" ry="1.1"/>
<ellipse style="stroke-width:0.3" cx="724.6" cy="230.1" rx="0.5" ry="0.6"/>
<rect    style="stroke-width:0.6" width="0.4" height="0.2" x="724.4" y="229.1"/>
</g>
<!--eye right-->
<g transform="matrix(2.079,0,0,2.079,-239,-7.361)" style="fill:none;stroke:#000">
<ellipse style="stroke-width:0.7" cx="724.6" cy="229.9" rx="0.7" ry="1.1"/>
<ellipse style="stroke-width:0.3" cx="724.6" cy="230.1" rx="0.5" ry="0.6"/>
<rect    style="stroke-width:0.6" width="0.4" height="0.2" x="724.4" y="229.1"/>
</g>
</svg>
