<?xml version="1.0" encoding="UTF-8"?>
<svg version="1.1" xmlns="http://www.w3.org/2000/svg" xmlns:xlink="http://www.w3.org/1999/xlink"
width="586" height="607" viewBox="0 40 586 607"  xmlns:cc="http://creativecommons.org/ns#" xmlns:dc="http://purl.org/dc/elements/1.1/" xmlns:rdf="http://www.w3.org/1999/02/22-rdf-syntax-ns#" 
fill="#fff" stroke="#000" stroke-width="2">
<metadata xmlns:rdf="http://www.w3.org/1999/02/22-rdf-syntax-ns#">
 <rdf:RDF xmlns:dc="http://purl.org/dc/elements/1.1/">
  <dc:source>https://github.com/cpp-frug/materials/blob/gh-pages/images/cpp-concepts-bjarne-path.2003.face.svg</dc:source>
  <dc:format>image/svg+xml</dc:format>
  <dc:type rdf:resource="http://purl.org/dc/dcmitype/StillImage"/>
  <dc:creator>Oliver H</dc:creator>
  <dc:language>fr</dc:language>
  <dc:date>2017</dc:date>
  <dc:rights>CC BY-SA 3.0</dc:rights>
 </rdf:RDF>
</metadata>
<g id="cheuveux" >
 <path d="m90 344c-20 54-40 92-90 120"/>
 <path d="m95 322c-20 54-40 92-90 120"/>
 <path d="m93 313c-20 51-40 94-90 120"/>
 <path d="m99 283c-15 63-40 98-88 130"/>
 <path d="m205 75c-40 2-60 8-90 40"/>
 <path d="m192 85c-41 8-77 31-93 67"/>
 <path d="m103 253c-20 58-40 103-90 140"/>
 <path d="m105 236c-20 64-50 106-100 150"/>
 <path d="m112 221c-21 62-40 94-94 135"/>
 <path d="m148 141c-40 17-66 47-75 87"/>
 <path d="m170 104s-40-7-60 46c-10 52-20 65-80 132" fill="none"/>
 <path d="m123 183c-20 63-50 109-100 150"/>
 <path d="m227 60c-21-2-70 6-82 18"/>
 <path d="m124 186c-28 44-48 94-97 133"/>
 <path d="m133 164c-30 40-50 104-100 136"/>
 <path d="m140 151c-38 46-62 113-111 140"/>
</g>
<use transform="matrix(-1 0 0 1 585 0)" xlink:href="#cheuveux"/>
<ellipse id="crane" cx="293" cy="343" rx="200" ry="300" stroke-width="7"/>
<g transform="translate(13 13)" stroke-width="4">
 <path d="m114 257c17-47 89-49 123-30 51 32-16 116-60 114-34 2-72-42-63-84z"/>
 <g transform="matrix(-1,0,0,1,559,0)">
  <path d="m114 257c17-47 89-49 123-30 51 32-16 116-60 114-34 2-72-42-63-84z"/>
 </g>
 <path d="m221 220 116 1"/>
 <path d="m254 248h50"/>
</g>
<circle cx="273" cy="397" r="5"/>
<circle cx="313" cy="397" r="5"/>
<circle cx="205" cy="309" r="13"/>
<circle cx="381" cy="309" r="13"/>
<path d="m243 482c1 21 30 30 50 30 20-0 49-9 50-30z"/>
</svg>
