<?xml version="1.0" encoding="UTF-8"?>
<!-- Created with Inkscape (http://www.inkscape.org/) -->
<!-- Cleaned Inkscape's tags by hand -->
<svg width="4400" height="1080" fill="none" stroke="#000" stroke-width="2" version="1.1" viewBox="0 40 4400 1080" xmlns="http://www.w3.org/2000/svg" xmlns:xlink="http://www.w3.org/1999/xlink">
 <rect id="fond_blanc_semi-transparent" y="40" width="4400" height="1080" fill="#fff" opacity=".4" stroke="#fff"/>
 <title>Bjarne Stroustrup s'impatiente pour l'intégration des Concepts au standard C++</title>
 <metadata xmlns:rdf="http://www.w3.org/1999/02/22-rdf-syntax-ns#">
  <rdf:RDF xmlns:cc="http://creativecommons.org/ns#">
   <cc:Work rdf:about="https://github.com/cpp-frug/materials/blob/gh-pages/images/cpp-concepts-bjarne-original.svg" xmlns:dc="http://purl.org/dc/elements/1.1/">
    <dc:format>image/svg+xml</dc:format>
    <dc:type rdf:resource="http://purl.org/dc/dcmitype/StillImage"/>
    <dc:creator>
     <cc:Agent>
      <dc:title>Oliver H</dc:title>
     </cc:Agent>
    </dc:creator>
    <dc:language>fr</dc:language>
    <dc:date>2016</dc:date>
    <cc:license rdf:resource="http://creativecommons.org/licenses/by/3.0/"/>
   </cc:Work>
   <cc:License rdf:about="http://creativecommons.org/licenses/by/3.0/">
    <cc:permits rdf:resource="http://creativecommons.org/ns#Reproduction"/>
    <cc:permits rdf:resource="http://creativecommons.org/ns#Distribution"/>
    <cc:requires rdf:resource="http://creativecommons.org/ns#Notice"/>
    <cc:requires rdf:resource="http://creativecommons.org/ns#Attribution"/>
    <cc:permits rdf:resource="http://creativecommons.org/ns#DerivativeWorks"/>
   </cc:License>
  </rdf:RDF>
 </metadata>
 <g id="texte" fill="#000" stroke="none">
  <path d="m38 100v-7h-24l18-19c3-4 6-8 6-14 0-10-8-16-19-16-5 0-10 2-16 4v9c5-3 10-5 16-5 5 0 9 3 9 9 0 4-3 9-6 11 0 1-18 19-19 21v7h35z"/>
  <path d="m85 72c0-11-3-29-19-29s-19 17-19 29c0 11 3 28 19 28s19-17 19-28zm-9 0c0 7 0 21-10 21-9 0-10-14-10-21s0-21 10-21c9 0 10 15 10 21z"/>
  <path d="m132 72c0-11-3-29-19-29s-19 17-19 29c0 11 3 28 19 28s19-17 19-28zm-9 0c0 7 0 21-10 21-9 0-10-14-10-21s0-21 10-21c9 0 10 15 10 21z"/>
  <path d="m175 83c0-5-3-11-9-13 5-2 8-6 8-12 0-10-9-15-19-15-5 0-10 1-15 2v8c5-1 9-3 14-3s10 2 10 8c0 5-4 7-9 7h-7v7h7c6 0 11 2 11 9 0 8-5 10-12 10-6 0-10-1-14-4v9c5 1 9 3 15 3 12 0 22-5 22-17z"/>
  <path d="m220 75v-10h-9v10h9zm0 24v-10h-9v10h9z"/>
  <path d="m296 84c0-6-3-11-9-14 4-2 7-6 7-11 0-10-8-14-18-14h-18v55h20c11 0 19-4 19-16zm-12-24c0 5-3 7-8 7h-9v-15h9c5 0 9 2 9 7zm2 24c0 7-4 9-10 9h-10v-18h10c6 0 10 2 10 9z"/>
  <path d="m313 106v-42h-8v42c0 3 0 5-1 5l-2 2 3 6c2 0 4-2 6-3 1-2 3-5 3-10zm-4-61c-2 0-4 2-4 4s2 4 4 4 4-2 4-4-2-4-4-4z"/>
  <path d="m361 93c-1 1-1 1-3 1-1 0-2 0-2-2v-15c0-8-6-13-16-13-4 0-9 1-13 4v7c4-3 7-4 13-4 4 0 8 2 8 6v1c-2 0-5-1-8-1-9 0-16 4-16 12 0 7 5 12 13 12 4 0 8-1 11-4 0 2 2 4 6 4s8-5 8-8zm-14-9c0 6-2 10-9 10-3 0-6-1-6-5s1-5 7-6c3 0 5 0 7 1z"/>
  <path d="m390 74 3-8c-1-1-5-2-8-2s-5 1-7 4v-3h-9v36h9v-23c0-4 2-6 5-6 2 0 4 1 7 3z"/>
  <path d="m433 100v-21c0-9-4-15-14-15-4 0-8 1-11 4v-3h-9v36h9v-20c0-6 4-9 9-9s7 3 7 8v21h9z"/>
  <path d="m478 83v-3c0-10-6-17-17-17-12 0-18 9-18 19 0 11 7 18 19 18 5 0 10-1 15-3v-7c-6 3-7 3-15 3-6 0-10-5-10-10h26zm-9-6h-17c1-4 3-7 8-7s8 2 9 7z"/>
  <path d="m550 84c0-10-6-14-16-17l-4-1c-5-1-9-2-9-7 0-6 5-8 11-8s9 1 15 4v-8c-4-2-11-3-16-3-11 0-19 5-19 16 0 10 6 13 16 15l4 1c5 1 9 3 9 9s-6 8-11 8c-6 0-12-2-17-5v9c6 2 11 3 17 3 12 0 21-4 21-16z"/>
  <path d="m580 99v-7c-2 1-5 1-7 1h-1c-4 0-5-1-5-5v-19h10v-6h-10v-10h-5l-3 10h-4v6h4v19c0 9 4 12 14 12 2 0 5 0 7-1z"/>
  <path d="m609 74 3-8c-1-1-5-2-8-2s-5 1-7 4v-3h-9v36h9v-23c0-4 2-6 5-6 2 0 4 1 7 3z"/>
  <path d="m653 82c0-9-6-19-18-19s-18 8-19 19c0 10 7 19 19 19s18-9 18-19zm-9 0c0 6-3 11-9 11-7 0-9-7-9-12 0-6 3-11 9-11s9 5 9 11z"/>
  <path d="m696 100v-36h-9v20c0 5-3 9-9 9-5 0-7-3-7-8v-21h-9v21c0 9 4 15 14 15 4 0 8-2 10-5v4h9z"/>
  <path d="m737 89c0-7-6-10-13-11h-2c-3 0-7-1-7-4s4-4 7-4c6 0 6 0 12 3v-7c-4-1-8-2-13-2-8 0-16 3-16 11 0 7 5 9 12 11h2c3 1 7 1 7 4s-4 4-7 4c-7 0-8-1-14-3v8c4 1 10 2 14 2 8 0 17-3 17-11z"/>
  <path d="m769 99v-7c-2 1-5 1-7 1h-1c-4 0-5-1-5-5v-19h10v-6h-10v-10h-5l-3 10h-4v6h4v19c0 9 4 12 14 12 2 0 5 0 7-1z"/>
  <path d="m798 74 3-8c-1-1-5-2-8-2s-5 1-7 4v-3h-9v36h9v-23c0-4 2-6 5-6 2 0 4 1 7 3z"/>
  <path d="m841 100v-36h-9v20c0 5-3 9-9 9-5 0-7-3-7-8v-21h-9v21c0 9 4 15 14 15 4 0 8-2 10-5v4h9z"/>
  <path d="m852 119h8v-19c2 0 4 1 7 1 13 0 20-7 20-19 0-11-7-19-20-19-5 0-12 1-16 2v54zm8-26v-22c2 0 3-1 6-1 7 0 11 4 11 12 0 7-4 12-11 12-3 0-4 0-6-1z"/>
  <path d="m5 189h8v-19c2 0 4 1 7 1 13 0 20-7 20-19 0-11-7-19-20-19-5 0-12 1-16 2v54zm9-26v-22c2 0 3-1 6-1 7 0 11 4 11 12 0 7-4 12-11 12-2-1-4-1-6-1z"/>
  <path d="m72 144 3-8c-1-1-5-2-8-2s-5 1-7 4v-3h-9v36h9v-23c0-4 2-6 5-6 2 0 4 1 7 3z"/>
  <path d="m109 117h-10l-11 14h8l13-14zm5 36v-3c0-10-6-17-17-17-12 0-18 9-18 19 0 11 7 18 19 18 5 0 10-1 15-3v-7c-6 3-7 3-15 3-6 0-10-5-10-10h26zm-9-6h-17c1-4 3-7 8-7s8 2 9 7z"/>
  <path d="m153 159c0-7-6-10-13-11h-2c-3 0-7-1-7-4s4-4 7-4c6 0 6 0 12 3v-7c-4-1-8-2-13-2-8 0-16 3-16 11 0 7 5 9 12 11h2c3 1 7 1 7 4s-4 4-7 4c-7 0-8-1-14-3v8c4 1 10 2 14 2 8 0 17-3 17-11z"/>
  <path d="m196 153v-3c0-10-6-17-17-17-12 0-18 9-18 19 0 11 7 18 19 18 5 0 10-1 15-3v-7c-6 3-7 3-15 3-6 0-10-5-10-10h26zm-9-6h-17c1-4 3-7 8-7s8 2 9 7z"/>
  <path d="m239 170v-21c0-9-4-15-14-15-4 0-8 1-11 4v-3h-9v36h9v-20c0-6 4-9 9-9s7 3 7 8v21h9z"/>
  <path d="m273 169v-7c-2 1-5 1-7 1h-1c-4 0-5-1-5-5v-19h10v-6h-10v-10h-5l-3 10h-4v6h4v19c0 9 4 12 14 12 2 0 5 0 7-1z"/>
  <path d="m312 153v-3c0-10-6-17-17-17-12 0-18 9-18 19 0 11 7 18 19 18 5 0 10-1 15-3v-7c-6 3-7 3-15 3-6 0-10-5-10-10h26zm-9-6h-17c1-4 3-7 8-7s8 2 9 7z"/>
  <path d="m356 170v-55h-8v55h8z"/>
  <path d="m401 153v-3c0-10-6-17-17-17-12 0-18 9-18 19 0 11 7 18 19 18 5 0 10-1 15-3v-7c-6 3-7 3-15 3-6 0-10-5-10-10h26zm-9-6h-17c1-4 3-7 8-7s8 2 9 7z"/>
  <path d="m440 159c0-7-6-10-13-11h-2c-3 0-7-1-7-4s4-4 7-4c6 0 6 0 12 3v-7c-4-1-8-2-13-2-8 0-16 3-16 11 0 7 5 9 12 11h2c3 1 7 1 7 4s-4 4-7 4c-7 0-8-1-14-3v8c4 1 10 2 14 2 8 0 17-3 17-11z"/>
  <path d="m517 165v-9c-5 5-10 7-17 7-12 0-17-9-17-21s4-21 17-21c7 0 12 2 17 7v-9c-5-3-11-5-17-5-18 0-27 13-27 29s8 28 27 28c6 0 13-2 17-5z"/>
  <path d="m561 152c0-9-6-19-18-19s-18 8-19 19c0 10 7 19 19 19s18-9 18-19zm-9 0c0 6-3 11-9 11-7 0-9-7-9-12 0-6 3-11 9-11s9 5 9 11z"/>
  <path d="m604 170v-21c0-9-4-15-14-15-4 0-8 1-11 4v-3h-9v36h9v-20c0-6 4-9 9-9s7 3 7 8v21h9z"/>
  <path id="c" d="m646 168v-7c-5 2-6 3-12 3-7 0-11-4-11-12 0-7 4-12 11-12 5 0 7 1 12 3v-7c-4-1-7-2-12-2-13 0-20 7-20 19 0 11 7 19 20 19 4 0 9-1 12-2z"/>
  <path d="m689 153v-3c0-10-6-17-17-17-12 0-18 9-18 19 0 11 7 18 19 18 5 0 10-1 15-3v-7c-6 3-7 3-15 3-6 0-10-5-10-10h26zm-9-6h-17c1-4 3-7 8-7s8 2 9 7z"/>
  <path d="m698 189h8v-19c2 0 4 1 7 1 13 0 20-7 20-19 0-11-7-19-20-19-5 0-12 1-16 2v54zm8-26v-22c2 0 3-1 6-1 7 0 11 4 11 12 0 7-4 12-11 12-3 0-4 0-6-1z"/>
  <path d="m765 169v-7c-2 1-5 1-7 1h-1c-4 0-5-1-5-5v-19h10v-6h-10v-10h-5l-3 10h-4v6h4v19c0 9 4 12 14 12 2 0 5 0 7-1z"/>
  <path d="m803 159c0-7-6-10-13-11h-2c-3 0-7-1-7-4s4-4 7-4c6 0 6 0 12 3v-7c-4-1-8-2-13-2-8 0-16 3-16 11 0 7 5 9 12 11h2c3 1 7 1 7 4s-4 4-7 4c-7 0-8-1-14-3v8c4 1 10 2 14 2 8 0 17-3 17-11z"/>
  <path d="m874 163c-1 1-1 1-3 1-1 0-2 0-2-2v-15c0-8-6-13-16-13-4 0-9 1-13 4v7c4-3 7-4 13-4 4 0 8 2 8 6v1c-2 0-5-1-8-1-9 0-16 4-16 12 0 7 5 12 13 12 4 0 8-1 11-4 0 2 2 4 6 4s8-5 8-8zm-14-9c0 6-2 10-9 10-3 0-6-1-6-5s1-5 7-6c3 0 5 0 7 1z"/>
  <path d="m916 170v-36h-9v20c0 5-3 9-9 9-5 0-7-3-7-8v-21h-9v21c0 9 4 15 14 15 4 0 8-2 10-5v4h9z"/>
  <use transform="translate(-610,70)" xlink:href="#c"/>
  <path d="m80 222c0-9-6-19-18-19s-18 8-19 19c0 10 7 19 19 19s18-9 18-19zm-9 0c0 6-3 11-9 11-7 0-9-7-9-12 0-6 3-11 9-11s9 5 9 11z"/>
  <path d="m148 240v-21c0-8-3-15-13-15-5 0-10 2-13 6-2-4-6-6-11-6-4 0-8 2-11 5v-4h-9v36h9v-20c0-5 4-9 9-9s6 3 6 8v21h9v-20c0-5 3-9 9-9 5 0 6 3 6 8v21h9z"/>
  <path d="m167 240v-36h-8v36h8zm-4-55c-2 0-4 2-4 4s2 4 4 4 4-2 4-4-2-4-4-4z"/>
  <path d="m201 239v-7c-2 1-5 1-7 1h-1c-4 0-5-1-5-5v-19h10v-6h-10v-10h-5l-3 10h-4v6h4v19c0 9 4 12 14 12 2 0 5 0 7-1z"/>
  <path d="m236 187h-10l-11 14h8l13-14zm5 36v-3c0-10-6-17-17-17-12 0-18 9-18 19 0 11 7 18 19 18 5 0 10-1 15-3v-7c-6 3-7 3-15 3-6 0-10-5-10-10h26zm-9-6h-17c1-4 3-7 8-7s8 2 9 7z"/>
  <path d="m318 235v-9c-5 5-10 7-17 7-12 0-17-9-17-21s4-21 17-21c7 0 12 2 17 7v-9c-5-3-11-5-17-5-18 0-27 13-27 29s8 28 27 28c6 0 13-2 17-5z"/>
  <path d="m368 222v-6h-18v-17h-8v17h-19v6h19v17h8v-17h18z"/>
  <path d="m416 222v-6h-18v-17h-8v17h-19v6h19v17h8v-17h18z"/>
  <path d="m38 892c4-8 12-13 21-14 4-1 8-1 12-1 4 1 5 6 7 9 2 7 0 15-2 23-1 3-1 5-2 8 4 3 9 7 11 12 0 3-4 2-6 0l-9-6c-1 2-3 4-5 6-6 5-16 7-22 2-4-3-6-8-7-13-2-7-1-15 1-22 0-2 1-4 2-6zm15 18c0-3 4-4 6-2 3 1 5 3 8 5 3-5 4-12 5-18 1-4-2-7-5-9-3-1-7-1-11-1-3 0-5 2-7 3-2 2-4 3-5 6s-3 6-3 10c-1 5-1 11 1 17 1 3 4 6 7 6 5 0 10-2 13-5 1-3-3-5-5-7-1-1-3-2-4-5z"/>
  <path d="m90 894c6 1 2 9 3 13 0 6 0 13 2 20 3 3 8-3 10-6 5-7 8-15 10-24 0-6 8-4 6 1-1 8-3 17 0 25 1 3 3 12-3 9-2-3-4-14-4-14s-5 9-9 11c-3 3-9 6-14 3-3-4-3-9-4-14 0-7-1-15 0-22 0-1 1-2 2-2z"/>
  <path d="m134 900c6-5 14-9 22-8 7 0 12 5 12 12 0 9-3 18-10 24-8 6-22 5-28-4-5-8-2-19 4-25zm12 27c7 0 12-8 14-14 1-4 3-11-2-14-7-1-15 0-19 6-5 5-7 15 0 19 2 2 5 2 8 2z"/>
  <path d="m175 892c6-3 5 7 6 11 0 8 1 17 0 26-2 4-8 0-6-4 0-10-1-20-1-30 0-1 0-2 1-3zm-3-8c1-7 11 1 5 4-3 1-5-2-5-4z"/>
  <path d="m205 879c-3-5 4-5 8-4 2 0 3 0 2 2 0 8 0 16-3 23-1 2-1 11-5 7-1-5-1-11-2-16v-12zm1 44c-5-1-2-9 2-9 5 0 5 6 3 9-1 2-3 0-5 0z"/>
  <path d="m285 888c-3-6-12-5-17-4-9 0-5 11-5 17 2 5 11 0 16-1 2-3 5-7 7-11zm-22-11c6 0 13-2 19 0 6 0 10 6 9 12 0 6-4 11-9 15-4 3-10 5-15 6-7-1-1 10-2 14 1 4 0 15-6 11-2-7-2-14-2-22s-1-17-1-26c-8 5-5-7 0-9 2-2 5-2 8-2z"/>
  <path d="m315 924c0-2 2-3 4-4s0-3-2-3c-4-1-8-1-12 1-2 1-4 4-3 7 2 1 4 2 6 1 2 0 4-1 6-2zm12 4c0 2-2 4-4 4-1-1-2-3-2-4s0-4-1-2c-3 3-6 5-10 6-3 1-6 0-10-1-2 0-3-2-3-4 0-3 0-7 2-9 3-2 6-4 10-5 3-1 7-1 10 0 1 1 3 1 3 1 0-4 0-8-1-11 0-1-1-3-3-3-5 0-11 3-16 5-1 0-4 1-4-1s2-3 3-4c3-1 6-2 9-3 4-1 8-2 12 0 3 2 5 6 5 10 0 8 0 15 1 23z"/>
  <path d="m333 927c0-5 5-2 6 1 3 2 8 4 11 0 2-2 5-7 0-9-4-2-9-3-13-5-3-2-7-6-5-10 3-6 10-10 17-10 4-2 13 4 9 8-4-1-8-5-12-2-3 1-11 5-7 9 6 4 14 3 18 9 3 5 0 13-5 16-4 2-9 0-13 0-3 0-6-4-6-7z"/>
  <path d="m379 902c0-3 4-3 4-6 0-2 2-6 5-4 1 2 4 1 6 1 6-1 13-2 19 0 4 1 6 5 6 9 0 6-3 12-6 17-3 6-10 10-17 10h-4c1 6 3 11 3 17 0 3-3 4-5 2-2-1-2-4-2-6-3-11-3-23-5-35 0-3-4-1-4-4zm32-4c-3-1-7 0-10 0s-7 1-10 2c0 7 0 14 2 20 1 1 3 1 5 2 3 0 6-2 8-5 4-4 7-9 7-15 0-2 0-4-2-6z"/>
  <path d="m431 900c5-5 12-8 19-8 5 0 12 1 14 7 2 10-1 20-7 28-7 8-23 9-30-1-5-6-4-14 0-21 1-2 3-3 4-5zm12 27c7 0 11-7 14-13 2-5 4-15-4-15-6 0-13 1-17 6-5 4-7 12-3 18 2 3 6 4 10 4z"/>
  <path d="m472 894c6 2 1 11 3 17 0 6 0 11 2 17 4 2 7-3 10-6 5-7 9-16 10-25 0-6 8-5 6 1-1 8-3 17 0 25 1 3 4 11-2 10-4-3-4-15-4-15s-10 14-18 16c-6 1-9-5-10-10-1-9-2-18 0-28 0-1 1-2 2-2z"/>
  <path d="m537 898c5 0 4 6 0 6-6 4-12 11-14 18-1 4-1 8-3 12-6 3-5-7-6-11-1-8-1-17-1-25 0-4 6-4 5 0 0 4 2 13 2 13s9-11 15-13h1z"/>
  <path d="m599 883c-3 5-7-5-12 0-7 2-15 6-16 14-1 7-2 14 0 21 3 9 14 8 19 2 5-3 7-11 13-13 3 7-5 13-9 18-6 6-16 9-23 3-4-3-7-8-6-13 0-8-1-17 2-25 4-8 14-13 23-13 4 0 9 3 9 7z"/>
  <path d="m646 902c3 0 4 5 2 6-3 1-7 1-10 2-1 0-3 0-4 1v21h-6v-21c-4 0-8 2-13 1-2 0-2-3-1-5 1-1 3-1 5-2 3 0 5-1 8-1v-10c1-2 5-3 6 0 1 2 1 4 1 6v5c4 0 8-1 13-1z"/>
  <path d="m691 902c3 0 4 5 2 6-3 1-7 1-10 2-1 0-3 0-4 1v21h-6v-21c-4 0-8 2-13 1-2 0-2-3-1-5 1-1 3-1 5-2 3 0 5-1 8-1v-10c1-2 5-3 6 0 1 2 1 4 1 6v5c4 0 8-1 13-1z"/>
  <path d="m723 919c3-6 7-13 5-21-2-5-9-2-11 2-4 6-8 13-9 20-1 5 6 7 9 4 2-1 4-3 5-5zm-14-20c3-5 9-10 15-11 6 0 9 7 9 13 0 9-4 18-9 24-4 5-12 8-18 4-5-3-6-11-3-16l6-15z"/>
  <path d="m751 933c-6 1-9-5-8-10 3-4 6 2 7 4 5 0 12-2 14-7s0-13-6-11c-3 1-10 6-11 0 2-3 7-6 10-9 2-2 3-4 0-3-5 0-12 3-17 1-1-1-3-4 0-4 9-2 18-3 27-5 6 1 1 7-1 10-1 1-5 4-3 5 5 1 10 6 9 11 0 7-5 14-12 17-3 1-6 2-9 2z"/>
  <path d="m804 929c-2-8 10-5 8 0-1 5-8 6-8 0zm4-13c-5-3-3-11-2-16 3-4 7-7 8-13 2-6-5-13-10-8-6 1-3 13 1 10 3-2-4-3 0-6 6-4 8 7 3 10-5 4-13-2-13-8 0-7 6-12 13-13 8 0 13 10 11 17-1 6-6 10-9 15 0 4 1 8-1 12z"/>
  <path d="m67 979c0-6 5-13 2-19-1-8-10-7-15-4-9 3-12 15-12 24 1 6 4 13 10 15 8 0 13-10 15-16zm-5 18c-5 4-15 4-19-1-8-9-11-23-5-34 3-6 8-11 15-13 4-4 11-7 17-3 7 6 7 18 5 27s-4 18-11 24l-1 1h-1z"/>
  <path d="m108 997c-2 0-4-2-7-3-2 0-3-2-5-2-3-1-5-2-8-2 0 3 1 6 0 9 0 2-3 3-4 2-2-1-2-5-2-7-1-8 0-17-2-25-1-7-1-13-1-20 0-2 3-4 5-1 1 2 1 5 1 8 1 7 1 14 2 22 5-4 9-8 14-12 1-1 3-2 4-1 2 1 1 4 0 5-2 2-3 4-5 6-3 3-7 5-10 8-2 1 0 2 1 3 6 2 12 4 17 8 2 1 5 4 2 6z"/>
  <path d="m143 971c-3-4-8-6-13-5-4 1-9 6-9 9 7 0 14-1 21-3 0 0 1 0 1-1zm9 11c3 3-2 7-4 10-6 6-17 10-26 5-8-5-11-17-6-26 4-5 10-12 17-10 6 0 12 2 14 7 5 6-3 10-9 10-6 1-13 1-19 2-1 6 5 12 11 13 8 1 14-6 20-11 0 0 1-1 2-1z"/>
  <path d="m160 964c2 0 2 3 2 5v19c0 3 3 1 4 0 3-3 6-6 7-10 1-3 2-7 3-11 0-2 2-4 4-4s2 3 2 5l-3 15v7c2-1 4-2 6-1 2 2 0 4-2 5-1 0-2 1-3 1v11c0 3 0 6-1 9-1 2-4 1-6 0-3-1-5-2-6-5s-3-6-2-9c1-2 2-4 4-5 1-1 5-1 5-4 0-2 0-3-2-1-2 3-6 5-10 5s-6-4-6-8v-19c0-2 1-4 3-4zm17 46c1-3 0-6 0-9v-2c-1 2-3 4-3 7 0 2 2 3 4 4z"/>
  <path d="m273 981c4 4-3 8-5 12-5 5-15 8-22 4-5-2-8-8-8-14-1-5 1-11 5-15 4-5 11-9 18-7 5 1 11 5 11 11-1 6-7 1-7-3-4-4-11-4-15-1-4 4-8 10-7 17 1 6 9 10 14 6 6-2 8-8 14-11h1z"/>
  <path d="m309 971c-4-6-13-7-18-2-2 1-7 8 0 6 6-1 14 0 19-4zm9 11c3 6-5 10-8 13-7 5-18 5-24-1-8-7-8-21 0-28 4-5 12-7 19-5 5 1 12 7 9 13-4 4-10 4-16 5-4 0-8 0-12 1-1 9 10 16 18 12 5-2 9-7 14-10z"/>
  <path d="m358 962c0-5 6-3 5 1 1 6 1 12 2 18 1-6 4-11 8-16 2-4 9-9 13-4 4 6 3 13 4 20v16c-3 4-6-1-4-4 0-8 1-17-1-25-3-4-6 4-9 6-4 7-8 14-8 22 0 3-2 8-5 3-1-7-1-15-2-23 0-5-1-9-1-14z"/>
  <path d="m400 957c2 0 3 1 5 1 2 1 1 4 0 5-1 2-2 4-2 7 0 2-2 3-4 3s-1-2-1-4v-6c-1-2 0-5 2-7h-1e-5z"/>
  <path d="m441 971c-3-4-8-6-13-5-4 1-9 6-9 9 7 0 14-1 21-3 0 0 1 0 1-1zm9 11c3 3-2 7-4 10-6 6-17 10-26 5-8-5-11-17-6-26 4-5 10-12 17-10 6 0 12 2 14 7 5 6-3 10-9 10-6 1-13 1-19 2-1 6 5 12 11 13 8 1 14-6 20-11 0 0 1-1 2-1z"/>
  <path d="m455 994c0-5 5-2 6 1 3 2 8 4 11 0 2-2 5-7 0-9-4-2-9-3-13-5-3-2-7-6-5-10 3-6 10-10 17-10 4-2 13 4 9 8-4-1-8-5-12-2-3 1-11 5-7 9 6 4 14 3 18 9 3 5 0 13-5 16-4 2-9 0-13 0-3 0-6-4-6-7z"/>
  <path d="m498 965c-4 0-8 1-12 1-4-1-1-5 2-5 3-1 7-1 10-2 1-2 0-5 0-7 0-4-1-7 0-11 0-2 4-3 5-1 1 6 1 12 2 18 4 0 7-2 11 0 3 1 0 5-2 5-3 1-6 1-9 2 0 11 1 21 3 32 0 3 1 5 1 8-1 2-5 2-7 0-2-4-1-8-1-13-1-8-2-17-3-26z"/>
  <path d="m580 968c-10 0-20 9-19 20-1 7 6 7 9 3 5-4 8-10 9-16 0-2 3-5 1-6zm7 56c-7 0-7-8-8-13-1-6-1-12-2-19-5 3-11 9-17 6-5-4-5-11-3-17 3-11 15-20 27-17 7 5 0 15 1 22v4"/>
  <path d="m598 961c6 2 1 11 3 17 0 6 0 11 2 17 4 2 7-3 10-6 5-7 9-16 10-25 0-6 8-5 6 1-1 8-3 17 0 25 1 3 4 11-2 10-4-3-3-9-6-13-4 6-8 12-16 14-6 1-9-5-10-10-1-9-2-18 0-28 0-1 1-2 2-2z"/>
  <path d="m647 949c2 0 5 0 6 2 1 3-1 5-2 8-1 2 0 6-2 8-2 1-6 0-5-3 0-1 2-3 2-5-1-3-2-6 0-9 0-1 1-1 2-1z"/>
  <path d="m667 961c6 1 2 9 3 13 0 7 0 14 2 20 4 2 8-4 11-7 5-7 8-15 9-23 0-6 8-5 6 1-1 8-3 17 0 25 1 3 4 12-2 10-3-3-3-14-3-14s-10 14-17 16c-6 1-9-4-9-10-1-9-2-18-1-28 0-1 1-3 2-3z"/>
  <path d="m708 962c-1-5 6-4 5 0 1 6 1 12 2 19 1-5 3-10 7-15 3-3 6-9 11-7 5 3 6 10 6 16 0 7 1 14 0 21 0 4-7 2-5-2 0-9 1-18-1-27-3-5-6 3-8 5-4 7-8 14-8 23 0 3-2 8-4 3-1-5-1-11-2-17 0-7-1-14-2-20z"/>
  <path d="m775 971c-3-3-7-6-12-5-5 0-8 5-11 9 7 0 14-1 21-2 0 0 1 0 1-1zm9 11c3 3-3 8-5 11-6 6-17 9-25 3-8-5-10-16-6-24 3-5 8-11 15-11 6 0 12 0 16 5 4 3 3 10-2 11-8 2-16 3-24 3 0 4 1 7 4 10 4 4 11 4 15 1 5-2 8-7 13-9z"/>
  <path d="m64 1033c0-2 1-5 4-6 2 0 3 2 3 4-1 5-3 10-5 16s-4 12-8 17c-1 2-3 4-5 4-3 0-4-3-5-5-2-5-4-11-5-16-2-6-4-11-5-17-1-2 3-3 4-1 2 3 4 7 5 11 2 7 4 14 7 21 3-5 6-10 7-16 1-4 3-8 4-12v-1z"/>
  <path d="m103 1038c-3-4-8-6-13-5-4 1-9 6-9 9 7 0 14-1 21-3 0 0 1 0 1-1zm9 11c3 3-2 7-4 10-6 6-17 10-26 5-8-5-11-17-6-26 4-5 10-12 17-10 6 0 12 2 14 7 5 6-3 10-9 10-6 1-13 1-19 2-1 6 5 12 11 13 8 1 14-6 20-11 0 0 1-1 2-1z"/>
  <path d="m143 1032c5 0 4 6 0 6-6 4-12 11-14 18-1 4-1 8-3 12-6 3-5-7-6-11-1-8-1-17-1-25 0-4 6-4 5 0 0 4 1 11 2 13 3-6 9-11 15-13h1v-1e-4z"/>
  <path d="m153 1061c0-5 5-2 6 1 3 2 8 4 11 0 2-2 5-7 0-9-4-2-9-3-13-5-3-2-7-6-5-10 3-6 10-10 17-10 4-2 13 4 9 8-4-1-8-5-12-2-3 1-11 5-7 9 6 4 14 3 18 9 3 5 0 13-5 16-4 2-9 0-13 0-3 0-6-4-6-7z"/>
  <path d="m189 1032c6-3 5 7 6 11 0 9 1 17 0 26-3 4-8 0-7-4 0-10-1-20-1-30 0-1 0-2 1-3zm-3-6c1-7 11 0 5 4-3 1-5-1-5-4z"/>
  <path d="m208 1034c5-5 12-8 19-8 5 0 12 1 14 7 2 10-1 20-7 28-7 8-23 9-30-1-5-6-4-14 0-21 1-2 3-3 4-5zm12 27c7 0 11-7 14-13 2-5 4-15-4-15-6 0-13 1-17 6-5 4-7 12-3 18 2 3 6 4 10 4z"/>
  <path d="m250 1029c0-6 6-2 5 2 1 5 1 14 2 16 1-6 4-11 8-15 2-4 9-9 13-3s3 13 3 20v15c-2 5-6 0-5-4 0-8 1-17-1-26-3-5-6 4-9 6-4 6-7 14-8 22 0 3-2 8-4 3-1-6-1-13-2-19 0-6-1-12-1-18z"/>
  <path d="m355 1051v13c0 3-4 3-4 0 0-8 0-16-1-24 0-3 0-5-1-8-2-1-3 2-5 4-4 8-6 17-7 26 0 2 0 5-3 5-2-1-1-4-2-6 0-6 0-13-2-19-1-3-3-6-5-8-2 0-3 4-4 5-1 3-4 7-3 11 0 2-1 4-1 7v11c0 2-3 4-4 1s-1-6-1-10c0-7 0-15-1-22 0-3-1-7 0-10s4 1 4 3 1 5 1 7l3-6c1-2 2-4 5-4 4 0 7 2 9 5s2 7 3 10c2-5 4-10 9-14 2-2 6-2 8 0 3 3 3 7 3 11v10z"/>
  <path d="m366 1032c6-3 5 7 6 11 0 8 1 17 0 26-2 4-8 0-6-4 0-10-1-20-1-30 0-1 0-2 1-3zm-3-8c1-7 11 1 5 4-3 1-5-2-5-4z"/>
  <path d="m383 1029c0-5 6-3 5 1 1 6 1 12 2 18 1-6 4-11 8-16 2-4 9-9 13-4 4 6 3 13 4 20v16c-3 4-6-1-4-4 0-8 1-17-1-25-3-4-6 4-9 6-4 7-8 14-8 22 0 3-2 8-5 3-1-7-1-15-2-23 0-5-1-9-1-14z"/>
  <path d="m449 1038c-3-5-10-7-16-4-2 2-8 6-6 8 7 0 13-1 20-3 0 0 1 0 1-1zm9 11c3 3-3 8-5 11-7 6-17 9-25 3-9-6-11-21-3-29 4-4 9-8 15-7 5 0 11 2 13 7 5 7-4 10-10 11-6 2-14 0-18 3 0 6 6 12 12 12 8 0 13-7 19-11z"/>
  <path d="m466 1028c6 1 2 9 3 13 0 6 0 13 2 20 3 3 8-3 10-6 5-7 8-15 10-24 0-6 8-4 6 1-1 8-3 17 0 25 1 3 3 12-3 9-2-3-4-14-4-14s-5 9-9 11c-3 3-9 6-14 3-3-4-3-9-4-14 0-7-1-15 0-22 0-1 1-2 2-2z"/>
  <path d="m530 1032c5 0 4 5 0 6-6 3-10 9-13 16-2 4-1 10-4 14-6 2-4-7-5-11-1-8-1-17-1-25 0-5 7-3 5 1 0 3 2 12 2 12s9-11 15-13z"/>
  <path d="m568 1038c-3-5-10-7-16-4-2 2-8 6-6 8 7 0 13-1 20-3 0 0 1 0 1-1zm9 11c3 3-3 8-5 11-7 6-17 9-25 3-9-6-11-21-3-29 4-4 9-8 15-7 5 0 11 2 13 7 5 7-4 10-10 11-6 2-14 0-18 3 0 6 6 12 12 12 8 0 13-7 19-11z"/>
  <path d="m592 1059c0 3-4 9-7 5-2-2-1-8 2-8 2 0 3 1 5 2zm20 1c0 4-5 9-8 4-2-4 3-9 7-5zm-10 0c0 4-5 9-8 4-2-4 3-9 6-5z"/>
  <path d="m1324 100v-7h-24l18-19c3-4 6-8 6-14 0-10-8-16-19-16-5 0-10 2-16 4v9c5-3 10-5 16-5 5 0 9 3 9 9 0 4-3 9-6 11-1 1-18 19-20 21v7h35z"/>
  <path d="m1370 72c0-11-3-29-19-29s-19 17-19 29c0 11 3 28 19 28s19-17 19-28zm-9 0c0 7 0 21-10 21-9 0-10-14-10-21s0-21 10-21c9 0 10 15 10 21z"/>
  <path d="m1393 100v-55h-8l-8 7v8l8-6v47h8z"/>
  <path d="m1418 100v-55h-8l-8 7v8l8-6v47h8z"/>
  <path d="m998 892c4-7 11-12 18-14 4-1 9-2 14-1 3 1 5 5 7 8 2 6 1 13 0 19-1 4-2 9-4 13 4 3 8 6 11 11 2 3-2 4-4 2-3-1-5-4-9-6-1 0-2-2-2-1-4 8-14 12-23 9-4-1-7-4-8-7-3-5-5-12-4-18 0-5 2-11 4-16zm15 18c0-2 3-4 5-2 3 1 6 3 9 5 2-5 3-10 5-15 0-3 1-6-1-8s-4-4-8-4h-10c-4 2-7 5-9 9-1 2-2 5-2 8-1 6-2 12 0 18 1 3 3 7 7 8 5 1 10-1 14-5 2-2-2-4-3-6-2-2-5-3-7-6z"/>
  <path d="m1050 894c6 1 2 9 3 13 0 7 0 14 2 20 4 2 8-4 11-7 5-7 8-15 9-23 0-6 8-5 6 1-1 8-3 17 0 25 1 3 4 12-2 10-3-3-3-11-5-12-4 6-8 12-15 14-6 1-9-4-9-10-1-9-2-18-1-28 0-1 1-3 2-3z"/>
  <path d="m1094 900c6-6 14-9 22-8 7 0 13 5 12 13 0 9-3 18-10 24-8 6-23 5-28-5-4-8-2-18 5-24zm12 27c8 0 12-8 14-15 3-5 1-15-7-13-5 0-11 1-14 6-5 4-8 12-4 17 2 3 7 5 11 5z"/>
  <path d="m1135 892c7-3 5 8 6 12 0 8 1 17 0 26-6 4-7-4-7-9 0-9-1-18-1-27 0-1 0-2 1-2zm-1-16c1-6 11 0 6 4-2 2-6-1-6-4z"/>
  <path d="m1169 875c-2-3 1-6 4-4h6c0 7-3 40-4 47 0 4-5 2-4-1 0-5-1-35-1-40v-2zm1 56c-4-1-3-6 0-8s9 1 7 5c-1 4-3 5-7 3z"/>
  <path d="m1253 886c0-3-3-4-6-4s-5-1-8 0c-2 0-5 0-8 2-1 2 0 5 0 8s0 7 1 10c4 0 8-1 12-2 2-1 5-2 5-5 1-3 4-5 5-8zm-22-11c5 0 10-2 15-1 4 0 8 1 11 4 3 4 1 10 0 14-1 2-2 2-3 4-2 3-6 6-9 8-2 0-5 2-7 3h-6c0 7 1 14 1 21 0 2-1 6-4 6-3-1-2-4-3-7-1-12-2-24-2-36v-5c-1 1-4 2-5 0-1-3 1-5 3-7s4-5 7-5h2z"/>
  <path d="m1275 924c1-2 8-5 2-7-5-1-13 0-15 5s5 5 9 3c1 0 3-1 4-2zm12 4c-1 6-7 3-6-2 0-3-4 3-7 3-5 3-11 3-16 0-3-3-3-9 0-12 4-4 10-7 16-7 3-1 9 6 8 0 0-4 0-11-4-12-6 0-12 3-18 5-6 0 0-7 4-7 6-2 12-5 18-2 5 3 6 9 6 14 0 6 0 13 1 20z"/>
  <path d="m1293 927c1-6 5-1 7 1 3 3 9 2 11-2 4-4-1-8-5-8-4-2-9-2-13-6-4-3 0-9 2-12 3-4 8-5 14-5 3 0 6 0 8 2 3 2 2 8-2 5-3-4-8-2-12 0-4 1-10 7-2 9 5 2 12 3 16 7 3 6-1 15-8 17-4 0-9 0-13-2-2-1-3-4-3-6z"/>
  <path d="m1339 902c0-3 4-3 4-6 0-2 2-6 5-4 1 2 4 1 6 1 6-1 13-2 19 0 4 1 6 5 6 9 0 6-3 12-6 17-3 6-10 10-17 10h-4c1 6 3 11 3 17 0 3-3 4-5 2-2-1-2-4-2-6-3-11-3-23-5-35 0-3-4-1-4-4zm32-4c-3-1-7 0-10 0s-7 1-10 2c0 7 0 14 2 20 1 1 3 1 5 2 3 0 6-2 8-5 4-4 7-9 7-15 0-2 0-4-2-6z"/>
  <path d="m1391 900c6-6 14-9 22-8 7 0 13 5 12 13 0 9-3 18-10 24-8 6-23 5-28-5-4-8-2-18 5-24zm12 27c8 0 12-8 14-15 3-5 1-15-7-13-5 0-11 1-14 6-5 4-8 12-4 17 2 3 7 5 11 5z"/>
  <path d="m1432 894c6 1 2 9 3 13 0 7 0 14 2 20 4 2 8-4 11-7 5-7 8-15 9-23 0-6 8-5 6 1-1 8-3 17 0 25 1 3 4 12-2 10-3-3-3-11-5-12-4 6-8 12-15 14-6 1-9-4-9-10-1-9-2-18-1-28 0-1 1-3 2-3z"/>
  <path d="m1497 898c4 0 5 5 0 5-6 3-11 9-14 16-2 5-1 10-4 14-5 2-5-5-5-9-1-9-2-19-1-28 1-5 6-2 5 2 0 4 1 8 2 12 3-6 8-11 15-13h2z"/>
  <path d="m1559 883c-3 6-7-5-11-1-7 2-15 6-16 14-1 7-2 14 0 21 2 5 8 9 13 6 7-3 12-9 16-15 6-4 4 6 1 8-5 8-14 17-25 14-7-2-13-9-12-17 0-8-1-17 2-25 5-8 14-13 23-13 4 0 9 3 9 7z"/>
  <path d="m1606 902c6 1 2 9-3 7-3 0-7 0-10 2v20h-6v-21c-4 0-9 2-14 1-3-5 4-7 7-7 2 0 4-1 6-1 0-4-1-8 1-11 5-4 7 3 7 7 0 1 0 4 1 4 4 0 8-1 12-1z"/>
  <path d="m1651 902c6 1 2 9-3 7-3 0-7 0-10 2v20h-6v-21c-4 0-9 2-14 1-3-5 4-7 7-7 2 0 4-1 6-1 0-4-1-8 1-11 5-4 7 3 7 7 0 1 0 4 1 4 4 0 8-1 12-1z"/>
  <path d="m1675 932c-4-1-3-7-3-11v-22c-3 3-5 8-9 8-4-3 1-6 3-9l6-9c5-3 5 5 5 8 0 11 1 22 1 33 0 1-1 2-2 2z"/>
  <path d="m1696 932c-4-1-3-7-3-11v-22c-3 3-5 8-9 8-4-3 1-6 3-9l6-9c5-3 5 5 5 8 0 11 1 22 1 33 0 1-1 2-2 2z"/>
  <path d="m1731 929c-2-8 10-5 8 0-1 5-8 6-8 0zm4-13c-5-3-3-11-2-16 3-4 7-7 8-13 2-6-5-13-10-8-6 1-3 13 1 10 3-2-4-3 0-6 6-4 8 7 3 10-5 4-13-2-13-8 0-7 6-12 13-13 8 0 13 10 11 17-1 6-6 10-9 15 0 4 1 8-1 12z"/>
  <path d="m1024 989c4-4 5-11 2-16-4-4-12 0-16 2 0 5 0 11 1 16 4 2 10 2 12-2zm1-38c-4-3-10-1-15 0-3 4 0 10 0 15 0 8 7-2 10-4 2-3 4-6 6-10zm-25 2c-7 0-4-6 1-6 7-3 16-3 24-3 8 1 6 12 2 16-2 3-4 4 0 5 6 2 8 9 7 15-1 7-6 15-13 17-5-2-14 4-15-4-1-10-1-20-3-30 0-3 0-7-1-10h-2z"/>
  <path d="m1045 967c7-7 17-10 27-7 5 2 8 8 7 13 0 10-5 21-15 25-9 4-22 0-25-9-3-7 0-17 6-22zm12 27c8 0 12-8 14-15 2-4 2-11-3-13-6 0-12 0-17 4s-9 11-6 18c2 4 7 6 11 6z"/>
  <path d="m1087 962c-1-5 6-4 5 0 1 6 1 12 2 19 1-5 3-10 7-15 3-3 6-9 11-7 5 3 6 10 6 16 0 7 1 14 0 21 0 4-7 2-5-2 0-9 1-18-1-27-3-5-6 3-8 5-4 7-8 14-8 23 0 3-2 8-4 3-1-5-1-11-2-17 0-7-1-14-2-20z"/>
  <path d="m1173 979c1-7 5-15 1-22-4-6-13-3-18 1-10 8-11 27 0 35 8 4 15-5 17-12v-1zm-5 18c-7 5-19 2-23-5-8-12-6-30 6-38 7-3 13-10 21-8 8 3 10 14 9 23-1 10-4 21-12 29 0 0-1 0-2 1z"/>
  <path d="m1214 997c-5-1-9-5-15-7-2 0-7-3-5 0 1 4 0 13-5 7-2-8-1-18-2-26s-2-17-2-26c5-6 6 6 6 10 0 6 1 12 2 18 5-4 10-9 16-14 5-2 4 5 0 7-4 6-10 9-15 13 0 2 4 2 5 3 6 2 12 4 16 9 1 1 0 3-2 3z"/>
  <path d="m1249 971c-3-3-7-6-12-5-5 0-8 5-11 9 7 0 14-1 21-2 0 0 1 0 1-1zm9 11c3 3-3 8-5 11-6 6-17 9-25 3-8-5-10-16-6-24 3-5 8-11 15-11 6 0 12 0 16 5 4 3 3 10-2 11-8 2-16 3-24 3 0 4 1 7 4 10 4 4 11 4 15 1 5-2 8-7 13-9z"/>
  <path d="m1266 964q1 0 2 1 0 1 0 4t0 6 0 5q0 9 1 9t4-3 4-6 2-7 1-6 1-4 3-2q1 0 2 1t1 2-1 7-1 12q0 2 0 4v1h1q1-1 3-1 1 0 2 0t1 1q0 2-3 4l-2 1v7q0 13-1 13-1 1-2 1t-5-1q-2-1-3-2t-2-3q-2-4-2-7 0-1 0-2 0 0 1-2 1-1 1-2 1-1 2-2t2-1 2-1q0-2-1-4 0 0-1 1t-2 2-3 2-4 1q-3 0-6-4-1-2-1-4t0-8q0-9 0-12 0-4 3-4zm17 46q0-1 0-2t0-3 0-3 0-1v-1 1q-3 4-3 6 0 1 1 2t2 2z"/>
  <path d="m1349 967c5-5 12-8 19-8 5 0 13 1 14 7 2 10-1 21-8 28-7 6-19 8-26 2-4-4-7-9-6-15 0-5 3-10 7-14zm12 27c7 0 11-8 14-14 1-5 4-14-4-14-5 0-10 0-14 3-5 4-10 9-8 16 1 6 7 9 12 9z"/>
  <path d="m1385 962c0-6 7-1 5 3 0 5 1 11 2 16 2-7 5-13 10-18 3-5 11-5 13 1 2 7 1 14 2 21 0 4 0 9-1 12-6 2-4-6-4-9 0-7 0-14-1-21-4-5-7 5-10 7-4 7-7 14-7 23 0 5-6 2-5-2-1-8-1-17-2-26v-8z"/>
  <path d="m1465 991c1-2 8-5 2-7-5-1-13 0-15 5s5 5 9 3c1 0 3-1 4-2zm12 4c-1 6-7 3-6-2 0-3-4 3-7 3-5 3-11 3-16 0-3-3-3-9 0-12 4-4 10-7 16-7 3-1 9 6 8 0 0-4 0-11-4-12-6 0-12 3-18 5-6 0 0-7 4-7 6-2 12-5 18-2 5 3 6 9 6 14 0 6 0 13 1 20z"/>
  <path d="m1508 965c4 0 5 5 0 5-6 3-11 9-14 16-2 5-1 10-4 14-5 2-5-5-5-9-1-9-2-19-1-28 1-5 6-2 5 2 0 4 1 8 2 12 3-6 8-11 15-13h2z"/>
  <path d="m1544 965c4 0 5 5 0 5-6 3-11 9-14 16-2 5-1 10-4 14-5 2-5-5-5-9-1-9-2-19-1-28 1-5 6-2 5 2 0 4 1 8 2 12 3-6 8-11 15-13h2z"/>
  <path d="m1580 958c-5 0-8-11-12-7-1 3-8 12-9 5 2-5 6-10 10-14 5 1 9 7 12 11 1 1 1 4-1 5zm0 12c-3-5-11-7-16-3-3 2-10 9-1 7 6-1 13 0 18-4zm9 11c3 4-4 10-8 13-7 5-18 6-25 0-8-7-8-21 0-28 4-4 10-7 16-6 6 0 13 5 14 11-1 7-11 6-16 7-4 0-9 1-13 1-1 7 5 12 11 13 8 0 13-7 20-11h1z"/>
  <path d="m1607 961c-4 0-8 1-12 1-4-1-1-5 2-5 3-1 7-1 10-2 1-2 0-5 0-7 0-4-1-7 0-11 0-2 4-3 5-1 1 6 1 12 2 18 4 0 7-2 11 0 3 1 0 5-2 5-3 1-6 1-9 2 0 11 1 21 3 32 0 3 1 5 1 8-1 2-5 2-7 0-2-4-1-8-1-13-1-8-2-17-3-26z"/>
  <path d="m1660 971c-3-3-7-6-12-5-5 0-8 5-11 9 7 0 14-1 21-2 0 0 1 0 1-1zm9 11c3 3-3 8-5 11-6 6-17 9-25 3-8-5-10-16-6-24 3-5 8-11 15-11 6 0 12 0 16 5 4 3 3 10-2 11-8 2-16 3-24 3 0 4 1 7 4 10 4 4 11 4 15 1 5-2 8-7 13-9z"/>
  <path d="m1020 1037c-7-6-14 3-18 9-3 8 3 16 11 14 5-3 15-7 15-14-2-3-5-6-8-8zm10 18c-6 7-17 14-27 9-9-3-10-15-6-23 3-7 11-14 19-13 5 1 11 7 14 8 1-12 0-24 1-36 1-3 8-4 6 1 0 20-1 41-3e-4 62 3 6-5 11-6 3-1-3 0-7-1-10z"/>
  <path d="m1072 1038c-3-3-7-6-12-5-5 0-8 5-11 9 7 0 14-1 21-2 0 0 1 0 1-1zm9 11c3 3-3 8-5 11-6 6-17 9-25 3-8-5-10-16-6-24 3-5 8-11 15-11 6 0 12 0 16 5 4 3 3 10-2 11-8 2-16 3-24 3 0 4 1 7 4 10 4 4 11 4 15 1 5-2 8-7 13-9z"/>
  <path d="m1133 1030c4 0 5 5 0 5-6 3-11 9-14 16-2 5-1 10-4 14-5 2-5-5-5-9-1-9-2-19-1-28 1-5 6-2 5 2 0 4 1 8 2 12 3-6 8-11 15-13h2z"/>
  <path d="m1165 1038c-3-3-7-6-12-5-5 0-8 5-11 9 7 0 14-1 21-2 0 0 1 0 1-1zm9 11c3 3-3 8-5 11-6 6-17 9-25 3-8-5-10-16-6-24 3-5 8-11 15-11 6 0 12 0 16 5 4 3 3 10-2 11-8 2-16 3-24 3 0 4 1 7 4 10 4 4 11 4 15 1 5-2 8-7 13-9z"/>
  <path d="m1177 1036q0-1 2-3t2-2q0-1 1-3t3-2q1 0 2 1t1 1 5-1 8-1 7 1q8 2 8 9 0 6-4 15-3 6-8 9-4 3-10 3-1 0-2 0h-2v2q3 11 3 15 0 3-3 3-2 0-3-1t-3-10q-1-8-3-21 0-4-1-7 0-2 0-4 0-1 0-1-3 0-3-2zm32-4q-1 0-4 0-7 0-12 1l-4 1v4q0 5 1 11t1 6q1 0 3 1 1 1 2 1 2 0 6-3t6-8 2-9q0-1 0-2t-1-2 0-1z"/>
  <path d="m1229 1034c5-5 12-8 19-8 5 0 13 1 14 7 2 10-1 21-8 28-7 6-19 8-26 2-4-4-7-9-6-15 0-5 3-10 7-14zm12 27c7 0 11-8 14-14 1-5 4-14-4-14-5 0-10 0-14 3-5 4-10 9-8 16 1 6 7 9 12 9z"/>
  <path d="m1270 1028c6 1 2 9 3 13 0 7 0 14 2 20 4 2 8-4 11-7 5-7 8-15 9-23 0-6 8-5 6 1-1 8-3 17 0 25 1 3 4 12-2 10-3-3-3-11-5-12-4 6-8 12-15 14-6 1-9-4-9-10-1-9-2-18-1-28 0-1 1-3 2-3z"/>
  <path d="m1309 1061c1-6 5-1 7 1 3 3 9 2 11-2 4-4-1-8-5-8-4-2-9-2-13-6-4-3 0-9 2-12 3-4 8-5 14-5 3 0 6 0 8 2 3 2 2 8-2 5-3-4-8-2-12 0-4 1-10 7-2 9 5 2 12 3 16 7 3 6-1 15-8 17-4 0-9 0-13-2-2-1-3-4-3-6z"/>
  <path d="m1342 1061c1-6 5-1 7 1 3 3 9 2 11-2 4-4-1-8-5-8-4-2-9-2-13-6-4-3 0-9 2-12 3-4 8-5 14-5 3 0 6 0 8 2 3 2 2 8-2 5-3-4-8-2-12 0-4 1-10 7-2 9 5 2 12 3 16 7 3 6-1 15-8 17-4 0-9 0-13-2-2-1-3-4-3-6z"/>
  <path d="m1403 1038c-3-3-7-6-12-5-5 0-8 5-11 9 7 0 14-1 21-2 0 0 1 0 1-1zm9 11c3 3-3 8-5 11-6 6-17 9-25 3-8-5-10-16-6-24 3-5 8-11 15-11 6 0 12 0 16 5 4 3 3 10-2 11-8 2-16 3-24 3 0 4 1 7 4 10 4 4 11 4 15 1 5-2 8-7 13-9z"/>
  <path d="m1443 1032c4 0 5 5 0 5-6 3-11 9-14 16-2 5-1 10-4 14-5 2-5-5-5-9-1-9-2-19-1-28 1-5 6-2 5 2 0 4 1 8 2 12 3-6 8-11 15-13h2z"/>
  <path d="m1505 1017c-3 6-7-5-11-1-7 2-15 6-16 14-1 7-2 14 0 21 2 5 8 9 13 6 7-3 12-9 16-15 6-4 4 6 1 8-5 8-14 17-25 14-7-2-13-9-12-17 0-8-1-17 2-25 5-8 14-13 23-13 4 0 9 3 9 7z"/>
  <path d="m1552 1036c6 1 2 9-3 7-3 0-7 0-10 2v20h-6v-21c-4 0-9 2-14 1-3-5 4-7 7-7 2 0 4-1 6-1 0-4-1-8 1-11 5-4 7 3 7 7 0 1 0 4 1 4 4 0 8-1 12-1z"/>
  <path d="m1597 1036c6 1 2 9-3 7-3 0-7 0-10 2v20h-6v-21c-4 0-9 2-14 1-3-5 4-7 7-7 2 0 4-1 6-1 0-4-1-8 1-11 5-4 7 3 7 7 0 1 0 4 1 4 4 0 8-1 12-1z"/>
  <path d="m1629 1053c2-6 6-11 6-18 1-7-7-7-10-2-5 6-9 13-10 22 0 7 9 6 12 2l3-3zm-14-20c3-5 8-8 14-11 5-1 9 3 10 8 2 10-2 20-7 28-4 5-11 9-18 7-4-2-7-7-6-12 1-7 5-13 7-20z"/>
  <path d="m1652 1066q-1 0-2 0t-1-2q0-1 5-8l5-6-3-2q-1-1-3-2-2-2-3-3t-3-3q-1-1-2-3-1-1-1-2t1-3q1-1 2-1 2 0 3 2 0 1 5 6t7 6q1-2 3-4l5-8q2-3 3-3t2 1 1 2-2 3q-1 2-2 3 0 1-3 5t-3 4 6 5 6 6 0 1q0 1-1 2 0 1-2 1t-4-2-5-4q-3-3-5-3-1 1-3 4t-5 6q-2 2-4 2z"/>
  <path d="m1695 1059c0 2-2 6-5 6s-3-4-3-6c0-3 3-3 5-2 1 0 2 1 2 2zm20 1c-1 2-2 6-5 6s-4-4-3-6c0-3 4-3 6-1 1 0 1 1 2 1zm-10 0c-1 2-2 6-4 6-3 0-4-3-3-6 0-2 3-4 5-2 1 0 2 1 3 2z"/>
  <path d="m2256 100v-7h-24l18-19c3-4 6-8 6-14 0-10-8-16-19-16-5 0-10 2-16 4v9c5-3 10-5 16-5 5 0 9 3 9 9 0 4-3 9-6 11-1 1-18 19-20 21v7h35z"/>
  <path d="m2302 72c0-11-3-29-19-29s-19 17-19 29c0 11 3 28 19 28s19-17 19-28zm-9 0c0 7 0 21-10 21-9 0-10-14-10-21s0-21 10-21c9 0 10 15 10 21z"/>
  <path d="m2326 100v-55h-8l-8 7v8l8-6v47h8z"/>
  <path d="m2374 87v-7h-7v-35h-10l-22 34v8h24v13h9v-13h7zm-16-7h-16l16-26v26z"/>
  <path d="m1928 892c4-7 11-12 18-14 4-1 9-2 14-1 3 1 5 5 7 8 2 6 1 13 0 19-1 4-2 9-4 13 4 3 8 6 11 11 2 3-2 4-4 2-3-1-5-4-9-6-1 0-2-2-2-1-4 8-14 12-23 9-4-1-7-4-8-7-3-5-5-12-4-18 0-5 2-11 4-16zm15 18c0-2 3-4 5-2 3 1 6 3 9 5 2-5 3-10 5-15 0-3 1-6-1-8s-4-4-8-4h-10c-4 2-7 5-9 9-1 2-2 5-2 8-1 6-2 12 0 18 1 3 3 7 7 8 5 1 10-1 14-5 2-2-2-4-3-6-2-2-5-3-7-6z"/>
  <path d="m1980 894c6 1 2 9 3 13 0 7 0 14 2 20 4 2 8-4 11-7 5-7 8-15 9-23 0-6 8-5 6 1-1 8-3 17 0 25 1 3 4 12-2 10-3-3-3-11-5-12-4 6-8 12-15 14-6 1-9-4-9-10-1-9-2-18-1-28 0-1 1-3 2-3z"/>
  <path d="m2024 900c5-5 12-8 19-8 5 0 13 1 14 7 2 10-1 21-8 28-7 6-19 8-26 2-4-4-7-9-6-15 0-5 3-10 7-14zm12 27c7 0 11-8 14-14 1-5 4-14-4-14-5 0-10 0-14 3-5 4-10 9-8 16 1 6 7 9 12 9z"/>
  <path d="m2065 892c6-3 5 6 6 9 1 9 1 19 1 28-2 4-8 0-6-4 0-10-1-20-1-30 0-1 0-2 1-3zm-1-10c1-6 10-1 6 3-2 3-7 0-6-3z"/>
  <path d="m2099 879c-3-6 10-6 10-1-2 10-3 20-4 30 1 3-2 10-5 4-1-11-1-22-1-33zm1 48c-5-1-2-10 3-9 6 0 5 10 0 10-1 0-2 0-2-1z"/>
  <path d="m2175 888c-3-6-12-5-18-4-8 0-4 10-4 15 0 8 9 3 14 1 4-2 6-8 9-13zm-22-11c6 0 13-2 19 0 7 0 11 7 9 14-1 6-4 10-9 14-5 3-10 6-16 5-3-1-1 3-1 5 0 6 1 13 0 19-5 7-7-4-7-9-1-12-2-25-2-37-5 5-7-4-2-6 3-3 6-6 10-5z"/>
  <path d="m2205 924c1-2 8-5 2-7-5-1-13 0-15 5s5 5 9 3c1 0 3-1 4-2zm12 4c-1 6-7 3-6-2 0-3-4 3-7 3-5 3-11 3-16 0-3-3-3-9 0-12 4-4 10-7 16-7 3-1 9 6 8 0 0-4 0-11-4-12-6 0-12 3-18 5-6 0 0-7 4-7 6-2 12-5 18-2 5 3 6 9 6 14 0 6 0 13 1 20z"/>
  <path d="m2223 927c1-6 5-1 7 1 3 3 9 2 11-2 4-4-1-8-5-8-4-2-9-2-13-6-4-3 0-9 2-12 3-4 8-5 14-5 3 0 6 0 8 2 3 2 2 8-2 5-3-4-8-2-12 0-4 1-10 7-2 9 5 2 12 3 16 7 3 6-1 15-8 17-4 0-9 0-13-2-2-1-3-4-3-6z"/>
  <path d="m2269 902c0-3 4-3 4-6 0-2 2-6 5-4 1 2 4 1 6 1 6-1 13-2 19 0 4 1 6 5 6 9 0 6-3 12-6 17-3 6-10 10-17 10h-4c1 6 3 11 3 17 0 3-3 4-5 2-2-1-2-4-2-6-3-11-3-23-5-35 0-3-4-1-4-4zm32-4c-3-1-7 0-10 0s-7 1-10 2c0 7 0 14 2 20 1 1 3 1 5 2 3 0 6-2 8-5 4-4 7-9 7-15 0-2 0-4-2-6z"/>
  <path d="m2321 900c5-5 12-8 19-8 5 0 13 1 14 7 2 10-1 21-8 28-7 6-19 8-26 2-4-4-7-9-6-15 0-5 3-10 7-14zm12 27c7 0 11-8 14-14 1-5 4-14-4-14-5 0-10 0-14 3-5 4-10 9-8 16 1 6 7 9 12 9z"/>
  <path d="m2362 894c6 1 2 9 3 13 0 7 0 14 2 20 4 2 8-4 11-7 5-7 8-15 9-23 0-6 8-5 6 1-1 8-3 17 0 25 1 3 4 12-2 10-3-3-3-11-5-12-4 6-8 12-15 14-6 1-9-4-9-10-1-9-2-18-1-28 0-1 1-3 2-3z"/>
  <path d="m2427 898c4 0 5 5 0 5-6 3-11 9-14 16-2 5-1 10-4 14-5 2-5-5-5-9-1-9-2-19-1-28 1-5 6-2 5 2 0 4 1 8 2 12 3-6 8-11 15-13h2-1e-4z"/>
  <path d="m2489 883c-3 6-7-5-11-1-7 2-15 6-16 14-1 7-2 14 0 21 2 5 8 9 13 6 7-3 12-9 16-15 6-4 4 6 1 8-5 8-14 17-25 14-7-2-13-9-12-17 0-8-1-17 2-25 5-8 14-13 23-13 4 0 9 3 9 7z"/>
  <path d="m2536 902c6 1 2 9-3 7-3 0-7 0-10 2v20h-6v-21c-4 0-9 2-14 1-3-5 4-7 7-7 2 0 4-1 6-1 0-4-1-8 1-11 5-4 7 3 7 7 0 1 0 4 1 4 4 0 8-1 12-1z"/>
  <path d="m2581 902c6 1 2 9-3 7-3 0-7 0-10 2v20h-6v-21c-4 0-9 2-14 1-3-5 4-7 7-7 2 0 4-1 6-1 0-4-1-8 1-11 5-4 7 3 7 7 0 1 0 4 1 4 4 0 8-1 12-1z"/>
  <path d="m2605 932c-4-1-3-7-3-11v-22c-3 3-5 8-9 8-4-3 1-6 3-9l6-9c5-3 5 5 5 8 0 11 1 22 1 33 0 1-1 2-2 2z"/>
  <path d="m2620 914c3-1 12 0 10-6 0-1 2-9 0-6-3 3-7 8-10 12zm-5 6c-7-1 1-10 3-13 4-5 7-11 12-15 8-4 5 12 5 17 1 5 9-4 11 2 0 4-7 3-10 5-1 1 0 3 0 5-1 4 3 9 0 12-6 2-5-8-6-12 0-6-7 0-11-1h-4z"/>
  <path d="m2678 929c-2-8 10-5 8 0-1 5-8 6-8 0zm4-13c-5-3-3-11-2-16 3-4 7-7 8-13 2-6-5-13-10-8-6 1-3 13 1 10 3-2-4-3 0-6 6-4 8 7 3 10-5 4-13-2-13-8 0-7 6-12 13-13 8 0 13 10 11 17-1 6-6 10-9 15 0 4 1 8-1 12z"/>
  <path d="m1954 989c4-4 5-11 2-16-4-4-12 0-16 2 0 5 0 11 1 16 4 2 10 2 12-2zm1-38c-4-3-10-1-15 0-3 4 0 10 0 15 0 8 7-2 10-4 2-3 4-6 6-10zm-25 2c-7 0-4-6 1-6 7-3 16-3 24-3 8 1 6 12 2 16-2 3-4 4 0 5 6 2 8 9 7 15-1 7-6 15-13 17-5-2-14 4-15-4-1-10-1-20-3-30 0-3 0-7-1-10h-2z"/>
  <path d="m1975 967c5-5 12-8 19-8 5 0 13 1 14 7 2 10-1 21-8 28-7 6-19 8-26 2-4-4-7-9-6-15 0-5 3-10 7-14zm12 27c7 0 11-8 14-14 1-5 4-14-4-14-5 0-10 0-14 3-5 4-10 9-8 16 1 6 7 9 12 9z"/>
  <path d="m2017 962c-1-5 6-4 5 0 1 6 1 12 2 19 1-5 3-10 7-15 3-3 6-9 11-7 5 3 6 10 6 16 0 7 1 14 0 21 0 4-7 2-5-2 0-9 1-18-1-27-3-5-6 3-8 5-4 7-8 14-8 23 0 3-2 8-4 3-1-5-1-11-2-17 0-7-1-14-2-20z"/>
  <path d="m2103 979c0-6 5-13 2-19-1-8-9-7-15-4-9 3-12 14-12 23 1 6 4 14 11 15 7 0 11-7 14-12 0-1 0-2 1-2zm-5 18c-4 3-11 3-16 1-7-5-11-14-12-23 0-11 6-23 17-26 5-4 12-8 18-3 7 7 7 18 5 27-2 8-4 17-11 23h-2z"/>
  <path d="m2144 997c-2 0-4-2-7-3-2 0-3-2-5-2-3-1-5-2-8-2 0 3 1 6 0 9 0 2-3 3-4 2-2-1-2-5-2-7-1-8 0-17-2-25-1-7-1-13-1-20 0-2 3-4 5-1 1 2 1 5 1 8 1 7 1 14 2 22 5-4 9-8 14-12 1-1 3-2 4-1 2 1 1 4 0 5-2 2-3 4-5 6-3 3-7 5-10 8-2 1 0 2 1 3 6 2 12 4 17 8 2 1 5 4 2 6z"/>
  <path d="m2179 971c-3-3-7-6-12-5-5 0-8 5-11 9 7 0 14-1 21-2 0 0 1 0 1-1zm9 11c3 3-3 8-5 11-6 6-17 9-25 3-8-5-10-16-6-24 3-5 8-11 15-11 6 0 12 0 16 5 4 3 3 10-2 11-8 2-16 3-24 3 0 4 1 7 4 10 4 4 11 4 15 1 5-2 8-7 13-9z"/>
  <path d="m2196 964c2 0 2 3 2 5v19c0 3 3 1 4 0 3-3 6-6 7-10 1-3 2-7 3-11 0-2 2-4 4-4s2 3 2 5l-3 15v7c2-1 4-2 6-1 2 2 0 4-2 5-1 0-2 1-3 1v11c0 3 0 6-1 9-1 2-4 1-6 0-3-1-5-2-6-5s-3-6-2-9c1-2 2-4 4-5 1-1 5-1 5-4 0-2 0-3-2-1-2 3-6 5-10 5s-6-4-6-8v-19c0-2 1-4 3-4zm17 46c1-3 0-6 0-9v-2c-1 2-3 4-3 7 0 2 2 3 4 4z"/>
  <path d="m2323 981c4 4-3 9-6 13-5 5-13 7-20 4-5-2-8-7-9-12s-1-11 3-15c4-5 10-10 17-9 6 0 13 4 14 10 0 7-6 4-6-1-3-4-8-4-13-3-4 1-6 6-8 9-3 5-2 12 3 15 5 4 12 0 16-3 3-2 5-6 9-7z"/>
  <path d="m2333 949c2 0 6 0 6 3s-2 5-3 9c0 2 0 5-2 6s-5-1-6-3 1-5 2-7c0-2 0-5 2-7h1z"/>
  <path d="m2371 971c-3-5-10-7-16-4-2 2-8 6-6 8 7 0 13-1 20-3 0 0 1 0 1-1zm9 11c3 3-3 8-5 11-7 6-17 9-25 3-9-6-11-21-3-29 4-4 9-8 15-7 5 0 11 2 13 7 5 7-4 10-10 11-6 2-14 0-18 3 0 6 6 12 12 12 8 0 13-7 19-11z"/>
  <path d="m2388 994c1-6 6 1 9 2 4 3 11 0 11-6 0-5-6-5-10-7-4-1-9-3-11-8-1-5 3-8 7-11s10-3 16-3c4 0 7 9 2 7-4-3-10-2-14 0-5 1-6 9 0 9 5 2 11 2 14 7 4 8-4 19-13 17-5 0-11-2-12-7v-1z"/>
  <path d="m2433 963c-4 0-8 2-13 1-4-1 0-6 3-6 3-1 6-1 9-2 1-3 0-6 0-10 0-3-1-6 0-9s6-2 6 1c1 5 1 11 2 16 4 0 8-2 11 0s-1 5-4 5c-2 1-6 0-7 2 0 11 1 23 3 34 1 3 1 8-3 7-3 0-4-3-4-6s0-7-1-11c-1-8-1-15-2-23z"/>
  <path d="m2492 1009c3-5 1-12 2-19 0-10-5-19-4-30 6-5 7 6 8 10 2 13 3 26 1 39-2 7-11 5-17 4s-7-10-4-15c6-2 1 10 7 9h7zm-5-59c1-7 12 0 5 3-2 1-5-1-5-3z"/>
  <path d="m2511 961c6 1 2 9 3 13 0 7 0 14 2 20 4 2 8-4 11-7 5-7 8-15 9-23 0-6 8-5 6 1-1 8-3 17 0 25 1 3 4 12-2 10-3-3-3-11-5-12-4 6-8 12-15 14-6 1-9-4-9-10-1-9-2-18-1-28 0-1 1-3 2-3z"/>
  <path d="m2549 994c1-6 5-1 7 1 3 3 9 2 11-2 4-4-1-8-5-8-4-2-9-2-13-6-4-3 0-9 2-12 3-4 8-5 14-5 3 0 6 0 8 2 3 2 2 8-2 5-3-4-8-2-12 0-4 1-10 7-2 9 5 2 12 3 16 7 3 6-1 15-8 17-4 0-9 0-13-2-2-1-3-4-3-6z"/>
  <path d="m2594 961c-4 0-8 1-12 1-4-1-1-5 2-5 3-1 7-1 10-2 1-2 0-5 0-7 0-4-1-7 0-11 0-2 4-3 5-1 1 6 1 12 2 18 4 0 7-2 11 0 3 1 0 5-2 5-3 1-6 1-9 2 0 11 1 21 3 32 0 3 1 5 1 8-1 2-5 2-7 0-2-4-1-8-1-13-1-8-2-17-3-26z"/>
  <path d="m2647 971c-3-3-7-6-12-5-5 0-8 5-11 9 7 0 14-1 21-2 0 0 1 0 1-1zm9 11c3 3-3 8-5 11-6 6-17 9-25 3-8-5-10-16-6-24 3-5 8-11 15-11 6 0 12 0 16 5 4 3 3 10-2 11-8 2-16 3-24 3 0 4 1 7 4 10 4 4 11 4 15 1 5-2 8-7 13-9z"/>
  <path d="m1928 1028c6 1 2 9 3 13 0 7 0 14 2 20 4 2 8-4 11-7 5-7 8-15 9-23 0-6 8-5 6 1-1 8-3 17 0 25 1 3 4 12-2 10-3-3-3-11-5-12-4 6-8 12-15 14-6 1-9-4-9-10-1-9-2-18-1-28 0-1 1-3 2-3z"/>
  <path d="m1970 1029c-1-5 6-4 5 0 1 6 1 12 2 19 1-5 3-10 7-15 3-3 6-9 11-7 5 3 6 10 6 16 0 7 1 14 0 21 0 4-7 2-5-2 0-9 1-18-1-27-3-5-6 3-8 5-4 7-8 14-8 23 0 3-2 8-4 3-1-5-1-11-2-17 0-7-1-14-2-20z"/>
  <path d="m2036 1038c-3-3-7-6-12-5-5 0-8 5-11 9 7 0 14-1 21-2 0 0 1 0 1-1zm9 11c3 3-3 8-5 11-6 6-17 9-25 3-8-5-10-16-6-24 3-5 8-11 15-11 6 0 12 0 16 5 4 3 3 10-2 11-8 2-16 3-24 3 0 4 1 7 4 10 4 4 11 4 15 1 5-2 8-7 13-9z"/>
  <path d="m2095 1033c-1-5 8-8 6-2-2 9-6 18-10 27-2 4-4 8-9 10-5 0-6-7-8-11-3-9-6-18-8-28 3-5 7 4 8 7 3 8 5 17 8 26 5-8 8-18 12-27v-2z"/>
  <path d="m2133 1038c-3-3-7-6-12-5-5 0-8 5-11 9 7 0 14-1 21-2 0 0 1 0 1-1zm9 11c3 3-3 8-5 11-6 6-17 9-25 3-8-5-10-16-6-24 3-5 8-11 15-11 6 0 12 0 16 5 4 3 3 10-2 11-8 2-16 3-24 3 0 4 1 7 4 10 4 4 11 4 15 1 5-2 8-7 13-9z"/>
  <path d="m2174 1032c4 0 5 5 0 5-6 3-11 9-14 16-2 5-1 10-4 14-5 2-5-5-5-9-1-9-2-19-1-28 1-5 6-2 5 2 0 4 1 8 2 12 3-6 8-11 15-13h2z"/>
  <path d="m2183 1061c1-6 5-1 7 1 3 3 9 2 11-2 4-4-1-8-5-8-4-2-9-2-13-6-4-3 0-9 2-12 3-4 8-5 14-5 3 0 6 0 8 2 3 2 2 8-2 5-3-4-8-2-12 0-4 1-10 7-2 9 5 2 12 3 16 7 3 6-1 15-8 17-4 0-9 0-13-2-2-1-3-4-3-6z"/>
  <path d="m2219 1032c5-3 5 5 5 8 1 10 1 19 1 29-2 4-8 0-6-4 0-10-1-20-1-30 0-1 0-2 1-3zm-3-6c0-5 10-2 7 2-1 4-7 1-7-2z"/>
  <path d="m2238 1034c5-5 12-8 19-8 5 0 13 1 14 7 2 10-1 21-8 28-7 6-19 8-26 2-4-4-7-9-6-15 0-5 3-10 7-14zm12 27c7 0 11-8 14-14 1-5 4-14-4-14-5 0-10 0-14 3-5 4-10 9-8 16 1 6 7 9 12 9z"/>
  <path d="m2280 1029c-1-5 6-4 5 0 1 6 1 12 2 19 1-5 3-10 7-15 3-3 6-9 11-7 5 3 6 10 6 16 0 7 1 14 0 21 0 4-7 2-5-2 0-9 1-18-1-27-3-5-6 3-8 5-4 7-8 14-8 23 0 3-2 8-4 3-1-5-1-11-2-17 0-7-1-14-2-20z"/>
  <path d="m2385 1051v13c0 3-4 3-4 0 0-8 0-16-1-24 0-3 0-5-1-8-2-1-3 2-5 4-4 8-6 17-7 26 0 2 0 5-3 5-2-1-1-4-2-6 0-6 0-13-2-19-1-3-3-6-5-8-2 0-3 4-4 5-1 3-4 7-3 11 0 2-1 4-1 7v11c0 2-3 4-4 1s-1-6-1-10c0-7 0-15-1-22 0-3-1-7 0-10s4 1 4 3 1 5 1 7l3-6c1-2 2-4 5-4 4 0 7 2 9 5s2 7 3 10c2-5 4-10 9-14 2-2 6-2 8 0 3 3 3 7 3 11v10z"/>
  <path d="m2396 1030c6-3 5 6 6 9 1 9 1 19 1 28-2 4-8 0-6-4 0-10-1-20-1-30 0-1 0-2 1-3zm-3-10c1-6 10-1 6 3-2 3-7 0-6-3z"/>
  <path d="m2413 1029c-1-5 6-4 5 0 1 6 1 12 2 19 1-5 3-10 7-15 3-3 6-9 11-7 5 3 6 10 6 16 0 7 1 14 0 21 0 4-7 2-5-2 0-9 1-18-1-27-3-5-6 3-8 5-4 7-8 14-8 23 0 3-2 8-4 3-1-5-1-11-2-17 0-7-1-14-2-20z"/>
  <path d="m2479 1038c-3-3-7-6-12-5-5 0-8 5-11 9 7 0 14-1 21-2 0 0 1 0 1-1zm9 11c3 3-3 8-5 11-6 6-17 9-25 3-8-5-10-16-6-24 3-5 8-11 15-11 6 0 12 0 16 5 4 3 3 10-2 11-8 2-16 3-24 3 0 4 1 7 4 10 4 4 11 4 15 1 5-2 8-7 13-9z"/>
  <path d="m2496 1028c6 1 2 9 3 13 0 7 0 14 2 20 4 2 8-4 11-7 5-7 8-15 9-23 0-6 8-5 6 1-1 8-3 17 0 25 1 3 4 12-2 10-3-3-3-11-5-12-4 6-8 12-15 14-6 1-9-4-9-10-1-9-2-18-1-28 0-1 1-3 2-3z"/>
  <path d="m2561 1032c4 0 5 5 0 5-6 3-11 9-14 16-2 5-1 10-4 14-5 2-5-5-5-9-1-9-2-19-1-28 1-5 6-2 5 2 0 4 1 8 2 12 3-6 8-11 15-13h2z"/>
  <path d="m2598 1038c-3-3-7-6-12-5-5 0-8 5-11 9 7 0 14-1 21-2 0 0 1 0 1-1zm9 11c3 3-3 8-5 11-6 6-17 9-25 3-8-5-10-16-6-24 3-5 8-11 15-11 6 0 12 0 16 5 4 3 3 10-2 11-8 2-16 3-24 3 0 4 1 7 4 10 4 4 11 4 15 1 5-2 8-7 13-9z"/>
  <path d="m2622 1059c0 2-2 6-5 6s-3-4-3-6c0-3 3-3 5-2 1 0 2 1 2 2zm20 1c-1 2-2 6-5 6s-4-4-3-6c0-3 4-3 6-1 1 0 1 1 2 1zm-10 0c-1 2-2 6-4 6-3 0-4-3-3-6 0-2 3-4 5-2 1 0 2 1 3 2z"/>
  <path d="m3191 100v-7h-24l18-19c3-4 6-8 6-14 0-10-8-16-19-16-5 0-10 2-16 4v9c5-3 10-5 16-5 5 0 9 3 9 9 0 4-3 9-6 11-1 1-18 19-20 21v7h35z"/>
  <path d="m3238 72c0-11-3-29-19-29s-19 17-19 29c0 11 3 28 19 28s19-17 19-28zm-9 0c0 7 0 21-10 21-9 0-10-14-10-21s0-21 10-21c9 0 10 15 10 21z"/>
  <path d="m3261 100v-55h-8l-8 7v8l8-6v47h8z"/>
  <path d="m3305 48v-4h-36v7h25l-18 48h9l19-51z"/>
  <path d="m2848 892c4-7 11-12 18-14 4-1 9-2 14-1 3 1 5 5 7 8 2 6 1 13 0 19-1 4-2 9-4 13 4 3 8 6 11 11 2 3-2 4-4 2-3-1-5-4-9-6-1 0-2-2-2-1-4 8-14 12-23 9-4-1-7-4-8-7-3-5-5-12-4-18 0-5 2-11 4-16zm15 18c0-2 3-4 5-2 3 1 6 3 9 5 2-5 3-10 5-15 0-3 1-6-1-8s-4-4-8-4h-10c-4 2-7 5-9 9-1 2-2 5-2 8-1 6-2 12 0 18 1 3 3 7 7 8 5 1 10-1 14-5 2-2-2-4-3-6-2-2-5-3-7-6z"/>
  <path d="m2900 894c6 1 2 9 3 13 0 7 0 14 2 20 4 2 8-4 11-7 5-7 8-15 9-23 0-6 8-5 6 1-1 8-3 17 0 25 1 3 4 12-2 10-3-3-3-11-5-12-4 6-8 12-15 14-6 1-9-4-9-10-1-9-2-18-1-28 0-1 1-3 2-3z"/>
  <path d="m2944 900c5-5 12-8 19-8 5 0 13 1 14 7 2 10-1 21-8 28-7 6-19 8-26 2-4-4-7-9-6-15 0-5 3-10 7-14zm12 27c7 0 11-8 14-14 1-5 4-14-4-14-5 0-10 0-14 3-5 4-10 9-8 16 1 6 7 9 12 9z"/>
  <path d="m2985 892c7-3 5 8 6 12 0 8 1 17 0 26-6 4-7-4-7-9 0-9-1-18-1-27 0-1 0-2 1-2zm-1-8c1-6 11 0 6 4-2 2-6-1-6-4z"/>
  <path d="m3017 875c-1-1-1-4 0-4h9c0 3-2 31-4 34l-3 12c0 2-3 2-4 0-1-3-1-6-1-9s1-30 1-33zm-1 58c-2 0-3-3-2-5s2-4 4-4 4 0 5 2c0 2 0 4-1 6s-3 1-5 0z"/>
  <path d="m3097 888c-3-6-12-5-18-4-8 0-4 10-4 15 0 8 9 3 14 1 4-2 6-8 9-13zm-22-11c6 0 13-2 19 0 7 0 11 7 9 14-1 6-4 10-9 14-5 3-10 6-16 5-3-1-1 3-1 5 0 6 1 13 0 19-5 7-7-4-7-9-1-12-2-25-2-37-5 5-7-4-2-6 3-3 6-6 10-5z"/>
  <path d="m3123 926c1-2 8-5 2-7-5-1-13 0-15 5s5 5 9 3c1 0 3-1 4-2zm12 4c-1 6-7 3-6-2 0-3-4 3-7 3-5 3-11 3-16 0-3-3-3-9 0-12 4-4 10-7 16-7 3-1 9 6 8 0 0-4 0-11-4-12-6 0-12 3-18 5-6 0 0-7 4-7 6-2 12-5 18-2 5 3 6 9 6 14 0 6 0 13 1 20z"/>
  <path d="m3143 927c1-6 5-1 7 1 3 3 9 2 11-2 4-4-1-8-5-8-4-2-9-2-13-6-4-3 0-9 2-12 3-4 8-5 14-5 3 0 6 0 8 2 3 2 2 8-2 5-3-4-8-2-12 0-4 1-10 7-2 9 5 2 12 3 16 7 3 6-1 15-8 17-4 0-9 0-13-2-2-1-3-4-3-6z"/>
  <path d="m3189 902c0-3 4-3 4-6 0-2 2-6 5-4 1 2 4 1 6 1 6-1 13-2 19 0 4 1 6 5 6 9 0 6-3 12-6 17-3 6-10 10-17 10h-4c1 6 3 11 3 17 0 3-3 4-5 2-2-1-2-4-2-6-3-11-3-23-5-35 0-3-4-1-4-4zm32-4c-3-1-7 0-10 0s-7 1-10 2c0 7 0 14 2 20 1 1 3 1 5 2 3 0 6-2 8-5 4-4 7-9 7-15 0-2 0-4-2-6z"/>
  <path d="m3241 900c5-5 12-8 19-8 5 0 13 1 14 7 2 10-1 21-8 28-7 6-19 8-26 2-4-4-7-9-6-15 0-5 3-10 7-14zm12 27c7 0 11-8 14-14 1-5 4-14-4-14-5 0-10 0-14 3-5 4-10 9-8 16 1 6 7 9 12 9z"/>
  <path d="m3282 894c6 1 2 9 3 13 0 7 0 14 2 20 4 2 8-4 11-7 5-7 8-15 9-23 0-6 8-5 6 1-1 8-3 17 0 25 1 3 4 12-2 10-3-3-3-14-3-14s-10 14-17 16c-6 1-9-4-9-10-1-9-2-18-1-28 0-1 1-3 2-3z"/>
  <path d="m3347 898c4 0 5 5 0 5-6 3-11 9-14 16-2 5-1 10-4 14-5 2-5-5-5-9-1-9-2-19-1-28 1-5 6-2 5 2 0 4 1 8 2 12 3-6 8-11 15-13h2-1e-4z"/>
  <path d="m3409 883c-3 6-7-5-11-1-7 2-15 6-16 14-1 7-2 14 0 21 2 5 8 9 13 6 7-3 12-9 16-15 6-4 4 6 1 8-5 8-14 17-25 14-7-2-13-9-12-17 0-8-1-17 2-25 5-8 14-13 23-13 4 0 9 3 9 7z"/>
  <path d="m3456 902c6 1 2 9-3 7-3 0-7 0-10 2v20h-6v-21c-4 0-9 2-14 1-3-5 4-7 7-7 2 0 4-1 6-1 0-4-1-8 1-11 5-4 7 3 7 7 0 1 0 4 1 4 4 0 8-1 12-1z"/>
  <path d="m3501 902c6 1 2 9-3 7-3 0-7 0-10 2v20h-6v-21c-4 0-9 2-14 1-3-5 4-7 7-7 2 0 4-1 6-1 0-4-1-8 1-11 5-4 7 3 7 7 0 1 0 4 1 4 4 0 8-1 12-1z"/>
  <path d="m3525 932c-4-1-3-7-3-11v-22c-3 3-5 8-9 8-4-3 1-6 3-9l6-9c5-3 5 5 5 8 0 11 1 22 1 33 0 1-1 2-2 2z"/>
  <path d="m3534 889s11 0 17-1c2 0 4 0 5 2s0 5 0 7c-1 7-2 14-4 20l-3 12c0 2-3 2-5 1s-1-3-1-5c1-7 3-13 5-20 1-4 1-8 2-12h-15z"/>
  <path d="m3589 929c-2-9 13-3 6 2-2 4-7 1-6-2zm4-13c-5-3-4-14 0-19 4-4 8-12 4-17-3-6-13 0-12 5 0 3 4 7 6 2-6-5 7-8 5 0 0 5-6 8-10 5-5-3-8-10-3-15 3-4 11-8 16-3 6 5 7 14 3 20-2 5-8 9-7 15 0 2 0 6-2 7z"/>
  <path d="m2882 979c1-8 7-20-2-25-12-3-23 9-23 21 0 7 3 17 11 19 7 0 12-8 14-14zm-5 18c-9 7-23 0-25-10-5-13-1-32 13-38 7-5 19-8 24 2 5 12 2 26-3 37-2 3-4 8-8 9z"/>
  <path d="m2923 997q-2 0-4-1t-3-1-1 0q-1-1-9-3l-2-1v4q0 2 0 3 0 4-2 4-3 0-3-3-1-3-1-16 0-11-1-14-1-7-1-19 0-3 2-3t3 2q0 1 1 6 0 5 1 11 0 6 1 9v2l7-6t1-1 1-1 1-1 1-1 1-1q1 0 1-1 0 0 1 0 0 0 1 0t2 1 1 2 0 1-1 1-2 2q-3 4-12 10-2 2-3 3 0 0 1 1l8 3t1 0 1 0 2 1q1 0 2 1 1 0 2 1 1 0 1 1 1 0 1 1 0 0 1 1 0 0 0 1t0 1-1 0z"/>
  <path d="m2958 971c-3-3-7-6-12-5-5 0-8 5-11 9 7 0 14-1 21-2 0 0 1 0 1-1zm9 11c3 3-3 8-5 11-6 6-17 9-25 3-8-5-10-16-6-24 3-5 8-11 15-11 6 0 12 0 16 5 4 3 3 10-2 11-8 2-16 3-24 3 0 4 1 7 4 10 4 4 11 4 15 1 5-2 8-7 13-9z"/>
  <path d="m2975 964c2 0 2 3 2 5v19c0 3 3 1 4 0 3-3 6-6 7-10 1-3 2-7 3-11 0-2 2-4 4-4s2 3 2 5l-3 15v7c2-1 4-2 6-1 2 2 0 4-2 5-1 0-2 1-3 1v11c0 3 0 6-1 9-1 2-4 1-6 0-3-1-5-2-6-5s-3-6-2-9c1-2 2-4 4-5 1-1 5-1 5-4 0-2 0-3-2-1-2 3-6 5-10 5s-6-4-6-8v-19c0-2 1-4 3-4zm17 46c1-3 0-6 0-9v-2c-1 2-3 4-3 7 0 2 2 3 4 4z"/>
  <path d="m3103 984v13c0 3-4 3-4 0 0-8 0-16-1-24 0-3 0-5-1-8-2-1-3 2-5 4-4 8-6 17-7 26 0 2 0 5-3 5-2-1-1-4-2-6 0-6 0-13-2-19-1-3-3-6-5-8-2 0-3 4-4 5-1 3-4 7-3 11 0 2-1 4-1 7v11c0 2-3 4-4 1s-1-6-1-10c0-7 0-15-1-22 0-3-1-7 0-10s4 1 4 3 1 5 1 7l3-6c1-2 2-4 5-4 4 0 7 2 9 5s2 7 3 10c2-5 4-10 9-14 2-2 6-2 8 0 3 3 3 7 3 11v10z"/>
  <path d="m3132 991c0-2 2-3 4-4s0-3-2-3c-4-1-8-1-12 1-2 1-4 4-3 7 2 1 4 2 6 1 2 0 4-1 6-2zm12 4c0 2-2 4-4 4-1-1-2-3-2-4s0-4-1-2c-3 3-6 5-10 6-3 1-6 0-10-1-2 0-3-2-3-4 0-3 0-7 2-9 3-2 6-4 10-5 3-1 7-1 10 0 1 1 3 1 3 1 0-4 0-8-1-11 0-1-1-3-3-3-5 0-11 3-16 5-1 0-4 1-4-1s2-3 3-4c3-1 6-2 9-3 4-1 8-2 12 0 3 2 5 6 5 10 0 8 0 15 1 23z"/>
  <path d="m3152 959c6-3 5 7 6 10 0 9 1 18 0 27-3 5-9-1-7-5 0-10-1-19-1-29 0-1 0-2 1-2zm-3-8c1-7 11 0 5 4-2 1-6-2-5-4z"/>
  <path d="m3166 994c2-6 6 2 9 3 5 2 10-2 11-7-2-5-9-5-14-7-5-1-11-7-6-12 3-6 10-9 17-9 4-1 7 1 9 4 2 4-4 4-5 1-5-2-11 1-14 4-4 4 2 6 5 7 4 1 10 2 12 7 3 8-4 18-13 16-5 0-12-2-12-8z"/>
  <path d="m3223 967c5-5 12-8 19-8 5 0 13 1 14 7 2 10-1 21-8 28-7 6-19 8-26 2-4-4-7-9-6-15 0-5 3-10 7-14zm12 27c7 0 11-8 14-14 1-5 4-14-4-14-5 0-10 0-14 3-5 4-10 9-8 16 1 6 7 9 12 9z"/>
  <path d="m3259 962c-1-5 6-4 5 0 1 6 1 12 2 19 1-5 3-10 7-15 3-3 6-9 11-7 5 3 6 10 6 16 0 7 1 14 0 21 0 4-7 2-5-2 0-9 1-18-1-27-3-5-6 3-8 5-4 7-8 14-8 23 0 3-2 8-4 3-1-5-1-11-2-17 0-7-1-14-2-20z"/>
  <path d="m3335 991c0-2 2-3 4-4s0-3-2-3c-4-1-8-1-12 1-2 1-4 4-3 7 2 1 4 2 6 1 2 0 4-1 6-2zm12 4c0 2-2 4-4 4-1-1-2-3-2-4s0-4-1-2c-3 3-6 5-10 6-3 1-6 0-10-1-2 0-3-2-3-4 0-3 0-7 2-9 3-2 6-4 10-5 3-1 7-1 10 0 1 1 3 1 3 1 0-4 0-8-1-11 0-1-1-3-3-3-5 0-11 3-16 5-1 0-4 1-4-1s2-3 3-4c3-1 6-2 9-3 4-1 8-2 12 0 3 2 5 6 5 10 0 8 0 15 1 23z"/>
  <path d="m3379 965c4 0 5 5 0 5-6 3-11 9-14 16-2 5-1 10-4 14-5 2-5-5-5-9-1-9-2-19-1-28 1-5 6-2 5 2 0 4 1 8 2 12 3-6 8-11 15-13h2z"/>
  <path d="m3414 965c4 0 5 5 0 5-6 3-11 9-14 16-2 5-1 10-4 14-5 2-5-5-5-9-1-9-2-19-1-28 1-5 6-2 5 2 0 4 1 8 2 12 3-6 8-11 15-13h2z"/>
  <path d="m3451 958c-5 0-8-11-12-7-1 3-8 12-9 5 2-5 6-10 10-14 5 1 9 7 12 11 1 1 1 4-1 5zm0 12c-3-5-11-7-16-3-3 2-10 9-1 7 6-1 13 0 18-4zm9 11c3 4-4 10-8 13-7 5-18 6-25 0-8-7-8-21 0-28 4-4 10-7 16-6 6 0 13 5 14 11-1 7-11 6-16 7-4 0-9 1-13 1-1 7 5 12 11 13 8 0 13-7 20-11h1z"/>
  <path d="m3478 961c-4 0-8 1-12 1-4-1-1-5 2-5 3-1 7-1 10-2 1-2 0-5 0-7 0-4-1-7 0-11 0-2 4-3 5-1 1 6 1 12 2 18 4 0 7-2 11 0 3 1 0 5-2 5-3 1-6 1-9 2 0 11 1 21 3 32 0 3 1 5 1 8-1 2-5 2-7 0-2-4-1-8-1-13-1-8-2-17-3-26z"/>
  <path d="m3530 971c-3-3-7-6-12-5-5 0-8 5-11 9 7 0 14-1 21-2 0 0 1 0 1-1zm9 11c3 3-3 8-5 11-6 6-17 9-25 3-8-5-10-16-6-24 3-5 8-11 15-11 6 0 12 0 16 5 4 3 3 10-2 11-8 2-16 3-24 3 0 4 1 7 4 10 4 4 11 4 15 1 5-2 8-7 13-9z"/>
  <path d="m2847 1009c0-3 0-15 5-10 2 22 3 43 4 65-3 6-7-2-6-6-1-16-3-31-3-47v-1z"/>
  <path d="m2891 1038c-3-3-7-6-12-5-5 0-8 5-11 9 7 0 14-1 21-2 0 0 1 0 1-1zm9 11c3 3-3 8-5 11-6 6-17 9-25 3-8-5-10-16-6-24 3-5 8-11 15-11 6 0 12 0 16 5 4 3 3 10-2 11-8 2-16 3-24 3 0 4 1 7 4 10 4 4 11 4 15 1 5-2 8-7 13-9z"/>
  <path d="m2905 1061c1-6 5-1 7 1 3 3 9 2 11-2 4-4-1-8-5-8-4-2-9-2-13-6-4-3 0-9 2-12 3-4 8-5 14-5 3 0 6 0 8 2 3 2 2 8-2 5-3-4-8-2-12 0-4 1-10 7-2 9 5 2 12 3 16 7 3 6-1 15-8 17-4 0-9 0-13-2-2-1-3-4-3-6z"/>
  <path d="m2982 1033c-1-5 8-8 6-2-2 9-6 18-10 27-2 4-4 8-9 10-5 0-6-7-8-11-3-9-6-18-8-28 3-5 7 4 8 7 3 8 5 17 8 26 5-8 8-18 12-27v-2z"/>
  <path d="m3021 1038c-3-3-7-6-12-5-5 0-8 5-11 9 7 0 14-1 21-2 0 0 1 0 1-1zm9 11c3 3-3 8-5 11-6 6-17 9-25 3-8-5-10-16-6-24 3-5 8-11 15-11 6 0 12 0 16 5 4 3 3 10-2 11-8 2-16 3-24 3 0 4 1 7 4 10 4 4 11 4 15 1 5-2 8-7 13-9z"/>
  <path d="m3061 1032c4 0 5 5 0 5-6 3-11 9-14 16-2 5-1 10-4 14-5 2-5-5-5-9-1-9-2-19-1-28 1-5 6-2 5 2 0 4 1 8 2 12 3-6 8-11 15-13h2z"/>
  <path d="m3071 1061c1-6 5-1 7 1 3 3 9 2 11-2 4-4-1-8-5-8-4-2-9-2-13-6-4-3 0-9 2-12 3-4 8-5 14-5 3 0 6 0 8 2 3 2 2 8-2 5-3-4-8-2-12 0-4 1-10 7-2 9 5 2 12 3 16 7 3 6-1 15-8 17-4 0-9 0-13-2-2-1-3-4-3-6z"/>
  <path d="m3107 1030c5-3 5 5 6 9 1 9 1 19 1 29-2 4-8 0-6-4 0-10-1-20-1-30 0-1 0-2 1-3zm-3-8c1-6 10-1 6 3-2 3-7 0-6-3z"/>
  <path d="m3126 1034c5-5 12-8 19-8 5 0 13 1 14 7 2 10-1 21-8 28-7 6-19 8-26 2-4-4-7-9-6-15 0-5 3-10 7-14zm12 27c7 0 11-8 14-14 1-5 4-14-4-14-5 0-10 0-14 3-5 4-10 9-8 16 1 6 7 9 12 9z"/>
  <path d="m3168 1029c-1-5 6-4 5 0 1 6 1 12 2 19 1-5 3-10 7-15 3-3 6-9 11-7 5 3 6 10 6 16 0 7 1 14 0 21 0 4-7 2-5-2 0-9 1-18-1-27-3-5-6 3-8 5-4 7-8 14-8 23 0 3-2 8-4 3-1-5-1-11-2-17 0-7-1-14-2-20z"/>
  <path d="m3207 1061c1-6 5-1 7 1 3 3 9 2 11-2 4-4-1-8-5-8-4-2-9-2-13-6-4-3 0-9 2-12 3-4 8-5 14-5 3 0 6 0 8 2 3 2 2 8-2 5-3-4-8-2-12 0-4 1-10 7-2 9 5 2 12 3 16 7 3 6-1 15-8 17-4 0-9 0-13-2-2-1-3-4-3-6z"/>
  <path d="m3306 1051v13c0 3-4 3-4 0 0-8 0-16-1-24 0-3 0-5-1-8-2-1-3 2-5 4-4 8-6 17-7 26 0 2 0 5-3 5-2-1-1-4-2-6 0-6 0-13-2-19-1-3-3-6-5-8-2 0-3 4-4 5-1 3-4 7-3 11 0 2-1 4-1 7v11c0 2-3 4-4 1s-1-6-1-10c0-7 0-15-1-22 0-3-1-7 0-10s4 1 4 3 1 5 1 7l3-6c1-2 2-4 5-4 4 0 7 2 9 5s2 7 3 10c2-5 4-10 9-14 2-2 6-2 8 0 3 3 3 7 3 11v10z"/>
  <path d="m3317 1030c5-3 5 5 6 9 1 9 1 19 1 29-2 4-8 0-6-4 0-10-1-20-1-30 0-1 0-2 1-3zm-3-8c1-6 10-1 6 3-2 3-7 0-6-3z"/>
  <path d="m3334 1029c-1-5 6-4 5 0 1 6 1 12 2 19 1-5 3-10 7-15 3-3 6-9 11-7 5 3 6 10 6 16 0 7 1 14 0 21 0 4-7 2-5-2 0-9 1-18-1-27-3-5-6 3-8 5-4 7-8 14-8 23 0 3-2 8-4 3-1-5-1-11-2-17 0-7-1-14-2-20z"/>
  <path d="m3400 1038c-3-3-7-6-12-5-5 0-8 5-11 9 7 0 14-1 21-2 0 0 1 0 1-1zm9 11c3 3-3 8-5 11-6 6-17 9-25 3-8-5-10-16-6-24 3-5 8-11 15-11 6 0 12 0 16 5 4 3 3 10-2 11-8 2-16 3-24 3 0 4 1 7 4 10 4 4 11 4 15 1 5-2 8-7 13-9z"/>
  <path d="m3417 1028c6 1 2 9 3 13 0 7 0 14 2 20 4 2 8-4 11-7 5-7 8-15 9-23 0-6 8-5 6 1-1 8-3 17 0 25 1 3 4 12-2 10-3-3-3-14-3-14s-10 14-17 16c-6 1-9-4-9-10-1-9-2-18-1-28 0-1 1-3 2-3z"/>
  <path d="m3482 1032c4 0 5 5 0 5-6 3-11 9-14 16-2 5-1 10-4 14-5 2-5-5-5-9-1-9-2-19-1-28 1-5 6-2 5 2 0 4 1 8 2 12 3-6 8-11 15-13h2z"/>
  <path d="m3519 1038c-3-3-7-6-12-5-5 0-8 5-11 9 7 0 14-1 21-2 0 0 1 0 1-1zm9 11c3 3-3 8-5 11-6 6-17 9-25 3-8-5-10-16-6-24 3-5 8-11 15-11 6 0 12 0 16 5 4 3 3 10-2 11-8 2-16 3-24 3 0 4 1 7 4 10 4 4 11 4 15 1 5-2 8-7 13-9z"/>
  <path d="m3533 1061c1-6 5-1 7 1 3 3 9 2 11-2 4-4-1-8-5-8-4-2-9-2-13-6-4-3 0-9 2-12 3-4 8-5 14-5 3 0 6 0 8 2 3 2 2 8-2 5-3-4-8-2-12 0-4 1-10 7-2 9 5 2 12 3 16 7 3 6-1 15-8 17-4 0-9 0-13-2-2-1-3-4-3-6z"/>
  <path d="m3576 1059c0 2-2 6-5 6s-3-4-3-6c0-3 3-3 5-2 1 0 2 1 2 2zm20 1c-1 2-2 6-5 6s-4-4-3-6c0-3 4-3 6-1 1 0 1 1 2 1zm-10 0c-1 2-2 6-4 6-3 0-4-3-3-6 0-2 3-4 5-2 1 0 2 1 3 2z"/>
  <path d="m3722 72c0-19-10-27-31-27h-15v55h15c20 0 31-8 31-28zm-9 0c0 14-6 20-20 20h-7v-40h7c14 0 20 6 20 20z"/>
  <path d="m3765 83v-3c0-10-6-17-17-17-12 0-18 9-18 19 0 11 7 18 19 18 5 0 10-1 15-3v-7c-6 3-7 3-15 3-6 0-10-5-10-10h26zm-9-6h-17c1-4 3-7 8-7s8 2 9 7z"/>
  <path d="m3823 99v-7c-2 1-5 1-7 1h-1c-4 0-5-1-5-5v-19h10v-6h-10v-10h-5l-3 10h-4v6h4v19c0 9 4 12 14 12 2 0 5 0 7-1z"/>
  <path d="m3852 74 3-8c-1-1-5-2-8-2s-5 1-7 4v-3h-9v36h9v-23c0-4 2-6 5-6 2 0 4 1 7 3z"/>
  <path d="m3890 61-12-14h-9l12 14h9zm4 22v-3c0-10-6-17-17-17-12 0-18 9-18 19 0 11 7 18 19 18 5 0 10-1 15-3v-7c-6 3-7 3-15 3-6 0-10-5-10-10h26zm-9-6h-17c1-4 3-7 8-7s8 2 9 7z"/>
  <path d="m3933 89c0-7-6-10-13-11h-2c-3 0-7-1-7-4s4-4 7-4c6 0 6 0 12 3v-7c-4-1-8-2-13-2-8 0-16 3-16 11 0 7 5 9 12 11h2c3 1 7 1 7 4s-4 4-7 4c-7 0-8-1-14-3v8c4 1 10 2 14 2 8 0 17-3 17-11z"/>
  <path d="m4002 100v-21c0-9-4-15-14-15-4 0-8 1-11 4v-3h-9v36h9v-20c0-6 4-9 9-9s7 3 7 8v21h9z"/>
  <path d="m4048 82c0-9-6-19-18-19s-18 8-19 19c0 10 7 19 19 19s18-9 18-19zm-9 0c0 6-3 11-9 11-7 0-9-7-9-12 0-6 3-11 9-11s9 5 9 11z"/>
  <path d="m4116 100v-21c0-8-3-15-13-15-5 0-10 2-13 6-2-4-6-6-11-6-4 0-8 2-11 5v-4h-9v36h9v-20c0-5 4-9 9-9s6 3 6 8v21h9v-20c0-5 3-9 9-9 5 0 6 3 6 8v21h9z"/>
  <path d="m4126 44v54c4 2 10 2 16 2 12 0 20-7 20-19 0-11-7-19-20-19-2 0-5 0-7 1v-19h-8zm8 26c2 0 4-1 6-1 7 0 11 4 11 12 0 7-3 12-11 12-3 0-5 0-6-1v-22z"/>
  <path d="m4193 74 3-8c-1-1-5-2-8-2s-5 1-7 4v-3h-9v36h9v-23c0-4 2-6 5-6 2 0 4 1 7 3z"/>
  <path d="m4235 83v-3c0-10-6-17-17-17-12 0-18 9-18 19 0 11 7 18 19 18 5 0 10-1 15-3v-7c-6 3-7 3-15 3-6 0-10-5-10-10h26zm-9-6h-17c1-4 3-7 8-7s8 2 9 7z"/>
  <path d="m4278 100v-36h-9v20c0 5-3 9-9 9-5 0-7-3-7-8v-21h-9v21c0 9 4 15 14 15 4 0 8-2 10-5v4h9z"/>
  <path d="m4318 89c0-7-6-10-13-11h-2c-3 0-7-1-7-4s4-4 7-4c6 0 6 0 12 3v-7c-4-1-8-2-13-2-8 0-16 3-16 11 0 7 5 9 12 11h2c3 1 7 1 7 4s-4 4-7 4c-7 0-8-1-14-3v8c4 1 10 2 14 2 8 0 17-3 17-11z"/>
  <path d="m4359 83v-3c0-10-6-17-17-17-12 0-18 9-18 19 0 11 7 18 19 18 5 0 10-1 15-3v-7c-6 3-7 3-15 3-6 0-10-5-10-10zm-9-6h-17c1-4 3-7 8-7s8 2 9 7z"/>
  <path d="m4396 89c0-7-6-10-13-11h-2c-3 0-7-1-7-4s4-4 7-4c6 0 6 0 12 3v-7c-4-1-8-2-13-2-8 0-16 3-16 11 0 7 5 9 12 11h2c3 1 7 1 7 4s-4 4-7 4c-7 0-8-1-14-3v8c4 1 10 2 14 2 8 0 17-3 17-11z"/>
  <use transform="translate(-667)" xlink:href="#d"/>
  <path d="m3750 117h-10l-11 14h8l13-14zm5 36v-3c0-10-6-17-17-17-12 0-18 9-18 19 0 11 7 18 19 18 5 0 10-1 15-3v-7c-6 3-7 3-15 3-6 0-10-5-10-10h26zm-9-6h-17c1-4 3-7 8-7s8 2 9 7z"/>
  <use transform="translate(3148)" xlink:href="#c"/>
  <path d="m3837 153v-3c0-10-6-17-17-17-12 0-18 9-18 19 0 11 7 18 19 18 5 0 10-1 15-3v-7c-6 3-7 3-15 3-6 0-10-5-10-10h26zm-9-6h-17c1-4 3-7 8-7s8 2 9 7z"/>
  <path d="m3880 170v-21c0-9-4-15-14-15-4 0-8 1-11 4v-3h-9v36h9v-20c0-6 4-9 9-9s7 3 7 8v21h9z"/>
  <path d="m3925 170v-21c0-9-4-15-14-15-4 0-8 1-11 4v-3h-9v36h9v-20c0-6 4-9 9-9s7 3 7 8v21h9z"/>
  <path d="m3944 170v-36h-8v36h8zm-4-55c-2 0-4 2-4 4s2 4 4 4 4-2 4-4-2-4-4-4z"/>
  <path d="m3989 153v-3c0-10-6-17-17-17-12 0-18 9-18 19 0 11 7 18 19 18 5 0 10-1 15-3v-7c-6 3-7 3-15 3-6 0-10-5-10-10h26zm-9-6h-17c1-4 3-7 8-7s8 2 9 7z"/>
  <path d="m4028 159c0-7-6-10-13-11h-2c-3 0-7-1-7-4s4-4 7-4c6 0 6 0 12 3v-7c-4-1-8-2-13-2-8 0-16 3-16 11 0 7 5 9 12 11h2c3 1 7 1 7 4s-4 4-7 4c-7 0-8-1-14-3v8c4 1 10 2 14 2 8 0 17-3 17-11z"/>
  <path d="m4063 189h8v-19c2 0 4 1 7 1 13 0 20-7 20-19 0-11-7-19-20-19-5 0-12 1-16 2v54zm8-26v-22c2 0 3-1 6-1 7 0 11 4 11 12 0 7-4 12-11 12-3 0-4 0-6-1z"/>
  <path d="m4117 170v-55h-8v55h8z"/>
  <path d="m4162 170v-36h-9v20c0 5-3 9-9 9-5 0-7-3-7-8v-21h-9v21c0 9 4 15 14 15 4 0 8-2 10-5v4h9z"/>
  <path d="m4203 159c0-7-6-10-13-11h-2c-3 0-7-1-7-4s4-4 7-4c6 0 6 0 12 3v-7c-4-1-8-2-13-2-8 0-16 3-16 11 0 7 5 9 12 11h2c3 1 7 1 7 4s-4 4-7 4c-7 0-8-1-14-3v8c4 1 10 2 14 2 8 0 17-3 17-11z"/>
  <path d="m4260 169v-7c-2 1-5 1-7 1h-1c-4 0-5-1-5-5v-19h10v-6h-10v-10h-5l-3 10h-4v6h4v19c0 9 4 12 14 12 2 0 5 0 7-1z"/>
  <path d="m4305 163c-1 1-1 1-3 1-1 0-2 0-2-2v-15c0-8-6-13-16-13-4 0-9 1-13 4v7c4-3 7-4 13-4 4 0 8 2 8 6v1c-2 0-5-1-8-1-9 0-16 4-16 12 0 7 5 12 13 12 4 0 8-1 11-4 0 2 2 4 6 4s8-5 8-8zm-14-9c0 6-2 10-9 10-3 0-6-1-6-5s1-5 7-6c3 0 5 0 7 1z"/>
  <path d="m4334 144 3-8c-1-1-5-2-8-2s-5 1-7 4v-3h-9v36h9v-23c0-4 2-6 5-6 2 0 4 1 7 3z"/>
  <path id="d" d="m4376 114h-8v19c-2 0-4-1-7-1-13 0-20 7-20 19 0 11 7 19 20 19 5 0 11-1 16-2v-54zm-8 26v22c-2 0-3 1-6 1-7 0-11-4-11-12 0-7 4-12 11-12 3 0 4 0 6 1z"/>
  <path d="m4397 168v-6h-9v8c0 2-1 5-4 7 6 0 13-6 13-10z"/>
  <path d="m3684 240v-55h-8v55h8z"/>
  <path d="m3729 223v-3c0-10-6-17-17-17-12 0-18 9-18 19 0 11 7 18 19 18 5 0 10-1 15-3v-7c-6 3-7 3-15 3-6 0-10-5-10-10h26zm-9-6h-17c1-4 3-7 8-7s8 2 9 7z"/>
  <path d="m3768 229c0-7-6-10-13-11h-2c-3 0-7-1-7-4s4-4 7-4c6 0 6 0 12 3v-7c-4-1-8-2-13-2-8 0-16 3-16 11 0 7 5 9 12 11h2c3 1 7 1 7 4s-4 4-7 4c-7 0-8-1-14-3v8c4 1 10 2 14 2 8 0 17-3 17-11z"/>
  <path d="m3845 235v-9c-5 5-10 7-17 7-12 0-17-9-17-21s4-21 17-21c7 0 12 2 17 7v-9c-5-3-11-5-17-5-18 0-27 13-27 29s8 28 27 28c6 0 13-2 17-5z"/>
  <path d="m3889 222c0-9-6-19-18-19s-18 8-19 19c0 10 7 19 19 19s18-9 18-19zm-9 0c0 6-3 11-9 11-7 0-9-7-9-12 0-6 3-11 9-11s9 5 9 11z"/>
  <path d="m3932 240v-21c0-9-4-15-14-15-4 0-8 1-11 4v-3h-9v36h9v-20c0-6 4-9 9-9s7 3 7 8v21h9z"/>
  <use transform="translate(3327,70)" xlink:href="#c"/>
  <path d="m4017 223v-3c0-10-6-17-17-17-12 0-18 9-18 19 0 11 7 18 19 18 5 0 10-1 15-3v-7c-6 3-7 3-15 3-6 0-10-5-10-10h26zm-9-6h-17c1-4 3-7 8-7s8 2 9 7z"/>
  <path d="m4025 259h8v-19c2 0 4 1 7 1 13 0 20-7 20-19 0-11-7-19-20-19-5 0-12 1-16 2v54zm8-26v-22c2 0 3-1 6-1 7 0 11 4 11 12 0 7-4 12-11 12-3 0-4 0-6-1z"/>
  <path d="m4093 239v-7c-2 1-5 1-7 1h-1c-4 0-5-1-5-5v-19h10v-6h-10v-10h-5l-3 10h-4v6h4v19c0 9 4 12 14 12 2 0 5 0 7-1z"/>
  <path d="m4131 229c0-7-6-10-13-11h-2c-3 0-7-1-7-4s4-4 7-4c6 0 6 0 12 3v-7c-4-1-8-2-13-2-8 0-16 3-16 11 0 7 5 9 12 11h2c3 1 7 1 7 4s-4 4-7 4c-7 0-8-1-14-3v8c4 1 10 2 14 2 8 0 17-3 17-11z"/>
  <path d="m4195 229c0-7-6-10-13-11h-2c-3 0-7-1-7-4s4-4 7-4c6 0 6 0 12 3v-7c-4-1-8-2-13-2-8 0-16 3-16 11 0 7 5 9 12 11h2c3 1 7 1 7 4s-4 4-7 4c-7 0-8-1-14-3v8c4 1 10 2 14 2 8 0 17-3 17-11z"/>
  <path d="m4240 222c0-9-6-19-18-19s-18 8-19 19c0 10 7 19 19 19s18-9 18-19zm-9 0c0 6-3 11-9 11-7 0-9-7-9-12 0-6 3-11 9-11s9 5 9 11z"/>
  <path d="m4283 240v-21c0-9-4-15-14-15-4 0-8 1-11 4v-3h-9v36h9v-20c0-6 4-9 9-9s7 3 7 8v21h9z"/>
  <path d="m4317 239v-7c-2 1-5 1-7 1h-1c-4 0-5-1-5-5v-19h10v-6h-10v-10h-5l-3 10h-4v6h4v19c0 9 4 12 14 12 2 0 5 0 7-1z"/>
  <path d="m3709 293v-3c0-10-6-17-17-17-12 0-18 9-18 19 0 11 7 18 19 18 5 0 10-1 15-3v-7c-6 3-7 3-15 3-6 0-10-5-10-10h26zm-9-6h-17c1-4 3-7 8-7s8 2 9 7z"/>
  <path d="m3753 310v-21c0-9-4-15-14-15-4 0-8 1-11 4v-3h-9v36h9v-20c0-6 4-9 9-9s7 3 7 8v21h9z"/>
  <path d="m3797 310v-36h-23v-6c0-3 1-6 4-6h5v-7h-6c-10 0-13 6-13 14v5h-5v6h5v29h9v-29h14v29h9zm-4-55c-2 0-4 2-4 4s2 4 4 4 4-2 4-4-2-4-4-4z"/>
  <path d="m3843 310v-21c0-9-4-15-14-15-4 0-8 1-11 4v-3h-9v36h9v-20c0-6 4-9 9-9s7 3 7 8v21h9z"/>
  <path d="m3888 310v-36h-8v36h8zm-4-55c-2 0-4 2-4 4s2 4 4 4 4-2 4-4-2-4-4-4z"/>
  <path d="m3933 310v-21c0-9-4-15-14-15-4 0-8 1-11 4v-3h-9v36h9v-20c0-6 4-9 9-9s7 3 7 8v21h9z"/>
  <path d="m3967 309v-7c-2 1-5 1-7 1h-1c-4 0-5-1-5-5v-19h10v-6h-10v-10h-5l-3 10h-4v6h4v19c0 9 4 12 14 12 2 0 5 0 7-1z"/>
  <path d="m4002 257h-10l-11 14h8l13-14zm5 36v-3c0-10-6-17-17-17-12 0-18 9-18 19 0 11 7 18 19 18 5 0 10-1 15-3v-7c-6 3-7 3-15 3-6 0-10-5-10-10h26zm-9-6h-17c1-4 3-7 8-7s8 2 9 7z"/>
  <path d="m4047 316c0-8-10-13-19-13h-2c-2 0-6-2-6-3s1-1 2-1c1 1 5 1 6 1 7 0 13-6 13-13 0-2-1-5-2-7h5v-5h-10c-1 0-4-1-5-1-7 0-13 6-14 13 0 3 1 6 3 8-3 0-5 2-5 5 0 2 1 4 4 5-4 2-7 6-7 10 0 6 7 13 17 13s19-6 19-13zm-12-29c0 3-3 7-6 7s-6-3-6-7 3-7 6-7 6 3 6 7zm2 29c0 4-4 6-9 6s-9-2-9-6 3-6 9-6c5 0 9 3 9 6z"/>
  <path d="m4075 284 3-8c-1-1-5-2-8-2s-5 1-7 4v-3h-9v36h9v-23c0-4 2-6 5-6 2 0 4 1 7 3z"/>
  <path d="m4112 257h-10l-11 14h8l13-14zm5 36v-3c0-10-6-17-17-17-12 0-18 9-18 19 0 11 7 18 19 18 5 0 10-1 15-3v-7c-6 3-7 3-15 3-6 0-10-5-10-10h26zm-9-6h-17c1-4 3-7 8-7s8 2 9 7z"/>
  <path d="m4156 299c0-7-6-10-13-11h-2c-3 0-7-1-7-4s4-4 7-4c6 0 6 0 12 3v-7c-4-1-8-2-13-2-8 0-16 3-16 11 0 7 5 9 12 11h2c3 1 7 1 7 4s-4 4-7 4c-7 0-8-1-14-3v8c4 1 10 2 14 2 8 0 17-3 17-11z"/>
  <path d="m3711 373c-1 1-1 1-3 1-1 0-2 0-2-2v-15c0-8-6-13-16-13-4 0-9 1-13 4v7c4-3 7-4 13-4 4 0 8 2 8 6v1c-2 0-5-1-8-1-9 0-16 4-16 12 0 7 5 12 13 12 4 0 8-1 11-4 0 2 2 4 6 4s8-5 8-8zm-14-9c0 6-2 10-9 10-3 0-6-1-6-5s1-5 7-6c3 0 5 0 7 1z"/>
  <path d="m3753 380v-36h-9v20c0 5-3 9-9 9-5 0-7-3-7-8v-21h-9v21c0 9 4 15 14 15 4 0 8-2 10-5v4h9z"/>
  <path d="m3820 369c0-7-6-10-13-11h-2c-3 0-7-1-7-4s4-4 7-4c6 0 6 0 12 3v-7c-4-1-8-2-13-2-8 0-16 3-16 11 0 7 5 9 12 11h2c3 1 7 1 7 4s-4 4-7 4c-7 0-8-1-14-3v8c4 1 10 2 14 2 8 0 17-3 17-11z"/>
  <path d="m3852 379v-7c-2 1-5 1-7 1h-1c-4 0-5-1-5-5v-19h10v-6h-10v-10h-5l-3 10h-4v6h4v19c0 9 4 12 14 12 2 0 5 0 7-1z"/>
  <path d="m3896 373c-1 1-1 1-3 1-1 0-2 0-2-2v-15c0-8-6-13-16-13-4 0-9 1-13 4v7c4-3 7-4 13-4 4 0 8 2 8 6v1c-2 0-5-1-8-1-9 0-16 4-16 12 0 7 5 12 13 12 4 0 8-1 11-4 0 2 2 4 6 4s8-5 8-8zm-14-9c0 6-2 10-9 10-3 0-6-1-6-5s1-5 7-6c3 0 5 0 7 1z"/>
  <path d="m3938 380v-21c0-9-4-15-14-15-4 0-8 1-11 4v-3h-9v36h9v-20c0-6 4-9 9-9s7 3 7 8v21h9z"/>
  <use transform="translate(-393,210)" xlink:href="#d"/>
  <path d="m4030 373c-1 1-1 1-3 1-1 0-2 0-2-2v-15c0-8-6-13-16-13-4 0-9 1-13 4v7c4-3 7-4 13-4 4 0 8 2 8 6v1c-2 0-5-1-8-1-9 0-16 4-16 12 0 7 5 12 13 12 4 0 8-1 11-4 0 2 2 4 6 4s8-5 8-8zm-14-9c0 6-2 10-9 10-3 0-6-1-6-5s1-5 7-6c3 0 5 0 7 1z"/>
  <path d="m4059 354 3-8c-1-1-5-2-8-2s-5 1-7 4v-3h-9v36h9v-23c0-4 2-6 5-6 2 0 4 1 7 3z"/>
  <use transform="translate(-275,210)" xlink:href="#d"/>
  <path d="m3776 952c-3 6-7-5-11-1-7 2-15 6-16 14-1 7-2 14 0 21 2 5 8 9 13 6 7-3 12-9 16-15 6-4 4 6 1 8-5 8-14 17-25 14-7-2-13-9-12-17 0-8-1-17 2-25 5-8 14-13 23-13 4 0 9 3 9 7z"/>
  <path d="m3794 945c2 1 2 4 0 6-1 2-3 5-3 8 0 2-1 5-3 5s-4-2-3-5c1-1 1-3 1-5s0-5 2-7c1-2 3-4 6-2z"/>
  <path d="m3821 971c-3-4-8-6-13-5-4 1-8 5-9 9 7 0 14-1 21-3 0 0 1 0 1-1zm9 11c3 4-3 9-6 12-7 5-17 7-24 2-8-5-10-17-6-25 4-5 10-12 17-10 5 0 11 2 14 7 4 5-1 10-7 10-7 1-14 2-20 2-2 5 3 10 7 12 7 3 14-1 18-6 2-1 4-4 6-5z"/>
  <path d="m3835 994c0-5 5-1 6 1 4 3 10 3 12-1 4-5-2-8-6-9-5-1-10-3-13-8-1-5 3-9 6-12 4-3 10-3 15-3 3 1 7 5 5 8-3 1-5-4-9-3-5 1-9 3-12 7 1 4 8 5 12 6s9 4 9 9c0 7-6 15-14 13-4 0-10-1-11-7v-2 1e-5z"/>
  <path d="m3876 963c-4 0-8 1-12 1-4-1-1-5 2-5 3-1 7-1 10-2 1-2 0-5 0-7 0-4-1-7 0-11 0-2 4-3 5-1 1 6 1 12 2 18 4 0 7-2 11 0 3 1 0 5-2 5-3 1-6 1-9 2 0 11 1 21 3 32 0 3 1 5 1 8-1 2-5 2-7 0-2-4-1-8-1-13-1-8-2-17-3-26z"/>
  <path d="m3921 969c0-1 1-2 3-3 1-1 1-1 1-3 0-1 1-3 1-4 1-1 3-1 4 0 0 1 2 1 3 1 4-1 7-2 11-2 3 0 6 0 9 1 2 1 5 2 6 5s0 7 0 10c-1 4-3 7-5 11-3 5-7 9-13 10h-7s-1 0 0 0l3 15c0 1 0 3-1 4s-3 1-4 0c-1 0-2-2-2-4-2-7-3-14-4-22 0-5-1-10-1-16 0-1 0-2-1-2s-3 0-3-1zm32-4h-5c-4 0-8 0-13 2-1 0-2 0-3 1 0 6 0 12 1 18 0 1 0 2 1 3 1 0 2 0 4 1h3c2-1 4-3 6-5 3-3 5-7 6-11 1-2 1-5 0-7 0 0-1-1-1-2z"/>
  <path d="m3984 991c0-2 4-3 4-5-2-2-5-2-7-2-4 0-8 1-10 5-2 3 0 5 3 5s6-1 9-3zm12 4c0 2-3 5-5 2-1-1-1-5-2-6-3 3-8 6-12 7-3 0-7 0-10-2-2-2-2-6-2-9 1-4 5-7 9-8s9-3 13-1c1 1 4 3 3 0 0-4 0-8-2-11-1-3-5-2-7-1-4 1-8 3-13 4-3 1-3-4 0-5 4-2 8-3 12-4s9-2 12 1 4 7 4 11c0 7 0 14 1 21z"/>
  <path d="m4002 994c1-6 5-1 7 1 3 3 9 2 11-2 4-4-1-8-5-8-4-2-9-2-13-6-4-3 0-9 2-12 3-4 8-5 14-5 3 0 6 0 8 2 3 2 2 8-2 5-3-4-8-2-12 0-4 1-10 7-2 9 5 2 12 3 16 7 3 6-1 15-8 17-4 0-9 0-13-2-2-1-3-4-3-6z"/>
  <path d="m4068 963c-4 0-8 1-12 1-4-1-1-5 2-5 3-1 7-1 10-2 1-2 0-5 0-7 0-4-1-7 0-11 0-2 4-3 5-1 1 6 1 12 2 18 4 0 7-2 11 0 3 1 0 5-2 5-3 1-6 1-9 2 0 11 1 21 3 32 0 3 1 5 1 8-1 2-5 2-7 0-2-4-1-8-1-13-1-8-2-17-3-26z"/>
  <path d="m4117 965c5 0 4 5 0 6-6 3-10 9-13 16-2 4-1 10-4 14-5 2-5-5-5-9-1-9-2-18-1-27 0-5 7-3 5 2 0 4 1 8 2 12 3-6 9-11 16-13h2z"/>
  <path d="m4128 967c5-5 12-8 19-8 5 0 13 1 14 7 2 10-1 21-8 28-7 6-19 8-26 2-4-4-7-9-6-15 0-5 3-10 7-14zm12 27c7 0 11-8 14-14 1-5 4-14-4-14-5 0-10 0-14 3-5 4-10 9-8 16 1 6 7 9 12 9z"/>
  <path d="m4166 969c0-3 4-3 4-6 0-2 2-6 5-4 1 2 4 1 6 1 6-1 13-2 19 0 4 1 6 5 6 9 0 6-3 12-6 17-3 6-10 10-17 10h-4c1 6 3 11 3 17 0 3-3 4-5 2-2-1-2-4-2-6-3-11-3-23-5-35 0-3-4-1-4-4zm32-4c-3-1-7 0-10 0s-7 1-10 2c0 7 0 14 2 20 1 1 3 1 5 2 3 0 6-2 8-5 4-4 7-9 7-15 0-2 0-4-2-6z"/>
  <path d="m4243 963c-4 0-8 1-12 1-4-1-1-5 2-5 3-1 7-1 10-2 1-2 0-5 0-7 0-4-1-7 0-11 0-2 4-3 5-1 1 6 1 12 2 18 4 0 7-2 11 0 3 1 0 5-2 5-3 1-6 1-9 2 0 11 1 21 3 32 0 3 1 5 1 8-1 2-5 2-7 0-2-4-1-8-1-13-1-8-2-17-3-26z"/>
  <path d="m4295 957c-3 0-4-3-7-5-1-1-4-6-5-2-2 2-3 6-6 8-2 1-5-1-3-3 1-2 3-4 4-6s3-5 5-6c3 0 4 3 6 4 2 2 5 5 7 8 0 1 0 3-2 3zm-26 11c4-3 9-7 15-8 5 0 10-1 14 1s5 7 5 11c0 7-3 14-7 20-5 7-16 9-24 6-4-2-7-5-9-9-1-4-1-8 0-12s3-7 6-10zm12 27c5 0 9-4 11-8 3-5 4-11 4-16-1-2-4-3-7-3-4 1-8 0-12 3-3 3-7 6-9 10-1 5 0 11 5 13 2 1 5 2 7 2z"/>
  <path d="m4320 961c-4 0-8 1-12 1-4-1-1-5 2-5 3-1 7-1 10-2 1-2 0-5 0-7 0-4-1-7 0-11 0-2 4-3 5-1 1 6 1 12 2 18 4 0 7-2 11 0 3 1 0 5-2 5-3 1-6 1-9 2 0 11 1 21 3 32 0 3 1 5 1 8-1 2-5 2-7 0-2-4-1-8-1-13-1-8-2-17-3-26z"/>
  <path d="m4367 934c-4-6 10-5 10-2-3 17-2 35-4 52-5 5-4-6-4-9 0-13-1-27-1-40zm1 66c-8-2 2-14 7-7 1 4-2 10-7 7z"/>
 </g>
 <use transform="translate(-936)" xlink:href="#e"/>
 <g transform="translate(-411,-217)">
  <g id="i" stroke-width="2">
   <path d="m729 513c-41 8-77 31-93 67"/>
   <path d="m764 488c-21-2-70 6-82 18"/>
   <path d="m685 569c-40 17-66 47-75 87"/>
   <path d="m649 649c-21 62-40 94-94 135"/>
   <path d="m636 711c-15 63-40 98-88 130"/>
   <path d="m677 579c-38 46-62 113-111 140"/>
   <path d="m661 614c-28 44-48 94-97 133"/>
  </g>
  <use transform="matrix(-1,0,0,1,1660,0)" xlink:href="#i"/>
 </g>
 <g transform="translate(114,229)">
  <circle cx="217" cy="291" r="13"/>
  <circle cx="393" cy="291" r="13"/>
 </g>
 <path id="j" d="m369 693c10 15 10 17 20 22s20 8 30 8 20-3 30-8 20-13 20-22h-100z"/>
 <g id="e" transform="translate(-473,-217)">
  <use transform="translate(-471,217)" xlink:href="#b"/>
  <g id="h">
   <path d="m1630 750c-20 54-40 92-90 120"/>
   <path d="m1640 664c-20 64-50 106-100 150"/>
   <path d="m1668 592c-30 40-50 104-100 136"/>
   <path d="m1740 503c-40 2-60 8-90 40"/>
  </g>
  <use transform="matrix(-1,0,0,1,3660,0)" xlink:href="#h"/>
 </g>
 <g transform="translate(53,232)">
  <circle cx="1200" cy="280" r="16"/>
  <circle cx="1400" cy="280" r="16"/>
 </g>
 <ellipse cx="1355" cy="708" rx="36" ry="28"/>
 <g id="b" transform="translate(-524,-207)">
  <use transform="translate(-407,207)" xlink:href="#a"/>
  <g id="g">
   <path d="m2700 522s-40-7-60 46c-10 52-20 65-80 132"/>
   <path d="m2620 762c-20 54-40 92-90 120"/>
  </g>
  <use transform="matrix(-1,0,0,1,5640,0)" xlink:href="#g"/>
 </g>
 <rect transform="matrix(.967 -.254 .285 .958 0 0)" x="2845" y="1515" width="108" height="19"/>
 <g id="yeux_sceptiques" transform="translate(-740,233)">
  <path id="oeuil_sceptique" d="m3850 278c20-6 50 2 60 18-10 9-40-1-60-18z"/>
  <use transform="matrix(-1,0,0,1,7940,0)" xlink:href="#oeuil_sceptique"/>
 </g>
 <g id="a" transform="translate(-280,-217)">
  <ellipse id="crane" cx="3510" cy="771" rx="200" ry="300" stroke-width="7"/>
  <g transform="translate(3230,441)" stroke-width="4">
   <path d="m114 257c17-47 89-49 123-30 51 32-16 116-60 114-34 2-72-42-63-84z"/>
   <g transform="matrix(-1,0,0,1,559,0)">
    <path d="m114 257c17-47 89-49 123-30 51 32-16 116-60 114-34 2-72-42-63-84z"/>
   </g>
   <path d="m221 220 116 1"/>
   <path d="m254 248h50"/>
  </g>
  <g id="narines">
   <circle cx="3490" cy="825" r="5"/>
   <circle cx="3530" cy="825" r="5"/>
  </g>
  <g id="f">
   <path d="m3340 611c-20 63-50 109-100 150"/>
   <path d="m3320 681c-20 58-40 103-90 140"/>
   <path d="m3310 741c-20 51-40 94-90 120"/>
  </g>
  <use transform="matrix(-1,0,0,1,7020,0)" xlink:href="#f"/>
 </g>
 <g transform="translate(-302,223)">
  <path id="oeuil_colere" d="m2490 293c20-13 50-14 60 0-10 12-40 12-60 0z"/>
  <use transform="matrix(-1,0,0,1,5200,0)" xlink:href="#oeuil_colere"/>
 </g>
 <use transform="matrix(1,0,0,-1,1880,1430)" xlink:href="#j"/>
 <path id="RIP" d="m4190 600v-49c0-60 20-147 90-147 60 0 90 107 90 177v60zl-420 177 190 50 410-186z" stroke-linejoin="round" stroke-width="6px"/>
</svg>
