<?xml version="1.0" encoding="UTF-8"?>
<svg version="1.0" viewBox="0 0 1876.4 592.34" xmlns="http://www.w3.org/2000/svg"
     stroke="#000" stroke-width="1" font-family="Purisa" font-size="53" font-weight="bold" letter-spacing="-2" word-spacing="-9" text-anchor="middle">
<metadata xmlns:rdf="http://www.w3.org/1999/02/22-rdf-syntax-ns#" >
 <rdf:RDF xmlns:cc="http://creativecommons.org/ns#" xmlns:dc="http://purl.org/dc/elements/1.1/">
  <dc:source>https://github.com/cpp-frug/materials/blob/gh-pages/images/cpp-complexe-cppfrug.svg</dc:source>
  <cc:Work rdf:about="https://github.com/cpp-frug/materials/blob/gh-pages/images/cpp-complexe-cppfrug.svg">
   <dc:format>image/svg+xml</dc:format>
   <dc:type rdf:resource="http://purl.org/dc/dcmitype/StillImage"/>
   <dc:creator>AKP</dc:creator>
   <dc:contributor>Oliver H</dc:contributor>
   <dc:language>fr</dc:language>
   <dc:date>2017</dc:date>
   <cc:license rdf:resource="http://creativecommons.org/licenses/by-sa/3.0/"/>
  </cc:Work>
  <dc:rights>CC BY-SA 3.0</dc:rights>
   <cc:License rdf:about="http://creativecommons.org/licenses/by-sa/3.0/">
    <cc:permits rdf:resource="http://creativecommons.org/ns#Reproduction"/>
    <cc:permits rdf:resource="http://creativecommons.org/ns#Distribution"/>
    <cc:permits rdf:resource="http://creativecommons.org/ns#DerivativeWorks"/>
    <cc:requires rdf:resource="http://creativecommons.org/ns#Notice"/>
    <cc:requires rdf:resource="http://creativecommons.org/ns#Attribution"/>
    <cc:requires rdf:resource="http://creativecommons.org/ns#ShareAlike"/>
   </cc:License>
 </rdf:RDF>
</metadata>
<defs>
 <linearGradient id="postit_fill" x1="171" x2="181" y1="343" y2="378" gradientTransform="matrix(.9 -.1 .1 .9 1378 218)" gradientUnits="userSpaceOnUse">
  <stop stop-color="#ee0" offset="0"/>
  <stop stop-color="#ff9" offset="1"/>
 </linearGradient>
</defs>
<path d="m980.4 102.8c2.8 2.9 5.2 5.8 5.2 6.5 0 1.5-7 8.3-8.5 8.3-.5 0-2-.8-3.3-1.9-2-1.6-2.1-2.2-1-3.9 2.2-3.5 0-3.5-3.6-.1-6.7 6.6-16.6 10.1-18 6.5 3.952-7.757 14.24-18.3 22.9-20.5.6 0 3.4 2.3 6.3 5.1zm-75.2 7c.3.6 1.7.9 3 .6 1.3-.2 2.9.2 3.5.9 1.4 1.7 4.1 1.8 5.6.3.8-.8 1.7-.8 3.2.1 1.2.6 4.5 1.3 7.3 1.5 3.9.2 5.4.8 5.9 2.2.4 1 2.1 3.1 3.7 4.7 2.3 2.1 3.7 2.7 5.5 2.3 3.3-.9 8.6 2.9 8.7 6 0 .9-1.5 1.3-4.3 1.3-3.3 0-5.5.8-8.5 3-4.5 3.2-9.2 11.2-9.2 15.6 0 2.1-.3 2.5-1.7 1.8-1-.5-4-.9-6.8-1-4.7-.2-5-.3-5.9-3.4-.6-1.8-3.3-5.8-6.2-9 0 0-3.125-2.701-5.3-3.556-2.175-.856-6.3-1.644-6.3-1.644-3.8.3-8.4 1.4-11.5 2.9-4.4 2-5.7 3.3-8.5 8.4l-3.3 6.1-4-.7c-2.2-.3-5.5-1-7.2-1.6-2.9-.9-3.3-1.5-3.3-4.5 0-3.9 5.9-16.4 7.8-16.4.7 0 2.3-1 3.5-2.3 4.5-4.7 11.6-8.6 16.9-9.3 2.9-.4 6.1-1.4 7.1-2.3 1.1-.9 2.9-1.5 4.2-1.3s2.6-.2 3-.7c.8-1.4 2.2-1.4 3.1 0zm93.1 3.5c.6.9 1.4 3.3 1.8 5.3.5 2.9 1.6 4.5 4.5 6.7 6.9 5.2 7.7 9.1 4.6 22.7-1.3 5.8-2.3 8-3.9 8.9-3.3 1.7-20.7 2.3-25.3.8-8.9-2.9-14.6-9-16.4-17.5-.9-4.4-.8-5.8.9-9.7 3.2-7.5 6.9-7.7 15.7-.7 3.5 2.8 6.4 5.7 6.4 6.5 0 2.1-9.4 1.9-13.1-.3-1.5-.9-3.2-1.4-3.6-.9-1.1 1.1 3.6 4.4 7.4 5.1 3.5.6 6.7 4.3 7.8 8.8.4 1.5 1.1 2.7 1.6 2.7 1.2 0 1.1-1.8-.6-6.5-1.7-4.8-1.7-4.5-.7-4.5.5 0 1.4 1.1 2 2.4 1.5 3.3 8 5.2 12.6 3.6 4.1-1.3 6.8-4.2 6-6.3-.3-.8.2-2.6 1-3.9.9-1.4 1.3-2.7 1-3.1-.8-.7-5.4 1.4-5.4 2.5 0 .5-.9.4-1.9-.2-3.3-1.7-6.1-1.2-6.1 1 0 1.7.7 2 3.8 2 4.8 0 5.7.8 3.5 3.2-1.9 2.2-9 2.5-11.8.5-1.6-1.2-1.7-1.8-.6-4.8 1.1-3.1 1-3.6-1.3-5.4-1.4-1.1-4.5-3.6-6.9-5.5l-4.4-3.5 3.1-3.8c6.2-7.8 14.9-10.6 18.3-6.1zm-24.3 6.3 1.9 2.1h-4.5c-4.1 0-4.7.3-6.9 3.7-1.4 2.1-3 5-3.7 6.5-1 2.5-1.4 2.7-3.7 1.6-2.8-1.3-3.2-2.3-1.1-3.1.8-.3 1.7-2.3 2.1-4.5.5-3.4 1.2-4.2 4.6-5.7 2.1-1 4.4-2.4 5-3.1 1.3-1.6 3.4-.7 6.3 2.5zm-20.2 2.3c.38-.03 1.5 1.3 1.6 2.2.3 1.2-.1 1.7-1 1.4-.7-.3-1.55-1.75-1.6-2.2s-6.85-3.85-7.9-4-4.1-.5-4.4-.5c-.4-.1-.9-1-1.2-2.1s-1.2-2-2.1-2-1.6-.8-1.6-1.9c0-2.1-2.2-3.3-4.5-2.5-.8.4-2.2.1-3-.6s-2.5-1-3.7-.7c-1.3.3-3.2-.1-4.2-.9-1.7-1.2-2.2-1.2-3.8.3-2 1.7-2.8 1.3-4.2-2.2-.2-.6-1.2-.5-2.6.3-2 1.2-2.5 1.1-4.3-.6l-2-2.1-1.7 2.2c-1.6 1.9-2 2-3.5.7-1.4-1.2-1.9-1-3.9 1.4-1.7 2.2-2.7 2.7-4.5 2.1-1.3-.4-2.8-.2-3.6.5-1.2 1-1.8 1-3 0-.9-.7-1.6-1.1-1.8-.9-.1.2-.7 1.3-1.3 2.4s-2 2.2-3 2.4-2.3.9-2.7 1.7-1.5 1.4-2.3 1.4-1.8 1-2.3 2.1c-.4 1.2-2.2 2.7-4.2 3.3-2.5.8-3.4 1.7-3.4 3.3 0 1.2-.8 3.1-1.7 4.3-1 1.1-1.8 2.7-1.8 3.4 0 .8-.6 2.1-1.4 2.9-.8.7-1.4 2.9-1.3 4.8.2 3.1-.1 3.4-2.8 3.7-5.595 1.36-8.268 4.602-9 .9-.9-.4-1.2-2.2-.9-6.6.2-3.5-.1-6.1-.6-6.1-.6 0-1-1.6-1-3.6 0-2.9.8-4.4 4.1-7.6 2.6-2.5 3.8-4.5 3.5-5.5-.4-.9-.1-2.2.5-2.9s.8-1.7.5-2.2.3-1.7 1.4-2.7c1.2-1.1 1.8-2.6 1.5-3.6-.4-1 .2-2.3 1.3-3.1 1-.7 2.1-2.1 2.5-3 .4-1.1 1.2-1.5 2.2-1.2 1.1.5 1.8 0 2.2-1.5.3-1.2 1.3-2.1 2.4-2.1 1.2 0 1.9-.7 1.9-2 0-1.1.5-2.1 1-2.1.6-.1 1.4-.2 2-.3.5 0 1.7-1.1 2.6-2.4 1-1.4 2.2-2.1 3.2-1.7 1.1.3 2.8-.6 4.5-2.4 2.1-2.2 3.5-2.9 6.4-2.8 2.1 0 4.5.6 5.5 1.4 1.1 1 1.8 1.1 2.3.4.3-.6 1.7-1.1 3.1-1.1 1.3 0 2.4-.6 2.4-1.3s.5-1.8 1.2-2.5c.9-.9 1.6-.8 3 .5s2.1 1.4 3 .5c1.5-1.5 4.1-1.5 5.6 0 .6.6 3.5 1.3 6.4 1.4 4.3.2 5.7.8 7.3 2.8s2.4 2.3 3.8 1.5c1.9-1.1 4.8-.5 4.6.8-.4 2.3.3 3.3 2.5 3.3 1.7 0 2.6.7 3 2.5.4 1.4 1.3 2.5 2 2.5.8 0 1.9 1.3 2.5 3 .5 1.6 1.6 3 2.3 3s2.4 1.6 3.7 3.5c1.3 2 4.746 5.246 5.346 5.046 2-.7-1.346-5.946-5.546-10.25-2.3-2.3-5.1-5.3-6.2-6.8-1.1-1.4-2.6-3.1-3.3-3.8s-2.7-2.4-4.3-4c-1.7-1.5-4.1-2.7-5.6-2.7s-3.4-.7-4.3-1.5c-1.5-1.3-6-2.3-18.5-4-1.6-.2-3.9-.7-5-1-1.4-.4-2.8.2-4.5 2v-5e-4c-2.2 2.3-2.9 2.5-7.5 2-5.7-.7-10.2.6-12.3 3.6-.9 1.3-2 1.8-3.4 1.4-2.2-.8-9.3 3.6-10.9 6.7-.5 1-1.6 1.8-2.3 1.8-.8 0-1.6.7-2 1.5-.3.8-1.1 1.5-1.9 1.5-1.5 0-6.7 7.4-6.7 9.5 0 .7-.8 2.3-1.9 3.6-1 1.3-2.1 4.2-2.5 6.4-.5 2.6-2 5.3-4.2 7.6-3.3 3.4-3.5 3.9-2.9 8.5.4 2.7.7 5.6.7 6.4s.4 4.1.9 7.2l1 5.7-4 3.7c-6.6 5.9-8.1 16.5-3.6 25.3 3.1 6.3 7.6 9.1 14.3 9.1h5l.6 7.2c.3 4 .7 10.4.9 14.2.2 6.9.2 6.9-2.8 7.8-3.2 1.1-34.2 16.2-41 20.1-2.2 1.2-6.8 3.9-10.3 6-3.5 2-6.5 3.7-6.7 3.7-.3 0-3.9 2.2-8.2 4.9-9.2 5.9-24.2 18.4-27.2 22.6l-2.1 3.1 2.1 7.4c2 7.1 5.9 15.3 14.4 30 2.1 3.6 5.4 9.2 7.3 12.6 5.1 9.1 11.1 16.8 16.7 21.2 2.8 2.2 7.4 6.4 10.4 9.2s7.5 6.3 10 7.7c2.5 1.5 6.1 3.7 7.9 5.1 3.1 2.3 3.4 2.3 5.2.7 1-.9 2.3-1.5 2.7-1.2.9.6.9 80.4 0 84.7-.3 1.4-1.1 6.9-1.8 12.2-1 7.8-1 10 .1 11.2 2.1 2.6 2.9.9 2.9-5.9 0-3.5.5-10.1 1.1-14.7s1.3-10.2 1.6-12.5c.3-2.4.9-4.5 1.4-4.8s3.5-1 6.7-1.6c8.7-1.6 17.1-6.4 20.5-11.8 2.5-4 2.8-5.4 2.8-12.8 0-4.6.2-8.3.5-8.3.2 0 4.5 1.4 9.5 3.1 7.2 2.5 9.3 2.9 10.5 1.9 1-.8 3.3-1 7.3-.5l5.9.7-.5 8.1c-.2 4.5-.7 8.5-1.1 8.8-.5.5-8.9 2.6-14.1 3.5-2.1.4-18.3 2.4-19.2 2.4-.5 0-1.3 1.1-1.7 2.4-.7 1.6-.2 5.7 1.6 13.7 5 22.8 6.2 30.3 5 31.2-.7.4-6.1.6-12.2.3-10.9-.6-81.4-1.9-107.5-2-10.3-.1-13.5.2-13.5 1.2 0 1.3 4.5 1.5 91.5 2.7 23.3.4 42.8.9 43.2 1.1.4.3 1 2.1 1.3 4.2.4 2 1.3 7 2.1 11.1.8 4 2.3 13 3.4 20 1.1 6.9 3.1 16.6 4.4 21.6 2.102 3.419 2.6 11.8 2.6 11.8s3.564-.02 7.3-1.1c5.4-1.7 41.5-7.5 43-6.9.9.3 1.7 2.8 2.1 6.4.4 3.2 1 6.8 1.3 8 .5 2.2.3 2.3-7.5 2.3h-8.1l-1.6 5.7c-.9 3.2-1.8 6.5-2.1 7.5-.3.9.7 3.3 2.1 5.3 1.4 2.1 2.5 4.2 2.5 4.6 0 .5 1.1.9 2.5.9 3.2 0 3.1-.6-.5-5.4-3-3.9-3.9-7.9-2.1-9 .8-.5 3.3 2 11.5 11.9 2.3 2.7 2.6 2.9 4.1 1.4 1.5-1.4 1-2.2-6-9.3-4.1-4.2-7.3-8.1-7-8.7.4-.5 3.5-.9 7-.9 6.1 0 6.5.2 7.9 2.9 1.5 2.9 15.3 16.1 16.8 16.1 2.6 0-.1-4.3-5.7-9.3-3.6-3.2-6.5-6.2-6.5-6.8 0-.5 1.7-.8 3.8-.7 2.2 0 4.4-.2 5-.6 2.7-1.6.8-2.6-4.8-2.6-5.3 0-6.1-.3-6.9-2.2-1.1-2.7-3.4-17.8-2.9-18.4.5-.4 48-8.5 48.4-8.2.4.5 2.4 19.2 2 19.5-.1.2-2-1.1-4.2-2.8-1.744-1.219-4.092-2.144-6.1-.2-2.7 3.3-2.7 3.8-.9 9.1 2.2 6.2 5.4 10.4 10.7 14 2.6 1.9 5.5 4.9 6.4 6.8 1 2.1 2.3 3.4 3.5 3.4 2.4 0 2.4.1.5-4.3-.9-2.2-3.3-4.7-6.7-7-6.6-4.4-8.2-6.1-10.8-11.9-1.7-3.8-1.9-7.8-.4-7.8 1.3 0 17.9 12.9 21.3 16.5 4.2 4.5 5.5 5.3 6.5 3.6.5-.8-.1-2.5-3.3-8.7-.3-.7-3-4.7-5.8-9-7.8-11.6-8.1-17.9-.9-17.2 3 .3 6.9 5.1 20.7 25.8 3.3 5 3 .9-.5-7.3-4.6-10.8-7.7-22.7-6.3-24.5.6-.7 2.2-1.2 3.6-1 2.7.3 5.2 3.5 12.3 15.3 2.3 3.8 6 9.9 8.3 13.5s4.5 7.3 4.8 8.2c.7 1.9 2.7 2.5 2.7.8 0-.6-.8-2.7-1.9-4.8-2-4-1.6-6.5 2.3-12.9 2.4-4 8.7-6.8 11.6-5.3 2.6 1.4 2.5 2.1-.5 7.8-1.7 3.2-2.8 7.6-3.5 14.2-.6 5.2-1.3 11-1.6 12.8-.6 2.9-.4 3.3 1.2 3 1.1-.2 2-1.3 2.2-2.6.2-1.5 1-2.2 2.5-2.2 5.2-.1 16.8-1.1 23.9-2.1 4.2-.6 8.2-.8 8.8-.4s12.2.7 25.8.7l24.7-.1 5.2 3.5c2.9 1.8 5.6 3.4 6 3.4 1.5 0 10.3-23.8 10.3-27.6 0-.9 1.1-1.4 3.1-1.4 3.8 0 6.9-1.6 6.9-3.6 0-1.1-.5-1.4-1.7-.9-3.4 1.3-19.8 1.7-24 .6-2.4-.6-6.2-1.6-8.5-2.1-12-2.9-18.8-7.6-18.8-13 0-2.8 2.5-7.5 6.6-12.7 2.8-3.3 3.4-5 3.4-8.7 0-6 1.6-6 6.6.4 2.1 2.7 4.6 4.9 5.5 5 2.4 0 4.9-3.3 4.9-6.6 0-3.5-4.5-11.1-9.2-15.4l-3.3-3 2.5-2.1c1.9-1.6 3.3-2 6.3-1.5 2.8.5 3.8.3 3.5-.6-.5-1.5-2.1-2.3-9.1-4.9-4.1-1.5-6.1-2.8-7.2-4.9-1.4-2.6-1.3-3 1.5-6.8 3-4.2 9.9-8 23.7-13.3 3.5-1.3 6.5-3.1 6.8-3.9s2.1-3.3 4-5.4c2.9-3.3 3.7-3.7 5-2.6 2 1.7 4.4-.2 2.8-2.2-1.7-2.1-1.6-16.9.1-21.9 1.6-4.7 1.2-6.5-.9-3.6-1.3 1.8-3.5 14.2-3.5 19.7 0 3.5-1.6 4-2.6.7-1.3-4-.6-12.1 1.6-18.2 5.8-15.6 19.3-25.1 36.3-25.6 6.3-.2 16.7-4.352 9.78-4.317-3.1-.8-20.18 1.917-22.78 3.217-1 .5-5.2 2.5-9.4 4.6l-7.5 3.8-34.5-1.7c-18.9-.8-38-1.5-42.4-1.5-4.4.1-13.6-.3-20.5-.9-6.8-.5-12.6-.8-12.9-.6-.4.4-1.9 52.8-2 70.5l-.1 8.5h-16.5l-.7-4.7c-.3-2.7-2-9-3.7-14-1.6-5.1-3.7-13.1-4.6-17.8-3.7-19.5-7.7-37.6-8.4-38.3-.4-.4-1.9-.4-3.2.1-2.8 1.1-30.1 6.4-43.9 8.6-5.2.8-12.5 2-16.1 2.5-8.8 1.4-8.6 1.5-8.6-1.6 0-1.6-.6-8.7-1.2-15.8-4.9-52.7-5.1-72.9-.6-97.5.7-4.1 1.7-13.7 2.1-21.2l.7-13.7 5.1-.6c2.8-.3 7.9-.7 11.4-1s8.2-1 10.5-1.6c8.7-2.3 30.2-15.6 37.6-23.2l4.4-4.6-.7-12.3c-.4-7.4-1.6-16.5-3.1-22.8-1.4-5.8-3.4-14.8-4.6-20-1.1-5.2-2.4-10.4-2.9-11.5s-2-6.5-3.3-12c-2.1-8.3-2.4-11.6-2-19.2l.6-9.2-5.5-5.3c-4-3.8-5.7-6.3-6.2-8.9-.8-4.7-3.4-6.9-8.7-7.4-3.7-.3-5.1-1.3-11.3-7.4-4-3.9-7.7-7.1-8.4-7.1-2.5 0-9 4-13.1 8-6.4 6.3-11.55 13.12-11.55 15.92s2.735 4.41 4.648 4.284zm-2.9 13.2c1.8.7 4.8 3 6.7 5 3.3 3.5 3.5 4.2 3.8 11.4.3 6.8.1 8-2 10.7-2.6 3.4-3.1 3.6-10.5 4.3-7.3.6-10.8-1-12.8-6.1-4.3-10.7.2-24.5 8.5-26 1.4-.2 2.6-.5 2.8-.6.1 0 1.7.5 3.5 1.3zm-47.9 4c4.9 2.1 7.8 6.7 7.8 12.6-.1 5.7-1.7 9.3-6.6 13.9-2.7 2.7-4.5 3.5-8.4 3.9-12.9 1.2-18.5-6.7-14.2-19.9 2.5-7.8 2.8-8.2 6.5-10.2s10.5-2.1 14.9-.3zm-47 13.8c1.2 3.7 1.968 9.111 1.068 8.311-1.7-1.7-4.368-7.811-3.868-8.711.8-1.2 2.4-1 2.8.4zm13.9.7c1.9.8 2.6 2.1 3.7 7.3s2 6.9 5.3 10c4.5 4.2 8.4 5.3 16.2 4.5 9.5-1 15.8-5.4 19.4-13.9 2.1-5.1 4.4-6.8 8.8-6.8 3.7 0 4.8.9 5.7 4.4 1.9 7.9 10.6 12.4 21.4 11.2 4.6-.5 5.6-.3 7.6 1.6 1.4 1.3 3.4 4.2 4.6 6.6 3.2 6.2 2 11.8-5.5 24.1-4.7 7.7-16 15-28.1 18.1-15 3.9-33.3.6-46-8-4-2.8-6.4-3.2-6.4-1.1 0 1.8 19.6 11.8 31.3 16 1.4.5.4 1.4-4.7 4.4-3.6 2-7.1 3.7-7.9 3.7-2.5 0-15.2-4.9-21.2-8.2-8.8-4.9-13.3-8-14.4-10.3-1.1-2.2-3.1-20.8-3.1-28.7 0-5.3-1.8-7.1-5.1-5-6.6 4.2-16.8-4.6-16.9-14.5 0-2.5.4-3 1.8-2.7 1.2.4 2.3-.6 3.6-3.1 1.9-3.5 3.9-4.5 5.1-2.4.4.6-.2 1.7-1.4 2.5-2.7 1.9-5.4 7.1-4.7 9 .3.8 1.3 1.4 2.2 1.4 1.2 0 1.5-.6 1-2.3-.4-1.7.1-3 1.9-4.7l2.4-2.3 1 2.4c.5 1.3 1.2 3.2 1.5 4.1.9 2.9 2.6 2 2.6-1.2 0-3.9-2.5-9.9-4.8-11.6-2.7-2.1-6.1-1.6-8.9 1.3l-2.6 2.8 1.7-3.2c3.2-6.4 8.4-7 14.2-1.7 2.1 2 3.391 5.086 3.876 6.279s2.924 1.621 4.524.621c1.2-.7 1.3-4.5.1-6.3-.4-.7-.6-2.5-.3-3.9.4-2.3.8-2.5 4.3-1.9 2.1.3 4.9 1 6.2 1.5zm77.7 63.3c3.25-2.15 10.3-8.7 14.8-17.4 5.3-9.9 6.1-15.1 3.4-21.2-1.3-2.8-3-5-4.5-5.5-3.1-1.2-4-3.5-1.8-4.8 2.8-1.8 5.8-8.9 6-14.6.1-1.6.4-1.5 3.4.5 3.3 2.1 3.5 2.6 5.1 12.6.9 5.7 1.9 17 2.2 25 .3 8.1.7 16.1.9 17.9.3 3.1.1 3.3-5.3 5.3-3.1 1.2-9.5 2.6-14.2 3.1s-10.65 1.35-11.5 1.5-8.85 3.15-9 3.4-1.1 1-1.6 1c-.6 0-.7-.5-.4-1 .3-.6 1.35-1 1.6-1s7.65-2.65 10.9-4.8zm66.3-53.2c2.6 9.1 2.4 9.5-3.9 12.4-4.4 2-7.2 2.6-12.8 2.6-7.6 0-16.6-2.1-18.4-4.3-.6-.7-1.4-4.4-1.8-8.2-.7-6.5-.6-6.8 1.2-6 1 .4 6.4.9 11.9 1.2 8.2.4 11 .1 15.5-1.5 3-1.1 5.8-2 6.1-2.1.3 0 1.3 2.6 2.2 5.9zm4.2 16.2c.3 1.3 2.1 9 4.1 17.3 3 12.6 3.6 17 3.8 27.2l.1 12.2-3.5 3.6c-3.8 4-17.2 13-26 17.6-7.3 3.8-14.4 5.6-26.2 6.4l-9.8.7v-4.1c0-3-.4-4.1-1.5-4.1s-1.5 1.1-1.5 3.9c-1.269 14.81.206 29.79-3.4 46.6-.8 3.3-1.7 8.2-2 11-.9 7.1-1 30.4-.1 41.1.6 7.5.5 9.6-.9 12.5-1.9 3.7-6.8 8.1-9.4 8.4-.9.1-2.4.4-3.2.8-.8.3-4.6 1.3-8.5 2.2-3.8.9-9.6 2.6-12.8 3.7-4.8 1.6-7.1 1.8-13.5 1.2-4.2-.4-12.2-.7-17.7-.8-8.7-.1-10.5-.4-13.5-2.4l-3.5-2.3 4.4.3 4.4.3 1.2-4.5c.6-2.5 1.9-5.9 2.8-7.7 2.3-4.3 2.2-8.9-.3-11-1.4-1.2-1.6-1.9-.8-2.4 1.6-1-.5-7.4-3.5-10.6-1.7-2-3.1-2.3-8.8-2.3-7.6 0-9.9-.6-9.9-2.6 0-.7-.7-1.7-1.5-2.1-3.2-1.8-14.3-13.3-12.8-13.3 2.1 0 1.2-9-2.6-25.5-4.3-18.2-4.2-19 1.9-24.3 2.8-2.4 5-5 5-5.8 0-2.2-.7-1.8-6.8 3.5-5 4.3-18.3 13.1-19.8 13.1-.3 0-2.5 1.4-4.9 3l-4.4 3-6.2-4c-6.6-4.3-7.9-4.7-7.9-2.8 0 .7 2.4 2.6 5.3 4.2 6.2 3.5 12 9.4 19.5 19.6 3 4.1 7 9.1 8.9 11.1l3.4 3.6-8 10.1c-4.4 5.5-10.5 11.9-13.5 14.2l-5.6 4.2-3.3-2.8c-4.8-4.2-24.2-29.3-28.2-36.5-13.5-24.4-16.5-31.1-16.5-36.4 0-3 12.5-14.8 23.5-22 19.4-12.7 65.8-36.5 71.1-36.5.7 0 1.3 3.2 1.6 8.7.7 12 3.7 18.5 12.4 26.9 3.6 3.5 7 6.4 7.5 6.4.4 0 2.5-2.5 4.5-5.7 3.6-5.6 10-12.2 14.1-14.4 1.7-.9 2.9-.9 5 0 3.2 1.3 11.2 8.7 16 14.6l3.1 4 3.7-4c5.1-5.6 10.6-17.6 11.2-24.5l.5-5.6 7.2-2.2c4.9-1.5 9.7-2.2 15.3-2.2 5.9 0 9.4-.5 12.8-2 7-3 7.7-2.8 10.5 4.2 2.7 6.5 5.7 9.4 4.4 4.1-.4-1.5-1-3.3-1.5-3.9-.5-.5-1.5-3.6-2.3-6.8-1.8-6.8-3.2-38.6-1.8-38.6.5 0 2.8.7 5.1 1.5s8.1 1.5 12.9 1.6c6.9.1 9.6-.3 13.2-2 5.7-2.6 6.8-2.6 7.5.1zm-153.2 45.7c5.8 4 19.6 10.8 23.4 11.6 1.8.3 3.5 1 3.8 1.5.3.4-1.5 2.4-3.8 4.3-2.4 2-5.9 5.8-7.8 8.6s-3.8 5.1-4.4 5.1c-.5 0-3.7-2.9-7.1-6.4-5.2-5.3-6.6-7.4-8.3-13.1-1.4-4.5-1.9-7.9-1.5-10.6.4-2.1.9-3.9 1.1-3.9s2.3 1.3 4.6 2.9zm67.4 3.3c-.7 7.6-4.2 16-8.7 21l-3.8 4.3-4.9-4.6c-5-4.8-8.5-7.8-11.7-10.2-2.5-1.8-1.5-4.3 2.1-5.9 1.5-.7 4.5-2.3 6.5-3.5 5.1-3.1 13.6-5.9 18.7-6.2 2.2-.1 2.3.1 1.8 5.1zm-95.8 62c.7 4 2.4 11.8 3.7 17.3 2.4 10.1 3.1 17.5 1.6 17.5-1.2 0-9.8-8.6-13-12.9-1.4-2-5.6-6.9-9.2-11-3.5-4.1-6-7.6-5.3-7.8.6-.2 5.3-2.6 10.4-5.3 5.2-2.7 9.7-4.9 10-4.9.3-.1 1.1 3.2 1.8 7.1zm10.5 44.2c5.6 5.2 7.7 7.7 7.1 8.7-2.4 4-11.6 13.7-18.2 19-5.6 4.6-7.9 5.8-9.5 5.3-3.469-2.054-11.08-7.011-13.7-9.8l-2.3-2.4 3.8-2.5c4.3-2.7 9.1-7.6 14.9-15.2 4.9-6.3 8.7-10.5 9.5-10.5.3 0 4.1 3.3 8.4 7.4zm22.6 13.1c1.9.2 4.1.4 4.8.4 1.2.1 4.2 5.8 4.2 8.1 0 .6-2-.1-4.5-1.6-4.8-2.8-8.8-2.7-6.5.1.7.8 1.8 1.5 2.5 1.5.6 0 3.1 1.4 5.5 3.1 4.7 3.4 4.8 4.6 1.3 14.6-1.8 5.2-1.8 5.3-6 5.3-3 0-5 .7-7.3 2.6-2.9 2.5-8.5 4.3-13.6 4.4-1.4 0-3.1-1.4-4.9-4.3-1.6-2.3-3.4-4.6-4.2-5-.7-.4-1.3-1.3-1.3-2s-.9-2.3-2-3.7c-3.1-3.9-2.4-5.6 3.8-10 3.2-2.3 7.7-6.6 10.1-9.6l4.2-5.4 5.2.5c2.9.3 6.8.8 8.7 1zm85 35.4c0 7.8 0 7.9-2.9 9.1-1.7.6-3.4.9-3.9.6s-1-3.1-1.1-6.3c-.2-5.4 0-5.9 3.1-8.5 1.8-1.5 3.6-2.8 4.1-2.8.4 0 .7 3.5.7 7.9zm-111.1 1.6 4.3 6.4 4.5-.6 4.5-.6-.6 3.8c-.4 2.2-.8 4.1-1.1 4.3-.5.6-7.1-1.5-12.7-4l-4.8-2.1v-6.9c0-3.7.4-6.8.8-6.8.5 0 2.7 2.9 5.1 6.5zm101.1 6.1c0 7 .3 7.2 6 5.3 2.5-.9 3.4-.9 4 .1 1 1.7 2.4 20.9 1.6 21.7-.6.6-7.2 1.8-20.2 3.9l-4.1.6-.6-5.3c-1.2-9.9-1.1-10.6 2.7-11.9 5.7-1.8 7.2-4.5 7.5-13 .3-7.9.7-9.4 2.2-8.5.5.4.9 3.5.9 7.1zm-5.6.6c-.3 4-.8 7.6-1.1 8-.7 1.3-6.7 3.6-11.1 4.3l-4.3.7.3-8.3.3-8.3 7.5-1.7c4.1-.9 7.9-1.7 8.3-1.8.4 0 .5 3.2.1 7.1zm-66.6-3.6c3.1 1.5 7.6 2.9 10 3.2l4.2.5v7.3c0 8.6-.1 8.6-9.4 5.5-7.7-2.7-11.6-5.2-12.3-7.9-.6-2.3.5-11.2 1.3-11.2.3 0 3.1 1.2 6.2 2.6zm-10.2 5.5c-.6 5.7-.4 6.3 1.9 8.5 2.4 2.3 2.5 2.7 1.9 10.1-.9 10.5-2.7 14.2-8.8 18.5-5.4 3.8-18.1 7.5-19.2 5.6-1.1-1.7-1-38.6.1-39.7.6-.6 2.4-.3 5 .9 7 3.1 13.6 5.2 14.3 4.6.3-.4.7-3.2.9-6.3.3-5.5 1.5-8.3 3.6-8.3.6 0 .8 2.2.3 6.1zm57.4 3.9c0 7.7-.1 8-2.5 8.5-1.4.3-3.7.8-5.2 1.2-3.6.9-14.3 1-14.3.2 0-.4-1.5-1-3.4-1.3-3.9-.7-4.6-2.3-4.6-10.4v-5.2h4.8c2.7 0 7.3.4 10.3 1 4.2.8 6.3.6 9.4-.5 2.2-.8 4.3-1.4 4.8-1.5.4 0 .7 3.6.7 8zm191 9.1c10.7.5 30.1 1.2 43 1.5s23.5.6 23.6.7c.2.1-1.3 2.4-3.2 5l-3.4 4.7h-11c-6 0-13.1-.4-15.7-.9-2.6-.6-10.9-1.3-18.3-1.6-7.4-.4-17.8-1-23-1.4s-13.2-.7-17.8-.7l-8.3.1-.4 11c-.3 6-.7 24.3-.9 40.5-.3 16.2-.8 32-1.1 35.1-1.1 8.1-.3 8.5 22 9.4 9.9.3 21.4.8 25.5 1l7.5.4.3 3.3c.5 5.1-1.5 6.9-6.3 5.9-2.2-.5-10.1-1.2-17.5-1.6-18.9-.9-33.1-2.4-35.8-3.7l-2.3-1.2.5-27.6c1.1-55.1 1.8-80.5 2.3-81.3.3-.5 5.1-.6 10.7-.2 5.5.3 18.9 1 29.6 1.6zm-181.5 8.5c.4 4.1.5 7.7.3 7.9s-2.2.7-4.3 1l-4 .7-.3-7.5c-.4-8.1.5-9.6 5.4-9.7 2 0 2.2.7 2.9 7.6zm-10.3 1.6c.2 4 .1 7.6-.2 8.1-.7.8-2.1 1.1-9.7 2.2l-5.3.7v-8.4c0-4.7.2-8.7.4-8.9.3-.2 3.6-.5 7.4-.7l7-.3zm111.2-5.7c.9 2.5 5.4 23.4 6.7 31.5.6 4.1 1.8 9.3 2.6 11.5 2.4 6.7 5.4 18.5 7.3 28.5 1 5.2 2.9 15.3 4.4 22.4 1.4 7.1 2.3 13.3 1.9 13.7-12.78 5.309-29.28 4.764-41.1 7.4-33.15 7.053-67.62 11.54-98.9 17.4-2.8.5-6 1.4-7 1.9-1.8 1-16.3 2.5-16.3 1.7 0-.2-.7-3-1.6-6.2-.8-3.2-1.7-6.7-1.9-7.8-1.4-6.4-2.8-14-5.6-30-1.7-9.9-4.2-23.7-5.5-30.8-1.3-7-2.4-13.7-2.4-15 0-1.2-.9-5.1-2-8.5-1.1-3.5-2-7.6-2-9.1 0-2.6.2-2.7 9.8-4.3 5.3-.9 16.9-3.1 25.7-4.7 23.2-4.5 35.2-6.5 61-10.6 21.3-3.3 45-7.2 57-9.4 7.1-1.3 7.2-1.3 7.9.4zm93.1 7.5c12.1.6 27 1.3 33.1 1.6 13.2.7 13.9 1 12.3 5-.8 1.8-1.2 7.4-1.1 14.4.1 11.1 0 11.6-2.5 14.2-3 3.2-8.3 6.1-16.3 9-3 1.2-6.6 2.9-8 3.8s-3 1.9-3.6 2.1c-.7.2-3 2.7-5.3 5.6-3.4 4.4-3.9 5.6-3.1 7.5 1.4 3.4 3.1 5.3 6.8 7.5l3.2 2-3 2.8c-1.7 1.6-3 3.1-3 3.5 0 .3 2.3 2.3 5.1 4.4 5.3 3.9 9.5 11 8.3 14-.9 2.3-1.3 2.1-6.4-2.9l-4.6-4.5-20.9-.4c-11.6-.2-24.5-.7-28.7-1.1l-7.6-.8.4-35.6c.3-19.6.7-37.6.9-40.1s.4-6.7.4-9.4l.1-4.9 10.8.6c5.9.3 20.6 1.1 32.7 1.7zm-58.1 80c-.2 4.7-.7 10.8-.9 13.6l-.5 5.1 3.8.6c2 .4 9.1 1.1 15.7 1.7s12.4 1.5 12.8 1.9c.5.5.5 5.6.1 11.5l-.7 10.6h-4.7c-5.8 0-7.4 1.5-6.5 6.3.4 1.9.7 8.4.8 14.5l.2 11-6 .4c-3.3.2-6.4 0-6.9-.4-.6-.4-3.8-.8-7.3-.8h-6.2l.5-3.3c1.6-9.3 2.6-13.1 4.4-16.7 2.5-4.9 2.5-7.2 0-9.5-4.5-4.1-14.9.6-18.5 8.4-2 4.5-3.2 5.1-4.3 2.3-1.3-3.2-13.1-21.8-15.6-24.5l-2.3-2.5 2.6-.6c10.17-.882 19.21-1.763 29.4-4.9 2-.7 2.2-3.7.7-9.9-3.3-14-6-26.1-6-27.3 0-1.1 1.9-1.5 7.3-1.7l7.2-.3.7 3c.4 1.6.5 6.8.2 11.5zm55 24.1c5.2 0 7 .9 4.6 2.4-1.9 1.2-6 10.4-6 13.5 0 4.6 6.6 10.5 14.4 12.9 4.3 1.3 6.2 2.4 6.4 3.7.3 1.8-.6 1.9-13.5 1.9-14.6.1-19.7.8-19 2.8.5 1.6 36 1.3 36.5-.3.2-.6-.2-1.7-.8-2.6-1.8-2.1-.6-2.7 3.5-2 3.4.7 3.5.8 3.5 5.6v5l-3.7.1c-2.1.1-10.3.3-18.3.4s-19.8.3-26.3.4c-6.6.1-12.1 0-12.3-.2-.3-.3-.6-4.7-.7-9.8l-.2-9.4 3.3-.3c3.4-.3 3.7.2 3.2 6.9-.2 3.2 3.1 5.9 7.2 5.9 3.7 0 3.6-1.5-.2-2.9-2.3-.7-3-1.6-3-3.5 0-2.2.5-2.5 4.2-2.8 4.5-.3 6.7-2.8 2.4-2.8-1.3 0-3.5-.4-4.8-.9-2.3-.8-2.3-1.1-1.7-9.7.4-4.9.8-10.4.8-12.3l.1-3.3 7.4.7c4 .3 9.8.6 13 .6zm-105.5 8.5c-1.7 1.6-1.5 3.1 1 13.9 1.1 4.5 1.6 4.9-5.2-4-4.3-5.4-6.7-6.2-11.6-3.8l-4.1 2v-2.3c0-1.8.6-2.4 2-2.4 1.2 0 3.5-.8 5.3-1.7 3.1-1.6 8.2-3 12.2-3.2 1.8-.1 1.8 0 .4 1.5zm-14 25.9c1.7 3 3.1 5.7 3.1 6.1 0 1.4-6.4-4.9-6.5-6.4-.1-1-.5-2.8-.9-4.1-1.3-3.9.9-1.6 4.3 4.4zm162.1.2c0 3.6-6.4 21-8.5 23.1-.2.2-1.2-.2-2.3-.9-1.8-1.2-1.9-1.4-.5-2.5 1.2-.8 1.7-3.1 1.9-8 .3-9.9 1.4-12.2 5.8-12.2 2 0 3.6.2 3.6.5zm-13.5 14.8c0 1.7-.7 2-4.5 2.2-10.7.5-43.1.9-50.1.5-7.2-.3-7.6-.5-7.2-2.5l.4-2.2h30.7c30 0 30.7 0 30.7 2z"/>
<path d="m990.7 123.3c-1.8 2.3-2.9 6.4-1.7 6.4.4 0 5.6-7.8 5.6-8.5 0-1.3-2.1-.2-3.9 2.1z"/>
<path d="m926.1 164.7c-.4.6.5 2 1.9 3.1 3.3 2.6 5.6 7 5.6 10.7 0 2.7-.4 3-4 3.6-2.8.4-4 1.1-4 2.2 0 2.3 8.9 1.3 10.7-1.2 1.9-2.6 1.6-7.4-.8-11.4-4.1-6.9-7.8-9.6-9.4-7z"/>
<path d="m922.2 191.4c-.1.2-2.9.4-6.2.4-9.1.2-14.4 3.9-14.4 10 0 2.1.5 4.1 1.1 4.4.6.4 4.7.1 9.1-.6 7.2-1.2 8.7-1.1 14.7.5 13.1 3.6 15.1 3.1 15.1-4.1 0-3.1-.7-4.6-3-6.8-2.6-2.5-4.2-3.1-9.6-3.5-3.6-.3-6.6-.4-6.8-.3zm9.3 6.8c1.7 2 3.1 4.5 3.1 5.5 0 2.4.6 2.4-6-.1-5.4-2.1-8-2.1-20.8-.5-4.1.5-5.3-1.6-2.7-4.5 2.5-2.7 6.7-3.7 15.6-3.8 7.6-.1 7.7-.1 10.8 3.4z"/>
<path d="m980.6 170c0 2.1 1.2 2.8 2.7 1.6 1.9-1.6 1.6-2.9-.7-2.9-1.1 0-2 .6-2 1.3z"/>
<path d="m897 244.4c2 9.7 2.3 22.1 1.6 58.8-.4 23.7.5 54.4 1.9 62 .7 3.8 1 8.9.6 11.2-.7 4.9 1 6.7 2.5 2.7.8-1.9.6-6-.5-14.5-.8-6.5-1.5-18.4-1.6-26.6-.1-8.1-.2-21.1-.2-28.8-.1-7.7 0-21.2.3-30 .5-14.5-.8-31.1-2.6-36-1-2.6-2.6-1.6-2 1.2z"/>
<path d="m906.3 278.2c3.5 1.3 4.87-5.9 1.47-7.8-4.707-.919-2.961 7.04-1.47 7.8z"/>
<path d="m906.5 316.6c3.318.409 3.836-6.904.8-7.33-3.036-.425-4.118 6.921-.8 7.33z"/>
<path d="m908.8 355.5c4.167-.422 1.772-8.075-.926-8.016-2.698.06-3.242 8.438.926 8.016z"/>
<path d="m841.8 339.2c.425 1.33 4.913.271 3.8-1.4s-4.225.07-3.8 1.4z"/>
<path d="m1019 418.7c-2 .7-18.3 4-30.5 6-3 .5-11.1 1.7-18 2.5-6.9.9-18.6 2.7-26 4.1-18.5 3.5-21.9 4.1-34 5.8-12.22 2.74-24.21 2.701-35.1 5.2-.9.5-.7 1.8 1.1 8.4.7 2.5 1.6 6.1 2.1 8 .4 1.9 1.7 7.1 2.8 11.5 1.2 4.4 3.3 13.6 4.7 20.5s3.4 16.1 4.4 20.5c1.1 4.4 2.2 9.8 2.6 12 .3 2.2 1 4.8 1.5 5.7s1 3.5 1.1 5.8c.1 2.2.7 4.8 1.3 5.7 11-3.567 22.14-5.737 31-7.1 8.8-1.4 17.2-2.8 18.6-3.1 1.5-.3 16.1-2.5 32.5-5 16.5-2.6 35.5-5.5 42.4-6.5 13.2-2 23-4.5 23-5.9 0-.4-.4-2.1-.9-3.7-1.5-4.9-5.8-24.9-9.6-44.4-1.9-10.2-4-20.8-4.5-23.5-.6-2.8-1.7-8.3-2.5-12.3-2.2-11-3.2-12.2-8-10.2zm3.8 4.7c.6 3.5 7.1 33.5 9.1 42.3.8 3.6 1.7 9 2 12 .4 3 2 11.7 3.7 19.4 2.2 9.8 2.7 14.1 1.9 14.6-1.1.7-24.8 4.6-64 10.5-12.9 2-24.4 3.8-25.5 4-1.1.3-3.8.7-6 1-11.4 1.6-40.3 6.7-42.2 7.5-1.8.7-2.3.4-3.1-1.8-1.9-5-4.1-13.6-7.6-30.7-1.9-9.4-4.6-22-6-28-2.7-12.3-5.6-26.7-5.6-28.2 0-1.2 9.6-3.2 32.9-6.8 9.1-1.4 16.8-2.8 17.2-3 .4-.3 4.2-1 8.5-1.5 4.4-.6 15.1-2.4 23.9-4.1 13.6-2.5 55.6-9.5 59.1-9.8.7-.1 1.4 1.1 1.7 2.6z"/>
<path d="m215.9 84.82c-1.05.075-1.449.5492-1.949 1.449v.016c-.7 1.3-1.901 1.6-4.801 1.1-2.2-.3-4.699-.7992-5.599-1.199-1.1-.4-2.3.1004-3.5 1.4-.9 1.2-2.501 2.1-3.401 2.1s-2.198.7-2.898 1.5-1.8 1.5-2.5 1.5-3.701 2.4-6.701 5.4c-2.9 2.9-6.2 5.499-7.2 5.699s-2.199 1.1-2.599 1.901c-.4.799-1.401 2.799-2.201 4.5-.9 1.599-1.9 5.198-2.2 7.798-.4 2.7-1.299 5.001-2.099 5.301-.7.3-2.001 2.399-2.901 4.699-1.4 3.7-1.401 5.001-.201 10.7l1.401 6.5-3.299 2.798c-1.9 1.5-3.9 4.301-4.5 6.301-3.4 10.1.699 18.6 10.2 21.5 3.2 1 3.9 1.799 4.4 4.699.9 4.4-.2 14.8-1.9 18.1-3.4 6.9 1.6 20.1 11.1 29.5 7 6.9 16 14.6 17 14.6.4 0 1.3-1.201 2-2.801 2.5-5.5 6.1-11.8 8.4-14.6l2.4-2.9 1.799 4.801c1.3 3.4 1.321 4.234 3.701 3.966 2.381-.267 3.077-.955 2.477-4.955-.6-3.8 1.423-2.712 3.123-1.412 3.2 2.4 5.301 5.3 6.301 9 .6 2.3 1.8 3.899 3 4.199 4.7 1.2 14-16 14-25.9v-4.4l4.299.599c5 .7 10.8 2.3 12.2 3.401 1.2 1 11.9 5.1 22.2 8.5 4.9 1.699 8.3 2.298 10.4 1.798 4.6-.9 23.1-10.5 29.3-15.1 8.6-6.5 8.901-6.601 12.3-2.901 6.4 7 13.8 18.9 13 21.1-.8 2.1-22.4 19.7-29.2 23.8-8.9 5.3-13.4 7-19.2 7-5 0-23.2-3.699-26.3-5.199-.8-.5-1.902-3.801-2.602-8-1.2-6.901-2.6-10.1-4-8.801-.3.4 0 3 .602 6 1.4 6.3.899 16.4-1.201 23.3-5.9 19.3-6.699 25.9-6.799 56.2v14.2l-3.401 2.6c-5.8 4.399-28.8 7.599-37.7 5.199-2.6-.7-2.599-.701-2.699-11.4-.1-6-.3-12.5-.5-14.7-.3-2.1-.1-8.6.301-14.5.5-5.8.398-14.2-.102-18.6-.6-6-.498-10.4.602-17.4 1.4-8.7 1.398-15.1-.102-24.9-1.1-6.9-2.1-2.6-2 8.5.1 6.5-.399 14.8-1.099 18.4-.7 4.5-.8 9.2-.2 14.5.5 4.7.5 12.9 0 20.4-.6 6.899-.7 15.6-.3 19.5.4 3.8.6 9.699.4 13l-.4 6-13.5.298c-12 .2-14.4-.1-22.1-2.398-7.339-2.677-12.09-5.064-14.85-6.188-.744-.919-5.264-1.894-6.538-3.218-.483-1.003-.516-8.392 1.284-17.09 1.9-9.5 1.901-15.1-.1-21.9-1.1-3.6-3.001-10.1-4.301-14.5s-2.7-9.399-3-11.2c-.6-3.2-.598-3.2 2.602-2.5 5 1.1 12.5.801 13.9-.599.9-.9-.198-1.202-5.898-1.202-4 0-7.401-.4-7.801-.9-.7-1.3 3.2-3.399 5-2.699 1.9.7 5.9-5.899 5-8.199-.6-1.5-.9-1.4-3 1-2.6 3-10.5 6.998-22.5 11.3-6.616 1.432-17.66 9.017-19.9 7.6-4.7-3.3-9.199-5.199-19.2-8.199-9-2.7-14.72-5.51-14.72-5.51.8842-1.212 7.525-9.391 9.225-14.39 1.8-5.5 3.5-16 2.9-17.7-1.2-3.1 9.798-.6 14.9 3.5 1.9 1.5 5.1 3.6 7 4.6 2 1.1 4.301 3.401 5.201 5.301.9 1.8 2 3.298 2.5 3.298 1.5 0 2.599-2.298 1.299-2.798-1.768-1.963-3.235-4.157-5.199-5.602-3.7-2.8-4.399-4.6-1.699-4.6.7 0 3.899-1.3 7.199-3 3.3-1.6 6.401-3 6.801-3 .5 0 4.6-2.4 9-5.4 9.6-6.3 22.2-12.8 23.1-11.9.3.4.6.1.6-.5 0-3.6-15.3 2.798-27 11.3-5.9 4.3-15.9 9.201-20.9 10.4-3.4.7-4.5.5-8-1.6-2.3-1.3-5.4-2.6-6.9-2.9-14.5-2.3-23.2-7-28.3-15.5-2.4-3.8-2.9-6.001-3.4-13.8-.3-5.1-.8-9.699-1-10.2-.3-.4-2.199-1.1-4.199-1.5-5.1-1-7.301 1.899-7.301 9.199v5.4l-4.199-4.199c-7.9-7.6-24.7-14-27.7-10.5-1.6 2-1.799 7.2-.2988 9s.4996 2.699-2.9 2.699c-3.9 0-7.501 1.5-8.301 3.5-1.1 3 2.3 8.1 7 10.6l4.4 2.4-3.9 1.702c-3.3 1.4-4.199 2.398-5.199 5.898-1.3 4.1-1.201 4.2 1.799 6.9 2.1 1.9 5.001 3.1 9.701 4 7 1.3 11.1 3.802 13.5 8.202 1.7 3.3 6.199 5.798 10.3 5.798 2.7 0 4.8 1.1 9.9 5.6 10.1 8.8 21.2 14.6 34.2 18 7 1.8 16.86 8.332 19.44 9.291s17.08-10.14 27.96-10.89c.6 0 1.9 3.402 2.9 7.702.9 4.3 2.7 10.6 4 14 3.8 10.1 4.701 17.9 2.901 26.3-.8 3.9-1.5 9.2-1.5 11.6-.398 5.462-2.307 10.94-2.699 15.8-.2 3.9-1.101 9.799-1.901 13.2-1.1 4.7-1.3 10.6-.9 26.5.3 11.2.8 22.1 1 24.2.3 2.1-.301 7.2-1.401 11.5-1.1 4.2-2.199 10.2-2.599 13.2s-.9 6.302-1 7.202c-.587 4.389-.599 6.745-.361 8.062-3.509-.06-6.976-.135-10.14-.271-6.3-.3-11.9-.301-12.5.1-1.5.9-72.7-.299-95-1.699-10.3-.6-20.4-.4-24.6.5-.4 0-1.2 1.4-1.9 3.1-.9 2.2-1 6.601-.5 16.7.7 13 .9004 13.9 3.4 16.4 1.4 1.5 5.401 5.602 8.801 9.102l6.199 6.299c.1011 1.499.6815 93.54.5313 95.32 0 0 3.642.241 4.43.178-.1521-1.67-1.461-53.88-1.443-54.37.2973.245 27.09 30.55 29.09 31.97-.3743 4.226-.4844 20.4-.4804 22.4.7323.113 2.298-.03 2.836.02l-.207-20.66 12.31 10.94.2032 9.702h2.863l-.033-7.407 7.6 7.401h2.856l-56.79-58.33s.044-32.63.1406-33.68c1.601 1.601 101.3 89.67 103.6 91.43 1.721.05 1.547-1.031 1.547-2.331 0-.5-1.6-2.1-3.5-3.5-2-1.5-4.501-3.7-5.801-5-1.2-1.2-5.299-4.901-9.099-8.201-3.8-3.2-8.801-7.599-11-9.699-2.3-2.1-6.3-5.7-9-8s-9.2-7.999-14.5-12.7-11.5-10-13.6-11.8c-2.2-1.8-7.6-6.8-12-11-4.4-4.3-11.1-10.4-15-13.7-3.8-3.3-8.3-7.501-10-9.401-1.6-1.8-6.899-7.4-11.7-12.4l-8.701-9.1-.1992-9.8c-.1-5.4.1-10.2.5-10.5.3-.3 2.001 1 3.801 2.9s5.799 5.599 8.799 8.199c3 2.7 10 9.2 15.5 14.5s13.8 13.2 18.5 17.6c4.7 4.3 11.4 10.6 15 13.9 3.6 3.4 11.6 10.8 17.9 16.6s12.4 11.4 13.6 12.5c1.7 1.6 16.7 15.1 29.9 26.9 11.8 10.5 21.6 18.6 22.5 18.6.6 0 1.599.9 2.299 2s2.1 2 3 2c1 0 1.801.4 1.801 1 0 .5.799 1 1.699 1 1.2 0 .201-1.401-2.799-4.301-7.7-7.2-17.7-15.7-18.5-15.7-.4 0-3.5-2.601-6.9-5.701-3.3-3.2-9.6-8.999-13.9-12.8-15.3-13.8-21.2-19.1-36.6-33.5-6.9-6.4-18.1-16.8-25-23-29.3-26.5-49.2-45.9-48.7-47.4.2-.5 1.699-1.4 3.299-1.8 2.6-.8 43.8-.299 59.9.701 3.3.2 26 .6 50.5 1 18.47-.98 54.99.226 56.84.187l2.558 12.61c1.5 7.8 3.001 15.3 3.301 16.7s.5 3.099.4 3.699c-.4 2.4 3.101 1.8 25.4-4.5 8.9-2.5 36.6-9.199 38.1-9.199.7 0 1.2.999 1.2 2.199 0 1.3.4 4.6.9 7.5 1.2 6.3 1.301 6.3-11.2 7-9.4.6-11.1 1.401-9.301 4.701.6 1.1.8 4.499.5 7.799-.5 5.6-.4 5.9 2.6 8 1.8 1.2 6.101 4.5 9.701 7.4 3.6 2.8 9.2 6.802 12.5 8.702 3.3 2 6.999 4.499 8.199 5.599 2.2 2 2.7 2.1 11.5 1.1 5.1-.6 11.4-1.501 14.1-1.901 4.3-.7 4.701-.598 4.701 1.202 0 1.7.399 1.898 3.299 1.298 1.7-.4 6.2-.998 9.9-1.298l6.699-.602 1.801 3.201c1 1.8 3.601 5.899 5.801 9.199s5.399 8.302 7.199 11.2l3.199 5.099h12.2l12.1.1 1.699 6.5c2.1 8.3 5.601 14.4 11.9 20.2 11 10.3 19.5 11.5 32.1 4.701 8.3-4.5 17.8-13.4 21-19.6 3-5.9 5.401-8.302 7.801-7.702 1.4.4 2.6-.1 3.6-1.699 1.9-2.6 1.901-2.7 4.201 8.6 1 4.9 1.499 11.2 1.299 16.3-.2 5.9 0 8.199.9 8.199 1.9 0 2.2-1.1 2.4-9.1.1-5-.601-11-2.3-18.5-2.801-12.3-2.801-12 3.199-19.4 2.101-2.5 6-8.8 8.801-14 12.2-23 12.8-39.6 1.699-51.8-2.6-3-4.8-4.299-8.5-5.199-2.8-.7-5-1.5-5-2 0-.9 14.9-6.2 25.5-9.1 9.7-2.5 31.4-3.5 45.5-2 5.2.5 12.2 1.2 15.5 1.5 5.5.5 11.9 2.299 20.1 5.699 3.701 1.5 5.6 6.402 7.5 19.7 1.3 9.1 3.701 11.7 3 3.199-.2-2.3-2.2-12.2-3.2-15.3-.4-1.5-.499-2.699-.1-2.699.7 0 6.599 6.5 13.7 15 4.3 5.2 5.5 5.901 5.5 3.301 0-1-3.301-5.501-7.301-9.901s-8.5-9.599-10-11.6c-2.399-3.1-4.2-4.102-12.5-6.702-5.299-1.6-11.8-3.299-14.4-3.599-5.3-.7-5.799-1.3-2.799-4 1.8-1.6 2-1.599 2-.199 0 1 .5 1.699 1 1.699.6 0 1-1.1 1-2.5s.499-2.5 1.099-2.5.9.9.6 2-.1 2 .4 2c.4 0 1.2-1.399 1.7-3.199 1.1-4.3 1.7-4.4 29.8-4l23.2.298 5.3 5.401c5.2 5.3 8.901 6.999 8.901 4.199 0-1.5-8.9-9.4-13-11.5-1.8-1-7.4-1.299-21-1.199-27.3.3-25.1.8-18.7-4.5 9.6-7.8 20.9-28 24.3-43.6.9-4.1 2.099-9.4 2.599-11.9s1.001-10.1 1.102-17c1.376-10.21-.653-14.22-5-23-6.701-13.3-6.601-13.2-14-21-5.101-5.4-8.3-7.601-18.5-12.8-8.3-4.2-14.7-6.799-19.6-7.799-9.899-2-20.7-2-26.2.1-2.5.9-6.1 2-8 2.4-5.6 1.2-9.399 3.6-14.9 9.6-4.101 4.6-5.5 7.099-7.4 13.2l-2.199 7.5-10-.6c-11.7-.8-33.3-2.499-39-3.099-12.6-1.5-34.2-3.5-37.1-3.5-2.8 0-3.398.399-4.398 3.599-.7 2-1.202 7.701-1.102 12.8.1 5-.498 18.1-1.398 29.1-2 26.1-2.701 29.8-3.901 20.8-.4-2.6-1.499-9.501-2.599-15.3-2.2-11.9-5.6-33.8-6.5-42-1-8.2-2.401-11.3-4.901-10.6-6.5 1.6-15.9 3.8-21.6 5-9.8 2.1-38.3 8.3-49 10.6-14.2 3.1-14.2 3.099-13.6 2.199.3-.5.7-13.2 1-28.4l.5-27.6 4.201-14.3c2.3-7.9 4.3-14.6 4.5-14.8s4.899.602 10.6 1.702c5.7 1.1 13.2 2.299 16.8 2.699 6.5.6 6.599.599 16.2-4.801 5.3-3 11.2-6.699 13.1-8.299 5-4.2 15.7-13 19-15.6 1.6-1.3 6.1-5.602 10-9.602 6-5.9 7.8-7.199 10.4-7.199 4 0 9.5-4.601 11.9-9.901 1.3-2.9 2.7-4.199 6.1-5.599 2.4-1 6.4-3.601 8.9-5.801 3.8-3.3 4.399-4.399 4.399-7.799 0-5-3.6-7.9-7.6-6-4.1 1.8-3.9 1.299 1-3.201 4.7-4.4 5.6-6.999 3.5-10.8-1.6-3-4.899-3.901-8.599-2.301-3.7 1.5-3.901 1.301-1.701-2.099 1.9-3 1.1-6.199-2.1-7.699-4-1.8-14.8 5.299-20.9 13.7-1.6 2.3-2 1.7-3-4.6-.9-5.3-5-9.101-9.5-8.701-3.6.3-3.6.401-3.5 4.801 0 2.5.3 5.8.5 7.4.3 1.6 0 6.301-.7 10.4-.8 4.1-1.301 7.699-1.201 8.099 0 .3 0 1.4-.1 2.5-.1 1.6-.3 1.7-1.7.5s-2.5-.401-8.8 6.199c-11.1 11.7-29.1 23-39.4 24.9-6.6 1.1-10.3.199-29.4-7.301-6.5-2.6-13.3-4.699-15.3-4.699-4.199 0-4.5-.999-.699-3.199 9.899-5.9 17.3-16.8 18.7-27.4 1-7.2-1.5-14.2-6.399-18.7-3.4-3-3.9-4-3.9-8.1-.1-2.6-.5-5.2-.9-5.9-1-1.5-2-14.7-1.2-14.7 1.3 0 2-3.501 2.5-11.9.5-7.5.3-8.499-1.5-10.2-1.2-1.1-2.099-2.6-2.099-3.4 0-.7-.901-1.6-1.901-2-1.1-.2997-2.2-1.2-2.5-2s-1.199-1.5-2.099-1.5c-1.7 0-16.7-7.1-18.9-8.9-.7-.6-2.401-1.1-3.701-1-1.3 0-4.398-.4-6.898-1-3.1-.7-4.802-1.024-5.852-.9492zm1.088 2.127c.338.012.812.3867 1.662 1.137 1 .9 2.5 1.4 3.5 1 1.1-.4 2.2-8e-4 3 1.199 1.2 1.6 1.602 1.7 3.102.4004s1.898-1.2 3.398.5c.9 1.1 2.501 1.899 3.701 1.699 1.4-.2 2.3.3012 2.7 1.701.3 1.4 1.099 1.798 2.599 1.398 1.6-.4 2.102-.098 2.102 1.602 0 1.1.5 2.1 1 2.1.6 0 1-.5 1-1 0-.6.7-1 1.5-1s1.5.6004 1.5 1.4c0 .9.7 1.198 2 .8984 1.1-.3 2 0 2 .6017 0 .6 1.1 1.699 2.5 2.299s2.399 1.601 2.199 2.201c-.3.6.5 2.099 1.6 3.299 1.6 1.8 1.8 2.501.8 3.701-1 1.1-.9 1.898 0 3.398 1 1.6 1 2.302 0 3.602-1.7 2-4.099 2.1-4.099.1 0-1.3-.4-1.4-2-.5-2.1 1.099-2.402.799-2.102-2.301.2-1.1-.499-1.699-1.799-1.699-1.2 0-2.099-.701-2.099-1.5 0-1.8-2.601-2.001-3.301-.301-.4 1-.8 1-1.5-.1-.9-1.2-1.3-1.199-2.6-.199-.9.8-1.701 1.099-1.701.699-.1-.3-.199-1-.299-1.5-.3-2.1-1.5-2.199-2.8-.199-.7 1.2-2.3 2.1-3.6 2.1s-1.999-.4-1.699-1c.6-1-3.301-5.9-4.701-6-.5 0-.799.9-.799 1.9 0 2.1-2.6 3.6-3.5 2.1-1.1-1.8-2.5-1-2.5 1.4 0 3.2-2.802 5.6-4.102 3.5-.7-1.1-1.199-1-2.799 1-1.4 1.9-2.4 2.299-4.8 1.799-2.2-.4-3.2-.1-4.1 1.4-.9 1.3-1.899 1.8-3.199 1.401-1.4-.401-2.201.1-3.201 2.199-1.1 2.3-2 2.8-5.2 2.801-3.1 0-4.101.498-4.701 2.298-.5 1.2-1.499 2.202-2.299 2.202-.7 0-1.7 1.099-2 2.5-.4 1.4-1.099 2.5-1.599 2.5-.6 0-1 .799-1 1.699-.1 3.8-5 7.401-5 3.701 0-1.4-.3-1.4-1.5-.4-.673 2.971-1.802.999-2.102.699s-1.526-.359-.426-1.059c.754-1.721 1.495-1.253.18-2.775-1.1-.3-2-.417-2-1.217s.887-3.088-.02-3.088c-1.4 0-1.338-1.564-.338-2.264.9-.5 1.099-.897.599-2.796-.6-2.6-.5-2.702 1.7-2.202 1.9.5 2.599.102 3.599-1.798.6-1.5.701-2.7.201-3.1-.5-.3-.9-1-.9-1.5 0-.6.4-.8.9-.5s1.4-.101 2-.801c1-1.1.8-1.599-.8-2.099-2.7-.8-2.7-3.501-.2-3.5 2.3 0 3.999-2.201 2.299-2.801-1.7-.5-1.499-2.9.401-3.6.8-.3 2.699-.3 4.099.1 2.2.5 2.5.3 2-1.1-.4-1-.1-1.899.801-2.199.8-.4 1.5-1.501 1.5-2.701 0-1.9.1-2 2-.199 2 1.799 2 1.698 2-1.202 0-3.1 2.3-5.199 3.5-3.199.9 1.4 2.5.099 2.5-2.201 0-2.3 1.3-2.499 3.1-.1992 1.3 1.4 1.5 1.299 1.9-1.301.4-2.3 1-2.898 3-2.898 1.8 0 2.399.4992 2.199 1.699-.3 2.2.601 2.201 3.201.3008 2.7-2 3.301-1.901 3.901.6992.6 2.3 1.899 1.899 2.299-.8008.1-.9.5-2.3.8-3.1.3-.7.501-1.05.838-1.037zm6.885 26.51c1.102 0 2.133.294 2.883.932.9.7 3.8 1.201 6.5 1.201 2.8-.1 6.8.1 9 .398 2.2.3 4.299.602 4.799.602.4.1.701.8.701 1.6 0 .9 1.3 2.398 3 3.298 1.6.9 3.398 2.601 3.898 3.702 1 2.2 2.3 12.5 1.5 12.5-.3 0-1.6-.7-3-1.6-6.4-4.2-15.4-.5-17.3 7.1-1 4.099-1.3 4.299-5.3 4.699-2.4.3-5.001.801-5.901 1.201-1.1.5-2.099-.502-3.699-3.602-2.9-5.9-6.999-8.198-13.2-7.398-4.7.6-11 3.098-11 4.398-.1.4-1 1.802-2 3.102-1.4 1.7-2.401 1.999-3.301 1.299-.6-.5-2.799-1.3-4.699-1.699-7.4-1.401-7.101-1-4.801-6.5 2-4.901 7.6-10 11-10 .9 0 2.6-1.1 3.9-2.5 1.3-1.3 3.1-2.5 4-2.5.8 0 2-.502 2.7-1.202.6-.6 2.2-1.198 3.4-1.398 3.9-.3 10.1-3.101 11.8-5.201 1.25-1.563 3.281-2.422 5.117-2.432zm22.76 24.23c2.384-.142 4.939.738 7.226 2.8 4.1 3.6 5.001 10.5 1.901 14-4.1 4.8-14.6 3.402-17.2-2.298-.6-1.301-.801-3.9-.401-6 1-5.188 4.501-8.266 8.475-8.502zm-37.52 3.898c3.635.01 6.596 1.879 8.346 5.504 1.8 3.9 1.3 8.499-1.6 13.3-2.7 4.4-6.999 5.2-13.1 2.301-4.4-2.1-4.9-2.6-5.5-6.5-.7-5.301 1.299-10.8 4.699-12.6 2.55-1.35 4.973-2.011 7.154-2.004zm-36.39 5.156c.441.05 1.11.323 1.935.848.8.5.901 1.1.301 1.5-.5.3-1.499-.1-2.199-.9-.875-1-.774-1.532-.04-1.448zm7.107.66c.689.06 1.829.337 3.629.788 2.6.699 5.6 1.6 6.5 2s2 2.098 2.4 3.798c2.1 9.9 8.8 15.5 17.2 14.3 6.1-.8 10-3.999 12.8-10.2 3.3-7.5 7.501-9.301 12.4-5.301 1.7 1.4 2.099 2.2 1.299 2.6-2.2.8-1.499 2.4 3.201 7.4 2.5 2.6 4.5 5.499 4.5 6.199 0 1.8-2.601 4.101-3.801 3.301-1.2-.7-3.5 1.799-2.5 2.699.3.4 2.2.702 4 .702 2.9 0 3.599-.502 4.699-3.202.9-2.1 1.1-4.099.5-6.199-.5-1.7-.898-3.201-.898-3.301 0-.2 1.298-.298 2.898-.298 4 0 7.501-1.4 9.801-4l2-2 2.6 2c5.5 4.4 6.499 16.4 2.099 25.5-2.8 5.699-9.3 12.5-15.5 16.3-5.8 3.5-12.5 5.101-24.5 5.801-9.1.6-12 .401-16.3-1.099-3.8-1.2-5.6-1.4-6.4-.6-1.8 1.8 8.8 6.1 15.1 6.1 6.2 0 6.1 1-.6 4.4-4.6 2.3-4.801 2.3-9.801.6-5.5-1.801-12.5-5.9-21.4-12.6-9.2-6.9-9.101-6.8-9.701-19.9l-.6-11.6-2.801.6c-3.4.8-8.2-1.6-10.5-5.1-2-2.9-2.198-10.5-.398-13.8.7-1.3 2.2-2.9 3.5-3.599 3-1.6 7.8.8 9.5 5 1.5 3.599 3 3.899 3 .599 0-1.4.5-2.8 1-3.099.6-.301.698-1.701.398-2.901-.375-1.437-.476-1.977.672-1.887zm172.8 8.288c1.2 0 3.302 1.1 4.602 2.5 2 1.9 2.5 3.398 2.5 7.298 0 3.7.699 6.002 3.099 9.702 2.9 4.5 3.1 5.399 2.5 10.7-.4 4.5-.301 5.801.799 5.801 2.9 0 3.401-9.701.701-15.5-1.8-4-1.8-4 .7-8 3.9-6.301 12.4-12.5 17.2-12.5 3.6 0 3.099.9-7.201 12.4-1 1.1-1.799 2.2-1.799 2.5s-.401 1.2-.901 2c-.8 1.2-1.2 1.199-2.4.199-2.3-1.8-3.299.601-1.199 2.901 1.3 1.4 6.5 14.7 6.5 16.6 0 .2-1.901.4-4.301.401-3.9 0-6.699 1.299-6.699 3.099 0 .4 1.498.199 3.398-.301 2.6-.8 4-.7 6.5.5 2.6 1.3 3.301 1.301 3.701.301.6-1.5-1.999-12.2-4.099-17.4-1.1-2.5-1.102-3.199-.102-3.199.7 0 2.502-1.4 4.102-3 3.6-3.801 10.7-8 13.3-8 2.3 0 3.4 2.2 2.4 4.9-.4 1-3.1 3.7-6 6-9.3 7.4-9.699 13-.699 8.6 7-3.401 9.5-3.3 9.5.4 0 2.2-1.002 3.598-4.602 6.398-2.6 2-6.6 4.401-9 5.301s-4.398 2.201-4.398 2.801c0 .7-1.301 3.299-2.901 5.799-2.3 3.6-3.899 5-7.099 5.9-4.6 1.4-5.401.8-8.901-6.599-1-2.2-3.5-5.601-5.5-7.401-2-2-3.599-4.499-3.599-5.699 0-1.3-.502-2.6-1.102-3-.8-.5-.898-2.701-.398-7.301 1.1-8.6 1.099-17.8.1-21.9-.8-2.9-.601-3.2 1.299-3.199zm-319.3 24.03c2.226.02 5.406.765 9.062 2.172 4 1.6 7.6 4.1 11.5 8l5.701 5.798-1.9 4.202c-2.8 6.1-2.6 11.9.5 16.8 1.6 2.5 3.3 4 4.5 4 2.7 0 2.5-.599-1-4.699-3.9-4.4-4-9.899-.4004-16.6 2-3.9 2.501-6.002 2.201-10.7-.3-7.1 1.5-9.999 5.1-8.099 1.8 1 2.1 2.099 2.1 8.599 0 5.9.5996 8.9 3.1 15.1 3.1 7.8 3.1 7.8 1.5 12.9-1.4 4.5-5.099 11.1-8.799 15.6-.8 1-3.8 1.901-8 2.301-7.4.8-7.7.7-14-7.6-2.2-2.9-3.8-3.901-7.9-4.701-4.279-.601-14.56-1.562-14.9-7.1 0-2.7 4.699-6 8.699-6 1.9 0 4.8.7 6.5 1.6 2.2 1.1 3.302 1.3 4.102.5 1.6-1.6-.4-3.2-11-8.6-5.1-2.5-9.301-5-9.301-5.5 0-.4-.2-1.499-.5-2.199-.7-1.9 3.5-3.801 8.1-3.801 3.4 0 7.601 2.301 14.8 8.401 2.7 2.2 2.799 2.599 1.699 5.599-1.4 4.3-1.4 10.5.1 14.7 1.1 3 2.801 4.498 2.801 2.398 0-1.5 5.9-3.399 8.6-2.699 1.9.5 2.5.3 2.1-.6-.3-.9-2.299-1.301-6.199-1.201l-5.699.102.3984-7.301c.4-5.4 1.201-8.8 3.201-12.5 3.2-6.1 2.499-7.7-1.301-3.1l-2.799 3.199-1.9-2.099c-1-1.2-4.301-3.7-7.201-5.5-5.1-3.3-7.799-7.3-6.799-10.1.35-.875 1.505-1.29 3.236-1.271zm311.2 10.13c1.229.04 3.268 1.685 7.143 5.435 5.1 4.9 11 14.2 11 17.4 0 1.199-7.901 10-8.901 10-.4 0-1.2-1.501-1.9-3.301s-2-4.199-3-5.299c-1-1-3.299-4.201-5.199-6.9-1.9-2.801-4.201-5.601-5.301-6.401-1.8-1.3-1.8-1.5 1.1-4.5 1.6-1.7 3.2-3.9 3.5-4.9.375-1.013.821-1.562 1.558-1.535zm-168.7 8.836c.463.03.813.298.813.798s2 2.302 4.5 4.102c2.4 1.7 5.099 3.799 5.799 4.6 2.6 2.5 16.9 10.8 19.8 11.4l2.901.6-2.301 3.4c-2.3 3.5-2.6 4.098-6.5 10.4l-2.4 3.702-7.2-5.901c-8.3-6.8-11.7-10.9-15.1-18.3-2.3-5-3.301-12.7-1.801-14.1.45-.5 1.026-.725 1.488-.699zm66.1 9.287c1.778 0 1.715 1.287 1.715 4.213 0 5.599-3.2 14.2-7 19l-3 3.798-2-4.599c-1.8-4.1-6.401-8.699-11.2-11.3-2.8-1.5 4.199-6.3 13.1-9 4.506-1.356 7.004-2.12 8.387-2.113zm-162.1 4.615 4.102 2.4c2.3 1.3 5.9 3 8 3.6 4.2 1.4 4.199 1.499 2.199 11.2-1.9 9.1-4.799 15.5-8.699 19.6l-3.102 3.199-3.898-2c-4.7-2.4-15.8-10.9-15.8-12.1 0-.4.6004-.801 1.4-.801 3.3 0 11.3-11.2 14.1-19.8zm135.5 8.189c.429.06.997.233 1.722.508 2.023 1.827 1.684 5.017.451 7.375-1.963-.783-2.335-3.277-2.75-4.775-.75-2.4-.712-3.281.577-3.108zm286 78.55c4.265-.08 9.023.603 15.85 1.959 13.2 2.5 29.6 11.5 38.6 21.1 7.1 7.7 14.2 21.3 16 30.9 3.7 19.5-5.901 55.5-19.2 72.4-4.2 5.3-15.1 14-17.5 14-.9 0-1.398-1.2-1.398-3.5 0-1.9-.4-3.5-1-3.5-.5 0-1 1.3-1 2.9 0 3.5-.902 6.099-2.102 6.1-.5 0-.898-2.5-.898-5.6 0-3.4-.4-5.301-1-4.9-.5.3-1 3.5-1 7 0 5.399-.3 6.599-2 7.5-1.9 1-2 .8-2-8.5 0-10.9-1.902-13.4-2.102-2.801-.1 3.8 0 7.201.102 7.801.1.5-.1 2.899-.5 5.199l-.602 4.301-10.7-.702c-11.5-.8-18.3-.699-30.3.202l-7.699.599-.5-4.301c-.2-2.4-.8-5.199-1.1-6.298-.6-1.7.299-2.5 6.299-5.5 3.9-1.9 7.002-4.101 7.102-4.801 0-1.6-1.601-1.5-4.301.301-4.4 2.8-14.9 4.798-25.7 4.798-11.7 0-17.8-1.298-20.6-4.398-1.8-2-1.799-2.101.901-6.9 3.2-5.7 3.301-6.001.701-9-3.3-3.801-2.101-4.5 8.099-4.5 7.2 0 10.3-.401 13.2-1.901 4.4-2.2 7.701-6 7.701-9 0-4.3-1.102-4.7-13.1-4.5-12.6.2-15.4-.299-16.9-3.199-.9-1.6-.701-1.901.799-1.9 1 0 2.7-.9 3.8-2.1 1.3-1.4 2.5-1.801 4.2-1.4 4.1 1 2.2-2.6-2.7-5.1-4.6-2.5-8.099-5.9-8.099-8 0-1.5 9.099-8.301 14.3-10.7 2.2-.9 5.799-2.001 8.099-2.401 3.2-.5 5.001-1.698 8.901-5.898 3-3.3 5.4-5.101 6.3-4.701 1 .3 1.401-.199 1.401-1.699 0-2.2.1-2.2 1.898-.6 1.2 1.1 2.102 1.399 2.602.699.3-.6.199-1.1-.201-1.099-1.5 0-4.299-7.5-4.299-11.5 0-2.101.899-5.302 2.199-7.202 2.1-3.5 2.1-3.498 0-2.398-2.7 1.4-4.6 7.299-3.9 12.3.4 2.7.2 3.8-.6 3.5-1.9-.6-1.999-12-.199-16.3 2-4.8 1.2-5.501-1.5-1.301-1.8 2.8-2.101 4.7-1.801 11 .2 6.1.1 7.3-.9 6-1.9-2.5-1.5-9.999.9-17.6 3.2-9.801 9.5-16.2 20.1-20.5 7.2-2.869 11.87-4.252 17.35-4.36zm-130 26.36c.1 0 15.2 1.299 33.5 3 18.3 1.6 37.8 3.199 43.2 3.5 5.5.3 10 .599 10.2.699.1.2.501 2.301.901 4.701l.699 4.398-2.801-.798c-1.6-.4-5.598-.9-8.898-1.1-5.6-.3-27.4-2.1-51.5-4.4-13.6-1.301-15-1.3-15 .4s4.4 2.6 12.5 2.6c3.4 0 10.8.399 16.6 1 19.6 1.699 36.4 3.1 43.3 3.4 5.9.3 7.101.699 8.701 2.699 1.8 2.4 1.799 2.4-2.201 6.5-2.3 2.4-5.899 4.701-8.199 5.401-8 2.6-17.2 7.499-21.5 11.7-4.3 4.1-4.301 4.099-2.801 7.099.9 1.7 3.202 4.3 5.102 6 3.9 3.1 3.599 4.102-1.801 6.102-1.5.6-2.699 1.598-2.699 2.398 0 2.3 3.199 5.901 6.599 7.301 19.64.818 23.79-.448 23.79 3.152 0 3.9-6.844 6.89-23.99 6.249-5.896-.222-8 4.3-4.5 8.9 1.8 2.4 1.8 2.498-.5 6.898-1.3 2.5-2.398 5.4-2.398 6.5 0 1.9-.501 2.001-19.4 1.301-21.3-.8-22.2-.9-23.2-1.9-1.1-1.1-8.398-.799-8.398.201 0 1.8 1.699 2 22.6 3.1 29.2 1.5 28.7 1.5 33.9 4 4.1 2 6.299 2.3 18.1 2.4 10.4.1 13.5.4 13.9 1.5.5 1.2-4.401 1.299-33.2.6-18.6-.5-38.5-.901-44.3-1-19.6-.301-21-.4-21.7-2.1-.3-.8.001-2.6.701-3.9 1-2 1.1-3.501 0-8.401-1.6-7.6-1.601-15.7-.201-29.6 2.2-20.8 4.199-49.6 4.599-65.8.1-2.6.201-4.699.301-4.699zm-23.7.4c1 .1 1.799 2.299 2.599 7.6.7 4.1 2.799 17.8 4.799 30.5 2 12.6 4.002 25.7 4.602 29 .5 3.3 1.2 8.9 1.5 12.5.4 3.6.799 7.8 1.099 9.5 1.7 11.4 1.599 16-.201 17.7-1.6 1.4-27.4 8.5-42.9 11.8-2.2.399-12.3 2.699-22.5 5-1.961.442-4.2.926-6.33 1.398 0 .001-.01 0-.02 0-8.946 1.98-18.57 4.067-23.65 5.197-6.3 1.3-17 3.801-23.6 5.401-6.7 1.699-14.3 3.499-17 4-8.3 1.699-9.698 2.099-15.9 3.599-5.2 1.4-20.9 4.401-22.6 4.401-.4 0-.899-1.501-1.199-3.301-.2-1.7-1.6-6.901-3-11.4s-2.799-10.5-3.199-13.5c-.7-5.7-5.301-26.6-6.201-28.1-.3-.4-.701-2.3-.901-4-.3-1.8-.899-4.099-1.299-5.199-1.1-2.4-3.6-15.1-6-30.3-1.7-10.4-1.701-11.4-.201-11.9.9-.3 2.702-.898 4.102-1.298 7.3-2.5 32.7-8.401 63.5-14.9 8.3-1.8 21.2-4.499 28.8-6.199 7.5-1.6 22.2-4.701 32.5-6.9 10.3-2.101 23.9-5.1 30.2-6.6 11.6-2.7 20.2-4.2 23-4zm-178.4 11.36-1.31 12.15c-1.475-.403-1.999-.65-3.688-1.005-11.16-4.366-9.555-2.388-8.455-10.08.798-5.576.562-6.694 1.5-6.595 4.401.934 8.137 4.354 11.95 5.531zm93.12-.536c.362-.05.288.625.09 1.975-.2 1.4-1.199 2.2-2.799 2.5l-2.5.4 2.5-2.5c1.55-1.55 2.348-2.325 2.711-2.375zm-86.66 3.673-1.525 10.87-4.159-1.187 1.519-11.99c.863.567 3.582 1.668 4.165 2.307zm2.461.903c4.382 1.401 9.565 2.195 13.69 2.307l7.768-.1.03 4.488c0 2.3.694 5.509 1.294 6.109 0 0-6.595 2.174-15-.03l-9.372-2.169c-.03-3.312.993-7.343 1.586-10.61zm29.29 1.899 6.4.701c3.4.3 9.901.899 14.3 1.199 11 .7 11 .801 1.5 2.801-4.7 1-10.5 2.199-13 2.799-8.2 1.8-8.401 1.8-8.801-3.1zm-2.799.301c.6 0 1 2.199 1 5 0 2.699-.4 4.999-1 5-.5 0-1-2.301-1-5 0-2.801.5-5.001 1-5zm-50.14 3.07c.478-.04 1.267.207 1.942.732 7.193 3.084 15.76 6.268 22.8 8.198l4.6 1.298-4.9 1.901c-2.6 1-6.399 2.1-8.299 2.4-6.1 1-7 1.501-8.5 4.301-1.3 2.5-1.001 4.499 2.599 22.2 2.2 10.7 4.9 23.9 6 29.4s2.7 12.6 3.6 15.8 1.271 6.215 1.326 6.756c-.4.09-14.15.41-27.93.262.583-2.869.866-8.268 1.301-14.11.3-4 .9-8.7 1.5-10.5 2.7-8.9 2.799-11.2 1.799-31.6-1-19.9-.199-34.9 1.801-36.9.07-.08.2-.121.359-.133zm206.2 91.01c1.753.01 1.764.494 1.239 3.119-.3 1.8-.699 3.399-.799 3.599-.1.1-7.602.1-16.6 0l-16.4-.298 14.5-3.202c8-1.7 15.7-3.199 17.2-3.199.325-.01.611-.02.861-.02zm29.44 4.92c22.9 0 25.5.199 25.5 1.599s-.701 1.5-3.701 1c-2.1-.3-13.6-.599-25.5-.599-13.9 0-21.8-.401-21.8-1 0-.601 9.2-1 25.5-1zm30.82.248c6.222.02 30.96.914 37.18 1.351 8.4.6 8.998 1 9.898 5.1.7 3.1.7 3.101-4.5 4.201-7.6 1.7-19.6 5.899-26.2 9.199-4.8 2.5-5.801 2.701-6.301 1.401-.4-1.101-1.999-1.5-5.599-1.5-6.3 0-6.1 2.3.3 3 4.3.5 4.3.499 2.2 2.099-2.4 1.7-7.699 8.7-12.3 16.6l-3.102 5.301h-5.398c-8.4 0-8.101.499-7.401-12.8.4-6.4 1.001-12.5 1.401-13.5 1.6-4 2.5-1.1 2.5 8.4 0 6.4.4 9.801 1 9.401.6-.301 1-4.201 1-8.5 0-10.3.299-11 5.199-11 3.9 0 4.001-.001 3.301 3.199-.4 1.8-.802 4-1.102 4.9-.5 1.9 4.1 6.5 5 5 .4-.6.201-1.9-.299-2.9-.7-1.3-.7-5.199 0-11.8 1-10.1 1.699-16.8 1.799-17.1.02-.04.537-.05 1.426-.05zm-101.4 3.388c.7-.04 1.25.01 1.5.162.4.3 20 .602 43.3.702 29.3.199 42.8.6 43.6 1.4.6.6 2.6 1.099 4.5 1.1 3.2 0 3.3.1 3 3.699l-.299 3.801-9.401.1-9.4.199-.301 15.2c-.1 8.399-.599 15.6-1.099 16.1-.4.4-3.699.9-7.299 1.1l-6.5.301-.102-3c-.2-4.7-3.099-14.7-4.799-16.3-1.3-1.3-1.799-1.299-4.099.201-1.4.9-3.001 2.698-3.401 3.898-.5 1.2-1.3 3.301-1.8 4.702l-1 2.5-2.901-3.202c-1.6-1.7-3.899-4.499-5.199-6.199-2.8-3.7-5.1-3.899-8.9-.699-2 1.7-3.6 2.298-5.6 1.898-1.6-.3-3.9.201-6 1.401-2.6 1.6-4.5 1.9-8.9 1.5-5.3-.4-5.999-.799-10.8-5.799-4.6-4.9-5.301-5.201-7.701-4.301-1.5.5-5.2 1-8.2 1-3.1.1-6.101.5-6.701 1-.9.7-1.398-1.199-1.898-7.099-.536-4.89-1.212-7.887-1.838-9.401 3.373-.732 6.832-1.468 10.34-2.199 6.9-1.5 13.9-3.001 15.5-3.4.85-.2 1.7-.326 2.4-.364zm-29.93 6.336c-.314 1.902-.251 5.417.528 10.03l1.443 8.56-9.144 2.701c-4.923 1.158-18.22 3.962-19.14 4.965-2.968.662-5.489 1.21-5.695 1.176-.57-.08-3.153.211-4.479.592.05-.07.07-.142.02-.196-.2-.2-.901-4.199-1.401-8.699-.5-4.6-1.4-8.699-2-9.099-.937-.512 17.28-5.095 39.88-10.03zm145.8 16.03c1.3 0 4.3.499 6.8 1.099 8.1 2.1 15.4 13.1 15.4 23.4 0 11.6-8.201 30.9-18.7 44.3l-5.7 7.202-2-4c-3.7-8.101-17.3-20.4-26.3-24-1.8-.701-3.299-1.801-3.299-2.401 0-.7 1.6-3.101 3.5-5.301 1.9-2.3 3.5-4.599 3.5-5.199s.5-1.099 1-1.099c.6 0 1-.7 1-1.5 0-2.301 7.699-17.3 11.7-22.8s9.7-9.7 13.1-9.699zm-124.5 1.099c.5 0 2.6 1.599 4.8 3.699 2.1 2.2 3.901 4.4 3.901 5s-2.302 4.401-5.102 8.401l-5.099 7.301h-13.3l.199 3.5c.1 1.768-.456 5.847-1.203 9.894-1.56-.453-4.696-.476-10.9.205-1.7.5-6.9 1.301-11.5 1.801-8 .9-8.5.799-11-1.4-1.4-1.301-6.199-5.301-10.6-8.901-14.7-12.2-17.6-14.9-16.8-15.7.4-.4 4.201-1.1 8.301-1.5 7.5-.6 7.599-.602 8.699 1.898 1.7 3.6 11.7 10.2 14 9.202 2.2-.9 15.9-4.2 22.5-5.5 5.3-1 8.801-2.6 8.801-4 0-.601.598-1 1.398-1 2.9 0 2.801-2.201-.299-5.401s-4.2-7-1.8-6.099c.9.399 7.6-.201 15-1.401zm43.1 2.901c.6 0 4.302 3.6 8.102 8 3.9 4.3 7.599 7.9 8.299 8 .9 0 1.099-1.401.599-5.5-.5-4.301-.298-6 1.102-8.1 2-3.1 3.399-2.201 4.099 2.699.3 1.9.899 4.8 1.299 6.5.6 2 .4 4.4-.5 7-3.5 10-2.798 16.8 3.102 28.4 1.4 2.799 3.198 7.398 3.898 10.3 1.3 5 1.201 5.302-1.099 8.102-5.2 6.2-8.001 14.6-4.901 14.6.8 0 1.8-1.9 2.5-4.5.6-2.5 2.601-6.201 4.401-8.301 1.9-2 5.8-7.099 8.9-11.2 7.8-10.6 7.501-10.5 13.8-7.202 6.2 3.1 20 16 20 18.7 0 .899-2.601 6.8-5.701 12.9-4.5 8.6-7.301 12.6-12.4 17.7-3.7 3.6-8.099 7.101-9.799 7.801-1.7.8-3.099 1.899-3.099 2.6 0 1.399-7.001 2.999-11.3 2.599-3.6-.3-13.8-6.401-18.1-10.8-6.3-6.6-8.601-12.2-11.7-29.5s-5.199-25.2-7.099-27.5c-1-1.3-1.299-1.299-1.799.202-.5 1.399-1.502.899-6.602-2.801-8.3-6.1-12-12.7-12.6-22.6-.3-4.2-2.799-7.3-2.799-3.4 0 1-.702 2.899-1.602 4.099-.8 1.2-1.199 2.201-.799 2.202.3 0 .1.6-.5 1.4-1.7 2-5.999 2.9-7.599 1.6-1.1-.9-.701-2.201 2.199-6.801 7.2-11.4 10.9-12.6 19.4-6.199 3 2.199 5.7 3.999 6.1 4 1.8 0 .5-1.701-3.4-4.401-3.8-2.8-4-3.001-2.2-4.301 4.4-3.2 8.8-2.898 14.6 1.102 3.4 2.3 4.801 2.398 4.801.398 0-.5-1.701-1.6-3.701-2.5l-3.799-1.5 2.398-1.898c1.3-1 2.8-1.9 3.5-1.9zm-63.2.996 2.801 4.103 2.699 3.301-3.9 1.799c-2.2 1-4.999 1.8-6.299 1.801-2 0-6.4 1.098-10.5 2.798-.8.3-2.4.601-3.5.702-1.1.1-3.802.5-6.102.9-3.7.7-4.3.399-8.5-3.301l-4.398-4 3.199-.1c1.428 0 7.099-1.335 12.2-2.723 4.562-.873 11.08-2.649 15.62-3.842zm-57.13 14.88c.489.05.996.408 1.434 1.127.3.6 3.599 3.4 7.299 6.4 3.7 2.9 9.401 7.798 12.7 10.9s6.299 5.702 6.799 5.702c.4 0 .701 1.199.701 2.599v2.6l-3.701-2.299c-8-4.7-16-10.4-21.5-15.2-4.9-4.2-5.799-5.499-5.799-8.299 0-2.269.991-3.64 2.066-3.527zm147.3 3.488c.103-.03.184.01.234.139.3.699 5 .999 13.2.699 13.6-.3 16.1.3 14.4 3.5-1 1.8-2 1.9-15.4 1.5-7.9-.2-14.4-.5-14.6-.699-.1-.101.3-1.5.9-3.1.45-1.2.957-1.95 1.266-2.039zm-57.27 4.826c.675.09 1.149 1.012 1.799 2.813 1.1 3.3.301 3.7-4.699 2.4l-2.301-.701 2.201-2.299c1.45-1.55 2.325-2.3 3-2.213zm-20.92.494c3.042-.04 7.897.993 10.22 2.418 3.1 1.9 4.201 5.4 2.401 7.6-1.1 1.4-1.301 1.101 7.099 12.8 5.1 7.1 6.401 8.899 10.9 15.7 2.1 3.3 3.001 3.801 6.201 3.801 2 0 5.798.299 8.398.599 4.1.6 4.602.901 4.602 3.301v2.6l-10.3.199c-5.6.2-10.7 0-11.2-.5-2.1-1.4-11.1-14.8-14-20.7-1.7-3.201-6.301-10.6-10.3-16.4-4.1-5.8-6.901-10.7-6.301-11 .45-.275 1.263-.405 2.278-.418zm74.82 3.219 5.299.299c5.1.3 5.2.4 5.5 3.5l.3 3.301h-11.1v-3.6zm25.5 1.1c2.5 0 2.498-.001.898 2.599-1.3 1.9-1.9 2.199-2.5 1.199-1.6-2.4-.898-3.798 1.602-3.798zm-10.99.08c.511 0 1.191.04 2.091.116 3.6.3 3.8.5 5 5 1 3.9.9 5.001-.3 6.801-1.1 1.5-1.2 2.499-.5 3.199.8.8.201 1.9-1.799 3.9-3.2 3.3-4 3.5-4 1.401 0-.8.9-1.901 2-2.5 2.4-1.3 2.6-3 .5-3-.8 0-1.5-.401-1.5-.901s-.302-1.6-.602-2.5c-.5-1.2 0-1.599 2.102-1.599 3.8 0 3-3.301-1-4-2.4-.4-3.101-1.101-3.301-3.301-.225-2.025-.224-2.587 1.309-2.616zm-92.2 2.985c.06.01.127.06.19.131.3.2 2.198 3.199 4.398 6.599 4.4 6.8 4.601 6.502-4.199 7.702-4.4.6-4.8.498-4.4-1.202.3-1 1.101-3.798 1.701-6.298 1.312-5.338 1.859-7.002 2.31-6.932zm22.7 1.328c2.783.07 6.494.465 6.494.902 0 .1.9 1.302 2 2.602l2 2.299-5.5-.699c-5.1-.601-8-2.401-8-4.801 0-.263 1.336-.343 3.006-.303zm-28 3.998c-.717 3.467-1.516 6.552-2.106 7.606-.6 1.1-.798 1.099-.898.199 0-1.5-8.501-1-18.9 1-5.8 1.1-7.3.401-6.5-2.799.5-2 2-2.402 22.7-5.102 1.291-.184 3.89-.514 5.705-.904zm90.2.609c3.9 0 4.5.3 5.5 3 1.3 3.399.3 4.1-4.1 2.9-1.6-.5-3.199-.6-3.599-.4-1.2.799-3.302-2.3-2.602-4 .4-1 1.901-1.5 4.801-1.5zm-61.4 2.798 6.4.702c4.5.5 6.8 1.199 8.1 2.699 3.3 3.9 2.2 4.401-6.7 3.201-3.9-.6-5.001-1.201-6.201-3.701zm18.73 5.301c.583-.125 1.631.375 3.068 1.5 1.7 1.4 1.7 1.5.1 1-1-.3-2.301-.599-2.801-.599s-.898-.5-.898-1c0-.525.181-.826.531-.901zm41.96.943c.306-.03.826.07 1.613.256 1.3.4 2.9.702 3.6.702 2 0 2.6 5.799.9 8.5-2.3 3.5-3.001 3.099-4.201-1.801-.6-2.3-1.498-5.1-1.898-6.1-.438-1.062-.524-1.5-.01-1.557zm-51.23 3.635c3.055-.01 7.257.66 7.945 1.723 1.9 2.8.8 3.598-3.9 2.898-5.1-.6-7.299-1.798-7.299-3.798 0-.563 1.42-.816 3.254-.823zm13.75 1.323c2.3 0 3 .4 3 2 0 2.299-2.901 2.698-4.801.798s-1.399-2.798 1.801-2.798zm-11.74 6.05c.739-.02 1.986.125 3.936.35 3.2.4 5.8 1.299 6.6 2.299 2.1 2.8 1.4 3.401-3.5 2.701-5.6-.7-6.001-.902-7.401-3.602-.687-1.25-.866-1.718.365-1.748zm14.31 1.287c.122.01.265.06.428.163.6.299 1 1.598 1 2.798 0 1.8-.2 1.901-1 .702-1.138-1.75-1.281-3.731-.428-3.663z"/>
<path d="m164.3 154.7c-1.9 3.7-1.9 5 0 5 .8 0 1.5-.6 1.5-1.3s.7-2.2 1.5-3.3c1.2-1.5 1.6-1.6 2.3-.6.6.9.2 2.1-1.4 3.7-2.7 2.7-3.2 6.5-.9 6.5.8 0 1.5-.6 1.5-1.4 0-1.8 2.7-2.8 3.6-1.4.4.6-.3 1.9-1.5 2.9-2.3 1.8-2.1 3.9.3 3.9 1.3 0 5.6-5.3 5.6-7 0-3.1-6.3-9.9-9.2-10-1 0-2.4 1.3-3.3 3z"/>
<path d="m243.8 180.8c-5.3 2.8-17.6 5.4-18.2 3.8-.6-1.5-12.7-3.3-15.5-2.3-2.5.8-2.8 1.5-2.9 5.7-.1 2.6.4 5.1 1 5.6 2.2 1.8 12.1 4.1 17.5 4.1 7.2 0 20.9-2.6 23.9-4.6 3.3-2.2 6.3-7.5 5.6-9.9-.8-2.6-3.4-5.5-4.8-5.4-.6 0-3.6 1.4-6.6 3zm-23.9 5.5c3.7 1.1 7.7 1.5 12.6 1.2 5.3-.4 7.8-.1 9.3.9 4 2.8 2.1 4.5-6.5 5.9-1.1.2-5.4.5-9.5.6-5.8.1-8.5-.3-11.5-1.8-4.9-2.4-6.4-4.6-4.6-6.8 1.7-2 3.4-2 10.2 0z"/>
<path d="m343.1 197.3c-.9 2.5 1.3 4 2.6 1.6 1-1.9.6-3.2-1.1-3.2-.5 0-1.1.7-1.5 1.6z"/>
<path d="m478.6 327.9c-2.2 4.4-3 11.7-1.7 16.2.9 3.2 1.4 3.7 3.2 3.2 2.6-.6 8.5 5.3 9.4 9.5.3 1.6 1 3.2 1.4 3.5 1.7 1 .9-3.6-1.7-9.3-2.2-5.1-2.5-6.8-2.1-13.7.3-6.2.8-8.2 2.2-9.2 1.1-.8 1.4-1.4.8-1.4-.5 0-1.8.9-2.9 2.1-1.4 1.6-1.8 3.6-1.9 9v7l-3-.5c-1.6-.4-3.3-1.2-3.7-1.9-1.3-1.8-.4-9.9 1.5-13.7s2-4 .9-4c-.4 0-1.5 1.5-2.4 3.2z"/>
<path d="m496.6 330.4c-.9 1-2.1 3.5-2.6 5.6-1.4 5-1 17.3.5 18.8 1.7 1.7 2.9.3 1.3-1.6-1.8-2.2-.9-17 1.3-21.3 2-3.6 1.8-4.1-.5-1.5z"/>
<path d="m500.2 343.2c-1.9 4.6-2.9 13.3-2 16.9 1.2 4.7 2.2 2.7 1.8-3.3-.3-3.6.2-7.9 1.1-11.2 1.9-6.4 1.4-7.8-.9-2.4z"/>
<path d="m508 347c-2.2 2.6-4.3 10.2-5.7 20.2-.8 5.5-2.1 13.2-2.9 17.1-2.1 10.5-3.1 23.4-1.8 23.4.8 0 1 2.5.6 7.7-.6 8.2.4 15.4 2.2 16 .8.3 1.1-3.1 1-10.4 0-5.9.3-11.8.7-13 .7-1.9.5-2.2-.7-1.7-1.3.5-1.6-.2-1.6-3.7.1-8.8 2.9-23.9 5.4-29.5 3.1-6.8 3.3-8.3.5-5.8l-2.1 1.9.7-5c.5-2.8 1.8-7.9 3.1-11.4 2.4-6.6 2.6-8.2.6-5.8z"/>
<path d="m470.3 356.1c-2.8 2.8-3.2 8.1-.6 8.1 3.2 0 7.2-9.2 4.4-10.2-.7-.3-2.4.7-3.8 2.1z"/>
<path d="m508 380.7c-4 10.1-5.7 21-3.2 21 .6 0 1-1.5 1-3.4 0-4.3 1-7.2 2-5.6.4.7 2-.4 4.3-3 4.2-4.6 7-5.1 9.3-1.5 2.8 4.3 1.4 11-3.4 15.8-4.7 4.6-8.2 5.1-11.2 1.6-2.6-3.2-2.6-.5.1 3.2 3.3 4.7 7.6 3.6 14-3.5 7.9-8.6 5.4-22.6-3.9-22.6-2.8 0-4.2.8-6.8 3.7l-3.3 3.8 1.5-4.7c1.7-5.1 1.4-9.1-.4-4.8z"/>
<path d="m511.7 391.4c-2.6 2.9-5.3 8.2-4.5 9 .2.2 1.8-.3 3.5-1.2 2.8-1.4 3.2-1.4 3.7 0 .3.8 1.2 1.5 2 1.5 2.1 0 1.7-3.8-.5-5.2-2.5-1.5-1-3.8 1.9-3.1 2.4.6 2.8-2.2.4-3.1-2.8-1.1-4-.7-6.5 2.1z"/>
<path d="m503.3 411.8c-1.2 1.8-.8 17.4.4 19.7 1.6 3 3.6 2.9 2.5-.1-.4-1.2-.8-6.4-.9-11.5 0-8.7-.5-10.6-2-8.1z"/>
<path d="m509 427.7c0 10.4.5 14 1.8 14 .9 0 1.2-16.9.4-21.3-1.1-5.7-2.1-2.3-2.2 7.3z"/>
<path d="m516.3 435.9c.4 5.7 1.1 11 1.6 11.8.4.8.9 1 .9.5.2-1.4-.2-15.5-.5-18.5-.4-3.9-.4-4-1.6-4-.8 0-1 2.9-.4 10.2z"/>
<path d="m337.3 335.6c-.3.6-1.3 1-2.3 1-.9 0-4.8.9-8.7 1.9-3.8 1.1-11.5 2.9-17 4.1-5.5 1.1-15.8 3.4-23 5.1-17.4 4-34.8 7.7-72 14.9-39.1 7.7-39.4 7.8-40.1 10.7-.3 1.2-.3 2.8.1 3.3.3.6 1 3.2 1.4 5.9.5 2.6 2.7 13.7 4.9 24.7 2.3 11 4.6 23.6 5.2 28 1.1 8.7 2.2 14.5 4.3 24.5 1.2 5.8 1.7 6.5 3.8 6.6 1.3.1 4-.4 5.9-1.2 3.9-1.5 24-6.3 44-10.4 3-.6 6.9-1.5 8.5-2 1.7-.4 7.8-1.9 13.8-3.1 5.9-1.3 10.7-2.7 10.7-3.2s-.8-.6-1.7-.3c-2.5.7-10.3 2.6-13.3 3.2-1.4.3-5.4 1.1-9 1.9-8.2 1.8-24.8 5.2-32 6.6-3 .6-9.2 2-13.8 3.1-13.4 3.2-12.9 3.2-13.5 0-.2-1.5-1.6-8.1-3-14.7s-2.7-13.8-3.1-16c-.3-2.2-1.7-9.6-3.1-16.5s-3-15.4-3.5-19c-.6-3.6-1.4-8.3-2-10.5-1-4.3-1.3-11.5-.5-11.5.3 0 10.6-2.3 23-5 12.3-2.8 29.5-6.3 38.2-7.9 25.4-4.7 73.6-15.2 86.8-18.9 12.5-3.5 11-4.3 13 7.2 2.1 12.5 2.1 12.9 3.5 24.6.6 5.2 2 14.4 3 20.5 2.4 14.5 4.3 33.2 3.5 34.4-.7 1.3-20.6 6.8-30.5 8.6-.3 0-4.5 1-9.5 2.2-4.9 1.2-13.5 3.2-19 4.3-11.8 2.6-12.9 2.9-12.4 3.5.5.4 20.3-3.5 37.4-7.4 18.1-4.2 32-7.1 34-7.1 4.7-.1 4.9-.9 3.1-13.6-2.1-15-3.5-23.7-4.6-29.4-.5-2.5-1.4-9.2-2-15-.7-5.8-2-15.4-3.1-21.4-1-6-1.9-12.4-1.9-14.3 0-3.2-2.1-4.6-3.5-2.4z"/>
<path d="m379 337.2c0 1.6.2 2.2.5 1.2.2-.9.2-2.3 0-3-.3-.6-.5.1-.5 1.8z"/>
<path d="m377.4 348.9c-.7 8.4-1.4 21.3-2.1 38.3-.4 7.7-1 20.1-1.6 27.5-1.1 16.6-1.1 16 .1 16 .6 0 1-.8 1-1.8s.3-2.1.6-2.5c.4-.3.8-7.7 1-16.4s.6-19.2.8-23.3c1-15.1 1.9-44 1.3-44-.3 0-.8 2.8-1.1 6.2z"/>
<path d="m87.7 224.3c2.173-.542.3645-4.913-1.1-3.6s-1.073 4.142 1.1 3.6z"/>
<path d="m297.1 224.9c1.4 5.6 4.3 12.8 5 12.2 1.2-1.2.8-3.7-1.5-9.1-2.3-5.3-4.5-7.2-3.5-3.1z"/>
<path d="m300.8 223.3c0 .3 1.1 2.2 2.5 4.2s2.5 4.7 2.5 5.9c0 1.3.5 2.3 1 2.3 1.9 0 1-5.4-1.6-9.2-2.4-3.3-4.4-4.9-4.4-3.2z"/>
<path d="m222.3 247.7c-1.1 1.7-.9 7 .3 8.2 3.2 3.2 5.8-3.6 2.8-7.5-1.5-2-2.2-2.1-3.1-.7z"/>
<path d="m223.5 275.3c-1.4 1.5-.7 7.5.9 8.1 2.2.8 4.6-2.4 4.2-5.7-.3-2.5-3.5-4-5.1-2.4z"/>
<path d="m224 307.6c-1.7 1.7-1.641 3.896.159 5.396 2.75 1.2 4.327-.879 3.827-4.479-.7-2.6-1.986-2.917-3.986-.917z"/>
<path d="m1224 395.1c-3.4.4-11.1 1.327-11.4 2.027-.3 1 4.2 1.527 10.1 1.527 11.6 0 29.46 5.3 43.66 15.1 14.12 13.42 26.35 32.6 29.9 50.1 5.6 26.2-1 51-18.2 68.4-6.3 6.3-8.8 8.4-14.3 11.3-11.6 6.3-18.3 10.6-22.2 14.7-2.3 2.4-4.7 4.4-5.2 4.4-.8 0 0-9.9 1.1-12.7.3-.7-.1-1.3-.9-1.3-1.2 0-3.8 9.8-3.8 14.6 0 .9-1.5 4-3.3 6.8-4.3 6.7-6.3 12.4-4.8 13.9s2.4.3 4.6-5.7c1-2.9 2.5-5.1 3.6-5.3 1.1-.3 1.9-1.3 1.9-2.2 0-3.1 14.1-15.4 24-21 18.8-10.6 26.8-18.6 35.5-35.4 4-7.9 4.9-10.7 6.1-20.7.4-2.5 1-5 1.6-5.5.5-.6 8.8-1 20.6-1h19.7l6.5 8.7c5.6 7.6 6.5 8.4 6.8 6.3.2-1.7-1.4-5-5.3-10.5l-5.6-8h-20.4c-19.9 0-20.4 0-21.9-2.2-.9-1.2-1.6-3.9-1.6-5.9 0-2.1-.9-7.7-2-12.6-2.87-12.38-11.86-30.84-17.8-39.1-8.3-11-24.7-22-39.2-26.2-9.7-2.8-10.86-3.154-17.76-2.554z"/>
<path d="m1184 423.9c-1.9 1.5-3.7 9.7-3.7 17.2 0 5.6 1.1 8.3 2.9 7.1.9-.5.9-1 0-2.1-.8-1-1-3.9-.6-9.4.7-8.6 1.9-12 4.2-12 .8 0 1.5-.5 1.5-1 0-1.4-2.3-1.3-4.3.2z"/>
<path d="m1192 427c-1.4 1.6-3.1 9.2-3.2 13.4 0 5.8 2 13.3 3.7 13.3 1.1 0 1.4-.6.9-2.3-2-7-2.5-12.1-1.6-16.9.6-2.9 1.5-5.7 2-6.2.6-.6 1-1.4 1-1.8 0-1.2-1.6-.9-2.8.5z"/>
<path d="m1199 434.7c-2.2 3.6-4.3 21.6-3.1 26.5 1 4.1 2.7 2.9 2-1.4-.7-4.4 1.3-21.1 2.7-22.6 1.2-1.2 1.2-3.5 0-3.5-.6 0-1.3.5-1.6 1z"/>
<path d="m1207 440.7c-1.4 2.7-4 17.3-4 22.7 0 2.3.4 5.3 1 6.7 1.2 3.2 3.4 3.5 2.4.4-1.6-5.1.5-28 2.7-29.4 1.2-.7 1.2-2.4-.1-2.4-.5 0-1.4.9-2 2z"/>
<path d="m148.1 454.4c-5.1 12.6-5.2 13-.8 14.9l3.7 1.5-.8 10.7c-.4 5.9-.8 11.7-.8 12.8-.1 1.4-.6 2-1.4 1.6-1-.3-1.3-3-1.2-10.6.1-5.5-.542-10.88-.542-12.18-.743-10.39-3.316-11.26-1.865 6.188-7.319 1.459-9.07 3.061-.03 1.876.676 16.16 1.652 15.3-3.13 14.06-1.1-.3-2.73-.543-3.73-.543-2.3 0-5.076-5.371-5.845-8.718-2.034-4.504-8.795-20.34-4.855-22.28 1.2 0 4.2 6.6 9.1 19.9 3 8.3 5.492 13.36 6.992 11.96.2-.3-3.52-10.01-4.525-12.94 5.524-2.7 4.86-3.426-.6-1.406-1.106-1.999-1.96-6.208-2.518-7.62-1.116-2.823-2.098-5.295-2.448-6.395-1.2-3.7-7.5-11.5-9.3-11.5-1.6 0 .943 20.97 4.864 28.13 0 0-2.527.717-3.647 1.156-.793.518-2.888 1.895-3.488 1.895-1 .1-.829 14.62.07 39.72.5 11.8 0 11.1 10 14.9 4 1.5 9.4 2.5 16.2 3 11 .8 16.3-.1 20.5-3.3 1.4-1.1 3.4-2.5 4.3-3 1.8-1.1 1.9-2.1 3-32.3.5-15.8.4-16.4-1.5-16.9-1.1-.3-2-.9-2-1.3s-1.1-1.2-2.5-1.8c-3.1-1.4-3.1-2.5-.2-9.3 2.3-5.7 2.6-13.9.4-13.9-1.5 0-10.7 10.4-10.8 12.2 0 .7-1.3 4-2.9 7.3l-2.8 6-.1-4c-.1-2.9-.188-2.348-.1-2.877 6.709 2.106 7.541.599.399-1.504.676-9.057 1.399-32.52-.501-32.92-1-.2-2.4 2.1-4.6 7.5zm4.3 10.5c-1.2 2.1-2.7 2.3-4.3.7-1.1-1.1-1-1.6 3-10.9 1-2.3.676-2 1.276 3 .4 3.3.06 5.776.02 7.2zm14.2 10.9c-1.5 4.3-8.7 18.2-10.3 19.8-2.2 2.2-3-1-1.2-4.6.8-1.5 1.8-4.3 2.2-6 1.513-3.791 2.952-8.412 5.1-11.3 2-2.3 2.9-2.8 3.9-2 1 .9 1.1 1.8.3 4.1zm-36.9 12.9c1 3.1.4 3.9-1.7 1.8-1.4-1.4-1.6-4.8-.3-4.8.5 0 1.4 1.3 2 3zm37.9-.4c3 2 2.8 3-.9 4.9-4.8 2.5-6 1.7-4.2-2.8 1.7-4.2 2-4.3 5.1-2.1zm-41.7 4c6.1 7.4 31 9.7 42.3 3.9l4.9-2.5-.8 16.7c-.4 9.3-.8 17.9-1 19.3-.1 1.4-.3 3.3-.4 4.2 0 1-.6 1.8-1.1 1.8-.6 0-2.2 1.2-3.5 2.7-2.3 2.8-2.5 2.8-14.2 2.8-9.1 0-13.1-.4-17.6-2-8.1-2.7-9.4-4.2-10.1-11.7-.9-9.2-1.2-36.8-.5-36.8.4 0 1.2.7 2 1.6z"/>
<path d="m1214 450.9c-2.2 3.5-3.6 8.5-4.6 16.7-.9 7.4-.7 10.1 1 10.1.5 0 .9-2.6.9-5.8 0-5.8 2.4-17.2 3.9-18.2 1.3-.9 2.1-3.9 1.1-4.5-.5-.3-1.6.5-2.3 1.7z"/>
<path d="m1183 451.6c-.4.5-.9 3-1.2 5.5-.9 6 3.1 17.4 5.2 15.3.4-.4-.1-3.2-1.1-6.3-1.1-3.5-1.6-7.2-1.2-10 .4-4.2-.5-6.6-1.7-4.5z"/>
<path d="m1220 458.7c-3.5 6.6-7.5 28-5.2 28 .5 0 1.3-2.4 1.7-5.3.9-7.2 3.4-16.6 5.2-20 1-2 1.2-3.2.5-3.9s-1.4-.3-2.2 1.2z"/>
<path d="m1174 464.5c-2.9.4-7.7 5.6-7.2 7.8.6 3.1 3.6 2.8 6.7-.7 2.9-3.2 4.5-6.6 3.3-7.2-.4-.2-1.7-.1-2.8.1z"/>
<path d="m1222 477.9c-1.1 1.8-3.3 6.9-4.8 11.3-2.4 6.8-2.8 9.4-2.7 17.4 0 5.1.5 9.6 1.1 10 .5.3 1.7 2.1 2.6 3.8.9 1.8 2.3 3.3 3.1 3.3 1.8 0 1.8-.5.5-3-.8-1.5-.6-2.1.9-2.9s2.5-.6 4.6 1.1c1.8 1.4 3 1.7 3.7 1 1.7-1.7-.9-5.1-4.7-5.8s-3.7-2 .1-3.4c3.3-1.3 5.1-.4 6.3 3.1 1.2 3.6 3.1 3.8 3.1.3 0-1.5-1.2-3.8-2.9-5.4-2.6-2.6-3.2-2.8-6.2-2-1.9.6-4.8 2.7-6.6 4.8-4 4.6-4.1 3.4-.3-7 1.7-4.5 3-8.6 3-9.1 0-1.5-2.6 1.7-4.1 5-1.1 2.7-2.9 4.4-2.9 2.9 0-2.2 5.7-19.1 7.6-22.5 1.3-2.4 2.4-4.7 2.4-5.2 0-1.9-1.9-.7-3.8 2.3z"/>
<path d="m585.8 488.4c-3.6.2-12.3 1-19.5 1.8-7.1.8-19.5 1.5-27.5 1.6s-16 .6-17.8 1c-3.7.8-6.5 4-7 7.9-1.4 12.2-7.5 32.6-14.8 49.7-.8 1.7-1.4 3.4-1.4 3.7 0 1.1-7.3 19.1-10.1 25-3.4 6.9-3.3 6.6-1.6 6.6 1.8 0 4.2-5.2 11.5-24 3.3-8.5 8.4-21.4 11.2-28.7 3.6-9.3 5.6-16.2 6.7-23.5.8-5.7 1.9-10.7 2.4-11.2 1.2-1.4 6.2 2.3 15 10.9 5.8 5.8 7.9 8.5 7.9 10.4 0 5.6-4.5 24.6-8.9 37.6-3.9 11.6-5.3 15.1-8.5 21.7-2.8 5.8-3.1 6.8-1.6 6.8 1.1 0 2.8-2.6 5.2-8.3 5.6-12.7 13.8-38.1 15.3-47.2.4-2.2 1.1-5.7 1.6-7.7l1-3.8 25 .1c13.7 0 25.4-.3 25.9-.6.6-.3 1-1.2 1-1.8 0-.9-6.4-1.1-26.1-.9l-26 .3-7.7-7.3c-4.2-4.1-9.1-8.6-10.9-10-3.1-2.5-3.1-2.6-1-3.2 1.2-.3 8.2-.6 15.5-.6s17.4-.4 22.5-1c5.1-.5 14.7-1.1 21.3-1.4 13.2-.6 15.4-1.1 15.4-3.2 0-1-1.1-1.3-3.7-1.2-2.1.1-6.7.3-10.3.5z"/>
<path d="m1222 503.7c-3.9 3.8-2.8 5.9 1.3 2.5 3.4-2.8 6.6-3.2 10.7-1 9.9 5.1 1.4 21.4-12.8 24.6-3.8.9-8.2-.8-10.1-3.8-.9-1.6-1-1.5-.8.7.2 1.6 1.6 3.3 4 4.9 3.3 2.1 3.6 2.6 2.7 4.8-.5 1.4-1.2 6.6-1.6 11.6-.5 7.5-.4 8.9.8 8.5.9-.3 1.6-2.9 2.1-7.9.4-4.1 1.3-9.3 1.9-11.6 1-3.6 1.5-4.2 4.6-4.8 4.2-.8 12.4-8 14.7-13 2-4.1 2-10.4.1-12.9-4.7-6.2-12.8-7.4-17.6-2.6z"/>
<path d="m815.9 531.6c-4.5 12.6-7.373 24.99-8.573 35.39l-5.744.992c-2.5-4.7-5.583-12.68-6.583-15.88-.9-3.2-2.2-6.3-2.8-6.9-.7-.5-2.4-2.7-4-4.8-1.5-2-3.4-3.7-4.3-3.7-1.4 0-1.5 1.1-.8 8.7.4 4.9.8 10.4.9 12.3s.5 4.2.8 5c.4.8 1.6 4 2.7 7.1l1.152 3.832-3.688 2.307c-3.4 1.3-3.164 2.861-3.164 6.161 0 2.4.5 3.6 1.4 3.6.8 0 1.4-1 1.4-2.5 0-1.4.2-2.5.5-2.5.2 0 6.2.9 13.2 2.1 16.7 2.8 29.7 2.3 39.7-1.5l6.8-2.6-.4 3.5c-.3 2.9-.1 3.5 1.4 3.5 1.4 0 1.8-.8 1.8-4.2 0-3.5-.5-4.6-3.2-6.8l-3.2-2.7 3.6-5.9c4.9-8.1 11.5-27.8 9.7-29-.6-.3-3.1 1.4-5.7 3.8s-6.2 5.7-8 7.3c-2.8 2.5-4.8 5.7-13.3 21l-8.546-1.589c-.154-1.368 5.894-30.06 5.766-31.19-.01-3.458.483-14.04-.486-18.42-4.619 4.627-6.929 9.678-8.334 13.61zm4.6 14.99-5.977-1.316c.25-2.35 6.077-19.87 7.977-21.97 1.5-1.7.869 6.219.769 6.819-.735 4.437-2.769 16.47-2.769 16.47zm-28 6.811c1.6 3.7 4.4 10.2 6.4 14.3 5.3 11.3 5.4 12 2 12-5.3 0-6.8-1-9.1-6.3-1.2-2.9-2.7-6.8-3.3-8.7-1.3-4.3-2.65-16.25-2.05-16.95.9-.9 3.25-1.05 6.05 5.65zm56.3-1.6c-.6 2.6-6.2 12.9-10.1 18.9-2.3 3.4-4.1 6.6-4.1 7.1 0 1.2-4.4 2.9-7.6 2.9-1.3 0-2.4-.2-2.4-.4 0-.1 1.1-2.3 2.4-4.7 11-20.4 16.3-27.3 20-25.9 1.1.4 2 1.4 1.8 2.1zm-29.17-1.817s-2.431 11.52-3.031 16.72c-.5 5.2-1.454 13.79-1.554 14.79-.4 2.9 1.364 3.1 2.064.3.4-1.4 1.598-12.15 1.598-12.15l7.881 1.63-5.167 10.31-3.923.115s-10.1-.9-9.4-2c.3-.5 1.2-5.5 2-11.2 2.4-16.3 4.043-19.62 4.043-19.62z"/>
<path d="m1223 542.8c-.8 4-.8 13.3 0 15.3 1.4 3.7 2.4 1.1 2.1-5.7-.1-3.9.2-8.4.6-10 .5-2 .4-2.7-.7-2.7-.7 0-1.6 1.4-2 3.1z"/>
<path d="m1229 549.9c-2 11.8-2.2 13.3-1.2 14.8 1.3 2.1 2 .9 2.4-4.9.3-2.9.8-7.7 1.2-10.7.9-7.6-1.1-7-2.4.8z"/>
<g id="bulles" fill="#fff" stroke-width="4">
 <path d="m381.5 254.4c-.688-24.98 3.284-60.52 154-59.27s141.7 25.41 141.7 54.54-29.44 37.78-100.1 38.83c-70.69 1.05-150-6.152-150-6.152l15.44 30.89-31.63-30.15s-28.73-3.709-29.42-28.68z"/>
 <path d="m321.5 146.3 41.35-35.61s-11.05-8.224-11.01-44.03c.04-35.81 19.86-66.91 182.7-67.65s195.2 13.36 195.3 71.88c.105 58.52-53.55 72.75-200.1 71.54s-157.3-20.48-157.3-20.48z"/>
 <path d="m1080 311.5c.41-30.86 52.92-50.96 123.9-51.18s127.3 5.184 126.6 46.45-43.98 40.71-98.12 43.37-90.52-4.808-90.52-4.808l12.5 25.74-31.62-25.01s-43.07-3.708-42.66-34.57z"/>
 <path d="m1036 173.2 30.93-15.75s-26.28-14-24.81-78.1c1.47-64.09 19.99-79.62 370.3-76.68s384.7-15.72 386.1 99.87c1.39 115.6-152.8 108.5-406.5 112.9s-313.3-45.17-313.3-45.17z"/>
</g>
<text>
 <tspan x="556" y="64">C++17 est</tspan>
 <tspan x="536" y="117">enfin sorti</tspan>
</text>
<text x="532" y="264">Trop top</text>
<text>
 <tspan x="1440" y="65">Va falloir se palucher</tspan>
 <tspan x="1410" y="127">les 1600 pages du</tspan>
 <tspan x="1410" y="191">standard C++17</tspan>
</text>
<text x="1209.13" y="325.446">Gloups</text>
<path id="postit_shadow" stroke-width="4" opacity=".4" d="m1455 234.9c48.3-18.79 127.5-28.54 127.5-28.54l225.6-29.8 24.25 183.6s12.96 107.2 44.39 158.4c-73.54 30.5-203.8 49.46-203.8 49.46l-183.6 24.25-41.49-314.1s-6.614-25.06 7.131-43.31z"/>
<path id="postit_back" stroke-width="4" d="m1448 228.2c55.41-15.95 129.9-25.69 129.9-25.69l225.6-29.8 24.25 183.6s8.308 72.01 39.74 123.2c-59.88 72.15-199.1 84.67-199.1 84.67l-183.6 24.25-41.49-314.1s-3.597-30.2 4.762-46.16z" fill="url(#postit_fill)" />
<text id="postit_text" transform="rotate(-11)" font-size="40">
 <tspan x="1560" y="580">Il y en a qui</tspan>
 <tspan x="1560" y="640">ne connaissent</tspan>
 <tspan x="1550" y="700">pas encore</tspan>
 <tspan x="1550" y="760">les Meetups</tspan>
 <tspan x="1540" y="820">C++FRUG...</tspan>
</text>
</svg>
