<?xml version="1.0" encoding="UTF-8" standalone="no"?>
<!-- Created with Inkscape (http://www.inkscape.org/) -->
<!-- Cleaned Inkscape's tags by hand -->

<svg xmlns="http://www.w3.org/2000/svg" xmlns:xlink="http://www.w3.org/1999/xlink"
     version="1.0"
     width="4400" height="1080" viewBox="0 40 4400 1080" preserveAspectRatio="xMidYMid meet"
     fill="none" stroke="#000" style="stroke-width:2">

<title>Bjarne Stroustrup s'impatiente pour l'intégration des Concepts au standard C++</title>

<metadata    xmlns:rdf="http://www.w3.org/1999/02/22-rdf-syntax-ns#">
  <rdf:RDF   xmlns:cc="http://creativecommons.org/ns#">
    <cc:Work xmlns:dc="http://purl.org/dc/elements/1.1/" rdf:about="https://github.com/cpp-frug/materials/blob/gh-pages/images/cpp-concepts-bjarne-original.svg">
      <dc:format>image/svg+xml</dc:format>
      <dc:type rdf:resource="http://purl.org/dc/dcmitype/StillImage"/>
      <dc:creator>
        <cc:Agent>
          <dc:title>Oliver H</dc:title>
        </cc:Agent>
      </dc:creator>
      <dc:language>fr</dc:language>
      <dc:date>2016</dc:date>
      <cc:license  rdf:resource="http://creativecommons.org/licenses/by/3.0/"/>
    </cc:Work>
    <cc:License    rdf:about="http://creativecommons.org/licenses/by/3.0/">
      <cc:permits  rdf:resource="http://creativecommons.org/ns#Reproduction"/>
      <cc:permits  rdf:resource="http://creativecommons.org/ns#Distribution"/>
      <cc:requires rdf:resource="http://creativecommons.org/ns#Notice"/>
      <cc:requires rdf:resource="http://creativecommons.org/ns#Attribution"/>
      <cc:permits  rdf:resource="http://creativecommons.org/ns#DerivativeWorks"/>
    </cc:License>
  </rdf:RDF>
</metadata>

<rect style="opacity:0.24;fill:#ffe" width="4480" height="1080" x="0" y="0"/>

<g id="texte" fill="#000" stroke="none">
  <g id="2003">
    <path d="m 38,100 0,-7 -24,0 18,-19 c 3,-4 6,-8 6,-14 0,-10 -8,-16 -19,-16 -5,0 -10,2 -16,4 l 0,9 c 5,-3 10,-5 16,-5 5,0 9,3 9,9 0,4 -3,9 -6,11 C 22,73 4,91 3,93 l 0,7 35,0 z"/>
    <path d="m 85,72 c -0,-11 -3,-29 -19,-29 -16,0 -19,17 -19,29 0,11 3,28 19,28 16,0 19,-17 19,-28 z m -9,0 c 0,7 -0,21 -10,21 -9,0 -10,-14 -10,-21 0,-7 0,-21 10,-21 9,0 10,15 10,21 z"/>
    <path d="m 132,72 c -0,-11 -3,-29 -19,-29 -16,0 -19,17 -19,29 0,11 3,28 19,28 16,0 19,-17 19,-28 z m -9,0 c 0,7 -0,21 -10,21 -9,0 -10,-14 -10,-21 0,-7 0,-21 10,-21 9,0 10,15 10,21 z"/>
    <path d="m 175,83 c 0,-5 -3,-11 -9,-13 5,-2 8,-6 8,-12 0,-10 -9,-15 -19,-15 -5,0 -10,1 -15,2 l 0,8 c 5,-1 9,-3 14,-3 5,0 10,2 10,8 -0,5 -4,7 -9,7 l -7,0 0,7 7,0 c 6,0 11,2 11,9 0,8 -5,10 -12,10 -6,0 -10,-1 -14,-4 l 0,9 c 5,1 9,3 15,3 12,0 22,-5 22,-17 z"/>
    <path d="m 220,75 0,-10 -9,0 0,10 9,0 z m 0,24 0,-10 -9,0 0,10 9,0 z"/>
    <path d="m 296,84 c 0,-6 -3,-11 -9,-14 4,-2 7,-6 7,-11 -0,-10 -8,-14 -18,-14 l -18,0 0,55 20,0 c 11,0 19,-4 19,-16 z m -12,-24 c -0,5 -3,7 -8,7 l -9,0 0,-15 9,0 c 5,0 9,2 9,7 z m 2,24 c 0,7 -4,9 -10,9 l -10,0 0,-18 10,0 c 6,0 10,2 10,9 z"/>
    <path d="m 313,106 0,-42 -8,0 0,42 c 0,3 -0,5 -1,5 -0,0 -1,1 -2,2 l 3,6 c 2,-0 4,-2 6,-3 1,-2 3,-5 3,-10 z m -4,-61 c -2,0 -4,2 -4,4 0,2 2,4 4,4 2,0 4,-2 4,-4 0,-2 -2,-4 -4,-4 z"/>
    <path d="m 361,93 c -1,1 -1,1 -3,1 -1,0 -2,-0 -2,-2 l 0,-15 c 0,-8 -6,-13 -16,-13 -4,0 -9,1 -13,4 l 0,7 c 4,-3 7,-4 13,-4 4,0 8,2 8,6 l 0,1 c -2,-0 -5,-1 -8,-1 -9,0 -16,4 -16,12 0,7 5,12 13,12 4,0 8,-1 11,-4 0,2 2,4 6,4 4,0 8,-5 8,-8 z m -14,-9 c 0,6 -2,10 -9,10 -3,0 -6,-1 -6,-5 0,-4 1,-5 7,-6 3,0 5,0 7,1 z"/>
    <path d="m 390,74 3,-8 c -1,-1 -5,-2 -8,-2 -3,0 -5,1 -7,4 l 0,-3 -9,0 0,36 9,0 0,-23 c 0,-4 2,-6 5,-6 0,0 0,0 0,0 2,0 4,1 7,3 z"/>
    <path d="m 433,100 0,-21 c 0,-9 -4,-15 -14,-15 -4,0 -8,1 -11,4 l 0,-3 -9,0 0,36 9,0 0,-20 c 0,-6 4,-9 9,-9 5,0 7,3 7,8 l 0,21 9,0 z"/>
    <path d="m 478,83 0,-3 c 0,-10 -6,-17 -17,-17 -12,0 -18,9 -18,19 0,11 7,18 19,18 5,0 10,-1 15,-3 l 0,-7 c -6,3 -7,3 -15,3 -6,0 -10,-5 -10,-10 l 26,0 z m -9,-6 -17,0 c 1,-4 3,-7 8,-7 5,0 8,2 9,7 z"/>
    <path d="m 550,84 c 0,-10 -6,-14 -16,-17 l -4,-1 c -5,-1 -9,-2 -9,-7 0,-6 5,-8 11,-8 6,0 9,1 15,4 l 0,-8 c -4,-2 -11,-3 -16,-3 -11,0 -19,5 -19,16 0,10 6,13 16,15 l 4,1 c 5,1 9,3 9,9 0,6 -6,8 -11,8 -6,0 -12,-2 -17,-5 l 0,9 c 6,2 11,3 17,3 12,0 21,-4 21,-16 z"/>
    <path d="m 580,99 0,-7 c -2,1 -5,1 -7,1 -0,0 -0,0 -1,0 -4,0 -5,-1 -5,-5 l 0,-19 10,0 0,-6 -10,0 0,-10 -5,0 -3,10 -4,0 0,6 4,0 0,19 c 0,9 4,12 14,12 2,0 5,-0 7,-1 z"/>
    <path d="m 609,74 3,-8 c -1,-1 -5,-2 -8,-2 -3,0 -5,1 -7,4 l 0,-3 -9,0 0,36 9,0 0,-23 c 0,-4 2,-6 5,-6 0,0 0,0 0,0 2,0 4,1 7,3 z"/>
    <path d="m 653,82 c 0,-9 -6,-19 -18,-19 -12,0 -18,8 -19,19 0,10 7,19 19,19 12,-0 18,-9 18,-19 z m -9,0 c -0,6 -3,11 -9,11 -7,-0 -9,-7 -9,-12 0,-6 3,-11 9,-11 6,0 9,5 9,11 z"/>
    <path d="m 696,100 0,-36 -9,0 0,20 c 0,5 -3,9 -9,9 -5,0 -7,-3 -7,-8 l 0,-21 -9,0 0,21 c 0,9 4,15 14,15 4,0 8,-2 10,-5 l 0,4 9,0 z"/>
    <path d="m 737,89 c 0,-7 -6,-10 -13,-11 l -2,-0 c -3,-0 -7,-1 -7,-4 0,-3 4,-4 7,-4 6,0 6,0 12,3 l 0,-7 c -4,-1 -8,-2 -13,-2 -8,0 -16,3 -16,11 0,7 5,9 12,11 l 2,0 c 3,1 7,1 7,4 -0,3 -4,4 -7,4 -7,-0 -8,-1 -14,-3 l 0,8 c 4,1 10,2 14,2 8,0 17,-3 17,-11 z"/>
    <path d="m 769,99 0,-7 c -2,1 -5,1 -7,1 -0,0 -0,0 -1,0 -4,0 -5,-1 -5,-5 l 0,-19 10,0 0,-6 -10,0 0,-10 -5,0 -3,10 -4,0 0,6 4,0 0,19 c 0,9 4,12 14,12 2,0 5,-0 7,-1 z"/>
    <path d="m 798,74 3,-8 c -1,-1 -5,-2 -8,-2 -3,0 -5,1 -7,4 l 0,-3 -9,0 0,36 9,0 0,-23 c 0,-4 2,-6 5,-6 0,0 0,0 0,0 2,0 4,1 7,3 z"/>
    <path d="m 841,100 0,-36 -9,0 0,20 c 0,5 -3,9 -9,9 -5,0 -7,-3 -7,-8 l 0,-21 -9,0 0,21 c 0,9 4,15 14,15 4,0 8,-2 10,-5 l 0,4 9,0 z"/>
    <path d="m 852,119 8,0 0,-19 c 2,0 4,1 7,1 13,0 20,-7 20,-19 -0,-11 -7,-19 -20,-19 -5,0 -12,1 -16,2 l 0,54 z m 8,-26 0,-22 c 2,-0 3,-1 6,-1 7,0 11,4 11,12 0,7 -4,12 -11,12 -3,-0 -4,-0 -6,-1 z"/>
    <path d="m 5,189 8,0 0,-19 c 2,0 4,1 7,1 13,0 20,-7 20,-19 -0,-11 -7,-19 -20,-19 -5,0 -12,1 -16,2 l 0,54 z M 14,163 14,141 c 2,-0 3,-1 6,-1 7,0 11,4 11,12 0,7 -4,12 -11,12 C 18,163 16,163 14,163 Z"/>
    <path d="m 72,144 3,-8 c -1,-1 -5,-2 -8,-2 -3,0 -5,1 -7,4 l 0,-3 -9,0 0,36 9,0 0,-23 c 0,-4 2,-6 5,-6 0,0 0,0 0,0 2,0 4,1 7,3 z"/>
    <path d="m 109,117 -10,0 -11,14 8,0 13,-14 z m 5,36 0,-3 c 0,-10 -6,-17 -17,-17 -12,0 -18,9 -18,19 0,11 7,18 19,18 5,0 10,-1 15,-3 l 0,-7 c -6,3 -7,3 -15,3 -6,0 -10,-5 -10,-10 l 26,0 z m -9,-6 -17,0 c 1,-4 3,-7 8,-7 5,0 8,2 9,7 z"/>
    <path d="m 153,159 c 0,-7 -6,-10 -13,-11 l -2,-0 c -3,-0 -7,-1 -7,-4 0,-3 4,-4 7,-4 6,0 6,0 12,3 l 0,-7 c -4,-1 -8,-2 -13,-2 -8,0 -16,3 -16,11 0,7 5,9 12,11 l 2,0 c 3,1 7,1 7,4 -0,3 -4,4 -7,4 -7,-0 -8,-1 -14,-3 l 0,8 c 4,1 10,2 14,2 8,0 17,-3 17,-11 z"/>
    <path d="m 196,153 0,-3 c 0,-10 -6,-17 -17,-17 -12,0 -18,9 -18,19 0,11 7,18 19,18 5,0 10,-1 15,-3 l 0,-7 c -6,3 -7,3 -15,3 -6,0 -10,-5 -10,-10 l 26,0 z m -9,-6 -17,0 c 1,-4 3,-7 8,-7 5,0 8,2 9,7 z"/>
    <path d="m 239,170 0,-21 c 0,-9 -4,-15 -14,-15 -4,0 -8,1 -11,4 l 0,-3 -9,0 0,36 9,0 0,-20 c 0,-6 4,-9 9,-9 5,0 7,3 7,8 l 0,21 9,0 z"/>
    <path d="m 273,169 0,-7 c -2,1 -5,1 -7,1 -0,0 -0,0 -1,0 -4,0 -5,-1 -5,-5 l 0,-19 10,0 0,-6 -10,0 0,-10 -5,0 -3,10 -4,0 0,6 4,0 0,19 c 0,9 4,12 14,12 2,0 5,-0 7,-1 z"/>
    <path d="m 312,153 0,-3 c 0,-10 -6,-17 -17,-17 -12,0 -18,9 -18,19 0,11 7,18 19,18 5,0 10,-1 15,-3 l 0,-7 c -6,3 -7,3 -15,3 -6,0 -10,-5 -10,-10 l 26,0 z m -9,-6 -17,0 c 1,-4 3,-7 8,-7 5,0 8,2 9,7 z"/>
    <path d="m 356,170 0,-55 -8,0 0,55 8,0 z"/>
    <path d="m 401,153 0,-3 c 0,-10 -6,-17 -17,-17 -12,0 -18,9 -18,19 0,11 7,18 19,18 5,0 10,-1 15,-3 l 0,-7 c -6,3 -7,3 -15,3 -6,0 -10,-5 -10,-10 l 26,0 z m -9,-6 -17,0 c 1,-4 3,-7 8,-7 5,0 8,2 9,7 z"/>
    <path d="m 440,159 c 0,-7 -6,-10 -13,-11 l -2,-0 c -3,-0 -7,-1 -7,-4 0,-3 4,-4 7,-4 6,0 6,0 12,3 l 0,-7 c -4,-1 -8,-2 -13,-2 -8,0 -16,3 -16,11 0,7 5,9 12,11 l 2,0 c 3,1 7,1 7,4 -0,3 -4,4 -7,4 -7,-0 -8,-1 -14,-3 l 0,8 c 4,1 10,2 14,2 8,0 17,-3 17,-11 z"/>
    <path d="m 517,165 0,-9 c -5,5 -10,7 -17,7 -12,0 -17,-9 -17,-21 0,-12 4,-21 17,-21 7,0 12,2 17,7 l 0,-9 c -5,-3 -11,-5 -17,-5 -18,0 -27,13 -27,29 0,16 8,28 27,28 6,0 13,-2 17,-5 z"/>
    <path d="m 561,152 c 0,-9 -6,-19 -18,-19 -12,0 -18,8 -19,19 0,10 7,19 19,19 12,-0 18,-9 18,-19 z m -9,0 c -0,6 -3,11 -9,11 -7,-0 -9,-7 -9,-12 0,-6 3,-11 9,-11 6,0 9,5 9,11 z"/>
    <path d="m 604,170 0,-21 c 0,-9 -4,-15 -14,-15 -4,0 -8,1 -11,4 l 0,-3 -9,0 0,36 9,0 0,-20 c 0,-6 4,-9 9,-9 5,0 7,3 7,8 l 0,21 9,0 z"/>
    <path id="c" d="m 646,168 0,-7 c -5,2 -6,3 -12,3 -7,-0 -11,-4 -11,-12 0,-7 4,-12 11,-12 5,0 7,1 12,3 l 0,-7 c -4,-1 -7,-2 -12,-2 -13,0 -20,7 -20,19 0,11 7,19 20,19 4,0 9,-1 12,-2 z"/>
    <path d="m 689,153 0,-3 c 0,-10 -6,-17 -17,-17 -12,0 -18,9 -18,19 0,11 7,18 19,18 5,0 10,-1 15,-3 l 0,-7 c -6,3 -7,3 -15,3 -6,0 -10,-5 -10,-10 l 26,0 z m -9,-6 -17,0 c 1,-4 3,-7 8,-7 5,0 8,2 9,7 z"/>
    <path d="m 698,189 8,0 0,-19 c 2,0 4,1 7,1 13,0 20,-7 20,-19 -0,-11 -7,-19 -20,-19 -5,0 -12,1 -16,2 l 0,54 z m 8,-26 0,-22 c 2,-0 3,-1 6,-1 7,0 11,4 11,12 0,7 -4,12 -11,12 -3,-0 -4,-0 -6,-1 z"/>
    <path d="m 765,169 0,-7 c -2,1 -5,1 -7,1 -0,0 -0,0 -1,0 -4,0 -5,-1 -5,-5 l 0,-19 10,0 0,-6 -10,0 0,-10 -5,0 -3,10 -4,0 0,6 4,0 0,19 c 0,9 4,12 14,12 2,0 5,-0 7,-1 z"/>
    <path d="m 803,159 c 0,-7 -6,-10 -13,-11 l -2,-0 c -3,-0 -7,-1 -7,-4 0,-3 4,-4 7,-4 6,0 6,0 12,3 l 0,-7 c -4,-1 -8,-2 -13,-2 -8,0 -16,3 -16,11 0,7 5,9 12,11 l 2,0 c 3,1 7,1 7,4 -0,3 -4,4 -7,4 -7,-0 -8,-1 -14,-3 l 0,8 c 4,1 10,2 14,2 8,0 17,-3 17,-11 z"/>
    <path d="m 874,163 c -1,1 -1,1 -3,1 -1,0 -2,-0 -2,-2 l 0,-15 c 0,-8 -6,-13 -16,-13 -4,0 -9,1 -13,4 l 0,7 c 4,-3 7,-4 13,-4 4,0 8,2 8,6 l 0,1 c -2,-0 -5,-1 -8,-1 -9,0 -16,4 -16,12 0,7 5,12 13,12 4,0 8,-1 11,-4 0,2 2,4 6,4 4,0 8,-5 8,-8 z m -14,-9 c 0,6 -2,10 -9,10 -3,0 -6,-1 -6,-5 0,-4 1,-5 7,-6 3,0 5,0 7,1 z"/>
    <path d="m 916,170 0,-36 -9,0 0,20 c 0,5 -3,9 -9,9 -5,0 -7,-3 -7,-8 l 0,-21 -9,0 0,21 c 0,9 4,15 14,15 4,0 8,-2 10,-5 l 0,4 9,0 z"/>
    <use xlink:href="#c" transform="translate(-610,70)"/>
    <path d="m 80,222 c 0,-9 -6,-19 -18,-19 -12,0 -18,8 -19,19 0,10 7,19 19,19 12,-0 18,-9 18,-19 z m -9,0 c -0,6 -3,11 -9,11 -7,-0 -9,-7 -9,-12 0,-6 3,-11 9,-11 6,0 9,5 9,11 z"/>
    <path d="m 148,240 0,-21 c 0,-8 -3,-15 -13,-15 -5,0 -10,2 -13,6 -2,-4 -6,-6 -11,-6 -4,0 -8,2 -11,5 l 0,-4 -9,0 0,36 9,0 0,-20 c 0,-5 4,-9 9,-9 0,0 0,0 0,0 5,0 6,3 6,8 l 0,21 9,0 0,-20 c 0,-5 3,-9 9,-9 5,0 6,3 6,8 l 0,21 9,0 z"/>
    <path d="m 167,240 0,-36 -8,0 0,36 8,0 z m -4,-55 c -2,0 -4,2 -4,4 0,2 2,4 4,4 2,0 4,-2 4,-4 0,-2 -2,-4 -4,-4 z"/>
    <path d="m 201,239 0,-7 c -2,1 -5,1 -7,1 -0,0 -0,0 -1,0 -4,0 -5,-1 -5,-5 l 0,-19 10,0 0,-6 -10,0 0,-10 -5,0 -3,10 -4,0 0,6 4,0 0,19 c 0,9 4,12 14,12 2,0 5,-0 7,-1 z"/>
    <path d="m 236,187 -10,0 -11,14 8,0 13,-14 z m 5,36 0,-3 c 0,-10 -6,-17 -17,-17 -12,0 -18,9 -18,19 0,11 7,18 19,18 5,0 10,-1 15,-3 l 0,-7 c -6,3 -7,3 -15,3 -6,0 -10,-5 -10,-10 l 26,0 z m -9,-6 -17,0 c 1,-4 3,-7 8,-7 5,0 8,2 9,7 z"/>
    <path d="m 318,235 0,-9 c -5,5 -10,7 -17,7 -12,0 -17,-9 -17,-21 0,-12 4,-21 17,-21 7,0 12,2 17,7 l 0,-9 c -5,-3 -11,-5 -17,-5 -18,0 -27,13 -27,29 0,16 8,28 27,28 6,0 13,-2 17,-5 z"/>
    <path d="m 368,222 0,-6 -18,0 0,-17 -8,0 0,17 -19,0 0,6 19,0 0,17 8,0 0,-17 18,0 z"/>
    <path d="m 416,222 0,-6 -18,0 0,-17 -8,0 0,17 -19,0 0,6 19,0 0,17 8,0 0,-17 18,0 z"/>
  </g>
  <g id="Cpp03">
    <path d="m 38,892 c 4,-8 12,-13 21,-14 4,-1 8,-1 12,-1 4,1 5,6 7,9 2,7 0,15 -2,23 -1,3 -1,5 -2,8 4,3 9,7 11,12 -0,3 -4,2 -6,0 -3,-2 -6,-4 -9,-6 -1,2 -3,4 -5,6 -6,5 -16,7 -22,2 -4,-3 -6,-8 -7,-13 -2,-7 -1,-15 1,-22 0,-2 1,-4 2,-6 z m 15,18 c 0,-3 4,-4 6,-2 3,1 5,3 8,5 3,-5 4,-12 5,-18 1,-4 -2,-7 -5,-9 -3,-1 -7,-1 -11,-1 -3,-0 -5,2 -7,3 -2,2 -4,3 -5,6 -1,3 -3,6 -3,10 -1,5 -1,11 1,17 1,3 4,6 7,6 5,0 10,-2 13,-5 1,-3 -3,-5 -5,-7 C 56,914 54,913 53,910 Z"/>
    <path d="m 90,894 c 6,1 2,9 3,13 0,6 0,13 2,20 3,3 8,-3 10,-6 5,-7 8,-15 10,-24 -0,-6 8,-4 6,1 -1,8 -3,17 -0,25 1,3 3,12 -3,9 -2,-3 -4,-14 -4,-14 0,0 -5,9 -9,11 -3,3 -9,6 -14,3 -3,-4 -3,-9 -4,-14 -0,-7 -1,-15 0,-22 0,-1 1,-2 2,-2 z"/>
    <path d="m 134,900 c 6,-5 14,-9 22,-8 7,-0 12,5 12,12 0,9 -3,18 -10,24 -8,6 -22,5 -28,-4 -5,-8 -2,-19 4,-25 z m 12,27 c 7,-0 12,-8 14,-14 1,-4 3,-11 -2,-14 -7,-1 -15,0 -19,6 -5,5 -7,15 -0,19 2,2 5,2 8,2 z"/>
    <path d="m 175,892 c 6,-3 5,7 6,11 0,8 1,17 0,26 -2,4 -8,0 -6,-4 -0,-10 -1,-20 -1,-30 0,-1 0,-2 1,-3 z m -3,-8 c 1,-7 11,1 5,4 -3,1 -5,-2 -5,-4 z"/>
    <path d="m 205,879 c -3,-5 4,-5 8,-4 2,-0 3,0 2,2 -0,8 -0,16 -3,23 -1,2 -1,11 -5,7 -1,-5 -1,-11 -2,-16 0,-4 -0,-8 0,-12 z m 1,44 c -5,-1 -2,-9 2,-9 5,-0 5,6 3,9 -1,2 -3,0 -5,0 z"/>
    <path d="m 285,888 c -3,-6 -12,-5 -17,-4 -9,0 -5,11 -5,17 2,5 11,0 16,-1 2,-3 5,-7 7,-11 z m -22,-11 c 6,-0 13,-2 19,-0 6,0 10,6 9,12 -0,6 -4,11 -9,15 -4,3 -10,5 -15,6 -7,-1 -1,10 -2,14 1,4 0,15 -6,11 -2,-7 -2,-14 -2,-22 -0,-8 -1,-17 -1,-26 -8,5 -5,-7 0,-9 2,-2 5,-2 8,-2 z"/>
    <path d="m 315,924 c 0,-2 2,-3 4,-4 2,-1 -0,-3 -2,-3 -4,-1 -8,-1 -12,1 -2,1 -4,4 -3,7 2,1 4,2 6,1 2,-0 4,-1 6,-2 z m 12,4 c -0,2 -2,4 -4,4 -1,-1 -2,-3 -2,-4 -0,-1 0,-4 -1,-2 -3,3 -6,5 -10,6 -3,1 -6,0 -10,-1 -2,-0 -3,-2 -3,-4 -0,-3 -0,-7 2,-9 3,-2 6,-4 10,-5 3,-1 7,-1 10,0 1,1 3,1 3,1 -0,-4 -0,-8 -1,-11 -0,-1 -1,-3 -3,-3 -5,0 -11,3 -16,5 -1,0 -4,1 -4,-1 0,-2 2,-3 3,-4 3,-1 6,-2 9,-3 4,-1 8,-2 12,0 3,2 5,6 5,10 0,8 0,15 1,23 z"/>
    <path d="m 333,927 c 0,-5 5,-2 6,1 3,2 8,4 11,0 2,-2 5,-7 0,-9 -4,-2 -9,-3 -13,-5 -3,-2 -7,-6 -5,-10 3,-6 10,-10 17,-10 4,-2 13,4 9,8 -4,-1 -8,-5 -12,-2 -3,1 -11,5 -7,9 6,4 14,3 18,9 3,5 -0,13 -5,16 -4,2 -9,0 -13,-0 -3,-0 -6,-4 -6,-7 z"/>
    <path d="m 379,902 c 0,-3 4,-3 4,-6 0,-2 2,-6 5,-4 1,2 4,1 6,1 6,-1 13,-2 19,0 4,1 6,5 6,9 -0,6 -3,12 -6,17 -3,6 -10,10 -17,10 -1,-0 -2,-0 -4,-0 1,6 3,11 3,17 0,3 -3,4 -5,2 -2,-1 -2,-4 -2,-6 -3,-11 -3,-23 -5,-35 0,-3 -4,-1 -4,-4 z m 32,-4 c -3,-1 -7,-0 -10,-0 -3,0 -7,1 -10,2 0,7 0,14 2,20 1,1 3,1 5,2 3,0 6,-2 8,-5 4,-4 7,-9 7,-15 0,-2 -0,-4 -2,-6 z"/>
    <path d="m 431,900 c 5,-5 12,-8 19,-8 5,-0 12,1 14,7 2,10 -1,20 -7,28 -7,8 -23,9 -30,-1 -5,-6 -4,-14 -0,-21 1,-2 3,-3 4,-5 z m 12,27 c 7,-0 11,-7 14,-13 2,-5 4,-15 -4,-15 -6,0 -13,1 -17,6 -5,4 -7,12 -3,18 2,3 6,4 10,4 z"/>
    <path d="m 472,894 c 6,2 1,11 3,17 0,6 0,11 2,17 4,2 7,-3 10,-6 5,-7 9,-16 10,-25 -0,-6 8,-5 6,1 -1,8 -3,17 -0,25 1,3 4,11 -2,10 -4,-3 -4,-15 -4,-15 0,0 -10,14 -18,16 -6,1 -9,-5 -10,-10 -1,-9 -2,-18 -0,-28 0,-1 1,-2 2,-2 z"/>
    <path d="m 537,898 c 5,-0 4,6 -0,6 -6,4 -12,11 -14,18 -1,4 -1,8 -3,12 -6,3 -5,-7 -6,-11 -1,-8 -1,-17 -1,-25 0,-4 6,-4 5,0 0,4 2,13 2,13 0,0 9,-11 15,-13 l 1,-0 0,-0 z"/>
    <path d="m 599,883 c -3,5 -7,-5 -12,-0 -7,2 -15,6 -16,14 -1,7 -2,14 -0,21 3,9 14,8 19,2 5,-3 7,-11 13,-13 3,7 -5,13 -9,18 -6,6 -16,9 -23,3 -4,-3 -7,-8 -6,-13 0,-8 -1,-17 2,-25 4,-8 14,-13 23,-13 4,0 9,3 9,7 z"/>
    <path d="m 646,902 c 3,-0 4,5 2,6 -3,1 -7,1 -10,2 -1,0 -3,0 -4,1 -0,7 -0,14 -0,21 -2,0 -4,0 -6,0 -0,-7 -0,-14 -0,-21 -4,0 -8,2 -13,1 -2,-0 -2,-3 -1,-5 1,-1 3,-1 5,-2 3,-0 5,-1 8,-1 0,-3 -0,-7 0,-10 1,-2 5,-3 6,-0 1,2 1,4 1,6 0,1 0,3 0,5 4,-0 8,-1 13,-1 z"/>
    <path d="m 691,902 c 3,-0 4,5 2,6 -3,1 -7,1 -10,2 -1,0 -3,0 -4,1 -0,7 -0,14 -0,21 -2,0 -4,0 -6,0 -0,-7 -0,-14 -0,-21 -4,0 -8,2 -13,1 -2,-0 -2,-3 -1,-5 1,-1 3,-1 5,-2 3,-0 5,-1 8,-1 0,-3 -0,-7 0,-10 1,-2 5,-3 6,-0 1,2 1,4 1,6 0,1 0,3 0,5 4,-0 8,-1 13,-1 z"/>
    <path d="m 723,919 c 3,-6 7,-13 5,-21 -2,-5 -9,-2 -11,2 -4,6 -8,13 -9,20 -1,5 6,7 9,4 2,-1 4,-3 5,-5 z m -14,-20 c 3,-5 9,-10 15,-11 6,0 9,7 9,13 0,9 -4,18 -9,24 -4,5 -12,8 -18,4 -5,-3 -6,-11 -3,-16 2,-5 4,-10 6,-15 z"/>
    <path d="m 751,933 c -6,1 -9,-5 -8,-10 3,-4 6,2 7,4 5,0 12,-2 14,-7 2,-5 0,-13 -6,-11 -3,1 -10,6 -11,-0 2,-3 7,-6 10,-9 2,-2 3,-4 -0,-3 -5,-0 -12,3 -17,1 -1,-1 -3,-4 0,-4 9,-2 18,-3 27,-5 6,1 1,7 -1,10 -1,1 -5,4 -3,5 5,1 10,6 9,11 -0,7 -5,14 -12,17 -3,1 -6,2 -9,2 z"/>
    <path d="m 804,929 c -2,-8 10,-5 8,0 -1,5 -8,6 -8,-0 z m 4,-13 c -5,-3 -3,-11 -2,-16 3,-4 7,-7 8,-13 2,-6 -5,-13 -10,-8 -6,1 -3,13 1,10 3,-2 -4,-3 -0,-6 6,-4 8,7 3,10 -5,4 -13,-2 -13,-8 -0,-7 6,-12 13,-13 8,0 13,10 11,17 -1,6 -6,10 -9,15 -0,4 1,8 -1,12 l -0,0 -0,0 0,0 z"/>
    <path d="m 67,979 c 0,-6 5,-13 2,-19 -1,-8 -10,-7 -15,-4 -9,3 -12,15 -12,24 1,6 4,13 10,15 C 60,995 65,985 67,979 Z m -5,18 c -5,4 -15,4 -19,-1 -8,-9 -11,-23 -5,-34 3,-6 8,-11 15,-13 4,-4 11,-7 17,-3 7,6 7,18 5,27 C 73,982 71,991 64,997 L 63,998 62,998 l 0,0 z"/>
    <path d="m 108,997 c -2,-0 -4,-2 -7,-3 -2,-0 -3,-2 -5,-2 -3,-1 -5,-2 -8,-2 0,3 1,6 0,9 -0,2 -3,3 -4,2 -2,-1 -2,-5 -2,-7 -1,-8 -0,-17 -2,-25 -1,-7 -1,-13 -1,-20 -0,-2 3,-4 5,-1 1,2 1,5 1,8 1,7 1,14 2,22 5,-4 9,-8 14,-12 1,-1 3,-2 4,-1 2,1 1,4 -0,5 -2,2 -3,4 -5,6 -3,3 -7,5 -10,8 -2,1 -0,2 1,3 6,2 12,4 17,8 2,1 5,4 2,6 l -0,0 -0,0 0,0 z"/>
    <path d="m 143,971 c -3,-4 -8,-6 -13,-5 -4,1 -9,6 -9,9 7,-0 14,-1 21,-3 0,-0 1,-0 1,-1 z m 9,11 c 3,3 -2,7 -4,10 -6,6 -17,10 -26,5 -8,-5 -11,-17 -6,-26 4,-5 10,-12 17,-10 6,-0 12,2 14,7 5,6 -3,10 -9,10 -6,1 -13,1 -19,2 -1,6 5,12 11,13 8,1 14,-6 20,-11 0,-0 1,-1 2,-1 z"/>
    <path d="m 160,964 c 2,-0 2,3 2,5 0,6 -0,12 0,19 0,3 3,1 4,-0 3,-3 6,-6 7,-10 1,-3 2,-7 3,-11 0,-2 2,-4 4,-4 2,0 2,3 2,5 -1,5 -2,10 -3,15 -0,2 -0,5 0,7 2,-1 4,-2 6,-1 2,2 -0,4 -2,5 -1,0 -2,1 -3,1 0,4 0,8 0,11 -0,3 -0,6 -1,9 -1,2 -4,1 -6,0 -3,-1 -5,-2 -6,-5 -1,-3 -3,-6 -2,-9 1,-2 2,-4 4,-5 1,-1 5,-1 5,-4 -0,-2 -0,-3 -2,-1 -2,3 -6,5 -10,5 -4,-0 -6,-4 -6,-8 -0,-6 -0,-13 0,-19 0,-2 1,-4 3,-4 z m 17,46 c 1,-3 -0,-6 -0,-9 -0,-0 -0,-3 -0,-2 -1,2 -3,4 -3,7 0,2 2,3 4,4 z"/>
    <path d="m 273,981 c 4,4 -3,8 -5,12 -5,5 -15,8 -22,4 -5,-2 -8,-8 -8,-14 -1,-5 1,-11 5,-15 4,-5 11,-9 18,-7 5,1 11,5 11,11 -1,6 -7,1 -7,-3 -4,-4 -11,-4 -15,-1 -4,4 -8,10 -7,17 1,6 9,10 14,6 6,-2 8,-8 14,-11 l 1,-0 0,0 z"/>
    <path d="m 309,971 c -4,-6 -13,-7 -18,-2 -2,1 -7,8 -0,6 6,-1 14,-0 19,-4 z m 9,11 c 3,6 -5,10 -8,13 -7,5 -18,5 -24,-1 -8,-7 -8,-21 0,-28 4,-5 12,-7 19,-5 5,1 12,7 9,13 -4,4 -10,4 -16,5 -4,0 -8,0 -12,1 -1,9 10,16 18,12 5,-2 9,-7 14,-10 l 0,-0 0,0 z"/>
    <path d="m 358,962 c -0,-5 6,-3 5,1 1,6 1,12 2,18 1,-6 4,-11 8,-16 2,-4 9,-9 13,-4 4,6 3,13 4,20 -0,5 0,10 -0,16 -3,4 -6,-1 -4,-4 0,-8 1,-17 -1,-25 -3,-4 -6,4 -9,6 -4,7 -8,14 -8,22 0,3 -2,8 -5,3 -1,-7 -1,-15 -2,-23 -0,-5 -1,-9 -1,-14 z"/>
    <path d="m 400,957 c 2,0 3,1 5,1 2,1 1,4 0,5 -1,2 -2,4 -2,7 -0,2 -2,3 -4,3 -2,-0 -1,-2 -1,-4 0,-2 0,-4 -0,-6 -1,-2 -0,-5 2,-7 l 0,-0 0,-0 -10e-6,0 z"/>
    <path d="m 441,971 c -3,-4 -8,-6 -13,-5 -4,1 -9,6 -9,9 7,-0 14,-1 21,-3 0,-0 1,-0 1,-1 z m 9,11 c 3,3 -2,7 -4,10 -6,6 -17,10 -26,5 -8,-5 -11,-17 -6,-26 4,-5 10,-12 17,-10 6,-0 12,2 14,7 5,6 -3,10 -9,10 -6,1 -13,1 -19,2 -1,6 5,12 11,13 8,1 14,-6 20,-11 0,-0 1,-1 2,-1 z"/>
    <path d="m 455,994 c 0,-5 5,-2 6,1 3,2 8,4 11,0 2,-2 5,-7 0,-9 -4,-2 -9,-3 -13,-5 -3,-2 -7,-6 -5,-10 3,-6 10,-10 17,-10 4,-2 13,4 9,8 -4,-1 -8,-5 -12,-2 -3,1 -11,5 -7,9 6,4 14,3 18,9 3,5 -0,13 -5,16 -4,2 -9,0 -13,-0 -3,-0 -6,-4 -6,-7 z"/>
    <path d="m 498,965 c -4,0 -8,1 -12,1 -4,-1 -1,-5 2,-5 3,-1 7,-1 10,-2 1,-2 0,-5 0,-7 -0,-4 -1,-7 -0,-11 0,-2 4,-3 5,-1 1,6 1,12 2,18 4,-0 7,-2 11,-0 3,1 0,5 -2,5 -3,1 -6,1 -9,2 0,11 1,21 3,32 0,3 1,5 1,8 -1,2 -5,2 -7,-0 -2,-4 -1,-8 -1,-13 -1,-8 -2,-17 -3,-26 z"/>
    <path d="m 580,968 c -10,0 -20,9 -19,20 -1,7 6,7 9,3 5,-4 8,-10 9,-16 -0,-2 3,-5 1,-6 z m 7,56 c -7,0 -7,-8 -8,-13 -1,-6 -1,-12 -2,-19 -5,3 -11,9 -17,6 -5,-4 -5,-11 -3,-17 3,-11 15,-20 27,-17 7,5 0,15 1,22 -0,1 -0,2 -0,4"/>
    <path d="m 598,961 c 6,2 1,11 3,17 0,6 0,11 2,17 4,2 7,-3 10,-6 5,-7 9,-16 10,-25 -0,-6 8,-5 6,1 -1,8 -3,17 -0,25 1,3 4,11 -2,10 -4,-3 -3,-9 -6,-13 -4,6 -8,12 -16,14 -6,1 -9,-5 -10,-10 -1,-9 -2,-18 -0,-28 0,-1 1,-2 2,-2 z"/>
    <path d="m 647,949 c 2,0 5,-0 6,2 1,3 -1,5 -2,8 -1,2 -0,6 -2,8 -2,1 -6,-0 -5,-3 0,-1 2,-3 2,-5 -1,-3 -2,-6 -0,-9 0,-1 1,-1 2,-1 z"/>
    <path d="m 667,961 c 6,1 2,9 3,13 0,7 0,14 2,20 4,2 8,-4 11,-7 5,-7 8,-15 9,-23 0,-6 8,-5 6,1 -1,8 -3,17 -0,25 1,3 4,12 -2,10 -3,-3 -3,-14 -3,-14 0,0 -10,14 -17,16 -6,1 -9,-4 -9,-10 -1,-9 -2,-18 -1,-28 0,-1 1,-3 2,-3 z"/>
    <path d="m 708,962 c -1,-5 6,-4 5,0 1,6 1,12 2,19 1,-5 3,-10 7,-15 3,-3 6,-9 11,-7 5,3 6,10 6,16 0,7 1,14 -0,21 -0,4 -7,2 -5,-2 0,-9 1,-18 -1,-27 -3,-5 -6,3 -8,5 -4,7 -8,14 -8,23 0,3 -2,8 -4,3 -1,-5 -1,-11 -2,-17 -0,-7 -1,-14 -2,-20 z"/>
    <path d="m 775,971 c -3,-3 -7,-6 -12,-5 -5,0 -8,5 -11,9 7,0 14,-1 21,-2 0,-0 1,-0 1,-1 z m 9,11 c 3,3 -3,8 -5,11 -6,6 -17,9 -25,3 -8,-5 -10,-16 -6,-24 3,-5 8,-11 15,-11 6,-0 12,0 16,5 4,3 3,10 -2,11 -8,2 -16,3 -24,3 -0,4 1,7 4,10 4,4 11,4 15,1 5,-2 8,-7 13,-9 z"/>
    <path d="m 64,1033 c 0,-2 1,-5 4,-6 2,-0 3,2 3,4 -1,5 -3,10 -5,16 -2,6 -4,12 -8,17 -1,2 -3,4 -5,4 -3,0 -4,-3 -5,-5 -2,-5 -4,-11 -5,-16 -2,-6 -4,-11 -5,-17 -1,-2 3,-3 4,-1 2,3 4,7 5,11 2,7 4,14 7,21 3,-5 6,-10 7,-16 1,-4 3,-8 4,-12 0,-0 0,-0 0,-1 z"/>
    <path d="m 103,1038 c -3,-4 -8,-6 -13,-5 -4,1 -9,6 -9,9 7,-0 14,-1 21,-3 0,-0 1,-0 1,-1 z m 9,11 c 3,3 -2,7 -4,10 -6,6 -17,10 -26,5 -8,-5 -11,-17 -6,-26 4,-5 10,-12 17,-10 6,-0 12,2 14,7 5,6 -3,10 -9,10 -6,1 -13,1 -19,2 -1,6 5,12 11,13 8,1 14,-6 20,-11 0,-0 1,-1 2,-1 z"/>
    <path d="m 143,1032 c 5,-0 4,6 -0,6 -6,4 -12,11 -14,18 -1,4 -1,8 -3,12 -6,3 -5,-7 -6,-11 -1,-8 -1,-17 -1,-25 0,-4 6,-4 5,0 0,4 1,11 2,13 3,-6 9,-11 15,-13 l 1,-0 0,-0 0,-10e-5 z"/>
    <path d="m 153,1061 c 0,-5 5,-2 6,1 3,2 8,4 11,0 2,-2 5,-7 0,-9 -4,-2 -9,-3 -13,-5 -3,-2 -7,-6 -5,-10 3,-6 10,-10 17,-10 4,-2 13,4 9,8 -4,-1 -8,-5 -12,-2 -3,1 -11,5 -7,9 6,4 14,3 18,9 3,5 -0,13 -5,16 -4,2 -9,0 -13,-0 -3,-0 -6,-4 -6,-7 z"/>
    <path d="m 189,1032 c 6,-3 5,7 6,11 0,9 1,17 0,26 -3,4 -8,-0 -7,-4 -0,-10 -1,-20 -1,-30 0,-1 0,-2 1,-3 z m -3,-6 c 1,-7 11,0 5,4 -3,1 -5,-1 -5,-4 z"/>
    <path d="m 208,1034 c 5,-5 12,-8 19,-8 5,-0 12,1 14,7 2,10 -1,20 -7,28 -7,8 -23,9 -30,-1 -5,-6 -4,-14 -0,-21 1,-2 3,-3 4,-5 z m 12,27 c 7,-0 11,-7 14,-13 2,-5 4,-15 -4,-15 -6,0 -13,1 -17,6 -5,4 -7,12 -3,18 2,3 6,4 10,4 z"/>
    <path d="m 250,1029 c -0,-6 6,-2 5,2 1,5 1,14 2,16 1,-6 4,-11 8,-15 2,-4 9,-9 13,-3 4,6 3,13 3,20 -0,5 0,10 -0,15 -2,5 -6,-0 -5,-4 0,-8 1,-17 -1,-26 -3,-5 -6,4 -9,6 -4,6 -7,14 -8,22 0,3 -2,8 -4,3 -1,-6 -1,-13 -2,-19 -0,-6 -1,-12 -1,-18 z"/>
    <path d="m 355,1051 c -0,4 0,9 -0,13 0,3 -4,3 -4,0 -0,-8 -0,-16 -1,-24 -0,-3 -0,-5 -1,-8 -2,-1 -3,2 -5,4 -4,8 -6,17 -7,26 -0,2 -0,5 -3,5 -2,-1 -1,-4 -2,-6 -0,-6 -0,-13 -2,-19 -1,-3 -3,-6 -5,-8 -2,0 -3,4 -4,5 -1,3 -4,7 -3,11 -0,2 -1,4 -1,7 -0,4 -0,7 -0,11 0,2 -3,4 -4,1 -1,-3 -1,-6 -1,-10 -0,-7 -0,-15 -1,-22 -0,-3 -1,-7 0,-10 1,-3 4,1 4,3 0,2 1,5 1,7 1,-2 2,-4 3,-6 1,-2 2,-4 5,-4 4,-0 7,2 9,5 2,3 2,7 3,10 2,-5 4,-10 9,-14 2,-2 6,-2 8,-0 3,3 3,7 3,11 0,3 0,7 0,10 z"/>
    <path d="m 366,1032 c 6,-3 5,7 6,11 0,8 1,17 0,26 -2,4 -8,0 -6,-4 -0,-10 -1,-20 -1,-30 0,-1 0,-2 1,-3 z m -3,-8 c 1,-7 11,1 5,4 -3,1 -5,-2 -5,-4 z"/>
    <path d="m 383,1029 c -0,-5 6,-3 5,1 1,6 1,12 2,18 1,-6 4,-11 8,-16 2,-4 9,-9 13,-4 4,6 3,13 4,20 -0,5 0,10 -0,16 -3,4 -6,-1 -4,-4 0,-8 1,-17 -1,-25 -3,-4 -6,4 -9,6 -4,7 -8,14 -8,22 0,3 -2,8 -5,3 -1,-7 -1,-15 -2,-23 -0,-5 -1,-9 -1,-14 z"/>
    <path d="m 449,1038 c -3,-5 -10,-7 -16,-4 -2,2 -8,6 -6,8 7,-0 13,-1 20,-3 0,-0 1,-0 1,-1 z m 9,11 c 3,3 -3,8 -5,11 -7,6 -17,9 -25,3 -9,-6 -11,-21 -3,-29 4,-4 9,-8 15,-7 5,0 11,2 13,7 5,7 -4,10 -10,11 -6,2 -14,0 -18,3 -0,6 6,12 12,12 8,-0 13,-7 19,-11 l 0,-0 0,-0 z"/>
    <path d="m 466,1028 c 6,1 2,9 3,13 0,6 0,13 2,20 3,3 8,-3 10,-6 5,-7 8,-15 10,-24 -0,-6 8,-4 6,1 -1,8 -3,17 -0,25 1,3 3,12 -3,9 -2,-3 -4,-14 -4,-14 0,0 -5,9 -9,11 -3,3 -9,6 -14,3 -3,-4 -3,-9 -4,-14 -0,-7 -1,-15 0,-22 0,-1 1,-2 2,-2 z"/>
    <path d="m 530,1032 c 5,-0 4,5 -0,6 -6,3 -10,9 -13,16 -2,4 -1,10 -4,14 -6,2 -4,-7 -5,-11 -1,-8 -1,-17 -1,-25 0,-5 7,-3 5,1 0,3 2,12 2,12 0,0 9,-11 15,-13 l 0,-0 0,-0 0,0 z"/>
    <path d="m 568,1038 c -3,-5 -10,-7 -16,-4 -2,2 -8,6 -6,8 7,-0 13,-1 20,-3 0,-0 1,-0 1,-1 z m 9,11 c 3,3 -3,8 -5,11 -7,6 -17,9 -25,3 -9,-6 -11,-21 -3,-29 4,-4 9,-8 15,-7 5,0 11,2 13,7 5,7 -4,10 -10,11 -6,2 -14,0 -18,3 -0,6 6,12 12,12 8,-0 13,-7 19,-11 l 0,-0 0,-0 0,0 z"/>
    <path d="m 592,1059 c -0,3 -4,9 -7,5 -2,-2 -1,-8 2,-8 2,0 3,1 5,2 z m 20,1 c -0,4 -5,9 -8,4 -2,-4 3,-9 7,-5 l 0,0 0,0 z m -10,-0 c -0,4 -5,9 -8,4 -2,-4 3,-9 6,-5 l 0,0 0,0 0,0 z"/>
  </g>
  <g id="2011">
    <path d="m 1324,100 0,-7 -24,0 18,-19 c 3,-4 6,-8 6,-14 0,-10 -8,-16 -19,-16 -5,0 -10,2 -16,4 l 0,9 c 5,-3 10,-5 16,-5 5,0 9,3 9,9 0,4 -3,9 -6,11 -1,1 -18,19 -20,21 l 0,7 35,0 z"/>
    <path d="m 1370,72 c -0,-11 -3,-29 -19,-29 -16,0 -19,17 -19,29 0,11 3,28 19,28 16,0 19,-17 19,-28 z m -9,0 c 0,7 -0,21 -10,21 -9,0 -10,-14 -10,-21 0,-7 0,-21 10,-21 9,0 10,15 10,21 z"/>
    <path d="m 1393,100 0,-55 -8,0 -8,7 0,8 8,-6 0,47 8,0 z"/>
    <path d="m 1418,100 0,-55 -8,0 -8,7 0,8 8,-6 0,47 8,0 z"/>
  </g>
  <g id="Cpp11">
    <path d="m 998,892 c 4,-7 11,-12 18,-14 4,-1 9,-2 14,-1 3,1 5,5 7,8 2,6 1,13 -0,19 -1,4 -2,9 -4,13 4,3 8,6 11,11 2,3 -2,4 -4,2 -3,-1 -5,-4 -9,-6 -1,-0 -2,-2 -2,-1 -4,8 -14,12 -23,9 -4,-1 -7,-4 -8,-7 -3,-5 -5,-12 -4,-18 0,-5 2,-11 4,-16 z m 15,18 c 0,-2 3,-4 5,-2 3,1 6,3 9,5 2,-5 3,-10 5,-15 0,-3 1,-6 -1,-8 -2,-2 -4,-4 -8,-4 -3,-0 -6,-0 -10,0 -4,2 -7,5 -9,9 -1,2 -2,5 -2,8 -1,6 -2,12 0,18 1,3 3,7 7,8 5,1 10,-1 14,-5 2,-2 -2,-4 -3,-6 -2,-2 -5,-3 -7,-6 l -0,-0 0,0 z"/>
    <path d="m 1050,894 c 6,1 2,9 3,13 0,7 0,14 2,20 4,2 8,-4 11,-7 5,-7 8,-15 9,-23 0,-6 8,-5 6,1 -1,8 -3,17 -0,25 1,3 4,12 -2,10 -3,-3 -3,-11 -5,-12 -4,6 -8,12 -15,14 -6,1 -9,-4 -9,-10 -1,-9 -2,-18 -1,-28 0,-1 1,-3 2,-3 z"/>
    <path d="m 1094,900 c 6,-6 14,-9 22,-8 7,-0 13,5 12,13 0,9 -3,18 -10,24 -8,6 -23,5 -28,-5 -4,-8 -2,-18 5,-24 z m 12,27 c 8,-0 12,-8 14,-15 3,-5 1,-15 -7,-13 -5,-0 -11,1 -14,6 -5,4 -8,12 -4,17 2,3 7,5 11,5 z"/>
    <path d="m 1135,892 c 7,-3 5,8 6,12 0,8 1,17 0,26 -6,4 -7,-4 -7,-9 -0,-9 -1,-18 -1,-27 0,-1 0,-2 1,-2 z m -1,-16 c 1,-6 11,-0 6,4 -2,2 -6,-1 -6,-4 z"/>
    <path d="m 1169,875 c -2,-3 1,-6 4,-4 2,0 4,0 6,0 -0,7 -3,40 -4,47 -0,4 -5,2 -4,-1 -0,-5 -1,-35 -1,-40 0,-0 0,-1 0,-2 z m 1,56 c -4,-1 -3,-6 0,-8 3,-2 9,1 7,5 -1,4 -3,5 -7,3 z"/>
    <path d="m 1253,886 c -0,-3 -3,-4 -6,-4 -3,-0 -5,-1 -8,-0 -2,0 -5,0 -8,2 -1,2 -0,5 -0,8 0,3 0,7 1,10 4,0 8,-1 12,-2 2,-1 5,-2 5,-5 1,-3 4,-5 5,-8 z m -22,-11 c 5,-0 10,-2 15,-1 4,0 8,1 11,4 3,4 1,10 0,14 -1,2 -2,2 -3,4 -2,3 -6,6 -9,8 -2,0 -5,2 -7,3 -2,0 -4,0 -6,0 0,7 1,14 1,21 0,2 -1,6 -4,6 -3,-1 -2,-4 -3,-7 -1,-12 -2,-24 -2,-36 l 0,-5 c -1,1 -4,2 -5,0 -1,-3 1,-5 3,-7 2,-2 4,-5 7,-5 1,0 2,0 2,0 z"/>
    <path d="m 1275,924 c 1,-2 8,-5 2,-7 -5,-1 -13,-0 -15,5 -2,5 5,5 9,3 1,-0 3,-1 4,-2 z m 12,4 c -1,6 -7,3 -6,-2 -0,-3 -4,3 -7,3 -5,3 -11,3 -16,0 -3,-3 -3,-9 -0,-12 4,-4 10,-7 16,-7 3,-1 9,6 8,0 -0,-4 0,-11 -4,-12 -6,-0 -12,3 -18,5 -6,-0 0,-7 4,-7 6,-2 12,-5 18,-2 5,3 6,9 6,14 0,6 0,13 1,20 z"/>
    <path d="m 1293,927 c 1,-6 5,-1 7,1 3,3 9,2 11,-2 4,-4 -1,-8 -5,-8 -4,-2 -9,-2 -13,-6 -4,-3 -0,-9 2,-12 3,-4 8,-5 14,-5 3,-0 6,-0 8,2 3,2 2,8 -2,5 -3,-4 -8,-2 -12,-0 -4,1 -10,7 -2,9 5,2 12,3 16,7 3,6 -1,15 -8,17 -4,0 -9,-0 -13,-2 -2,-1 -3,-4 -3,-6 z"/>
    <path d="m 1339,902 c 0,-3 4,-3 4,-6 0,-2 2,-6 5,-4 1,2 4,1 6,1 6,-1 13,-2 19,0 4,1 6,5 6,9 -0,6 -3,12 -6,17 -3,6 -10,10 -17,10 -1,-0 -2,-0 -4,-0 1,6 3,11 3,17 0,3 -3,4 -5,2 -2,-1 -2,-4 -2,-6 -3,-11 -3,-23 -5,-35 0,-3 -4,-1 -4,-4 z m 32,-4 c -3,-1 -7,-0 -10,-0 -3,0 -7,1 -10,2 0,7 0,14 2,20 1,1 3,1 5,2 3,0 6,-2 8,-5 4,-4 7,-9 7,-15 0,-2 -0,-4 -2,-6 z"/>
    <path d="m 1391,900 c 6,-6 14,-9 22,-8 7,-0 13,5 12,13 0,9 -3,18 -10,24 -8,6 -23,5 -28,-5 -4,-8 -2,-18 5,-24 z m 12,27 c 8,-0 12,-8 14,-15 3,-5 1,-15 -7,-13 -5,-0 -11,1 -14,6 -5,4 -8,12 -4,17 2,3 7,5 11,5 z"/>
    <path d="m 1432,894 c 6,1 2,9 3,13 0,7 0,14 2,20 4,2 8,-4 11,-7 5,-7 8,-15 9,-23 0,-6 8,-5 6,1 -1,8 -3,17 -0,25 1,3 4,12 -2,10 -3,-3 -3,-11 -5,-12 -4,6 -8,12 -15,14 -6,1 -9,-4 -9,-10 -1,-9 -2,-18 -1,-28 0,-1 1,-3 2,-3 z"/>
    <path d="m 1497,898 c 4,-0 5,5 0,5 -6,3 -11,9 -14,16 -2,5 -1,10 -4,14 -5,2 -5,-5 -5,-9 -1,-9 -2,-19 -1,-28 1,-5 6,-2 5,2 0,4 1,8 2,12 3,-6 8,-11 15,-13 l 1,-0 1,-0 0,0 z"/>
    <path d="m 1559,883 c -3,6 -7,-5 -11,-1 -7,2 -15,6 -16,14 -1,7 -2,14 -0,21 2,5 8,9 13,6 7,-3 12,-9 16,-15 6,-4 4,6 1,8 -5,8 -14,17 -25,14 -7,-2 -13,-9 -12,-17 0,-8 -1,-17 2,-25 5,-8 14,-13 23,-13 4,0 9,3 9,7 z"/>
    <path d="m 1606,902 c 6,1 2,9 -3,7 -3,0 -7,0 -10,2 -0,7 -0,14 -0,20 -2,0 -4,0 -6,0 -0,-7 -0,-14 -0,-21 -4,0 -9,2 -14,1 -3,-5 4,-7 7,-7 2,-0 4,-1 6,-1 0,-4 -1,-8 1,-11 5,-4 7,3 7,7 0,1 -0,4 1,4 4,-0 8,-1 12,-1 z"/>
    <path d="m 1651,902 c 6,1 2,9 -3,7 -3,0 -7,0 -10,2 -0,7 -0,14 -0,20 -2,0 -4,0 -6,0 -0,-7 -0,-14 -0,-21 -4,0 -9,2 -14,1 -3,-5 4,-7 7,-7 2,-0 4,-1 6,-1 0,-4 -1,-8 1,-11 5,-4 7,3 7,7 0,1 -0,4 1,4 4,-0 8,-1 12,-1 z"/>
    <path d="m 1675,932 c -4,-1 -3,-7 -3,-11 -0,-7 0,-14 -0,-22 -3,3 -5,8 -9,8 -4,-3 1,-6 3,-9 2,-3 4,-6 6,-9 5,-3 5,5 5,8 0,11 1,22 1,33 0,1 -1,2 -2,2 z"/>
    <path d="m 1696,932 c -4,-1 -3,-7 -3,-11 -0,-7 0,-14 -0,-22 -3,3 -5,8 -9,8 -4,-3 1,-6 3,-9 2,-3 4,-6 6,-9 5,-3 5,5 5,8 0,11 1,22 1,33 0,1 -1,2 -2,2 z"/>
    <path d="m 1731,929 c -2,-8 10,-5 8,0 -1,5 -8,6 -8,-0 z m 4,-13 c -5,-3 -3,-11 -2,-16 3,-4 7,-7 8,-13 2,-6 -5,-13 -10,-8 -6,1 -3,13 1,10 3,-2 -4,-3 -0,-6 6,-4 8,7 3,10 -5,4 -13,-2 -13,-8 -0,-7 6,-12 13,-13 8,0 13,10 11,17 -1,6 -6,10 -9,15 -0,4 1,8 -1,12 l -0,0 -0,0 0,0 z"/>
    <path d="m 1024,989 c 4,-4 5,-11 2,-16 -4,-4 -12,-0 -16,2 -0,5 -0,11 1,16 4,2 10,2 12,-2 l 0,0 z m 1,-38 c -4,-3 -10,-1 -15,-0 -3,4 -0,10 0,15 0,8 7,-2 10,-4 2,-3 4,-6 6,-10 z m -25,2 c -7,0 -4,-6 1,-6 7,-3 16,-3 24,-3 8,1 6,12 2,16 -2,3 -4,4 0,5 6,2 8,9 7,15 -1,7 -6,15 -13,17 -5,-2 -14,4 -15,-4 -1,-10 -1,-20 -3,-30 -0,-3 -0,-7 -1,-10 -0,0 -1,0 -2,0 z"/>
    <path d="m 1045,967 c 7,-7 17,-10 27,-7 5,2 8,8 7,13 -0,10 -5,21 -15,25 -9,4 -22,0 -25,-9 -3,-7 -0,-17 6,-22 z m 12,27 c 8,-0 12,-8 14,-15 2,-4 2,-11 -3,-13 -6,-0 -12,0 -17,4 -5,4 -9,11 -6,18 2,4 7,6 11,6 z"/>
    <path d="m 1087,962 c -1,-5 6,-4 5,0 1,6 1,12 2,19 1,-5 3,-10 7,-15 3,-3 6,-9 11,-7 5,3 6,10 6,16 0,7 1,14 -0,21 -0,4 -7,2 -5,-2 0,-9 1,-18 -1,-27 -3,-5 -6,3 -8,5 -4,7 -8,14 -8,23 0,3 -2,8 -4,3 -1,-5 -1,-11 -2,-17 -0,-7 -1,-14 -2,-20 z"/>
    <path d="m 1173,979 c 1,-7 5,-15 1,-22 -4,-6 -13,-3 -18,1 -10,8 -11,27 -0,35 8,4 15,-5 17,-12 l 0,-1 0,0 z m -5,18 c -7,5 -19,2 -23,-5 -8,-12 -6,-30 6,-38 7,-3 13,-10 21,-8 8,3 10,14 9,23 -1,10 -4,21 -12,29 -0,0 -1,0 -2,1 z"/>
    <path d="m 1214,997 c -5,-1 -9,-5 -15,-7 -2,-0 -7,-3 -5,0 1,4 -0,13 -5,7 -2,-8 -1,-18 -2,-26 -1,-8 -2,-17 -2,-26 5,-6 6,6 6,10 0,6 1,12 2,18 5,-4 10,-9 16,-14 5,-2 4,5 0,7 -4,6 -10,9 -15,13 0,2 4,2 5,3 6,2 12,4 16,9 1,1 -0,3 -2,3 z"/>
    <path d="m 1249,971 c -3,-3 -7,-6 -12,-5 -5,0 -8,5 -11,9 7,0 14,-1 21,-2 0,-0 1,-0 1,-1 z m 9,11 c 3,3 -3,8 -5,11 -6,6 -17,9 -25,3 -8,-5 -10,-16 -6,-24 3,-5 8,-11 15,-11 6,-0 12,0 16,5 4,3 3,10 -2,11 -8,2 -16,3 -24,3 -0,4 1,7 4,10 4,4 11,4 15,1 5,-2 8,-7 13,-9 z"/>
    <path d="m 1266,964 q 1,0 2,1 0,1 0,4 0,3 -0,6 -0,3 -0,5 0,9 1,9 1,0 4,-3 3,-3 4,-6 1,-3 2,-7 1,-4 1,-6 0,-2 1,-4 1,-2 3,-2 1,0 2,1 1,1 1,2 0,1 -1,7 -1,6 -1,12 0,2 0,4 l 0,1 1,-0 q 1,-1 3,-1 1,0 2,0 1,0 1,1 0,2 -3,4 l -2,1 0,7 q -0,13 -1,13 -1,1 -2,1 -1,0 -5,-1 -2,-1 -3,-2 -1,-1 -2,-3 -2,-4 -2,-7 0,-1 0,-2 0,-0 1,-2 1,-1 1,-2 1,-1 2,-2 1,-1 2,-1 0,-0 2,-1 0,-2 -1,-4 -0,0 -1,1 -1,1 -2,2 -1,1 -3,2 -2,1 -4,1 -3,0 -6,-4 -1,-2 -1,-4 -0,-2 -0,-8 0,-9 0,-12 0,-4 3,-4 z m 17,46 q 0,-1 0,-2 0,-1 -0,-3 -0,-2 -0,-3 -0,-1 -0,-1 l -0,-1 -0,1 q -3,4 -3,6 0,1 1,2 1,1 2,2 z"/>
    <path d="m 1349,967 c 5,-5 12,-8 19,-8 5,-0 13,1 14,7 2,10 -1,21 -8,28 -7,6 -19,8 -26,2 -4,-4 -7,-9 -6,-15 0,-5 3,-10 7,-14 z m 12,27 c 7,-0 11,-8 14,-14 1,-5 4,-14 -4,-14 -5,0 -10,-0 -14,3 -5,4 -10,9 -8,16 1,6 7,9 12,9 z"/>
    <path d="m 1385,962 c -0,-6 7,-1 5,3 0,5 1,11 2,16 2,-7 5,-13 10,-18 3,-5 11,-5 13,1 2,7 1,14 2,21 -0,4 0,9 -1,12 -6,2 -4,-6 -4,-9 0,-7 0,-14 -1,-21 -4,-5 -7,5 -10,7 -4,7 -7,14 -7,23 -0,5 -6,2 -5,-2 -1,-8 -1,-17 -2,-26 -0,-3 -0,-5 -0,-8 z"/>
    <path d="m 1465,991 c 1,-2 8,-5 2,-7 -5,-1 -13,-0 -15,5 -2,5 5,5 9,3 1,-0 3,-1 4,-2 z m 12,4 c -1,6 -7,3 -6,-2 -0,-3 -4,3 -7,3 -5,3 -11,3 -16,0 -3,-3 -3,-9 -0,-12 4,-4 10,-7 16,-7 3,-1 9,6 8,0 -0,-4 0,-11 -4,-12 -6,-0 -12,3 -18,5 -6,-0 0,-7 4,-7 6,-2 12,-5 18,-2 5,3 6,9 6,14 0,6 0,13 1,20 z"/>
    <path d="m 1508,965 c 4,-0 5,5 0,5 -6,3 -11,9 -14,16 -2,5 -1,10 -4,14 -5,2 -5,-5 -5,-9 -1,-9 -2,-19 -1,-28 1,-5 6,-2 5,2 0,4 1,8 2,12 3,-6 8,-11 15,-13 l 1,-0 1,-0 0,0 z"/>
    <path d="m 1544,965 c 4,-0 5,5 0,5 -6,3 -11,9 -14,16 -2,5 -1,10 -4,14 -5,2 -5,-5 -5,-9 -1,-9 -2,-19 -1,-28 1,-5 6,-2 5,2 0,4 1,8 2,12 3,-6 8,-11 15,-13 l 1,-0 1,-0 0,0 z"/>
    <path d="m 1580,958 c -5,0 -8,-11 -12,-7 -1,3 -8,12 -9,5 2,-5 6,-10 10,-14 5,1 9,7 12,11 1,1 1,4 -1,5 z m 0,12 c -3,-5 -11,-7 -16,-3 -3,2 -10,9 -1,7 6,-1 13,-0 18,-4 z m 9,11 c 3,4 -4,10 -8,13 -7,5 -18,6 -25,-0 -8,-7 -8,-21 -0,-28 4,-4 10,-7 16,-6 6,-0 13,5 14,11 -1,7 -11,6 -16,7 -4,0 -9,1 -13,1 -1,7 5,12 11,13 8,0 13,-7 20,-11 l 1,-0 0,-0 0,0 z"/>
    <path d="m 1607,961 c -4,0 -8,1 -12,1 -4,-1 -1,-5 2,-5 3,-1 7,-1 10,-2 1,-2 0,-5 0,-7 -0,-4 -1,-7 -0,-11 0,-2 4,-3 5,-1 1,6 1,12 2,18 4,-0 7,-2 11,-0 3,1 0,5 -2,5 -3,1 -6,1 -9,2 0,11 1,21 3,32 0,3 1,5 1,8 -1,2 -5,2 -7,-0 -2,-4 -1,-8 -1,-13 -1,-8 -2,-17 -3,-26 z"/>
    <path d="m 1660,971 c -3,-3 -7,-6 -12,-5 -5,0 -8,5 -11,9 7,0 14,-1 21,-2 0,-0 1,-0 1,-1 z m 9,11 c 3,3 -3,8 -5,11 -6,6 -17,9 -25,3 -8,-5 -10,-16 -6,-24 3,-5 8,-11 15,-11 6,-0 12,0 16,5 4,3 3,10 -2,11 -8,2 -16,3 -24,3 -0,4 1,7 4,10 4,4 11,4 15,1 5,-2 8,-7 13,-9 z"/>
    <path d="m 1020,1037 c -7,-6 -14,3 -18,9 -3,8 3,16 11,14 5,-3 15,-7 15,-14 -2,-3 -5,-6 -8,-8 z m 10,18 c -6,7 -17,14 -27,9 -9,-3 -10,-15 -6,-23 3,-7 11,-14 19,-13 5,1 11,7 14,8 1,-12 -0,-24 1,-36 1,-3 8,-4 6,1 -0,20 -1,41 -3e-4,62 3,6 -5,11 -6,3 -1,-3 -0,-7 -1,-10 z"/>
    <path d="m 1072,1038 c -3,-3 -7,-6 -12,-5 -5,0 -8,5 -11,9 7,0 14,-1 21,-2 0,-0 1,-0 1,-1 z m 9,11 c 3,3 -3,8 -5,11 -6,6 -17,9 -25,3 -8,-5 -10,-16 -6,-24 3,-5 8,-11 15,-11 6,-0 12,0 16,5 4,3 3,10 -2,11 -8,2 -16,3 -24,3 -0,4 1,7 4,10 4,4 11,4 15,1 5,-2 8,-7 13,-9 z"/>
    <path d="m 1133,1030 c 4,-0 5,5 0,5 -6,3 -11,9 -14,16 -2,5 -1,10 -4,14 -5,2 -5,-5 -5,-9 -1,-9 -2,-19 -1,-28 1,-5 6,-2 5,2 0,4 1,8 2,12 3,-6 8,-11 15,-13 l 1,-0 1,-0 z"/>
    <path d="m 1165,1038 c -3,-3 -7,-6 -12,-5 -5,0 -8,5 -11,9 7,0 14,-1 21,-2 0,-0 1,-0 1,-1 z m 9,11 c 3,3 -3,8 -5,11 -6,6 -17,9 -25,3 -8,-5 -10,-16 -6,-24 3,-5 8,-11 15,-11 6,-0 12,0 16,5 4,3 3,10 -2,11 -8,2 -16,3 -24,3 -0,4 1,7 4,10 4,4 11,4 15,1 5,-2 8,-7 13,-9 z"/>
    <path d="m 1177,1036 q 0,-1 2,-3 2,-2 2,-2 0,-1 1,-3 1,-2 3,-2 1,0 2,1 1,1 1,1 0,0 5,-1 5,-1 8,-1 3,0 7,1 8,2 8,9 0,6 -4,15 -3,6 -8,9 -4,3 -10,3 -1,0 -2,-0 l -2,-0 0,2 q 3,11 3,15 0,3 -3,3 -2,0 -3,-1 -1,-1 -3,-10 -1,-8 -3,-21 -0,-4 -1,-7 -0,-2 -0,-4 -0,-1 -0,-1 -0,-0 -0,-0 -3,0 -3,-2 z m 32,-4 q -1,-0 -4,-0 -7,0 -12,1 l -4,1 0,4 q 0,5 1,11 1,6 1,6 1,0 3,1 1,1 2,1 2,0 6,-3 4,-3 6,-8 2,-5 2,-9 0,-1 -0,-2 -0,-1 -1,-2 -0,-0 -0,-1 z"/>
    <path d="m 1229,1034 c 5,-5 12,-8 19,-8 5,-0 13,1 14,7 2,10 -1,21 -8,28 -7,6 -19,8 -26,2 -4,-4 -7,-9 -6,-15 0,-5 3,-10 7,-14 z m 12,27 c 7,-0 11,-8 14,-14 1,-5 4,-14 -4,-14 -5,0 -10,-0 -14,3 -5,4 -10,9 -8,16 1,6 7,9 12,9 z"/>
    <path d="m 1270,1028 c 6,1 2,9 3,13 0,7 0,14 2,20 4,2 8,-4 11,-7 5,-7 8,-15 9,-23 0,-6 8,-5 6,1 -1,8 -3,17 -0,25 1,3 4,12 -2,10 -3,-3 -3,-11 -5,-12 -4,6 -8,12 -15,14 -6,1 -9,-4 -9,-10 -1,-9 -2,-18 -1,-28 0,-1 1,-3 2,-3 z"/>
    <path d="m 1309,1061 c 1,-6 5,-1 7,1 3,3 9,2 11,-2 4,-4 -1,-8 -5,-8 -4,-2 -9,-2 -13,-6 -4,-3 -0,-9 2,-12 3,-4 8,-5 14,-5 3,-0 6,-0 8,2 3,2 2,8 -2,5 -3,-4 -8,-2 -12,-0 -4,1 -10,7 -2,9 5,2 12,3 16,7 3,6 -1,15 -8,17 -4,0 -9,-0 -13,-2 -2,-1 -3,-4 -3,-6 z"/>
    <path d="m 1342,1061 c 1,-6 5,-1 7,1 3,3 9,2 11,-2 4,-4 -1,-8 -5,-8 -4,-2 -9,-2 -13,-6 -4,-3 -0,-9 2,-12 3,-4 8,-5 14,-5 3,-0 6,-0 8,2 3,2 2,8 -2,5 -3,-4 -8,-2 -12,-0 -4,1 -10,7 -2,9 5,2 12,3 16,7 3,6 -1,15 -8,17 -4,0 -9,-0 -13,-2 -2,-1 -3,-4 -3,-6 z"/>
    <path d="m 1403,1038 c -3,-3 -7,-6 -12,-5 -5,0 -8,5 -11,9 7,0 14,-1 21,-2 0,-0 1,-0 1,-1 z m 9,11 c 3,3 -3,8 -5,11 -6,6 -17,9 -25,3 -8,-5 -10,-16 -6,-24 3,-5 8,-11 15,-11 6,-0 12,0 16,5 4,3 3,10 -2,11 -8,2 -16,3 -24,3 -0,4 1,7 4,10 4,4 11,4 15,1 5,-2 8,-7 13,-9 z"/>
    <path d="m 1443,1032 c 4,-0 5,5 0,5 -6,3 -11,9 -14,16 -2,5 -1,10 -4,14 -5,2 -5,-5 -5,-9 -1,-9 -2,-19 -1,-28 1,-5 6,-2 5,2 0,4 1,8 2,12 3,-6 8,-11 15,-13 l 1,-0 1,-0 z"/>
    <path d="m 1505,1017 c -3,6 -7,-5 -11,-1 -7,2 -15,6 -16,14 -1,7 -2,14 -0,21 2,5 8,9 13,6 7,-3 12,-9 16,-15 6,-4 4,6 1,8 -5,8 -14,17 -25,14 -7,-2 -13,-9 -12,-17 0,-8 -1,-17 2,-25 5,-8 14,-13 23,-13 4,0 9,3 9,7 z"/>
    <path d="m 1552,1036 c 6,1 2,9 -3,7 -3,0 -7,0 -10,2 -0,7 -0,14 -0,20 -2,0 -4,0 -6,0 -0,-7 -0,-14 -0,-21 -4,0 -9,2 -14,1 -3,-5 4,-7 7,-7 2,-0 4,-1 6,-1 0,-4 -1,-8 1,-11 5,-4 7,3 7,7 0,1 -0,4 1,4 4,-0 8,-1 12,-1 z"/>
    <path d="m 1597,1036 c 6,1 2,9 -3,7 -3,0 -7,0 -10,2 -0,7 -0,14 -0,20 -2,0 -4,0 -6,0 -0,-7 -0,-14 -0,-21 -4,0 -9,2 -14,1 -3,-5 4,-7 7,-7 2,-0 4,-1 6,-1 0,-4 -1,-8 1,-11 5,-4 7,3 7,7 0,1 -0,4 1,4 4,-0 8,-1 12,-1 z"/>
    <path d="m 1629,1053 c 2,-6 6,-11 6,-18 1,-7 -7,-7 -10,-2 -5,6 -9,13 -10,22 -0,7 9,6 12,2 1,-1 2,-2 3,-3 z m -14,-20 c 3,-5 8,-8 14,-11 5,-1 9,3 10,8 2,10 -2,20 -7,28 -4,5 -11,9 -18,7 -4,-2 -7,-7 -6,-12 1,-7 5,-13 7,-20 z"/>
    <path d="m 1652,1066 q -1,0 -2,-0 -1,-0 -1,-2 0,-1 5,-8 l 5,-6 -3,-2 q -1,-1 -3,-2 -2,-2 -3,-3 -1,-1 -3,-3 -1,-1 -2,-3 -1,-1 -1,-2 0,-1 1,-3 1,-1 2,-1 2,0 3,2 0,1 5,6 5,5 7,6 1,-2 3,-4 l 5,-8 q 2,-3 3,-3 1,0 2,1 1,1 1,2 0,1 -2,3 -1,2 -2,3 -0,1 -3,5 -3,4 -3,4 0,0 6,5 6,5 6,6 0,1 0,1 0,1 -1,2 -0,1 -2,1 -2,0 -4,-2 -2,-2 -5,-4 -3,-3 -5,-3 -1,1 -3,4 -2,3 -5,6 -2,2 -4,2 z"/>
    <path d="m 1695,1059 c -0,2 -2,6 -5,6 -3,-0 -3,-4 -3,-6 0,-3 3,-3 5,-2 1,0 2,1 2,2 z m 20,1 c -1,2 -2,6 -5,6 -3,-0 -4,-4 -3,-6 0,-3 4,-3 6,-1 1,0 1,1 2,1 z m -10,-0 c -1,2 -2,6 -4,6 -3,0 -4,-3 -3,-6 0,-2 3,-4 5,-2 1,0 2,1 3,2 z"/>
  </g>
  <g id="2014">
    <path d="m 2256,100 0,-7 -24,0 18,-19 c 3,-4 6,-8 6,-14 0,-10 -8,-16 -19,-16 -5,0 -10,2 -16,4 l 0,9 c 5,-3 10,-5 16,-5 5,0 9,3 9,9 0,4 -3,9 -6,11 -1,1 -18,19 -20,21 l 0,7 35,0 z"/>
    <path d="m 2302,72 c -0,-11 -3,-29 -19,-29 -16,0 -19,17 -19,29 0,11 3,28 19,28 16,0 19,-17 19,-28 z m -9,0 c 0,7 -0,21 -10,21 -9,0 -10,-14 -10,-21 0,-7 0,-21 10,-21 9,0 10,15 10,21 z"/>
    <path d="m 2326,100 0,-55 -8,0 -8,7 0,8 8,-6 0,47 8,0 z"/>
    <path d="m 2374,87 0,-7 -7,0 0,-35 -10,0 -22,34 0,8 24,0 0,13 9,0 0,-13 7,0 z m -16,-7 -16,0 16,-26 0,26 z"/>
  </g>
  <g id="Cpp14">
    <path d="m 1928,892 c 4,-7 11,-12 18,-14 4,-1 9,-2 14,-1 3,1 5,5 7,8 2,6 1,13 -0,19 -1,4 -2,9 -4,13 4,3 8,6 11,11 2,3 -2,4 -4,2 -3,-1 -5,-4 -9,-6 -1,-0 -2,-2 -2,-1 -4,8 -14,12 -23,9 -4,-1 -7,-4 -8,-7 -3,-5 -5,-12 -4,-18 0,-5 2,-11 4,-16 z m 15,18 c 0,-2 3,-4 5,-2 3,1 6,3 9,5 2,-5 3,-10 5,-15 0,-3 1,-6 -1,-8 -2,-2 -4,-4 -8,-4 -3,-0 -6,-0 -10,0 -4,2 -7,5 -9,9 -1,2 -2,5 -2,8 -1,6 -2,12 0,18 1,3 3,7 7,8 5,1 10,-1 14,-5 2,-2 -2,-4 -3,-6 -2,-2 -5,-3 -7,-6 l -0,-0 0,0 z"/>
    <path d="m 1980,894 c 6,1 2,9 3,13 0,7 0,14 2,20 4,2 8,-4 11,-7 5,-7 8,-15 9,-23 0,-6 8,-5 6,1 -1,8 -3,17 -0,25 1,3 4,12 -2,10 -3,-3 -3,-11 -5,-12 -4,6 -8,12 -15,14 -6,1 -9,-4 -9,-10 -1,-9 -2,-18 -1,-28 0,-1 1,-3 2,-3 z"/>
    <path d="m 2024,900 c 5,-5 12,-8 19,-8 5,-0 13,1 14,7 2,10 -1,21 -8,28 -7,6 -19,8 -26,2 -4,-4 -7,-9 -6,-15 0,-5 3,-10 7,-14 z m 12,27 c 7,-0 11,-8 14,-14 1,-5 4,-14 -4,-14 -5,0 -10,-0 -14,3 -5,4 -10,9 -8,16 1,6 7,9 12,9 z"/>
    <path d="m 2065,892 c 6,-3 5,6 6,9 1,9 1,19 1,28 -2,4 -8,0 -6,-4 -0,-10 -1,-20 -1,-30 0,-1 0,-2 1,-3 z m -1,-10 c 1,-6 10,-1 6,3 -2,3 -7,-0 -6,-3 z"/>
    <path d="m 2099,879 c -3,-6 10,-6 10,-1 -2,10 -3,20 -4,30 1,3 -2,10 -5,4 -1,-11 -1,-22 -1,-33 z m 1,48 c -5,-1 -2,-10 3,-9 6,-0 5,10 -0,10 -1,-0 -2,-0 -2,-1 z"/>
    <path d="m 2175,888 c -3,-6 -12,-5 -18,-4 -8,0 -4,10 -4,15 -0,8 9,3 14,1 4,-2 6,-8 9,-13 z m -22,-11 c 6,-0 13,-2 19,-0 7,0 11,7 9,14 -1,6 -4,10 -9,14 -5,3 -10,6 -16,5 -3,-1 -1,3 -1,5 0,6 1,13 0,19 -5,7 -7,-4 -7,-9 -1,-12 -2,-25 -2,-37 -5,5 -7,-4 -2,-6 3,-3 6,-6 10,-5 z"/>
    <path d="m 2205,924 c 1,-2 8,-5 2,-7 -5,-1 -13,-0 -15,5 -2,5 5,5 9,3 1,-0 3,-1 4,-2 z m 12,4 c -1,6 -7,3 -6,-2 -0,-3 -4,3 -7,3 -5,3 -11,3 -16,0 -3,-3 -3,-9 -0,-12 4,-4 10,-7 16,-7 3,-1 9,6 8,0 -0,-4 0,-11 -4,-12 -6,-0 -12,3 -18,5 -6,-0 0,-7 4,-7 6,-2 12,-5 18,-2 5,3 6,9 6,14 0,6 0,13 1,20 z"/>
    <path d="m 2223,927 c 1,-6 5,-1 7,1 3,3 9,2 11,-2 4,-4 -1,-8 -5,-8 -4,-2 -9,-2 -13,-6 -4,-3 -0,-9 2,-12 3,-4 8,-5 14,-5 3,-0 6,-0 8,2 3,2 2,8 -2,5 -3,-4 -8,-2 -12,-0 -4,1 -10,7 -2,9 5,2 12,3 16,7 3,6 -1,15 -8,17 -4,0 -9,-0 -13,-2 -2,-1 -3,-4 -3,-6 z"/>
    <path d="m 2269,902 c 0,-3 4,-3 4,-6 0,-2 2,-6 5,-4 1,2 4,1 6,1 6,-1 13,-2 19,0 4,1 6,5 6,9 -0,6 -3,12 -6,17 -3,6 -10,10 -17,10 -1,-0 -2,-0 -4,-0 1,6 3,11 3,17 0,3 -3,4 -5,2 -2,-1 -2,-4 -2,-6 -3,-11 -3,-23 -5,-35 0,-3 -4,-1 -4,-4 z m 32,-4 c -3,-1 -7,-0 -10,-0 -3,0 -7,1 -10,2 0,7 0,14 2,20 1,1 3,1 5,2 3,0 6,-2 8,-5 4,-4 7,-9 7,-15 0,-2 -0,-4 -2,-6 z"/>
    <path d="m 2321,900 c 5,-5 12,-8 19,-8 5,-0 13,1 14,7 2,10 -1,21 -8,28 -7,6 -19,8 -26,2 -4,-4 -7,-9 -6,-15 0,-5 3,-10 7,-14 z m 12,27 c 7,-0 11,-8 14,-14 1,-5 4,-14 -4,-14 -5,0 -10,-0 -14,3 -5,4 -10,9 -8,16 1,6 7,9 12,9 z"/>
    <path d="m 2362,894 c 6,1 2,9 3,13 0,7 0,14 2,20 4,2 8,-4 11,-7 5,-7 8,-15 9,-23 0,-6 8,-5 6,1 -1,8 -3,17 -0,25 1,3 4,12 -2,10 -3,-3 -3,-11 -5,-12 -4,6 -8,12 -15,14 -6,1 -9,-4 -9,-10 -1,-9 -2,-18 -1,-28 0,-1 1,-3 2,-3 z"/>
    <path d="m 2427,898 c 4,-0 5,5 0,5 -6,3 -11,9 -14,16 -2,5 -1,10 -4,14 -5,2 -5,-5 -5,-9 -1,-9 -2,-19 -1,-28 1,-5 6,-2 5,2 0,4 1,8 2,12 3,-6 8,-11 15,-13 l 1,-0 1,-0 -10e-5,0 z"/>
    <path d="m 2489,883 c -3,6 -7,-5 -11,-1 -7,2 -15,6 -16,14 -1,7 -2,14 -0,21 2,5 8,9 13,6 7,-3 12,-9 16,-15 6,-4 4,6 1,8 -5,8 -14,17 -25,14 -7,-2 -13,-9 -12,-17 0,-8 -1,-17 2,-25 5,-8 14,-13 23,-13 4,0 9,3 9,7 z"/>
    <path d="m 2536,902 c 6,1 2,9 -3,7 -3,0 -7,0 -10,2 -0,7 -0,14 -0,20 -2,0 -4,0 -6,0 -0,-7 -0,-14 -0,-21 -4,0 -9,2 -14,1 -3,-5 4,-7 7,-7 2,-0 4,-1 6,-1 0,-4 -1,-8 1,-11 5,-4 7,3 7,7 0,1 -0,4 1,4 4,-0 8,-1 12,-1 z"/>
    <path d="m 2581,902 c 6,1 2,9 -3,7 -3,0 -7,0 -10,2 -0,7 -0,14 -0,20 -2,0 -4,0 -6,0 -0,-7 -0,-14 -0,-21 -4,0 -9,2 -14,1 -3,-5 4,-7 7,-7 2,-0 4,-1 6,-1 0,-4 -1,-8 1,-11 5,-4 7,3 7,7 0,1 -0,4 1,4 4,-0 8,-1 12,-1 z"/>
    <path d="m 2605,932 c -4,-1 -3,-7 -3,-11 -0,-7 0,-14 -0,-22 -3,3 -5,8 -9,8 -4,-3 1,-6 3,-9 2,-3 4,-6 6,-9 5,-3 5,5 5,8 0,11 1,22 1,33 0,1 -1,2 -2,2 z"/>
    <path d="m 2620,914 c 3,-1 12,0 10,-6 -0,-1 2,-9 0,-6 -3,3 -7,8 -10,12 z m -5,6 c -7,-1 1,-10 3,-13 4,-5 7,-11 12,-15 8,-4 5,12 5,17 1,5 9,-4 11,2 -0,4 -7,3 -10,5 -1,1 -0,3 -0,5 -1,4 3,9 0,12 -6,2 -5,-8 -6,-12 0,-6 -7,-0 -11,-1 -1,0 -2,0 -4,0 z"/>
    <path d="m 2678,929 c -2,-8 10,-5 8,0 -1,5 -8,6 -8,-0 z m 4,-13 c -5,-3 -3,-11 -2,-16 3,-4 7,-7 8,-13 2,-6 -5,-13 -10,-8 -6,1 -3,13 1,10 3,-2 -4,-3 -0,-6 6,-4 8,7 3,10 -5,4 -13,-2 -13,-8 -0,-7 6,-12 13,-13 8,0 13,10 11,17 -1,6 -6,10 -9,15 -0,4 1,8 -1,12 l -0,0 -0,0 0,0 z"/>
    <path d="m 1954,989 c 4,-4 5,-11 2,-16 -4,-4 -12,-0 -16,2 -0,5 -0,11 1,16 4,2 10,2 12,-2 l 0,0 z m 1,-38 c -4,-3 -10,-1 -15,-0 -3,4 -0,10 0,15 0,8 7,-2 10,-4 2,-3 4,-6 6,-10 z m -25,2 c -7,0 -4,-6 1,-6 7,-3 16,-3 24,-3 8,1 6,12 2,16 -2,3 -4,4 0,5 6,2 8,9 7,15 -1,7 -6,15 -13,17 -5,-2 -14,4 -15,-4 -1,-10 -1,-20 -3,-30 -0,-3 -0,-7 -1,-10 -0,0 -1,0 -2,0 z"/>
    <path d="m 1975,967 c 5,-5 12,-8 19,-8 5,-0 13,1 14,7 2,10 -1,21 -8,28 -7,6 -19,8 -26,2 -4,-4 -7,-9 -6,-15 0,-5 3,-10 7,-14 z m 12,27 c 7,-0 11,-8 14,-14 1,-5 4,-14 -4,-14 -5,0 -10,-0 -14,3 -5,4 -10,9 -8,16 1,6 7,9 12,9 z"/>
    <path d="m 2017,962 c -1,-5 6,-4 5,0 1,6 1,12 2,19 1,-5 3,-10 7,-15 3,-3 6,-9 11,-7 5,3 6,10 6,16 0,7 1,14 -0,21 -0,4 -7,2 -5,-2 0,-9 1,-18 -1,-27 -3,-5 -6,3 -8,5 -4,7 -8,14 -8,23 0,3 -2,8 -4,3 -1,-5 -1,-11 -2,-17 -0,-7 -1,-14 -2,-20 z"/>
    <path d="m 2103,979 c 0,-6 5,-13 2,-19 -1,-8 -9,-7 -15,-4 -9,3 -12,14 -12,23 1,6 4,14 11,15 7,0 11,-7 14,-12 0,-1 0,-2 1,-2 z m -5,18 c -4,3 -11,3 -16,1 -7,-5 -11,-14 -12,-23 0,-11 6,-23 17,-26 5,-4 12,-8 18,-3 7,7 7,18 5,27 -2,8 -4,17 -11,23 l -1,0 -1,0 0,0 z"/>
    <path d="m 2144,997 c -2,-0 -4,-2 -7,-3 -2,-0 -3,-2 -5,-2 -3,-1 -5,-2 -8,-2 0,3 1,6 0,9 -0,2 -3,3 -4,2 -2,-1 -2,-5 -2,-7 -1,-8 -0,-17 -2,-25 -1,-7 -1,-13 -1,-20 -0,-2 3,-4 5,-1 1,2 1,5 1,8 1,7 1,14 2,22 5,-4 9,-8 14,-12 1,-1 3,-2 4,-1 2,1 1,4 -0,5 -2,2 -3,4 -5,6 -3,3 -7,5 -10,8 -2,1 -0,2 1,3 6,2 12,4 17,8 2,1 5,4 2,6 l -0,0 -0,0 0,0 z"/>
    <path d="m 2179,971 c -3,-3 -7,-6 -12,-5 -5,0 -8,5 -11,9 7,0 14,-1 21,-2 0,-0 1,-0 1,-1 z m 9,11 c 3,3 -3,8 -5,11 -6,6 -17,9 -25,3 -8,-5 -10,-16 -6,-24 3,-5 8,-11 15,-11 6,-0 12,0 16,5 4,3 3,10 -2,11 -8,2 -16,3 -24,3 -0,4 1,7 4,10 4,4 11,4 15,1 5,-2 8,-7 13,-9 z"/>
    <path d="m 2196,964 c 2,-0 2,3 2,5 0,6 -0,12 0,19 0,3 3,1 4,-0 3,-3 6,-6 7,-10 1,-3 2,-7 3,-11 0,-2 2,-4 4,-4 2,0 2,3 2,5 -1,5 -2,10 -3,15 -0,2 -0,5 0,7 2,-1 4,-2 6,-1 2,2 -0,4 -2,5 -1,0 -2,1 -3,1 0,4 0,8 0,11 -0,3 -0,6 -1,9 -1,2 -4,1 -6,0 -3,-1 -5,-2 -6,-5 -1,-3 -3,-6 -2,-9 1,-2 2,-4 4,-5 1,-1 5,-1 5,-4 -0,-2 -0,-3 -2,-1 -2,3 -6,5 -10,5 -4,-0 -6,-4 -6,-8 -0,-6 -0,-13 0,-19 0,-2 1,-4 3,-4 z m 17,46 c 1,-3 -0,-6 -0,-9 -0,-0 -0,-3 -0,-2 -1,2 -3,4 -3,7 0,2 2,3 4,4 z"/>
    <path d="m 2323,981 c 4,4 -3,9 -6,13 -5,5 -13,7 -20,4 -5,-2 -8,-7 -9,-12 -1,-5 -1,-11 3,-15 4,-5 10,-10 17,-9 6,0 13,4 14,10 0,7 -6,4 -6,-1 -3,-4 -8,-4 -13,-3 -4,1 -6,6 -8,9 -3,5 -2,12 3,15 5,4 12,0 16,-3 3,-2 5,-6 9,-7 z"/>
    <path d="m 2333,949 c 2,-0 6,0 6,3 0,3 -2,5 -3,9 -0,2 -0,5 -2,6 -2,1 -5,-1 -6,-3 -1,-2 1,-5 2,-7 0,-2 -0,-5 2,-7 0,-0 1,-0 1,-0 z"/>
    <path d="m 2371,971 c -3,-5 -10,-7 -16,-4 -2,2 -8,6 -6,8 7,-0 13,-1 20,-3 0,-0 1,-0 1,-1 z m 9,11 c 3,3 -3,8 -5,11 -7,6 -17,9 -25,3 -9,-6 -11,-21 -3,-29 4,-4 9,-8 15,-7 5,0 11,2 13,7 5,7 -4,10 -10,11 -6,2 -14,0 -18,3 -0,6 6,12 12,12 8,-0 13,-7 19,-11 l 0,-0 0,-0 z"/>
    <path d="m 2388,994 c 1,-6 6,1 9,2 4,3 11,-0 11,-6 0,-5 -6,-5 -10,-7 -4,-1 -9,-3 -11,-8 -1,-5 3,-8 7,-11 4,-3 10,-3 16,-3 4,0 7,9 2,7 -4,-3 -10,-2 -14,0 -5,1 -6,9 0,9 5,2 11,2 14,7 4,8 -4,19 -13,17 -5,-0 -11,-2 -12,-7 l -0,-1 0,0 z"/>
    <path d="m 2433,963 c -4,0 -8,2 -13,1 -4,-1 0,-6 3,-6 3,-1 6,-1 9,-2 1,-3 0,-6 -0,-10 -0,-3 -1,-6 -0,-9 1,-3 6,-2 6,1 1,5 1,11 2,16 4,-0 8,-2 11,-0 3,2 -1,5 -4,5 -2,1 -6,0 -7,2 0,11 1,23 3,34 1,3 1,8 -3,7 -3,0 -4,-3 -4,-6 -0,-3 -0,-7 -1,-11 -1,-8 -1,-15 -2,-23 z"/>
    <path d="m 2492,1009 c 3,-5 1,-12 2,-19 0,-10 -5,-19 -4,-30 6,-5 7,6 8,10 2,13 3,26 1,39 -2,7 -11,5 -17,4 -6,-1 -7,-10 -4,-15 6,-2 1,10 7,9 2,0 5,0 7,0 z m -5,-59 c 1,-7 12,-0 5,3 -2,1 -5,-1 -5,-3 z"/>
    <path d="m 2511,961 c 6,1 2,9 3,13 0,7 0,14 2,20 4,2 8,-4 11,-7 5,-7 8,-15 9,-23 0,-6 8,-5 6,1 -1,8 -3,17 -0,25 1,3 4,12 -2,10 -3,-3 -3,-11 -5,-12 -4,6 -8,12 -15,14 -6,1 -9,-4 -9,-10 -1,-9 -2,-18 -1,-28 0,-1 1,-3 2,-3 z"/>
    <path d="m 2549,994 c 1,-6 5,-1 7,1 3,3 9,2 11,-2 4,-4 -1,-8 -5,-8 -4,-2 -9,-2 -13,-6 -4,-3 -0,-9 2,-12 3,-4 8,-5 14,-5 3,-0 6,-0 8,2 3,2 2,8 -2,5 -3,-4 -8,-2 -12,-0 -4,1 -10,7 -2,9 5,2 12,3 16,7 3,6 -1,15 -8,17 -4,0 -9,-0 -13,-2 -2,-1 -3,-4 -3,-6 z"/>
    <path d="m 2594,961 c -4,0 -8,1 -12,1 -4,-1 -1,-5 2,-5 3,-1 7,-1 10,-2 1,-2 0,-5 0,-7 -0,-4 -1,-7 -0,-11 0,-2 4,-3 5,-1 1,6 1,12 2,18 4,-0 7,-2 11,-0 3,1 0,5 -2,5 -3,1 -6,1 -9,2 0,11 1,21 3,32 0,3 1,5 1,8 -1,2 -5,2 -7,-0 -2,-4 -1,-8 -1,-13 -1,-8 -2,-17 -3,-26 z"/>
    <path d="m 2647,971 c -3,-3 -7,-6 -12,-5 -5,0 -8,5 -11,9 7,0 14,-1 21,-2 0,-0 1,-0 1,-1 z m 9,11 c 3,3 -3,8 -5,11 -6,6 -17,9 -25,3 -8,-5 -10,-16 -6,-24 3,-5 8,-11 15,-11 6,-0 12,0 16,5 4,3 3,10 -2,11 -8,2 -16,3 -24,3 -0,4 1,7 4,10 4,4 11,4 15,1 5,-2 8,-7 13,-9 z"/>
    <path d="m 1928,1028 c 6,1 2,9 3,13 0,7 0,14 2,20 4,2 8,-4 11,-7 5,-7 8,-15 9,-23 0,-6 8,-5 6,1 -1,8 -3,17 -0,25 1,3 4,12 -2,10 -3,-3 -3,-11 -5,-12 -4,6 -8,12 -15,14 -6,1 -9,-4 -9,-10 -1,-9 -2,-18 -1,-28 0,-1 1,-3 2,-3 z"/>
    <path d="m 1970,1029 c -1,-5 6,-4 5,0 1,6 1,12 2,19 1,-5 3,-10 7,-15 3,-3 6,-9 11,-7 5,3 6,10 6,16 0,7 1,14 -0,21 -0,4 -7,2 -5,-2 0,-9 1,-18 -1,-27 -3,-5 -6,3 -8,5 -4,7 -8,14 -8,23 0,3 -2,8 -4,3 -1,-5 -1,-11 -2,-17 -0,-7 -1,-14 -2,-20 z"/>
    <path d="m 2036,1038 c -3,-3 -7,-6 -12,-5 -5,0 -8,5 -11,9 7,0 14,-1 21,-2 0,-0 1,-0 1,-1 z m 9,11 c 3,3 -3,8 -5,11 -6,6 -17,9 -25,3 -8,-5 -10,-16 -6,-24 3,-5 8,-11 15,-11 6,-0 12,0 16,5 4,3 3,10 -2,11 -8,2 -16,3 -24,3 -0,4 1,7 4,10 4,4 11,4 15,1 5,-2 8,-7 13,-9 z"/>
    <path d="m 2095,1033 c -1,-5 8,-8 6,-2 -2,9 -6,18 -10,27 -2,4 -4,8 -9,10 -5,-0 -6,-7 -8,-11 -3,-9 -6,-18 -8,-28 3,-5 7,4 8,7 3,8 5,17 8,26 5,-8 8,-18 12,-27 0,-0 0,-1 0,-2 z"/>
    <path d="m 2133,1038 c -3,-3 -7,-6 -12,-5 -5,0 -8,5 -11,9 7,0 14,-1 21,-2 0,-0 1,-0 1,-1 z m 9,11 c 3,3 -3,8 -5,11 -6,6 -17,9 -25,3 -8,-5 -10,-16 -6,-24 3,-5 8,-11 15,-11 6,-0 12,0 16,5 4,3 3,10 -2,11 -8,2 -16,3 -24,3 -0,4 1,7 4,10 4,4 11,4 15,1 5,-2 8,-7 13,-9 z"/>
    <path d="m 2174,1032 c 4,-0 5,5 0,5 -6,3 -11,9 -14,16 -2,5 -1,10 -4,14 -5,2 -5,-5 -5,-9 -1,-9 -2,-19 -1,-28 1,-5 6,-2 5,2 0,4 1,8 2,12 3,-6 8,-11 15,-13 l 1,-0 1,-0 0,0 z"/>
    <path d="m 2183,1061 c 1,-6 5,-1 7,1 3,3 9,2 11,-2 4,-4 -1,-8 -5,-8 -4,-2 -9,-2 -13,-6 -4,-3 -0,-9 2,-12 3,-4 8,-5 14,-5 3,-0 6,-0 8,2 3,2 2,8 -2,5 -3,-4 -8,-2 -12,-0 -4,1 -10,7 -2,9 5,2 12,3 16,7 3,6 -1,15 -8,17 -4,0 -9,-0 -13,-2 -2,-1 -3,-4 -3,-6 z"/>
    <path d="m 2219,1032 c 5,-3 5,5 5,8 1,10 1,19 1,29 -2,4 -8,0 -6,-4 -0,-10 -1,-20 -1,-30 0,-1 0,-2 1,-3 z m -3,-6 c 0,-5 10,-2 7,2 -1,4 -7,1 -7,-2 z"/>
    <path d="m 2238,1034 c 5,-5 12,-8 19,-8 5,-0 13,1 14,7 2,10 -1,21 -8,28 -7,6 -19,8 -26,2 -4,-4 -7,-9 -6,-15 0,-5 3,-10 7,-14 z m 12,27 c 7,-0 11,-8 14,-14 1,-5 4,-14 -4,-14 -5,0 -10,-0 -14,3 -5,4 -10,9 -8,16 1,6 7,9 12,9 z"/>
    <path d="m 2280,1029 c -1,-5 6,-4 5,0 1,6 1,12 2,19 1,-5 3,-10 7,-15 3,-3 6,-9 11,-7 5,3 6,10 6,16 0,7 1,14 -0,21 -0,4 -7,2 -5,-2 0,-9 1,-18 -1,-27 -3,-5 -6,3 -8,5 -4,7 -8,14 -8,23 0,3 -2,8 -4,3 -1,-5 -1,-11 -2,-17 -0,-7 -1,-14 -2,-20 z"/>
    <path d="m 2385,1051 c -0,4 0,9 -0,13 0,3 -4,3 -4,0 -0,-8 -0,-16 -1,-24 -0,-3 -0,-5 -1,-8 -2,-1 -3,2 -5,4 -4,8 -6,17 -7,26 -0,2 -0,5 -3,5 -2,-1 -1,-4 -2,-6 -0,-6 -0,-13 -2,-19 -1,-3 -3,-6 -5,-8 -2,0 -3,4 -4,5 -1,3 -4,7 -3,11 -0,2 -1,4 -1,7 -0,4 -0,7 -0,11 0,2 -3,4 -4,1 -1,-3 -1,-6 -1,-10 -0,-7 -0,-15 -1,-22 -0,-3 -1,-7 0,-10 1,-3 4,1 4,3 0,2 1,5 1,7 1,-2 2,-4 3,-6 1,-2 2,-4 5,-4 4,-0 7,2 9,5 2,3 2,7 3,10 2,-5 4,-10 9,-14 2,-2 6,-2 8,-0 3,3 3,7 3,11 0,3 0,7 0,10 z"/>
    <path d="m 2396,1030 c 6,-3 5,6 6,9 1,9 1,19 1,28 -2,4 -8,0 -6,-4 -0,-10 -1,-20 -1,-30 0,-1 0,-2 1,-3 z m -3,-10 c 1,-6 10,-1 6,3 -2,3 -7,-0 -6,-3 z"/>
    <path d="m 2413,1029 c -1,-5 6,-4 5,0 1,6 1,12 2,19 1,-5 3,-10 7,-15 3,-3 6,-9 11,-7 5,3 6,10 6,16 0,7 1,14 -0,21 -0,4 -7,2 -5,-2 0,-9 1,-18 -1,-27 -3,-5 -6,3 -8,5 -4,7 -8,14 -8,23 0,3 -2,8 -4,3 -1,-5 -1,-11 -2,-17 -0,-7 -1,-14 -2,-20 z"/>
    <path d="m 2479,1038 c -3,-3 -7,-6 -12,-5 -5,0 -8,5 -11,9 7,0 14,-1 21,-2 0,-0 1,-0 1,-1 z m 9,11 c 3,3 -3,8 -5,11 -6,6 -17,9 -25,3 -8,-5 -10,-16 -6,-24 3,-5 8,-11 15,-11 6,-0 12,0 16,5 4,3 3,10 -2,11 -8,2 -16,3 -24,3 -0,4 1,7 4,10 4,4 11,4 15,1 5,-2 8,-7 13,-9 z"/>
    <path d="m 2496,1028 c 6,1 2,9 3,13 0,7 0,14 2,20 4,2 8,-4 11,-7 5,-7 8,-15 9,-23 0,-6 8,-5 6,1 -1,8 -3,17 -0,25 1,3 4,12 -2,10 -3,-3 -3,-11 -5,-12 -4,6 -8,12 -15,14 -6,1 -9,-4 -9,-10 -1,-9 -2,-18 -1,-28 0,-1 1,-3 2,-3 z"/>
    <path d="m 2561,1032 c 4,-0 5,5 0,5 -6,3 -11,9 -14,16 -2,5 -1,10 -4,14 -5,2 -5,-5 -5,-9 -1,-9 -2,-19 -1,-28 1,-5 6,-2 5,2 0,4 1,8 2,12 3,-6 8,-11 15,-13 l 1,-0 1,-0 0,0 z"/>
    <path d="m 2598,1038 c -3,-3 -7,-6 -12,-5 -5,0 -8,5 -11,9 7,0 14,-1 21,-2 0,-0 1,-0 1,-1 z m 9,11 c 3,3 -3,8 -5,11 -6,6 -17,9 -25,3 -8,-5 -10,-16 -6,-24 3,-5 8,-11 15,-11 6,-0 12,0 16,5 4,3 3,10 -2,11 -8,2 -16,3 -24,3 -0,4 1,7 4,10 4,4 11,4 15,1 5,-2 8,-7 13,-9 z"/>
    <path d="m 2622,1059 c -0,2 -2,6 -5,6 -3,-0 -3,-4 -3,-6 0,-3 3,-3 5,-2 1,0 2,1 2,2 z m 20,1 c -1,2 -2,6 -5,6 -3,-0 -4,-4 -3,-6 0,-3 4,-3 6,-1 1,0 1,1 2,1 z m -10,-0 c -1,2 -2,6 -4,6 -3,0 -4,-3 -3,-6 0,-2 3,-4 5,-2 1,0 2,1 3,2 z"/>
  </g>
  <g id="2017">
    <path d="m 3191,100 0,-7 -24,0 18,-19 c 3,-4 6,-8 6,-14 0,-10 -8,-16 -19,-16 -5,0 -10,2 -16,4 l 0,9 c 5,-3 10,-5 16,-5 5,0 9,3 9,9 0,4 -3,9 -6,11 -1,1 -18,19 -20,21 l 0,7 35,0 z"/>
    <path d="m 3238,72 c -0,-11 -3,-29 -19,-29 -16,0 -19,17 -19,29 0,11 3,28 19,28 16,0 19,-17 19,-28 z m -9,0 c 0,7 -0,21 -10,21 -9,0 -10,-14 -10,-21 0,-7 0,-21 10,-21 9,0 10,15 10,21 z"/>
    <path d="m 3261,100 0,-55 -8,0 -8,7 0,8 8,-6 0,47 8,0 z"/>
    <path d="m 3305,48 0,-4 -36,0 0,7 25,0 -18,48 9,0 19,-51 z"/>
  </g>
  <g id="Cpp17">
    <path d="m 2848,892 c 4,-7 11,-12 18,-14 4,-1 9,-2 14,-1 3,1 5,5 7,8 2,6 1,13 -0,19 -1,4 -2,9 -4,13 4,3 8,6 11,11 2,3 -2,4 -4,2 -3,-1 -5,-4 -9,-6 -1,-0 -2,-2 -2,-1 -4,8 -14,12 -23,9 -4,-1 -7,-4 -8,-7 -3,-5 -5,-12 -4,-18 0,-5 2,-11 4,-16 z m 15,18 c 0,-2 3,-4 5,-2 3,1 6,3 9,5 2,-5 3,-10 5,-15 0,-3 1,-6 -1,-8 -2,-2 -4,-4 -8,-4 -3,-0 -6,-0 -10,0 -4,2 -7,5 -9,9 -1,2 -2,5 -2,8 -1,6 -2,12 0,18 1,3 3,7 7,8 5,1 10,-1 14,-5 2,-2 -2,-4 -3,-6 -2,-2 -5,-3 -7,-6 l -0,-0 0,0 z"/>
    <path d="m 2900,894 c 6,1 2,9 3,13 0,7 0,14 2,20 4,2 8,-4 11,-7 5,-7 8,-15 9,-23 0,-6 8,-5 6,1 -1,8 -3,17 -0,25 1,3 4,12 -2,10 -3,-3 -3,-11 -5,-12 -4,6 -8,12 -15,14 -6,1 -9,-4 -9,-10 -1,-9 -2,-18 -1,-28 0,-1 1,-3 2,-3 z"/>
    <path d="m 2944,900 c 5,-5 12,-8 19,-8 5,-0 13,1 14,7 2,10 -1,21 -8,28 -7,6 -19,8 -26,2 -4,-4 -7,-9 -6,-15 0,-5 3,-10 7,-14 z m 12,27 c 7,-0 11,-8 14,-14 1,-5 4,-14 -4,-14 -5,0 -10,-0 -14,3 -5,4 -10,9 -8,16 1,6 7,9 12,9 z"/>
    <path d="m 2985,892 c 7,-3 5,8 6,12 0,8 1,17 0,26 -6,4 -7,-4 -7,-9 -0,-9 -1,-18 -1,-27 0,-1 0,-2 1,-2 z m -1,-8 c 1,-6 11,-0 6,4 -2,2 -6,-1 -6,-4 z"/>
    <path d="m 3017,875 c -1,-1 -1,-4 0,-4 1,-0 3,0 5,0 1,0 3,0 4,0 -0,3 -2,31 -4,34 -1,4 -2,8 -3,12 -0,2 -3,2 -4,-0 -1,-3 -1,-6 -1,-9 -0,-3 1,-30 1,-33 z m -1,58 c -2,-0 -3,-3 -2,-5 1,-2 2,-4 4,-4 2,-0 4,0 5,2 0,2 -0,4 -1,6 -1,2 -3,1 -5,0 l -0,-0 -0,0 0,0 z"/>
    <path d="m 3097,888 c -3,-6 -12,-5 -18,-4 -8,0 -4,10 -4,15 -0,8 9,3 14,1 4,-2 6,-8 9,-13 z m -22,-11 c 6,-0 13,-2 19,-0 7,0 11,7 9,14 -1,6 -4,10 -9,14 -5,3 -10,6 -16,5 -3,-1 -1,3 -1,5 0,6 1,13 0,19 -5,7 -7,-4 -7,-9 -1,-12 -2,-25 -2,-37 -5,5 -7,-4 -2,-6 3,-3 6,-6 10,-5 z"/>
    <path d="m 3123,926 c 1,-2 8,-5 2,-7 -5,-1 -13,-0 -15,5 -2,5 5,5 9,3 1,-0 3,-1 4,-2 z m 12,4 c -1,6 -7,3 -6,-2 -0,-3 -4,3 -7,3 -5,3 -11,3 -16,0 -3,-3 -3,-9 -0,-12 4,-4 10,-7 16,-7 3,-1 9,6 8,0 -0,-4 0,-11 -4,-12 -6,-0 -12,3 -18,5 -6,-0 0,-7 4,-7 6,-2 12,-5 18,-2 5,3 6,9 6,14 0,6 0,13 1,20 z"/>
    <path d="m 3143,927 c 1,-6 5,-1 7,1 3,3 9,2 11,-2 4,-4 -1,-8 -5,-8 -4,-2 -9,-2 -13,-6 -4,-3 -0,-9 2,-12 3,-4 8,-5 14,-5 3,-0 6,-0 8,2 3,2 2,8 -2,5 -3,-4 -8,-2 -12,-0 -4,1 -10,7 -2,9 5,2 12,3 16,7 3,6 -1,15 -8,17 -4,0 -9,-0 -13,-2 -2,-1 -3,-4 -3,-6 z"/>
    <path d="m 3189,902 c 0,-3 4,-3 4,-6 0,-2 2,-6 5,-4 1,2 4,1 6,1 6,-1 13,-2 19,0 4,1 6,5 6,9 -0,6 -3,12 -6,17 -3,6 -10,10 -17,10 -1,-0 -2,-0 -4,-0 1,6 3,11 3,17 0,3 -3,4 -5,2 -2,-1 -2,-4 -2,-6 -3,-11 -3,-23 -5,-35 0,-3 -4,-1 -4,-4 z m 32,-4 c -3,-1 -7,-0 -10,-0 -3,0 -7,1 -10,2 0,7 0,14 2,20 1,1 3,1 5,2 3,0 6,-2 8,-5 4,-4 7,-9 7,-15 0,-2 -0,-4 -2,-6 z"/>
    <path d="m 3241,900 c 5,-5 12,-8 19,-8 5,-0 13,1 14,7 2,10 -1,21 -8,28 -7,6 -19,8 -26,2 -4,-4 -7,-9 -6,-15 0,-5 3,-10 7,-14 z m 12,27 c 7,-0 11,-8 14,-14 1,-5 4,-14 -4,-14 -5,0 -10,-0 -14,3 -5,4 -10,9 -8,16 1,6 7,9 12,9 z"/>
    <path d="m 3282,894 c 6,1 2,9 3,13 0,7 0,14 2,20 4,2 8,-4 11,-7 5,-7 8,-15 9,-23 0,-6 8,-5 6,1 -1,8 -3,17 -0,25 1,3 4,12 -2,10 -3,-3 -3,-14 -3,-14 0,0 -10,14 -17,16 -6,1 -9,-4 -9,-10 -1,-9 -2,-18 -1,-28 0,-1 1,-3 2,-3 z"/>
    <path d="m 3347,898 c 4,-0 5,5 0,5 -6,3 -11,9 -14,16 -2,5 -1,10 -4,14 -5,2 -5,-5 -5,-9 -1,-9 -2,-19 -1,-28 1,-5 6,-2 5,2 0,4 1,8 2,12 3,-6 8,-11 15,-13 l 1,-0 1,-0 -10e-5,0 z"/>
    <path d="m 3409,883 c -3,6 -7,-5 -11,-1 -7,2 -15,6 -16,14 -1,7 -2,14 -0,21 2,5 8,9 13,6 7,-3 12,-9 16,-15 6,-4 4,6 1,8 -5,8 -14,17 -25,14 -7,-2 -13,-9 -12,-17 0,-8 -1,-17 2,-25 5,-8 14,-13 23,-13 4,0 9,3 9,7 z"/>
    <path d="m 3456,902 c 6,1 2,9 -3,7 -3,0 -7,0 -10,2 -0,7 -0,14 -0,20 -2,0 -4,0 -6,0 -0,-7 -0,-14 -0,-21 -4,0 -9,2 -14,1 -3,-5 4,-7 7,-7 2,-0 4,-1 6,-1 0,-4 -1,-8 1,-11 5,-4 7,3 7,7 0,1 -0,4 1,4 4,-0 8,-1 12,-1 z"/>
    <path d="m 3501,902 c 6,1 2,9 -3,7 -3,0 -7,0 -10,2 -0,7 -0,14 -0,20 -2,0 -4,0 -6,0 -0,-7 -0,-14 -0,-21 -4,0 -9,2 -14,1 -3,-5 4,-7 7,-7 2,-0 4,-1 6,-1 0,-4 -1,-8 1,-11 5,-4 7,3 7,7 0,1 -0,4 1,4 4,-0 8,-1 12,-1 z"/>
    <path d="m 3525,932 c -4,-1 -3,-7 -3,-11 -0,-7 0,-14 -0,-22 -3,3 -5,8 -9,8 -4,-3 1,-6 3,-9 2,-3 4,-6 6,-9 5,-3 5,5 5,8 0,11 1,22 1,33 0,1 -1,2 -2,2 z"/>
    <path d="m 3534,889 c 0,0 11,-0 17,-1 2,-0 4,-0 5,2 1,2 0,5 -0,7 -1,7 -2,14 -4,20 -1,4 -2,8 -3,12 -0,2 -3,2 -5,1 -2,-1 -1,-3 -1,-5 1,-7 3,-13 5,-20 1,-4 1,-8 2,-12 -4,-0 -15,0 -15,0 z"/>
    <path d="m 3589,929 c -2,-9 13,-3 6,2 -2,4 -7,1 -6,-2 z m 4,-13 c -5,-3 -4,-14 0,-19 4,-4 8,-12 4,-17 -3,-6 -13,-0 -12,5 0,3 4,7 6,2 -6,-5 7,-8 5,0 -0,5 -6,8 -10,5 -5,-3 -8,-10 -3,-15 3,-4 11,-8 16,-3 6,5 7,14 3,20 -2,5 -8,9 -7,15 -0,2 0,6 -2,7 z"/>
    <path d="m 2882,979 c 1,-8 7,-20 -2,-25 -12,-3 -23,9 -23,21 -0,7 3,17 11,19 7,-0 12,-8 14,-14 z m -5,18 c -9,7 -23,0 -25,-10 -5,-13 -1,-32 13,-38 7,-5 19,-8 24,2 5,12 2,26 -3,37 -2,3 -4,8 -8,9 z"/>
    <path d="m 2923,997 q -2,-0 -4,-1 -2,-1 -3,-1 -1,0 -1,-0 -0,-0 -0,-0 l -0,-0 q -1,-1 -9,-3 l -2,-1 0,4 q 0,2 0,3 0,4 -2,4 -3,0 -3,-3 -1,-3 -1,-16 -0,-11 -1,-14 -1,-7 -1,-19 0,-3 2,-3 2,0 3,2 0,1 1,6 0,5 1,11 0,6 1,9 l 0,2 7,-6 q 0,-0 1,-1 1,-1 1,-1 0,-0 1,-1 1,-1 1,-1 0,-0 1,-1 1,-0 1,-1 0,-0 1,-0 0,-0 1,-0 0,-0 0,-0 1,0 2,1 1,1 1,2 0,1 -0,1 -0,0 -1,1 -1,1 -2,2 -3,4 -12,10 -2,2 -3,3 0,0 1,1 l 8,3 0,0 q 0,0 1,0 0,0 1,0 1,0 2,1 1,0 2,1 1,0 2,1 1,0 1,1 1,0 1,1 0,0 1,1 0,0 0,1 0,1 -0,1 -0,0 -1,0 z"/>
    <path d="m 2958,971 c -3,-3 -7,-6 -12,-5 -5,0 -8,5 -11,9 7,0 14,-1 21,-2 0,-0 1,-0 1,-1 z m 9,11 c 3,3 -3,8 -5,11 -6,6 -17,9 -25,3 -8,-5 -10,-16 -6,-24 3,-5 8,-11 15,-11 6,-0 12,0 16,5 4,3 3,10 -2,11 -8,2 -16,3 -24,3 -0,4 1,7 4,10 4,4 11,4 15,1 5,-2 8,-7 13,-9 z"/>
    <path d="m 2975,964 c 2,-0 2,3 2,5 0,6 -0,12 0,19 0,3 3,1 4,-0 3,-3 6,-6 7,-10 1,-3 2,-7 3,-11 0,-2 2,-4 4,-4 2,0 2,3 2,5 -1,5 -2,10 -3,15 -0,2 -0,5 0,7 2,-1 4,-2 6,-1 2,2 -0,4 -2,5 -1,0 -2,1 -3,1 0,4 0,8 0,11 -0,3 -0,6 -1,9 -1,2 -4,1 -6,0 -3,-1 -5,-2 -6,-5 -1,-3 -3,-6 -2,-9 1,-2 2,-4 4,-5 1,-1 5,-1 5,-4 -0,-2 -0,-3 -2,-1 -2,3 -6,5 -10,5 -4,-0 -6,-4 -6,-8 -0,-6 -0,-13 0,-19 0,-2 1,-4 3,-4 z m 17,46 c 1,-3 -0,-6 -0,-9 -0,-0 -0,-3 -0,-2 -1,2 -3,4 -3,7 0,2 2,3 4,4 z"/>
    <path d="m 3103,984 c -0,4 0,9 -0,13 0,3 -4,3 -4,0 -0,-8 -0,-16 -1,-24 -0,-3 -0,-5 -1,-8 -2,-1 -3,2 -5,4 -4,8 -6,17 -7,26 -0,2 -0,5 -3,5 -2,-1 -1,-4 -2,-6 -0,-6 -0,-13 -2,-19 -1,-3 -3,-6 -5,-8 -2,0 -3,4 -4,5 -1,3 -4,7 -3,11 -0,2 -1,4 -1,7 -0,4 -0,7 -0,11 0,2 -3,4 -4,1 -1,-3 -1,-6 -1,-10 -0,-7 -0,-15 -1,-22 -0,-3 -1,-7 0,-10 1,-3 4,1 4,3 0,2 1,5 1,7 1,-2 2,-4 3,-6 1,-2 2,-4 5,-4 4,-0 7,2 9,5 2,3 2,7 3,10 2,-5 4,-10 9,-14 2,-2 6,-2 8,-0 3,3 3,7 3,11 0,3 0,7 0,10 z"/>
    <path d="m 3132,991 c 0,-2 2,-3 4,-4 2,-1 -0,-3 -2,-3 -4,-1 -8,-1 -12,1 -2,1 -4,4 -3,7 2,1 4,2 6,1 2,-0 4,-1 6,-2 z m 12,4 c -0,2 -2,4 -4,4 -1,-1 -2,-3 -2,-4 -0,-1 0,-4 -1,-2 -3,3 -6,5 -10,6 -3,1 -6,0 -10,-1 -2,-0 -3,-2 -3,-4 -0,-3 -0,-7 2,-9 3,-2 6,-4 10,-5 3,-1 7,-1 10,0 1,1 3,1 3,1 -0,-4 -0,-8 -1,-11 -0,-1 -1,-3 -3,-3 -5,0 -11,3 -16,5 -1,0 -4,1 -4,-1 0,-2 2,-3 3,-4 3,-1 6,-2 9,-3 4,-1 8,-2 12,0 3,2 5,6 5,10 0,8 0,15 1,23 z"/>
    <path d="m 3152,959 c 6,-3 5,7 6,10 0,9 1,18 0,27 -3,5 -9,-1 -7,-5 -0,-10 -1,-19 -1,-29 0,-1 0,-2 1,-2 z m -3,-8 c 1,-7 11,0 5,4 -2,1 -6,-2 -5,-4 z"/>
    <path d="m 3166,994 c 2,-6 6,2 9,3 5,2 10,-2 11,-7 -2,-5 -9,-5 -14,-7 -5,-1 -11,-7 -6,-12 3,-6 10,-9 17,-9 4,-1 7,1 9,4 2,4 -4,4 -5,1 -5,-2 -11,1 -14,4 -4,4 2,6 5,7 4,1 10,2 12,7 3,8 -4,18 -13,16 -5,-0 -12,-2 -12,-8 l 0,0 z"/>
    <path d="m 3223,967 c 5,-5 12,-8 19,-8 5,-0 13,1 14,7 2,10 -1,21 -8,28 -7,6 -19,8 -26,2 -4,-4 -7,-9 -6,-15 0,-5 3,-10 7,-14 z m 12,27 c 7,-0 11,-8 14,-14 1,-5 4,-14 -4,-14 -5,0 -10,-0 -14,3 -5,4 -10,9 -8,16 1,6 7,9 12,9 z"/>
    <path d="m 3259,962 c -1,-5 6,-4 5,0 1,6 1,12 2,19 1,-5 3,-10 7,-15 3,-3 6,-9 11,-7 5,3 6,10 6,16 0,7 1,14 -0,21 -0,4 -7,2 -5,-2 0,-9 1,-18 -1,-27 -3,-5 -6,3 -8,5 -4,7 -8,14 -8,23 0,3 -2,8 -4,3 -1,-5 -1,-11 -2,-17 -0,-7 -1,-14 -2,-20 z"/>
    <path d="m 3335,991 c 0,-2 2,-3 4,-4 2,-1 -0,-3 -2,-3 -4,-1 -8,-1 -12,1 -2,1 -4,4 -3,7 2,1 4,2 6,1 2,-0 4,-1 6,-2 z m 12,4 c -0,2 -2,4 -4,4 -1,-1 -2,-3 -2,-4 -0,-1 0,-4 -1,-2 -3,3 -6,5 -10,6 -3,1 -6,0 -10,-1 -2,-0 -3,-2 -3,-4 -0,-3 -0,-7 2,-9 3,-2 6,-4 10,-5 3,-1 7,-1 10,0 1,1 3,1 3,1 -0,-4 -0,-8 -1,-11 -0,-1 -1,-3 -3,-3 -5,0 -11,3 -16,5 -1,0 -4,1 -4,-1 0,-2 2,-3 3,-4 3,-1 6,-2 9,-3 4,-1 8,-2 12,0 3,2 5,6 5,10 0,8 0,15 1,23 z"/>
    <path d="m 3379,965 c 4,-0 5,5 0,5 -6,3 -11,9 -14,16 -2,5 -1,10 -4,14 -5,2 -5,-5 -5,-9 -1,-9 -2,-19 -1,-28 1,-5 6,-2 5,2 0,4 1,8 2,12 3,-6 8,-11 15,-13 l 1,-0 1,-0 0,0 z"/>
    <path d="m 3414,965 c 4,-0 5,5 0,5 -6,3 -11,9 -14,16 -2,5 -1,10 -4,14 -5,2 -5,-5 -5,-9 -1,-9 -2,-19 -1,-28 1,-5 6,-2 5,2 0,4 1,8 2,12 3,-6 8,-11 15,-13 l 1,-0 1,-0 0,0 z"/>
    <path d="m 3451,958 c -5,0 -8,-11 -12,-7 -1,3 -8,12 -9,5 2,-5 6,-10 10,-14 5,1 9,7 12,11 1,1 1,4 -1,5 z m 0,12 c -3,-5 -11,-7 -16,-3 -3,2 -10,9 -1,7 6,-1 13,-0 18,-4 z m 9,11 c 3,4 -4,10 -8,13 -7,5 -18,6 -25,-0 -8,-7 -8,-21 -0,-28 4,-4 10,-7 16,-6 6,-0 13,5 14,11 -1,7 -11,6 -16,7 -4,0 -9,1 -13,1 -1,7 5,12 11,13 8,0 13,-7 20,-11 l 1,-0 0,-0 0,0 z"/>
    <path d="m 3478,961 c -4,0 -8,1 -12,1 -4,-1 -1,-5 2,-5 3,-1 7,-1 10,-2 1,-2 0,-5 0,-7 -0,-4 -1,-7 -0,-11 0,-2 4,-3 5,-1 1,6 1,12 2,18 4,-0 7,-2 11,-0 3,1 0,5 -2,5 -3,1 -6,1 -9,2 0,11 1,21 3,32 0,3 1,5 1,8 -1,2 -5,2 -7,-0 -2,-4 -1,-8 -1,-13 -1,-8 -2,-17 -3,-26 z"/>
    <path d="m 3530,971 c -3,-3 -7,-6 -12,-5 -5,0 -8,5 -11,9 7,0 14,-1 21,-2 0,-0 1,-0 1,-1 z m 9,11 c 3,3 -3,8 -5,11 -6,6 -17,9 -25,3 -8,-5 -10,-16 -6,-24 3,-5 8,-11 15,-11 6,-0 12,0 16,5 4,3 3,10 -2,11 -8,2 -16,3 -24,3 -0,4 1,7 4,10 4,4 11,4 15,1 5,-2 8,-7 13,-9 z"/>
    <path d="m 2847,1009 c -0,-3 -0,-15 5,-10 2,22 3,43 4,65 -3,6 -7,-2 -6,-6 -1,-16 -3,-31 -3,-47 l -0,-1 0,0 z"/>
    <path d="m 2891,1038 c -3,-3 -7,-6 -12,-5 -5,0 -8,5 -11,9 7,0 14,-1 21,-2 0,-0 1,-0 1,-1 z m 9,11 c 3,3 -3,8 -5,11 -6,6 -17,9 -25,3 -8,-5 -10,-16 -6,-24 3,-5 8,-11 15,-11 6,-0 12,0 16,5 4,3 3,10 -2,11 -8,2 -16,3 -24,3 -0,4 1,7 4,10 4,4 11,4 15,1 5,-2 8,-7 13,-9 z"/>
    <path d="m 2905,1061 c 1,-6 5,-1 7,1 3,3 9,2 11,-2 4,-4 -1,-8 -5,-8 -4,-2 -9,-2 -13,-6 -4,-3 -0,-9 2,-12 3,-4 8,-5 14,-5 3,-0 6,-0 8,2 3,2 2,8 -2,5 -3,-4 -8,-2 -12,-0 -4,1 -10,7 -2,9 5,2 12,3 16,7 3,6 -1,15 -8,17 -4,0 -9,-0 -13,-2 -2,-1 -3,-4 -3,-6 z"/>
    <path d="m 2982,1033 c -1,-5 8,-8 6,-2 -2,9 -6,18 -10,27 -2,4 -4,8 -9,10 -5,-0 -6,-7 -8,-11 -3,-9 -6,-18 -8,-28 3,-5 7,4 8,7 3,8 5,17 8,26 5,-8 8,-18 12,-27 0,-0 0,-1 0,-2 z"/>
    <path d="m 3021,1038 c -3,-3 -7,-6 -12,-5 -5,0 -8,5 -11,9 7,0 14,-1 21,-2 0,-0 1,-0 1,-1 z m 9,11 c 3,3 -3,8 -5,11 -6,6 -17,9 -25,3 -8,-5 -10,-16 -6,-24 3,-5 8,-11 15,-11 6,-0 12,0 16,5 4,3 3,10 -2,11 -8,2 -16,3 -24,3 -0,4 1,7 4,10 4,4 11,4 15,1 5,-2 8,-7 13,-9 z"/>
    <path d="m 3061,1032 c 4,-0 5,5 0,5 -6,3 -11,9 -14,16 -2,5 -1,10 -4,14 -5,2 -5,-5 -5,-9 -1,-9 -2,-19 -1,-28 1,-5 6,-2 5,2 0,4 1,8 2,12 3,-6 8,-11 15,-13 l 1,-0 1,-0 0,0 z"/>
    <path d="m 3071,1061 c 1,-6 5,-1 7,1 3,3 9,2 11,-2 4,-4 -1,-8 -5,-8 -4,-2 -9,-2 -13,-6 -4,-3 -0,-9 2,-12 3,-4 8,-5 14,-5 3,-0 6,-0 8,2 3,2 2,8 -2,5 -3,-4 -8,-2 -12,-0 -4,1 -10,7 -2,9 5,2 12,3 16,7 3,6 -1,15 -8,17 -4,0 -9,-0 -13,-2 -2,-1 -3,-4 -3,-6 z"/>
    <path d="m 3107,1030 c 5,-3 5,5 6,9 1,9 1,19 1,29 -2,4 -8,0 -6,-4 -0,-10 -1,-20 -1,-30 0,-1 0,-2 1,-3 z m -3,-8 c 1,-6 10,-1 6,3 -2,3 -7,-0 -6,-3 z"/>
    <path d="m 3126,1034 c 5,-5 12,-8 19,-8 5,-0 13,1 14,7 2,10 -1,21 -8,28 -7,6 -19,8 -26,2 -4,-4 -7,-9 -6,-15 0,-5 3,-10 7,-14 z m 12,27 c 7,-0 11,-8 14,-14 1,-5 4,-14 -4,-14 -5,0 -10,-0 -14,3 -5,4 -10,9 -8,16 1,6 7,9 12,9 z"/>
    <path d="m 3168,1029 c -1,-5 6,-4 5,0 1,6 1,12 2,19 1,-5 3,-10 7,-15 3,-3 6,-9 11,-7 5,3 6,10 6,16 0,7 1,14 -0,21 -0,4 -7,2 -5,-2 0,-9 1,-18 -1,-27 -3,-5 -6,3 -8,5 -4,7 -8,14 -8,23 0,3 -2,8 -4,3 -1,-5 -1,-11 -2,-17 -0,-7 -1,-14 -2,-20 z"/>
    <path d="m 3207,1061 c 1,-6 5,-1 7,1 3,3 9,2 11,-2 4,-4 -1,-8 -5,-8 -4,-2 -9,-2 -13,-6 -4,-3 -0,-9 2,-12 3,-4 8,-5 14,-5 3,-0 6,-0 8,2 3,2 2,8 -2,5 -3,-4 -8,-2 -12,-0 -4,1 -10,7 -2,9 5,2 12,3 16,7 3,6 -1,15 -8,17 -4,0 -9,-0 -13,-2 -2,-1 -3,-4 -3,-6 z"/>
    <path d="m 3306,1051 c -0,4 0,9 -0,13 0,3 -4,3 -4,0 -0,-8 -0,-16 -1,-24 -0,-3 -0,-5 -1,-8 -2,-1 -3,2 -5,4 -4,8 -6,17 -7,26 -0,2 -0,5 -3,5 -2,-1 -1,-4 -2,-6 -0,-6 -0,-13 -2,-19 -1,-3 -3,-6 -5,-8 -2,0 -3,4 -4,5 -1,3 -4,7 -3,11 -0,2 -1,4 -1,7 -0,4 -0,7 -0,11 0,2 -3,4 -4,1 -1,-3 -1,-6 -1,-10 -0,-7 -0,-15 -1,-22 -0,-3 -1,-7 0,-10 1,-3 4,1 4,3 0,2 1,5 1,7 1,-2 2,-4 3,-6 1,-2 2,-4 5,-4 4,-0 7,2 9,5 2,3 2,7 3,10 2,-5 4,-10 9,-14 2,-2 6,-2 8,-0 3,3 3,7 3,11 0,3 0,7 0,10 z"/>
    <path d="m 3317,1030 c 5,-3 5,5 6,9 1,9 1,19 1,29 -2,4 -8,0 -6,-4 -0,-10 -1,-20 -1,-30 0,-1 0,-2 1,-3 z m -3,-8 c 1,-6 10,-1 6,3 -2,3 -7,-0 -6,-3 z"/>
    <path d="m 3334,1029 c -1,-5 6,-4 5,0 1,6 1,12 2,19 1,-5 3,-10 7,-15 3,-3 6,-9 11,-7 5,3 6,10 6,16 0,7 1,14 -0,21 -0,4 -7,2 -5,-2 0,-9 1,-18 -1,-27 -3,-5 -6,3 -8,5 -4,7 -8,14 -8,23 0,3 -2,8 -4,3 -1,-5 -1,-11 -2,-17 -0,-7 -1,-14 -2,-20 z"/>
    <path d="m 3400,1038 c -3,-3 -7,-6 -12,-5 -5,0 -8,5 -11,9 7,0 14,-1 21,-2 0,-0 1,-0 1,-1 z m 9,11 c 3,3 -3,8 -5,11 -6,6 -17,9 -25,3 -8,-5 -10,-16 -6,-24 3,-5 8,-11 15,-11 6,-0 12,0 16,5 4,3 3,10 -2,11 -8,2 -16,3 -24,3 -0,4 1,7 4,10 4,4 11,4 15,1 5,-2 8,-7 13,-9 z"/>
    <path d="m 3417,1028 c 6,1 2,9 3,13 0,7 0,14 2,20 4,2 8,-4 11,-7 5,-7 8,-15 9,-23 0,-6 8,-5 6,1 -1,8 -3,17 -0,25 1,3 4,12 -2,10 -3,-3 -3,-14 -3,-14 0,0 -10,14 -17,16 -6,1 -9,-4 -9,-10 -1,-9 -2,-18 -1,-28 0,-1 1,-3 2,-3 z"/>
    <path d="m 3482,1032 c 4,-0 5,5 0,5 -6,3 -11,9 -14,16 -2,5 -1,10 -4,14 -5,2 -5,-5 -5,-9 -1,-9 -2,-19 -1,-28 1,-5 6,-2 5,2 0,4 1,8 2,12 3,-6 8,-11 15,-13 l 1,-0 1,-0 0,0 z"/>
    <path d="m 3519,1038 c -3,-3 -7,-6 -12,-5 -5,0 -8,5 -11,9 7,0 14,-1 21,-2 0,-0 1,-0 1,-1 z m 9,11 c 3,3 -3,8 -5,11 -6,6 -17,9 -25,3 -8,-5 -10,-16 -6,-24 3,-5 8,-11 15,-11 6,-0 12,0 16,5 4,3 3,10 -2,11 -8,2 -16,3 -24,3 -0,4 1,7 4,10 4,4 11,4 15,1 5,-2 8,-7 13,-9 z"/>
    <path d="m 3533,1061 c 1,-6 5,-1 7,1 3,3 9,2 11,-2 4,-4 -1,-8 -5,-8 -4,-2 -9,-2 -13,-6 -4,-3 -0,-9 2,-12 3,-4 8,-5 14,-5 3,-0 6,-0 8,2 3,2 2,8 -2,5 -3,-4 -8,-2 -12,-0 -4,1 -10,7 -2,9 5,2 12,3 16,7 3,6 -1,15 -8,17 -4,0 -9,-0 -13,-2 -2,-1 -3,-4 -3,-6 z"/>
    <path d="m 3576,1059 c -0,2 -2,6 -5,6 -3,-0 -3,-4 -3,-6 0,-3 3,-3 5,-2 1,0 2,1 2,2 z m 20,1 c -1,2 -2,6 -5,6 -3,-0 -4,-4 -3,-6 0,-3 4,-3 6,-1 1,0 1,1 2,1 z m -10,-0 c -1,2 -2,6 -4,6 -3,0 -4,-3 -3,-6 0,-2 3,-4 5,-2 1,0 2,1 3,2 z"/>
  </g>
  <g id="2099">
    <path d="m 3722,72 c 0,-19 -10,-27 -31,-27 l -15,0 0,55 15,0 c 20,0 31,-8 31,-28 z m -9,0 c 0,14 -6,20 -20,20 l -7,0 0,-40 7,0 c 14,0 20,6 20,20 z"/>
    <path d="m 3765,83 0,-3 c 0,-10 -6,-17 -17,-17 -12,0 -18,9 -18,19 0,11 7,18 19,18 5,0 10,-1 15,-3 l 0,-7 c -6,3 -7,3 -15,3 -6,0 -10,-5 -10,-10 l 26,0 z m -9,-6 -17,0 c 1,-4 3,-7 8,-7 5,0 8,2 9,7 z"/>
    <path d="m 3823,99 0,-7 c -2,1 -5,1 -7,1 -0,0 -0,0 -1,0 -4,0 -5,-1 -5,-5 l 0,-19 10,0 0,-6 -10,0 0,-10 -5,0 -3,10 -4,0 0,6 4,0 0,19 c 0,9 4,12 14,12 2,0 5,-0 7,-1 z"/>
    <path d="m 3852,74 3,-8 c -1,-1 -5,-2 -8,-2 -3,0 -5,1 -7,4 l 0,-3 -9,0 0,36 9,0 0,-23 c 0,-4 2,-6 5,-6 0,0 0,0 0,0 2,0 4,1 7,3 z"/>
    <path d="m 3890,61 -12,-14 -9,0 12,14 9,0 z m 4,22 0,-3 c 0,-10 -6,-17 -17,-17 -12,0 -18,9 -18,19 0,11 7,18 19,18 5,0 10,-1 15,-3 l 0,-7 c -6,3 -7,3 -15,3 -6,0 -10,-5 -10,-10 l 26,0 z m -9,-6 -17,0 c 1,-4 3,-7 8,-7 5,0 8,2 9,7 z"/>
    <path d="m 3933,89 c 0,-7 -6,-10 -13,-11 l -2,-0 c -3,-0 -7,-1 -7,-4 0,-3 4,-4 7,-4 6,0 6,0 12,3 l 0,-7 c -4,-1 -8,-2 -13,-2 -8,0 -16,3 -16,11 0,7 5,9 12,11 l 2,0 c 3,1 7,1 7,4 -0,3 -4,4 -7,4 -7,-0 -8,-1 -14,-3 l 0,8 c 4,1 10,2 14,2 8,0 17,-3 17,-11 z"/>
    <path d="m 4002,100 0,-21 c 0,-9 -4,-15 -14,-15 -4,0 -8,1 -11,4 l 0,-3 -9,0 0,36 9,0 0,-20 c 0,-6 4,-9 9,-9 5,0 7,3 7,8 l 0,21 9,0 z"/>
    <path d="m 4048,82 c 0,-9 -6,-19 -18,-19 -12,0 -18,8 -19,19 0,10 7,19 19,19 12,-0 18,-9 18,-19 z m -9,0 c -0,6 -3,11 -9,11 -7,-0 -9,-7 -9,-12 0,-6 3,-11 9,-11 6,0 9,5 9,11 z"/>
    <path d="m 4116,100 0,-21 c 0,-8 -3,-15 -13,-15 -5,0 -10,2 -13,6 -2,-4 -6,-6 -11,-6 -4,0 -8,2 -11,5 l 0,-4 -9,0 0,36 9,0 0,-20 c 0,-5 4,-9 9,-9 0,0 0,0 0,0 5,0 6,3 6,8 l 0,21 9,0 0,-20 c 0,-5 3,-9 9,-9 5,0 6,3 6,8 l 0,21 9,0 z"/>
    <path d="m 4126,44 0,54 c 4,2 10,2 16,2 12,0 20,-7 20-19 0,-11 -7,-19 -20,-19 -2,0 -5,0 -7,1 l 0,-19 -8,0 z m 8,26 c 2,-0 4,-1 6,-1 7,0 11,4 11,12 0,7 -3,12 -11,12 -3,0 -5,-0 -6,-1 l 0,-22 z"/>
    <path d="m 4193,74 3,-8 c -1,-1 -5,-2 -8,-2 -3,0 -5,1 -7,4 l 0,-3 -9,0 0,36 9,0 0,-23 c 0,-4 2,-6 5,-6 0,0 0,0 0,0 2,0 4,1 7,3 z"/>
    <path d="m 4235,83 0,-3 c 0,-10 -6,-17 -17,-17 -12,0 -18,9 -18,19 0,11 7,18 19,18 5,0 10,-1 15,-3 l 0,-7 c -6,3 -7,3 -15,3 -6,0 -10,-5 -10,-10 l 26,0 z m -9,-6 -17,0 c 1,-4 3,-7 8,-7 5,0 8,2 9,7 z"/>
    <path d="m 4278,100 0,-36 -9,0 0,20 c 0,5 -3,9 -9,9 -5,0 -7,-3 -7,-8 l 0,-21 -9,0 0,21 c 0,9 4,15 14,15 4,0 8,-2 10,-5 l 0,4 9,0 z"/>
    <path d="m 4318,89 c 0,-7 -6,-10 -13,-11 l -2,-0 c -3,-0 -7,-1 -7,-4 0,-3 4,-4 7,-4 6,0 6,0 12,3 l 0,-7 c -4,-1 -8,-2 -13,-2 -8,0 -16,3 -16,11 0,7 5,9 12,11 l 2,0 c 3,1 7,1 7,4 -0,3 -4,4 -7,4 -7,-0 -8,-1 -14,-3 l 0,8 c 4,1 10,2 14,2 8,0 17,-3 17,-11 z"/>
    <path d="m 4359,83 0,-3 c 0,-10 -6,-17 -17,-17 -12,0 -18,9 -18,19 0,11 7,18 19,18 5,0 10,-1 15,-3 l 0,-7 c -6,3 -7,3 -15,3 -6,0 -10,-5 -10,-10 z m -9,-6 -17,0 c 1,-4 3,-7 8,-7 5,0 8,2 9,7 z"/>
    <path d="m 4396,89 c 0,-7 -6,-10 -13,-11 l -2,-0 c -3,-0 -7,-1 -7,-4 0,-3 4,-4 7,-4 6,0 6,0 12,3 l 0,-7 c -4,-1 -8,-2 -13,-2 -8,0 -16,3 -16,11 0,7 5,9 12,11 l 2,0 c 3,1 7,1 7,4 -0,3 -4,4 -7,4 -7,-0 -8,-1 -14,-3 l 0,8 c 4,1 10,2 14,2 8,0 17,-3 17,-11 z"/>
    <use xlink:href="#d" transform="translate(-667,0)"/>
    <path d="m 3750,117 -10,0 -11,14 8,0 13,-14 z m 5,36 0,-3 c 0,-10 -6,-17 -17,-17 -12,0 -18,9 -18,19 0,11 7,18 19,18 5,0 10,-1 15,-3 l 0,-7 c -6,3 -7,3 -15,3 -6,0 -10,-5 -10,-10 l 26,0 z m -9,-6 -17,0 c 1,-4 3,-7 8,-7 5,0 8,2 9,7 z"/>
    <use xlink:href="#c" transform="translate(3148,0)"/>
    <path d="m 3837,153 0,-3 c 0,-10 -6,-17 -17,-17 -12,0 -18,9 -18,19 0,11 7,18 19,18 5,0 10,-1 15,-3 l 0,-7 c -6,3 -7,3 -15,3 -6,0 -10,-5 -10,-10 l 26,0 z m -9,-6 -17,0 c 1,-4 3,-7 8,-7 5,0 8,2 9,7 z"/>
    <path d="m 3880,170 0,-21 c 0,-9 -4,-15 -14,-15 -4,0 -8,1 -11,4 l 0,-3 -9,0 0,36 9,0 0,-20 c 0,-6 4,-9 9,-9 5,0 7,3 7,8 l 0,21 9,0 z"/>
    <path d="m 3925,170 0,-21 c 0,-9 -4,-15 -14,-15 -4,0 -8,1 -11,4 l 0,-3 -9,0 0,36 9,0 0,-20 c 0,-6 4,-9 9,-9 5,0 7,3 7,8 l 0,21 9,0 z"/>
    <path d="m 3944,170 0,-36 -8,0 0,36 8,0 z m -4,-55 c -2,0 -4,2 -4,4 0,2 2,4 4,4 2,0 4,-2 4,-4 0,-2 -2,-4 -4,-4 z"/>
    <path d="m 3989,153 0,-3 c 0,-10 -6,-17 -17,-17 -12,0 -18,9 -18,19 0,11 7,18 19,18 5,0 10,-1 15,-3 l 0,-7 c -6,3 -7,3 -15,3 -6,0 -10,-5 -10,-10 l 26,0 z m -9,-6 -17,0 c 1,-4 3,-7 8,-7 5,0 8,2 9,7 z"/>
    <path d="m 4028,159 c 0,-7 -6,-10 -13,-11 l -2,-0 c -3,-0 -7,-1 -7,-4 0,-3 4,-4 7,-4 6,0 6,0 12,3 l 0,-7 c -4,-1 -8,-2 -13,-2 -8,0 -16,3 -16,11 0,7 5,9 12,11 l 2,0 c 3,1 7,1 7,4 -0,3 -4,4 -7,4 -7,-0 -8,-1 -14,-3 l 0,8 c 4,1 10,2 14,2 8,0 17,-3 17,-11 z"/>
    <path d="m 4063,189 8,0 0,-19 c 2,0 4,1 7,1 13,0 20,-7 20,-19 -0,-11 -7,-19 -20,-19 -5,0 -12,1 -16,2 l 0,54 z m 8,-26 0,-22 c 2,-0 3,-1 6,-1 7,0 11,4 11,12 0,7 -4,12 -11,12 -3,-0 -4,-0 -6,-1 z"/>
    <path d="m 4117,170 0,-55 -8,0 0,55 8,0 z"/>
    <path d="m 4162,170 0,-36 -9,0 0,20 c 0,5 -3,9 -9,9 -5,0 -7,-3 -7,-8 l 0,-21 -9,0 0,21 c 0,9 4,15 14,15 4,0 8,-2 10,-5 l 0,4 9,0 z"/>
    <path d="m 4203,159 c 0,-7 -6,-10 -13,-11 l -2,-0 c -3,-0 -7,-1 -7,-4 0,-3 4,-4 7,-4 6,0 6,0 12,3 l 0,-7 c -4,-1 -8,-2 -13,-2 -8,0 -16,3 -16,11 0,7 5,9 12,11 l 2,0 c 3,1 7,1 7,4 -0,3 -4,4 -7,4 -7,-0 -8,-1 -14,-3 l 0,8 c 4,1 10,2 14,2 8,0 17,-3 17,-11 z"/>
    <path d="m 4260,169 0,-7 c -2,1 -5,1 -7,1 -0,0 -0,0 -1,0 -4,0 -5,-1 -5,-5 l 0,-19 10,0 0,-6 -10,0 0,-10 -5,0 -3,10 -4,0 0,6 4,0 0,19 c 0,9 4,12 14,12 2,0 5,-0 7,-1 z"/>
    <path d="m 4305,163 c -1,1 -1,1 -3,1 -1,0 -2,-0 -2,-2 l 0,-15 c 0,-8 -6,-13 -16,-13 -4,0 -9,1 -13,4 l 0,7 c 4,-3 7,-4 13,-4 4,0 8,2 8,6 l 0,1 c -2,-0 -5,-1 -8,-1 -9,0 -16,4 -16,12 0,7 5,12 13,12 4,0 8,-1 11,-4 0,2 2,4 6,4 4,0 8,-5 8,-8 z m -14,-9 c 0,6 -2,10 -9,10 -3,0 -6,-1 -6,-5 0,-4 1,-5 7,-6 3,0 5,0 7,1 z"/>
    <path d="m 4334,144 3,-8 c -1,-1 -5,-2 -8,-2 -3,0 -5,1 -7,4 l 0,-3 -9,0 0,36 9,0 0,-23 c 0,-4 2,-6 5,-6 0,0 0,0 0,0 2,0 4,1 7,3 z"/>
    <path id="d" d="m 4376,114 -8,0 0,19 c -2,-0 -4,-1 -7,-1 -13,0 -20,7 -20,19 0,11 7,19 20,19 5,0 11,-1 16,-2 l 0,-54 z m -8,26 0,22 c -2,0 -3,1 -6,1 -7,-0 -11,-4 -11,-12 0,-7 4,-12 11,-12 3,0 4,0 6,1 z"/>
    <path d="m 4397,168 0,-6 -9,0 0,6 c 0,1 0,1 0,2 0,2 -1,5 -4,7 6,-0 13,-6 13,-10 z"/>
    <path d="m 3684,240 0,-55 -8,0 0,55 8,0 z"/>
    <path d="m 3729,223 0,-3 c 0,-10 -6,-17 -17,-17 -12,0 -18,9 -18,19 0,11 7,18 19,18 5,0 10,-1 15,-3 l 0,-7 c -6,3 -7,3 -15,3 -6,0 -10,-5 -10,-10 l 26,0 z m -9,-6 -17,0 c 1,-4 3,-7 8,-7 5,0 8,2 9,7 z"/>
    <path d="m 3768,229 c 0,-7 -6,-10 -13,-11 l -2,-0 c -3,-0 -7,-1 -7,-4 0,-3 4,-4 7,-4 6,0 6,0 12,3 l 0,-7 c -4,-1 -8,-2 -13,-2 -8,0 -16,3 -16,11 0,7 5,9 12,11 l 2,0 c 3,1 7,1 7,4 -0,3 -4,4 -7,4 -7,-0 -8,-1 -14,-3 l 0,8 c 4,1 10,2 14,2 8,0 17,-3 17,-11 z"/>
    <path d="m 3845,235 0,-9 c -5,5 -10,7 -17,7 -12,0 -17,-9 -17,-21 0,-12 4,-21 17,-21 7,0 12,2 17,7 l 0,-9 c -5,-3 -11,-5 -17,-5 -18,0 -27,13 -27,29 0,16 8,28 27,28 6,0 13,-2 17,-5 z"/>
    <path d="m 3889,222 c 0,-9 -6,-19 -18,-19 -12,0 -18,8 -19,19 0,10 7,19 19,19 12,-0 18,-9 18,-19 z m -9,0 c -0,6 -3,11 -9,11 -7,-0 -9,-7 -9,-12 0,-6 3,-11 9,-11 6,0 9,5 9,11 z"/>
    <path d="m 3932,240 0,-21 c 0,-9 -4,-15 -14,-15 -4,0 -8,1 -11,4 l 0,-3 -9,0 0,36 9,0 0,-20 c 0,-6 4,-9 9,-9 5,0 7,3 7,8 l 0,21 9,0 z"/>
    <use xlink:href="#c" transform="translate(3327,70)"/>
    <path d="m 4017,223 0,-3 c 0,-10 -6,-17 -17,-17 -12,0 -18,9 -18,19 0,11 7,18 19,18 5,0 10,-1 15,-3 l 0,-7 c -6,3 -7,3 -15,3 -6,0 -10,-5 -10,-10 l 26,0 z m -9,-6 -17,0 c 1,-4 3,-7 8,-7 5,0 8,2 9,7 z"/>
    <path d="m 4025,259 8,0 0,-19 c 2,0 4,1 7,1 13,0 20,-7 20,-19 -0,-11 -7,-19 -20,-19 -5,0 -12,1 -16,2 l 0,54 z m 8,-26 0,-22 c 2,-0 3,-1 6,-1 7,0 11,4 11,12 0,7 -4,12 -11,12 -3,-0 -4,-0 -6,-1 z"/>
    <path d="m 4093,239 0,-7 c -2,1 -5,1 -7,1 -0,0 -0,0 -1,0 -4,0 -5,-1 -5,-5 l 0,-19 10,0 0,-6 -10,0 0,-10 -5,0 -3,10 -4,0 0,6 4,0 0,19 c 0,9 4,12 14,12 2,0 5,-0 7,-1 z"/>
    <path d="m 4131,229 c 0,-7 -6,-10 -13,-11 l -2,-0 c -3,-0 -7,-1 -7,-4 0,-3 4,-4 7,-4 6,0 6,0 12,3 l 0,-7 c -4,-1 -8,-2 -13,-2 -8,0 -16,3 -16,11 0,7 5,9 12,11 l 2,0 c 3,1 7,1 7,4 -0,3 -4,4 -7,4 -7,-0 -8,-1 -14,-3 l 0,8 c 4,1 10,2 14,2 8,0 17,-3 17,-11 z"/>
    <path d="m 4195,229 c 0,-7 -6,-10 -13,-11 l -2,-0 c -3,-0 -7,-1 -7,-4 0,-3 4,-4 7,-4 6,0 6,0 12,3 l 0,-7 c -4,-1 -8,-2 -13,-2 -8,0 -16,3 -16,11 0,7 5,9 12,11 l 2,0 c 3,1 7,1 7,4 -0,3 -4,4 -7,4 -7,-0 -8,-1 -14,-3 l 0,8 c 4,1 10,2 14,2 8,0 17,-3 17,-11 z"/>
    <path d="m 4240,222 c 0,-9 -6,-19 -18,-19 -12,0 -18,8 -19,19 0,10 7,19 19,19 12,-0 18,-9 18,-19 z m -9,0 c -0,6 -3,11 -9,11 -7,-0 -9,-7 -9,-12 0,-6 3,-11 9,-11 6,0 9,5 9,11 z"/>
    <path d="m 4283,240 0,-21 c 0,-9 -4,-15 -14,-15 -4,0 -8,1 -11,4 l 0,-3 -9,0 0,36 9,0 0,-20 c 0,-6 4,-9 9,-9 5,0 7,3 7,8 l 0,21 9,0 z"/>
    <path d="m 4317,239 0,-7 c -2,1 -5,1 -7,1 -0,0 -0,0 -1,0 -4,0 -5,-1 -5,-5 l 0,-19 10,0 0,-6 -10,0 0,-10 -5,0 -3,10 -4,0 0,6 4,0 0,19 c 0,9 4,12 14,12 2,0 5,-0 7,-1 z"/>
    <path d="m 3709,293 0,-3 c 0,-10 -6,-17 -17,-17 -12,0 -18,9 -18,19 0,11 7,18 19,18 5,0 10,-1 15,-3 l 0,-7 c -6,3 -7,3 -15,3 -6,0 -10,-5 -10,-10 l 26,0 z m -9,-6 -17,0 c 1,-4 3,-7 8,-7 5,0 8,2 9,7 z"/>
    <path d="m 3753,310 0,-21 c 0,-9 -4,-15 -14,-15 -4,0 -8,1 -11,4 l 0,-3 -9,0 0,36 9,0 0,-20 c 0,-6 4,-9 9,-9 5,0 7,3 7,8 l 0,21 9,0 z"/>
    <path d="m 3797,310 0,-36 -23,0 0,-6 c 0,-3 1,-6 4,-6 l 5,0 0,-7 -6,0 c -10,0 -13,6 -13,14 0,0 0,0 0,1 l 0,4 -5,0 0,6 5,0 0,29 9,0 0,-29 14,0 0,29 9,0 z m -4,-55 c -2,0 -4,2 -4,4 0,2 2,4 4,4 2,0 4,-2 4,-4 0,-2 -2,-4 -4,-4 z"/>
    <path d="m 3843,310 0,-21 c 0,-9 -4,-15 -14,-15 -4,0 -8,1 -11,4 l 0,-3 -9,0 0,36 9,0 0,-20 c 0,-6 4,-9 9,-9 5,0 7,3 7,8 l 0,21 9,0 z"/>
    <path d="m 3888,310 0,-36 -8,0 0,36 8,0 z m -4,-55 c -2,0 -4,2 -4,4 0,2 2,4 4,4 2,0 4,-2 4,-4 0,-2 -2,-4 -4,-4 z"/>
    <path d="m 3933,310 0,-21 c 0,-9 -4,-15 -14,-15 -4,0 -8,1 -11,4 l 0,-3 -9,0 0,36 9,0 0,-20 c 0,-6 4,-9 9,-9 5,0 7,3 7,8 l 0,21 9,0 z"/>
    <path d="m 3967,309 0,-7 c -2,1 -5,1 -7,1 -0,0 -0,0 -1,0 -4,0 -5,-1 -5,-5 l 0,-19 10,0 0,-6 -10,0 0,-10 -5,0 -3,10 -4,0 0,6 4,0 0,19 c 0,9 4,12 14,12 2,0 5,-0 7,-1 z"/>
    <path d="m 4002,257 -10,0 -11,14 8,0 13,-14 z m 5,36 0,-3 c 0,-10 -6,-17 -17,-17 -12,0 -18,9 -18,19 0,11 7,18 19,18 5,0 10,-1 15,-3 l 0,-7 c -6,3 -7,3 -15,3 -6,0 -10,-5 -10,-10 l 26,0 z m -9,-6 -17,0 c 1,-4 3,-7 8,-7 5,0 8,2 9,7 z"/>
    <path d="m 4047,316 c 0,-8 -10,-13 -19,-13 -0,0 -1,0 -2,0 -2,0 -6,-2 -6,-3 0,-1 1,-1 2,-1 0,0 0,0 0,0 1,1 5,1 6,1 7,0 13,-6 13,-13 0,-2 -1,-5 -2,-7 l 5,0 0,-5 -10,0 c -1,-0 -4,-1 -5,-1 -7,0 -13,6 -14,13 0,3 1,6 3,8 -3,0 -5,2 -5,5 0,2 1,4 4,5 -4,2 -7,6 -7,10 0,6 7,13 17,13 10,0 19,-6 19,-13 z m -12,-29 c 0,3 -3,7 -6,7 -3,0 -6,-3 -6,-7 0,-4 3,-7 6,-7 3,0 6,3 6,7 z m 2,29 c 0,4 -4,6 -9,6 -5,0 -9,-2 -9,-6 0,-4 3,-6 9,-6 5,0 9,3 9,6 z"/>
    <path d="m 4075,284 3,-8 c -1,-1 -5,-2 -8,-2 -3,0 -5,1 -7,4 l 0,-3 -9,0 0,36 9,0 0,-23 c 0,-4 2,-6 5,-6 0,0 0,0 0,0 2,0 4,1 7,3 z"/>
    <path d="m 4112,257 -10,0 -11,14 8,0 13,-14 z m 5,36 0,-3 c 0,-10 -6,-17 -17,-17 -12,0 -18,9 -18,19 0,11 7,18 19,18 5,0 10,-1 15,-3 l 0,-7 c -6,3 -7,3 -15,3 -6,0 -10,-5 -10,-10 l 26,0 z m -9,-6 -17,0 c 1,-4 3,-7 8,-7 5,0 8,2 9,7 z"/>
    <path d="m 4156,299 c 0,-7 -6,-10 -13,-11 l -2,-0 c -3,-0 -7,-1 -7,-4 0,-3 4,-4 7,-4 6,0 6,0 12,3 l 0,-7 c -4,-1 -8,-2 -13,-2 -8,0 -16,3 -16,11 0,7 5,9 12,11 l 2,0 c 3,1 7,1 7,4 -0,3 -4,4 -7,4 -7,-0 -8,-1 -14,-3 l 0,8 c 4,1 10,2 14,2 8,0 17,-3 17,-11 z"/>
    <path d="m 3711,373 c -1,1 -1,1 -3,1 -1,0 -2,-0 -2,-2 l 0,-15 c 0,-8 -6,-13 -16,-13 -4,0 -9,1 -13,4 l 0,7 c 4,-3 7,-4 13,-4 4,0 8,2 8,6 l 0,1 c -2,-0 -5,-1 -8,-1 -9,0 -16,4 -16,12 0,7 5,12 13,12 4,0 8,-1 11,-4 0,2 2,4 6,4 4,0 8,-5 8,-8 z m -14,-9 c 0,6 -2,10 -9,10 -3,0 -6,-1 -6,-5 0,-4 1,-5 7,-6 3,0 5,0 7,1 z"/>
    <path d="m 3753,380 0,-36 -9,0 0,20 c 0,5 -3,9 -9,9 -5,0 -7,-3 -7,-8 l 0,-21 -9,0 0,21 c 0,9 4,15 14,15 4,0 8,-2 10,-5 l 0,4 9,0 z"/>
    <path d="m 3820,369 c 0,-7 -6,-10 -13,-11 l -2,-0 c -3,-0 -7,-1 -7,-4 0,-3 4,-4 7,-4 6,0 6,0 12,3 l 0,-7 c -4,-1 -8,-2 -13,-2 -8,0 -16,3 -16,11 0,7 5,9 12,11 l 2,0 c 3,1 7,1 7,4 -0,3 -4,4 -7,4 -7,-0 -8,-1 -14,-3 l 0,8 c 4,1 10,2 14,2 8,0 17,-3 17,-11 z"/>
    <path d="m 3852,379 0,-7 c -2,1 -5,1 -7,1 -0,0 -0,0 -1,0 -4,0 -5,-1 -5,-5 l 0,-19 10,0 0,-6 -10,0 0,-10 -5,0 -3,10 -4,0 0,6 4,0 0,19 c 0,9 4,12 14,12 2,0 5,-0 7,-1 z"/>
    <path d="m 3896,373 c -1,1 -1,1 -3,1 -1,0 -2,-0 -2,-2 l 0,-15 c 0,-8 -6,-13 -16,-13 -4,0 -9,1 -13,4 l 0,7 c 4,-3 7,-4 13,-4 4,0 8,2 8,6 l 0,1 c -2,-0 -5,-1 -8,-1 -9,0 -16,4 -16,12 0,7 5,12 13,12 4,0 8,-1 11,-4 0,2 2,4 6,4 4,0 8,-5 8,-8 z m -14,-9 c 0,6 -2,10 -9,10 -3,0 -6,-1 -6,-5 0,-4 1,-5 7,-6 3,0 5,0 7,1 z"/>
    <path d="m 3938,380 0,-21 c 0,-9 -4,-15 -14,-15 -4,0 -8,1 -11,4 l 0,-3 -9,0 0,36 9,0 0,-20 c 0,-6 4,-9 9,-9 5,0 7,3 7,8 l 0,21 9,0 z"/>
    <use xlink:href="#d" transform="translate(-393,210)"/>
    <path d="m 4030,373 c -1,1 -1,1 -3,1 -1,0 -2,-0 -2,-2 l 0,-15 c 0,-8 -6,-13 -16,-13 -4,0 -9,1 -13,4 l 0,7 c 4,-3 7,-4 13,-4 4,0 8,2 8,6 l 0,1 c -2,-0 -5,-1 -8,-1 -9,0 -16,4 -16,12 0,7 5,12 13,12 4,0 8,-1 11,-4 0,2 2,4 6,4 4,0 8,-5 8,-8 z m -14,-9 c 0,6 -2,10 -9,10 -3,0 -6,-1 -6,-5 0,-4 1,-5 7,-6 3,0 5,0 7,1 z"/>
    <path d="m 4059,354 3,-8 c -1,-1 -5,-2 -8,-2 -3,0 -5,1 -7,4 l 0,-3 -9,0 0,36 9,0 0,-23 c 0,-4 2,-6 5,-6 0,0 0,0 0,0 2,0 4,1 7,3 z"/>
    <use xlink:href="#d" transform="translate(-275,210)"/>
  </g>
  <g id="Cpp99">
    <path d="m 3776,952 c -3,6 -7,-5 -11,-1 -7,2 -15,6 -16,14 -1,7 -2,14 -0,21 2,5 8,9 13,6 7,-3 12,-9 16,-15 6,-4 4,6 1,8 -5,8 -14,17 -25,14 -7,-2 -13,-9 -12,-17 0,-8 -1,-17 2,-25 5,-8 14,-13 23,-13 4,0 9,3 9,7 z"/>
    <path d="m 3794,945 c 2,1 2,4 0,6 -1,2 -3,5 -3,8 -0,2 -1,5 -3,5 -2,0 -4,-2 -3,-5 1,-1 1,-3 1,-5 0,-2 0,-5 2,-7 1,-2 3,-4 6,-2 z"/>
    <path d="m 3821,971 c -3,-4 -8,-6 -13,-5 -4,1 -8,5 -9,9 7,0 14,-1 21,-3 0,-0 1,-0 1,-1 z m 9,11 c 3,4 -3,9 -6,12 -7,5 -17,7 -24,2 -8,-5 -10,-17 -6,-25 4,-5 10,-12 17,-10 5,-0 11,2 14,7 4,5 -1,10 -7,10 -7,1 -14,2 -20,2 -2,5 3,10 7,12 7,3 14,-1 18,-6 2,-1 4,-4 6,-5 z"/>
    <path d="m 3835,994 c 0,-5 5,-1 6,1 4,3 10,3 12,-1 4,-5 -2,-8 -6,-9 -5,-1 -10,-3 -13,-8 -1,-5 3,-9 6,-12 4,-3 10,-3 15,-3 3,1 7,5 5,8 -3,1 -5,-4 -9,-3 -5,1 -9,3 -12,7 1,4 8,5 12,6 4,1 9,4 9,9 0,7 -6,15 -14,13 -4,-0 -10,-1 -11,-7 l -0,-1 -0,-1 0,10e-6 z"/>
    <path d="m 3876,963 c -4,0 -8,1 -12,1 -4,-1 -1,-5 2,-5 3,-1 7,-1 10,-2 1,-2 0,-5 0,-7 -0,-4 -1,-7 -0,-11 0,-2 4,-3 5,-1 1,6 1,12 2,18 4,-0 7,-2 11,-0 3,1 0,5 -2,5 -3,1 -6,1 -9,2 0,11 1,21 3,32 0,3 1,5 1,8 -1,2 -5,2 -7,-0 -2,-4 -1,-8 -1,-13 -1,-8 -2,-17 -3,-26 z"/>
    <path d="m 3921,969 c 0,-1 1,-2 3,-3 1,-1 1,-1 1,-3 0,-1 1,-3 1,-4 1,-1 3,-1 4,0 0,1 2,1 3,1 4,-1 7,-2 11,-2 3,-0 6,0 9,1 2,1 5,2 6,5 1,3 0,7 -0,10 -1,4 -3,7 -5,11 -3,5 -7,9 -13,10 -2,0 -5,0 -7,0 -0,-0 -1,-0 -0,0 1,5 2,10 3,15 0,1 0,3 -1,4 -1,1 -3,1 -4,0 -1,-0 -2,-2 -2,-4 -2,-7 -3,-14 -4,-22 -0,-5 -1,-10 -1,-16 -0,-1 -0,-2 -1,-2 -1,0 -3,-0 -3,-1 -0,-0 -0,-0 -0,-0 z m 32,-4 c -1,-0 -3,-0 -5,-0 -4,0 -8,0 -13,2 -1,0 -2,0 -3,1 0,6 0,12 1,18 0,1 0,2 1,3 1,0 2,0 4,1 1,0 2,0 3,0 2,-1 4,-3 6,-5 3,-3 5,-7 6,-11 1,-2 1,-5 -0,-7 -0,-0 -1,-1 -1,-2 z"/>
    <path d="m 3984,991 c 0,-2 4,-3 4,-5 -2,-2 -5,-2 -7,-2 -4,-0 -8,1 -10,5 -2,3 0,5 3,5 3,-0 6,-1 9,-3 z m 12,4 c 0,2 -3,5 -5,2 -1,-1 -1,-5 -2,-6 -3,3 -8,6 -12,7 -3,0 -7,-0 -10,-2 -2,-2 -2,-6 -2,-9 1,-4 5,-7 9,-8 4,-1 9,-3 13,-1 1,1 4,3 3,0 -0,-4 -0,-8 -2,-11 -1,-3 -5,-2 -7,-1 -4,1 -8,3 -13,4 -3,1 -3,-4 -0,-5 4,-2 8,-3 12,-4 4,-1 9,-2 12,1 3,3 4,7 4,11 0,7 0,14 1,21 z"/>
    <path d="m 4002,994 c 1,-6 5,-1 7,1 3,3 9,2 11,-2 4,-4 -1,-8 -5,-8 -4,-2 -9,-2 -13,-6 -4,-3 -0,-9 2,-12 3,-4 8,-5 14,-5 3,-0 6,-0 8,2 3,2 2,8 -2,5 -3,-4 -8,-2 -12,-0 -4,1 -10,7 -2,9 5,2 12,3 16,7 3,6 -1,15 -8,17 -4,0 -9,-0 -13,-2 -2,-1 -3,-4 -3,-6 z"/>
    <path d="m 4068,963 c -4,0 -8,1 -12,1 -4,-1 -1,-5 2,-5 3,-1 7,-1 10,-2 1,-2 0,-5 0,-7 -0,-4 -1,-7 -0,-11 0,-2 4,-3 5,-1 1,6 1,12 2,18 4,-0 7,-2 11,-0 3,1 0,5 -2,5 -3,1 -6,1 -9,2 0,11 1,21 3,32 0,3 1,5 1,8 -1,2 -5,2 -7,-0 -2,-4 -1,-8 -1,-13 -1,-8 -2,-17 -3,-26 z"/>
    <path d="m 4117,965 c 5,-0 4,5 -0,6 -6,3 -10,9 -13,16 -2,4 -1,10 -4,14 -5,2 -5,-5 -5,-9 -1,-9 -2,-18 -1,-27 0,-5 7,-3 5,2 0,4 1,8 2,12 3,-6 9,-11 16,-13 l 1,-0 1,-0 0,0 z"/>
    <path d="m 4128,967 c 5,-5 12,-8 19,-8 5,-0 13,1 14,7 2,10 -1,21 -8,28 -7,6 -19,8 -26,2 -4,-4 -7,-9 -6,-15 0,-5 3,-10 7,-14 z m 12,27 c 7,-0 11,-8 14,-14 1,-5 4,-14 -4,-14 -5,0 -10,-0 -14,3 -5,4 -10,9 -8,16 1,6 7,9 12,9 z"/>
    <path d="m 4166,969 c 0,-3 4,-3 4,-6 0,-2 2,-6 5,-4 1,2 4,1 6,1 6,-1 13,-2 19,0 4,1 6,5 6,9 -0,6 -3,12 -6,17 -3,6 -10,10 -17,10 -1,-0 -2,-0 -4,-0 1,6 3,11 3,17 0,3 -3,4 -5,2 -2,-1 -2,-4 -2,-6 -3,-11 -3,-23 -5,-35 0,-3 -4,-1 -4,-4 z m 32,-4 c -3,-1 -7,-0 -10,-0 -3,0 -7,1 -10,2 0,7 0,14 2,20 1,1 3,1 5,2 3,0 6,-2 8,-5 4,-4 7,-9 7,-15 0,-2 -0,-4 -2,-6 z"/>
    <path d="m 4243,963 c -4,0 -8,1 -12,1 -4,-1 -1,-5 2,-5 3,-1 7,-1 10,-2 1,-2 0,-5 0,-7 -0,-4 -1,-7 -0,-11 0,-2 4,-3 5,-1 1,6 1,12 2,18 4,-0 7,-2 11,-0 3,1 0,5 -2,5 -3,1 -6,1 -9,2 0,11 1,21 3,32 0,3 1,5 1,8 -1,2 -5,2 -7,-0 -2,-4 -1,-8 -1,-13 -1,-8 -2,-17 -3,-26 z"/>
    <path d="m 4295,957 c -3,-0 -4,-3 -7,-5 -1,-1 -4,-6 -5,-2 -2,2 -3,6 -6,8 -2,1 -5,-1 -3,-3 1,-2 3,-4 4,-6 1,-2 3,-5 5,-6 3,-0 4,3 6,4 2,2 5,5 7,8 0,1 -0,3 -2,3 z m -26,11 c 4,-3 9,-7 15,-8 5,-0 10,-1 14,1 4,2 5,7 5,11 -0,7 -3,14 -7,20 -5,7 -16,9 -24,6 -4,-2 -7,-5 -9,-9 -1,-4 -1,-8 -0,-12 1,-4 3,-7 6,-10 z m 12,27 c 5,-0 9,-4 11,-8 3,-5 4,-11 4,-16 -1,-2 -4,-3 -7,-3 -4,1 -8,0 -12,3 -3,3 -7,6 -9,10 -1,5 0,11 5,13 2,1 5,2 7,2 z"/>
    <path d="m 4320,961 c -4,0 -8,1 -12,1 -4,-1 -1,-5 2,-5 3,-1 7,-1 10,-2 1,-2 0,-5 0,-7 -0,-4 -1,-7 -0,-11 0,-2 4,-3 5,-1 1,6 1,12 2,18 4,-0 7,-2 11,-0 3,1 0,5 -2,5 -3,1 -6,1 -9,2 0,11 1,21 3,32 0,3 1,5 1,8 -1,2 -5,2 -7,-0 -2,-4 -1,-8 -1,-13 -1,-8 -2,-17 -3,-26 z"/>
    <path d="m 4367,934 c -4,-6 10,-5 10,-2 -3,17 -2,35 -4,52 -5,5 -4,-6 -4,-9 -0,-13 -1,-27 -1,-40 z m 1,66 c -8,-2 2,-14 7,-7 1,4 -2,10 -7,7 z"/>
  </g>
</g>

<use id="tete2003" xlink:href="#tete2011" transform="translate(-936,0)"/>
<g transform="translate(-411,-217)">
  <g id="cheuveux2003" style="stroke-width:2">
    <path d="m 729,513 c -41,8 -77,31 -93,67"/>
    <path d="m 764,488 c -21,-2 -70,6 -82,18"/>
    <path d="m 685,569 c -40,17 -66,47 -75,87"/>
    <path d="m 649,649 c -21,62 -40,94 -94,135"/>
    <path d="m 636,711 c -15,63 -40,98 -88,130"/>
    <path d="M 677,579 C 639,625 615,692 566,719"/>
    <path d="m 661,614 c -28,44 -48,94 -97,133"/>
  </g>
  <use xlink:href="#cheuveux2003" transform="matrix(-1,0,0,1,1660,0)"/>
</g>
<g id="yeux_2003" transform="translate(114,229)">
  <circle cx="217" cy="291" r="13"/>
  <circle cx="393" cy="291" r="13"/>
</g>
<path id="bouche_2003" d="m 369,693 c 10,15 10,17 20,22 10,5 20,8 30,8 10,0 20,-3 30,-8 10,-5 20,-13 20,-22 l -100,0 z"/>

<g id="tete2011" transform="translate(-473,-217)">
  <use xlink:href="#tete2014" transform="translate(-471,217)"/>
  <g id="cheuveux2011">
    <path d="m 1630,750 c -20,54 -40,92 -90,120"/>
    <path d="m 1640,664 c -20,64 -50,106 -100,150"/>
    <path d="m 1668,592 c -30,40 -50,104 -100,136"/>
    <path d="m 1740,503 c -40,2 -60,8 -90,40"/>
  </g>
  <use xlink:href="#cheuveux2011" transform="matrix(-1,0,0,1,3660,0)"/>
</g>
<g id="yeux_2011" transform="translate(53,232)">
  <circle cx="1200" cy="280" r="16"/>
  <circle cx="1400" cy="280" r="16"/>
</g>
<ellipse id="bouche_2011" cx="1355" cy="708" rx="36" ry="28"/>

<g id="tete2014" transform="translate(-524,-207)">
  <use xlink:href="#tete2017" transform="translate(-407,207)"/>
  <g id="cheuveux2014">
    <path d="m 2700,522 c 0,0 -40,-7 -60,46 -10,52 -20,65 -80,132"/>
    <path d="m 2620,762 c -20,54 -40,92 -90,120"/>
  </g>
  <use transform="matrix(-1,0,0,1,5640,0)" id="use4384" xlink:href="#cheuveux2014"/>
</g>
<rect id="bouche_2014" transform="matrix(0.967,-0.254,0.285,0.958,0,0)" x="2845" y="1515" height="19" width="108"/>
<g id="yeux_sceptiques" transform="translate(-740,233)">
  <path id="oeuil_sceptique" d="m 3850,278 c 20,-6 50,2 60,18 -10,9 -40,-1 -60,-18 z"/>
  <use xlink:href="#oeuil_sceptique" transform="matrix(-1,0,0,1,7940,0)"/>
</g>

<g id="tete2017" transform="translate(-280,-217)">
  <ellipse id="crane" style="stroke-width:7" ry="300" rx="200" cy="771" cx="3510"/>
  <g style="stroke-width:4" transform="translate(3230,441)">
    <path d="m 114,257 c 17,-47 89,-49 123,-30 51,32 -16,116 -60,114 -34,2 -72,-42 -63,-84 z"/>
    <g transform="matrix(-1,0,0,1,559,0)">
      <path d="m 114,257 c 17,-47 89,-49 123,-30 51,32 -16,116 -60,114 -34,2 -72,-42 -63,-84 z"/>
    </g>
    <path d="m 221,220 116,1"/>
    <path d="m 254,248 50,0"/>
  </g>
  <g id="narines">
    <circle cx="3490" cy="825" r="5"/>
    <circle cx="3530" cy="825" r="5"/>
  </g>
  <g id="cheuveux2017">
    <path d="m 3340,611 c -20,63 -50,109 -100,150"/>
    <path d="m 3320,681 c -20,58 -40,103 -90,140"/>
    <path d="m 3310,741 c -20,51 -40,94 -90,120"/>
  </g>
  <use xlink:href="#cheuveux2017" transform="matrix(-1,0,0,1,7020,0)"/>
</g>
<g id="yeux_2017" transform="translate(-302,223)">
  <path id="oeuil_colere" d="m 2490,293 c 20,-13 50,-14 60,0 -10,12 -40,12 -60,0 z"/>
  <use xlink:href="#oeuil_colere" transform="matrix(-1,0,0,1,5200,0)"/>
</g>
<use xlink:href="#bouche_2003" transform="matrix(1,0,0,-1,1880,1430)"/>

<path id="RIP" d="m 4190,600 0,-49 c 0,-60 20,-147 90,-147 60,0 90,107 90,177 l 0,60 z m 0,0 -420,177 190,50 410,-186 z" style="stroke-width:6px;stroke-linejoin:round"/>

</svg>
