<?xml version="1.0" encoding="UTF-8" standalone="no"?>
<!-- Created with Inkscape (http://www.inkscape.org/) -->
<!-- Cleaned Inkscape's tags by hand -->

<svg version="1.0" xmlns="http://www.w3.org/2000/svg" xmlns:xlink="http://www.w3.org/1999/xlink"
 width="5570" height="1075" viewBox="0 0 5570 1075" preserveAspectRatio="xMidYMid meet">

  <title>Bjarne Stroustrup est impatient que les Concepts soient intégrés au standard C++</title>

  <metadata    xmlns:rdf="http://www.w3.org/1999/02/22-rdf-syntax-ns#">
    <rdf:RDF   xmlns:cc="http://creativecommons.org/ns#">
      <cc:Work xmlns:dc="http://purl.org/dc/elements/1.1/" rdf:about="https://github.com/cpp-frug/materials/blob/gh-pages/images/cpp-concepts-bjarne.svg" >
        <dc:format>image/svg+xml</dc:format>
        <dc:type rdf:resource="http://purl.org/dc/dcmitype/StillImage" />
        <dc:creator>
          <cc:Agent>
            <dc:title>Oliver H</dc:title>
          </cc:Agent>
        </dc:creator>
        <dc:language>fr</dc:language>
        <dc:date>2016</dc:date>
        <cc:license  rdf:resource="http://creativecommons.org/licenses/by/3.0/" />
      </cc:Work>
      <cc:License    rdf:about="http://creativecommons.org/licenses/by/3.0/">
        <cc:permits  rdf:resource="http://creativecommons.org/ns#Reproduction" />
        <cc:permits  rdf:resource="http://creativecommons.org/ns#Distribution" />
        <cc:requires rdf:resource="http://creativecommons.org/ns#Notice" />
        <cc:requires rdf:resource="http://creativecommons.org/ns#Attribution" />
        <cc:permits  rdf:resource="http://creativecommons.org/ns#DerivativeWorks" />
      </cc:License>
    </rdf:RDF>
  </metadata>

  <rect style="opacity:0.24;fill:#fff;stroke:none" width="6465" height="1075" x="0" y="0"/>

  <g transform="translate(735,439)" style="fill:none;stroke:#000">
    <g id="vignette1" >
      <text style="font-size:88px;font-family:'Gillius ADF No2';text-anchor:middle;fill:#000" x="22" y="-370">2003</text>
      <text style="font-size:66px;font-family:Purisa;text-anchor:middle;fill:#000"><tspan y="-210" x="-430">Je propose</tspan><tspan y="-144" x="-445">les <tspan style="font-weight:bold">Concepts</tspan></tspan><tspan y="-77" x="-445">pour améliorer</tspan><tspan y="-10" x="-466">le langage que</tspan><tspan y="55" x="-475">j'ai créé.</tspan></text>
      <text style="font-size:66px;font-family:Purisa;fill:#000"><tspan y="-207" x="-149">Quoi ! Pas pour C++03 ?</tspan><tspan y="-140" x="-149">Okey, C++03 n'est</tspan><tspan y="-73" x="-149">qu'une version mineure...</tspan></text>
      <g id="tete" transform="translate(-278,0)">
        <ellipse ry="300" rx="200" cy="330" cx="300" style="stroke-width:6"/>
        <g id="cheuveux" style="stroke-width:2">
          <path d="m 130,170 c 0,0 -20,70 -41,90 -19,30 -59,60 -59,60"/>
          <path d="m 110,240 c 0,0 -19,60 -33,80 -14,30 -58,60 -58,60"/>
          <path d="m 100,300 c 0,0 -16,50 -34,70 -17,30 -56,50 -56,50"/>
          <path d="m 180,92 c 0,0 -40,18 -50,38 -10,20 -10,40 -20,60 -20,40 -45,60 -75,90"/>
        </g>
        <use transform="matrix(-1,0,0,1,600,0)" xlink:href="#cheuveux" y="0" x="0" />
        <g id="lunettes" style="stroke-width:3" transform="translate(20,0)">
          <g id="droite">
            <path d="m 114,257 c 17,-47 89,-49 123,-30 51,32 -16,116 -60,114 -34,2 -72,-42 -63,-84 z"/>
          </g>
          <use xlink:href="#droite" transform="matrix(-1,0,0,1,559,0)" />
          <path d="m 221,220 116,1" id="path4539" />
          <path d="m 254,248 50,0" id="path4541" />
        </g>
        <g id="narines" transform="translate(27,0)">
          <circle cx="251" cy="384" r="5" />
          <circle cx="295" cy="384" r="5" />
        </g>
      </g>
      <g id="autres_cheveux" style="stroke-width:3" transform="translate(-278,0)">
        <g id="autres_cheveux_droite">
          <path d="m 189,81 c -21,3 -41,12 -57,26 -13,11 -24,25 -31,41"/>
          <path d="M 207,64 C 187,65 167,70 150,80 138,86 128,95 119,105"/>
          <path d="m 147,137 c -18,7 -35,19 -47,34 -13,15 -21,34 -25,53"/>
          <path d="m 114,217 c 0,0 -21,70 -43,90 -19,30 -59,60 -59,60"/>
          <path d="m 104,269 c 0,0 -19,60 -33,80 -14,30 -58,60 -58,60"/>
          <path d="m 100,315 c 0,0 -16,50 -34,70 -17,30 -56,50 -56,50"/>
          <path d="m 132,166 c 0,0 -16,50 -34,70 -17,30 -56,50 -56,50"/>
        </g>
        <use transform="matrix(-1,0,0,1,600,0)" xlink:href="#autres_cheveux_droite" y="0" x="0" />
      </g>
      <path id="bouche" d="m -28,470 c 5,9 12,17 21,22 9,5 19,8 29,8 10,0 20,-3 29,-8 8,-5 16,-13 21,-22 l -100,0 z" />
      <g id="yeux1" transform="translate(-283,2)">
        <circle r="13" cx="217" cy="291"/>
        <circle r="13" cx="393" cy="291"/>
      </g>
    </g>

    <g id="vignette2" transform="translate(-180,0)">
      <text style="font-size:88px;font-family:'Gillius ADF No2';text-anchor:middle;fill:#000" x="1530" y="-370">2011</text>
      <text style="font-size:66px;font-family:Purisa;fill:#000"><tspan x="1065" y="-207">Quoi ! Pas pour C++11 ?</tspan><tspan x="1065" y="-140">Bon Okey, c'est bien car</tspan><tspan x="1065" y="-73">on tarde à figer C++11.</tspan></text>
      <use xlink:href="#tete" id="use4339" transform="translate(1510,0)" />
      <g style="stroke-width:2" transform="translate(172,0)">
        <path d="m 1270,64 c -20,-0 -40,5 -60,15 -10,6 -20,15 -30,25"/>
        <path d="m 1450,64 c  20,-0  40,5  60,15  10,6  20,15  30,25"/>
        <path d="m 1190,174 c 0,0 -10,45 -30,70 -20,25 -60,50 -60,50"/>
        <path d="m 1530,174 c 0,0  10,45  30,70  20,25  60,50  60,50"/>
        <path d="m 1170,225 c 0,0 -20,65 -40,90 -20,25 -60,60 -60,60"/>
        <path d="m 1550,225 c 0,0  20,65  40,90  20,25  60,60  60,60"/>
        <path d="m 1160,277 c 0,0 -10,54 -30,80 -10,26 -60,60 -60,60"/>
        <path d="m 1560,277 c 0,0  20,55  30,80  10,25  60,60  60,60"/>
        <path d="m 1160,323 c 0,0 -10,45 -30,70 -10,25 -60,50 -60,50"/>
        <path d="m 1560,323 c 0,0  20,45  30,70  20,25  60,50  60,50"/>
      </g>
      <g id="yeux_grands" transform="translate(229,0)">
        <circle r="16" cx="1200" cy="280" />
        <circle r="16" cx="1400" cy="280" />
      </g>
      <ellipse id="bouche_grande" cx="1530" cy="480" rx="36" ry="28" />
    </g>

    <g id="vignette3" transform="translate(-340,0)">
      <text style="font-size:88px;fill:#000;font-family:'Gillius ADF No2';text-anchor:middle" x="2718" y="-370">2014</text>
      <text style="font-size:66px;fill:#000;font-family:Purisa" x="2261" y="-207"><tspan x="2261" y="-207">Quoi ! Pas pour C++14 ?</tspan><tspan x="2261" y="-140">Bon Okey, ce n'est</tspan><tspan x="2261" y="-73">qu'une version mineure.</tspan></text>
      <use xlink:href="#tete" id="use4980" transform="translate(2700,0)" />
      <g id="g4412" style="stroke-width:2" transform="translate(121,0)">
        <path d="m 2400,323 c 0,0 -10,45 -30,70 -10,25 -60,50 -60,50"/>
        <path d="m 2800,323 c 0,0  20,45  30,70  20,25  60,50  60,50"/>
        <path d="m 2430,174 c 0,0 -10,45 -30,70 -20,25 -60,50 -60,50"/>
        <path d="m 2770,174 c 0,0  10,45  30,70  20,25  60,50  60,50"/>
      </g>
      <g id="yeux_colere" transform="translate(120,1)">
        <path id="oeuil_colere" d="m 2490,293 c 20,-13 50,-14 60,0 -10,12 -40,12 -60,0 z"/>
        <use transform="matrix(-1,0,0,1,5200,0)" xlink:href="#oeuil_colere" y="0" x="0" />
      </g>
      <rect id="bouche_travers" width="115" height="23" x="2420" y="1150" transform="matrix(0.967,-0.254,0.285,0.958,0,0)" />
    </g>

    <g id="vignette4" transform="translate(-600,0)">
      <text style="font-size:88px;fill:#000;font-family:'Gillius ADF No2';text-anchor:middle" x="4059" y="-370">2017</text>
      <text style="font-size:66px;fill:#000;font-family:Purisa"><tspan x="3589" y="-207">Quoi ! Pas pour C++17 ?</tspan><tspan x="3589" y="-140">Bon Okey, mais on arrête</tspan><tspan x="3589" y="-73">les versions mineures.</tspan></text>
      <use xlink:href="#use4980" transform="translate(1340,0)" />
      <g id="yeux_sceptiques" transform="translate(90,0)">
        <path id="oeuil_sceptique" d="m 3850,278 c 20,-6 50,2 60,18 -10,9 -40,-1 -60,-18 z"/>
        <use transform="matrix(-1,0,0,1,7940,0)" xlink:href="#oeuil_sceptique" y="0" x="0" />
      </g>
      <use xlink:href="#bouche" transform="matrix(1,0,0,-1,4040,970)" />
    </g>

    <g id="vignette5" transform="translate(-900,0)">
      <text style="font-size:88px;fill:#000;font-family:'Gillius ADF No2'"><tspan x="4926" y="-370">De très nombreuses</tspan><tspan x="4926" y="-288">décennies et versions</tspan><tspan x="4926" y="-200">C++ plus tard...</tspan><tspan x="4926" y="-111">... les <tspan style="font-weight:bold">Concepts</tspan> sont</tspan><tspan x="4926" y="-22">enfin intégrés au</tspan><tspan x="4926" y="66">standard.</tspan></text>
      <text style="font-size:66px;fill:#000;font-family:Purisa"><tspan x="4935" y="605">C'est pas trop tôt <tspan style="font-weight:bold">!</tspan></tspan></text>
      <path style="stroke-width:5px" d="m 5450,283 0,-49 c 0,-60 20,-147 90,-147 60,0 90,107 90,177 l 0,60 z m 0,0 -420,179 190,51 410,-189 z" />
    </g>
  </g>
</svg>
