<?xml version="1.0" encoding="UTF-8"?>
<svg version="1.1" width="20em" viewBox="0 40 752.701 1040"
     xmlns="http://www.w3.org/2000/svg" xmlns:xlink="http://www.w3.org/1999/xlink">
<metadata xmlns:rdf="http://www.w3.org/1999/02/22-rdf-syntax-ns#" >
 <rdf:RDF xmlns:cc="http://creativecommons.org/ns#" xmlns:dc="http://purl.org/dc/elements/1.1/">
  <dc:source>https://github.com/cpp-frug/materials/blob/gh-pages/images/cpp-concepts-bjarne-path.2011.svg</dc:source>
  <cc:Work rdf:about="https://github.com/cpp-frug/materials/blob/gh-pages/images/cpp-concepts-bjarne-path.2011.svg">
   <dc:format>image/svg+xml</dc:format>
   <dc:type rdf:resource="http://purl.org/dc/dcmitype/StillImage"/>
   <dc:creator>Oliver H</dc:creator>
   <dc:language>fr</dc:language>
   <dc:date>2017</dc:date>
   <cc:license rdf:resource="http://creativecommons.org/licenses/by-sa/3.0/"/>
  </cc:Work>
  <dc:rights>CC BY-SA 3.0</dc:rights>
   <cc:License rdf:about="http://creativecommons.org/licenses/by-sa/3.0/">
    <cc:permits rdf:resource="http://creativecommons.org/ns#Reproduction"/>
    <cc:permits rdf:resource="http://creativecommons.org/ns#Distribution"/>
    <cc:permits rdf:resource="http://creativecommons.org/ns#DerivativeWorks"/>
    <cc:requires rdf:resource="http://creativecommons.org/ns#Notice"/>
    <cc:requires rdf:resource="http://creativecommons.org/ns#Attribution"/>
    <cc:requires rdf:resource="http://creativecommons.org/ns#ShareAlike"/>
   </cc:License>
 </rdf:RDF>
</metadata>
<g id="texte" fill="#000" stroke="#fff">
 <path d="m347.4 97v-7h-24l18-19c3-4 6-8 6-14 0-10-8-16-19-16-5 0-10 2-16 4v9c5-3 10-5 16-5 5 0 9 3 9 9 0 4-3 9-6 11-1 1-18 19-20 21v7h35z"/>
 <path d="m393.4 69c0-11-3-29-19-29s-19 17-19 29c0 11 3 28 19 28s19-17 19-28zm-9 0c0 7 0 21-10 21-9 0-10-14-10-21s0-21 10-21c9 0 10 15 10 21z"/>
 <path d="m416.4 97v-55h-8l-8 7v8l8-6v47h8z"/>
 <path d="m441.4 97v-55h-8l-8 7v8l8-6v47h8z"/>
 <path d="m4.26 889c4-7 11-12 18-14 4-1 9-2 14-1 3 1 5 5 7 8 2 6 1 13 0 19-1 4-2 9-4 13 4 3 8 6 11 11 2 3-2 4-4 2-3-1-5-4-9-6-1 0-2-2-2-1-4 8-14 12-23 9-4-1-7-4-8-7-3-5-5-12-4-18 0-5 2-11 4-16zm15 18c0-2 3-4 5-2 3 1 6 3 9 5 2-5 3-10 5-15 0-3 1-6-1-8s-4-4-8-4h-10c-4 2-7 5-9 9-1 2-2 5-2 8-1 6-2 12 0 18 1 3 3 7 7 8 5 1 10-1 14-5 2-2-2-4-3-6-2-2-5-3-7-6z"/>
 <path d="m56.26 891c6 1 2 9 3 13 0 7 0 14 2 20 4 2 8-4 11-7 5-7 8-15 9-23 0-6 8-5 6 1-1 8-3 17 0 25 1 3 4 12-2 10-3-3-3-11-5-12-4 6-8 12-15 14-6 1-9-4-9-10-1-9-2-18-1-28 0-1 1-3 2-3z"/>
 <path d="m100.3 897c6-6 14-9 22-8 7 0 13 5 12 13 0 9-3 18-10 24-8 6-23 5-28-5-4-8-2-18 5-24zm12 27c8 0 12-8 14-15 3-5 1-15-7-13-5 0-11 1-14 6-5 4-8 12-4 17 2 3 7 5 11 5z"/>
 <path d="m141.3 889c7-3 5 8 6 12 0 8 1 17 0 26-6 4-7-4-7-9 0-9-1-18-1-27 0-1 0-2 1-2zm-1-16c1-6 11 0 6 4-2 2-6-1-6-4z"/>
 <path d="m175.3 872c-2-3 1-6 4-4h6c0 7-3 40-4 47 0 4-5 2-4-1 0-5-1-35-1-40v-2zm1 56c-4-1-3-6 0-8s9 1 7 5c-1 4-3 5-7 3z"/>
 <path d="m259.3 883c0-3-3-4-6-4s-5-1-8 0c-2 0-5 0-8 2-1 2 0 5 0 8s0 7 1 10c4 0 8-1 12-2 2-1 5-2 5-5 1-3 4-5 5-8zm-22-11c5 0 10-2 15-1 4 0 8 1 11 4 3 4 1 10 0 14-1 2-2 2-3 4-2 3-6 6-9 8-2 0-5 2-7 3h-6c0 7 1 14 1 21 0 2-1 6-4 6-3-1-2-4-3-7-1-12-2-24-2-36v-5c-1 1-4 2-5 0-1-3 1-5 3-7s4-5 7-5h2z"/>
 <path d="m281.3 921c1-2 8-5 2-7-5-1-13 0-15 5s5 5 9 3c1 0 3-1 4-2zm12 4c-1 6-7 3-6-2 0-3-4 3-7 3-5 3-11 3-16 0-3-3-3-9 0-12 4-4 10-7 16-7 3-1 9 6 8 0 0-4 0-11-4-12-6 0-12 3-18 5-6 0 0-7 4-7 6-2 12-5 18-2 5 3 6 9 6 14 0 6 0 13 1 20z"/>
 <path d="m299.3 924c1-6 5-1 7 1 3 3 9 2 11-2 4-4-1-8-5-8-4-2-9-2-13-6-4-3 0-9 2-12 3-4 8-5 14-5 3 0 6 0 8 2 3 2 2 8-2 5-3-4-8-2-12 0-4 1-10 7-2 9 5 2 12 3 16 7 3 6-1 15-8 17-4 0-9 0-13-2-2-1-3-4-3-6z"/>
 <path d="m345.3 899c0-3 4-3 4-6 0-2 2-6 5-4 1 2 4 1 6 1 6-1 13-2 19 0 4 1 6 5 6 9 0 6-3 12-6 17-3 6-10 10-17 10h-4c1 6 3 11 3 17 0 3-3 4-5 2-2-1-2-4-2-6-3-11-3-23-5-35 0-3-4-1-4-4zm32-4c-3-1-7 0-10 0s-7 1-10 2c0 7 0 14 2 20 1 1 3 1 5 2 3 0 6-2 8-5 4-4 7-9 7-15 0-2 0-4-2-6z"/>
 <path d="m397.3 897c6-6 14-9 22-8 7 0 13 5 12 13 0 9-3 18-10 24-8 6-23 5-28-5-4-8-2-18 5-24zm12 27c8 0 12-8 14-15 3-5 1-15-7-13-5 0-11 1-14 6-5 4-8 12-4 17 2 3 7 5 11 5z"/>
 <path d="m438.3 891c6 1 2 9 3 13 0 7 0 14 2 20 4 2 8-4 11-7 5-7 8-15 9-23 0-6 8-5 6 1-1 8-3 17 0 25 1 3 4 12-2 10-3-3-3-11-5-12-4 6-8 12-15 14-6 1-9-4-9-10-1-9-2-18-1-28 0-1 1-3 2-3z"/>
 <path d="m503.3 895c4 0 5 5 0 5-6 3-11 9-14 16-2 5-1 10-4 14-5 2-5-5-5-9-1-9-2-19-1-28 1-5 6-2 5 2 0 4 1 8 2 12 3-6 8-11 15-13h2z"/>
 <path d="m565.3 880c-3 6-7-5-11-1-7 2-15 6-16 14-1 7-2 14 0 21 2 5 8 9 13 6 7-3 12-9 16-15 6-4 4 6 1 8-5 8-14 17-25 14-7-2-13-9-12-17 0-8-1-17 2-25 5-8 14-13 23-13 4 0 9 3 9 7z"/>
 <path d="m612.3 899c6 1 2 9-3 7-3 0-7 0-10 2v20h-6v-21c-4 0-9 2-14 1-3-5 4-7 7-7 2 0 4-1 6-1 0-4-1-8 1-11 5-4 7 3 7 7 0 1 0 4 1 4 4 0 8-1 12-1z"/>
 <path d="m657.3 899c6 1 2 9-3 7-3 0-7 0-10 2v20h-6v-21c-4 0-9 2-14 1-3-5 4-7 7-7 2 0 4-1 6-1 0-4-1-8 1-11 5-4 7 3 7 7 0 1 0 4 1 4 4 0 8-1 12-1z"/>
 <path d="m681.3 929c-4-1-3-7-3-11v-22c-3 3-5 8-9 8-4-3 1-6 3-9l6-9c5-3 5 5 5 8 0 11 1 22 1 33 0 1-1 2-2 2z"/>
 <path d="m702.3 929c-4-1-3-7-3-11v-22c-3 3-5 8-9 8-4-3 1-6 3-9l6-9c5-3 5 5 5 8 0 11 1 22 1 33 0 1-1 2-2 2z"/>
 <path d="m737.3 926c-2-8 10-5 8 0-1 5-8 6-8 0zm4-13c-5-3-3-11-2-16 3-4 7-7 8-13 2-6-5-13-10-8-6 1-3 13 1 10 3-2-4-3 0-6 6-4 8 7 3 10-5 4-13-2-13-8 0-7 6-12 13-13 8 0 13 10 11 17-1 6-6 10-9 15 0 4 1 8-1 12z"/>
 <path d="m30.26 986c4-4 5-11 2-16-4-4-12 0-16 2 0 5 0 11 1 16 4 2 10 2 12-2zm1-38c-4-3-10-1-15 0-3 4 0 10 0 15 0 8 7-2 10-4 2-3 4-6 6-10zm-25 2c-7 0-4-6 1-6 7-3 16-3 24-3 8 1 6 12 2 16-2 3-4 4 0 5 6 2 8 9 7 15-1 7-6 15-13 17-5-2-14 4-15-4-1-10-1-20-3-30 0-3 0-7-1-10z"/>
 <path d="m51.26 964c7-7 17-10 27-7 5 2 8 8 7 13 0 10-5 21-15 25-9 4-22 0-25-9-3-7 0-17 6-22zm12 27c8 0 12-8 14-15 2-4 2-11-3-13-6 0-12 0-17 4s-9 11-6 18c2 4 7 6 11 6z"/>
 <path d="m93.26 959c-1-5 6-4 5 0 1 6 1 12 2 19 1-5 3-10 7-15 3-3 6-9 11-7 5 3 6 10 6 16 0 7 1 14 0 21 0 4-7 2-5-2 0-9 1-18-1-27-3-5-6 3-8 5-4 7-8 14-8 23 0 3-2 8-4 3-1-5-1-11-2-17 0-7-1-14-2-20z"/>
 <path d="m179.3 976c1-7 5-15 1-22-4-6-13-3-18 1-10 8-11 27 0 35 8 4 15-5 17-12v-1zm-5 18c-7 5-19 2-23-5-8-12-6-30 6-38 7-3 13-10 21-8 8 3 10 14 9 23-1 10-4 21-12 29 0 0-1 0-2 1z"/>
 <path d="m220.3 994c-5-1-9-5-15-7-2 0-7-3-5 0 1 4 0 13-5 7-2-8-1-18-2-26s-2-17-2-26c5-6 6 6 6 10 0 6 1 12 2 18 5-4 10-9 16-14 5-2 4 5 0 7-4 6-10 9-15 13 0 2 4 2 5 3 6 2 12 4 16 9 1 1 0 3-2 3z"/>
 <path d="m255.3 968c-3-3-7-6-12-5-5 0-8 5-11 9 7 0 14-1 21-2 0 0 1 0 1-1zm9 11c3 3-3 8-5 11-6 6-17 9-25 3-8-5-10-16-6-24 3-5 8-11 15-11 6 0 12 0 16 5 4 3 3 10-2 11-8 2-16 3-24 3 0 4 1 7 4 10 4 4 11 4 15 1 5-2 8-7 13-9z"/>
 <path d="m272.3 961q1 0 2 1 0 1 0 4t0 6 0 5q0 9 1 9t4-3 4-6 2-7 1-6 1-4 3-2q1 0 2 1t1 2-1 7-1 12q0 2 0 4v1h1q1-1 3-1 1 0 2 0t1 1q0 2-3 4l-2 1v7q0 13-1 13-1 1-2 1t-5-1q-2-1-3-2t-2-3q-2-4-2-7 0-1 0-2 0 0 1-2 1-1 1-2 1-1 2-2t2-1 2-1q0-2-1-4 0 0-1 1t-2 2-3 2-4 1q-3 0-6-4-1-2-1-4t0-8q0-9 0-12 0-4 3-4zm17 46q0-1 0-2t0-3 0-3 0-1v-1 1q-3 4-3 6 0 1 1 2t2 2z"/>
 <path d="m355.3 964c5-5 12-8 19-8 5 0 13 1 14 7 2 10-1 21-8 28-7 6-19 8-26 2-4-4-7-9-6-15 0-5 3-10 7-14zm12 27c7 0 11-8 14-14 1-5 4-14-4-14-5 0-10 0-14 3-5 4-10 9-8 16 1 6 7 9 12 9z"/>
 <path d="m391.3 959c0-6 7-1 5 3 0 5 1 11 2 16 2-7 5-13 10-18 3-5 11-5 13 1 2 7 1 14 2 21 0 4 0 9-1 12-6 2-4-6-4-9 0-7 0-14-1-21-4-5-7 5-10 7-4 7-7 14-7 23 0 5-6 2-5-2-1-8-1-17-2-26v-8z"/>
 <path d="m471.3 988c1-2 8-5 2-7-5-1-13 0-15 5s5 5 9 3c1 0 3-1 4-2zm12 4c-1 6-7 3-6-2 0-3-4 3-7 3-5 3-11 3-16 0-3-3-3-9 0-12 4-4 10-7 16-7 3-1 9 6 8 0 0-4 0-11-4-12-6 0-12 3-18 5-6 0 0-7 4-7 6-2 12-5 18-2 5 3 6 9 6 14 0 6 0 13 1 20z"/>
 <path d="m514.3 962c4 0 5 5 0 5-6 3-11 9-14 16-2 5-1 10-4 14-5 2-5-5-5-9-1-9-2-19-1-28 1-5 6-2 5 2 0 4 1 8 2 12 3-6 8-11 15-13h2z"/>
 <path d="m550.3 962c4 0 5 5 0 5-6 3-11 9-14 16-2 5-1 10-4 14-5 2-5-5-5-9-1-9-2-19-1-28 1-5 6-2 5 2 0 4 1 8 2 12 3-6 8-11 15-13h2z"/>
 <path d="m586.3 955c-5 0-8-11-12-7-1 3-8 12-9 5 2-5 6-10 10-14 5 1 9 7 12 11 1 1 1 4-1 5zm0 12c-3-5-11-7-16-3-3 2-10 9-1 7 6-1 13 0 18-4zm9 11c3 4-4 10-8 13-7 5-18 6-25 0-8-7-8-21 0-28 4-4 10-7 16-6 6 0 13 5 14 11-1 7-11 6-16 7-4 0-9 1-13 1-1 7 5 12 11 13 8 0 13-7 20-11z"/>
 <path d="m613.3 958c-4 0-8 1-12 1-4-1-1-5 2-5 3-1 7-1 10-2 1-2 0-5 0-7 0-4-1-7 0-11 0-2 4-3 5-1 1 6 1 12 2 18 4 0 7-2 11 0 3 1 0 5-2 5-3 1-6 1-9 2 0 11 1 21 3 32 0 3 1 5 1 8-1 2-5 2-7 0-2-4-1-8-1-13-1-8-2-17-3-26z"/>
 <path d="m666.3 968c-3-3-7-6-12-5-5 0-8 5-11 9 7 0 14-1 21-2 0 0 1 0 1-1zm9 11c3 3-3 8-5 11-6 6-17 9-25 3-8-5-10-16-6-24 3-5 8-11 15-11 6 0 12 0 16 5 4 3 3 10-2 11-8 2-16 3-24 3 0 4 1 7 4 10 4 4 11 4 15 1 5-2 8-7 13-9z"/>
 <path d="m26.26 1034c-7-6-14 3-18 9-3 8 3 16 11 14 5-3 15-7 15-14-2-3-5-6-8-8zm10 18c-6 7-17 14-27 9-9-3-10-15-6-23 3-7 11-14 19-13 5 1 11 7 14 8 1-12 0-24 1-36 1-3 8-4 6 1 0 20-1 41 0 62 3 6-5 11-6 3-1-3 0-7-1-10z"/>
 <path d="m78.26 1035c-3-3-7-6-12-5-5 0-8 5-11 9 7 0 14-1 21-2 0 0 1 0 1-1zm9 11c3 3-3 8-5 11-6 6-17 9-25 3-8-5-10-16-6-24 3-5 8-11 15-11 6 0 12 0 16 5 4 3 3 10-2 11-8 2-16 3-24 3 0 4 1 7 4 10 4 4 11 4 15 1 5-2 8-7 13-9z"/>
 <path d="m139.3 1027c4 0 5 5 0 5-6 3-11 9-14 16-2 5-1 10-4 14-5 2-5-5-5-9-1-9-2-19-1-28 1-5 6-2 5 2 0 4 1 8 2 12 3-6 8-11 15-13h2z"/>
 <path d="m171.3 1035c-3-3-7-6-12-5-5 0-8 5-11 9 7 0 14-1 21-2 0 0 1 0 1-1zm9 11c3 3-3 8-5 11-6 6-17 9-25 3-8-5-10-16-6-24 3-5 8-11 15-11 6 0 12 0 16 5 4 3 3 10-2 11-8 2-16 3-24 3 0 4 1 7 4 10 4 4 11 4 15 1 5-2 8-7 13-9z"/>
 <path d="m183.3 1033q0-1 2-3t2-2q0-1 1-3t3-2q1 0 2 1t1 1 5-1 8-1 7 1q8 2 8 9 0 6-4 15-3 6-8 9-4 3-10 3-1 0-2 0h-2v2q3 11 3 15 0 3-3 3-2 0-3-1t-3-10q-1-8-3-21 0-4-1-7 0-2 0-4 0-1 0-1-3 0-3-2zm32-4q-1 0-4 0-7 0-12 1l-4 1v4q0 5 1 11t1 6q1 0 3 1 1 1 2 1 2 0 6-3t6-8 2-9q0-1 0-2t-1-2 0-1z"/>
 <path d="m235.3 1031c5-5 12-8 19-8 5 0 13 1 14 7 2 10-1 21-8 28-7 6-19 8-26 2-4-4-7-9-6-15 0-5 3-10 7-14zm12 27c7 0 11-8 14-14 1-5 4-14-4-14-5 0-10 0-14 3-5 4-10 9-8 16 1 6 7 9 12 9z"/>
 <path d="m276.3 1025c6 1 2 9 3 13 0 7 0 14 2 20 4 2 8-4 11-7 5-7 8-15 9-23 0-6 8-5 6 1-1 8-3 17 0 25 1 3 4 12-2 10-3-3-3-11-5-12-4 6-8 12-15 14-6 1-9-4-9-10-1-9-2-18-1-28 0-1 1-3 2-3z"/>
 <path d="m315.3 1058c1-6 5-1 7 1 3 3 9 2 11-2 4-4-1-8-5-8-4-2-9-2-13-6-4-3 0-9 2-12 3-4 8-5 14-5 3 0 6 0 8 2 3 2 2 8-2 5-3-4-8-2-12 0-4 1-10 7-2 9 5 2 12 3 16 7 3 6-1 15-8 17-4 0-9 0-13-2-2-1-3-4-3-6z"/>
 <path d="m348.3 1058c1-6 5-1 7 1 3 3 9 2 11-2 4-4-1-8-5-8-4-2-9-2-13-6-4-3 0-9 2-12 3-4 8-5 14-5 3 0 6 0 8 2 3 2 2 8-2 5-3-4-8-2-12 0-4 1-10 7-2 9 5 2 12 3 16 7 3 6-1 15-8 17-4 0-9 0-13-2-2-1-3-4-3-6z"/>
 <path d="m409.3 1035c-3-3-7-6-12-5-5 0-8 5-11 9 7 0 14-1 21-2 0 0 1 0 1-1zm9 11c3 3-3 8-5 11-6 6-17 9-25 3-8-5-10-16-6-24 3-5 8-11 15-11 6 0 12 0 16 5 4 3 3 10-2 11-8 2-16 3-24 3 0 4 1 7 4 10 4 4 11 4 15 1 5-2 8-7 13-9z"/>
 <path d="m449.3 1029c4 0 5 5 0 5-6 3-11 9-14 16-2 5-1 10-4 14-5 2-5-5-5-9-1-9-2-19-1-28 1-5 6-2 5 2 0 4 1 8 2 12 3-6 8-11 15-13h2z"/>
 <path d="m511.3 1014c-3 6-7-5-11-1-7 2-15 6-16 14-1 7-2 14 0 21 2 5 8 9 13 6 7-3 12-9 16-15 6-4 4 6 1 8-5 8-14 17-25 14-7-2-13-9-12-17 0-8-1-17 2-25 5-8 14-13 23-13 4 0 9 3 9 7z"/>
 <path d="m558.3 1033c6 1 2 9-3 7-3 0-7 0-10 2v20h-6v-21c-4 0-9 2-14 1-3-5 4-7 7-7 2 0 4-1 6-1 0-4-1-8 1-11 5-4 7 3 7 7 0 1 0 4 1 4 4 0 8-1 12-1z"/>
 <path d="m603.3 1033c6 1 2 9-3 7-3 0-7 0-10 2v20h-6v-21c-4 0-9 2-14 1-3-5 4-7 7-7 2 0 4-1 6-1 0-4-1-8 1-11 5-4 7 3 7 7 0 1 0 4 1 4 4 0 8-1 12-1z"/>
 <path d="m635.3 1050c2-6 6-11 6-18 1-7-7-7-10-2-5 6-9 13-10 22 0 7 9 6 12 2l3-3zm-14-20c3-5 8-8 14-11 5-1 9 3 10 8 2 10-2 20-7 28-4 5-11 9-18 7-4-2-7-7-6-12 1-7 5-13 7-20z"/>
 <path d="m658.3 1063q-1 0-2 0t-1-2q0-1 5-8l5-6-3-2q-1-1-3-2-2-2-3-3t-3-3q-1-1-2-3-1-1-1-2t1-3q1-1 2-1 2 0 3 2 0 1 5 6t7 6q1-2 3-4l5-8q2-3 3-3t2 1 1 2-2 3q-1 2-2 3 0 1-3 5t-3 4 6 5 6 6 0 1q0 1-1 2 0 1-2 1t-4-2-5-4q-3-3-5-3-1 1-3 4t-5 6q-2 2-4 2z"/>
 <path d="m701.3 1056c0 2-2 6-5 6s-3-4-3-6c0-3 3-3 5-2 1 0 2 1 2 2zm20 1c-1 2-2 6-5 6s-4-4-3-6c0-3 4-3 6-1 1 0 1 1 2 1zm-10 0c-1 2-2 6-4 6-3 0-4-3-3-6 0-2 3-4 5-2 1 0 2 1 3 2z"/>
</g>
<g id="visage" fill="#fff" stroke="#000" stroke-width="2">
 <g transform="translate(-1451 -220)">
  <g transform="translate(-995 10)">
   <g id="cheuveux2">
    <path d="m2700 522s-40-7-60 46c-10 52-20 65-80 132"/>
    <path d="m2620 762c-20 54-40 92-90 120"/>
   </g>
   <use transform="matrix(-1,0,0,1,5640,0)" xlink:href="#cheuveux2"/>
   <g transform="translate(-687 -10)">
    <g id="cheuveux3">
     <path d="m3340 611c-20 63-50 109-100 150"/>
     <path d="m3320 681c-20 58-40 103-90 140"/>
     <path d="m3310 741c-20 51-40 94-90 120"/>
    </g>
    <use transform="matrix(-1,0,0,1,7020,0)" xlink:href="#cheuveux3"/>
    <ellipse cx="3510" cy="771" rx="200" ry="300" stroke-width="7"/>
    <g transform="translate(3230,441)" stroke-width="4">
     <path d="m114 257c17-47 89-49 123-30 51 32-16 116-60 114-34 2-72-42-63-84z"/>
     <g transform="matrix(-1,0,0,1,559,0)">
      <path d="m114 257c17-47 89-49 123-30 51 32-16 116-60 114-34 2-72-42-63-84z"/>
     </g>
     <path d="m221 220 116 1"/>
     <path d="m254 248h50"/>
    </g>
    <circle cx="3490" cy="825" r="5"/>
    <circle cx="3530" cy="825" r="5"/>
   </g>
  </g>
  <g id="cheuveux4" fill="none">
   <path d="m1630 750c-20 54-40 92-90 120"/>
   <path d="m1640 664c-20 64-50 106-100 150"/>
   <path d="m1668 592c-30 40-50 104-100 136"/>
   <path d="m1740 503c-40 2-60 8-90 40"/>
  </g>
  <use transform="matrix(-1,0,0,1,3660,0)" xlink:href="#cheuveux4"/>
 </g>
 <g transform="translate(-923.6 229)">
  <circle cx="1200" cy="280" r="16"/>
  <circle cx="1400" cy="280" r="16"/>
 </g>
 <ellipse cx="376.4" cy="705" rx="36" ry="28"/>
</g>
</svg>
