<?xml version="1.0" encoding="UTF-8"?>
<svg version="1.1" width="20em" viewBox="0 40 769.605 1027.66"
     xmlns="http://www.w3.org/2000/svg" xmlns:xlink="http://www.w3.org/1999/xlink">
<metadata xmlns:rdf="http://www.w3.org/1999/02/22-rdf-syntax-ns#" >
 <rdf:RDF xmlns:cc="http://creativecommons.org/ns#" xmlns:dc="http://purl.org/dc/elements/1.1/">
  <dc:source>https://github.com/cpp-frug/materials/blob/gh-pages/images/cpp-concepts-bjarne-path.2014.svg</dc:source>
  <cc:Work rdf:about="https://github.com/cpp-frug/materials/blob/gh-pages/images/cpp-concepts-bjarne-path.2014.svg">
   <dc:format>image/svg+xml</dc:format>
   <dc:type rdf:resource="http://purl.org/dc/dcmitype/StillImage"/>
   <dc:creator>Oliver H</dc:creator>
   <dc:language>fr</dc:language>
   <dc:date>2017</dc:date>
   <cc:license rdf:resource="http://creativecommons.org/licenses/by-sa/3.0/"/>
  </cc:Work>
  <dc:rights>CC BY-SA 3.0</dc:rights>
   <cc:License rdf:about="http://creativecommons.org/licenses/by-sa/3.0/">
    <cc:permits rdf:resource="http://creativecommons.org/ns#Reproduction"/>
    <cc:permits rdf:resource="http://creativecommons.org/ns#Distribution"/>
    <cc:permits rdf:resource="http://creativecommons.org/ns#DerivativeWorks"/>
    <cc:requires rdf:resource="http://creativecommons.org/ns#Notice"/>
    <cc:requires rdf:resource="http://creativecommons.org/ns#Attribution"/>
    <cc:requires rdf:resource="http://creativecommons.org/ns#ShareAlike"/>
   </cc:License>
 </rdf:RDF>
</metadata>
 <g id="texte" fill="#000" stroke="#fff">
  <path d="m343.3 97v-7h-24l18-19c3-4 6-8 6-14 0-10-8-16-19-16-5 0-10 2-16 4v9c5-3 10-5 16-5 5 0 9 3 9 9 0 4-3 9-6 11-1 1-18 19-20 21v7h35z"/>
  <path d="m389.3 69c0-11-3-29-19-29s-19 17-19 29c0 11 3 28 19 28s19-17 19-28zm-9 0c0 7 0 21-10 21-9 0-10-14-10-21s0-21 10-21c9 0 10 15 10 21z"/>
  <path d="m413.3 97v-55h-8l-8 7v8l8-6v47h8z"/>
  <path d="m461.3 84v-7h-7v-35h-10l-22 34v8h24v13h9v-13h7zm-16-7h-16l16-26z"/>
  <path d="m4.16 889c4-7 11-12 18-14 4-1 9-2 14-1 3 1 5 5 7 8 2 6 1 13 0 19-1 4-2 9-4 13 4 3 8 6 11 11 2 3-2 4-4 2-3-1-5-4-9-6-1 0-2-2-2-1-4 8-14 12-23 9-4-1-7-4-8-7-3-5-5-12-4-18 0-5 2-11 4-16zm15 18c0-2 3-4 5-2 3 1 6 3 9 5 2-5 3-10 5-15 0-3 1-6-1-8s-4-4-8-4h-10c-4 2-7 5-9 9-1 2-2 5-2 8-1 6-2 12 0 18 1 3 3 7 7 8 5 1 10-1 14-5 2-2-2-4-3-6-2-2-5-3-7-6z"/>
  <path d="m56.16 891c6 1 2 9 3 13 0 7 0 14 2 20 4 2 8.004-4 11-7 5-7 8-15 9-23 0-6 8-5 6 1-1 8-3 17 0 25 1 3 4 12-2 10-3-3-3-11-5-12-4 6-8 12-15 14-6 1-9-4-9-10-1-9-2-18-1-28 0-1 1-3 2-3z"/>
  <path d="m100.2 897c5-5 12-8 19-8 5 0 13 1 14 7 2 10-1 21-8 28-7 6-19 8-26 2-4-4-7-9-6-15 0-5 3-10 7-14zm12 27c7 0 11-8 14-14 1-5 4-14-4-14-5 0-10 0-14 3-5 4-10 9-8 16 1 6 7 9 12 9z"/>
  <path d="m141.2 889c6-3 5 6 6 9 1 9 1 19 1 28-2 4-8 0-6-4 0-10-1-20-1-30 0-1 0-2 1-3zm-1-10c1-6 10-1 6 3-2 3-7 0-6-3z"/>
  <path d="m175.2 876c-3-6 10-6 10-1-2 10-3 20-4 30 1 3-2 10-5 4-1-11-1-22-1-33zm1 48c-5-1-2-10 3-9 6 0 5 10 0 10-1 0-2 0-2-1z"/>
  <path d="m251.2 885c-3-6-12-5-18-4-8 0-4 10-4 15 0 8 9 3 14 1 4-2 6-8 9-13zm-22-11c6 0 13-2 19 0 7 0 11 7 9 14-1 6-4 10-9 14-5 3-10 6-16 5-3-1-1 3-1 5 0 6 1 13 0 19-5 7-7-4-7-9-1-12-2-25-2-37-5 5-7-4-2-6 3-3 6-6 10-5z"/>
  <path d="m281.2 921c1-2 8-5 2-7-5-1-13 0-15 5s5 5 9 3c1 0 3-1 4-2zm12 4c-1 6-7 3-6-2 0-3-4 3-7 3-5 3-11 3-16 0-3-3-3-9 0-12 4-4 10-7 16-7 3-1 9 6 8 0 0-4 0-11-4-12-6 0-12 3-18 5-6 0 0-7 4-7 6-2 12-5 18-2 5 3 6 9 6 14 0 6 0 13 1 20z"/>
  <path d="m299.2 924c1-6 5-1 7 1 3 3 9 2 11-2 4-4-1-8-5-8-4-2-9-2-13-6-4-3 0-9 2-12 3-4 8-5 14-5 3 0 6 0 8 2 3 2 2 8-2 5-3-4-8-2-12 0-4 1-10 7-2 9 5 2 12 3 16 7 3 6-1 15-8 17-4 0-9 0-13-2-2-1-3-4-3-6z"/>
  <path d="m345.2 899c0-3 4-3 4-6 0-2 2-6 5-4 1 2 4 1 6 1 6-1 13-2 19 0 4 1 6 5 6 9 0 6-3 12-6 17-3 6-10 10-17 10h-4c1 6 3 11 3 17 0 3-3 4-5 2-2-1-2-4-2-6-3-11-3-23-5-35 0-3-4-1-4-4zm32-4c-3-1-7 0-10 0s-7 1-10 2c0 7 0 14 2 20 1 1 3 1 5 2 3 0 6-2 8-5 4-4 7-9 7-15 0-2 0-4-2-6z"/>
  <path d="m397.2 897c5-5 12-8 19-8 5 0 13 1 14 7 2 10-1 21-8 28-7 6-19 8-26 2-4-4-7-9-6-15 0-5 3-10 7-14zm12 27c7 0 11-8 14-14 1-5 4-14-4-14-5 0-10 0-14 3-5 4-10 9-8 16 1 6 7 9 12 9z"/>
  <path d="m438.2 891c6 1 2 9 3 13 0 7 0 14 2 20 4 2 8-4 11-7 5-7 8-15 9-23 0-6 8-5 6 1-1 8-3 17 0 25 1 3 4 12-2 10-3-3-3-11-5-12-4 6-8 12-15 14-6 1-9-4-9-10-1-9-2-18-1-28 0-1 1-3 2-3z"/>
  <path d="m503.2 895c4 0 5 5 0 5-6 3-11 9-14 16-2 5-1 10-4 14-5 2-5-5-5-9-1-9-2-19-1-28 1-5 6-2 5 2 0 4 1 8 2 12 3-6 8-11 15-13h2z"/>
  <path d="m565.2 880c-3 6-7-5-11-1-7 2-15 6-16 14-1 7-2 14 0 21 2 5 8 9 13 6 7-3 12-9 16-15 6-4 4 6 1 8-5 8-14 17-25 14-7-2-13-9-12-17 0-8-1-17 2-25 5-8 14-13 23-13 4 0 9 3 9 7z"/>
  <path d="m612.2 899c6 1 2 9-3 7-3 0-7 0-10 2v20h-6v-21c-4 0-9 2-14 1-3-5 4-7 7-7 2 0 4-1 6-1 0-4-1-8 1-11 5-4 7 3 7 7 0 1 0 4 1 4 4 0 8-1 12-1z"/>
  <path d="m657.2 899c6 1 2 9-3 7-3 0-7 0-10 2v20h-6v-21c-4 0-9 2-14 1-3-5 4-7 7-7 2 0 4-1 6-1 0-4-1-8 1-11 5-4 7 3 7 7 0 1 0 4 1 4 4 0 8-1 12-1z"/>
  <path d="m681.2 929c-4-1-3-7-3-11v-22c-3 3-5 8-9 8-4-3 1-6 3-9l6-9c5-3 5 5 5 8 0 11 1 22 1 33 0 1-1 2-2 2z"/>
  <path d="m696.2 911c3-1 12 0 10-6 0-1 2-9 0-6-3 3-7 8-10 12zm-5 6c-7-1 1-10 3-13 4-5 7-11 12-15 8-4 5 12 5 17 1 5 9-4 11 2 0 4-7 3-10 5-1 1 0 3 0 5-1 4 3 9 0 12-6 2-5-8-6-12 0-6-7 0-11-1z"/>
  <path d="m754.2 926c-2-8 10-5 8 0-1 5-8 6-8 0zm4-13c-5-3-3-11-2-16 3-4 7-7 8-13 2-6-5-13-10-8-6 1-3 13 1 10 3-2-4-3 0-6 6-4 8 7 3 10-5 4-13-2-13-8 0-7 6-12 13-13 8 0 13 10 11 17-1 6-6 10-9 15 0 4 1 8-1 12z"/>
  <path d="m30.16 986c4-4 5-11 2-16-4-4-12 0-16 2 0 5 0 11 1 16 4 2 10 2 12-2zm1-38c-4-3-10-1-15 0-3 4 0 10 0 15 0 8 7-2 10-4 2-3 4-6 6-10zm-25 2c-7 0-4-6 1-6 7-3 16-3 24-3 8 1 6 12 2 16-2 3-4 4 0 5 6 2 8 9 7 15-1 7-6 15-13 17-5-2-14 4-15-4-1-10-1-20-3-30 0-3 0-7-1-10z"/>
  <path d="m51.16 964c5-5 12-8 19-8 5 0 13 1 14 7 2 10-1 21-8 28-7 6-19 8-26 2-4-4-7-9-6-15 0-5 3-10 7-14zm12 27c7.004 0 11-8 14-14 1-5 4-14-4-14-5 0-10 0-14 3-5 4-10 9-8 16 1 6 7 9 12 9z"/>
  <path d="m93.16 959c-1-5 6-4 5 0 1 6 1 12 2 19 1-5 3-10 7-15 3-3 6-9 11-7 5 3 6 10 6 16 0 7 1 14 0 21 0 4-7 2-5-2 0-9 1-18-1-27-3-5-6 3-8 5-4 7-8 14-8 23 0 3-2 8-4 3-.9997-5-.9997-11-2-17 0-7-1-14-2-20z"/>
  <path d="m179.2 976c0-6 5-13 2-19-1-8-9-7-15-4-9 3-12 14-12 23 1 6 4 14 11 15 7 0 11-7 14-12 0-1 0-2 1-2zm-5 18c-4 3-11 3-16 1-7-5-11-14-12-23 0-11 6-23 17-26 5-4 12-8 18-3 7 7 7 18 5 27-2 8-4 17-11 23h-2z"/>
  <path d="m220.2 994c-2 0-4-2-7-3-2 0-3-2-5-2-3-1-5-2-8-2 0 3 1 6 0 9 0 2-3 3-4 2-2-1-2-5-2-7-1-8 0-17-2-25-1-7-1-13-1-20 0-2 3-4 5-1 1 2 1 5 1 8 1 7 1 14 2 22 5-4 9-8 14-12 1-1 3-2 4-1 2 1 1 4 0 5-2 2-3 4-5 6-3 3-7 5-10 8-2 1 0 2 1 3 6 2 12 4 17 8 2 1 5 4 2 6z"/>
  <path d="m255.2 968c-3-3-7-6-12-5-5 0-8 5-11 9 7 0 14-1 21-2 0 0 1 0 1-1zm9 11c3 3-3 8-5 11-6 6-17 9-25 3-8-5-10-16-6-24 3-5 8-11 15-11 6 0 12 0 16 5 4 3 3 10-2 11-8 2-16 3-24 3 0 4 1 7 4 10 4 4 11 4 15 1 5-2 8-7 13-9z"/>
  <path d="m272.2 961c2 0 2 3 2 5v19c0 3 3 1 4 0 3-3 6-6 7-10 1-3 2-7 3-11 0-2 2-4 4-4s2 3 2 5l-3 15v7c2-1 4-2 6-1 2 2 0 4-2 5-1 0-2 1-3 1v11c0 3 0 6-1 9-1 2-4 1-6 0-3-1-5-2-6-5s-3-6-2-9c1-2 2-4 4-5 1-1 5-1 5-4 0-2 0-3-2-1-2 3-6 5-10 5s-6-4-6-8v-19c0-2 1-4 3-4zm17 46c1-3 0-6 0-9v-2c-1 2-3 4-3 7 0 2 2 3 4 4z"/>
  <path d="m399.2 978c4 4-3 9-6 13-5 5-13 7-20 4-5-2-8-7-9-12s-1-11 3-15c4-5 10-10 17-9 6 0 13 4 14 10 0 7-6 4-6-1-3-4-8-4-13-3-4 1-6 6-8 9-3 5-2 12 3 15 5 4 12 0 16-3 3-2 5-6 9-7z"/>
  <path d="m409.2 946c2 0 6 0 6 3s-2 5-3 9c0 2 0 5-2 6s-5-1-6-3 1-5 2-7c0-2 0-5 2-7h1z"/>
  <path d="m447.2 968c-3-5-10-7-16-4-2 2-8 6-6 8 7 0 13-1 20-3 0 0 1 0 1-1zm9 11c3 3-3 8-5 11-7 6-17 9-25 3-9-6-11-21-3-29 4-4 9-8 15-7 5 0 11 2 13 7 5 7-4 10-10 11-6 2-14 0-18 3 0 6 6 12 12 12 8 0 13-7 19-11z"/>
  <path d="m464.2 991c1-6 6 1 9 2 4 3 11 0 11-6 0-5-6-5-10-7-4-1-9-3-11-8-1-5 3-8 7-11s10-3 16-3c4 0 7 9 2 7-4-3-10-2-14 0-5 1-6 9 0 9 5 2 11 2 14 7 4 8-4 19-13 17-5 0-11-2-12-7v-1z"/>
  <path d="m509.2 960c-4 0-8 2-13 1-4-1 0-6 3-6 3-1 6-1 9-2 1-3 0-6 0-10 0-3-1-6 0-9s6-2 6 1c1 5 1 11 2 16 4 0 8-2 11 0s-1 5-4 5c-2 1-6 0-7 2 0 11 1 23 3 34 1 3 1 8-3 7-3 0-4-3-4-6s0-7-1-11c-1-8-1-15-2-23z"/>
  <path d="m568.2 1006c3-5 1-12 2-19 0-10-5-19-4-30 6-5 7 6 8 10 2 13 3 26 1 39-2 7-11 5-17 4s-7-10-4-15c6-2 1 10 7 9h7zm-5-59c1-7 12 0 5 3-2 1-5-1-5-3z"/>
  <path d="m587.2 958c6 1 2 9 3 13 0 7 0 14 2 20 4 2 8-4 11-7 5-7 8-15 9-23 0-6 8-5 6 1-1 8-3 17 0 25 1 3 4 12-2 10-3-3-3-11-5-12-4 6-8 12-15 14-6 1-9-4-9-10-1-9-2-18-1-28 0-1 1-3 2-3z"/>
  <path d="m625.2 991c1-6 5-1 7 1 3 3 9 2 11-2 4-4-1-8-5-8-4-2-9-2-13-6-4-3 0-9 2-12 3-4 8-5 14-5 3 0 6 0 8 2 3 2 2 8-2 5-3-4-8-2-12 0-4 1-10 7-2 9 5 2 12 3 16 7 3 6-1 15-8 17-4 0-9 0-13-2-2-1-3-4-3-6z"/>
  <path d="m670.2 958c-4 0-8 1-12 1-4-1-1-5 2-5 3-1 7-1 10-2 1-2 0-5 0-7 0-4-1-7 0-11 0-2 4-3 5-1 1 6 1 12 2 18 4 0 7-2 11 0 3 1 0 5-2 5-3 1-6 1-9 2 0 11 1 21 3 32 0 3 1 5 1 8-1 2-5 2-7 0-2-4-1-8-1-13-1-8-2-17-3-26z"/>
  <path d="m723.2 968c-3-3-7-6-12-5-5 0-8 5-11 9 7 0 14-1 21-2 0 0 1 0 1-1zm9 11c3 3-3 8-5 11-6 6-17 9-25 3-8-5-10-16-6-24 3-5 8-11 15-11 6 0 12 0 16 5 4 3 3 10-2 11-8 2-16 3-24 3 0 4 1 7 4 10 4 4 11 4 15 1 5-2 8-7 13-9z"/>
  <path d="m4.16 1025c6 1 2 9 3 13 0 7 0 14 2 20 4 2 8-4 11-7 5-7 8-15 9-23 0-6 8-5 6 1-1 8-3 17 0 25 1 3 4 12-2 10-3-3-3-11-5-12-4 6-8 12-15 14-6 1-9-4-9-10-1-9-2-18-1-28 0-1 1-3 2-3z"/>
  <path d="m46.16 1026c-1-5 6-4 5 0 1 6 1 12 2 19 1-5 3-10 7-15 3-3 6-9 11-7 5 3 6 10 6 16 0 7 1 14 0 21 0 4-7 2-5-2 0-9 1-18-1-27-3-5-6.004 3-8.004 5-4 7-8 14-8 23 0 3-2 8-4 3-1-5-1-11-2-17 0-7-1-14-2-20z"/>
  <path d="m112.2 1035c-3-3-7-6-12-5-5 0-8 5-11 9 7 0 14-1 21-2 0 0 1 0 1-1zm9 11c3 3-3 8-5 11-6 6-17 9-25 3-8-5-10-16-6-24 3-5 8-11 15-11 6 0 12 0 16 5 4 3 3 10-2 11-8 2-16 3-24 3 0 4 1 7 4 10 4 4 11 4 15 1 5-2 8-7 13-9z"/>
  <path d="m171.2 1030c-1-5 8-8 6-2-2 9-6 18-10 27-2 4-4 8-9 10-5 0-6-7-8-11-3-9-6-18-8-28 3-5 7 4 8 7 3 8 5 17 8 26 5-8 8-18 12-27v-2z"/>
  <path d="m209.2 1035c-3-3-7-6-12-5-5 0-8 5-11 9 7 0 14-1 21-2 0 0 1 0 1-1zm9 11c3 3-3 8-5 11-6 6-17 9-25 3-8-5-10-16-6-24 3-5 8-11 15-11 6 0 12 0 16 5 4 3 3 10-2 11-8 2-16 3-24 3 0 4 1 7 4 10 4 4 11 4 15 1 5-2 8-7 13-9z"/>
  <path d="m250.2 1029c4 0 5 5 0 5-6 3-11 9-14 16-2 5-1 10-4 14-5 2-5-5-5-9-1-9-2-19-1-28 1-5 6-2 5 2 0 4 1 8 2 12 3-6 8-11 15-13h2z"/>
  <path d="m259.2 1058c1-6 5-1 7 1 3 3 9 2 11-2 4-4-1-8-5-8-4-2-9-2-13-6-4-3 0-9 2-12 3-4 8-5 14-5 3 0 6 0 8 2 3 2 2 8-2 5-3-4-8-2-12 0-4 1-10 7-2 9 5 2 12 3 16 7 3 6-1 15-8 17-4 0-9 0-13-2-2-1-3-4-3-6z"/>
  <path d="m295.2 1029c5-3 5 5 5 8 1 10 1 19 1 29-2 4-8 0-6-4 0-10-1-20-1-30 0-1 0-2 1-3zm-3-6c0-5 10-2 7 2-1 4-7 1-7-2z"/>
  <path d="m314.2 1031c5-5 12-8 19-8 5 0 13 1 14 7 2 10-1 21-8 28-7 6-19 8-26 2-4-4-7-9-6-15 0-5 3-10 7-14zm12 27c7 0 11-8 14-14 1-5 4-14-4-14-5 0-10 0-14 3-5 4-10 9-8 16 1 6 7 9 12 9z"/>
  <path d="m356.2 1026c-1-5 6-4 5 0 1 6 1 12 2 19 1-5 3-10 7-15 3-3 6-9 11-7 5 3 6 10 6 16 0 7 1 14 0 21 0 4-7 2-5-2 0-9 1-18-1-27-3-5-6 3-8 5-4 7-8 14-8 23 0 3-2 8-4 3-1-5-1-11-2-17 0-7-1-14-2-20z"/>
  <path d="m461.2 1048v13c0 3-4 3-4 0 0-8 0-16-1-24 0-3 0-5-1-8-2-1-3 2-5 4-4 8-6 17-7 26 0 2 0 5-3 5-2-1-1-4-2-6 0-6 0-13-2-19-1-3-3-6-5-8-2 0-3 4-4 5-1 3-4 7-3 11 0 2-1 4-1 7v11c0 2-3 4-4 1s-1-6-1-10c0-7 0-15-1-22 0-3-1-7 0-10s4 1 4 3 1 5 1 7l3-6c1-2 2-4 5-4 4 0 7 2 9 5s2 7 3 10c2-5 4-10 9-14 2-2 6-2 8 0 3 3 3 7 3 11v10z"/>
  <path d="m472.2 1027c6-3 5 6 6 9 1 9 1 19 1 28-2 4-8 0-6-4 0-10-1-20-1-30 0-1 0-2 1-3zm-3-10c1-6 10-1 6 3-2 3-7 0-6-3z"/>
  <path d="m489.2 1026c-1-5 6-4 5 0 1 6 1 12 2 19 1-5 3-10 7-15 3-3 6-9 11-7 5 3 6 10 6 16 0 7 1 14 0 21 0 4-7 2-5-2 0-9 1-18-1-27-3-5-6 3-8 5-4 7-8 14-8 23 0 3-2 8-4 3-1-5-1-11-2-17 0-7-1-14-2-20z"/>
  <path d="m555.2 1035c-3-3-7-6-12-5-5 0-8 5-11 9 7 0 14-1 21-2 0 0 1 0 1-1zm9 11c3 3-3 8-5 11-6 6-17 9-25 3-8-5-10-16-6-24 3-5 8-11 15-11 6 0 12 0 16 5 4 3 3 10-2 11-8 2-16 3-24 3 0 4 1 7 4 10 4 4 11 4 15 1 5-2 8-7 13-9z"/>
  <path d="m572.2 1025c6 1 2 9 3 13 0 7 0 14 2 20 4 2 8-4 11-7 5-7 8-15 9-23 0-6 8-5 6 1-1 8-3 17 0 25 1 3 4 12-2 10-3-3-3-11-5-12-4 6-8 12-15 14-6 1-9-4-9-10-1-9-2-18-1-28 0-1 1-3 2-3z"/>
  <path d="m637.2 1029c4 0 5 5 0 5-6 3-11 9-14 16-2 5-1 10-4 14-5 2-5-5-5-9-1-9-2-19-1-28 1-5 6-2 5 2 0 4 1 8 2 12 3-6 8-11 15-13h2z"/>
  <path d="m674.2 1035c-3-3-7-6-12-5-5 0-8 5-11 9 7 0 14-1 21-2 0 0 1 0 1-1zm9 11c3 3-3 8-5 11-6 6-17 9-25 3-8-5-10-16-6-24 3-5 8-11 15-11 6 0 12 0 16 5 4 3 3 10-2 11-8 2-16 3-24 3 0 4 1 7 4 10 4 4 11 4 15 1 5-2 8-7 13-9z"/>
  <path d="m698.2 1056c0 2-2 6-5 6s-3-4-3-6c0-3 3-3 5-2 1 0 2 1 2 2zm20 1c-1 2-2 6-5 6s-4-4-3-6c0-3 4-3 6-1 1 0 1 1 2 1zm-10 0c-1 2-2 6-4 6-3 0-4-3-3-6 0-2 3-4 5-2 1 0 2 1 3 2z"/>
 </g>
 <g id="visage" fill="#fff" stroke="#000" stroke-width="2">
  <g id="cheuveux2" transform="translate(-2437 -248)">
   <path d="m2700 522s-40-7-60 46c-10 52-20 65-80 132"/>
   <path d="m2620 762c-20 54-40 92-90 120"/>
  </g>
  <use transform="matrix(-1 0 0 1 766.5 0)" xlink:href="#cheuveux2"/>
  <g transform="translate(-3124 -258)">
   <g id="cheuveux3">
    <path d="m3340 611c-20 63-50 109-100 150"/>
    <path d="m3320 681c-20 58-40 103-90 140"/>
    <path d="m3310 741c-20 51-40 94-90 120"/>
   </g>
   <use transform="matrix(-1,0,0,1,7020,0)" xlink:href="#cheuveux3"/>
   <ellipse cx="3510" cy="771" rx="200" ry="300" stroke-width="7"/>
   <g transform="translate(3230,441)" stroke-width="4">
    <path d="m114 257c17-47 89-49 123-30 51 32-16 116-60 114-34 2-72-42-63-84z"/>
    <g transform="matrix(-1,0,0,1,559,0)">
     <path d="m114 257c17-47 89-49 123-30 51 32-16 116-60 114-34 2-72-42-63-84z"/>
    </g>
    <path d="m221 220 116 1"/>
    <path d="m254 248h50"/>
   </g>
   <circle cx="3490" cy="825" r="5"/>
   <circle cx="3530" cy="825" r="5"/>
  </g>
  <g transform="translate(-2215 168)">
   <path id="oeuil_colere" d="m2490 293c20-13 50-14 60 0-10 12-40 12-60 0z"/>
   <use transform="matrix(-1,0,0,1,5200,0)" xlink:href="#oeuil_colere"/>
  </g>
  <path d="m335.2 734c10-15 10-17 20-22s20-8 30-8 20 3 30 8 20 13 20 22z"/>
 </g>
</svg>
