<?xml version="1.0" encoding="UTF-8"?>
<!DOCTYPE svg  PUBLIC '-//W3C//DTD SVG 20010904//EN'  'http://www.w3.org/TR/2001/REC-SVG-20010904/DTD/svg10.dtd'>
<svg version="1.1" viewBox="0 0 1704 416" width="50em" xmlns="http://www.w3.org/2000/svg">
<rect width="1704" height="416" fill="#fff" opacity=".24"/>
<title>Analogie entre les promesse pour C++17 et la présidentielle 2017 en France</title>
<metadata xmlns:rdf="http://www.w3.org/1999/02/22-rdf-syntax-ns#">
 <rdf:RDF xmlns:cc="http://creativecommons.org/ns#">
  <cc:Work rdf:about="https://github.com/cpp-frug/materials/blob/gh-pages/images/cpp-president-2017.svg" xmlns:dc="http://purl.org/dc/elements/1.1/">
   <dc:format>image/svg+xml</dc:format>
   <dc:type rdf:resource="http://purl.org/dc/dcmitype/StillImage"/>
   <dc:title>Analogie entre les promesse pour C++17 et la présidentielle 2017 en France</dc:title>
   <dc:creator>Oliver H</dc:creator>
   <dc:language>fr</dc:language>
   <dc:date>2016</dc:date>
   <cc:license rdf:resource="http://creativecommons.org/licenses/by-sa/3.0/"/>
  </cc:Work>
  <cc:License rdf:about="http://creativecommons.org/licenses/by-sa/3.0/">
   <cc:permits rdf:resource="http://creativecommons.org/ns#Reproduction"/>
   <cc:permits rdf:resource="http://creativecommons.org/ns#Distribution"/>
   <cc:permits rdf:resource="http://creativecommons.org/ns#DerivativeWorks"/>
   <cc:requires rdf:resource="http://creativecommons.org/ns#Notice"/>
   <cc:requires rdf:resource="http://creativecommons.org/ns#Attribution"/>
   <cc:requires rdf:resource="http://creativecommons.org/ns#ShareAlike"/>
  </cc:License>
 </rdf:RDF>
</metadata>
<!-- transform="translate(0.000000,416.000000) scale(0.100000,-0.100000)"-->
<g transform="translate(0 416) scale(.1 -.1)">
 <path d="m3085 4113c-34-35-74-113-113-223-48-136-51-142-82-135-18 4-31 0-43-13-9-10-60-99-113-198-170-318-293-481-453-603-143-109-241-139-241-75 0 13 18 65 41 116 80 184 98 234 114 327 23 136 3 221-74 304-55 60-119 86-228 93-107 8-187-7-266-49-68-36-102-72-153-162-66-119-57-248 27-404 23-42 52-96 65-120 13-25 24-59 24-77 0-112-88-126-228-36-102 65-257 148-601 323l-283 144-19-24-19-23-57 34c-45 26-59 40-64 65-20 99-150 181-217 137-20-13-23-22-19-50 5-30 3-34-17-34-35 0-47-20-31-50 12-23 11-27-13-47-26-21-26-23-12-50 24-45 92-73 175-71 63 0 75-3 117-31 25-17 51-31 58-31 8 0 11-10 7-29-7-34-7-34 408-319 265-182 350-251 404-333 88-132 103-254 99-814l-3-390-50-2c-27-2-102-8-165-13-63-6-202-15-308-19-178-8-197-11-246-35-30-15-58-34-63-44-11-24-13-1082-1-1105 5-10 25-25 45-33 31-13 92-13 542 7 591 25 1040 29 1451 11 198-8 427-10 698-6 395 7 403 8 414 28 14 25 13 146 0 236-6 36-11 191-11 345-1 294-8 581-17 652l-5 42-302-4c-166-3-329-9-362-15-139-23-235-6-263 47-18 34-80 297-105 448-37 215-50 380-45 556 5 188 17 227 123 407 41 70 169 296 284 502 170 305 207 377 196 386-11 8 0 23 58 70 159 130 217 198 217 256 0 40-14 51-52 44-33-6-36-4-45 26-8 30-12 33-46 30-27-2-37 1-37 12 0 20-28 46-49 46-10 0-31-12-46-27zm65-43c0-9-16-38-35-63-20-26-38-60-42-77-5-30-5-30 19-20 13 6 37 32 53 58 36 60 65 92 82 92 27 0 12-40-36-95-95-108-64-135 34-30 65 69 85 79 85 42 0-36-45-91-163-200l-106-98-43 22c-24 12-45 23-47 25-3 2 5 25 17 52 12 26 39 96 61 156 47 125 85 184 107 165 8-6 14-19 14-29zm-151-456c2-2-30-63-71-136-42-73-131-234-198-358-68-124-162-290-210-370-112-187-109-181-121-244-7-39-6-97 5-207 8-85 15-174 15-199 2-108 57-435 112-663 17-71 29-130 27-132-12-12-534-44-733-45h-291c-82-1-158 2-168 6-16 6-17 41-16 548 2 578-1 611-50 691-29 47-47 60-315 230-259 165-575 373-575 379 0 14 46 105 63 123l20 22 166-84c225-114 408-219 577-331 196-129 249-180 322-312 87-156 164-312 220-448l50-119 9-252c8-242 16-293 40-269 5 4 8 96 8 204v197l42 69c23 37 58 107 79 155 20 47 75 165 121 261 96 198 136 306 159 430 22 118 44 162 107 204 127 85 199 182 431 588l67 118 52-26c29-15 54-28 56-30zm-1024 17c50-22 99-71 127-125 44-85 24-229-59-421-31-71-62-150-68-175-11-42-15-46-71-69-44-18-79-25-137-25-91-1-107 11-107 79 0 31-17 76-70 180-80 161-98 225-81 300 23 104 105 209 195 251 67 31 209 34 271 5zm-1799-152c55-26 110-87 123-137 11-39 33-64 84-95 29-19 31-25 19-45-6-9-23-6-72 14-35 14-103 32-151 40-105 17-139 29-139 49s79 20 135 1c22-8 44-12 49-9 10 7-32 32-54 33-20 0-90 48-90 60 0 17 54 11 85-10 17-11 38-20 48-20 36 0 15 27-48 61-59 31-77 53-58 72 10 11 24 8 69-14zm1884-704c23-21 27-86 9-145-5-19-27-103-48-186-22-83-49-173-62-200l-24-49-3 115c-2 81 2 137 14 190 25 110 24 186-4 238-12 24-19 48-16 54 10 17 111 4 134-17zm-311-1c11-3 12-19 7-75-6-55-4-75 8-94 18-28 36-130 35-200l-1-50-23 70c-13 39-43 113-68 165-52 110-63 151-47 179 10 20 37 21 89 5zm1724-1538c14-13 28-35 31-48 8-37 29-1079 22-1086-14-13-837-14-1266-2-366 11-503 11-770 1-179-8-472-16-651-18l-327-5-8 128c-11 152-11 823-1 874l7 35 197 24c109 14 250 25 313 27 63 1 160 7 215 13s284 13 510 16c225 4 412 8 415 10 10 6 826 45 1e3 48 91 1 192 4 226 5 52 2 65-1 87-22z"/>
 <path d="m1874 3365c-8-20 13-45 38-45 24 0 34 26 18 45s-49 19-56 0z"/>
 <path d="m1714 3355c-9-23 15-45 47-45 31 0 40 25 17 48-17 17-58 15-64-3z"/>
 <path d="m1693 3234c-19-50 37-200 88-237 14-10 44-21 65-24 33-4 45-1 72 22 45 38 72 95 72 152 0 90-46 118-102 63-47-47-73-49-116-8-45 43-71 53-79 32zm182-114c35 13 41 8 26-29-16-37-56-75-70-66-13 7-51 79-51 94 0 6 12 6 34 0s43-6 61 1z"/>
 <path d="m1068 1028c-54-54-78-104-78-164 0-42 34-92 67-100 15-3 34-7 41-10 7-2 35 1 62 7 55 12 81 39 60 64-9 11-19 10-61-3-45-15-53-15-77-1-57 31-37 108 48 181 52 45 60 62 34 72-31 12-44 5-96-46z"/>
 <path d="m2573 934c-83-42-32-165 79-189 32-7 101 12 93 25-3 5-22 12-43 16-20 4-50 13-66 22l-30 14 45 15c48 16 79 39 79 58 0 43-101 68-157 39zm77-28c0-2-7-7-16-10-8-3-12-2-9 4 6 10 25 14 25 6z"/>
 <path d="m1369 920c-7-5-30-7-50-4-75 12-109-79-48-130 35-30 35-30 77-15 21 7 42 7 68 0 56-15 85 2 102 62 7 26 17 47 21 47 5 0 17-23 27-52 11-28 25-53 32-56 7-2 21 17 34 47 23 58 38 65 38 20 0-40 16-69 39-69 35 0 34 46-3 118-19 37-55 43-84 14-18-18-19-18-40 5-23 25-79 32-100 11-7-7-12-32-12-56 0-39-2-43-22-40-19 2-24 10-26 45-3 46-26 69-53 53zm-29-70c0-5-7-10-16-10-8 0-12 5-9 10 3 6 10 10 16 10 5 0 9-4 9-10z"/>
 <path d="m2175 905c-29-28-31-54-10-95 14-28 26-34 80-42 32-6 19-83-23-130-16-20-57-24-67-8-12 20-36 11-33-12 4-32 65-63 102-54 40 10 82 55 95 102 15 52 14 177-1 209-25 55-103 71-143 30zm85-38c0-25-17-47-37-47-16 0-17 42-1 58 19 19 38 14 38-11z"/>
 <path d="m2410 915c-6-8-22-13-33-12-19 2-22-4-25-41-4-50 18-92 47-92 22 0 31 19 31 66 0 19 5 34 10 34 6 0 10-15 10-32 0-67 19-95 55-82 20 8 20 95 0 133-21 42-71 55-95 26z"/>
 <path d="m1773 913c-38-7-48-29-29-66 11-22 19-73 24-162 6-116 9-130 26-133 28-6 36 15 36 106 0 66 3 82 15 82 27 0 78 54 78 84 0 33-35 72-71 81-49 11-57 12-79 8zm75-80c-5-25-28-28-28-4 0 12 6 21 16 21 9 0 14-7 12-17z"/>
 <path d="m1960 890c-26-26-25-60 1-94 18-23 28-27 73-26 28 1 66-2 84-5 25-6 32-4 32 8 0 9-10 23-22 31-16 11-22 25-20 45 3 43-21 61-79 61-36 0-54-5-69-20zm59-46c-14-18-24-11-15 11 3 9 11 13 16 10 8-5 7-11-1-21z"/>
 <path d="m986 655c-68-24-70-29-57-146 22-208 32-259 52-270 33-17 42-1 35 63-3 32-8 69-12 83-5 21-1 25 37 35 50 14 124 81 134 123 11 43-12 84-59 107-49 23-76 24-130 5zm112-62c16-27-6-70-51-103l-42-31-8 48c-10 57-3 90 21 96 39 10 71 6 80-10z"/>
 <path d="m2372 627c-5-7-13-40-17-75-4-34-11-65-16-68s-5-13 1-24 15-54 20-96c11-84 28-119 65-136 48-22 135 41 105 77-11 13-16 13-46-5l-33-21-11 22c-7 12-14 48-17 79-6 57-5 58 26 75 39 20 38 49-1 53-26 3-27 5-25 59 2 48-1 56-20 64-14 5-25 4-31-4z"/>
 <path d="m2953 594c-3-9 2-75 11-148 9-72 16-148 16-168 0-52 34-84 58-55 13 15-14 355-30 374-15 18-47 16-55-3z"/>
 <path d="m2837 577c-8-22 34-321 49-344 16-26 42-30 50-9 3 8-2 59-10 114-9 55-16 125-16 156 0 32-5 66-10 77-12 21-55 26-63 6z"/>
 <path d="m1391 524c-28-36-36-65-20-75 17-10 46 8 73 44 16 22 17 29 6 42-18 22-36 19-59-11z"/>
 <path d="m1884 470l6-79-47 6c-64 7-88-17-80-79 9-67 70-99 128-67 16 8 25 7 38-5 17-15 19-15 31 0 11 13 12 33 2 112-7 53-12 111-12 128 0 34-26 64-55 64-16 0-17-7-11-80zm-18-125c7-18-12-45-32-45-14 0-20 41-7 53 11 12 33 7 39-8z"/>
 <path d="m2577 459c-13-8-15-14-7-30 15-26 60-26 60 1 0 25-30 41-53 29z"/>
 <path d="m3123 444c-64-28-81-126-32-188 35-45 119-55 161-19 29 26 12 40-42 35-48-4-80 7-80 29 0 5 18 18 40 29 73 37 86 86 29 115-33 18-34 18-76-1z"/>
 <path d="m1660 437c0-18 21-37 41-37 24 0 33 18 19 35-15 19-60 20-60 2z"/>
 <path d="m1210 429c-13-5-32-17-42-25-9-9-25-13-36-10-32 11-45-16-35-75 9-58 44-96 77-83 14 5 16 14 11 45-9 53 7 77 72 105 35 16 52 29 47 34-15 15-67 20-94 9z"/>
 <path d="m1342 410c-37-23-72-75-72-107 0-12 11-35 24-50 21-24 31-28 71-26 46 1 95 24 95 43 0 6-26 10-57 11h-58l46 14c87 27 105 91 34 121-43 18-44 18-83-6z"/>
 <path d="m1500 409c-10-17-6-26 29-64 51-56 56-79 11-55-24 13-35-2-21-28 23-43 113-53 123-15 8 33-12 83-43 105-27 20-28 24-13 35 28 20 9 43-35 43-30 0-43-5-51-21z"/>
 <path d="m1994 385c-19-46-18-64 6-102 21-34 49-47 96-41 41 4 45 36 5 44l-30 6 35 33c39 37 41 48 14 75-14 14-33 20-66 20-42 0-46-2-60-35zm76-10c-7-9-15-13-17-11-7 7 7 26 19 26 6 0 6-6-2-15z"/>
 <path d="m2161 396c-19-22-2-134 23-151 31-22 62 2 58 45-5 44 21 35 28-10 9-60 70-69 70-11 0 78-51 139-105 125-13-3-32-1-43 5-15 8-23 7-31-3z"/>
 <path d="m2707 399c-23-13-40-81-28-112 23-59 91-86 136-54 24 18 11 37-26 37h-30l35 34c20 18 36 41 36 49 0 35-85 67-123 46zm58-38c-3-6-11-11-17-11s-6 6 2 15c14 17 26 13 15-4z"/>
 <path d="m1670 365c-15-18 0-95 21-108 29-18 49-1 49 41 0 56-44 99-70 67z"/>
 <path d="m2565 351c-9-28 11-104 31-118 22-16 29-16 42 0 14 16-8 115-28 127-23 15-38 12-45-9z"/>
 <path d="m12068 4030c-19-12-29-40-58-174-12-54-42-157-66-229s-44-139-44-149c0-20 35-42 56-34 8 3 14 16 14 29 0 28 28 128 40 140 4 5 40 10 79 12l70 4 11-37c6-20 13-54 16-74 8-44 24-61 56-56 33 4 30 20-47 268-13 42-31 121-41 175-20 122-40 151-86 125zm32-189c0-10 9-44 20-77 11-32 18-64 16-71-5-12-93-29-103-19-9 8 49 196 59 190 4-3 8-13 8-23z"/>
 <path d="m12326 4002c-2-4-2-122 1-261 6-252 6-253 29-263 37-17 51 3 56 82 6 74 25 110 59 110 23 0 39-48 39-116 0-44 4-55 21-64 34-19 49-5 49 45 0 123-44 185-131 185-44 0-49 2-50 23 0 12-4 71-8 131-6 89-11 111-26 122-21 16-32 17-39 6z"/>
 <path d="m10352 3974c-18-9-46-32-62-51-60-68-27-179 52-171 42 4 46 24 9 45-74 43-6 143 97 143 60 0 85-33 90-121 4-62 1-77-26-132-30-59-112-157-132-157-13 0-13-27 1-90 8-39 17-54 35-62 40-18 51 1 35 62l-13 50 46 53c25 30 62 84 81 121 30 58 35 77 35 138 0 120-48 176-158 184-41 4-66 0-90-12z"/>
 <path d="m3563 3923c-22-20-21-62 6-403 13-158 23-205 48-214 29-12 34 9 23 100-13 114-25 394-17 394 3 0 15-20 25-44 37-82 133-166 191-166 34 0 79 50 126 140 24 47 45 83 45 80s5-32 10-65c6-33 14-135 19-227 10-179 21-221 60-226 22-4 23-2 17 45-3 26-10 111-15 188-15 215-36 337-64 373-20 26-49 9-68-40-39-100-117-198-157-198-42 0-95 65-131 160-36 92-54 120-81 120-10 0-27-8-37-17z"/>
 <path d="m6715 3818c-5-46-8-94-7-108 1-38 21-151 33-188 21-63 97-130 133-116 27 10 18 41-14 53-38 13-67 74-76 159l-7 61 42 11c55 15 54 43-2 48l-37 3v68c0 68-10 91-41 91-13 0-18-16-24-82z"/>
 <path d="m6169 3858c-1-7 0-62 1-122l2-108-30 7c-41 8-70-9-88-50-30-72-9-141 50-169 43-20 51-20 86 0 27 17 39 15 71-8 9-6 24-8 33-5 14 6 13 11-9 43-37 54-46 103-46 236 0 135-13 188-48 188-12 0-22-6-22-12zm-3-269c14-23 7-89-11-109-24-27-30-25-46 12-18 43-14 70 12 91 25 20 35 21 45 6z"/>
 <path d="m5629 3730c-46-48-49-67-13-76 22-6 33 0 67 35 35 34 40 44 31 59-20 30-44 25-85-18z"/>
 <path d="m13517 3748c-8-22 13-48 38-48 34 0 42 20 15 42-26 21-46 23-53 6z"/>
 <path d="m14548 3719c-10-5-18-18-18-29 0-19 48-65 87-83 13-6 23-17 23-25 0-12-10-14-50-9-56 7-68-9-28-37 27-19 119-21 136-4 30 30 6 75-69 130-23 17-23 18-5 32 10 8 15 19 11 25-8 14-64 14-87 0z"/>
 <path d="m14056 3699c-22-17-26-28-26-73 0-71 32-106 97-106 100 0 136 117 55 180-33 26-92 26-126-1zm108-51c8-23 6-32-14-53-36-39-60-28-60 26 0 60 56 79 74 27z"/>
 <path d="m14395 3710c-4-6-4-24 0-40 4-20 1-39-12-60-27-46-47-35-53 28-6 58-23 77-53 60-16-8-19-18-15-60 6-54 30-95 71-118 24-13 30-13 59 2 18 9 42 18 53 20 17 3 20 12 23 73 3 62 0 72-19 87-24 20-45 23-54 8z"/>
 <path d="m12923 3695c-8-13-18-14-63-5-62 12-114 0-130-30-6-10-10-37-10-60 0-35 6-48 35-77 37-37 40-37 165-21l25 3 3-144c1-86 7-150 14-158 6-7 21-13 35-13h24l-6 138c-3 75-11 186-17 245-9 91-14 110-32 122-26 19-33 19-43 0zm-35-57c30-30 5-82-45-94-56-15-82 38-39 81 27 27 64 33 84 13z"/>
 <path d="m13921 3693c-5-10-12-40-16-66s-12-46-17-45c-6 2-26 28-46 58-24 35-45 56-59 58-34 5-29-23 15-97 70-120 132-172 145-123 37 134 48 203 37 217-17 20-47 19-59-2z"/>
 <path d="m5963 3674c-8-21 21-48 42-40 23 8 15 37-13 47-17 6-24 5-29-7z"/>
 <path d="m13046 3672c-8-26 8-107 28-136 9-14 30-33 46-41 26-14 33-14 58-1 35 18 46 32 61 75 19 57-12 119-53 108-6-1-9-20-7-43 2-28-4-47-18-65-25-31-40-18-52 48-12 61-51 95-63 55z"/>
 <path d="m13320 3672c-16-13-23-30-24-59-1-72 37-113 105-113 36 0 89 47 89 80 0 29-26 76-52 94-30 21-91 20-118-2zm104-38c14-37-8-74-45-74-15 0-19 7-19 33 0 18 5 38 12 45 17 17 45 15 52-4z"/>
 <path d="m13527 3674c-4-4-7-35-7-68 0-68 18-106 51-106 17 0 19 7 19 63 0 34-6 73-13 87-13 25-37 37-50 24z"/>
 <path d="m8048 3654c-55-23-66-81-13-68 22 5 24 2 30-43 19-147 49-330 56-345 11-20 56-16 138 15 69 25 151 102 151 141 0 33-24 82-47 94-14 8-15 14-4 41 7 17 10 42 7 56-10 40-74 103-114 115-54 15-161 11-204-6zm207-48c61-26 70-83 17-110-29-14-130-27-136-17-2 3-7 36-11 74l-7 67h52c28 0 66-6 85-14zm80-200c16-16 22-31 18-45-10-39-121-111-172-111-19 0-22 8-37 113l-6 47 43 1c24 0 53 4 64 9 35 15 65 11 90-14z"/>
 <path d="m5768 3629c-33-19-21-55 34-103 43-38 49-47 39-60-7-8-29-16-49-18-42-3-46-17-10-37 46-26 138 11 138 56 0 9-23 38-52 65-33 30-46 48-36 48 26 0 32 19 12 41-19 21-49 24-76 8z"/>
 <path d="m5415 3613c-16-8-37-22-46-30-14-12-17-11-22 7-7 28-24 25-31-6-9-36 14-144 36-166 21-21 57-24 59-5 1 6 1 35-1 64-2 62 9 86 50 103 37 15 42 50 8 50-13-1-36-8-53-17z"/>
 <path d="m6353 3615c-12-8-27-32-34-53-6-20-16-42-21-49-11-14 22-77 56-105 33-28 116-22 116 8 0 13-15 19-65 26-30 5-24 24 15 50 46 31 53 76 16 113-29 29-52 31-83 10zm39-67c-7-7-12-8-12-2 0 14 12 26 19 19 2-3-1-11-7-17z"/>
 <path d="m8824 3615c-4-8-1-59 5-113 7-53 13-126 14-162 2-58 4-66 29-79 15-9 30-12 34-8s8 32 9 62c0 43 6 60 23 77 31 32 45 13 50-67 4-53 8-68 25-77 58-30 66 121 9 177-19 20-35 25-72 25h-48l-11 77c-6 42-16 82-22 90-15 17-38 17-45-2z"/>
 <path d="m4450 3600c0-26 45-49 62-32 9 9 7 17-7 32-24 26-55 26-55 0z"/>
 <path d="m5563 3605c-25-18-47-86-39-120 3-12 18-34 33-49 26-26 33-28 91-24 41 3 67 9 72 18 15 24-6 34-59 31-50-2-77 13-42 24 36 11 71 46 71 70 0 29-43 65-79 65-15 0-36-7-48-15zm57-39c0-3-4-8-10-11-5-3-10-1-10 4 0 6 5 11 10 11 6 0 10-2 10-4z"/>
 <path d="m5052 3593c-39-5-57-38-42-79 6-14 10-61 10-105 0-118 19-272 36-289 12-12 16-12 29 1 13 12 13 32 6 124-5 61-7 113-4 118 2 4 14 7 25 7 32 0 105 38 128 67 41 52 18 120-51 147-38 15-67 17-137 9zm119-62c23-19 23-21 9-47-14-25-76-72-84-63-2 2-7 28-11 56-6 49-5 54 17 62 34 14 43 13 69-8z"/>
 <path d="m6590 3590c-8-6-31-8-52-4l-36 5-4-56c-2-37 1-60 10-67 6-6 12-19 12-29s10-23 21-30c30-16 49 6 57 67 10 68 31 64 57-9 23-66 51-90 71-62 7 9 10 24 7 33-13 37-57 128-71 145-17 19-49 22-72 7z"/>
 <path d="m5947 3583c-4-3-7-22-7-42 0-47 33-101 61-101 20 0 21 4 15 43-11 71-26 107-45 107-10 0-21-3-24-7z"/>
 <path d="m10091 3561c-23-15-5-41 29-41 35 0 41 23 11 40-23 12-22 12-40 1z"/>
 <path d="m4180 3519c-37-59-13-171 46-218 58-45 130-8 154 78 9 35 8 48-9 85-22 50-53 71-123 81-45 7-48 6-68-26zm128-25c28-20 30-77 2-121-38-64-80-34-80 56 0 40 4 53 22 65 12 9 25 16 28 16s16-7 28-16z"/>
 <path d="m4453 3518c-14-18 11-155 33-179 9-10 26-19 37-19 16 0 18 5 13 28-3 15-11 56-16 91-6 36-15 70-21 78-14 16-34 17-46 1z"/>
 <path d="m6987 3493c-4-3-7-21-7-40 0-43-19-87-63-149-34-47-35-51-17-61 25-17 75 18 118 81 38 58 45 131 14 159-20 18-34 21-45 10z"/>
 <path d="m9485 3484c-13-14-21-15-41-5-37 16-126 14-152-5-47-33-62-92-41-164 21-71 90-87 191-46l57 23 5-36c3-20 8-75 12-124 6-82 8-88 31-93 13-4 29-2 35 4 15 15-25 442-43 453-21 13-36 11-54-7zm-15-68c9-12 8-22-5-49-13-29-30-43-77-64-12-6-38 28-38 50 0 52 89 99 120 63z"/>
 <path d="m9903 3489c-41-12-63-44-63-92 0-27 7-45 25-62 49-50 165-20 190 48 23 67-67 130-152 106zm87-67c0-30-30-63-53-60-18 2-21 9-19 33 5 42 29 67 53 54 11-5 19-18 19-27z"/>
 <path d="m10101 3491c-11-7-12-22-3-81 11-76 24-100 53-100 27 0 30 13 23 86-9 83-36 118-73 95z"/>
 <path d="m10995 3483c-162-34-306-160-321-281-17-140 13-267 116-486 57-122 73-175 64-210-7-30-79-97-207-194-93-70-99-77-165-190-80-136-173-300-220-386-44-80-192-374-192-382 0-3-30-71-67-151-61-134-66-148-55-176 8-20 8-33 2-37-5-3-63-12-127-19-65-6-174-21-243-32-69-10-156-22-195-27l-70-7-7-70c-4-38-14-133-22-210-24-214-17-464 15-588l10-39 1012 5c706 3 1119 9 1367 21 1114 50 1436 71 1502 97 45 18 52 60 43 244-4 88-9 280-10 428-3 288-7 307-58 326-12 4-200 13-417 19s-408 15-425 20c-44 12-105 121-194 342-92 230-205 467-260 548-23 34-91 120-151 191-153 180-255 255-391 285-17 4-31 17-39 35-15 38-1 84 86 279 71 157 96 244 97 342 2 124-74 229-197 269-100 33-220 48-281 34zm233-69c66-22 125-72 147-126 24-58 24-204 0-273-9-27-43-106-76-175-66-140-89-208-89-262 0-34-3-38-37-48-21-6-80-14-131-17-105-7-112-3-133 72-6 22-37 96-69 165-82 175-104 254-104 365 0 74 4 98 22 133 33 63 90 115 173 157 73 36 76 37 160 31 47-3 109-13 137-22zm25-933c21-13 37-31 37-41 0-11-11-54-24-97s-27-90-30-104c-8-35-85-203-91-198-2 3 2 63 9 135 9 89 18 139 29 155 21 29 21 61 1 100-14 28-14 33 1 55 9 14 19 24 23 22s24-14 45-27zm-295-34c4-22-25-70-38-62-11 7-13 45-4 70 8 21 38 15 42-8zm696-226c160-154 256-327 451-810 86-212 105-268 97-285-6-15-29-27-70-40-33-10-77-26-96-37l-36-19v31c0 21-19 61-54 118-85 135-277 452-325 538-54 94-69 113-92 113-34 0-36-28-12-168 42-249 48-541 12-577-22-22-239-42-529-49l-235-5 9 262c9 275 3 387-30 497l-17 55-41-48c-23-26-82-129-136-234-86-170-146-284-248-473-61-115-84-150-94-150-22 0-127 63-159 96l-33 34 18 37c10 21 45 101 78 178 83 193 186 403 251 510 29 50 86 144 125 210s91 146 116 177c42 52 143 138 164 138 4 0 19-18 32-41 14-22 55-87 91-144 37-56 87-140 111-186l45-84 12-165c40-552 46-600 71-585 19 12 22 107 10 275-8 96-14 213-14 260l-1 85 99 190c55 105 125 240 155 300 31 61 60 116 65 123 13 21 131-51 210-127zm-660 90c17-33 39-127 34-142-4-13-63 111-74 155-5 22-3 25 10 20 9-4 23-18 30-33zm-287-648c10-63 10-312-1-486-7-125-10-139-30-152-14-9-72-16-180-21l-159-7 7 29c4 16 14 36 21 44s55 103 105 210c122 258 210 430 220 430 5 0 12-21 17-47zm979-170c54-87 128-206 166-266 66-104 76-126 61-128-5 0-69-6-143-13-120-12-136-11-147 2-9 11-13 64-13 183 0 146-7 248-25 352-2 15-3 27-1 27s48-71 102-157zm1044-406c225-1 412-6 417-10 13-14 26-886 13-902-15-18-59-23-370-40-1162-63-2747-110-3257-97l-191 5-8 91c-16 185 3 549 37 677 11 43 22 49 92 49 29 1 88 7 132 15s127 18 184 22c100 6 104 5 97-13-12-31-22-97-18-121 4-25 22-29 52-13 16 8 20 5 30-25 15-45 41-46 83-4 30 31 31 31 64 15 51-24 61-21 68 22 3 20 8 47 10 58 3 12-2 27-10 34s-15 19-15 28c0 11 8 13 36 9 25-4 48 0 73 12 23 12 78 23 151 30 350 34 441 41 605 46 99 4 275 13 390 20 547 37 560 38 602 15 22-11 54-35 72-54 28-29 32-39 26-63-15-58-17-125-5-154 16-37 55-69 86-69 25 0 64 43 64 70 0 13 6 16 25 12 37-7 55 14 55 64 0 37 3 43 23 46 52 7 27 109-39 159-24 17-46 39-49 47-8 20 14 34 43 27 13-3 207-7 432-8zm-453-107c15 0 63-58 63-77 0-12-8-15-37-10-21 3-46 8-55 12-29 11-21-15 13-51 41-42 34-64-21-64-39 0-40-1-40-35 0-28-4-35-19-35-11 0-29 12-40 26-29 36-27 92 3 137 21 31 23 37 10 48-22 18-46 68-39 79 4 6 23 19 43 30l37 19 35-40c19-21 40-39 47-39zm-2194-35c41-19 45-30 21-56-15-17-15-20 10-49 29-35 33-62 12-79-12-10-20-9-41 5-14 9-29 23-33 31-7 11-15 5-35-26-34-50-57-46-57 10 0 44-8 48-35 19-18-20-45-27-45-11 0 34 30 78 88 126 36 30 68 53 71 51s23-11 44-21z"/>
 <path d="m11170 3147c-79-41-98-65-78-97 23-36 88-29 88 10 0 10 15 27 35 39 37 22 45 45 19 55-23 9-36 7-64-7z"/>
 <path d="m10883 3124c-4-10 4-25 21-40 14-14 26-28 26-33 0-8 44-31 61-31 15 0 28 43 18 62-9 16-85 58-107 58-7 0-15-7-19-16z"/>
 <path d="m11015 2893c-37-6-65-30-65-55 0-74 108-113 190-69 57 30 51 84-14 115-34 16-52 17-111 9zm91-38c19-15 19-15-1-30-37-29-95-32-95-5 0 17 39 50 58 50 10 0 27-7 38-15z"/>
 <path d="m11740 904c-25-7-56-13-70-13-14-1-32-6-40-11-13-9-12-12 4-25 11-8 34-15 51-15 18 0 34-3 37-6 11-11-16-74-34-80-19-6-25-24-8-24 5 0 8-32 7-72-2-69-1-73 21-76 29-4 62 31 62 67 0 47 12 71 36 77 28 7 29 12 10 33-12 14-11 24 5 71 25 77 4 97-81 74z"/>
 <path d="m11496 888c-3-7-7-24-10-38s-19-33-36-43-30-27-30-38c0-15 7-19 35-19 39 0 41-3 49-73 5-42 3-51-18-71-34-31-19-48 46-53 37-3 59 0 73 10 19 15 19 15 0 36-15 17-21 47-29 147-9 105-14 128-30 140-24 17-45 18-50 2z"/>
 <path d="m10904 826c-35-35-43-63-22-84 19-19 36-14 50 15 16 33 47 42 64 19 25-35-27-171-71-182-36-9-34-49 3-68 44-23 121-29 167-14 33 11 41 18 43 42 4 37-11 46-54 33s-48-8-29 31c9 17 21 56 28 87 14 67 2 96-52 132-49 33-86 30-127-11z"/>
 <path d="m11203 845c-29-20-44-71-46-153-2-81 18-125 63-141 43-15 86-3 125 33 70 67 69 165-5 238-31 31-45 38-77 38-21 0-48-7-60-15zm97-67c41-44 8-163-43-156-20 3-22 8-21 70 0 51 5 73 19 88 22 25 20 25 45-2z"/>
 <path d="m10104 549c-18-5-39-20-47-33-13-20-14-26-2-43 8-12 18-74 25-159 12-154 22-199 50-214 25-13 42 14 29 47-4 12-11 52-15 87l-7 65 39 10c95 26 174 94 174 149 0 28-38 72-76 88-37 16-122 17-170 3zm175-63c10-11 5-22-20-51-35-39-104-80-119-70-6 3-10 30-10 60 0 41 4 56 18 64 26 16 118 13 131-3z"/>
 <path d="m10676 462c-32-47-32-52-3-52s82 53 74 74c-11 28-43 17-71-22z"/>
 <path d="m12119 420c-95-8-109-13-109-40 0-26 15-33 69-34 43-1 46-2 53-36 4-19 6-53 3-76-5-32-2-44 14-58 11-10 28-16 38-14 19 4 22 28 13 138l-5 55 42 3c52 4 68 20 47 50-16 24-18 24-165 12z"/>
 <path d="m10400 389c-52-16-70-36-64-73 16-99 29-150 44-168 26-32 42-14 34 38-3 24-4 44-2 44 10 0 55-46 71-72 18-29 41-35 66-19 12 8 10 16-12 45-15 19-27 37-27 39 0 3 14 19 30 37 37 40 39 78 6 109-29 27-93 36-146 20zm105-50c4-6-3-22-16-35-17-18-32-24-54-22-36 4-47 35-19 55 21 16 80 17 89 2z"/>
 <path d="m10660 391c-51-7-49 6-35-159 5-58 13-96 22-104 11-8 32-7 90 8 88 22 109 34 99 59-5 15-15 16-74 11-72-7-72 4 1 24 20 6 37 17 37 24 0 20-25 37-52 35-44-4-58 1-58 20 0 20 34 31 95 31 42 0 62 22 40 44-17 17-74 19-165 7z"/>
 <path d="m11103 384c-3-8 0-65 7-125 11-91 16-112 34-124 18-13 22-13 35-1 12 13 12 28 1 108-7 51-19 108-26 126-14 34-41 43-51 16z"/>
 <path d="m11256 393l-38-4 6-42c18-116 19-166 2-173-48-19 27-57 83-42 113 31 160 115 111 196-29 47-92 72-164 65zm111-75c22-18 14-58-16-89-16-16-34-29-40-29-7 0-11 27-11 71v71l27-7c16-4 34-11 40-17z"/>
 <path d="m10907 383c-18-18-3-56 43-106 28-30 50-59 50-64 0-17-36-43-58-43-12 0-33 5-47 12-33 15-42 5-21-26 23-36 85-51 130-32 63 26 73 82 26 140-25 32-27 41-17 57 10 18 8 24-16 45-26 23-76 32-90 17z"/>
 <path d="m11501 381c-20-13-25-172-7-216 18-43 43-50 118-30 69 17 94 35 85 59-5 13-19 15-82 9-66-5-75-4-70 9 4 10 25 18 60 23 62 7 91 25 82 49-5 12-20 16-68 16-44 0-60 3-57 13 3 6 20 13 39 15 103 7 120 13 117 35-3 21-9 22-103 25-55 1-106-2-114-7z"/>
 <path d="m11940 365c-7-9-7-21 0-39 5-15 10-36 10-47 0-17-12-10-62 36-54 49-67 56-98 53l-35-3 3-80c3-98 17-147 40-143 14 3 18 18 20 76 2 39 7 72 11 72 8 0 63-57 103-108 19-24 83-31 90-10 6 16-10 142-21 171-11 28-46 41-61 22z"/>
 <path d="m9730 3437c0-33-6-49-24-66-30-28-46-20-46 22 0 56-10 77-36 77-33 0-48-39-34-90 18-67 81-97 143-69 19 9 30 8 49-5 23-15 58-13 58 3-1 14-38 150-44 160-4 6-20 11-37 11-28 0-29-2-29-43z"/>
 <path d="m8474 3392c-35-22-61-93-50-136 14-58 111-78 179-39 29 17 35 18 70 5 30-12 45-13 77-3 43 13 73 37 64 52-3 5-33 8-67 7l-62-3-5 55c-5 55-5 55-45 63-89 19-129 18-161-1zm120-28c21-20 20-36-4-66-23-29-73-53-95-44-22 8-20 79 3 98 34 31 73 35 96 12z"/>
 <path d="m4644 3363c-3-16-29-76-57-135s-48-111-44-114c29-29 117 76 156 187 22 61 15 89-24 89-19 0-26-7-31-27z"/>
 <path d="m14572 3355c-20-9-38-27-47-47-12-29-12-36 4-63 10-17 25-30 37-30 15 0 19 7 19 38 0 53 36 74 70 41 20-20 13-44-30-109-38-57-50-94-40-125 11-34 47-22 58 20 5 19 21 50 36 70 41 51 51 74 51 113 0 27-8 42-35 66-20 17-42 31-50 31-7 0-19 2-27 5-7 2-28-2-46-10z"/>
 <path d="m10422 3281c-8-4-12-19-10-32 2-20 9-24 46-27 32-2 44 1 48 13 12 31-54 67-84 46z"/>
 <path d="m13221 3277c-5-7-11-33-13-57-4-60-31-63-38-5-4 28-10 41-24 43-26 5-39-11-45-60l-6-43-67-10c-76-11-82-15-73-46 7-20 11-21 81-15l74 7 1-33c6-159 5-180-8-185-32-13-58 13-73 73-15 58-15 58-60 66-58 11-81 5-119-31-49-46-41-115 19-146 37-19 57-19 94 0 27 14 33 14 64-1 27-13 39-14 62-4 25 10 31 9 49-9 26-26 51-27 83-2 14 11 39 19 58 19 54-2 85 58 33 64l-28 3v110 110l95 12c52 6 120 12 151 12 66 1 87 17 69 52-10 18-18 20-48 16-57-8-183-25-229-30-42-5-43-4-43 25 0 52-36 92-59 65zm-1-287c0-100-3-122-15-127-9-3-18-3-21 0-9 8-18 213-11 231 4 9 16 16 27 16 19 0 20-6 20-120zm-272-49c4-25-23-61-45-61-19 0-16 50 4 72 21 23 37 19 41-11z"/>
 <path d="m6387 3193c-4-3-7-38-7-77 1-189 40-384 80-406 27-14 37 11 21 47-25 54-41 168-41 284 0 66-5 129-10 140-11 19-31 25-43 12z"/>
 <path d="m13866 3193c-4-4-4-45 0-91l7-83-27 7c-35 8-73-12-92-48-21-40-17-61 14-91 30-29 65-34 105-16 21 9 28 8 46-10 44-44 87-14 49 34-21 27-37 117-38 213 0 29-5 62-10 73-11 19-40 26-54 12zm-11-212c7-12-15-61-27-61-15 0-20 28-8 49 11 22 25 27 35 12z"/>
 <path d="m3944 3088c-4-13-18-40-32-60-27-42-25-88 6-88 18 0 92 101 92 126 0 46-52 64-66 22z"/>
 <path d="m14013 3074c-4-11 1-22 12-31 23-16 39-12 43 12 7 32-43 49-55 19z"/>
 <path d="m4354 3018c7-47 5-54-16-70l-23-18 29-24c22-18 35-45 53-107 25-87 37-109 58-109 22 0 23 22 3 99-25 96-22 125 14 129 31 4 56 28 42 42-5 5-27 10-49 12-38 3-40 5-43 38-3 38-24 60-55 60-18 0-19-5-13-52z"/>
 <path d="m14348 3063c-14-2-32-10-38-18-9-11-6-18 19-33l30-18-42-42c-39-38-45-41-84-35l-43 6 33 16c60 30 37 104-33 104-40 0-100-47-100-79 0-69 78-116 156-94 35 10 47 10 59 0 20-16 165 14 165 35 0 19-20 30-47 26-34-4-28 11 22 52 50 42 52 48 29 71-15 15-62 19-126 9z"/>
 <path d="m12056 3038c-2-7-7-43-10-81-8-103-18-109-50-30-15 37-34 78-42 91-16 25-64 31-64 8 0-16 101-228 120-250 15-19 54-21 67-3 18 22 48 236 36 255-13 21-52 28-57 10z"/>
 <path d="m13405 3036c-41-18-72-76-60-112 21-56 117-93 160-60 27 20 9 38-47 46l-43 6 50 25c60 29 69 56 29 88-31 24-47 25-89 7z"/>
 <path d="m4679 3001c-54-54-21-85 41-39 33 24 39 52 14 62-23 9-23 9-55-23z"/>
 <path d="m13550 2957c0-59 4-77 18-90 40-36 62-17 62 54 0 56 26 52 34-5 8-49 27-72 52-62 13 5 16 17 12 68-6 78-30 103-94 93-26-3-45-2-49 5-3 5-13 10-21 10-11 0-14-16-14-73z"/>
 <path d="m12602 3004c-12-8-22-19-22-25 0-5 18-29 40-53s40-51 40-60c0-20-43-38-75-30-34 8-43-15-14-39 18-14 32-17 62-13 53 9 97 33 98 54 3 36-3 48-42 85-34 33-38 41-27 54 10 12 9 18-7 29-24 17-26 17-53-2z"/>
 <path d="m14004 3005c-4-8-3-36 1-61 7-49 46-101 66-88 15 9 3 111-17 141-17 26-42 30-50 8z"/>
 <path d="m12180 2996c-27-10-37-20-44-48-12-50 0-104 34-141 23-26 35-32 70-32s46 6 65 29c28 36 35 69 24 110-21 75-80 108-149 82zm90-45c16-31 12-66-11-95-26-33-47-33-60 0-10 29-5 56 17 92 18 27 40 28 54 3z"/>
 <path d="m5983 2984c-9-24 10-49 37-49 31 0 36 19 11 44s-40 27-48 5z"/>
 <path d="m12348 2968c-9-142 79-250 141-172 46 59 29 184-26 192-24 4-33-21-12-34 14-8 6-91-9-106-14-14-32 29-32 77 0 49-9 65-36 65-18 0-24-6-26-22z"/>
 <path d="m14591 2966c-16-19-3-45 25-52 30-8 53 1 61 22 13 34-61 60-86 30z"/>
 <path d="m3704 2955c-11-27 4-45 36-45 23 0 30 4 30 20 0 13-10 24-26 30-33 13-34 13-40-5z"/>
 <path d="m5539 2941c-33-17-55-36-57-48-2-11 7-45 18-77 26-67 59-91 88-62 16 16 16 19-5 56-29 49-29 55 2 85 19 20 34 25 75 25 54 0 63 10 28 34-34 24-89 19-149-13z"/>
 <path d="m5187 2945c-26-7-58-22-70-34-13-11-34-21-47-21-21 0-22-3-17-47 8-72 23-102 52-109 40-10 58 13 43 53-20 53-2 84 62 110 61 24 68 33 42 49-12 8-30 8-65-1z"/>
 <path d="m6575 2926c-68-89-28-196 73-196 41 0 79 20 69 37-4 6-29 13-57 17-55 7-66 22-22 31 15 4 42 13 60 20 26 12 32 20 32 45 0 45-39 80-89 80-34 0-44-5-66-34zm90-26c-3-5-16-10-28-10-18 0-19 2-7 10 20 13 43 13 35 0z"/>
 <path d="m6812 2948c-31-31 2-109 54-128 13-5 24-14 24-19 0-9-47-21-86-21-28 0-34-34-8-44 47-18 160 3 179 34 17 27-5 59-60 85-59 27-67 40-34 50 14 5 19 14 17 28-2 17-11 23-38 25-19 2-41-3-48-10z"/>
 <path d="m4036 2933c-12-12-6-41 10-47 31-12 45-7 42 15-3 21-40 44-52 32z"/>
 <path d="m5280 2913c-38-14-70-57-70-94 0-48 25-78 77-89 75-17 189 17 168 50-5 9-28 10-82 5-51-5-73-4-69 3 3 6 19 13 36 17 30 7 80 40 80 54 0 5-12 20-26 35-26 25-74 34-114 19z"/>
 <path d="m5729 2896c-55-38-61-118-10-145 44-24 134-9 154 26 6 9 13 11 20 5 24-19 73-24 86-8 11 13 7 19-22 36-23 14-38 31-42 50-6 29-35 47-55 35-5-3-20 1-32 9-31 22-58 20-99-8zm96-56c0-21-4-25-29-23-37 3-40 7-26 33 16 30 55 24 55-10z"/>
 <path d="m5987 2903c-13-12-7-79 9-103 25-37 45-50 76-50 37 0 37 24-2 60-17 16-30 38-30 52 0 36-33 62-53 41z"/>
 <path d="m4580 2887c-23-11-70-70-70-88 0-15 53-70 81-84 28-15 104-20 133-9 9 3 16 15 16 25 0 16-8 19-47 19-73 0-83 13-31 41 53 30 60 58 22 88-30 24-67 27-104 8z"/>
 <path d="m4816 2859c-53-63-22-159 52-159 20 1 48 7 62 15s28 14 33 15c13 0 7-147-8-191-18-51-51-89-77-89-21 0-24-20-6-38 23-23 68-14 99 19 47 50 62 122 57 268-5 126-17 174-46 186-8 3-20 1-27-5-9-7-21-7-39 0-46 17-73 12-100-21zm104-46c0-23-29-53-52-53-21 0-22 4-7 33 20 38 59 51 59 20z"/>
 <path d="m4140 2848c0-31 24-145 32-155 6-7 22-13 35-13 24 0 25 2 21 49-8 86 26 94 50 12 14-45 35-66 58-57 31 12-5 122-49 150-30 18-147 30-147 14z"/>
 <path d="m4033 2807c9-62 30-119 49-131 25-15 33-1 30 60-3 78-24 114-66 114-16 0-18-5-13-43z"/>
 <path d="m3710 2798c-1-112-49-218-141-309-39-39-87-75-117-89-29-13-52-27-52-31 0-16 42-31 68-24 38 9 144 87 187 137 113 131 160 358 74 358-16 0-19-8-19-42z"/>
 <path d="m6706 2461c-4-5-9-37-12-70-4-34-13-66-20-72-20-16-17-37 5-48 12-7 21-27 26-58 18-120 50-149 166-152 136-2 170 43 84 113-49 41-56 56-25 56 28 0 25 26-5 46-33 21-73 11-81-20-7-30 17-78 51-100 36-24 23-36-40-36-67 0-84 20-88 100l-2 54 45 11c34 8 45 16 45 30 0 17-8 21-47 23l-48 3v54c0 43-4 56-19 65-24 12-28 12-35 1z"/>
 <path d="m5632 2389c-64-32-122-119-122-185 0-43 30-94 72-122 34-22 56-27 146-33 100-7 110-6 157 16 49 24 50 24 68 5 10-11 29-20 42-20 24 0 25 2 23 56-4 70 18 88 28 24 8-51 34-86 57-77 36 14 10 122-35 150-12 8-47 17-75 20l-53 6v-30-31l-30 25c-16 14-43 28-59 32-55 12-121-42-121-100 0-22-4-25-35-25-72 0-125 38-125 90 0 59 74 143 138 156 40 8 44 40 6 54-33 13-32 13-82-11zm246-237c3-18-4-26-33-38-40-16-55-12-55 16 0 49 82 69 88 22z"/>
 <path d="m13725 2168v-242l27-10c20-7 37-5 65 7 56 25 193 38 218 21 37-26 205-12 205 17 0 17-44 26-101 22-36-4-65-1-80 8-23 13-22 13 23 20 69 10 121 39 132 72 14 40-28 82-82 81-78-2-168-72-160-125 4-26 2-27-56-32-34-4-76-9-93-13l-33-6v191c0 178-1 192-20 211-44 44-46 35-45-222zm425-48c0-12-36-35-69-45-36-11-22 16 20 37 39 20 49 22 49 8z"/>
 <path d="m3898 2382c-17-24-58-51-96-61-26-8-34-5-58 20-15 16-37 29-47 29-23 0-23 10 13-255 11-82 20-167 20-187 0-25 7-45 21-59 39-39 43-13 24 181-9 99-15 186-12 194 3 7 25 16 49 18 23 3 51 9 60 13 14 5 18-2 23-42 26-208 53-298 90-298 24 0 24 7-5 140-18 80-21 121-17 203 5 103 5 103-20 113-31 12-30 12-45-9z"/>
 <path d="m4714 2346c-8-20 13-162 37-253 22-83 41-113 71-113 22 0 23 19 3 85-19 61-46 225-40 236 3 4 1 19-5 33-7 19-17 26-35 26-14 0-28-6-31-14z"/>
 <path d="m4427 2314c-3-4-3-52 0-107l6-100-24 8c-65 21-139-13-139-65 0-42 9-59 41-75 35-19 86-19 120-1 17 9 44 12 72 9 24-3 47-1 50 4s49 8 101 6c77-1 96 1 96 12 0 8-11 22-24 30-13 9-27 27-30 39-10 41-76 40-76-1 0-8-4-11-10-8-5 3-10 15-10 26s-7 22-15 25c-19 8-45-13-45-36 0-10-6-23-14-29-19-16-23 0-32 129-4 72-11 110-22 123-15 17-34 22-45 11zm-23-248c9-14 6-21-13-37-46-38-83-1-41 41 24 24 38 23 54-4z"/>
 <path d="m6183 2225c-32-23-46-80-28-121 20-49 55-67 112-60 27 3 75 8 108 11 86 8 105 14 105 29 0 17-22 26-60 26-42 0-44 14-5 33 43 20 45 47 8 77-35 27-79 21-112-17-19-22-22-33-17-65l6-38h-39c-22 0-43 5-47 11-4 7 4 32 17 56 24 44 24 45 5 59-25 18-27 17-53-1z"/>
 <path d="m6515 2221c-47-7-47-3-16-145 12-54 19-111 16-126-5-22-1-32 16-43 12-9 28-13 37-10 12 5 14 21 9 94l-7 88 43 12c48 12 87 44 87 70 0 9-14 29-31 43-32 27-65 31-154 17zm93-53c-5-15-58-24-58-10 0 15 12 22 38 22 14 0 22-5 20-12z"/>
 <path d="m5055 2197c-28-22-12-61 40-97 25-17 45-35 45-40s-16-14-35-21c-39-14-42-21-20-39 20-17 83-6 108 19 31 30 15 67-43 103-47 29-49 32-34 49 9 10 13 23 9 28-9 15-48 14-70-2z"/>
 <path d="m4887 2183c-42-11-62-112-29-152 25-32 93-45 137-27 19 8 35 22 35 31 0 12-11 15-55 13-49-2-85 9-60 18 28 11 76 46 82 61 4 10-3 24-21 40-26 22-50 26-89 16z"/>
 <path d="m15075 2174c-16-8-34-19-39-24s-15-2-24 6c-8 8-24 14-36 12-23-3-24-15-11-121 7-48 12-61 31-69 33-15 50 3 57 59 5 47 19 66 88 114 47 33-9 53-66 23z"/>
 <path d="m14340 2167c-16-8-26-23-28-41-3-24 6-38 55-83 46-43 55-56 43-63-20-13-26-12-62 6-40 21-58 6-35-30 27-41 97-45 140-8 28 25 20 52-33 104-52 51-57 73-14 62 17-4 26-1 30 11 14 35-52 65-96 42z"/>
 <path d="m15366 2163c-8-8 2-116 16-161 5-17 19-37 29-43 33-17 49 5 49 67 0 42 4 55 19 64 30 15 49-11 57-80 4-38 12-61 21-65 26-9 43 15 43 62 0 54 14 83 40 83 16 0 20-7 20-34 0-56 19-98 44-94 19 3 21 10 24 69 4 85-19 119-79 119-22 0-50-7-64-16-21-14-26-14-48 1-16 10-42 15-71 14-26-2-52 3-58 9-13 13-31 16-42 5z"/>
 <path d="m15853 2160c-94-22-117-131-42-194 26-22 41-26 94-26 43 0 66 5 75 15 19 23 2 35-51 35s-93 15-84 31c4 5 15 9 26 9 23 0 94 35 104 50 12 19-3 56-27 68-36 17-60 20-95 12zm37-50c-8-5-19-10-25-10-5 0-3 5 5 10s20 10 25 10c6 0 3-5-5-10z"/>
 <path d="m14703 2140c-34-20-41-38-22-57 7-7 11-78 12-197 2-162 4-188 19-203 34-33 42-4 39 137l-3 130h33c45 0 113 42 129 80 38 93-109 170-207 110zm128-40c10-6 19-19 19-29 0-21-36-56-67-66-22-6-23-4-23 43 0 27 3 52 7 55 10 10 42 8 64-3z"/>
 <path d="m15194 2139c-19-5-36-21-47-41-9-18-23-41-29-51-11-14-10-22 2-44 22-39 57-55 113-50 65 6 101 33 105 80 4 45-10 73-51 97-35 22-46 23-93 9zm86-59c16-30-29-72-73-68-43 4-49 37-11 67 34 27 70 27 84 1z"/>
 <path d="m16036 2137c-28-21-12-52 50-98 30-23 54-45 54-50 0-15-39-30-64-23-32 8-40-9-15-32s98-26 122-5c37 30 11 91-60 138-30 20-29 33 2 33 29 0 33 17 8 36-23 17-74 18-97 1z"/>
 <path d="m16226 2134c-25-24-13-62 34-107 22-21 40-42 40-47s-17-10-37-12l-38-3 23-22c28-29 81-30 113-4 21 17 22 21 10 44-7 14-33 40-57 57-52 39-62 60-34 67 29 8 21 37-11 41-15 2-34-4-43-14z"/>
 <path d="m7047 2123c-2-5-7-25-11-45-5-25-23-55-56-91-46-51-48-55-32-70 24-22 68-2 115 54 31 36 37 50 37 90 0 38-4 51-19 59-23 12-28 12-34 3z"/>
 <path d="m16395 2093c-29-43-31-60-11-107 17-41 61-61 119-53 28 4 48 1 61-9 28-20 149-19 170 2 9 8 16 20 16 25 0 12-43 56-84 85-33 24-28 44 10 44 31 0 31 15-1 36-27 18-76 12-96-12-17-20 5-68 49-104l35-29-26-6c-38-10-161 9-185 28-11 8-3 14 32 24 62 18 74 42 40 82-21 25-34 31-65 31-33 0-42-5-64-37z"/>
 <path d="m4102 2105c-53-13-72-36-72-90 0-44 23-78 59-90 31-10 94 12 123 42 40 42 41 78 3 116-32 31-58 36-113 22zm76-52c4-27-38-73-68-73-16 0-20 6-20 30 0 59 80 98 88 43z"/>
 <path d="m5257 2008c-20-46-24-65-16-75 18-21 46-15 68 14 41 52 40 123-2 123-18 0-28-13-50-62z"/>
 <path d="m5908 1758c-7-13-18-41-24-63s-19-67-28-100c-20-69-23-210-5-231 14-17 49-18 50-1 1 6 1 49-1 94-2 83-2 83 26 94 16 6 41 13 56 16l26 5-5-59c-9-94 26-168 67-143 11 7 12 14 2 35-16 36-15 71 8 213 21 131 18 162-20 162-11 0-20-1-21-2 0-2-6-39-12-83l-12-80-45 4c-25 1-47 4-49 6-1 2 3 23 11 46 14 41 24 52 61 63 15 5 16 9 7 26-16 29-75 28-92-2z"/>
 <path d="m5364 1746c-41-18-50-43-26-76 15-20 21-51 26-145 4-66 7-133 7-149-1-38 16-66 39-66 28 0 30 9 18 88-7 39-9 75-6 78 22 21 113-58 123-108 9-42 22-58 47-58 51 0 20 89-56 162l-49 48 36 15c43 18 77 59 77 94 0 92-137 160-236 117zm157-62c36-33 16-80-49-114-38-19-52-6-52 49 0 27-5 53-12 57-7 5-5 11 8 21 23 18 79 11 105-13z"/>
 <path d="m5726 1688c-64-74-26-107 46-39 36 34 41 43 32 58-19 31-40 26-78-19z"/>
 <path d="m3797 1713c-48-5-76-42-59-76 7-12 16-62 22-112 10-83 31-193 48-255 5-15 16-26 30-28 26-4 27 6 8 96-13 58-12 63 5 72 10 6 20 10 23 10 13 0 88-75 102-102 8-15 25-35 39-44 22-14 26-14 46-1 16 12 28 13 50 5 25-8 38-6 84 18 43 21 58 25 67 16 7-7 24-12 40-12 15 0 39-5 53-12 31-14 34-11 41 38 9 69 14 84 27 84 8 0 17-21 23-51 6-36 16-56 31-67 22-14 24-13 36 16l12 30 24-19c29-24 55-24 110 1 24 11 45 20 47 20s4-26 4-59c0-45-7-71-28-111-35-67-106-120-163-120-30 0-37-3-33-15 3-8 21-19 40-24 79-22 185 46 231 147 37 83 13 305-37 332-27 14-40 12-40-6 0-14-8-16-46-10-45 6-48 4-90-37-40-40-43-42-48-22-3 12-21 30-41 41-29 16-40 17-66 7-21-8-38-9-50-3-30 17-32 12-25-61 6-63 5-70-9-59-8 6-17 28-21 49-10 62-15 72-40 83-17 8-27 8-39-2s-21-10-45 0c-29 12-34 10-73-17-36-27-42-37-45-73l-3-42-55 58c-44 47-53 62-44 74 56 79 70 131 48 176-28 57-89 79-191 67zm109-53c25-10 26-14 22-60-6-61-47-120-84-120-19 0-24 5-24 24 0 12-3 51-6 84-6 58-6 62 17 71 32 13 43 13 75 1zm270-256c5-19 1-31-15-47-22-22-22-22-37-3-19 27-18 53 4 65 28 17 41 13 48-15zm472-1c-4-21-54-51-65-39-8 8 41 56 58 56 6 0 9-8 7-17z"/>
 <path d="m14048 1656c-33-67-32-96 1-96 20 0 45 29 76 89 17 34 17 35-5 53-12 10-26 18-31 18s-23-29-41-64z"/>
 <path d="m16040 1636c0-48-4-65-15-70-19-7-19-24-2-45 8-9 19-43 27-75 17-82 53-118 112-114 38 3 43 6 43 28s-5 25-38 28-41 8-53 37c-19 47-18 83 4 89 9 3 45 10 80 17 50 9 62 15 62 30 0 17-9 19-80 19h-80v48c0 51-12 72-42 72-15 0-18-9-18-64z"/>
 <path d="m6576 1632c-8-13 23-52 40-52 20 0 29 27 14 45-13 16-46 20-54 7z"/>
 <path d="m6929 1594c-8-10-21-13-37-9-30 7-41-7-42-55l-1-35-13 30c-17 38-34 53-73 59-47 9-74-6-88-48-17-47-4-98 32-126 51-40 112-15 134 55 6 18 8 16 18-11 12-32 39-48 60-34 7 3 15 30 20 59 9 55 36 98 45 70 2-8 6-40 9-72 4-62 16-83 41-74 12 5 16 22 16 76 0 60-3 74-26 100-29 35-73 42-95 15zm-141-82c4-26-13-52-35-52-18 0-27 24-19 56 9 33 49 30 54-4z"/>
 <path d="m6450 1575c-27-32-49-37-72-15-43 40-73 13-42-39 16-26 16-33 4-56-21-39 0-55 43-32 33 18 34 18 78-7 82-48 110-22 38 36l-41 33 27 22c17 15 25 31 23 46-4 27-39 35-58 12z"/>
 <path d="m13727 1573c-11-10-8-62 7-139 16-86 20-94 51-94 27 0 35 17 35 71 0 42 23 99 40 99h18c4 0 7-31 7-70 0-73 18-109 48-97 25 10 37 129 17 181-14 37-77 54-120 32-40-20-50-20-50-2 0 20-39 34-53 19z"/>
 <path d="m6131 1556c-53-30-68-110-27-151 37-37 140-58 174-36 22 14 10 54-18 62-14 4-19 7-12 8 20 2 52 39 52 61 0 12-11 32-25 45-19 20-34 25-72 25-26-1-59-7-72-14zm99-26c21-13 2-29-44-40-43-9-46 1-10 29 30 24 33 24 54 11z"/>
 <path d="m5655 1550c-11-4-29-24-39-44-17-31-18-41-7-75 15-51 59-88 116-97 52-7 75 6 75 43 0 29-24 40-54 23-13-6-31-10-41-8-33 6-26 25 14 37 39 11 71 42 71 69 0 7-12 24-26 37-28 26-70 32-109 15z"/>
 <path d="m6580 1536c-9-26-3-89 12-118 5-10 20-18 34-18 24 0 25 1 21 65-5 66-18 95-43 95-8 0-19-11-24-24z"/>
 <path d="m14198 1553c-34-5-68-47-68-82 0-78 116-160 181-127 34 17 26 30-28 42-83 18-94 36-29 47 80 13 115 72 59 101-35 17-79 25-115 19zm62-43c0-11-48-25-56-17-4 3-3 10 1 16 8 14 55 14 55 1z"/>
 <path d="m14461 1529c-13-5-35-8-50-7-25 3-26 2-29-64-2-57 0-70 18-88 37-37 54-23 60 50 4 57 8 65 25 65 16 0 22-11 32-60 12-60 33-88 59-78 33 12 9 140-33 173-28 22-45 24-82 9z"/>
 <path d="m15637 1529c-41-11-55-26-69-70-11-37-10-41 17-69 32-33 106-66 130-57 21 9 19 34-4 47-19 9-18 11 10 39 31 32 31 50-3 88-24 26-45 32-81 22z"/>
 <path d="m16486 1524c-5-12-14-14-47-9-55 9-79-12-79-71s41-94 110-94c49 0 49 0 55-37 3-21 8-51 10-67 6-37 22-56 46-56 17 0 23 10 20 32-20 148-45 277-56 295-18 26-50 30-59 7zm-12-50c26-10 20-53-8-60-44-11-62 19-30 50 18 18 17 18 38 10z"/>
 <path d="m5004 1520c-51-20-42-65 22-114l45-35-40-12c-48-14-50-22-16-45 45-29 135 1 135 46 0 21-36 53-78 70-38 15-40 43-4 48 32 5 27 28-9 41-18 6-32 11-33 10-1 0-11-4-22-9z"/>
 <path d="m14700 1518c-14-7-33-30-43-50-16-33-16-40-4-71 9-21 27-40 50-50 45-22 62-21 116 3 24 11 46 18 48 16 12-12 13-86 1-120-10-32-23-45-61-65-44-22-52-23-83-12-20 7-38 10-41 7-12-12 9-38 44-52 65-28 152-2 195 58 33 47 30 135-8 248-29 84-29 85-64 87-19 1-55 5-80 8-28 4-54 1-70-7zm100-32c19-24 7-59-28-79-44-26-62-17-62 32 0 28 5 43 18 50 25 15 58 13 72-3z"/>
 <path d="m16592 1518c-6-6-12-31-12-53 0-82 74-111 141-55 39 31 49 30 49-6 0-46 89-85 144-64 40 15 30 42-18 52-22 5-41 10-44 12-2 2 8 15 22 29 32 32 33 47 2 77-19 17-31 21-53 15-36-9-63-9-89 0-19 6-22 2-28-34-6-37-9-41-36-41-26 0-29 3-32 37-3 40-23 54-46 31z"/>
 <path d="m14999 1488c-36-40-38-80-5-113 38-38 72-42 123-15 39 21 48 22 77 12 24-9 41-9 64-1 22 7 36 7 51 0 29-16 83-13 109 5 33 23 49 12 66-46 17-57 10-88-27-128-34-37-71-52-126-52-59 0-72-13-36-36 32-21 124-16 178 10 105 51 112 165 18 326l-37 65-55-1c-75-2-111-20-124-65-5-20-14-35-20-33-5 1-22 5-37 8-20 5-28 13-28 29 0 34-12 45-60 56-76 18-98 14-131-21zm91-33c0-21-24-45-44-45-11 0-6 46 6 58 20 20 38 14 38-13zm300-10c-7-8-19-15-26-15-20 0-17 27 4 39 23 13 39-3 22-24z"/>
 <path d="m15786 1512c-10-17 7-164 22-178 25-25 54-13 69 30 23 67 53 89 53 38 0-32 25-72 45-72 32 0 31 105-1 141-19 21-64 25-95 8-17-9-25-6-44 15-25 27-40 32-49 18z"/>
 <path d="m4811 1474c-42-35-43-84-1-125 25-26 36-30 72-27 51 4 60 24 19 41l-31 13 30 26c36 31 38 61 8 82-32 23-62 20-97-10z"/>
 <path d="m7111 1491c-10-6-11-20-6-51 7-41 6-44-45-95-70-71-55-98 30-55 44 23 85 78 94 128 5 27 1 38-19 58-26 26-33 28-54 15z"/>
 <path d="m5180 1326c-12-24-32-54-46-66-31-30-30-37 5-45 40-9 65 7 97 60 25 43 25 47 10 70-24 36-43 31-66-19z"/>
 <path d="m16915 1129c-9-28 44-270 64-291 10-11 21-14 30-9 12 8 11 31-9 153-13 78-27 149-33 156-15 19-45 14-52-9z"/>
 <path d="m16670 1121c-5-11-10-39-10-62 0-26-7-50-17-61-14-16-15-22-5-36 16-23 19-30 32-80 14-53 60-108 83-99s21 32-4 66c-12 17-21 44-21 66 0 26 6 41 21 51 27 20 27 43-1 53-19 7-22 14-19 50 4 62-35 96-59 52z"/>
 <path d="m13802 985c-32-23-62-88-62-135 0-74 51-120 132-120 24 0 54 7 67 16 21 15 26 15 72-11 59-32 85-29 141 16l37 29 36-21c35-21 38-21 72-5s37 16 55-1c26-23 95-24 113 0 16 22 40 22 57-1 20-28 37-35 53-22 21 17 19 25-16 64l-31 35 28 37c22 28 25 40 17 52-16 27-48 26-67-2-20-31-29-32-65-5-52 38-71-4-24-53 26-27 26-28 8-48-27-30-40-25-74 31-36 58-64 63-69 14-5-50-10-59-27-45-8 6-15 32-17 57-5 84-68 80-68-3 0-66-128-124-147-67-2 6 15 18 39 28 43 17 88 51 88 67 0 5-12 20-26 33-22 20-38 25-79 25-77 0-103-24-107-98l-3-57-40-6c-58-10-89 7-93 51-3 44 28 97 63 106 19 5 25 12 23 28-4 27-54 33-86 11zm263-85c-3-5-16-10-28-10-18 0-19 2-7 10 20 13 43 13 35 0z"/>
 <path d="m5625 966c-40-17-91-77-100-115-8-39 25-112 62-137 18-11 52-18 101-20 113-5 160 27 125 86-22 38-55 54-94 46-44-8-59-23-59-57 0-33-1-34-39-14-32 16-45 52-32 88 10 27 61 72 91 82 25 8 26 31 1 45-23 12-19 12-56-4zm137-191c0-5-7-14-16-20-12-7-19-6-26 5-5 8-10 19-10 23 0 12 50 4 52-8z"/>
 <path d="m15120 961c-13-25 13-54 43-49 29 4 32 23 8 47-26 26-37 26-51 2z"/>
 <path d="m16190 962c0-23 19-42 42-42 24 0 34 26 18 45-18 22-60 19-60-3z"/>
 <path d="m4580 936c0-20-5-45-12-55-9-14-8-23 5-42 10-13 17-33 17-44 0-40 32-115 57-135 33-26 75-26 99 1 11 12 26 18 38 15 35-9 45 9 34 62-12 55-23 72-49 72-20 0-22-4-23-59-1-29-6-36-34-48-31-13-33-12-43 14-6 16-13 49-16 74-5 44-4 46 26 59 47 19 36 50-18 50-10 0-20 12-26 33-7 22-17 33-32 35-20 3-23-1-23-32z"/>
 <path d="m15887 926c-22-12-32-13-47-3-15 9-22 9-31 0-10-10-9-22 1-54 22-65 52-104 83-107 34-4 45 19 29 60-14 37-6 57 25 64 33 9 39-1 25-38-16-44 6-84 58-99 33-10 43-9 65 5 35 23 49 57 41 100-9 47-47 76-100 75-22 0-59 3-81 6-27 4-49 1-68-9zm201-73c4-24-20-46-42-37-21 8-21 40 2 53 23 14 36 9 40-16z"/>
 <path d="m16343 928c-27-13-53-66-53-108 0-47 47-90 98-90 47 0 82 29 58 49-8 7-25 9-38 6-25-6-62 13-41 21 59 25 79 78 43 114-22 22-35 24-67 8z"/>
 <path d="m15462 918c-5-7-18-29-27-48l-18-35-14 32c-17 42-50 61-70 40-14-14-12-22 16-82 17-37 31-73 31-80s-16-50-35-95c-38-90-43-121-20-140 21-17 38-1 60 58 10 26 44 107 76 180 33 73 59 140 59 147 0 8-9 19-19 25-25 13-26 13-39-2z"/>
 <path d="m15667 909c-104-55-66-179 54-179 57 0 97 14 106 36 10 28-11 37-62 26-64-14-87-6-83 27 2 19 11 29 36 37 49 16 59 30 37 54-22 25-39 25-88-1z"/>
 <path d="m3863 900c-59-36-79-112-49-185 21-50 58-64 164-64 76 0 95 3 116 20 66 52-8 140-99 119-46-10-57-25-51-68 5-33 4-33-27-27-39 8-67 38-67 74 0 39 36 90 75 107 24 10 33 19 29 29-8 21-53 19-91-5zm196-153c13-16-4-37-30-37-27 0-34 21-14 37 23 16 30 16 44 0z"/>
 <path d="m14778 911c-76-11-109-53-88-115 15-46 57-64 113-49 23 6 45 9 49 7 5-3 8-50 8-104 0-90 2-100 22-114 17-12 25-13 36-3 12 10 14 33 8 130l-6 117 29-21c22-16 37-20 58-15 34 9 48 9 91 0 35-7 40 3 20 39-7 12-18 45-23 72-9 41-14 51-34 53-29 4-41-13-34-48 3-18-1-33-12-44-26-26-40-14-40 35-1 24-4 50-9 57-13 21-42 13-55-14l-12-26-20 26c-21 27-24 28-101 17zm49-58c6-17-33-53-57-53-26 0-25 18 2 47 23 24 48 27 55 6z"/>
 <path d="m6312 830c3-38 2-70-1-70-4 0-15 19-26 43-23 49-58 59-63 17-6-53-14-56-33-12-10 23-22 42-28 42-12 0-23-47-16-71 5-15 1-19-17-19-70 1-95 41-38 63 38 15 33 31-11 35-48 4-73-17-73-63 0-67 77-108 131-70 16 11 28 13 47 5 14-5 39-7 55-4 16 4 32 1 35-5 9-13 53-15 60-2 3 5 16 7 28 3 19-5 21-2 15 29-3 19-9 44-13 56-5 18-1 25 20 34 14 7 26 20 26 31 0 20-21 23-51 8-15-8-19-7-19 5 0 8-7 15-16 15-14 0-16-10-12-70z"/>
 <path d="m6428 888c-3-7-2-44 1-82 6-72 22-95 55-83 15 6 17 16 11 72-7 64-7 65 20 75 37 14 52 13 37-2-7-7-12-29-12-51 0-70 92-128 130-82 10 13 6 18-26 32l-39 16 31 9c18 4 35 15 38 24 14 36-38 79-83 67-12-3-21-1-21 6 0 13-79 15-100 1-9-5-19-5-26 1-8 6-13 5-16-3z"/>
 <path d="m7020 880c-17-17-21-31-18-61s0-39-12-39c-39 0-54 52-20 70 29 16 14 40-26 40-23 0-37-6-44-19-16-31-12-76 11-104 23-30 89-52 122-40 12 4 43 6 70 4 38-2 47 0 47 13 0 9-11 21-25 26l-25 9 26 26c29 29 28 41-7 66-41 31-75 33-99 9zm70-20c0-5-7-10-16-10-8 0-12 5-9 10 3 6 10 10 16 10 5 0 9-4 9-10z"/>
 <path d="m15127 893c-21-20 3-121 38-160 21-25 25-26 39-13 13 13 12 24-4 89-10 41-25 78-32 82-16 11-32 11-41 2z"/>
 <path d="m16192 888c-22-22-14-86 12-113 33-33 60-24 52 18-3 16-6 40-6 53 0 21-23 54-39 54-4 0-12-5-19-12z"/>
 <path d="m16464 885c-8-20 5-107 18-122 18-23 53-14 77 18l23 31 18-28c25-37 45-47 59-30 9 11 7 26-10 67-11 30-25 60-31 66-14 18-63 16-78-2-12-14-15-14-30 0-21 19-39 19-46 0z"/>
 <path d="m6780 883c-8-3-19-12-23-20-6-10-13-11-29-2-27 15-38-3-30-50 12-77 17-86 49-89l31-3-8 38c-18 79 20 118 40 41 20-79 21-79 43-76 47 7 29 126-23 153-16 8-30 15-32 14-2 0-10-3-18-6z"/>
 <path d="m4760 861c0-23 37-38 54-21 8 8 6 15-8 26-27 20-46 18-46-5z"/>
 <path d="m5053 858c-44-56 5-168 74-168 32 0 39 19 14 37-22 15-22 15 11 33 44 23 47 51 8 84-34 28-90 35-107 14zm77-28c0-5-7-10-16-10-8 0-12 5-9 10 3 6 10 10 16 10 5 0 9-4 9-10z"/>
 <path d="m5214 855c-6-15 2-30 46-87l22-28h-31c-17 0-31-4-31-8 0-33 106-66 135-42 24 20 18 39-31 88-37 39-42 47-28 52 15 6 15 8-7 23-29 21-68 22-75 2z"/>
 <path d="m4886 834c-4-9-13-14-21-10-12 4-15-5-15-52 0-62 11-82 46-82 36 0 36 5 13 100-2 8 3 15 11 15 9 0 20-17 28-40 16-49 35-70 56-62 32 13 8 115-32 136-31 16-79 14-86-5z"/>
 <path d="m5833 794c6-55 27-94 52-94 19 0 26 27 15 56-20 53 13 61 35 8 24-59 67-33 51 32-10 38-49 58-88 45-21-8-35-8-42-1-22 22-29 8-23-46z"/>
 <path d="m4176 799c-14-11-26-16-26-10s-7 11-16 11c-13 0-14-8-8-47 13-86 18-98 47-101 26-3 27-2 27 46 0 36 5 54 20 67 26 23 26 55 1 55-10 0-30-9-45-21z"/>
 <path d="m4269 789c-27-27-26-83 3-103 35-25 93-21 115 8l19 23 24-19c19-15 33-18 62-14 20 3 48 1 62-5 14-7 32-9 42-5 15 6 15 8-2 27-11 12-28 40-39 63-15 31-27 42-47 44-25 3-28 0-28-27 0-37-16-40-32-6-14 30-44 33-53 4-6-19-8-19-25-4-9 8-32 20-49 25-26 7-36 5-52-11zm61-39c0-13-7-20-18-20-26 0-34 11-21 27 17 20 39 16 39-7z"/>
 <path d="m7183 793c-7-3-13-16-13-29 0-14-16-42-37-65-36-39-36-42-18-55 29-21 51-17 90 17 32 28 36 37 33 72-3 41-30 70-55 60z"/>
 <path d="m16952 783c-13-24 2-60 27-68 27-8 61 11 61 35 0 43-69 69-88 33z"/>
 <path d="m5414 732c-6-4-25-28-44-55-31-43-32-49-18-63 21-21 52-11 77 25 31 43 36 77 14 89-11 6-24 8-29 4z"/>
 <path d="m7026 531c-4-6-2-50 4-98s14-126 18-173c7-82 8-85 32-85 18 0 26 6 28 23l3 22 26-20c17-13 41-20 69-20 46 0 58 9 48 35-5 12-14 14-34 10-42-9-47 13-10 44 41 34 38 62-9 75-31 9-36 7-61-21l-27-30-12 110c-6 61-14 114-18 118-15 13-51 20-57 10z"/>
 <path d="m6120 502c0-5 7-23 15-38 22-42 19-54-16-66-42-15-35-42 13-46 39-3 41-6 54-97 7-51 27-85 50-85s24 15 8 105c-14 79-14 89 0 104 21 23 20 28-7 34-14 4-30 22-42 49-16 33-26 44-47 46-16 2-28-1-28-6z"/>
 <path d="m6936 501c-7-11 21-237 35-278 10-32 44-52 60-36 4 4 4 26-1 48s-14 87-19 144c-6 57-16 110-22 118-13 15-45 18-53 4z"/>
 <path d="m5140 424c-6-14-10-34-10-45s-6-28-12-39c-10-15-10-22 0-32 6-6 12-28 12-48 0-117 70-181 150-135 14 8 35 14 47 15 28 0 45 29 32 53-12 21 3 54 39 84l27 23h-25c-14 0-40-9-58-20-25-15-37-18-52-10-26 14-31 0-19-45 12-41 7-50-33-60-29-7-32-2-42 75-7 56-1 65 50 79 36 10 54 26 54 48 0 3-22 3-49 1-48-5-49-4-55 25-12 58-40 73-56 31z"/>
 <path d="m4003 384c-35-38-68-44-76-14-6 24-34 37-49 22-11-11 0-77 39-220 24-87 42-122 63-122 18 0 18 31 0 101-33 137-33 126 2 138 44 16 45 15 52-30 8-50 30-95 64-131 29-31 52-36 52-12 0 13 5 10 20-8 25-32 73-52 105-44 33 8 30 38-3 46-23 5-23 5 7 28 37 27 40 55 9 76-50 36-133 5-140-52-3-26-4-25-27 18-28 52-40 155-22 189 10 17 10 26 0 37-20 24-61 14-96-22z"/>
 <path d="m6289 380c-11-7-11-14-3-27 14-23 48-23 52-1 4 21-29 40-49 28z"/>
 <path d="m4235 320c-17-19-17-22-3-36 13-13 19-14 37-3 11 8 23 20 26 27 13 35-31 44-60 12z"/>
 <path d="m6690 320c-8-5-23-7-32-4-14 4-18-1-18-22 0-27 0-27-21-8-28 25-106 25-125 0-11-16-15-16-43-2-32 17-111 13-111-5 0-17-15-9-25 14-6 12-19 22-30 22-18 0-20-6-19-53 1-29 7-59 14-67 15-18 47-20 52-3 3 8 13 5 33-10 31-25 78-28 115-8 14 8 38 12 59 8l34-5-7 36c-8 42 5 49 22 12 7-14 20-25 31-25s31-5 45-11c39-18 55 1 49 59-5 39-3 45 8 35 7-7 18-28 23-45 12-35 52-51 66-28 6 9 13 8 31-3 37-23 74-28 94-13 21 15 12 36-16 36-23 0-25 13-4 30 20 17 19 26-5 50-27 27-74 26-99-2-19-20-22-20-38-5-24 21-64 30-83 17zm-252-81c2-10-6-19-18-22-23-6-34 7-26 29 8 20 40 14 44-7z"/>
 <path d="m5740 296c0-13 11-38 25-54 31-37 31-40-2-44l-28-3 23-22c25-26 68-30 97-9 36 25 181 38 210 19 44-29 116-6 101 33-4 12-14 14-36 9-37-8-51 16-25 45 24 27 12 52-22 48-18-2-35-15-49-35l-22-33-16 25c-14 21-24 25-67 25-45 0-52-3-67-30-9-16-20-30-23-30-13 0-34 34-34 54 0 16-7 22-32 24-29 3-33 0-33-22zm190-47c0-22-13-25-29-6-8 10-7 17 1 25 15 15 28 6 28-19z"/>
 <path d="m4714 295c-8-20 13-45 37-45 28 0 32 17 9 40-24 24-39 26-46 5z"/>
 <path d="m5611 291c-7-5-22-6-33-3-18 4-19 0-17-36 4-52-10-58-26-13-14 44-41 62-58 41-7-8-27-15-45-15-25 0-37-6-50-27-33-55 24-104 92-80 26 10 41 8 83-7 68-25 77-17 69 55l-7 59 26-28c14-15 25-34 25-42 0-17 36-38 50-30 29 18-11 108-56 125-31 12-35 12-53 1zm-171-71c0-5-5-10-11-10-5 0-7 5-4 10 3 6 8 10 11 10 2 0 4-4 4-10z"/>
 <path d="m4922 273c-19-8-42-58-37-83 13-67 124-104 165-55 18 22 3 35-41 35-45 0-51 12-14 28 34 16 32 48-5 67-30 15-45 17-68 8z"/>
 <path d="m4835 250c-4-6-15-8-26-5-17 6-18 2-12-42 9-74 19-93 48-93 24 0 25 3 25 56 0 30 5 64 10 75 9 16 7 19-14 19-14 0-28-5-31-10z"/>
 <path d="m4558 205c-14-30-19-31-35-6-11 17-22 19-78 16-35-2-69-7-75-10-5-3-10-1-10 4 0 6-4 11-10 11s-10-27-10-60c0-52 3-62 25-76 33-22 45-11 45 42 0 54 16 50 25-6 9-54 35-55 35-1 0 22 4 42 9 45 10 6 21-26 21-62 0-35 34-25 38 11l3 28 30-26c37-31 68-32 104-3 23 18 26 26 22 55-9 52-23 63-78 63-43 0-51-3-61-25zm90-27c-2-17-11-24-30-26s-28 1-28 10c0 20 21 38 43 38 13 0 18-6 15-22z"/>
 <path d="m4710 190c0-44 34-90 66-90 14 0 16 7 11 40-7 51-32 90-57 90-17 0-20-7-20-40z"/>
</g>
</svg>
