<?xml version="1.0" encoding="UTF-8"?>
<svg version="1.1" viewBox="0 40 722.902 972.031"
     xmlns="http://www.w3.org/2000/svg" xmlns:xlink="http://www.w3.org/1999/xlink"
     fill="#000" stroke="#fff">
<metadata xmlns:rdf="http://www.w3.org/1999/02/22-rdf-syntax-ns#" >
 <rdf:RDF xmlns:cc="http://creativecommons.org/ns#" xmlns:dc="http://purl.org/dc/elements/1.1/">
  <dc:source>https://github.com/cpp-frug/materials/blob/gh-pages/images/cpp-concepts-bjarne-path.20xx.svg</dc:source>
  <cc:Work rdf:about="https://github.com/cpp-frug/materials/blob/gh-pages/images/cpp-concepts-bjarne-path.20xx.svg">
   <dc:format>image/svg+xml</dc:format>
   <dc:type rdf:resource="http://purl.org/dc/dcmitype/StillImage"/>
   <dc:creator>Oliver H</dc:creator>
   <dc:language>fr</dc:language>
   <dc:date>2017</dc:date>
   <cc:license rdf:resource="http://creativecommons.org/licenses/by-sa/3.0/"/>
  </cc:Work>
  <dc:rights>CC BY-SA 3.0</dc:rights>
   <cc:License rdf:about="http://creativecommons.org/licenses/by-sa/3.0/">
    <cc:permits rdf:resource="http://creativecommons.org/ns#Reproduction"/>
    <cc:permits rdf:resource="http://creativecommons.org/ns#Distribution"/>
    <cc:permits rdf:resource="http://creativecommons.org/ns#DerivativeWorks"/>
    <cc:requires rdf:resource="http://creativecommons.org/ns#Notice"/>
    <cc:requires rdf:resource="http://creativecommons.org/ns#Attribution"/>
    <cc:requires rdf:resource="http://creativecommons.org/ns#ShareAlike"/>
   </cc:License>
 </rdf:RDF>
</metadata>
<path d="m47.91 68c0-19-10-27-31-27h-15v55h15c20 0 31-8 31-28zm-9 0c0 14-6 20-20 20h-7v-40h7c14 0 20 6 20 20z"/>
<path d="m90.91 79v-3c0-10-6-17-17-17-12 0-18 9-18 19 0 11 7 18 19 18 5 0 10-1 15-3v-7c-6 3-7 3-15 3-6 0-10-5-10-10zm-9-6h-17c1-4 3-7 8-7s8 2 9 7z"/>
<path d="m148.9 95v-7c-2 1-5 1-7 1h-1c-4 0-5-1-5-5v-19h10v-6h-10v-10h-5l-3 10h-4v6h4v19c0 9 4 12 14 12 2 0 5 0 7-1z"/>
<path d="m177.9 70 3-8c-1-1-5-2-8-2s-4.998 1-6.998 4v-3h-9v36h9v-23c0-4 2-6 4.998-6 2 0 4 1 7 3z"/>
<path d="m215.9 57-12-14h-9l12 14zm4 22v-3c0-10-6-17-17-17-12 0-18 9-18 19 0 11 7 18 19 18 5 0 10-1 15-3v-7c-6 3-7 3-15 3-6 0-10-5-10-10zm-9-6h-17c1-4 3-7 8-7s8 2 9 7z"/>
<path d="m258.9 85c0-7-6-10-13-11h-2c-3 0-7-1-7-4s4-4 7-4c6 0 6 0 12 3v-7c-4-1-8-2-13-2-8 0-16 3-16 11 0 7 5 9 12 11h2c3 1 7 1 7 4s-4 4-7 4c-7 0-8-1-14-3v8c4 1 10 2 14 2 8 0 17-3 17-11z"/>
<path d="m327.9 96v-21c0-9-4-15-14-15-4 0-8 1-11 4v-3h-9v36h9v-20c0-6 4-9 9-9s7 3 7 8v21h9z"/>
<path d="m373.9 78c0-9-6-19-18-19s-18 8-19 19c0 10 7 19 19 19s18-9 18-19zm-9 0c0 6-3 11-9 11-7 0-9-7-9-12 0-6 3-11 9-11s9 5 9 11z"/>
<path d="m441.9 96v-21c0-8-3-15-13-15-5 0-10 2-13 6-2-4-6-6-11-6-4 0-8 2-11 5v-4h-9v36h9v-20c0-5 4-9 9-9s6 3 6 8v21h9v-20c0-5 3-9 9-9 5 0 6 3 6 8v21h9z"/>
<path d="m451.9 40v54c4 2 10 2 16 2 12 0 20-7 20-19 0-11-7-19-20-19-2 0-5 0-7 1v-19h-8zm8 26c2 0 4-1 6-1 7 0 11 4 11 12 0 7-3 12-11 12-3 0-5 0-6-1z"/>
<path d="m518.9 70 3-8c-1-1-5-2-8-2s-5 1-7 4v-3h-9v36h9v-23c0-4 2-6 5-6 2 0 4 1 7 3z"/>
<path d="m560.9 79v-3c0-10-6-17-17-17-12 0-18 9-18 19 0 11 7 18 19 18 5 0 10-1 15-3v-7c-6 3-7 3-15 3-6 0-10-5-10-10zm-9-6h-17c1-4 3-7 8-7s8 2 9 7z"/>
<path d="m603.9 96v-36h-9v20c0 5-3 9-9 9-5 0-7-3-7-8v-21h-9v21c0 9 4 15 14 15 4 0 8-2 10-5v4h9z"/>
<path d="m643.9 85c0-7-6-10-13-11h-2c-3 0-7-1-7-4s4-4 7-4c6 0 6 0 12 3v-7c-4-1-8-2-13-2-8 0-16 3-16 11 0 7 5 9 12 11h2c3 1 7 1 7 4s-4 4-7 4c-7 0-8-1-14-3v8c4 1 10 2 14 2 8 0 17-3 17-11z"/>
<path d="m684.9 79v-3c0-10-6-17-17-17-12 0-18 9-18 19 0 11 7 18 19 18 5 0 10-1 15-3v-7c-6 3-7 3-15 3-6 0-10-5-10-10zm-9-6h-17c1-4 3-7 8-7s8 2 9 7z"/>
<path d="m721.9 85c0-7-6-10-13-11h-2c-3 0-7-1-7-4s4-4 7-4c6 0 6 0 12 3v-7c-4-1-8-2-13-2-8 0-16 3-16 11 0 7 5 9 12 11h2c3 1 7 1 7 4s-4 4-7 4c-7 0-8-1-14-3v8c4 1 10 2 14 2 8 0 17-3 17-11z"/>
<use transform="translate(-667 -.00041)" xlink:href="#d"/>
<path d="m75.91 113h-10l-11 14h8zm5 36v-3c0-9.998-6-17-17-17-12 0-18 9-18 19 0 11 7 18 19 18 5 0 10-1 15-3v-7c-6 3-7 3-15 3-6 0-10-5-10-10zm-9-6h-17c1-4 3-6.998 8-6.998s8 2 9 6.998z"/>
<path d="m119.9 164v-7c-5 2-6 3-12 3-7 0-11-4-11-12 0-7 4-12 11-12 5 0 7 1 12 2.998v-6.998c-4-1-7-2-12-2-13 0-20 7-20 19 0 11 7 19 20 19 4 0 9-1 12-2z"/>
<path d="m162.9 149v-3c0-9.998-6-17-17-17-12 0-18 9-18 19 0 11 7 18 19 18 5 0 10-1 15-3v-7c-6 3-7 3-15 3-6 0-10-5-10-10zm-9-6h-17c1-4 3-6.998 8-6.998s8 2 9 6.998z"/>
<path d="m205.9 166v-21c0-8.998-4-15-14-15-4 0-8 1-11 4v-3h-9v36h9v-20c0-6 4-8.998 9-8.998s7 2.998 7 7.998v21h9z"/>
<path d="m250.9 166v-21c0-8.998-4-15-14-15-4 0-8 1-11 4v-3h-9v36h9v-20c0-6 4-8.998 9-8.998s7 2.998 7 7.998v21h9z"/>
<path d="m269.9 166v-36h-8v36zm-4-55c-2 0-4 2-4 4s2 4 4 4 4-2 4-4-2-4-4-4z"/>
<path d="m314.9 149v-3c0-9.998-6-17-17-17-12 0-18 9-18 19 0 11 7 18 19 18 5 0 10-1 15-3v-7c-6 3-7 3-15 3-6 0-10-5-10-10zm-9-6h-17c1-4 3-6.998 8-6.998s8 2 9 6.998z"/>
<path d="m353.9 155c0-7-6-10-13-11h-2c-3 0-7-1-7-4 0-2.998 4-3.998 7-3.998 6 0 6 0 12 2.998v-6.998c-4-1-8-2-13-2-8 0-16 3-16 11 0 7 5 9 12 11h2c3 1 7 1 7 4s-4 4-7 4c-7 0-8-1-14-3v8c4 1 10 2 14 2 8 0 17-3 17-11z"/>
<path d="m388.9 185h8v-19c2 0 4 1 7 1 13 0 20-7 20-19 0-11-7-19-20-19-5 0-12 1-16 2v54zm8-26v-22c2 0 3-1 6-1 7 0 11 3.998 11 12 0 7-4 12-11 12-3 0-4 0-6-1z"/>
<path d="m442.9 166v-55h-8v55z"/>
<path d="m487.9 166v-36h-9v20c0 5-3 9-9 9-5 0-7-3-7-8v-21h-9v21c0 9 4 15 14 15 4 0 8-2 10-5v4h9z"/>
<path d="m528.9 155c0-7-6-10-13-11h-2c-3 0-7-1-7-4 0-2.998 4-3.998 7-3.998 6 0 6 0 12 2.998v-6.998c-4-1-8-2-13-2-8 0-16 3-16 11 0 7 5 9 12 11h2c3 1 7 1 7 4s-4 4-7 4c-7 0-8-1-14-3v8c4 1 10 2 14 2 8 0 17-3 17-11z"/>
<path d="m585.9 165v-7c-2 1-5 1-7 1h-1c-4 0-5-1-5-5v-19h10v-6h-10v-10h-5l-3 10h-4v6h4v19c0 9 4 12 14 12 2 0 5 0 7-1z"/>
<path d="m630.9 159c-1 1-1 1-3 1-1 0-2 0-2-2v-15c0-7.998-6-13-16-13-3.998 0-8.998 1-13 4v6.998c4-2.998 7-3.998 13-3.998 4 0 8 1.998 8 5.998v1c-2 0-5-1-8-1-8.998 0-16 4-16 12 0 7 5 12 13 12 3.998 0 7.998-1 11-4 0 2 2 4 6 4s8-5 8-8zm-14-9c0 6-2 10-8.998 10-3 0-6-1-6-5s1-5 6.998-6c3 0 5 0 7 1z"/>
<path d="m659.9 140 3-7.998c-1-1-5-2-8-2s-5 1-7 4v-3h-9v36h9v-23c0-4 2-5.998 5-5.998 2 0 4 .998 7 2.998z"/>
<path id="d" d="m701.9 110h-8v19c-2 0-4-1-7-1-13 0-20 7-20 19 0 11 7 19 20 19 5 0 11-1 16-2v-54zm-8 26v22c-2 0-3 1-6 1-7 0-11-4-11-12 0-7 4-12 11-12 3 0 4 0 6 1z"/>
<path d="m722.9 164v-6h-9v8c0 2-1 5-4 7 6 0 13-6 13-10z"/>
<path d="m9.906 236v-55h-8v55z"/>
<path d="m54.91 219v-3c0-10-6-17-17-17-12 0-18 9-18 19 0 11 7 18 19 18 5 0 10-1 15-3v-7c-6 3-7 3-15 3-6 0-10-5-10-10zm-9-6h-17c1-4 3-7 8-7s8 2 9 7z"/>
<path d="m93.91 225c0-7-6-10-13-11h-2c-3 0-7-1-7-4s4-4 7-4c6 0 6 0 12 3v-7c-4-1-8-2-13-2-8 0-16 3-16 11 0 7 5 9 12 11h2c3 1 7 1 7 4s-4 4-7 4c-7 0-8-1-14-3v8c4 1 10 2 14 2 8 0 17-3 17-11z"/>
<path d="m170.9 231v-9c-4.998 5-9.998 7-17 7-12 0-17-9-17-21s4-21 17-21c7 0 12 2 17 7v-9c-4.998-3-11-5-17-5-18 0-27 13-27 29s8 28 27 28c6 0 13-2 17-5z"/>
<path d="m214.9 218c0-9-6-19-18-19s-18 8-19 19c0 10 7 19 19 19s18-9 18-19zm-9 0c0 6-3 11-9 11-7 0-9-7-9-12 0-6 3-11 9-11s9 5 9 11z"/>
<path d="m257.9 236v-21c0-9-4-15-14-15-4 0-8 1-11 4v-3h-9v36h9v-20c0-6 4-9 9-9s7 3 7 8v21h9z"/>
<path d="m298.9 234v-7c-5 2-6 3-12 3-7 0-11-4-11-12 0-7 4-12 11-12 5 0 7 1 12 3v-7c-4-1-7-2-12-2-13 0-20 7-20 19 0 11 7 19 20 19 4 0 9-1 12-2z"/>
<path d="m342.9 219v-3c0-10-6-17-17-17-12 0-18 9-18 19 0 11 7 18 19 18 5 0 10-1 15-3v-7c-6 3-7 3-15 3-6 0-10-5-10-10zm-9-6h-17c1-4 3-7 8-7s8 2 9 7z"/>
<path d="m350.9 255h8v-19c2 0 4 1 7 1 13 0 20-7 20-19 0-11-7-19-20-19-5 0-12 1-16 2v54zm8-26v-22c2 0 3-1 6-1 7 0 11 4 11 12 0 7-4 12-11 12-3 0-4 0-6-1z"/>
<path d="m418.9 235v-7c-2 1-5 1-7 1h-1c-4 0-5-1-5-5v-19h10v-6h-10v-10h-5l-3 10h-4v6h4v19c0 9 4 12 14 12 2 0 5 0 7-1z"/>
<path d="m456.9 225c0-7-6-10-13-11h-2c-3 0-7-1-7-4s4-4 7-4c6 0 6 0 12 3v-7c-4-1-8-2-13-2-8 0-16 3-16 11 0 7 5 9 12 11h2c3 1 7 1 7 4s-4 4-7 4c-7 0-8-1-14-3v8c4 1 10 2 14 2 8 0 17-3 17-11z"/>
<path d="m520.9 225c0-7-6-10-13-11h-2c-3 0-7-1-7-4s4-4 7-4c6 0 6 0 12 3v-7c-4-1-8-2-13-2-8 0-16 3-16 11 0 7 5 9 12 11h2c3 1 7 1 7 4s-4 4-7 4c-7 0-8-1-14-3v8c4 1 10 2 14 2 8 0 17-3 17-11z"/>
<path d="m565.9 218c0-9-6-19-18-19s-18 8-19 19c0 10 7 19 19 19s18-9 18-19zm-9 0c0 6-3 11-9 11-7 0-9-7-9-12 0-6 3-11 9-11s9 5 9 11z"/>
<path d="m608.9 236v-21c0-9-3.998-15-14-15-4 0-8 1-11 4v-3h-9v36h9v-20c0-6 4-9 9-9s7 3 7 8v21h8.998z"/>
<path d="m642.9 235v-7c-2 1-5 1-7 1h-1c-4 0-5-1-5-5v-19h10v-6h-10v-10h-5l-3 10h-4v6h4v19c0 9 4 12 14 12 2 0 5 0 7-1z"/>
<path d="m34.91 289v-3c0-10-6-17-17-17-12 0-18 9-18 19 0 11 7 18 19 18 5 0 10-1 15-3v-7c-6 3-7 3-15 3-6 0-10-5-10-10zm-9-6h-17c1-4 3-7 8-7s8 2 9 7z"/>
<path d="m78.91 306v-21c0-9-4-15-14-15-4 0-8 1-11 4v-3h-9v36h9v-20c0-6 4-9 9-9s7 3 7 8v21h9z"/>
<path d="m122.9 306v-36h-23v-6c0-3 1-6 4-6h5v-7h-6c-10 0-13 6-13 14v5h-5v6h5v29h9v-29h14v29h9zm-4-55c-2 0-4 2-4 4s2 4 4 4 4-2 4-4-2-4-4-4z"/>
<path d="m168.9 306v-21c0-9-4-15-14-15-4 0-8 1-11 4v-3h-9v36h9v-20c0-6 4-9 9-9s7 3 7 8v21h9z"/>
<path d="m213.9 306v-36h-8v36zm-4-55c-2 0-4 2-4 4s2 4 4 4 4-2 4-4-2-4-4-4z"/>
<path d="m258.9 306v-21c0-9-4-15-14-15-4 0-8 1-11 4v-3h-9v36h9v-20c0-6 4-9 9-9s7 3 7 8v21h9z"/>
<path d="m292.9 305v-7c-2 1-5 1-7 1h-1c-4 0-5-1-5-5v-19h10v-6h-10v-10h-5l-3 10h-4v6h4v19c0 9 4 12 14 12 2 0 5 0 7-1z"/>
<path d="m327.9 253h-10l-11 14h8zm5 36v-3c0-10-6-17-17-17-12 0-18 9-18 19 0 11 7 18 19 18 5 0 10-1 15-3v-7c-6 3-7 3-15 3-6 0-10-5-10-10zm-9-6h-17c1-4 3-7 8-7s8 2 9 7z"/>
<path d="m372.9 312c0-8-10-13-19-13h-2c-2 0-6-2-6-3s1-1 2-1c1 1 5 1 6 1 7 0 13-6 13-13 0-2-1-5-2-7h5v-5h-10c-1 0-4-1-5-1-7 0-13 6-14 13 0 3 1 6 3 8-3 0-5 2-5 5 0 2 1 4 4 5-4 2-7 6-7 10 0 6 7 13 17 13s19-6 19-13zm-12-29c0 3-3 7-6 7s-6-3-6-7 3-7 6-7 6 3 6 7zm2 29c0 4-4 6-9 6s-9-2-9-6 3-6 9-6c5 0 9 3 9 6z"/>
<path d="m400.9 280 3-8c-1-1-5-2-8-2s-5 1-7 4v-3h-9v36h9v-23c0-4 2-6 5-6 2 0 4 1 7 3z"/>
<path d="m437.9 253h-10l-11 14h8zm5 36v-3c0-10-6-17-17-17-12 0-18 9-18 19 0 11 7 18 19 18 5 0 10-1 15-3v-7c-6 3-7 3-15 3-6 0-10-5-10-10zm-9-6h-17c1-4 3-7 8-7s8 2 9 7z"/>
<path d="m481.9 295c0-7-6-10-13-11h-2c-3 0-7-1-7-4s4-4 7-4c6 0 6 0 12 3v-7c-4-1-8-2-13-2-8 0-16 3-16 11 0 7 5 9 12 11h2c3 1 7 1 7 4s-4 4-7 4c-7 0-8-1-14-3v8c4 1 10 2 14 2 8 0 17-3 17-11z"/>
<path d="m36.91 369c-1 1-1 1-3 1-1 0-2 0-2-2v-15c0-8-6-13-16-13-4 0-9 1-13 4v7c4-3 7-4 13-4 4 0 8 2 8 6v1c-2 0-5-1-8-1-9 0-16 4-16 12 0 7 5 12 13 12 4 0 8-1 11-4 0 2 2 4 6 4s8-5 8-8zm-14-9c0 6-2 10-9 10-3 0-6-1-6-5s1-5 7-6c3 0 5 0 7 1z"/>
<path d="m78.91 376v-36h-9v20c0 5-3 9-9 9-5 0-7-3-7-8v-21h-9v21c0 9 4 15 14 15 4 0 8-2 10-5v4h9z"/>
<path d="m145.9 365c0-7-6-10-13-11h-2c-3 0-7-1-7-4s4-4 7-4c6 0 6 0 12 3v-7c-4-1-8-2-13-2-8 0-16 3-16 11 0 7 5 9 12 11h2c3 1 7 1 7 4s-4 4-7 4c-7 0-8-1-14-3v8c4 1 10 2 14 2 8 0 17-3 17-11z"/>
<path d="m177.9 375v-7c-2 1-5 1-7 1h-1c-3.998 0-4.998-1-4.998-5v-19h9.998v-6h-9.998v-10h-5l-3 10h-4v6h4v19c0 9 4 12 14 12 2 0 5 0 7-1z"/>
<path d="m221.9 369c-1 1-1 1-3 1-1 0-2 0-2-2v-15c0-8-6-13-16-13-4 0-9 1-13 4v7c4-3 7-4 13-4 4 0 8 2 8 6v1c-2 0-5-1-8-1-9 0-16 4-16 12 0 7 5 12 13 12 4 0 8-1 11-4 0 2 2 4 6 4s8-5 8-8zm-14-9c0 6-2 10-9 10-3 0-6-1-6-5s1-5 7-6c3 0 5 0 7 1z"/>
<path d="m263.9 376v-21c0-9-4-15-14-15-4 0-8 1-11 4v-3h-9v36h9v-20c0-6 4-9 9-9s7 3 7 8v21h9z"/>
<use transform="translate(-393 210)" xlink:href="#d"/>
<path d="m355.9 369c-1 1-1 1-3 1-1 0-2 0-2-2v-15c0-8-6-13-16-13-4 0-9 1-13 4v7c4-3 7-4 13-4 4 0 8 2 8 6v1c-2 0-5-1-8-1-9 0-16 4-16 12 0 7 5 12 13 12 4 0 8-1 11-4 0 2 2 4 6 4s8-5 8-8zm-14-9c0 6-2 10-9 10-3 0-6-1-6-5s1-5 7-6c3 0 5 0 7 1z"/>
<path d="m384.9 350 3-8c-1-1-5-2-8-2s-5 1-7 4v-3h-9v36h9v-23c0-4 2-6 5-6 2 0 4 1 7 3z"/>
<use transform="translate(-275 210)" xlink:href="#d"/>
<g transform="translate(-23.87)">
 <path d="m101.9 948c-3 6-7-5-11-1-7 2-15 6-16 14-1 7-2 14 0 21 2 5 8 9 13 6 7-3 12-9 16-15 6-4 4 6 1 8-5 8-14 17-25 14-7-2-13-9-12-17 0-8-1-17 2-25 5-8 14-13 23-13 4 0 9 3 9 7z"/>
 <path d="m119.9 941c2 1 2 4 0 6-1 2-3 5-3 8 0 2-1 5-3 5s-4-2-3-5c1-1 1-3 1-5s0-5 2-7c1-2 3-4 6-2z"/>
 <path d="m146.9 967c-3-4-8-6-13-5-4 1-8 5-9 9 7 0 14-1 21-3 0 0 1 0 1-1zm9 11c3 4-3 9-6 12-7 5-17 7-24 2-8-5-10-17-6-25 4-5 10-12 17-10 5 0 11 2 14 7 4 5-1 10-7 10-7 1-14 2-20 2-2 5 3 10 7 12 7 3 14-1 18-6 2-1 4-4 6-5z"/>
 <path d="m160.9 990c0-5 5-1 6 1 3.998 3 9.998 3 12-1 4-5-2-8-6-9-4.998-1-9.998-3-13-8-1-5 3-9 6-12 3.998-3 9.998-3 15-3 3 1 7 5 5 8-3 1-5-4-9-3-5 1-8.998 3-12 7 1 4 7.998 5 12 6s9 4 9 9c0 7-6 15-14 13-3.998 0-9.998-.997-11-6.997v-2z"/>
 <path d="m201.9 959c-4 0-8 1-12 1-4-1-1-5 2-5 3-1 7-1 10-2 1-2 0-5 0-7 0-4-1-7 0-11 0-2 4-3 5-1 1 6 1 12 2 18 4 0 7-2 11 0 3 1 0 5-2 5-3 1-6 1-9 2 0 11 1 21 3 32 0 3 1 5 1 7.997-1 1.995-5 1.995-7 0-2-3.997-1-7.997-1-13-1-8-2-17-3-26z"/>
 <path d="m246.9 965c0-1 1-2 3-3 1-1 1-1 1-3 0-1 1-3 1-4 1-1 3-1 4 0 0 1 2 1 3 1 4-1 7-2 11-2 3 0 6 0 9 1 2 1 5 2 6 5s0 7 0 10c-1 4-3 7-5 11-3 5-7 9-13 10h-7s-1 0 0 0l3 14.99c0 1 0 3-1 4s-3 1-4 0c-1 0-2-2-2-4-2-6.995-3-13.99-4-21.99 0-5-1-10-1-16 0-1 0-2-1-2s-3 0-3-1zm32-4h-5c-4 0-8 0-13 2-1 0-2 0-3 1 0 6 0 12 1 18 0 1 0 2 1 3 1 0 2 0 4 1h3c2-1 4-3 6-5 3-3 5-7 6-11 1-2 1-5 0-7 0 0-1-1-1-2z"/>
 <path d="m309.9 987c0-2 4-3 4-5-2-2-5-2-7-2-4 0-8 1-10 5-2 3 0 5 3 5s6-1 9-3zm12 4c0 2-3 5-5 2-1-1-1-5-2-6-3 3-8 6-12 7-3 0-7 0-10-2-2-2-2-6-2-9 1-4 5-7 9-8s9-3 13-1c1 1 4 3 3 0 0-4 0-8-2-11-1-3-5-2-7-1-4 1-8 3-13 4-3 1-3-4 0-5 4-2 8-3 12-4s9-2 12 1 4 7 4 11c0 7 0 14 1 21z"/>
 <path d="m327.9 990c1-6 5-1 7 1 3 3 9 2 11-2 4-4-1-8-5-8-4-2-9-2-13-6-4-3 0-9 2-12 3-4 8-5 14-5 3 0 6 0 8 2 3 2 2 8-2 5-3-4-8-2-12 0-4 1-10 7-2 9 5 2 12 3 16 7 3 6-1 15-8 17-4 0-9 0-13-1.997-2-1-3-4-3-6z"/>
 <path d="m393.9 959c-4 0-8 1-12 1-4-1-1-5 2-5 3-1 7-1 10-2 1-2 0-5 0-7 0-4-1-7 0-11 0-2 4-3 5-1 1 6 1 12 2 18 4 0 7-2 11 0 3 1 0 5-2 5-3 1-6 1-9 2 0 11 1 21 3 32 0 3 1 5 1 7.997-1 1.995-5 1.995-7 0-2-3.997-1-7.997-1-13-1-8-2-17-3-26z"/>
 <path d="m442.9 961c5 0 4 5 0 6-6 3-10 9-13 16-2 4-1 10-4 14-5 1.997-5-5-5-9-1-9-2-18-1-27 0-5 7-3 5 2 0 4 1 8 2 12 3-6 9-11 16-13h2z"/>
 <path d="m453.9 963c5-5 12-8 19-8 5 0 13 1 14 7 2 10-1 21-8 28-7 6-19 7.997-26 2-4-4-7-9-6-15 0-5 3-10 7-14zm12 27c7 0 11-8 14-14 1-5 4-14-4-14-5 0-10 0-14 3-5 4-10 9-8 16 1 6 7 9 12 9z"/>
 <path d="m491.9 965c0-3 4-3 4-6 0-2 2-6 5-4 1 2 4 1 6 1 6-1 13-2 19 0 4 1 6 5 6 9 0 6-3 12-6 17-3 6-10 10-17 10h-4c1 5.997 3 10.99 3 16.99 0 3-3 4-5 2-2-1-2-4-2-6-3-10.99-3-22.99-5-34.99 0-3-4-1-4-4zm32-4c-3-1-7 0-10 0s-7 1-10 2c0 7 0 14 2 20 1 1 3 1 5 2 3 0 6-2 8-5 4-4 7-9 7-15 0-2 0-4-2-6z"/>
 <path d="m568.9 959c-4 0-8 1-12 1-4-1-1-5 2-5 3-1 7-1 10-2 1-2 0-5 0-7 0-4-1-7 0-11 0-2 4-3 5-1 1 6 1 12 2 18 4 0 7-2 11 0 3 1 0 5-2 5-3 1-6 1-9 2 0 11 1 21 3 32 0 3 1 5 1 7.997-1 1.995-5 1.995-7 0-2-3.997-1-7.997-1-13-1-8-2-17-3-26z"/>
 <path d="m620.9 953c-3 0-4-3-7-5-1-1-4-6-5-2-1.998 2-2.998 6-5.998 8-2 1-5-1-3-3 1-2 3-4 4-6s3-5 4.998-6c3 0 4 3 6 4 2 2 5 5 7 8 0 1 0 3-2 3zm-26 11c4-3 9-7 15-8 5 0 10-1 14 1s5 7 5 11c0 7-3 14-7 20-5 7-16 9-24 6-4-2-7-5-9-9-1-4-1-8 0-12s3-7 6-10zm12 27c4.998 0 8.998-4 11-8 3-5 4-11 4-16-1-2-4-3-7-3-4 1-7.998 0-12 3-3 3-7 6-9 10-1 5 0 11 5 13 2 1 5 2 7 2z"/>
 <path d="m645.9 957c-4 0-8 1-12 1-4-1-1-5 2-5 3-1 7-1 10-2 1-2 0-5 0-7 0-4-1-7 0-11 0-2 4-3 5-1 1 6 1 12 2 18 4 0 7-2 11 0 3 1 0 5-2 5-3 1-6 1-9 2 0 11 1 21 3 32 0 3 1 5 1 8-1 1.997-5 1.997-7 0-2-4-1-8-1-13-1-8-2-17-3-26z"/>
 <path d="m692.9 930c-4-6 10-5 10-2-3 17-2 35-4 52-5 5-4-6-4-9 0-13-1-27-1-40zm1 66c-8-2 2-14 7-7 1 4-2 9.997-7 7z"/>
</g>
<path id="RIP" fill="#fff" stroke="#000" stroke-linejoin="round" stroke-width="6px" d="m481.5 596v-49c0-60 20-147 90-147 60 0 90 107 90 177v60zl-420 177 190 50 410-186z"/>
</svg>
