<?xml version="1.0" encoding="UTF-8"?>
<svg version="1.1" viewBox="0 40 760.562 1027.53" xmlns="http://www.w3.org/2000/svg" xmlns:xlink="http://www.w3.org/1999/xlink">
<metadata xmlns:rdf="http://www.w3.org/1999/02/22-rdf-syntax-ns#" >
 <rdf:RDF xmlns:cc="http://creativecommons.org/ns#" xmlns:dc="http://purl.org/dc/elements/1.1/">
  <dc:source>https://github.com/cpp-frug/materials/blob/gh-pages/images/cpp-concepts-bjarne-path.2017.svg</dc:source>
  <cc:Work rdf:about="https://github.com/cpp-frug/materials/blob/gh-pages/images/cpp-concepts-bjarne-path.2017.svg">
   <dc:format>image/svg+xml</dc:format>
   <dc:type rdf:resource="http://purl.org/dc/dcmitype/StillImage"/>
   <dc:creator>Oliver H</dc:creator>
   <dc:language>fr</dc:language>
   <dc:date>2017</dc:date>
   <cc:license rdf:resource="http://creativecommons.org/licenses/by-sa/3.0/"/>
  </cc:Work>
  <dc:rights>CC BY-SA 3.0</dc:rights>
   <cc:License rdf:about="http://creativecommons.org/licenses/by-sa/3.0/">
    <cc:permits rdf:resource="http://creativecommons.org/ns#Reproduction"/>
    <cc:permits rdf:resource="http://creativecommons.org/ns#Distribution"/>
    <cc:permits rdf:resource="http://creativecommons.org/ns#DerivativeWorks"/>
    <cc:requires rdf:resource="http://creativecommons.org/ns#Notice"/>
    <cc:requires rdf:resource="http://creativecommons.org/ns#Attribution"/>
    <cc:requires rdf:resource="http://creativecommons.org/ns#ShareAlike"/>
   </cc:License>
 </rdf:RDF>
</metadata>
<g id="texte" stroke="#fff" fill="#000">
 <path d="m341.3 97v-7h-24l18-19c3-4 6-8 6-14 0-10-8-16-19-16-5 0-10 2-16 4v9c5-3 10-5 16-5 5 0 9 3 9 9 0 4-3 9-6 11-1 1-18 19-20 21v7h35z"/>
 <path d="m388.3 69c0-11-3-29-19-29s-19 17-19 29c0 11 3 28 19 28s19-17 19-28zm-9 0c0 7 0 21-10 21-9 0-10-14-10-21s0-21 10-21c9 0 10 15 10 21z"/>
 <path d="m411.3 97v-55h-8l-8 7v8l8-6v47h8z"/>
 <path d="m455.3 45v-4h-36v7h25l-18 48h9l19-51z"/>
 <path d="m4.16 889c4-7 11-12 18-14 4-1 9-2 14-1 3 1 5 5 7 8 2 6 1 13 0 19-1 4-2 9-4 13 4 3 8 6 11 11 2 3-2 4-4 2-3-1-5-4-9-6-1 0-2-2-2-1-4 8-14 12-23 9-4-1-7-4-8-7-3-5-5-12-4-18 0-5 2-11 4-16zm15 18c0-2 3-4 5-2 3 1 6 3 9 5 2-5 3-10 5-15 0-3 1-6-1-8s-4-4-8-4h-10c-4 2-7 5-9 9-1 2-2 5-2 8-1 6-2 12 0 18 1 3 3 7 7 8 5 1 10-1 14-5 2-2-2-4-3-6-2-2-5-3-7-6z"/>
 <path d="m56.16 891c6 1 2 9 3 13 0 7 0 14 2 20 4 2 8-4 11-7 5-7 8.002-15 9.002-23 0-6 8-5 6 1-1 8-3 17 0 25 1 3 4 12-2 10-3-3-3-11-5-12-4.002 6-8.002 12-15 14-6 1-9-4-9-10-1-9-2-18-1-28 0-1 1-3 2-3z"/>
 <path d="m100.2 897c5-5 12-8 19-8 5 0 13 1 14 7 2 10-1 21-8 28-7 6-19 8-26 2-4-4-7-9-6-15 0-5 3-10 7-14zm12 27c7 0 11-8 14-14 1-5 4-14-4-14-5 0-10 0-14 3-5 4-10 9-8 16 1 6 7 9 12 9z"/>
 <path d="m141.2 889c7-3 5 8 6 12 0 8 1 17 0 26-6 4-7-4-7-9 0-9-1-18-1-27 0-1 0-2 1-2zm-1-8c1-6 11 0 6 4-2 2-6-1-6-4z"/>
 <path d="m173.2 872c-1-1-1-4 0-4h9c0 3-2 31-4 34l-3 12c0 2-3 2-4 0-1-3-1-6-1-9s1-30 1-33zm-1 58c-2 0-3-3-2-5s2-4 4-4 4 0 5 2c0 2 0 4-1 6s-3 1-5 0z"/>
 <path d="m253.2 885c-3-6-12-5-18-4-8 0-4 10-4 15 0 8 9 3 14 1 4-2 6-8 9-13zm-22-11c6 0 13-2 19 0 7 0 11 7 9 14-1 6-4 10-9 14-5 3-10 6-16 5-3-1-1 3-1 5 0 6 1 13 0 19-5 7-7-4-7-9-1-12-2-25-2-37-5 5-7-4-2-6 3-3 6-6 10-5z"/>
 <path d="m279.2 923c1-2 8-5 2-7-5-1-13 0-15 5s5 5 9 3c1 0 3-1 4-2zm12 4c-1 6-7 3-6-2 0-3-4 3-7 3-5 3-11 3-16 0-3-3-3-9 0-12 4-4 10-7 16-7 3-1 9 6 8 0 0-4 0-11-4-12-6 0-12 3-18 5-6 0 0-7 4-7 6-2 12-5 18-2 5 3 6 9 6 14 0 6 0 13 1 20z"/>
 <path d="m299.2 924c1-6 5-1 7 1 3 3 9 2 11-2 4-4-1-8-5-8-4-2-9-2-13-6-4-3 0-9 2-12 3-4 8-5 14-5 3 0 6 0 8 2 3 2 2 8-2 5-3-4-8-2-12 0-4 1-10 7-2 9 5 2 12 3 16 7 3 6-1 15-8 17-4 0-9 0-13-2-2-1-3-4-3-6z"/>
 <path d="m345.2 899c0-3 4-3 4-6 0-2 2-6 5-4 1 2 4 1 6 1 6-1 13-2 19 0 4 1 6 5 6 9 0 6-3 12-6 17-3 6-10 10-17 10h-4c1 6 3 11 3 17 0 3-3 4-5 2-2-1-2-4-2-6-3-11-3-23-5-35 0-3-4-1-4-4zm32-4c-3-1-7 0-10 0s-7 1-10 2c0 7 0 14 2 20 1 1 3 1 5 2 3 0 6-2 8-5 4-4 7-9 7-15 0-2 0-4-2-6z"/>
 <path d="m397.2 897c5-5 12-8 19-8 5 0 13 1 14 7 2 10-1 21-8 28-7 6-19 8-26 2-4-4-7-9-6-15 0-5 3-10 7-14zm12 27c7 0 11-8 14-14 1-5 4-14-4-14-5 0-10 0-14 3-5 4-10 9-8 16 1 6 7 9 12 9z"/>
 <path d="m438.2 891c6 1 2 9 3 13 0 7 0 14 2 20 4 2 8-4 11-7 5-7 8-15 9-23 0-6 8-5 6 1-1 8-3 17 0 25 1 3 4 12-2 10-3-3-3-14-3-14s-10 14-17 16c-6 1-9-4-9-10-1-9-2-18-1-28 0-1 1-3 2-3z"/>
 <path d="m503.2 895c4 0 5 5 0 5-6 3-11 9-14 16-2 5-1 10-4 14-5 2-5-5-5-9-1-9-2-19-1-28 1-5 6-2 5 2 0 4 1 8 2 12 3-6 8-11 15-13h2z"/>
 <path d="m565.2 880c-3 6-7-5-11-1-7 2-15 6-16 14-1 7-2 14 0 21 2 5 8 9 13 6 7-3 12-9 16-15 6-4 4 6 1 8-5 8-14 17-25 14-7-2-13-9-12-17 0-8-1-17 2-25 5-8 14-13 23-13 4 0 9 3 9 7z"/>
 <path d="m612.2 899c6 1 2 9-3 7-3 0-7 0-10 2v20h-6v-21c-4 0-9 2-14 1-3-5 4-7 7-7 2 0 4-1 6-1 0-4-1-8 1-11 5-4 7 3 7 7 0 1 0 4 1 4 4 0 8-1 12-1z"/>
 <path d="m657.2 899c6 1 2 9-3 7-3 0-7 0-10 2v20h-6v-21c-4 0-9 2-14 1-3-5 4-7 7-7 2 0 4-1 6-1 0-4-1-8 1-11 5-4 7 3 7 7 0 1 0 4 1 4 4 0 8-1 12-1z"/>
 <path d="m681.2 929c-4-1-3-7-3-11v-22c-3 3-5 8-9 8-4-3 1-6 3-9l6-9c5-3 5 5 5 8 0 11 1 22 1 33 0 1-1 2-2 2z"/>
 <path d="m690.2 886s11 0 17-1c2 0 4 0 5 2s0 5 0 7c-1 7-2 14-4 20l-3 12c0 2-3 2-5 1s-1-3-1-5c1-7 3-13 5-20 1-4 1-8 2-12h-15z"/>
 <path d="m745.2 926c-2-9 13-3 6 2-2 4-7 1-6-2zm4-13c-5-3-4-14 0-19 4-4 8-12 4-17-3-6-13 0-12 5 0 3 4 7 6 2-6-5 7-8 5 0 0 5-6 8-10 5-5-3-8-10-3-15 3-4 11-8 16-3 6 5 7 14 3 20-2 5-8 9-7 15 0 2 0 6-2 7z"/>
 <path d="m38.16 976c1-8 7-20-2-25-12-3-23 9-23 21 0 7 3 17 11 19 7 0 12-8.003 14-14zm-5 18c-9 6.997-23 0-25-10-5-13-1-32 13-38 7-5 19-8 24 2 5 12 2 26-3 37-2 3-4 8.003-8 9.003z"/>
 <path d="m79.16 994q-2.002 0-4.002-1t-3-1-1 0q-1-1-9-3.003l-2-1v4.003q0 2 0 3 0 4-2 4-3 0-3-3-1-3-1-16 0-11-1-14-1-7-1-19 0-3 2-3t3 2q0 1 1 6 0 5 1 11 0 6 1 9v2l7-6t1-1 1-1 1-1 1-1 1-1q1 0 1-1 0 0 1 0 0 0 1 0t2 1q1.002 1 1.002 2t0 1-1.002 1q-1 1-2 2-3 4-12 10-2 2-3 3 0 0 1 1l8 3t1 0 1 0 2 1q1 0 2 1 1 0 2 1 1.002 0 1.002 1.003 1 0 1 1 0 0 1 1 0 0 0 1t0 1-1 0z"/>
 <path d="m114.2 968c-3-3-7-6-12-5-5 0-8 5-11 9 7 0 14-1 21-2 0 0 1 0 1-1zm9 11c3 3-3 8-5 11-6 6-17 9-25 3-8-5.003-10-16-6-24 3-5 8-11 15-11 6 0 12 0 16 5 4 3 3 10-2 11-8 2-16 3-24 3 0 4 1 7 4 10 4 4.003 11 4.003 15 1 5-2 8-7 13-9z"/>
 <path d="m131.2 961c2 0 2 3 2 5v19c0 3 3 1 4 0 3-3 6-6 7-10 1-3 2-7 3-11 0-2 2-4 4-4s2 3 2 5l-3 15v7c2-1 4-2 6-1 2 2 0 4.003-2 5.003-1 0-2 1-3 1v11c0 3 0 6-1 9-1 2-4 1-6 0-3-1-5-2-6-5s-3-6-2-8.997c1-2 2-4 4-5 1-1 5-1 5-4.003 0-2 0-3-2-1-2 3.003-6 5.003-10 5.003s-6-4.003-6-8.003v-19c0-2 1-4 3-4zm17 46c1-3 0-6 0-8.997v-2c-1 2-3 3.996-3 6.997 0 2 2 3 4 4z"/>
 <path d="m259.2 981v13c0 3-4 3-4 0 0-8.003 0-16-1-24 0-3 0-5-1-8-2-1-3 2-5 4-4 8-6 17-7 26 0 2 0 5-3 5-2-1-1-4-2-6 0-6.003 0-13-2-19-1-3-3-6-5-8-2 0-3 4-4 5-1 3-4 7-3 11 0 2-1 4-1 7v11c0 1.996-3 3.997-4 1-1-3-1-6-1-10 0-7 0-15-1-22 0-3-1-7 0-10s4 1 4 3 1 5 1 7l3-6c1-2 2-4 5-4 4 0 7 2 9 5s2 7 3 10c2-5 4-10 9-14 2-2 6-2 8 0 3 3 3 7 3 11v10z"/>
 <path d="m288.2 988c0-2 2-3 4-4s0-3-2-3c-4-1-8-1-12 1-2 1-4 4-3 7 2 1.003 4 2.003 6 1.003 2 0 4-1.003 6-2.003zm12 4.003c0 2-2 4-4 4-1-1-2-3-2-4s0-4.003-1-2c-3 3-6 5-10 6-3 1-6 0-10-1-2 0-3-2-3-4 0-3.003 0-7.003 2-9.003 3-2 6-4 10-5 3-1 7-1 10 0 1 1 3 1 3 1 0-4 0-8-1-11 0-1-1-3-3-3-5 0-11 3-16 5-1 0-4 1-4-1s2-3 3-4c3-1 6-2 9-3 4-1 8-2 12 0 3 2 5 6 5 10 0 8 0 15 1 23z"/>
 <path d="m308.2 956c6-3 5 7 6 10 0 9 1 18 0 27-3 5-9-1-7-5.003 0-10-1-19-1-29 0-1 0-2 1-2zm-3-8c1-7 11 0 5 4-2 1-6-2-5-4z"/>
 <path d="m322.2 991c2-6.003 6 2 9 3 5 2 10-2 11-7.003-2-5-9-5-14-7-5-1-11-7-6-12 3-6 10-9 17-9 4-1 7 1 9 4 2 4-4 4-5 1-5-2-11 1-14 4-4 4 2 6 5 7 4 1 10 2 12 7 3 8.003-4 18-13 16-5 0-12-2-12-8z"/>
 <path d="m379.2 964c5-5 12-8 19-8 5 0 13 1 14 7 2 10-1 21-8 28-7 6-19 8-26 2-4-4.003-7-9.003-6-15 0-5 3-10 7-14zm12 27c7 0 11-8.003 14-14 1-5 4-14-4-14-5 0-10 0-14 3-5 4-10 9-8 16 1 6 7 9.003 12 9.003z"/>
 <path d="m415.2 959c-1-5 6-4 5 0 1 6 1 12 2 19 1-5 3-10 7-15 3-3 6-9 11-7 5 3 6 10 6 16 0 7 1 14 0 21 0 4-7 2-5-2 0-9.003 1-18-1-27-3-5-6 3-8 5-4 7-8 14-8 23 0 3-2 7.996-4 3-1-5-1-11-2-17 0-7-1-14-2-20z"/>
 <path d="m491.2 988c0-2 2-3 4-4s0-3-2-3c-4-1-8-1-12 1-2 1-4 4-3 7 2 1.003 4 2.003 6 1.003 2 0 4-1.003 6-2.003zm12 4.003c0 2-2 4-4 4-1-1-2-3-2-4s0-4.003-1-2c-3 3-6 5-10 6-3 1-6 0-10-1-2 0-3-2-3-4 0-3.003 0-7.003 2-9.003 3-2 6-4 10-5 3-1 7-1 10 0 1 1 3 1 3 1 0-4 0-8-1-11 0-1-1-3-3-3-5 0-11 3-16 5-1 0-4 1-4-1s2-3 3-4c3-1 6-2 9-3 4-1 8-2 12 0 3 2 5 6 5 10 0 8 0 15 1 23z"/>
 <path d="m535.2 962c4 0 5 5 0 5-6 3-11 9-14 16-2 5-1 10-4 14-5 2-5-5-5-9.003-1-9-2-19-1-28 1-5 6-2 5 2 0 4 1 8 2 12 3-6 8-11 15-13h2z"/>
 <path d="m570.2 962c4 0 5 5 0 5-6 3-11 9-14 16-2 5-1 10-4 14-5 2-5-5-5-9.003-1-9-2-19-1-28 1-5 6-2 5 2 0 4 1 8 2 12 3-6 8-11 15-13h2z"/>
 <path d="m607.2 955c-5 0-8-11-12-7-1 3-8 12-9 5 2-5 6-10 10-14 5 1 9 7 12 11 1 1 1 4-1 5zm0 12c-3-5-11-7-16-3-3 2-10 9-1 7 6-1 13 0 18-4zm9 11c3 4-4 10-8 13-7 5-18 6-25 0-8-7.003-8-21 0-28 4-4 10-7 16-6 6 0 13 5 14 11-1 7-11 6-16 7-4 0-9 1-13 1-1 7 5 12 11 13 8 0 13-7 20-11z"/>
 <path d="m634.2 958c-4 0-8 1-12 1-4-1-1-5 2-5 3-1 7-1 10-2 1-2 0-5 0-7 0-4-1-7 0-11 0-2 4-3 5-1 1 6 1 12 2 18 4 0 7-2 11 0 3 1 0 5-2 5-3 1-6 1-9 2 0 11 1 21 3 32 0 3 1 5 1 8-1 1.996-5 1.996-7 0-2-4-1-8-1-13-1-8-2-17-3-26z"/>
 <path d="m686.2 968c-3-3-7-6-12-5-5 0-8 5-11 9 7 0 14-1 21-2 0 0 1 0 1-1zm9 11c3 3-3 8-5 11-6 6-17 9-25 3-8-5.003-10-16-6-24 3-5 8-11 15-11 6 0 12 0 16 5 4 3 3 10-2 11-8 2-16 3-24 3 0 4 1 7 4 10 4 4.003 11 4.003 15 1 5-2 8-7 13-9z"/>
 <path d="m3.16 1006c0-3 0-15 5-9.997 2 22 3 43 4 65-3 6-7-2-6-6-1-16-3-31-3-47v-1z"/>
 <path d="m47.16 1035c-3-3-7-6-12-5-5 0-8 5-11 9 7 0 14-1 21-2 0 0 1 0 1-1zm9 11c3 3-3 8-5 11-6 6-17 9-25 3-8-5-10-16-6-24 3-5 8-11 15-11 6 0 12 0 16 5 4 3 3 10-2 11-8 2-16 3-24 3 0 4 1 7 4 10 4 4 11 4 15 1 5-2 8-7 13-9z"/>
 <path d="m61.16 1058c1-6 5-1 7 1 3 3 9 2 11-2 4-4-1-8-5.002-8-4-2-9-2-13-6-4-3 0-9 2-12 3-4 8-5 14-5 3.002 0 6.002 0 8.002 2 3 2 2 8-2 5-3-4-8.002-2-12 0-4 1-10 7-2 9 5 2 12 3 16 7 3 6-1 15-8.002 17-4 0-9 0-13-2-2-1-3-4-3-6z"/>
 <path d="m138.2 1030c-1-5 8-8 6-2-2 9-6 18-10 27-2 4-4 8-9 10-5 0-6-7-8-11-3-9-6-18-8-28 3-5 7 4 8 7 3 8 5 17 8 26 5-8 8-18 12-27v-2z"/>
 <path d="m177.2 1035c-3-3-7-6-12-5-5 0-8 5-11 9 7 0 14-1 21-2 0 0 1 0 1-1zm9 11c3 3-3 8-5 11-6 6-17 9-25 3-8-5-10-16-6-24 3-5 8-11 15-11 6 0 12 0 16 5 4 3 3 10-2 11-8 2-16 3-24 3 0 4 1 7 4 10 4 4 11 4 15 1 5-2 8-7 13-9z"/>
 <path d="m217.2 1029c4 0 5 5 0 5-6 3-11 9-14 16-2 5-1 10-4 14-5 2-5-5-5-9-1-9-2-19-1-28 1-5 6-2 5 2 0 4 1 8 2 12 3-6 8-11 15-13h2z"/>
 <path d="m227.2 1058c1-6 5-1 7 1 3 3 9 2 11-2 4-4-1-8-5-8-4-2-9-2-13-6-4-3 0-9 2-12 3-4 8-5 14-5 3 0 6 0 8 2 3 2 2 8-2 5-3-4-8-2-12 0-4 1-10 7-2 9 5 2 12 3 16 7 3 6-1 15-8 17-4 0-9 0-13-2-2-1-3-4-3-6z"/>
 <path d="m263.2 1027c5-3 5 5 6 9 1 9 1 19 1 29-2 4-8 0-6-4 0-10-1-20-1-30 0-1 0-2 1-3zm-3-8c1-6 10-1 6 3-2 3-7 0-6-3z"/>
 <path d="m282.2 1031c5-5 12-8 19-8 5 0 13 1 14 7 2 10-1 21-8 28-7 6-19 8-26 2-4-4-7-9-6-15 0-5 3-10 7-14zm12 27c7 0 11-8 14-14 1-5 4-14-4-14-5 0-10 0-14 3-5 4-10 9-8 16 1 6 7 9 12 9z"/>
 <path d="m324.2 1026c-1-5 6-4 5 0 1 6 1 12 2 19 1-5 3-10 7-15 3-3 6-9 11-7 5 3 6 10 6 16 0 7 1 14 0 21 0 4-7 2-5-2 0-9 1-18-1-27-3-5-6 3-8 5-4 7-8 14-8 23 0 3-2 8-4 3-1-5-1-11-2-17 0-7-1-14-2-20z"/>
 <path d="m363.2 1058c1-6 5-1 7 1 3 3 9 2 11-2 4-4-1-8-5-8-4-2-9-2-13-6-4-3 0-9 2-12 3-4 8-5 14-5 3 0 6 0 8 2 3 2 2 8-2 5-3-4-8-2-12 0-4 1-10 7-2 9 5 2 12 3 16 7 3 6-1 15-8 17-4 0-9 0-13-2-2-1-3-4-3-6z"/>
 <path d="m462.2 1048v13c0 3-4 3-4 0 0-8 0-16-1-24 0-3 0-5-1-8-2-1-3 2-5 4-4 8-6 17-7 26 0 2 0 5-3 5-2-1-1-4-2-6 0-6 0-13-2-19-1-3-3-6-5-8-2 0-3 4-4 5-1 3-4 7-3 11 0 2-1 4-1 7v11c0 2-3 4-4 1s-1-6-1-10c0-7 0-15-1-22 0-3-1-7 0-10s4 1 4 3 1 5 1 7l3-6c1-2 2-4 5-4 4 0 7 2 9 5s2 7 3 10c2-5 4-10 9-14 2-2 6-2 8 0 3 3 3 7 3 11v10z"/>
 <path d="m473.2 1027c5-3 5 5 6 9 1 9 1 19 1 29-2 4-8 0-6-4 0-10-1-20-1-30 0-1 0-2 1-3zm-3-8c1-6 10-1 6 3-2 3-7 0-6-3z"/>
 <path d="m490.2 1026c-1-5 6-4 5 0 1 6 1 12 2 19 1-5 3-10 7-15 3-3 6-9 11-7 5 3 6 10 6 16 0 7 1 14 0 21 0 4-7 2-5-2 0-9 1-18-1-27-3-5-6 3-8 5-4 7-8 14-8 23 0 3-2 8-4 3-1-5-1-11-2-17 0-7-1-14-2-20z"/>
 <path d="m556.2 1035c-3-3-7-6-12-5-5 0-8 5-11 9 7 0 14-1 21-2 0 0 1 0 1-1zm9 11c3 3-3 8-5 11-6 6-17 9-25 3-8-5-10-16-6-24 3-5 8-11 15-11 6 0 12 0 16 5 4 3 3 10-2 11-8 2-16 3-24 3 0 4 1 7 4 10 4 4 11 4 15 1 5-2 8-7 13-9z"/>
 <path d="m573.2 1025c6 1 2 9 3 13 0 7 0 14 2 20 4 2 8-4 11-7 5-7 8-15 9-23 0-6 8-5 6 1-1 8-3 17 0 25 1 3 4 12-2 10-3-3-3-14-3-14s-10 14-17 16c-6 1-9-4-9-10-1-9-2-18-1-28 0-1 1-3 2-3z"/>
 <path d="m638.2 1029c4 0 5 5 0 5-6 3-11 9-14 16-2 5-1 10-4 14-5 2-5-5-5-9-1-9-2-19-1-28 1-5 6-2 5 2 0 4 1 8 2 12 3-6 8-11 15-13h2z"/>
 <path d="m675.2 1035c-3-3-7-6-12-5-5 0-8 5-11 9 7 0 14-1 21-2 0 0 1 0 1-1zm9 11c3 3-3 8-5 11-6 6-17 9-25 3-8-5-10-16-6-24 3-5 8-11 15-11 6 0 12 0 16 5 4 3 3 10-2 11-8 2-16 3-24 3 0 4 1 7 4 10 4 4 11 4 15 1 5-2 8-7 13-9z"/>
 <path d="m689.2 1058c1-6 5-1 7 1 3 3 9 2 11-2 4-4-1-8-5-8-4-2-9-2-13-6-4-3 0-9 2-12 3-4 8-5 14-5 3 0 6 0 8 2 3 2 2 8-2 5-3-4-8-2-12 0-4 1-10 7-2 9 5 2 12 3 16 7 3 6-1 15-8 17-4 0-9 0-13-2-2-1-3-4-3-6z"/>
 <path d="m732.2 1056c0 2-2 6-5 6s-3-4-3-6c0-3 3-3 5-2 1 0 2 1 2 2zm20 1c-1 2-2 6-5 6s-4-4-3-6c0-3 4-3 6-1 1 0 1 1 2 1zm-10 0c-1 2-2 6-4 6-3 0-4-3-3-6 0-2 3-4 5-2 1 0 2 1 3 2z"/>
</g>
<g id="visage" fill="#fff" stroke="#000" stroke-width="2">
 <g id="a" transform="translate(-3130 -220)">
  <g id="f">
   <path d="m3340 611c-20 63-50 109-100 150"/>
   <path d="m3320 681c-20 58-40 103-90 140"/>
   <path d="m3310 741c-20 51-40 94-90 120"/>
  </g>
  <use transform="matrix(-1,0,0,1,7020,0)" xlink:href="#f"/>
  <ellipse id="crane" cx="3510" cy="771" rx="200" ry="300" stroke-width="7"/>
  <g transform="translate(3230,441)" stroke-width="4">
   <path d="m114 257c17-47 89-49 123-30 51 32-16 116-60 114-34 2-72-42-63-84z"/>
   <g transform="matrix(-1,0,0,1,559,0)">
    <path d="m114 257c17-47 89-49 123-30 51 32-16 116-60 114-34 2-72-42-63-84z"/>
   </g>
   <path d="m221 220 116 1"/>
   <path d="m254 248h50"/>
  </g>
  <g id="narines">
   <circle cx="3490" cy="825" r="5"/>
   <circle cx="3530" cy="825" r="5"/>
  </g>
 </g>
 <g id="yeux_sceptiques" transform="translate(-3590 230)">
  <path id="oeuil_sceptique" d="m3850 278c20-6 50 2 60 18-10 9-40-1-60-18z"/>
  <use transform="matrix(-1,0,0,1,7940,0)" xlink:href="#oeuil_sceptique"/>
 </g>
 <rect transform="matrix(.9672 -.254 .2851 .9585 0 0)" x="105" y="785" width="108" height="19"/>
</g>
</svg>
