<?xml version="1.0" encoding="UTF-8"?>

<svg version="1.1"
     width="30em"
     viewBox="0 10 1535 1114"
     xmlns="http://www.w3.org/2000/svg"
     xmlns:xlink="http://www.w3.org/1999/xlink"
     fill="#fff" stroke="#000" stroke-width="6"
>

<rect id="fond_blanc_semi-transparent" x="0" y="0" width="3679" height="1114" stroke="#fff" opacity=".3"/>

<title>Les deux filles nerds utilisent toujours leurs bons vieux téléphones Neo FreeRunner et N900</title>

<metadata xmlns:rdf="http://www.w3.org/1999/02/22-rdf-syntax-ns#">
 <rdf:RDF xmlns:cc="http://creativecommons.org/ns#">
  <cc:Work rdf:about="https://github.com/cpp-frug/materials/blob/gh-pages/images/nerd_premiers_mobiles_os_libre.svg" xmlns:dc="http://purl.org/dc/elements/1.1/">
   <dc:format>image/svg+xml</dc:format>
   <dc:type rdf:resource="http://purl.org/dc/dcmitype/StillImage"/>
   <dc:creator>Oliver H</dc:creator>
   <dc:language>fr</dc:language>
   <dc:date>2016</dc:date>
   <cc:license rdf:resource="http://creativecommons.org/licenses/by-sa/3.0/"/>
  </cc:Work>
  <cc:License rdf:about="http://creativecommons.org/licenses/by-sa/3.0/">
   <cc:permits rdf:resource="http://creativecommons.org/ns#Reproduction"/>
   <cc:permits rdf:resource="http://creativecommons.org/ns#Distribution"/>
   <cc:permits rdf:resource="http://creativecommons.org/ns#DerivativeWorks"/>
   <cc:requires rdf:resource="http://creativecommons.org/ns#Notice"/>
   <cc:requires rdf:resource="http://creativecommons.org/ns#Attribution"/>
   <cc:requires rdf:resource="http://creativecommons.org/ns#ShareAlike"/>
  </cc:License>
 </rdf:RDF>
</metadata>

<defs>
 <radialGradient id="a" cx="516" cy="185" r="54" gradientTransform="matrix(6 0 0 3 -2730 -218)" gradientUnits="userSpaceOnUse">
  <stop stop-color="#44a" offset="0"/>
  <stop stop-color="#7c6" offset="1"/>
 </radialGradient>
 <radialGradient id="b" cx="516" cy="185" r="54" gradientTransform="matrix(6 0 0 3 -1825 -218)" gradientUnits="userSpaceOnUse">
  <stop stop-color="#8dd" offset="0"/>
  <stop stop-color="#dd8" offset="1"/>
 </radialGradient>
</defs>

<g fill="#000" stroke="#fff" stroke-width="1" font-family="Purisa" font-weight="bolder" font-size="65" letter-spacing="-4" word-spacing="-4" text-anchor="middle">
 <text>
  <tspan x="360" y="70" >Mon Neo FreeRunner</tspan>
  <tspan x="360" y="140">sous OpenMoko</tspan>
  <tspan x="360" y="210">me suit partout</tspan>
 </text>
 <text>
  <tspan x="1190" y="70" >Et moi, mon bon</tspan>
  <tspan x="1190" y="140">N900 toujours</tspan>
  <tspan x="1190" y="210">sous Maemo</tspan>
 </text>
</g>

<!--les 2 écrans-->
<g id="2ecrans" opacity=".3" stroke="#444" stroke-width="12">
 <rect x="6"   y="233" width="619" height="348" fill="url(#a)"/>
 <rect x="908" y="233" width="619" height="348" fill="url(#b)"/>
</g>

<!--bras-->
<path id="e" d="m285 625 392-250 39 16-390 286"/>
<use id="bras_court" transform="matrix(-1 0 0 1 1506 0)" xlink:href="#e"/>
<!--Neo FreeRunner--> 
<g id="NeoFreeRunner" fill="none" stroke="#777" stroke-width="4">
 <ellipse cx="707" cy="374" rx="31" ry="61" fill="#333" stroke-width="1"/>
 <rect x="685" y="342" width="46" height="30" fill="#bff"/>
 <rect x="688" y="380" width="38" height="35"/>
 <rect x="688" y="392" width="38" height="11"/>
 <rect x="701" y="380" width="12" height="34"/>
</g>
<!--N900-->
<rect x="778" fill="#333" stroke="#000" stroke-width="6" y="320" width="62" height="114"/>
<rect x="786" fill="#bff" stroke="#777" stroke-width="6" y="328" width="46" height="97" />
<!--doigts-->
<path id="h" d="m732 359c-3-1-15-1-15 5s13 7 13 7-12-1-12 5 11 6 11 6-12 0-12 6 11 5 11 5-12 0-12 6 10 6.5 14 6c4-1 14-5 13-23 0-18-10-21-13-22z"/>
<path id="g" d="m676 366c16 2 30 22-1 16-5-1-2-16 1-16z"/>
<use transform="matrix(-1 0 0 1 1510  0)" xlink:href="#h"/>
<use transform="matrix(-1 0 0 1 1519 -1)" xlink:href="#g"/>

<g id="long">
 <!--Fauteil long #1-->
 <path d="m328 632s29 13 167 29c-2 31-6 415-17 449-56 9-282-146-314-170-7-28-68-252-51-459 106 103 154 125 153 122"/>
 <!--Visage longs-->
 <path d="m340 638c-6-29-17-61-4-90 15-21 43-6 65-10 12-2 21-16 25-26-43-8-54-55-54-55s47 27 59 27c4-20-3-39 9-57 11 1 34-16 10-14-29 5-3-36-3-51 8-39-16-84-56-93-36-8-77 0-105 25-40 47-53 111-62 170-10 81-12 163 3 244 5 31 18 61 14 93"/>
 <!--Cheuveux longs-->
 <g fill="none">
  <path d="m383 267c-29 6-136 59-142 183-29 218 189 206 106 442"/>
  <path d="m448 326c-147-47-171 88-159 159 18 106 47 200-18 401"/>
  <path d="m330 273c-106 71-83 313-71 389 29 136 100 41 59 224"/>
  <path d="m419 285c-86-11-183 265-183 336s53 147 6 265"/>
  <path d="m437 305c-136-29-173 85-167 179 6 195 194 164 124 407"/>
 </g>
 <!--oeuil long-->
 <ellipse cx="408" cy="384" rx="23" ry="15" stroke-width="5"/>
 <g stroke-width="4">
  <path d="m428 354-8 15"/>
  <path d="m411 349-1 18"/>
  <path d="m440 364-12 9"/>
  <path d="m394 351 7 18"/>
  <path d="m380 357 13 15"/>
  <path d="m371 370 17 7"/>
  <circle cx="417" cy="384" r="6" fill="#0d0"/>
 </g>
</g>

<!--Tête court #1--> 
<path id="cou_court" d="m1245 642-11-134-61 55v94"/>
<path id="visage_court" d="m1157 492s-28 21-50 21c-4-23 4-33-7-33-17-6-17-6-6-22 11-11 0-61 0-95v6c0-28 95-50 145-22 95 72-27 207-65 218-38 10-58-23-58-23s41-7 40-49z"/>
<path id="cheuveux_courts" d="m1087 331c23-11-17 34 10 32 26-3-8-37 11-40 20-3 11 34 9 23s35-37 8-33 50 31 14 28 39-59 39-11-41-9-6-22 46.5 56 11 28c-35-28 53-42 45 0s-18-25 17-17c34 9 14 80-6 50-20-29 56 2 45 33s-52-10-22-22 12 77-4 88c-17 11 30-15 27 15s-67-9-28-28c39-18 59 89 8 58-50-31 64-61 42-25s-24-83-6-61c19 22-61 31-50 11s89 22 45 28c-45 6 7-84 20-39s-70-20-31-22c39-3 23 25-6 17-28-8-25-48 11-33 37 14-16 67-42 33-25-34 89-72 72-33s-60-46-22-39-15 43-53 57 13-111 39-80c26 32-73 34-39 6s11 64-17 50 80-26 50-28c-30-1-87-11-61-39 25-28 53 22 28 45-25 22-56-31-17-28s3 77-19 52 30-58 13-25-62-14-28-17-40 47-6 11c35-36-35 18 0-20 20-20-14-12-22 20-9 31 33-32-11-32-45 0 39 47-5 38-45-10-17 33-6 17 11-17-78-29-63-10s56-4 49-18c-7-15-67-6-44-17z"/>
<!--Fauteil court #1-->
<path d="m1058 657c175 3 250-86 333-199 20 123-15 389-39 442-33 45-204 199-272 208-12-21-25-410-21-451z"/>
<!--oeuil court-->
<g id="an" fill="none" stroke-width="3">
 <ellipse cx="1133" cy="425" rx="23" ry="12" fill="#fff" stroke-width="5"/>
 <path d="m1131 414s1-9-5-12"/>
 <path d="m1150 420s3-9 8-6"/>
 <path d="m1114 417s-1-6-7-7"/>
 <path d="m1125 415s1-9-7-12"/>
 <path d="m1120 416s-1-9-8-10"/>
 <path d="m1136 415s-3-11 3-13"/>
 <path d="m1141 415s-1-11 7-12"/>
 <path d="m1146 417s2-11 8-9"/>
</g>
<circle id="ap" cx="1125" cy="425" r="5" fill="#0bf" stroke-width="4"/>
 
</svg>
